<svg id="svg" version="1.1" xmlns="http://www.w3.org/2000/svg" xmlns:xlink="http://www.w3.org/1999/xlink" width="400" height="95.36" viewBox="0, 0, 400,95.36"><g id="svgg"><path id="path0" d="M305.226 0.125 C 305.289 0.194,311.170 6.081,318.295 13.208 L 331.250 26.166 352.542 26.166 L 373.833 26.167 373.833 47.459 L 373.833 68.751 386.792 81.709 C 393.919 88.836,399.807 94.667,399.875 94.667 C 399.944 94.667,400.000 73.367,400.000 47.333 L 400.000 0.000 352.556 0.000 C 326.461 0.000,305.163 0.056,305.226 0.125 M32.646 7.711 C 32.313 8.557,31.811 9.850,31.530 10.583 C 31.249 11.317,30.560 13.004,30.000 14.333 C 29.440 15.662,28.750 17.350,28.466 18.083 C 27.911 19.523,26.703 22.523,25.263 26.042 C 24.766 27.256,24.059 29.037,23.692 30.000 C 23.325 30.962,22.565 32.837,22.003 34.167 C 21.441 35.496,20.750 37.183,20.466 37.917 C 19.911 39.356,18.703 42.356,17.263 45.875 C 16.766 47.090,16.059 48.871,15.692 49.833 C 15.325 50.796,14.565 52.671,14.003 54.000 C 13.441 55.329,12.750 57.017,12.466 57.750 C 11.915 59.179,10.679 62.248,9.246 65.750 C 8.758 66.942,8.059 68.704,7.692 69.667 C 7.325 70.629,6.565 72.504,6.003 73.833 C 5.441 75.162,4.751 76.850,4.470 77.583 C 3.978 78.866,3.365 80.387,1.064 86.023 C 0.479 87.457,-0.000 88.751,-0.000 88.899 C -0.000 89.146,0.962 89.165,11.024 89.126 L 22.047 89.083 22.658 87.583 C 22.994 86.758,23.445 85.558,23.660 84.917 C 24.158 83.433,24.544 82.403,25.878 79.000 C 26.878 76.451,27.966 73.532,28.100 73.041 C 28.145 72.875,31.907 72.841,46.514 72.874 L 64.871 72.917 65.606 74.583 C 66.781 77.249,67.948 80.035,68.152 80.667 C 68.255 80.987,69.104 83.031,70.038 85.208 L 71.735 89.167 82.951 89.167 C 89.120 89.167,94.167 89.103,94.167 89.025 C 94.167 88.946,93.800 88.103,93.352 87.150 C 92.904 86.196,92.200 84.592,91.789 83.583 C 91.377 82.575,90.500 80.587,89.841 79.167 C 88.449 76.168,88.235 75.686,87.545 74.000 C 87.263 73.313,86.419 71.438,85.669 69.833 C 84.919 68.229,84.171 66.542,84.008 66.083 C 83.713 65.254,82.638 62.854,81.210 59.833 C 80.799 58.962,80.289 57.800,80.078 57.250 C 79.867 56.700,79.194 55.163,78.583 53.833 C 77.595 51.683,76.782 49.844,75.381 46.583 C 75.144 46.033,74.653 44.946,74.289 44.167 C 73.926 43.387,73.461 42.375,73.257 41.917 C 73.053 41.458,72.696 40.671,72.464 40.167 C 72.232 39.662,71.850 38.762,71.616 38.167 C 71.382 37.571,70.575 35.771,69.824 34.167 C 69.073 32.563,68.283 30.786,68.069 30.219 C 67.855 29.651,67.377 28.538,67.007 27.744 C 66.636 26.950,66.333 26.278,66.333 26.251 C 66.333 26.223,65.911 25.312,65.394 24.225 C 64.877 23.139,64.284 21.800,64.074 21.250 C 63.689 20.237,62.614 17.818,61.333 15.083 C 60.946 14.258,60.309 12.796,59.916 11.833 C 59.524 10.871,58.785 9.202,58.274 8.125 L 57.346 6.167 45.298 6.169 L 33.250 6.171 32.646 7.711 M103.500 47.667 L 103.500 89.167 113.833 89.167 L 124.167 89.167 124.167 63.490 L 124.167 37.813 124.818 38.566 C 125.177 38.980,125.747 39.604,126.085 39.951 C 126.423 40.299,127.049 41.026,127.475 41.567 C 127.901 42.108,128.662 43.009,129.167 43.568 C 129.671 44.127,131.583 46.340,133.417 48.485 C 137.760 53.567,139.129 55.158,139.595 55.667 C 139.805 55.896,140.407 56.608,140.932 57.250 C 141.458 57.892,142.344 58.911,142.902 59.515 C 143.460 60.120,144.436 61.263,145.070 62.057 L 146.223 63.500 147.993 63.500 L 149.763 63.500 150.923 62.067 C 151.561 61.279,152.539 60.135,153.096 59.525 C 153.653 58.916,154.577 57.854,155.149 57.167 C 155.721 56.479,156.392 55.692,156.640 55.417 C 156.888 55.142,159.107 52.554,161.572 49.667 C 164.037 46.779,166.435 43.998,166.902 43.485 C 167.368 42.973,168.140 42.070,168.617 41.479 C 169.094 40.888,169.742 40.145,170.058 39.827 C 170.373 39.510,170.901 38.924,171.232 38.526 L 171.833 37.802 171.833 63.484 L 171.833 89.167 182.167 89.167 L 192.500 89.167 192.500 47.667 L 192.500 6.167 183.458 6.177 L 174.417 6.188 172.833 8.042 C 171.963 9.063,170.725 10.486,170.083 11.205 C 169.442 11.924,168.666 12.828,168.359 13.214 C 168.053 13.601,167.003 14.804,166.026 15.888 C 165.049 16.972,164.175 17.995,164.083 18.160 C 163.992 18.325,163.255 19.171,162.447 20.041 C 161.639 20.911,160.677 22.026,160.309 22.520 C 159.942 23.013,159.246 23.829,158.764 24.333 C 158.281 24.837,157.218 26.033,156.401 26.989 C 148.175 36.625,148.050 36.760,147.699 36.352 C 147.544 36.172,145.842 34.212,143.917 31.996 C 141.992 29.780,139.981 27.445,139.448 26.808 C 138.915 26.171,138.004 25.147,137.423 24.531 C 136.843 23.916,136.065 23.010,135.695 22.518 C 135.325 22.025,134.361 20.909,133.553 20.037 C 132.745 19.164,131.962 18.256,131.814 18.017 C 131.666 17.779,130.851 16.833,130.003 15.917 C 129.155 15.000,128.266 13.987,128.027 13.667 C 127.788 13.346,127.141 12.591,126.588 11.990 C 126.036 11.388,124.683 9.834,123.583 8.536 L 121.583 6.175 112.542 6.171 L 103.500 6.167 103.500 47.667 M208.123 6.266 C 208.055 6.333,208.000 25.014,208.000 47.778 L 208.000 89.167 226.292 89.166 C 249.584 89.165,251.950 89.019,260.583 87.052 C 265.420 85.950,271.708 82.964,276.324 79.578 C 292.838 67.462,295.457 38.506,281.591 21.336 C 276.442 14.961,267.335 9.503,259.083 7.849 C 251.004 6.228,252.149 6.290,228.665 6.211 C 217.435 6.173,208.191 6.198,208.123 6.266 M245.417 21.835 C 258.121 23.000,266.149 29.686,268.254 40.853 C 271.055 55.718,264.948 68.256,253.083 72.004 C 248.347 73.500,246.824 73.655,236.792 73.661 L 228.833 73.667 228.833 47.667 L 228.833 21.667 236.208 21.667 C 240.265 21.667,244.408 21.743,245.417 21.835 M46.841 29.421 C 47.400 30.702,47.993 32.162,48.159 32.667 C 48.325 33.171,49.227 35.346,50.164 37.500 C 51.101 39.654,51.938 41.659,52.024 41.954 C 52.110 42.250,52.671 43.637,53.272 45.037 C 54.623 48.189,55.781 50.977,56.508 52.833 C 56.813 53.612,57.264 54.700,57.512 55.250 C 58.348 57.111,58.667 57.875,58.667 58.021 C 58.667 58.103,53.211 58.167,46.250 58.167 C 39.421 58.167,33.833 58.108,33.833 58.037 C 33.833 57.966,34.250 56.859,34.759 55.579 C 35.268 54.298,35.788 52.875,35.915 52.417 C 36.041 51.958,37.012 49.385,38.072 46.698 C 39.133 44.011,40.000 41.713,40.000 41.590 C 40.000 41.468,40.297 40.629,40.659 39.726 C 42.072 36.208,43.485 32.534,43.824 31.500 C 44.510 29.405,45.571 26.838,45.698 26.964 C 45.768 27.035,46.283 28.140,46.841 29.421 M317.756 44.400 L 304.333 57.813 304.333 76.573 L 304.333 95.333 323.316 95.333 L 342.298 95.333 355.566 82.068 C 362.863 74.772,368.833 68.697,368.833 68.568 C 368.833 68.368,366.101 68.333,350.167 68.333 L 331.500 68.333 331.500 49.760 C 331.500 38.004,331.441 31.150,331.339 31.087 C 331.251 31.032,325.138 37.023,317.756 44.400 " stroke="none" fill="#040404" fill-rule="evenodd"></path><path id="path1" d="" stroke="none" fill="#080404" fill-rule="evenodd"></path><path id="path2" d="" stroke="none" fill="#080404" fill-rule="evenodd"></path><path id="path3" d="" stroke="none" fill="#080404" fill-rule="evenodd"></path><path id="path4" d="" stroke="none" fill="#080404" fill-rule="evenodd"></path></g></svg>