<svg id="svg" version="1.1" xmlns="http://www.w3.org/2000/svg" xmlns:xlink="http://www.w3.org/1999/xlink" width="400" height="347.4130619168787" viewBox="0, 0, 400,347.4130619168787"><g id="svgg"><path id="path0" d="M106.701 161.634 C 103.711 162.969,102.370 166.461,103.660 169.549 C 106.259 175.770,115.352 173.973,115.352 167.239 C 115.352 162.773,110.782 159.812,106.701 161.634 " stroke="none" fill="#fcfc04" fill-rule="evenodd"></path><path id="path1" d="M64.631 111.337 C 58.588 114.680,61.544 124.088,68.297 123.008 C 75.877 121.796,74.956 110.912,67.277 110.952 C 66.195 110.957,65.004 111.131,64.631 111.337 " stroke="none" fill="#04fc04" fill-rule="evenodd"></path><path id="path2" d="M151.531 121.938 C 148.727 122.976,147.388 125.216,147.655 128.427 C 148.274 135.891,159.796 135.235,159.796 127.735 C 159.796 123.549,155.438 120.492,151.531 121.938 " stroke="none" fill="#fc0404" fill-rule="evenodd"></path><path id="path3" d="M221.204 9.083 C 221.204 9.210,222.231 10.347,223.485 11.612 L 225.766 13.910 223.485 16.209 C 222.231 17.473,221.204 18.601,221.204 18.716 C 221.204 18.831,224.290 18.026,228.060 16.926 C 236.099 14.583,235.454 14.669,235.454 15.946 C 235.454 16.737,235.605 16.964,236.132 16.964 C 236.698 16.964,236.811 16.737,236.811 15.606 C 236.811 14.476,236.924 14.249,237.489 14.249 C 239.330 14.249,237.559 13.540,231.298 11.771 C 227.519 10.703,223.702 9.610,222.816 9.341 C 221.930 9.073,221.204 8.957,221.204 9.083 M159.457 10.701 C 159.457 10.887,160.450 14.504,161.662 18.739 C 162.875 22.975,163.868 26.980,163.868 27.639 C 163.868 28.479,164.020 28.838,164.377 28.838 C 164.725 28.838,164.885 28.489,164.885 27.729 C 164.885 27.120,165.885 23.132,167.106 18.868 C 169.737 9.679,169.748 9.872,166.758 12.886 L 164.394 15.268 161.925 12.817 C 160.568 11.468,159.457 10.516,159.457 10.701 M235.454 21.035 C 235.454 22.505,235.544 22.731,236.132 22.731 C 236.720 22.731,236.811 22.505,236.811 21.035 C 236.811 19.565,236.720 19.338,236.132 19.338 C 235.544 19.338,235.454 19.565,235.454 21.035 M235.454 26.802 C 235.454 28.273,235.544 28.499,236.132 28.499 C 236.720 28.499,236.811 28.273,236.811 26.802 C 236.811 25.332,236.720 25.106,236.132 25.106 C 235.544 25.106,235.454 25.332,235.454 26.802 M235.454 32.570 C 235.454 34.040,235.544 34.266,236.132 34.266 C 236.720 34.266,236.811 34.040,236.811 32.570 C 236.811 31.100,236.720 30.874,236.132 30.874 C 235.544 30.874,235.454 31.100,235.454 32.570 M163.734 32.089 C 163.264 33.314,163.507 34.606,164.207 34.606 C 164.785 34.606,164.885 34.379,164.885 33.079 C 164.885 31.525,164.183 30.920,163.734 32.089 M194.929 33.448 C 178.828 37.048,170.488 54.467,177.665 69.503 C 178.321 70.876,178.729 72.113,178.572 72.252 C 178.415 72.390,177.142 73.340,175.742 74.362 C 174.343 75.384,166.520 81.204,158.358 87.295 L 143.519 98.370 142.413 96.866 C 141.007 94.955,141.782 94.421,135.554 101.592 L 130.141 107.826 127.626 105.477 C 120.085 98.434,108.677 96.825,99.209 101.469 C 83.525 109.162,80.380 130.226,93.094 142.434 L 95.317 144.569 84.554 161.003 C 78.635 170.042,73.674 177.438,73.530 177.438 C 73.386 177.438,72.649 177.029,71.892 176.528 C 70.200 175.409,70.666 174.676,66.971 184.278 C 65.330 188.540,63.861 192.027,63.705 192.027 C 63.549 192.027,62.701 191.663,61.821 191.218 C 45.657 183.040,26.293 194.539,25.536 212.765 C 24.353 241.254,63.519 249.642,74.204 223.189 C 77.987 213.824,75.159 201.585,67.744 195.234 L 66.327 194.020 72.689 187.904 C 76.187 184.539,79.050 181.650,79.050 181.483 C 79.050 181.254,77.342 179.990,76.070 179.279 C 75.993 179.236,97.159 146.745,97.579 146.261 C 97.643 146.187,98.653 146.557,99.823 147.083 C 106.630 150.145,115.119 150.076,121.504 146.909 C 123.129 146.102,123.680 145.960,123.872 146.296 C 124.010 146.537,128.929 154.063,134.803 163.020 L 145.483 179.304 143.988 180.278 C 142.060 181.533,141.616 180.810,148.580 187.766 L 154.666 193.845 151.966 196.698 C 141.450 207.807,143.722 228.024,156.275 235.049 C 156.662 235.266,143.490 260.188,142.260 261.568 C 142.181 261.656,141.372 261.309,140.461 260.797 L 138.804 259.866 137.621 263.690 C 136.970 265.794,135.939 269.194,135.330 271.247 C 134.722 273.299,134.202 275.016,134.176 275.061 C 134.151 275.107,132.887 274.690,131.368 274.136 C 107.947 265.588,87.474 292.368,101.935 312.634 C 111.824 326.492,133.129 326.492,143.018 312.634 C 150.237 302.518,149.179 289.112,140.453 280.142 L 137.555 277.163 142.733 271.194 C 145.580 267.911,147.826 265.089,147.723 264.923 C 147.620 264.756,146.881 264.279,146.081 263.862 L 144.625 263.104 151.787 250.148 C 160.133 235.047,158.998 236.638,160.861 237.437 C 166.515 239.860,174.396 239.757,180.532 237.179 C 181.886 236.610,183.055 236.207,183.130 236.283 C 183.206 236.359,186.368 242.043,190.157 248.914 L 197.047 261.408 195.809 262.155 C 195.129 262.565,194.367 263.025,194.117 263.175 C 193.784 263.376,195.153 265.168,199.234 269.877 L 204.807 276.304 202.912 277.700 C 189.946 287.256,189.789 308.084,202.609 317.721 C 220.162 330.916,244.749 318.069,243.493 296.359 C 242.522 279.578,226.151 268.545,210.072 273.835 C 208.893 274.223,207.889 274.486,207.839 274.420 C 207.789 274.354,206.696 270.751,205.408 266.412 C 204.121 262.074,202.912 258.526,202.721 258.528 C 202.531 258.531,201.735 258.898,200.953 259.346 L 199.531 260.159 192.556 247.505 C 184.441 232.784,185.131 234.797,187.468 232.662 C 208.459 213.477,186.227 179.581,160.031 190.832 L 157.383 191.969 157.049 191.065 C 155.998 188.222,151.208 175.891,151.111 175.780 C 151.047 175.708,150.276 176.117,149.396 176.689 L 147.798 177.729 143.981 171.901 C 141.882 168.696,136.960 161.187,133.044 155.216 L 125.923 144.360 127.741 142.663 C 135.736 135.206,138.051 123.032,133.349 113.179 C 132.780 111.988,132.316 110.949,132.316 110.870 C 132.316 110.791,135.670 109.209,139.769 107.356 C 147.910 103.676,147.661 103.884,146.213 101.971 C 145.657 101.236,145.317 100.534,145.459 100.411 C 145.601 100.289,153.554 94.356,163.132 87.228 L 180.547 74.267 183.024 76.619 C 192.547 85.665,207.774 85.803,217.325 76.930 C 218.480 75.857,219.523 74.979,219.643 74.979 C 219.869 74.979,252.897 99.479,253.737 100.269 C 254.137 100.646,254.046 100.935,253.143 102.163 C 251.822 103.959,251.185 103.473,260.221 107.572 C 264.419 109.477,267.915 111.087,267.988 111.151 C 268.062 111.215,267.716 112.174,267.218 113.283 C 257.453 135.041,279.927 157.254,301.205 146.875 C 302.641 146.175,303.839 145.628,303.868 145.659 C 303.950 145.748,325.199 178.235,325.465 178.679 C 325.609 178.918,325.103 179.449,324.174 180.036 C 322.238 181.260,321.726 180.428,328.702 187.396 L 334.758 193.445 332.180 196.053 C 322.764 205.575,322.206 220.930,330.925 230.581 L 332.722 232.570 328.282 239.355 C 325.840 243.087,321.469 249.759,318.569 254.182 L 313.295 262.223 311.684 261.175 C 310.798 260.599,310.025 260.186,309.966 260.259 C 309.907 260.331,308.517 263.902,306.877 268.193 C 305.237 272.485,303.853 276.047,303.801 276.108 C 303.749 276.170,302.582 275.679,301.208 275.018 C 291.548 270.372,279.949 272.325,272.448 279.861 C 256.435 295.946,267.428 322.986,289.979 322.986 C 312.559 322.986,323.948 296.155,308.211 280.036 L 306.472 278.255 312.683 272.050 L 318.894 265.845 317.361 264.848 C 315.464 263.614,314.560 265.425,325.212 249.125 C 336.074 232.503,334.558 234.203,337.122 235.766 C 354.081 246.105,375.937 232.974,375.151 212.918 C 374.441 194.831,354.961 183.005,339.157 191.067 C 337.543 191.891,338.142 192.862,334.521 183.545 C 330.873 174.161,331.518 175.102,329.623 176.406 L 328.071 177.474 324.113 171.434 C 321.935 168.112,317.001 160.576,313.147 154.688 L 306.139 143.981 308.621 141.350 C 315.648 133.901,317.431 122.385,312.988 113.146 C 305.559 97.701,285.199 93.996,272.703 105.814 L 269.890 108.475 264.139 101.868 C 257.717 94.490,258.503 94.936,256.581 97.574 L 255.977 98.403 238.624 85.454 L 221.271 72.506 222.229 70.943 C 233.458 52.639,216.046 28.725,194.929 33.448 M206.785 36.645 C 223.124 41.701,228.219 62.003,216.154 73.978 C 204.970 85.078,187.091 82.124,180.124 68.024 C 171.528 50.626,188.274 30.916,206.785 36.645 M235.454 38.338 C 235.454 39.808,235.544 40.034,236.132 40.034 C 236.720 40.034,236.811 39.808,236.811 38.338 C 236.811 36.867,236.720 36.641,236.132 36.641 C 235.544 36.641,235.454 36.867,235.454 38.338 M163.377 37.744 C 162.844 39.488,162.886 40.373,163.501 40.373 C 164.224 40.373,164.546 39.737,164.546 38.310 C 164.546 37.302,163.646 36.866,163.377 37.744 M235.454 43.936 C 235.454 45.236,235.554 45.462,236.132 45.462 C 236.710 45.462,236.811 45.236,236.811 43.936 C 236.811 42.635,236.710 42.409,236.132 42.409 C 235.554 42.409,235.454 42.635,235.454 43.936 M161.522 43.962 C 160.785 45.211,160.834 45.802,161.674 45.802 C 162.190 45.802,163.189 44.136,163.189 43.274 C 163.189 42.333,162.256 42.719,161.522 43.962 M158.211 48.258 C 157.193 49.334,157.051 50.212,157.895 50.212 C 158.840 50.212,160.310 48.205,159.764 47.660 C 159.314 47.209,159.139 47.277,158.211 48.258 M193.723 58.524 L 193.723 69.211 195.250 69.211 L 196.777 69.211 196.777 64.122 L 196.777 59.033 201.018 59.033 L 205.259 59.033 205.259 57.676 L 205.259 56.319 201.018 56.319 L 196.777 56.319 196.777 53.435 L 196.777 50.551 201.357 50.551 L 205.937 50.551 205.937 49.194 L 205.937 47.837 199.830 47.837 L 193.723 47.837 193.723 58.524 M235.495 50.127 C 235.552 51.452,235.287 53.079,234.668 55.195 C 233.490 59.229,233.513 59.406,235.030 57.948 L 236.302 56.725 237.429 57.817 C 238.430 58.786,238.497 58.959,238.024 59.351 C 237.515 59.774,238.504 62.438,239.163 62.421 C 240.053 62.397,240.177 61.795,239.551 60.536 C 238.527 58.480,236.811 51.813,236.811 49.894 C 236.811 48.385,236.726 48.176,236.111 48.176 C 235.476 48.176,235.419 48.356,235.495 50.127 M153.743 52.189 C 152.731 53.028,152.667 53.178,153.148 53.578 C 153.915 54.214,156.319 52.454,155.700 51.709 C 155.170 51.069,155.060 51.096,153.743 52.189 M148.092 55.101 C 146.972 56.464,145.415 57.991,144.632 58.495 C 143.713 59.087,143.275 59.585,143.396 59.901 C 143.658 60.584,144.184 60.514,145.553 59.613 C 146.203 59.186,148.158 58.391,149.897 57.845 C 153.430 56.738,153.793 56.492,152.327 56.199 C 151.724 56.078,151.315 55.783,151.315 55.469 C 151.315 55.178,151.092 54.855,150.820 54.751 C 150.475 54.618,150.386 54.264,150.524 53.574 C 150.824 52.074,150.318 52.391,148.092 55.101 M139.675 61.598 C 137.607 63.005,138.396 63.969,140.549 62.666 C 141.663 61.992,141.772 61.818,141.397 61.306 C 140.996 60.760,140.879 60.779,139.675 61.598 M134.636 64.568 C 133.032 65.555,133.334 66.883,134.962 66.001 C 136.559 65.135,136.754 64.929,136.532 64.349 C 136.255 63.630,136.139 63.643,134.636 64.568 M241.306 64.029 C 240.676 64.252,240.791 64.853,241.678 65.960 C 242.403 66.866,243.624 67.054,243.582 66.253 C 243.553 65.690,241.708 63.887,241.306 64.029 M129.686 67.511 C 128.571 68.191,128.322 68.671,128.900 69.027 C 129.452 69.369,131.637 68.111,131.637 67.452 C 131.637 66.657,131.058 66.675,129.686 67.511 M244.747 68.593 C 244.511 68.974,246.453 70.908,247.072 70.908 C 247.819 70.908,247.641 69.833,246.767 69.064 C 245.699 68.125,245.119 67.990,244.747 68.593 M124.770 70.329 C 123.396 71.139,123.363 71.192,123.794 71.873 C 124.079 72.322,124.879 72.055,126.475 70.978 C 127.934 69.992,126.358 69.392,124.770 70.329 M249.345 72.118 C 249.116 72.394,248.988 72.667,249.061 72.723 C 251.465 74.586,252.417 74.834,252.417 73.599 C 252.417 72.914,249.751 71.628,249.345 72.118 M119.847 73.343 C 118.765 74.011,118.439 74.750,119.058 75.132 C 119.567 75.447,121.842 73.931,121.730 73.352 C 121.581 72.584,121.083 72.581,119.847 73.343 M254.106 75.497 C 253.870 75.781,253.738 76.059,253.811 76.116 C 255.770 77.623,257.130 77.842,257.162 76.653 C 257.179 76.011,254.516 75.003,254.106 75.497 M115.102 76.442 C 113.188 77.735,113.848 78.836,115.835 77.663 C 117.177 76.872,117.129 76.941,116.842 76.194 C 116.582 75.516,116.443 75.535,115.102 76.442 M259.090 78.258 C 258.653 78.695,258.873 79.066,259.966 79.732 C 261.279 80.533,261.779 80.577,262.033 79.915 C 262.333 79.134,259.697 77.651,259.090 78.258 M110.121 79.846 C 108.676 81.002,109.086 82.095,110.626 81.191 C 111.944 80.417,112.418 79.857,112.138 79.404 C 111.797 78.853,111.198 78.984,110.121 79.846 M264.144 80.982 C 263.890 81.642,264.096 81.851,265.583 82.437 C 266.775 82.908,267.842 82.464,267.159 81.782 C 266.292 80.918,264.365 80.406,264.144 80.982 M105.752 82.971 C 104.418 83.877,104.334 84.037,104.803 84.778 C 105.089 85.230,107.558 83.778,107.544 83.166 C 107.521 82.240,106.923 82.174,105.752 82.971 M269.618 82.998 C 268.993 83.622,270.851 85.157,272.232 85.157 C 272.909 85.157,272.551 83.787,271.803 83.516 C 271.311 83.337,270.671 83.094,270.381 82.976 C 270.091 82.858,269.748 82.867,269.618 82.998 M274.809 85.459 C 274.809 85.879,275.132 86.178,275.742 86.324 C 276.255 86.446,276.923 86.620,277.227 86.709 C 277.571 86.811,277.842 86.629,277.948 86.225 C 278.081 85.714,277.850 85.498,276.848 85.198 C 275.110 84.677,274.809 84.716,274.809 85.459 M293.299 86.570 C 290.741 87.309,289.427 87.514,287.956 87.404 C 286.212 87.272,286.005 87.326,286.005 87.903 C 286.005 88.371,286.263 88.563,286.938 88.597 C 289.531 88.729,290.472 88.898,293.105 89.707 C 296.826 90.850,297.233 90.840,296.077 89.634 C 294.935 88.442,294.935 87.979,296.074 86.791 C 297.335 85.474,297.143 85.458,293.299 86.570 M100.986 86.706 C 100.111 87.475,99.933 88.550,100.681 88.550 C 101.299 88.550,103.241 86.616,103.006 86.235 C 102.633 85.632,102.053 85.767,100.986 86.706 M280.364 86.675 C 280.063 87.458,282.494 88.533,283.357 88.000 C 283.948 87.634,283.582 86.915,282.697 86.704 C 282.184 86.582,281.496 86.402,281.169 86.305 C 280.811 86.199,280.490 86.346,280.364 86.675 M297.407 89.086 C 297.294 89.381,297.201 89.663,297.201 89.711 C 297.201 89.954,299.975 90.588,300.261 90.411 C 300.972 89.972,300.535 89.318,299.282 88.943 C 297.628 88.447,297.653 88.445,297.407 89.086 M96.549 90.558 C 95.632 91.515,95.601 92.282,96.479 92.282 C 97.117 92.282,98.836 90.356,98.575 89.934 C 98.195 89.319,97.544 89.519,96.549 90.558 M302.746 91.109 C 302.636 91.397,302.603 91.668,302.672 91.713 C 304.545 92.898,305.988 92.988,306.017 91.920 C 306.038 91.150,303.018 90.401,302.746 91.109 M193.723 91.856 C 193.723 92.020,194.183 92.595,194.744 93.132 L 195.764 94.110 194.682 95.226 C 193.150 96.807,193.545 96.877,197.436 95.713 C 200.323 94.849,201.224 94.717,203.066 94.889 C 205.163 95.085,205.259 95.061,205.259 94.345 C 205.259 93.652,205.116 93.602,203.308 93.671 C 201.572 93.737,199.775 93.350,194.317 91.733 C 193.991 91.636,193.723 91.692,193.723 91.856 M307.945 93.526 C 307.449 94.021,307.775 94.636,308.900 95.331 C 310.915 96.577,311.576 95.353,309.585 94.063 C 308.272 93.212,308.261 93.209,307.945 93.526 M92.478 94.629 C 91.561 95.586,91.530 96.353,92.408 96.353 C 93.045 96.353,94.765 94.428,94.504 94.006 C 94.124 93.390,93.472 93.591,92.478 94.629 M191.603 93.882 C 190.936 93.983,190.670 94.221,190.670 94.715 C 190.670 95.207,190.825 95.348,191.207 95.202 C 191.502 95.088,192.189 94.996,192.733 94.996 C 193.497 94.996,193.723 94.841,193.723 94.317 C 193.723 93.627,193.537 93.589,191.603 93.882 M207.634 94.656 C 207.634 95.203,207.860 95.335,208.793 95.335 C 209.431 95.335,210.194 95.428,210.490 95.541 C 210.868 95.686,211.026 95.548,211.026 95.072 C 211.026 94.357,210.200 93.991,208.567 93.983 C 207.858 93.979,207.634 94.141,207.634 94.656 M185.327 94.542 C 184.149 95.017,184.921 95.847,186.429 95.727 C 187.660 95.629,187.956 95.481,187.956 94.962 C 187.956 94.322,186.463 94.084,185.327 94.542 M213.401 95.293 C 213.401 96.028,215.246 96.629,216.282 96.231 C 216.973 95.966,216.929 95.419,216.200 95.214 C 213.947 94.579,213.401 94.595,213.401 95.293 M180.326 95.293 C 178.430 95.699,178.749 96.837,180.685 96.572 C 182.571 96.313,182.612 96.288,182.330 95.553 C 182.104 94.966,181.950 94.946,180.326 95.293 M219.035 96.550 C 218.922 96.845,218.830 97.134,218.830 97.191 C 218.830 97.248,219.375 97.397,220.041 97.522 C 220.707 97.647,221.471 97.833,221.737 97.936 C 222.061 98.060,222.222 97.889,222.222 97.423 C 222.222 96.904,221.894 96.633,220.950 96.371 C 219.307 95.914,219.278 95.917,219.035 96.550 M174.555 96.595 C 173.600 96.824,173.350 97.133,173.682 97.671 C 174.088 98.328,176.545 97.728,176.698 96.934 C 176.812 96.340,176.090 96.226,174.555 96.595 M312.480 97.187 C 311.735 98.085,314.128 100.257,314.953 99.432 C 315.229 99.156,315.008 98.734,314.127 97.853 C 313.058 96.784,312.876 96.710,312.480 97.187 M88.707 98.883 C 87.834 100.028,87.821 100.763,88.675 100.763 C 89.291 100.763,90.673 98.768,90.454 98.196 C 90.159 97.428,89.671 97.620,88.707 98.883 M169.316 98.185 C 167.085 98.988,167.880 100.154,170.149 99.405 C 170.957 99.138,171.334 98.822,171.265 98.469 C 171.126 97.749,170.699 97.687,169.316 98.185 M224.597 98.335 C 224.597 98.869,226.360 99.746,227.435 99.746 C 228.202 99.746,227.485 98.465,226.524 98.117 C 224.983 97.560,224.597 97.604,224.597 98.335 M163.613 100.334 C 162.437 100.923,162.370 101.034,162.791 101.698 C 163.173 102.300,165.948 101.135,165.818 100.428 C 165.689 99.720,164.903 99.686,163.613 100.334 M229.884 100.303 C 229.766 100.610,229.712 100.881,229.763 100.907 C 232.221 102.134,233.079 102.239,233.079 101.315 C 233.079 100.359,230.211 99.450,229.884 100.303 M316.585 101.217 C 316.030 101.886,317.629 104.237,318.430 103.930 C 319.149 103.654,319.023 103.074,317.971 101.813 C 317.135 100.812,316.978 100.744,316.585 101.217 M114.334 101.922 C 132.308 105.149,139.244 127.061,126.367 139.938 C 112.709 153.596,89.452 144.877,87.984 125.547 C 87.180 114.963,95.290 104.139,105.513 102.151 C 106.539 101.951,107.684 101.728,108.058 101.654 C 109.462 101.378,111.873 101.481,114.334 101.922 M295.387 102.154 C 312.449 106.291,318.388 127.315,306.026 139.817 C 292.123 153.878,268.659 144.799,267.773 125.015 C 267.107 110.165,280.999 98.664,295.387 102.154 M158.694 102.822 C 157.344 103.535,157.196 103.794,157.796 104.395 C 158.124 104.723,159.070 104.369,160.737 103.295 C 160.911 103.183,160.404 102.120,160.184 102.135 C 160.064 102.144,159.394 102.453,158.694 102.822 M235.161 102.712 C 234.726 103.524,237.375 105.222,237.867 104.445 C 238.315 103.738,238.260 103.654,236.829 102.850 C 235.555 102.134,235.474 102.127,235.161 102.712 M85.171 103.700 C 84.475 104.880,84.601 105.486,85.547 105.508 C 85.924 105.517,87.212 103.104,87.007 102.773 C 86.609 102.130,85.880 102.498,85.171 103.700 M153.763 106.104 C 152.962 106.788,152.752 107.171,152.982 107.526 C 153.379 108.137,155.786 106.649,155.644 105.881 C 155.493 105.060,154.903 105.130,153.763 106.104 M240.090 105.400 C 239.595 105.895,239.921 106.510,241.046 107.206 C 243.061 108.451,243.722 107.227,241.731 105.937 C 240.418 105.087,240.407 105.083,240.090 105.400 M319.982 105.814 C 319.552 106.087,320.748 108.906,321.289 108.898 C 322.242 108.884,322.348 108.224,321.609 106.908 C 320.772 105.419,320.691 105.365,319.982 105.814 M82.978 107.464 C 82.282 108.156,81.753 110.047,82.181 110.318 C 82.872 110.757,82.986 110.674,83.617 109.275 C 84.313 107.730,83.897 106.551,82.978 107.464 M244.626 109.061 C 244.276 109.483,244.394 109.728,245.322 110.510 C 246.629 111.609,247.159 111.698,247.159 110.815 C 247.159 109.801,245.161 108.417,244.626 109.061 M149.512 109.857 C 148.498 110.916,148.369 111.459,149.068 111.727 C 149.793 112.005,151.760 109.826,151.247 109.313 C 150.676 108.742,150.540 108.784,149.512 109.857 M322.729 110.883 C 322.322 111.141,323.181 113.991,323.664 113.986 C 324.607 113.977,324.781 113.307,324.185 111.985 C 323.529 110.532,323.417 110.447,322.729 110.883 M78.220 113.910 C 78.339 114.890,78.474 116.951,78.521 118.490 C 78.591 120.780,78.708 121.309,79.167 121.399 C 79.532 121.470,79.729 121.281,79.729 120.860 C 79.729 120.503,80.487 118.660,81.414 116.764 C 82.342 114.868,83.019 113.316,82.919 113.316 C 82.819 113.316,82.457 113.466,82.114 113.650 C 81.591 113.930,81.520 113.875,81.667 113.310 C 81.800 112.805,81.674 112.638,81.162 112.638 C 80.708 112.638,80.405 112.938,80.255 113.535 L 80.030 114.433 79.018 113.281 L 78.006 112.129 78.220 113.910 M248.746 113.074 C 248.323 113.583,249.780 115.691,250.556 115.691 C 251.452 115.691,251.426 115.009,250.484 113.829 C 249.432 112.510,249.271 112.441,248.746 113.074 M145.908 114.631 C 144.840 116.725,146.024 117.172,147.230 115.130 C 147.809 114.147,147.869 113.831,147.518 113.608 C 146.787 113.145,146.609 113.258,145.908 114.631 M287.486 113.668 C 278.533 116.416,278.253 131.947,287.103 134.887 C 289.705 135.751,294.737 135.447,297.286 134.271 L 299.237 133.371 299.237 128.602 L 299.237 123.834 295.335 123.834 L 291.433 123.834 291.433 125.021 L 291.433 126.209 293.808 126.209 L 296.183 126.209 296.183 129.066 L 296.183 131.924 294.985 132.319 C 293.003 132.973,289.354 132.819,287.779 132.016 C 282.608 129.378,282.653 119.032,287.844 116.674 C 290.583 115.430,296.593 116.259,297.688 118.031 C 298.318 119.050,298.933 118.384,298.831 116.794 C 298.656 114.057,292.101 112.251,287.486 113.668 M103.478 124.343 L 103.478 135.030 108.516 135.030 C 115.428 135.030,117.531 134.121,118.375 130.771 C 119.087 127.943,117.256 123.834,115.284 123.834 C 115.072 123.834,115.486 123.327,116.202 122.708 C 117.395 121.676,117.516 121.412,117.635 119.569 C 117.933 114.935,115.955 113.656,108.495 113.656 L 103.478 113.656 103.478 124.343 M113.200 116.883 C 116.487 119.036,114.391 122.169,109.500 122.412 L 106.531 122.560 106.531 119.245 L 106.531 115.930 109.453 116.136 C 111.242 116.262,112.696 116.552,113.200 116.883 M324.553 116.304 C 324.370 116.600,324.846 119.022,325.147 119.322 C 325.776 119.952,326.300 119.055,326.016 117.834 C 325.851 117.122,325.712 116.425,325.708 116.285 C 325.697 115.944,324.766 115.959,324.553 116.304 M251.743 117.884 C 251.746 118.077,252.066 119.228,252.454 120.441 C 252.843 121.654,253.261 123.408,253.383 124.338 C 253.623 126.170,254.792 127.109,254.792 125.469 C 254.792 125.036,255.247 123.088,255.804 121.141 C 256.955 117.114,256.912 116.844,255.365 118.344 C 254.003 119.664,253.957 119.666,253.445 118.429 C 253.049 117.474,251.733 117.053,251.743 117.884 M144.057 119.034 C 143.441 121.242,143.455 121.798,144.126 121.798 C 144.576 121.798,144.868 121.492,145.017 120.865 C 145.140 120.352,145.313 119.684,145.403 119.380 C 145.507 119.030,145.319 118.764,144.890 118.652 C 144.446 118.536,144.160 118.667,144.057 119.034 M325.360 122.918 C 325.360 123.534,324.982 125.328,324.519 126.905 C 323.388 130.761,323.387 131.337,324.512 130.280 C 325.214 129.620,325.360 129.581,325.360 130.051 C 325.360 130.393,325.631 130.619,326.039 130.619 C 326.511 130.619,326.718 130.393,326.718 129.877 C 326.718 129.166,326.760 129.175,327.735 130.110 C 328.295 130.647,328.751 131.019,328.747 130.937 C 328.744 130.856,328.289 129.262,327.735 127.396 C 327.182 125.530,326.727 123.507,326.723 122.901 C 326.719 122.026,326.577 121.798,326.039 121.798 C 325.497 121.798,325.360 122.024,325.360 122.918 M143.231 124.361 C 141.060 131.797,141.087 131.476,142.764 129.838 L 144.053 128.580 145.201 129.764 C 146.761 131.374,146.777 131.233,145.537 126.831 C 144.065 121.607,144.042 121.582,143.231 124.361 M76.944 124.995 C 76.032 127.457,77.403 127.696,78.371 125.244 C 78.749 124.287,78.744 124.063,78.341 123.808 C 77.602 123.340,77.537 123.394,76.944 124.995 M113.613 125.678 C 115.824 126.821,115.751 130.854,113.500 131.937 C 112.963 132.196,111.175 132.484,109.527 132.578 L 106.531 132.749 106.531 128.750 L 106.531 124.751 109.555 124.947 C 111.272 125.058,113.026 125.374,113.613 125.678 M74.527 130.134 C 73.935 131.374,74.014 131.976,74.766 131.976 C 75.170 131.976,76.336 129.952,76.336 129.251 C 76.336 128.401,75.055 129.026,74.527 130.134 M253.982 130.025 C 254.279 131.743,254.395 131.976,254.951 131.976 C 255.497 131.976,255.621 131.045,255.257 129.686 C 254.906 128.379,253.750 128.686,253.982 130.025 M143.694 130.259 C 143.229 131.011,143.925 133.333,144.615 133.333 C 145.193 133.333,145.261 133.177,145.081 132.273 C 144.964 131.690,144.869 130.927,144.869 130.577 C 144.869 129.920,144.042 129.696,143.694 130.259 M325.494 133.870 C 325.607 134.165,325.700 134.852,325.700 135.397 C 325.700 136.115,325.863 136.387,326.296 136.387 C 326.794 136.387,326.872 136.136,326.771 134.860 C 326.670 133.598,326.531 133.333,325.969 133.333 C 325.487 133.333,325.348 133.491,325.494 133.870 M71.614 134.815 C 70.783 136.159,70.735 136.587,71.386 136.837 C 72.072 137.100,73.710 134.575,73.190 134.056 C 72.604 133.469,72.378 133.578,71.614 134.815 M255.131 134.954 C 255.131 135.793,255.809 137.745,256.098 137.739 C 256.973 137.718,257.160 137.146,256.713 135.855 C 256.221 134.433,255.131 133.812,255.131 134.954 M144.190 136.344 C 144.190 138.369,145.059 139.826,145.674 138.831 C 146.106 138.131,145.447 135.708,144.824 135.708 C 144.430 135.708,144.190 135.949,144.190 136.344 M68.247 139.594 C 67.470 140.735,67.490 141.478,68.298 141.474 C 69.057 141.469,70.422 139.092,69.867 138.740 C 69.160 138.293,69.117 138.316,68.247 139.594 M325.704 139.864 C 325.713 141.227,326.106 142.154,326.675 142.154 C 327.126 142.154,327.208 141.866,327.110 140.628 C 326.976 138.944,325.695 138.248,325.704 139.864 M257.069 139.991 C 256.744 140.316,258.139 142.833,258.644 142.833 C 259.469 142.833,259.516 142.416,258.842 141.095 C 258.220 139.875,257.581 139.478,257.069 139.991 M145.208 142.112 C 145.208 143.123,145.612 144.869,145.844 144.863 C 147.107 144.832,147.106 141.476,145.843 141.476 C 145.448 141.476,145.208 141.716,145.208 142.112 M64.676 144.053 C 63.816 145.130,63.761 145.331,64.205 145.775 C 64.880 146.450,67.059 144.020,66.444 143.278 C 65.909 142.633,65.754 142.701,64.676 144.053 M260.269 144.835 C 259.723 145.177,259.964 146.065,260.911 147.199 C 261.707 148.152,262.859 147.652,262.259 146.614 C 261.446 145.208,260.716 144.555,260.269 144.835 M326.378 146.395 C 326.378 147.696,326.479 147.922,327.057 147.922 C 327.757 147.922,328.000 146.631,327.529 145.405 C 327.081 144.237,326.378 144.841,326.378 146.395 M146.699 147.164 C 146.132 147.541,146.946 150.093,147.678 150.234 C 148.367 150.367,148.442 149.560,147.889 147.973 C 147.502 146.863,147.329 146.745,146.699 147.164 M60.958 148.446 C 60.013 149.585,59.988 150.297,60.895 150.297 C 61.670 150.297,63.128 148.189,62.704 147.679 C 62.199 147.071,62.044 147.139,60.958 148.446 M263.621 149.440 C 263.284 149.846,263.414 150.124,264.337 150.967 C 265.497 152.026,266.108 152.130,266.223 151.287 C 266.340 150.432,264.110 148.850,263.621 149.440 M327.481 150.537 C 326.582 150.867,327.152 153.690,328.118 153.690 C 328.683 153.690,328.735 153.513,328.544 152.248 C 328.302 150.636,328.099 150.310,327.481 150.537 M57.186 152.652 C 56.308 153.569,56.162 154.707,56.923 154.707 C 57.530 154.707,59.117 152.700,58.918 152.183 C 58.627 151.425,58.269 151.522,57.186 152.652 M148.491 152.600 C 148.066 152.690,147.944 152.908,148.101 153.295 C 148.227 153.605,148.483 154.279,148.668 154.792 C 149.000 155.707,149.732 156.026,150.107 155.418 C 150.488 154.802,149.145 152.461,148.491 152.600 M103.817 152.948 C 103.817 153.099,104.275 153.662,104.835 154.198 C 106.009 155.324,106.080 155.606,105.259 155.871 C 104.675 156.060,103.651 157.761,104.121 157.761 C 104.253 157.761,105.650 157.382,107.227 156.920 C 108.803 156.457,110.818 156.075,111.705 156.072 C 113.088 156.065,113.316 155.968,113.316 155.386 C 113.316 154.846,113.090 154.707,112.213 154.707 C 111.606 154.707,109.507 154.249,107.549 153.690 C 103.466 152.523,103.817 152.592,103.817 152.948 M268.067 153.103 C 267.481 153.689,267.590 153.915,268.827 154.680 C 270.171 155.510,270.599 155.558,270.849 154.907 C 271.112 154.221,268.587 152.583,268.067 153.103 M53.297 156.880 C 52.227 157.984,52.125 158.779,53.052 158.779 C 54.003 158.779,55.478 156.774,54.930 156.226 C 54.480 155.776,54.296 155.850,53.297 156.880 M273.010 155.941 C 272.477 156.474,272.848 157.013,274.156 157.603 C 275.340 158.137,275.584 158.156,275.848 157.739 C 276.319 156.995,276.242 156.837,275.233 156.472 C 274.720 156.286,274.063 156.037,273.774 155.919 C 273.484 155.801,273.140 155.811,273.010 155.941 M115.580 156.543 C 115.279 157.329,117.889 158.892,118.424 158.247 C 118.654 157.971,118.781 157.700,118.708 157.646 C 118.635 157.592,118.135 157.214,117.596 156.806 C 116.464 155.948,115.840 155.867,115.580 156.543 M328.249 156.397 C 328.022 156.763,328.740 159.460,329.061 159.452 C 329.866 159.431,330.058 158.857,329.713 157.497 C 329.370 156.148,328.709 155.652,328.249 156.397 M283.944 158.228 C 284.396 158.717,284.587 159.118,284.368 159.118 C 283.778 159.118,283.884 160.124,284.499 160.360 C 284.938 160.528,284.868 160.732,284.097 161.537 C 282.930 162.754,283.288 162.771,287.040 161.670 C 288.617 161.207,290.567 160.825,291.373 160.821 C 293.163 160.813,293.355 159.707,291.600 159.517 C 290.767 159.427,287.482 158.591,283.800 157.532 C 283.185 157.356,283.199 157.421,283.944 158.228 M150.445 158.203 C 150.253 158.705,151.192 161.156,151.574 161.148 C 152.485 161.129,152.604 160.567,151.990 159.195 C 151.345 157.755,150.761 157.380,150.445 158.203 M278.202 158.433 C 278.202 158.890,278.500 159.170,279.135 159.309 C 279.648 159.422,280.285 159.583,280.550 159.667 C 280.985 159.805,281.576 159.275,281.589 158.734 C 281.594 158.554,278.986 157.761,278.391 157.761 C 278.287 157.761,278.202 158.063,278.202 158.433 M100.996 159.052 C 99.982 160.111,99.853 160.653,100.553 160.921 C 101.277 161.199,103.244 159.020,102.732 158.508 C 102.160 157.936,102.025 157.979,100.996 159.052 M120.150 159.908 C 119.731 160.413,121.131 162.850,121.841 162.850 C 122.787 162.850,122.722 161.837,121.702 160.656 C 120.721 159.521,120.542 159.435,120.150 159.908 M49.074 161.289 C 48.370 162.212,48.282 162.515,48.635 162.808 C 49.168 163.250,51.447 161.101,51.078 160.504 C 50.669 159.841,49.969 160.115,49.074 161.289 M295.054 161.293 C 294.791 161.979,297.316 163.617,297.836 163.097 C 298.422 162.511,298.313 162.285,297.076 161.520 C 295.732 160.690,295.304 160.642,295.054 161.293 M329.919 161.935 C 329.620 162.715,330.761 164.969,331.342 164.746 C 331.628 164.636,331.907 164.546,331.962 164.546 C 332.017 164.546,331.815 163.859,331.513 163.020 C 330.978 161.532,330.261 161.044,329.919 161.935 M97.453 163.857 C 96.697 165.182,96.695 165.203,97.358 165.557 C 98.217 166.017,99.835 163.330,99.013 162.809 C 98.330 162.376,98.279 162.410,97.453 163.857 M153.064 163.149 C 152.610 163.437,152.873 164.210,153.991 165.881 C 154.844 167.157,155.418 165.585,154.613 164.176 C 153.799 162.750,153.748 162.716,153.064 163.149 M45.312 165.205 C 44.433 166.122,44.288 167.260,45.049 167.260 C 45.656 167.260,47.242 165.253,47.044 164.736 C 46.753 163.978,46.395 164.075,45.312 165.205 M123.502 164.542 C 123.099 164.791,123.127 165.035,123.683 166.077 C 124.466 167.547,124.788 167.799,125.269 167.318 C 126.037 166.550,124.403 163.985,123.502 164.542 M299.595 164.692 C 299.195 165.175,299.264 165.394,300.118 166.338 C 300.660 166.937,301.144 167.495,301.196 167.578 C 301.247 167.661,301.531 167.487,301.826 167.191 C 302.318 166.700,302.264 166.543,301.211 165.394 C 300.167 164.255,300.014 164.189,299.595 164.692 M332.534 166.888 C 331.995 167.225,332.215 168.083,333.151 169.296 C 333.645 169.935,333.902 170.048,334.197 169.754 C 334.937 169.017,333.390 166.352,332.534 166.888 M95.126 168.830 C 94.607 170.070,94.690 170.992,95.320 170.992 C 95.634 170.992,96.692 168.896,96.692 168.273 C 96.692 167.340,95.583 167.735,95.126 168.830 M156.110 168.053 C 155.610 168.656,157.168 171.133,157.895 170.891 C 158.605 170.655,158.455 169.798,157.505 168.660 C 156.661 167.649,156.503 167.580,156.110 168.053 M41.281 169.481 C 40.341 170.613,40.310 171.332,41.201 171.332 C 41.959 171.332,43.453 169.119,43.000 168.666 C 42.463 168.129,42.366 168.175,41.281 169.481 M303.023 169.255 C 302.556 169.551,303.668 172.356,304.248 172.344 C 305.220 172.324,305.322 171.733,304.586 170.378 C 303.759 168.855,303.710 168.820,303.023 169.255 M125.869 170.035 C 125.869 171.090,126.728 172.689,127.295 172.689 C 128.033 172.689,128.055 172.348,127.413 170.812 C 126.951 169.705,125.869 169.161,125.869 170.035 M335.654 171.861 C 335.455 172.378,337.041 174.385,337.648 174.385 C 338.410 174.385,338.264 173.246,337.385 172.329 C 336.303 171.199,335.945 171.102,335.654 171.861 M159.771 172.549 C 159.331 173.079,160.986 175.064,161.868 175.064 C 162.092 175.064,162.621 173.985,162.432 173.912 C 162.380 173.892,161.866 173.450,161.289 172.930 C 160.325 172.060,160.203 172.030,159.771 172.549 M37.194 173.780 C 36.542 174.613,36.430 174.978,36.719 175.327 C 37.180 175.883,39.594 173.689,39.208 173.065 C 38.798 172.401,38.070 172.660,37.194 173.780 M93.276 173.937 C 92.716 175.410,92.742 176.213,93.352 176.341 C 93.742 176.422,94.036 176.086,94.316 175.238 C 94.970 173.255,93.998 172.039,93.276 173.937 M305.711 174.368 C 304.829 174.913,306.226 177.693,307.194 177.322 C 307.686 177.133,307.687 177.002,307.200 175.835 C 306.527 174.224,306.302 174.002,305.711 174.368 M127.905 175.522 C 127.905 176.694,128.680 178.117,129.318 178.117 C 130.010 178.117,130.001 177.901,129.225 175.827 C 128.917 175.003,127.905 174.769,127.905 175.522 M340.175 175.290 C 339.720 175.745,339.978 176.082,341.293 176.753 C 342.928 177.587,342.885 177.586,343.090 176.802 C 343.314 175.947,340.815 174.650,340.175 175.290 M172.379 176.678 C 167.548 178.083,167.517 177.981,173.264 179.608 C 177.141 180.706,177.418 180.706,176.395 179.614 L 175.573 178.736 176.882 178.980 C 177.838 179.158,178.271 179.098,178.488 178.755 C 179.004 177.942,178.831 177.778,177.459 177.778 C 175.851 177.778,175.526 177.400,176.429 176.583 C 178.033 175.131,177.666 175.140,172.379 176.678 M352.841 176.455 C 350.135 177.284,349.273 177.408,347.465 177.228 C 345.482 177.030,345.321 177.064,345.432 177.650 C 345.530 178.165,345.910 178.306,347.416 178.388 C 348.441 178.444,350.854 178.956,352.778 179.526 C 356.726 180.695,357.158 180.618,355.615 179.026 L 354.533 177.910 355.553 176.932 C 357.414 175.149,357.218 175.115,352.841 176.455 M164.077 176.269 C 163.868 176.816,166.428 178.252,166.991 177.904 C 167.625 177.512,167.171 176.732,166.032 176.256 C 164.499 175.615,164.328 175.616,164.077 176.269 M33.440 177.949 C 31.933 179.925,33.114 180.620,34.668 178.672 C 35.348 177.820,35.481 177.432,35.194 177.145 C 34.616 176.567,34.428 176.653,33.440 177.949 M356.913 178.606 C 356.913 179.214,357.114 179.330,358.652 179.607 C 360.323 179.908,360.862 178.653,359.204 178.321 C 357.584 177.997,356.913 178.080,356.913 178.606 M181.170 178.945 C 181.170 179.566,181.395 179.697,182.954 179.990 C 184.449 180.270,184.914 179.060,183.461 178.670 C 182.138 178.316,181.170 178.432,181.170 178.945 M91.621 180.068 C 91.149 181.767,91.162 181.849,91.906 181.849 C 92.326 181.849,92.624 181.527,92.770 180.916 C 92.892 180.403,93.072 179.716,93.169 179.389 C 93.296 178.962,93.154 178.796,92.660 178.796 C 92.157 178.796,91.880 179.134,91.621 180.068 M307.775 179.771 C 307.079 180.212,307.949 182.867,308.790 182.867 C 309.520 182.867,309.554 182.562,309.022 180.786 C 308.607 179.401,308.498 179.313,307.775 179.771 M362.492 179.843 C 362.208 180.303,362.542 180.601,363.984 181.170 C 365.071 181.599,365.704 181.347,365.728 180.475 C 365.745 179.870,362.828 179.300,362.492 179.843 M186.599 180.438 C 186.599 181.315,189.216 182.209,189.673 181.488 C 189.907 181.119,189.675 180.859,188.715 180.416 C 187.081 179.662,186.599 179.667,186.599 180.438 M129.549 180.658 C 129.319 180.887,129.974 183.887,130.252 183.879 C 131.085 183.858,131.365 183.207,131.074 181.975 C 130.796 180.799,130.051 180.155,129.549 180.658 M29.703 182.305 C 28.692 183.632,28.668 183.747,29.358 184.011 C 30.095 184.294,31.961 182.172,31.482 181.595 C 30.946 180.949,30.646 181.069,29.703 182.305 M367.762 182.028 C 367.526 182.312,367.393 182.590,367.466 182.646 C 369.425 184.154,370.785 184.373,370.818 183.184 C 370.835 182.541,368.171 181.534,367.762 182.028 M191.805 182.712 C 191.694 183.000,191.661 183.278,191.731 183.331 C 193.850 184.923,194.741 185.140,194.741 184.062 C 194.741 183.082,192.125 181.879,191.805 182.712 M90.396 185.766 C 90.147 187.425,90.284 187.805,91.030 187.518 C 91.515 187.332,92.059 185.027,91.740 184.510 C 91.257 183.728,90.611 184.332,90.396 185.766 M372.419 185.353 C 372.109 186.161,374.520 187.796,375.127 187.189 C 375.579 186.738,375.505 186.582,374.469 185.792 C 373.164 184.796,372.673 184.691,372.419 185.353 M309.077 185.496 C 309.087 186.731,309.865 188.295,310.471 188.295 C 310.965 188.295,311.108 188.129,310.980 187.701 C 310.883 187.375,310.704 186.688,310.582 186.175 C 310.382 185.339,309.072 184.748,309.077 185.496 M26.016 186.838 C 25.178 188.016,25.236 188.608,26.191 188.629 C 26.838 188.643,28.274 186.200,27.796 185.898 C 27.066 185.436,26.982 185.481,26.016 186.838 M196.487 186.031 C 196.038 186.572,198.178 188.857,198.783 188.483 C 199.339 188.140,199.238 187.771,198.273 186.625 C 197.296 185.463,197.031 185.375,196.487 186.031 M131.032 186.207 C 130.792 186.359,130.665 186.700,130.749 186.965 C 130.833 187.230,130.994 187.867,131.106 188.380 C 131.248 189.028,131.523 189.313,132.006 189.313 C 132.505 189.313,132.653 189.146,132.533 188.719 C 132.441 188.393,132.266 187.629,132.144 187.023 C 131.912 185.869,131.751 185.751,131.032 186.207 M376.712 189.147 C 376.363 190.055,378.265 192.194,378.877 191.582 C 379.328 191.131,379.276 190.938,378.412 189.854 C 377.343 188.515,377.008 188.375,376.712 189.147 M89.428 191.405 C 89.270 192.397,89.333 192.902,89.639 193.096 C 90.325 193.532,90.585 193.436,90.585 192.748 C 90.585 192.398,90.681 191.635,90.797 191.052 C 90.978 190.147,90.910 189.992,90.332 189.992 C 89.799 189.992,89.606 190.294,89.428 191.405 M200.219 190.293 C 199.790 190.565,200.985 193.385,201.527 193.376 C 202.471 193.362,202.566 192.708,201.816 191.394 C 200.955 189.887,200.909 189.856,200.219 190.293 M22.723 191.361 C 22.016 192.353,22.008 193.384,22.708 193.384 C 23.165 193.384,24.781 190.968,24.562 190.613 C 24.210 190.043,23.437 190.357,22.723 191.361 M310.643 190.943 C 310.460 191.240,310.936 193.661,311.236 193.962 C 311.866 194.591,312.390 193.695,312.106 192.474 C 311.941 191.762,311.802 191.064,311.798 190.925 C 311.787 190.583,310.856 190.599,310.643 190.943 M57.748 192.615 C 72.005 197.529,77.706 214.678,69.095 226.746 C 55.917 245.213,27.298 235.506,28.250 212.892 C 28.878 197.958,43.696 187.771,57.748 192.615 M177.510 192.615 C 191.767 197.529,197.469 214.678,188.857 226.746 C 175.679 245.213,147.061 235.506,148.012 212.892 C 148.640 197.958,163.458 187.771,177.510 192.615 M354.467 191.880 C 372.055 195.454,378.559 217.503,365.728 230.058 C 351.477 244.002,327.496 233.740,327.598 213.740 C 327.670 199.568,340.587 189.060,354.467 191.880 M131.910 191.867 C 131.702 192.075,132.135 194.674,132.427 194.966 C 132.822 195.361,133.617 194.768,133.497 194.168 C 133.070 192.034,132.936 191.688,132.535 191.688 C 132.290 191.688,132.009 191.768,131.910 191.867 M380.093 193.749 C 379.753 194.089,380.863 196.776,381.340 196.769 C 382.259 196.756,382.378 196.110,381.703 194.787 C 380.952 193.316,380.693 193.149,380.093 193.749 M19.674 196.183 C 18.945 197.380,18.954 197.912,19.709 198.058 C 20.281 198.170,21.551 195.981,21.222 195.449 C 20.833 194.819,20.372 195.038,19.674 196.183 M202.919 195.391 C 202.298 195.784,203.206 198.248,204.033 198.413 C 204.693 198.546,204.742 197.781,204.173 196.207 C 203.734 194.994,203.641 194.934,202.919 195.391 M88.756 196.296 C 88.298 197.489,88.528 198.813,89.194 198.813 C 89.714 198.813,89.862 198.517,89.960 197.286 C 90.085 195.712,89.245 195.021,88.756 196.296 M311.658 197.540 C 311.962 199.301,312.070 199.491,312.765 199.491 C 313.210 199.491,313.384 199.299,313.305 198.897 C 312.855 196.623,312.767 196.438,312.131 196.438 C 311.569 196.438,311.497 196.607,311.658 197.540 M132.780 199.040 C 133.034 200.897,133.057 200.933,133.821 200.640 C 134.219 200.487,134.344 200.187,134.213 199.699 C 134.108 199.305,134.019 198.639,134.017 198.219 C 134.013 197.667,133.811 197.455,133.287 197.455 C 132.620 197.455,132.580 197.580,132.780 199.040 M382.778 198.755 C 381.929 199.295,383.252 202.116,384.186 201.758 C 384.648 201.581,384.647 201.396,384.177 200.016 C 383.633 198.419,383.499 198.298,382.778 198.755 M16.949 201.442 C 16.679 202.142,16.406 202.829,16.343 202.969 C 16.280 203.109,16.543 203.223,16.927 203.223 C 17.710 203.223,18.825 201.428,18.525 200.648 C 18.191 199.776,17.446 200.152,16.949 201.442 M204.436 202.120 C 204.698 203.591,204.996 204.012,205.662 203.849 C 206.470 203.651,205.743 200.848,204.884 200.848 C 204.291 200.848,204.237 201.001,204.436 202.120 M88.085 202.290 C 87.687 203.776,87.838 204.580,88.515 204.580 C 89.035 204.580,89.183 204.284,89.281 203.053 C 89.415 201.370,88.490 200.780,88.085 202.290 M312.595 203.265 C 312.712 203.849,312.807 204.536,312.807 204.792 C 312.807 205.049,313.132 205.259,313.528 205.259 C 314.155 205.259,314.222 205.120,314.037 204.198 C 313.921 203.615,313.825 202.928,313.825 202.672 C 313.825 202.415,313.501 202.205,313.104 202.205 C 312.478 202.205,312.411 202.344,312.595 203.265 M133.333 204.750 C 133.333 206.050,133.434 206.277,134.012 206.277 C 134.590 206.277,134.690 206.050,134.690 204.750 C 134.690 203.449,134.590 203.223,134.012 203.223 C 133.434 203.223,133.333 203.449,133.333 204.750 M49.089 203.800 C 48.938 204.045,42.656 220.582,41.536 223.682 L 41.070 224.971 42.804 224.869 L 44.538 224.767 45.424 222.222 L 46.310 219.678 50.891 219.678 L 55.471 219.678 56.357 222.222 L 57.243 224.767 58.981 224.869 L 60.720 224.972 60.039 223.173 C 59.664 222.183,57.858 217.405,56.026 212.553 L 52.694 203.732 50.975 203.630 C 50.029 203.575,49.180 203.651,49.089 203.800 M162.511 214.249 L 162.511 225.006 168.024 224.875 C 176.674 224.670,179.248 222.892,180.248 216.436 C 181.593 207.743,177.919 203.896,168.024 203.637 L 162.511 203.493 162.511 214.249 M348.770 214.249 L 348.770 224.936 350.297 224.936 L 351.824 224.936 351.824 214.249 L 351.824 203.562 350.297 203.562 L 348.770 203.562 348.770 214.249 M384.170 204.835 C 384.258 205.161,384.424 205.848,384.538 206.361 C 384.682 207.008,384.959 207.294,385.441 207.294 C 385.938 207.294,386.090 207.125,385.975 206.701 C 385.886 206.374,385.720 205.687,385.606 205.174 C 385.462 204.527,385.185 204.241,384.703 204.241 C 384.207 204.241,384.054 204.410,384.170 204.835 M14.986 207.030 C 14.731 208.035,14.730 208.529,14.981 208.684 C 15.225 208.835,15.210 208.986,14.935 209.156 C 14.695 209.304,14.059 208.950,13.372 208.284 C 11.963 206.918,11.964 206.882,13.266 211.520 C 14.128 214.592,14.928 216.617,14.928 215.729 C 14.928 215.629,15.462 213.731,16.115 211.511 C 17.501 206.802,17.443 207.168,16.767 207.427 C 16.326 207.597,16.271 207.454,16.455 206.615 C 16.846 204.834,15.443 205.230,14.986 207.030 M173.234 206.942 C 176.192 208.238,177.651 212.094,176.839 216.463 C 176.087 220.504,174.015 222.021,168.694 222.423 L 165.564 222.659 165.564 214.254 L 165.564 205.850 168.702 206.090 C 170.470 206.226,172.449 206.598,173.234 206.942 M205.263 207.379 C 205.272 208.848,205.663 209.669,206.352 209.669 C 206.829 209.669,206.967 209.511,206.822 209.133 C 206.708 208.837,206.616 208.150,206.616 207.606 C 206.616 206.842,206.461 206.616,205.937 206.616 C 205.458 206.616,205.260 206.840,205.263 207.379 M87.532 208.821 C 87.532 210.375,88.235 210.980,88.683 209.811 C 89.153 208.586,88.911 207.294,88.210 207.294 C 87.632 207.294,87.532 207.520,87.532 208.821 M131.976 207.500 C 131.976 207.683,132.373 209.200,132.859 210.871 C 133.344 212.543,133.777 214.444,133.821 215.098 C 133.866 215.751,133.926 216.628,133.957 217.048 C 134.080 218.757,135.030 217.862,135.036 216.031 C 135.039 215.051,135.490 212.728,136.037 210.869 C 137.153 207.082,137.125 206.785,135.771 208.082 C 134.582 209.221,134.119 209.221,132.928 208.079 C 132.404 207.578,131.976 207.317,131.976 207.500 M311.456 207.379 C 311.460 207.426,311.915 208.991,312.468 210.857 C 313.021 212.723,313.477 214.833,313.480 215.547 C 313.490 217.744,314.619 217.106,314.881 214.754 C 314.995 213.730,315.415 211.807,315.814 210.481 C 316.776 207.284,316.737 206.978,315.522 208.142 C 314.546 209.077,314.504 209.087,314.504 208.376 C 314.504 207.542,314.383 207.493,313.499 207.966 C 313.048 208.207,312.765 208.161,312.462 207.796 C 312.112 207.375,311.436 207.094,311.456 207.379 M52.562 211.791 C 53.388 214.076,54.130 216.137,54.210 216.370 C 54.320 216.691,53.514 216.794,50.891 216.794 C 48.265 216.794,47.461 216.691,47.573 216.370 C 49.361 211.253,50.729 207.634,50.875 207.634 C 50.977 207.635,51.736 209.505,52.562 211.791 M385.198 211.620 C 385.363 212.860,385.179 214.047,384.400 216.772 C 383.272 220.716,383.303 221.048,384.670 219.738 C 385.192 219.238,385.754 218.830,385.920 218.830 C 386.086 218.830,386.649 219.238,387.170 219.738 C 388.570 221.079,388.614 220.631,387.467 216.695 C 386.896 214.734,386.429 212.428,386.429 211.569 C 386.429 210.203,386.339 210.008,385.707 210.008 C 385.041 210.008,385.001 210.135,385.198 211.620 M86.220 216.064 C 84.714 220.382,84.594 220.885,85.225 220.254 C 85.884 219.595,86.207 219.784,86.103 220.768 C 85.962 222.098,87.091 222.279,87.378 220.972 C 87.807 219.022,87.833 219.006,88.899 220.027 C 90.092 221.169,90.074 221.290,89.264 217.554 C 88.911 215.923,88.522 214.016,88.401 213.316 C 88.056 211.333,87.726 211.748,86.220 216.064 M205.820 212.440 C 205.128 215.097,204.116 219.173,203.980 219.847 L 203.809 220.696 204.703 219.873 L 205.598 219.051 205.598 220.127 C 205.598 220.978,205.740 221.204,206.277 221.204 C 206.813 221.204,206.955 220.978,206.955 220.127 L 206.955 219.051 207.740 219.788 C 208.898 220.876,209.010 220.713,208.435 218.779 C 208.150 217.818,207.643 215.954,207.308 214.637 C 206.736 212.383,206.085 211.422,205.820 212.440 M14.476 217.020 C 13.741 217.754,14.405 220.187,15.340 220.187 C 15.819 220.187,15.958 220.029,15.812 219.650 C 15.699 219.355,15.606 218.591,15.606 217.954 C 15.606 216.862,15.073 216.422,14.476 217.020 M313.143 219.593 C 313.141 219.826,313.045 220.589,312.929 221.289 C 312.745 222.405,312.802 222.561,313.397 222.561 C 314.062 222.561,314.746 220.174,314.291 219.439 C 314.025 219.009,313.147 219.127,313.143 219.593 M134.012 222.053 C 134.012 223.353,134.112 223.579,134.690 223.579 C 135.268 223.579,135.369 223.353,135.369 222.053 C 135.369 220.752,135.268 220.526,134.690 220.526 C 134.112 220.526,134.012 220.752,134.012 222.053 M384.036 222.137 C 383.848 222.651,383.618 223.287,383.524 223.552 C 383.369 223.989,383.891 224.579,384.445 224.592 C 384.730 224.599,385.411 222.652,385.411 221.832 C 385.411 220.868,384.419 221.088,384.036 222.137 M15.203 222.739 C 14.981 222.961,15.649 225.956,15.918 225.949 C 16.828 225.925,17.072 225.278,16.672 223.945 C 16.303 222.712,15.713 222.228,15.203 222.739 M205.603 224.512 C 205.610 225.965,205.971 226.972,206.486 226.972 C 206.823 226.972,206.955 226.494,206.955 225.276 C 206.955 223.805,206.865 223.579,206.277 223.579 C 205.761 223.579,205.599 223.804,205.603 224.512 M84.697 225.455 C 84.192 226.937,84.255 227.311,85.007 227.311 C 85.330 227.311,86.514 225.071,86.514 224.460 C 86.514 223.462,85.115 224.228,84.697 225.455 M312.277 226.121 C 311.913 228.060,312.916 229.379,313.310 227.481 C 313.407 227.014,313.565 226.251,313.662 225.785 C 313.803 225.107,313.704 224.936,313.169 224.936 C 312.672 224.936,312.441 225.243,312.277 226.121 M134.351 227.820 C 134.351 229.121,134.452 229.347,135.030 229.347 C 135.608 229.347,135.708 229.121,135.708 227.820 C 135.708 226.520,135.608 226.293,135.030 226.293 C 134.452 226.293,134.351 226.520,134.351 227.820 M381.701 227.948 C 381.027 229.269,381.074 229.686,381.899 229.686 C 382.404 229.686,383.799 227.169,383.474 226.844 C 382.961 226.331,382.323 226.729,381.701 227.948 M16.837 228.259 C 16.489 228.822,17.926 231.383,18.472 231.173 C 19.125 230.922,19.126 230.752,18.486 229.219 C 18.010 228.079,17.229 227.625,16.837 228.259 M82.419 230.750 C 81.839 231.887,81.790 232.208,82.158 232.441 C 82.875 232.896,82.982 232.820,83.617 231.412 C 84.651 229.118,83.560 228.515,82.419 230.750 M205.937 231.043 C 205.937 232.513,206.028 232.740,206.616 232.740 C 207.204 232.740,207.294 232.513,207.294 231.043 C 207.294 229.573,207.204 229.347,206.616 229.347 C 206.028 229.347,205.937 229.573,205.937 231.043 M311.345 230.958 C 311.266 231.098,311.097 231.785,310.971 232.485 C 310.679 234.102,311.898 234.419,312.278 232.824 C 312.400 232.311,312.580 231.624,312.677 231.298 C 312.855 230.697,311.667 230.395,311.345 230.958 M378.844 232.659 C 378.039 233.791,378.076 234.788,378.922 234.771 C 379.193 234.766,380.662 232.512,380.662 232.102 C 380.662 231.235,379.633 231.550,378.844 232.659 M134.690 233.588 C 134.690 234.888,134.791 235.115,135.369 235.115 C 135.947 235.115,136.047 234.888,136.047 233.588 C 136.047 232.287,135.947 232.061,135.369 232.061 C 134.791 232.061,134.690 232.287,134.690 233.588 M19.504 233.424 C 19.217 233.889,20.631 236.132,21.212 236.132 C 22.054 236.132,22.085 235.494,21.301 234.284 C 20.522 233.081,19.900 232.784,19.504 233.424 M79.563 235.249 C 78.707 236.371,78.595 237.489,79.338 237.489 C 80.152 237.489,81.519 235.063,80.999 234.543 C 80.546 234.090,80.387 234.169,79.563 235.249 M206.277 236.811 C 206.277 238.281,206.367 238.507,206.955 238.507 C 207.543 238.507,207.634 238.281,207.634 236.811 C 207.634 235.341,207.543 235.115,206.955 235.115 C 206.367 235.115,206.277 235.341,206.277 236.811 M309.711 237.500 C 309.283 238.928,309.709 240.063,310.401 239.338 C 310.818 238.901,311.430 236.565,311.191 236.325 C 310.667 235.801,310.080 236.267,309.711 237.500 M375.059 237.155 C 374.190 238.062,374.137 238.234,374.587 238.685 C 375.171 239.269,377.556 237.211,377.117 236.501 C 376.733 235.879,376.083 236.086,375.059 237.155 M134.690 239.186 C 134.690 240.656,134.781 240.882,135.369 240.882 C 135.957 240.882,136.047 240.656,136.047 239.186 C 136.047 237.716,135.957 237.489,135.369 237.489 C 134.781 237.489,134.690 237.716,134.690 239.186 M22.883 238.197 C 22.444 238.907,24.829 240.966,25.413 240.381 C 25.863 239.931,25.810 239.759,24.941 238.851 C 23.917 237.782,23.267 237.576,22.883 238.197 M75.689 239.662 C 74.619 240.766,74.517 241.561,75.444 241.561 C 76.395 241.561,77.869 239.556,77.322 239.008 C 76.871 238.558,76.688 238.632,75.689 239.662 M371.202 240.885 C 370.167 241.760,369.890 242.937,370.727 242.909 C 371.651 242.877,373.345 240.898,372.858 240.418 C 372.408 239.974,372.216 240.028,371.202 240.885 M206.741 241.645 C 206.854 242.065,206.948 242.829,206.950 243.342 C 206.955 244.278,207.706 244.642,208.150 243.923 C 208.631 243.146,207.942 240.882,207.225 240.882 C 206.677 240.882,206.578 241.037,206.741 241.645 M27.137 242.075 C 26.689 242.615,27.638 243.682,28.965 244.132 C 29.981 244.476,30.311 243.533,29.423 242.823 C 27.992 241.679,27.578 241.543,27.137 242.075 M307.906 242.971 C 307.449 244.113,307.426 244.435,307.785 244.662 C 308.520 245.128,308.652 245.014,309.184 243.452 C 309.679 241.998,309.539 241.561,308.576 241.561 C 308.518 241.561,308.217 242.195,307.906 242.971 M71.122 243.393 C 70.397 243.990,70.228 244.332,70.455 244.740 C 70.819 245.389,73.429 243.868,73.189 243.147 C 72.961 242.462,72.134 242.561,71.122 243.393 M134.687 243.681 C 134.685 243.914,134.588 244.678,134.473 245.377 C 134.285 246.515,134.339 246.650,134.985 246.650 C 135.547 246.650,135.709 246.441,135.713 245.717 C 135.715 245.204,135.810 244.440,135.922 244.020 C 136.087 243.405,135.988 243.257,135.409 243.257 C 135.014 243.257,134.689 243.448,134.687 243.681 M366.497 244.271 C 365.309 244.995,365.099 245.540,365.891 245.844 C 366.491 246.074,368.531 244.695,368.358 244.176 C 368.149 243.548,367.641 243.574,366.497 244.271 M31.769 245.461 C 31.552 246.027,34.044 247.506,34.617 247.151 C 35.273 246.746,34.918 246.084,33.746 245.525 C 32.275 244.824,32.017 244.815,31.769 245.461 M66.412 245.994 C 65.082 246.697,64.810 247.223,65.618 247.533 C 65.988 247.675,67.864 246.983,68.456 246.485 C 68.622 246.346,68.127 245.292,67.903 245.308 C 67.783 245.316,67.112 245.625,66.412 245.994 M361.408 246.816 C 360.402 247.254,360.012 247.940,360.496 248.424 C 360.907 248.835,363.359 247.562,363.359 246.938 C 363.359 246.195,362.902 246.167,361.408 246.816 M207.634 247.116 C 207.634 248.620,208.095 249.703,208.736 249.703 C 209.315 249.703,209.384 249.548,209.203 248.643 C 209.086 248.060,208.991 247.373,208.991 247.116 C 208.991 246.860,208.685 246.650,208.312 246.650 C 207.939 246.650,207.634 246.860,207.634 247.116 M37.159 247.596 C 36.869 248.352,37.345 248.679,38.866 248.773 C 40.704 248.886,40.649 248.044,38.782 247.492 C 37.556 247.130,37.333 247.145,37.159 247.596 M305.633 248.328 C 305.061 249.688,305.117 250.042,305.900 250.042 C 306.469 250.042,307.486 248.095,307.245 247.467 C 306.911 246.597,306.200 246.977,305.633 248.328 M44.380 248.108 L 45.112 248.887 43.930 248.749 C 42.910 248.630,42.748 248.709,42.748 249.327 C 42.748 249.912,42.955 250.042,43.879 250.042 C 45.462 250.042,45.612 250.358,44.555 251.461 C 43.418 252.648,43.426 252.648,47.991 251.362 C 53.050 249.937,53.127 249.875,50.709 249.195 C 49.596 248.882,47.677 248.334,46.443 247.977 C 43.605 247.156,43.492 247.163,44.380 248.108 M164.649 248.617 L 165.907 249.905 164.723 251.053 C 163.138 252.590,163.303 252.628,166.971 251.573 C 168.743 251.063,170.524 250.746,171.037 250.849 C 172.213 251.084,173.045 250.252,172.117 249.770 C 171.530 249.464,164.094 247.328,163.619 247.328 C 163.493 247.328,163.957 247.908,164.649 248.617 M343.342 247.544 C 343.342 247.687,343.828 248.306,344.422 248.919 L 345.503 250.034 344.459 250.398 C 343.654 250.678,343.427 250.950,343.464 251.589 C 343.522 252.593,343.157 252.611,347.243 251.399 C 349.109 250.846,350.980 250.391,351.399 250.388 C 351.922 250.384,352.163 250.178,352.163 249.735 C 352.163 249.277,351.983 249.135,351.548 249.249 C 351.049 249.380,348.005 248.664,343.936 247.458 C 343.609 247.362,343.342 247.400,343.342 247.544 M60.731 247.971 C 59.092 248.427,59.422 249.497,61.119 249.226 C 62.740 248.967,63.302 248.602,62.953 248.036 C 62.702 247.631,62.025 247.611,60.731 247.971 M355.640 248.585 C 355.146 248.681,354.877 248.977,354.877 249.425 C 354.877 250.085,356.641 250.121,357.673 249.483 C 358.836 248.764,357.582 248.211,355.640 248.585 M55.216 248.932 C 53.894 249.071,53.757 249.221,54.247 249.995 C 54.715 250.734,57.337 250.173,57.337 249.334 C 57.337 248.977,57.146 248.711,56.913 248.742 C 56.679 248.774,55.916 248.859,55.216 248.932 M133.847 249.788 C 133.444 251.512,133.505 252.220,134.066 252.337 C 134.469 252.422,134.692 252.137,134.854 251.334 C 134.979 250.717,135.156 249.945,135.248 249.618 C 135.368 249.192,135.219 249.025,134.720 249.025 C 134.278 249.025,133.960 249.303,133.847 249.788 M166.620 253.442 C 166.193 254.867,166.323 255.471,167.057 255.471 C 167.548 255.471,168.420 252.922,168.104 252.410 C 167.660 251.691,167.009 252.143,166.620 253.442 M209.129 252.547 C 208.905 253.130,209.851 255.471,210.310 255.471 C 210.946 255.471,211.057 254.804,210.649 253.442 C 210.245 252.092,209.477 251.640,209.129 252.547 M302.739 253.227 C 302.044 254.300,302.162 255.131,303.009 255.131 C 303.322 255.131,304.665 252.967,304.665 252.462 C 304.665 251.653,303.445 252.137,302.739 253.227 M173.728 252.736 C 173.134 253.112,174.185 255.810,174.925 255.810 C 175.683 255.810,175.716 255.316,175.057 253.844 C 174.348 252.261,174.404 252.308,173.728 252.736 M339.825 253.460 C 339.334 253.846,338.931 254.372,338.931 254.627 C 338.931 255.540,339.648 255.507,340.744 254.545 C 342.492 253.011,341.654 252.022,339.825 253.460 M131.740 255.763 C 131.030 257.007,131.149 257.846,132.037 257.846 C 132.632 257.846,133.753 255.052,133.279 254.751 C 132.597 254.319,132.545 254.354,131.740 255.763 M299.093 257.479 C 298.176 258.436,298.145 259.203,299.024 259.203 C 299.661 259.203,301.381 257.277,301.120 256.855 C 300.739 256.240,300.088 256.440,299.093 257.479 M336.054 258.103 C 335.307 259.202,335.264 259.413,335.703 259.851 C 335.977 260.126,336.243 260.283,336.295 260.200 C 336.347 260.118,336.732 259.561,337.151 258.962 C 338.045 257.685,338.096 257.310,337.409 257.046 C 337.081 256.920,336.605 257.292,336.054 258.103 M211.790 257.413 C 211.153 257.638,211.272 258.167,212.244 259.442 C 213.042 260.488,214.130 260.574,214.066 259.585 C 214.032 259.056,212.169 257.279,211.790 257.413 M165.439 258.609 C 165.032 260.124,165.190 260.899,165.903 260.899 C 166.379 260.899,166.583 260.671,166.586 260.136 C 166.589 259.716,166.683 259.029,166.796 258.609 C 166.958 258.004,166.860 257.846,166.322 257.846 C 165.905 257.846,165.564 258.140,165.439 258.609 M175.823 258.128 C 175.232 258.503,176.105 261.027,176.879 261.178 C 177.543 261.309,177.611 260.479,177.066 258.914 C 176.674 257.788,176.515 257.688,175.823 258.128 M127.057 259.767 C 125.751 260.183,123.690 260.814,122.477 261.170 C 119.876 261.934,119.939 261.986,125.205 263.414 C 129.394 264.550,129.628 264.532,128.311 263.173 C 126.986 261.806,126.984 261.761,128.220 261.248 C 131.410 259.927,130.439 258.689,127.057 259.767 M221.374 260.263 C 219.128 260.907,217.609 261.166,216.879 261.030 C 215.930 260.852,215.776 260.919,215.776 261.510 C 215.776 262.053,216.077 262.247,217.218 262.440 C 218.011 262.573,219.870 263.045,221.349 263.487 C 224.753 264.506,225.254 264.526,224.427 263.613 C 224.079 263.228,223.983 262.935,224.205 262.935 C 224.888 262.935,224.628 261.861,223.898 261.671 C 223.224 261.494,223.232 261.453,224.128 260.518 C 225.414 259.176,225.225 259.159,221.374 260.263 M293.299 260.256 C 291.433 260.784,289.411 261.221,288.804 261.227 C 287.931 261.236,287.701 261.380,287.701 261.917 C 287.701 262.477,287.928 262.595,288.999 262.595 C 289.712 262.595,291.571 262.977,293.130 263.444 C 296.941 264.584,297.240 264.545,295.830 263.090 C 294.715 261.940,294.754 261.267,295.937 261.244 C 296.194 261.238,296.973 259.522,296.786 259.372 C 296.735 259.330,295.165 259.728,293.299 260.256 M116.455 261.817 C 115.715 261.959,115.412 262.722,115.961 263.061 C 116.661 263.494,119.084 262.835,119.084 262.211 C 119.084 261.568,118.334 261.455,116.455 261.817 M281.934 262.276 C 281.934 263.224,284.743 263.126,284.924 262.171 C 285.018 261.676,284.780 261.578,283.485 261.578 C 282.146 261.578,281.934 261.673,281.934 262.276 M333.185 263.232 C 332.511 264.553,332.558 264.970,333.381 264.970 C 333.869 264.970,334.860 263.276,334.860 262.443 C 334.860 261.446,333.854 261.920,333.185 263.232 M277.269 262.632 C 276.278 262.922,275.865 263.539,276.344 264.017 C 276.761 264.434,279.584 263.486,279.484 262.963 C 279.358 262.310,278.706 262.212,277.269 262.632 M227.123 262.964 C 226.828 263.442,227.214 263.771,228.623 264.241 C 229.850 264.652,230.365 264.520,230.365 263.796 C 230.365 262.982,227.558 262.261,227.123 262.964 M111.184 263.380 C 110.099 263.808,110.072 264.840,111.149 264.731 C 112.570 264.586,113.648 263.987,113.443 263.454 C 113.216 262.863,112.549 262.841,111.184 263.380 M164.760 264.377 C 164.362 265.862,164.513 266.667,165.191 266.667 C 165.710 266.667,165.859 266.371,165.956 265.140 C 166.090 263.457,165.165 262.866,164.760 264.377 M177.101 263.868 C 177.110 265.075,177.890 266.667,178.472 266.667 C 179.238 266.667,179.251 266.590,178.778 264.885 C 178.466 263.763,177.094 262.930,177.101 263.868 M271.671 264.393 C 270.743 264.760,270.450 265.431,271.055 265.805 C 271.622 266.155,274.105 264.959,273.903 264.433 C 273.691 263.880,273.001 263.868,271.671 264.393 M232.627 264.857 C 232.128 265.356,232.460 265.891,233.611 266.440 C 234.852 267.032,235.454 266.953,235.454 266.201 C 235.454 265.579,233.048 264.436,232.627 264.857 M106.446 265.690 C 105.264 266.297,104.878 266.936,105.386 267.444 C 105.724 267.782,108.227 266.362,108.227 265.832 C 108.227 265.037,107.786 265.002,106.446 265.690 M266.751 267.045 C 265.552 267.813,265.452 268.030,266.032 268.610 C 266.551 269.130,269.077 267.492,268.813 266.806 C 268.563 266.153,268.052 266.212,266.751 267.045 M331.105 267.915 C 330.555 269.363,330.572 270.191,331.154 270.313 C 331.757 270.440,332.734 268.022,332.338 267.381 C 331.948 266.751,331.468 266.959,331.105 267.915 M237.288 268.075 C 237.063 268.440,239.007 270.368,239.620 270.390 C 240.420 270.417,240.235 269.206,239.328 268.480 C 238.231 267.602,237.651 267.487,237.288 268.075 M101.490 268.957 C 100.297 269.956,100.216 271.420,101.391 270.741 C 102.847 269.900,103.502 269.162,103.288 268.604 C 102.990 267.827,102.793 267.865,101.490 268.957 M178.659 269.328 C 178.401 269.746,178.831 272.077,179.210 272.311 C 179.854 272.709,180.223 271.817,179.989 270.431 C 179.771 269.143,179.111 268.596,178.659 269.328 M164.207 270.908 C 164.207 272.208,164.307 272.434,164.885 272.434 C 165.464 272.434,165.564 272.208,165.564 270.908 C 165.564 269.607,165.464 269.381,164.885 269.381 C 164.307 269.381,164.207 269.607,164.207 270.908 M262.308 270.854 C 261.321 271.872,261.265 272.034,261.753 272.439 C 262.445 273.013,264.522 271.149,264.181 270.259 C 263.880 269.476,263.539 269.584,262.308 270.854 M241.713 271.783 C 241.589 271.985,241.923 272.633,242.457 273.223 C 242.990 273.814,243.468 274.365,243.520 274.448 C 243.571 274.531,243.833 274.379,244.102 274.109 C 244.530 273.682,244.482 273.478,243.730 272.518 C 242.851 271.394,242.119 271.127,241.713 271.783 M97.086 272.886 C 96.097 273.907,96.040 274.069,96.528 274.474 C 97.366 275.170,99.470 273.032,98.703 272.264 C 98.243 271.804,98.072 271.870,97.086 272.886 M329.133 273.942 C 328.647 275.869,328.642 275.827,329.378 275.827 C 330.219 275.827,331.089 273.172,330.393 272.731 C 329.646 272.258,329.528 272.371,329.133 273.942 M258.891 275.273 C 258.058 276.621,258.012 277.045,258.672 277.298 C 259.250 277.520,260.687 275.292,260.418 274.590 C 260.130 273.840,259.642 274.059,258.891 275.273 M164.074 275.346 C 163.584 276.621,163.846 278.202,164.546 278.202 C 165.134 278.202,165.225 277.976,165.225 276.506 C 165.225 274.797,164.546 274.114,164.074 275.346 M179.600 275.573 C 179.712 275.992,179.806 276.679,179.809 277.099 C 179.812 277.635,180.016 277.863,180.492 277.863 C 180.971 277.863,181.169 277.638,181.166 277.099 C 181.157 275.627,180.767 274.809,180.074 274.809 C 179.535 274.809,179.437 274.967,179.600 275.573 M129.070 276.297 C 145.430 281.492,150.351 301.520,138.257 313.684 C 125.035 326.983,102.466 319.104,100.120 300.370 C 98.130 284.474,113.797 271.447,129.070 276.297 M223.996 276.015 C 237.585 279.523,244.654 294.886,238.506 307.549 C 229.663 325.760,203.446 324.047,196.925 304.831 C 191.262 288.144,206.823 271.581,223.996 276.015 M295.387 275.860 C 312.449 279.998,318.388 301.021,306.026 313.523 C 292.123 327.584,268.659 318.505,267.773 298.721 C 267.107 283.871,280.999 272.371,295.387 275.860 M245.653 275.971 C 245.284 276.416,246.416 278.874,246.989 278.871 C 247.999 278.865,248.077 278.172,247.216 276.871 C 246.180 275.305,246.197 275.315,245.653 275.971 M93.125 277.390 C 92.242 278.548,92.319 279.190,93.344 279.214 C 93.764 279.225,95.369 276.835,95.164 276.504 C 94.767 275.861,94.054 276.172,93.125 277.390 M327.722 279.608 C 327.421 280.725,327.436 281.072,327.794 281.299 C 328.530 281.766,328.667 281.653,328.905 280.383 C 329.030 279.717,329.216 278.953,329.318 278.687 C 329.443 278.363,329.271 278.202,328.803 278.202 C 328.267 278.202,328.011 278.535,327.722 279.608 M256.313 280.474 C 255.748 281.827,255.851 282.612,256.594 282.612 C 257.107 282.612,257.999 280.081,257.672 279.552 C 257.282 278.921,256.835 279.224,256.313 280.474 M163.868 282.273 C 163.868 283.743,163.958 283.969,164.546 283.969 C 165.134 283.969,165.225 283.743,165.225 282.273 C 165.225 280.803,165.134 280.577,164.546 280.577 C 163.958 280.577,163.868 280.803,163.868 282.273 M180.497 281.340 C 180.505 282.809,180.896 283.630,181.586 283.630 C 182.062 283.630,182.200 283.472,182.055 283.094 C 181.942 282.798,181.849 282.111,181.849 281.567 C 181.849 280.803,181.694 280.577,181.170 280.577 C 180.692 280.577,180.493 280.801,180.497 281.340 M248.532 280.890 C 248.268 281.317,249.667 283.630,250.189 283.630 C 250.986 283.630,251.028 283.201,250.360 281.892 C 249.720 280.637,248.949 280.215,248.532 280.890 M90.139 282.115 C 89.412 283.639,89.420 283.969,90.183 283.969 C 90.842 283.969,92.100 281.784,91.758 281.232 C 91.360 280.588,90.694 280.951,90.139 282.115 M326.718 284.266 C 326.718 284.616,326.622 285.380,326.506 285.963 C 326.324 286.873,326.391 287.023,326.985 287.023 C 327.862 287.023,328.455 284.419,327.687 283.933 C 326.977 283.483,326.718 283.572,326.718 284.266 M254.985 284.950 C 254.328 286.013,254.396 288.041,255.088 288.041 C 255.485 288.041,255.810 287.831,255.810 287.574 C 255.810 287.318,255.901 286.653,256.012 286.096 C 256.208 285.119,255.422 284.242,254.985 284.950 M251.245 285.980 C 251.011 286.359,251.716 289.062,252.047 289.053 C 252.972 289.029,253.197 288.403,252.725 287.164 C 252.225 285.849,251.624 285.368,251.245 285.980 M87.927 286.938 C 87.329 288.467,87.320 289.195,87.899 289.315 C 88.630 289.466,89.771 286.683,89.142 286.284 C 88.474 285.860,88.316 285.945,87.927 286.938 M181.595 286.230 C 180.819 286.543,181.049 289.398,181.849 289.398 C 182.437 289.398,182.528 289.172,182.528 287.701 C 182.528 286.032,182.438 285.890,181.595 286.230 M163.868 288.041 C 163.868 289.511,163.958 289.737,164.546 289.737 C 165.134 289.737,165.225 289.511,165.225 288.041 C 165.225 286.571,165.134 286.344,164.546 286.344 C 163.958 286.344,163.868 286.571,163.868 288.041 M119.580 287.547 C 112.813 290.026,111.100 301.991,116.813 306.880 C 121.047 310.504,130.619 309.653,130.619 305.653 C 130.619 304.094,130.259 303.536,129.767 304.332 C 128.616 306.194,123.084 307.031,120.534 305.730 C 115.430 303.126,115.378 292.998,120.456 290.408 C 122.920 289.151,128.658 289.972,129.749 291.738 C 130.258 292.561,130.619 292.025,130.619 290.446 C 130.619 288.796,130.604 288.772,129.008 287.986 C 126.980 286.987,121.771 286.745,119.580 287.547 M211.026 298.049 L 211.026 308.736 217.981 308.736 L 224.936 308.736 224.936 307.379 L 224.936 306.022 219.508 306.022 L 214.080 306.022 214.080 302.460 L 214.080 298.897 219.169 298.897 L 224.258 298.897 224.258 297.540 L 224.258 296.183 219.169 296.183 L 214.080 296.183 214.080 293.130 L 214.080 290.076 219.338 290.076 L 224.597 290.076 224.597 288.719 L 224.597 287.362 217.812 287.362 L 211.026 287.362 211.026 298.049 M282.612 298.049 L 282.612 308.736 284.139 308.736 L 285.666 308.736 285.666 303.817 L 285.666 298.897 290.755 298.897 L 295.844 298.897 295.844 303.817 L 295.844 308.736 297.371 308.736 L 298.897 308.736 298.897 298.049 L 298.897 287.362 297.371 287.362 L 295.844 287.362 295.844 291.773 L 295.844 296.183 290.755 296.183 L 285.666 296.183 285.666 291.773 L 285.666 287.362 284.139 287.362 L 282.612 287.362 282.612 298.049 M325.915 290.442 C 325.547 292.282,325.647 292.791,326.378 292.791 C 326.918 292.791,327.067 292.547,327.108 291.603 C 327.136 290.950,327.174 290.227,327.193 289.996 C 327.274 288.995,326.124 289.396,325.915 290.442 M253.476 291.111 C 252.856 291.627,252.561 291.694,252.204 291.397 C 251.533 290.841,251.594 291.326,252.629 294.782 L 253.519 297.756 252.629 300.850 C 251.594 304.448,251.537 304.915,252.201 304.364 C 252.574 304.055,252.634 304.136,252.510 304.784 C 252.338 305.683,253.330 306.351,253.640 305.545 C 253.742 305.278,254.098 305.152,254.475 305.251 C 255.026 305.395,255.131 305.243,255.131 304.306 L 255.131 303.190 256.030 304.012 C 256.848 304.761,256.912 304.774,256.749 304.156 C 256.650 303.783,256.216 302.169,255.785 300.570 L 255.000 297.662 255.908 294.485 C 256.883 291.068,256.869 290.645,255.812 291.601 C 255.147 292.203,255.131 292.197,255.131 291.316 C 255.131 290.250,254.590 290.183,253.476 291.111 M84.139 291.472 C 84.139 291.750,84.518 293.267,84.980 294.844 C 85.443 296.420,85.824 298.359,85.828 299.152 C 85.834 300.365,85.943 300.594,86.514 300.594 C 87.072 300.594,87.193 300.367,87.193 299.321 C 87.194 298.622,87.632 296.522,88.168 294.656 C 89.151 291.229,89.206 290.641,88.476 291.371 C 88.255 291.592,87.723 291.773,87.294 291.773 C 86.827 291.773,86.514 291.977,86.514 292.282 C 86.514 293.012,86.172 292.915,85.091 291.879 C 84.430 291.246,84.139 291.122,84.139 291.472 M179.819 291.289 C 179.823 291.462,180.278 293.130,180.831 294.996 C 181.384 296.862,181.840 298.961,181.843 299.661 C 181.848 300.731,181.964 300.933,182.572 300.933 C 183.219 300.933,183.276 300.791,183.115 299.587 C 182.991 298.661,183.239 297.207,183.913 294.922 C 185.128 290.798,185.127 290.752,183.885 291.942 C 183.089 292.705,182.867 292.793,182.867 292.345 C 182.867 291.999,182.599 291.773,182.188 291.773 C 181.815 291.773,181.510 291.952,181.510 292.171 C 181.510 292.390,181.128 292.211,180.662 291.773 C 180.195 291.334,179.816 291.117,179.819 291.289 M163.868 293.808 C 163.868 295.090,163.992 295.505,164.377 295.505 C 164.761 295.505,164.885 295.090,164.885 293.808 C 164.885 292.527,164.761 292.112,164.377 292.112 C 163.992 292.112,163.868 292.527,163.868 293.808 M325.360 296.455 C 325.360 297.164,324.982 299.035,324.519 300.611 C 323.549 303.919,323.437 304.936,324.106 304.381 C 324.349 304.180,324.883 304.103,325.293 304.210 C 325.921 304.374,326.039 304.264,326.039 303.517 C 326.039 302.370,326.368 302.398,327.562 303.644 C 328.866 305.004,328.868 304.968,327.725 301.090 C 327.178 299.231,326.727 297.137,326.723 296.438 C 326.719 295.394,326.596 295.165,326.039 295.165 C 325.479 295.165,325.360 295.392,325.360 296.455 M163.587 298.068 C 161.416 305.503,161.443 305.182,163.121 303.544 L 164.409 302.286 165.557 303.470 C 167.117 305.080,167.133 304.940,165.893 300.538 C 164.422 295.313,164.399 295.289,163.587 298.068 M86.587 303.255 C 86.348 303.407,86.220 303.749,86.305 304.014 C 86.389 304.279,86.549 304.915,86.662 305.428 C 86.804 306.076,87.079 306.361,87.561 306.361 C 88.060 306.361,88.209 306.194,88.089 305.768 C 87.997 305.441,87.822 304.678,87.700 304.071 C 87.468 302.918,87.306 302.799,86.587 303.255 M182.302 303.793 C 182.404 304.059,182.590 304.823,182.715 305.489 C 182.953 306.759,183.090 306.872,183.826 306.405 C 184.574 305.931,183.720 303.308,182.817 303.308 C 182.349 303.308,182.177 303.469,182.302 303.793 M163.070 303.904 C 162.544 304.756,162.486 306.619,162.980 306.808 C 163.637 307.060,163.786 306.821,164.068 305.057 C 164.281 303.729,163.637 302.987,163.070 303.904 M323.352 307.760 C 322.642 310.132,323.921 310.534,324.697 308.182 C 325.025 307.188,325.014 306.904,324.637 306.665 C 323.897 306.197,323.795 306.283,323.352 307.760 M254.628 309.160 C 254.902 310.847,255.138 311.187,255.765 310.800 C 256.523 310.331,255.935 307.718,255.072 307.718 C 254.463 307.718,254.417 307.866,254.628 309.160 M250.895 309.287 C 250.255 310.819,250.256 310.990,250.909 311.241 C 251.604 311.508,252.943 308.726,252.313 308.325 C 251.621 307.886,251.425 308.019,250.895 309.287 M87.667 309.569 C 88.141 311.457,88.528 312.116,89.048 311.917 C 89.670 311.678,89.669 311.698,89.174 310.048 C 88.709 308.493,87.284 308.040,87.667 309.569 M184.097 309.006 C 183.749 309.569,185.186 312.129,185.732 311.919 C 186.385 311.669,186.387 311.498,185.746 309.965 C 185.270 308.825,184.490 308.371,184.097 309.006 M160.702 310.286 C 160.091 311.567,160.189 312.129,161.021 312.129 C 161.483 312.129,162.511 310.264,162.511 309.426 C 162.511 308.558,161.237 309.163,160.702 310.286 M320.971 313.105 C 320.297 314.426,320.345 314.843,321.169 314.843 C 321.674 314.843,323.070 312.326,322.745 312.001 C 322.232 311.488,321.593 311.886,320.971 313.105 M248.388 314.339 C 247.530 315.793,247.503 316.064,248.186 316.326 C 248.764 316.548,250.111 314.671,249.961 313.853 C 249.790 312.920,249.100 313.133,248.388 314.339 M255.993 313.464 C 255.636 314.042,256.872 316.595,257.409 316.389 C 257.680 316.285,257.956 316.200,258.022 316.200 C 258.089 316.200,257.910 315.513,257.624 314.673 C 257.137 313.246,256.445 312.732,255.993 313.464 M89.937 314.138 C 89.388 314.486,89.918 316.184,90.806 316.921 C 91.761 317.714,92.126 316.718,91.438 315.194 C 90.781 313.736,90.683 313.667,89.937 314.138 M157.897 315.230 C 157.011 316.509,157.081 317.193,158.100 317.210 C 158.364 317.215,159.796 315.015,159.796 314.604 C 159.796 313.631,158.771 313.969,157.897 315.230 M186.775 314.155 C 186.548 314.521,187.411 316.372,187.970 316.718 C 189.019 317.366,189.337 316.546,188.563 315.191 C 187.802 313.858,187.180 313.498,186.775 314.155 M318.050 317.779 C 317.237 318.844,317.192 319.034,317.644 319.486 C 318.157 319.998,319.932 318.307,319.932 317.307 C 319.932 316.404,318.901 316.663,318.050 317.779 M245.171 319.173 C 244.481 320.143,244.382 320.501,244.697 320.881 C 245.139 321.413,246.989 319.714,246.989 318.776 C 246.989 317.767,246.022 317.978,245.171 319.173 M258.573 318.538 C 258.037 318.878,258.253 319.735,259.176 320.933 C 260.370 322.482,261.105 321.247,259.991 319.563 C 259.508 318.833,259.095 318.238,259.073 318.241 C 259.051 318.244,258.826 318.377,258.573 318.538 M154.295 319.724 C 153.477 320.754,153.432 320.935,153.897 321.321 C 154.421 321.755,156.234 320.030,156.234 319.096 C 156.234 318.298,155.148 318.649,154.295 319.724 M190.106 319.104 C 189.908 319.621,191.494 321.628,192.101 321.628 C 192.863 321.628,192.717 320.490,191.838 319.573 C 190.756 318.443,190.397 318.346,190.106 319.104 M92.752 319.400 C 92.533 319.972,93.915 321.968,94.531 321.968 C 95.378 321.968,95.354 321.269,94.465 320.104 C 93.486 318.819,93.045 318.638,92.752 319.400 M314.330 322.312 C 313.460 323.219,313.407 323.391,313.857 323.842 C 314.442 324.426,316.827 322.368,316.388 321.658 C 316.004 321.036,315.354 321.243,314.330 322.312 M241.454 323.259 C 239.747 325.040,240.662 326.036,242.431 324.322 C 243.312 323.468,243.494 323.101,243.208 322.757 C 242.683 322.125,242.487 322.181,241.454 323.259 M150.163 323.474 C 149.260 324.212,149.085 325.360,149.875 325.360 C 150.494 325.360,152.436 323.427,152.200 323.046 C 151.835 322.455,151.262 322.575,150.163 323.474 M194.130 323.054 C 193.742 323.442,195.447 325.700,196.129 325.700 C 196.856 325.700,196.708 324.478,195.876 323.609 C 194.837 322.524,194.702 322.482,194.130 323.054 M261.689 323.525 C 261.347 324.415,263.424 326.279,264.117 325.704 C 264.605 325.299,264.548 325.138,263.561 324.119 C 262.331 322.850,261.989 322.741,261.689 323.525 M96.385 323.795 C 96.016 324.240,97.589 326.039,98.347 326.039 C 99.309 326.039,99.252 325.204,98.228 324.305 C 96.942 323.176,96.907 323.167,96.385 323.795 M310.399 325.916 C 309.764 326.431,309.185 326.895,309.112 326.947 C 308.664 327.262,309.891 328.022,310.383 327.734 C 312.043 326.763,312.599 326.024,312.068 325.493 C 311.608 325.033,311.431 325.078,310.399 325.916 M145.462 326.757 C 144.409 327.543,144.230 328.415,145.123 328.412 C 145.979 328.410,147.742 326.910,147.448 326.434 C 147.098 325.868,146.529 325.960,145.462 326.757 M198.350 326.889 C 198.057 327.652,200.781 329.406,201.208 328.731 C 201.656 328.023,201.631 327.978,200.340 327.142 C 198.953 326.243,198.614 326.200,198.350 326.889 M236.902 327.182 C 235.965 327.849,235.867 328.046,236.227 328.539 C 236.690 329.172,239.016 327.857,239.016 326.963 C 239.016 326.268,238.046 326.369,236.902 327.182 M265.976 327.241 C 265.520 327.791,265.860 328.184,267.622 329.143 C 268.269 329.495,268.459 329.485,268.705 329.088 C 269.300 328.126,266.702 326.366,265.976 327.241 M100.763 327.543 C 100.763 328.204,102.704 329.541,103.320 329.304 C 104.073 329.015,103.921 328.534,102.831 327.758 C 101.687 326.943,100.763 326.847,100.763 327.543 M305.598 329.132 C 304.216 329.844,304.235 329.818,304.525 330.573 C 304.726 331.097,307.718 330.004,307.718 329.406 C 307.718 328.642,306.784 328.522,305.598 329.132 M140.441 329.374 C 139.443 329.843,138.847 331.128,139.628 331.128 C 140.436 331.128,142.507 329.923,142.425 329.501 C 142.281 328.757,141.815 328.727,140.441 329.374 M203.449 329.658 C 202.994 330.113,203.252 330.450,204.567 331.121 C 206.202 331.955,206.159 331.954,206.364 331.170 C 206.588 330.315,204.089 329.018,203.449 329.658 M231.976 329.965 C 231.088 330.447,230.751 331.250,231.298 331.582 C 231.854 331.919,234.097 330.711,234.097 330.074 C 234.097 329.299,233.281 329.257,231.976 329.965 M105.723 330.298 C 105.513 330.845,108.073 332.281,108.636 331.933 C 109.271 331.541,108.817 330.761,107.677 330.284 C 106.144 329.644,105.973 329.645,105.723 330.298 M270.955 330.280 C 270.736 330.851,272.922 331.953,273.689 331.658 C 274.558 331.324,274.108 330.550,272.819 330.164 C 271.171 329.670,271.189 329.669,270.955 330.280 M135.284 331.197 C 134.030 331.530,133.383 332.824,134.470 332.824 C 135.618 332.824,137.065 332.049,137.065 331.434 C 137.065 330.719,137.077 330.721,135.284 331.197 M116.299 331.901 C 116.784 332.417,116.959 332.923,116.827 333.427 C 116.698 333.922,116.782 334.182,117.072 334.182 C 117.317 334.182,117.080 334.635,116.539 335.199 C 115.344 336.447,115.648 336.464,119.406 335.362 C 120.982 334.899,122.738 334.519,123.307 334.516 C 124.856 334.509,125.869 334.160,125.869 333.633 C 125.869 333.307,125.429 333.164,124.427 333.164 C 123.633 333.164,121.382 332.706,119.423 332.146 C 117.465 331.586,115.797 331.128,115.718 331.128 C 115.638 331.128,115.900 331.476,116.299 331.901 M211.705 331.425 C 211.705 331.565,212.164 332.120,212.725 332.657 L 213.746 333.635 212.664 334.751 C 211.122 336.342,211.521 336.405,215.678 335.227 C 217.847 334.613,220.168 334.182,221.305 334.182 C 223.014 334.182,223.240 334.102,223.240 333.503 C 223.240 332.771,221.759 332.585,220.356 333.141 C 219.965 333.295,219.030 333.221,218.151 332.965 C 213.726 331.680,211.705 331.197,211.705 331.425 M283.995 332.008 L 284.818 332.887 283.465 332.773 C 282.429 332.685,282.087 332.786,282.007 333.206 C 281.896 333.782,282.804 334.169,284.287 334.177 L 285.114 334.182 284.139 335.199 C 282.937 336.454,283.197 336.465,287.348 335.339 C 291.058 334.333,292.274 333.891,292.023 333.640 C 291.872 333.489,283.720 331.140,283.317 331.131 C 283.237 331.129,283.543 331.524,283.995 332.008 M300.073 331.578 C 298.821 332.062,298.779 333.352,300.028 332.963 C 301.815 332.406,302.290 332.130,302.290 331.645 C 302.290 331.042,301.520 331.018,300.073 331.578 M208.651 332.090 C 208.651 332.728,210.074 333.503,211.247 333.503 C 212.142 333.503,211.740 332.228,210.772 331.997 C 210.259 331.875,209.572 331.695,209.245 331.598 C 208.821 331.472,208.651 331.612,208.651 332.090 M226.887 331.875 C 225.982 332.116,225.615 332.399,225.615 332.858 C 225.615 333.602,226.072 333.658,227.685 333.113 C 229.127 332.626,229.064 332.687,228.810 332.025 C 228.571 331.404,228.642 331.409,226.887 331.875 M276.415 332.117 C 276.275 332.652,276.454 332.830,277.306 333.000 C 277.892 333.118,278.639 333.290,278.965 333.382 C 279.392 333.502,279.559 333.353,279.559 332.854 C 279.559 332.372,279.273 332.095,278.626 331.951 C 278.113 331.837,277.445 331.677,277.141 331.596 C 276.800 331.505,276.523 331.704,276.415 332.117 M111.175 332.272 C 110.921 332.933,111.159 333.082,112.925 333.364 C 114.207 333.569,114.334 333.524,114.334 332.868 C 114.334 332.471,114.124 332.146,113.868 332.146 C 113.611 332.146,112.946 332.055,112.390 331.944 C 111.652 331.796,111.323 331.885,111.175 332.272 M130.450 332.388 C 128.595 332.725,128.244 332.876,128.244 333.340 C 128.244 333.863,130.027 334.048,131.100 333.636 C 132.210 333.211,131.666 332.168,130.450 332.388 M294.572 332.731 C 293.726 332.835,293.469 333.032,293.469 333.571 C 293.469 334.227,296.157 334.321,296.792 333.686 C 297.084 333.394,296.542 332.485,296.109 332.539 C 295.870 332.569,295.178 332.655,294.572 332.731 " stroke="none" fill="#040404" fill-rule="evenodd"></path><path id="path4" d="" stroke="none" fill="#444004" fill-rule="evenodd"></path></g></svg>