<svg id="svg" version="1.1" xmlns="http://www.w3.org/2000/svg" xmlns:xlink="http://www.w3.org/1999/xlink" width="400" height="400" viewBox="0, 0, 400,400"><g id="svgg"><path id="path0" d="M175.200 75.462 C 171.749 76.674,170.017 77.990,168.356 80.662 L 167.400 82.200 167.400 200.000 L 167.400 317.800 168.377 319.400 C 169.720 321.600,171.011 322.748,173.381 323.852 L 175.400 324.792 199.926 324.796 C 224.253 324.800,224.469 324.793,226.526 323.926 C 228.769 322.980,231.168 320.719,232.171 318.604 C 233.142 316.558,233.133 83.422,232.162 81.376 C 231.266 79.488,229.240 77.447,227.166 76.341 L 225.400 75.400 200.600 75.326 C 186.960 75.285,175.530 75.346,175.200 75.462 " stroke="none" fill="#2394f4" fill-rule="evenodd"></path><path id="path1" d="M33.600 143.966 C 30.878 144.524,27.696 146.885,26.128 149.512 L 25.000 151.400 25.000 234.400 L 25.000 317.400 25.983 319.000 C 27.359 321.240,29.100 322.922,31.202 324.042 L 33.000 325.000 62.600 325.000 L 92.200 325.000 93.877 324.103 C 95.932 323.005,98.225 320.702,99.241 318.716 C 100.481 316.291,100.424 152.438,99.182 150.055 C 98.031 147.847,95.920 145.792,93.698 144.718 L 91.800 143.800 63.400 143.740 C 47.780 143.706,34.370 143.808,33.600 143.966 " stroke="none" fill="#f78c18" fill-rule="evenodd"></path><path id="path2" d="M174.172 74.767 C 172.362 75.064,172.036 75.286,168.954 78.318 C 167.760 79.491,166.800 80.796,166.800 81.243 C 166.800 81.687,166.527 82.894,166.192 83.925 C 165.363 86.483,165.469 316.029,166.300 316.860 C 166.575 317.135,166.800 317.866,166.800 318.484 C 166.800 319.113,167.152 319.910,167.600 320.293 C 168.040 320.670,168.400 321.178,168.400 321.422 C 168.400 322.293,172.798 325.151,174.522 325.400 C 175.445 325.533,187.540 325.587,201.400 325.521 L 226.600 325.400 228.200 324.414 C 230.382 323.068,233.200 319.989,233.200 318.950 C 233.200 318.481,233.470 317.451,233.800 316.662 C 234.711 314.480,234.711 85.520,233.800 83.338 C 233.470 82.549,233.200 81.563,233.200 81.147 C 233.200 80.732,232.840 80.084,232.400 79.707 C 231.960 79.330,231.595 78.837,231.589 78.611 C 231.583 78.385,230.942 77.750,230.165 77.200 C 229.388 76.650,228.474 75.944,228.135 75.630 C 226.932 74.520,180.226 73.774,174.172 74.767 M227.166 76.341 C 229.240 77.447,231.266 79.488,232.162 81.376 C 233.133 83.422,233.142 316.558,232.171 318.604 C 231.168 320.719,228.769 322.980,226.526 323.926 C 224.469 324.793,224.253 324.800,199.926 324.796 L 175.400 324.792 173.381 323.852 C 171.011 322.748,169.720 321.600,168.377 319.400 L 167.400 317.800 167.400 200.000 L 167.400 82.200 168.356 80.662 C 170.017 77.990,171.749 76.674,175.200 75.462 C 175.530 75.346,186.960 75.285,200.600 75.326 L 225.400 75.400 227.166 76.341 M27.404 147.196 C 26.774 147.854,26.335 148.456,26.429 148.534 C 26.523 148.612,27.113 148.074,27.739 147.338 C 29.154 145.677,28.945 145.588,27.404 147.196 M100.196 234.600 C 100.196 279.700,100.243 298.091,100.300 275.468 C 100.357 252.846,100.357 215.946,100.300 193.468 C 100.243 170.991,100.196 189.500,100.196 234.600 M25.200 318.208 C 25.200 319.366,29.473 324.014,30.514 323.988 C 30.781 323.981,30.640 323.777,30.200 323.534 C 28.778 322.750,27.146 321.037,26.355 319.500 C 25.662 318.152,25.200 317.635,25.200 318.208 " stroke="none" fill="#0c3454" fill-rule="evenodd"></path><path id="path3" d="M307.697 190.284 C 305.210 191.017,302.486 193.267,301.142 195.697 L 300.200 197.400 300.200 257.400 L 300.200 317.400 301.167 319.000 C 302.630 321.424,304.001 322.756,306.133 323.828 L 308.066 324.800 337.382 324.800 C 365.673 324.800,366.760 324.772,368.449 324.013 C 370.698 323.003,372.907 320.943,373.965 318.868 L 374.800 317.232 374.800 257.403 L 374.800 197.573 373.812 195.623 C 372.542 193.117,369.998 191.068,367.138 190.248 C 363.815 189.296,310.943 189.328,307.697 190.284 " stroke="none" fill="#fc443c" fill-rule="evenodd"></path><path id="path4" d="M167.242 46.949 C 166.573 47.756,167.113 48.730,168.334 48.917 C 169.067 49.029,168.884 49.099,167.749 49.140 C 166.685 49.179,165.915 48.979,165.583 48.580 C 164.829 47.671,162.695 47.984,162.217 49.073 C 161.913 49.764,161.601 49.900,160.723 49.725 C 159.942 49.568,159.542 49.685,159.376 50.119 C 159.246 50.458,158.128 51.245,156.892 51.868 C 154.431 53.107,152.999 54.344,152.612 55.562 C 152.461 56.038,151.934 56.400,151.284 56.475 C 149.665 56.663,149.565 58.000,151.171 58.000 C 151.847 58.000,152.400 58.180,152.400 58.400 C 152.400 58.620,152.040 58.800,151.600 58.800 C 151.156 58.800,150.800 59.067,150.800 59.400 C 150.800 59.730,150.620 60.000,150.400 60.000 C 150.180 60.000,150.000 59.537,150.000 58.971 C 150.000 57.545,148.646 57.807,148.477 59.266 C 148.392 60.002,148.056 60.400,147.377 60.570 C 146.840 60.705,146.400 61.082,146.400 61.408 C 146.400 61.733,146.124 62.000,145.787 62.000 C 145.451 62.000,145.059 62.315,144.918 62.700 C 144.776 63.085,144.422 63.544,144.130 63.720 C 143.386 64.169,143.469 65.575,144.258 65.878 C 144.661 66.032,145.126 65.842,145.458 65.389 C 145.975 64.682,146.000 64.688,146.000 65.524 C 146.000 66.133,145.757 66.400,145.200 66.400 C 144.717 66.400,144.387 66.677,144.368 67.100 C 144.350 67.518,144.256 67.599,144.135 67.300 C 143.852 66.599,142.134 66.675,141.855 67.400 C 141.532 68.243,141.973 69.200,142.686 69.200 C 143.068 69.200,143.198 69.429,143.043 69.833 C 142.909 70.181,142.800 70.554,142.800 70.661 C 142.800 70.769,142.525 70.582,142.188 70.246 C 141.491 69.548,140.578 69.759,140.216 70.702 C 139.816 71.745,141.039 72.693,142.006 72.089 C 142.666 71.677,142.800 71.695,142.800 72.197 C 142.800 72.528,142.530 72.800,142.200 72.800 C 141.733 72.800,141.600 73.333,141.600 75.200 C 141.600 77.333,141.511 77.600,140.800 77.600 C 140.002 77.600,140.000 77.867,140.000 200.000 C 140.000 322.133,140.002 322.400,140.800 322.400 C 141.511 322.400,141.600 322.667,141.600 324.800 C 141.600 326.667,141.733 327.200,142.200 327.200 C 142.530 327.200,142.800 327.472,142.800 327.803 C 142.800 328.305,142.666 328.323,142.006 327.911 C 141.039 327.307,139.816 328.255,140.216 329.298 C 140.571 330.222,141.487 330.456,142.150 329.793 C 142.647 329.296,142.754 329.303,142.961 329.843 C 143.297 330.719,143.270 330.800,142.643 330.800 C 141.967 330.800,141.540 331.777,141.855 332.600 C 142.134 333.325,143.852 333.401,144.135 332.700 C 144.256 332.401,144.350 332.482,144.368 332.900 C 144.387 333.323,144.717 333.600,145.200 333.600 C 145.757 333.600,146.000 333.867,146.000 334.476 C 146.000 335.312,145.975 335.318,145.458 334.611 C 144.780 333.685,143.600 334.059,143.600 335.200 C 143.600 335.654,143.870 336.129,144.200 336.255 C 144.530 336.382,144.800 336.753,144.800 337.080 C 144.800 337.407,145.160 337.769,145.600 337.884 C 146.040 337.999,146.400 338.339,146.400 338.639 C 146.400 338.939,146.840 339.295,147.377 339.430 C 148.056 339.600,148.392 339.998,148.477 340.734 C 148.646 342.193,150.000 342.455,150.000 341.029 C 150.000 340.463,150.180 340.000,150.400 340.000 C 150.620 340.000,150.800 340.347,150.800 340.772 C 150.800 341.255,151.137 341.609,151.700 341.718 C 152.336 341.840,152.210 341.907,151.271 341.946 C 149.589 342.014,149.600 343.330,151.284 343.525 C 151.934 343.600,152.461 343.962,152.612 344.438 C 152.999 345.656,154.431 346.893,156.892 348.132 C 158.128 348.755,159.246 349.542,159.376 349.881 C 159.542 350.315,159.942 350.432,160.723 350.275 C 161.601 350.100,161.913 350.236,162.217 350.927 C 162.695 352.016,164.829 352.329,165.583 351.420 C 165.915 351.021,166.685 350.821,167.749 350.860 C 168.884 350.901,169.067 350.971,168.334 351.083 C 167.113 351.270,166.573 352.244,167.242 353.051 C 167.946 353.899,170.549 353.741,171.402 352.798 C 172.232 351.881,172.220 351.857,170.600 351.286 L 169.400 350.863 170.700 350.832 C 171.415 350.814,172.000 350.951,172.000 351.136 C 172.000 352.288,174.471 352.400,200.000 352.400 C 225.529 352.400,228.000 352.288,228.000 351.136 C 228.000 350.951,228.585 350.814,229.300 350.832 L 230.600 350.863 229.400 351.286 C 227.780 351.857,227.768 351.881,228.598 352.798 C 229.451 353.741,232.054 353.899,232.758 353.051 C 233.427 352.244,232.887 351.270,231.666 351.083 C 230.937 350.971,231.123 350.901,232.257 350.860 C 233.430 350.818,233.984 350.983,234.154 351.424 C 234.534 352.414,237.297 352.035,237.783 350.927 C 238.087 350.236,238.399 350.100,239.277 350.275 C 240.058 350.432,240.458 350.315,240.624 349.881 C 240.754 349.542,241.872 348.755,243.108 348.132 C 245.569 346.893,247.001 345.656,247.388 344.438 C 247.539 343.962,248.066 343.600,248.716 343.525 C 250.400 343.330,250.411 342.014,248.729 341.946 C 247.790 341.907,247.664 341.840,248.300 341.718 C 248.863 341.609,249.200 341.255,249.200 340.772 C 249.200 340.347,249.380 340.000,249.600 340.000 C 249.820 340.000,250.000 340.463,250.000 341.029 C 250.000 342.455,251.354 342.193,251.523 340.734 C 251.608 339.998,251.944 339.600,252.623 339.430 C 253.160 339.295,253.600 338.918,253.600 338.592 C 253.600 338.267,253.876 338.000,254.213 338.000 C 254.549 338.000,254.941 337.685,255.082 337.300 C 255.224 336.915,255.578 336.456,255.870 336.280 C 256.614 335.831,256.531 334.425,255.742 334.122 C 255.339 333.968,254.874 334.158,254.542 334.611 C 254.025 335.318,254.000 335.312,254.000 334.476 C 254.000 333.867,254.243 333.600,254.800 333.600 C 255.283 333.600,255.613 333.323,255.632 332.900 C 255.650 332.482,255.744 332.401,255.865 332.700 C 256.148 333.401,257.866 333.325,258.145 332.600 C 258.453 331.796,258.038 330.800,257.395 330.800 C 257.075 330.800,256.954 330.498,257.080 330.014 C 257.258 329.335,257.363 329.306,257.854 329.797 C 258.514 330.457,259.430 330.220,259.784 329.298 C 260.184 328.255,258.961 327.307,257.994 327.911 C 257.334 328.323,257.200 328.305,257.200 327.803 C 257.200 327.472,257.470 327.200,257.800 327.200 C 258.267 327.200,258.400 326.667,258.400 324.800 C 258.400 322.667,258.489 322.400,259.200 322.400 C 259.998 322.400,260.000 322.133,260.000 200.000 C 260.000 77.867,259.998 77.600,259.200 77.600 C 258.489 77.600,258.400 77.333,258.400 75.200 C 258.400 73.333,258.267 72.800,257.800 72.800 C 257.470 72.800,257.200 72.528,257.200 72.197 C 257.200 71.695,257.334 71.677,257.994 72.089 C 258.961 72.693,260.184 71.745,259.784 70.702 C 259.430 69.780,258.514 69.543,257.854 70.203 C 257.363 70.694,257.258 70.665,257.080 69.986 C 256.954 69.502,257.075 69.200,257.395 69.200 C 258.038 69.200,258.453 68.204,258.145 67.400 C 257.866 66.675,256.148 66.599,255.865 67.300 C 255.744 67.599,255.650 67.518,255.632 67.100 C 255.613 66.677,255.283 66.400,254.800 66.400 C 254.243 66.400,254.000 66.133,254.000 65.524 C 254.000 64.688,254.025 64.682,254.542 65.389 C 254.874 65.842,255.339 66.032,255.742 65.878 C 256.531 65.575,256.614 64.169,255.870 63.720 C 255.578 63.544,255.224 63.085,255.082 62.700 C 254.941 62.315,254.549 62.000,254.213 62.000 C 253.876 62.000,253.600 61.733,253.600 61.408 C 253.600 61.082,253.160 60.705,252.623 60.570 C 251.944 60.400,251.608 60.002,251.523 59.266 C 251.354 57.807,250.000 57.545,250.000 58.971 C 250.000 59.537,249.820 60.000,249.600 60.000 C 249.380 60.000,249.200 59.730,249.200 59.400 C 249.200 59.067,248.844 58.800,248.400 58.800 C 247.960 58.800,247.600 58.620,247.600 58.400 C 247.600 58.180,248.153 58.000,248.829 58.000 C 250.435 58.000,250.335 56.663,248.716 56.475 C 248.066 56.400,247.539 56.038,247.388 55.562 C 247.001 54.344,245.569 53.107,243.108 51.868 C 241.872 51.245,240.754 50.458,240.624 50.119 C 240.458 49.685,240.058 49.568,239.277 49.725 C 238.399 49.900,238.087 49.764,237.783 49.073 C 237.297 47.965,234.534 47.586,234.154 48.576 C 233.984 49.017,233.430 49.182,232.257 49.140 C 231.123 49.099,230.937 49.029,231.666 48.917 C 232.887 48.730,233.427 47.756,232.758 46.949 C 232.054 46.101,229.451 46.259,228.598 47.202 C 227.768 48.119,227.780 48.143,229.400 48.714 L 230.600 49.137 229.300 49.168 C 228.585 49.186,228.000 49.049,228.000 48.864 C 228.000 47.712,225.529 47.600,200.000 47.600 C 174.471 47.600,172.000 47.712,172.000 48.864 C 172.000 49.049,171.415 49.186,170.700 49.168 L 169.400 49.137 170.600 48.714 C 172.220 48.143,172.232 48.119,171.402 47.202 C 170.549 46.259,167.946 46.101,167.242 46.949 M158.400 53.600 C 158.868 53.902,158.757 53.989,157.900 53.994 C 157.295 53.997,156.800 53.820,156.800 53.600 C 156.800 53.094,157.617 53.094,158.400 53.600 M243.200 53.600 C 243.200 53.820,242.829 54.000,242.376 54.000 C 241.923 54.000,241.664 53.820,241.800 53.600 C 241.936 53.380,242.307 53.200,242.624 53.200 C 242.941 53.200,243.200 53.380,243.200 53.600 M138.789 74.021 C 138.215 75.094,138.431 76.412,139.266 76.936 C 140.184 77.511,141.200 76.615,141.200 75.231 C 141.200 73.311,139.599 72.507,138.789 74.021 M259.280 73.680 C 258.596 74.364,258.686 76.208,259.434 76.828 C 260.784 77.949,262.155 75.784,261.211 74.021 C 260.716 73.096,259.992 72.968,259.280 73.680 M225.659 74.754 C 226.681 74.923,227.796 75.317,228.135 75.630 C 228.474 75.944,229.388 76.650,230.165 77.200 C 230.942 77.750,231.583 78.385,231.589 78.611 C 231.595 78.837,231.960 79.330,232.400 79.707 C 232.840 80.084,233.200 80.732,233.200 81.147 C 233.200 81.563,233.470 82.549,233.800 83.338 C 234.711 85.520,234.711 314.480,233.800 316.662 C 233.470 317.451,233.200 318.481,233.200 318.950 C 233.200 319.989,230.382 323.068,228.200 324.414 L 226.600 325.400 201.400 325.521 C 187.540 325.587,175.445 325.533,174.522 325.400 C 172.798 325.151,168.400 322.293,168.400 321.422 C 168.400 321.178,168.040 320.670,167.600 320.293 C 167.152 319.910,166.800 319.113,166.800 318.484 C 166.800 317.866,166.575 317.135,166.300 316.860 C 165.469 316.029,165.363 86.483,166.192 83.925 C 166.527 82.894,166.800 81.687,166.800 81.243 C 166.800 80.796,167.760 79.491,168.954 78.318 C 172.036 75.286,172.362 75.064,174.172 74.767 C 176.455 74.393,223.392 74.380,225.659 74.754 M137.539 80.453 C 137.090 81.241,137.000 101.273,137.000 200.000 C 137.000 325.902,136.938 321.633,138.739 319.832 C 139.760 318.812,139.760 81.188,138.739 80.168 C 138.124 79.553,138.040 79.573,137.539 80.453 M261.179 80.225 C 260.231 81.367,260.313 318.884,261.261 319.832 C 263.057 321.629,262.993 325.720,263.120 202.200 C 263.252 73.791,263.314 77.653,261.179 80.225 M25.616 115.781 C 24.724 116.856,25.810 117.659,27.965 117.519 C 29.624 117.411,29.800 117.304,29.800 116.400 C 29.800 115.153,26.538 114.670,25.616 115.781 M94.945 115.800 C 94.479 117.015,95.118 117.600,96.911 117.600 C 97.866 117.600,98.996 117.330,99.424 117.000 C 100.548 116.131,99.249 115.200,96.911 115.200 C 95.737 115.200,95.100 115.394,94.945 115.800 M31.500 116.672 C 31.115 116.775,30.800 117.115,30.800 117.429 C 30.800 117.876,30.105 118.000,27.600 118.000 C 24.667 118.000,24.400 118.067,24.400 118.800 C 24.400 119.481,24.133 119.600,22.600 119.600 C 21.610 119.600,20.800 119.431,20.800 119.225 C 20.800 119.019,21.411 118.950,22.159 119.071 C 23.293 119.255,23.561 119.152,23.784 118.449 C 24.346 116.679,22.341 116.159,20.509 117.600 C 19.950 118.040,19.254 118.400,18.964 118.400 C 18.125 118.400,15.429 120.381,15.113 121.229 C 14.955 121.653,14.481 122.000,14.059 122.000 C 12.892 122.000,11.253 122.978,9.753 124.567 C 9.010 125.355,8.221 126.000,8.001 126.000 C 7.780 126.000,7.600 126.166,7.600 126.369 C 7.600 126.572,6.917 127.427,6.081 128.269 C 4.186 130.180,3.200 131.729,3.200 132.796 C 3.200 133.307,2.820 133.764,2.200 134.000 C 1.650 134.209,1.200 134.660,1.200 135.003 C 1.200 135.345,0.930 135.729,0.600 135.855 C -0.085 136.118,-0.271 139.600,0.400 139.600 C 0.620 139.600,0.800 140.320,0.800 141.200 C 0.800 142.080,0.620 142.800,0.400 142.800 C 0.135 142.800,0.000 173.533,0.000 234.200 C 0.000 294.867,0.135 325.600,0.400 325.600 C 0.620 325.600,0.800 326.410,0.800 327.400 C 0.800 328.390,0.620 329.200,0.400 329.200 C -0.271 329.200,-0.085 332.682,0.600 332.945 C 0.930 333.071,1.200 333.455,1.200 333.797 C 1.200 334.140,1.650 334.591,2.200 334.800 C 2.820 335.036,3.200 335.493,3.200 336.004 C 3.200 338.317,11.683 346.800,13.996 346.800 C 14.507 346.800,14.964 347.180,15.200 347.800 C 15.409 348.350,15.781 348.800,16.027 348.800 C 16.273 348.800,16.931 349.160,17.491 349.600 C 18.050 350.040,18.770 350.400,19.091 350.400 C 19.411 350.400,20.131 350.760,20.691 351.200 C 22.012 352.239,23.470 352.241,23.799 351.204 C 24.182 349.998,23.651 349.507,22.153 349.681 C 21.409 349.768,20.800 349.696,20.800 349.520 C 20.800 349.344,21.610 349.200,22.600 349.200 C 24.133 349.200,24.400 349.319,24.400 350.000 C 24.400 350.730,24.667 350.800,27.456 350.800 C 29.905 350.800,30.614 350.939,31.024 351.500 C 31.504 352.156,33.477 352.200,62.600 352.200 C 91.724 352.200,93.697 352.156,94.176 351.500 C 94.582 350.945,95.288 350.800,97.582 350.800 C 100.138 350.800,100.499 350.707,100.684 350.000 C 100.892 349.206,104.000 348.741,104.000 349.504 C 104.000 349.671,103.415 349.806,102.700 349.804 C 101.579 349.801,101.400 349.938,101.400 350.800 C 101.400 352.128,102.838 352.343,104.255 351.228 C 104.834 350.773,105.570 350.400,105.891 350.400 C 106.211 350.400,106.931 350.040,107.491 349.600 C 108.050 349.160,108.750 348.800,109.046 348.800 C 109.342 348.800,109.698 348.350,109.836 347.800 C 109.974 347.250,110.367 346.800,110.709 346.800 C 111.758 346.800,114.400 345.476,114.400 344.950 C 114.400 344.677,114.760 344.340,115.200 344.200 C 115.640 344.060,116.000 343.688,116.000 343.373 C 116.000 343.058,116.287 342.800,116.637 342.800 C 116.988 342.800,117.367 342.446,117.481 342.013 C 117.594 341.581,118.027 341.118,118.443 340.986 C 118.859 340.854,119.200 340.500,119.200 340.200 C 119.200 339.900,119.560 339.540,120.000 339.400 C 120.440 339.260,120.800 338.820,120.800 338.422 C 120.800 338.024,121.070 337.474,121.400 337.200 C 121.730 336.926,122.000 336.274,122.000 335.751 C 122.000 335.083,122.226 334.800,122.761 334.800 C 123.216 334.800,123.702 334.357,123.970 333.700 C 124.367 332.725,124.969 331.549,126.068 329.600 C 127.315 327.387,127.354 327.183,126.664 326.493 C 126.103 325.932,125.851 325.901,125.194 326.311 C 124.534 326.723,124.400 326.705,124.400 326.203 C 124.400 325.872,124.670 325.600,125.000 325.600 C 125.483 325.600,125.600 324.983,125.600 322.447 C 125.600 319.630,125.685 319.271,126.400 319.084 C 127.197 318.876,127.200 318.538,127.200 234.441 C 127.200 150.440,127.196 150.004,126.400 149.507 C 125.721 149.083,125.600 148.574,125.600 146.147 C 125.600 143.972,125.456 143.230,125.000 143.055 C 124.670 142.929,124.400 142.603,124.400 142.333 C 124.400 141.949,124.507 141.947,124.880 142.320 C 126.129 143.569,127.538 141.979,126.738 140.223 C 126.481 139.660,126.143 139.200,125.986 139.200 C 125.829 139.200,125.596 138.682,125.470 138.048 C 125.343 137.415,124.960 136.618,124.620 136.277 C 124.279 135.936,124.000 135.370,124.000 135.019 C 124.000 134.668,123.550 134.209,123.000 134.000 C 122.417 133.778,122.000 133.302,122.000 132.859 C 122.000 132.440,121.730 131.874,121.400 131.600 C 121.070 131.326,120.800 130.747,120.800 130.314 C 120.800 129.862,120.459 129.436,120.000 129.316 C 119.560 129.201,119.200 128.934,119.200 128.723 C 119.200 128.198,116.965 126.000,116.431 126.000 C 116.194 126.000,116.000 125.742,116.000 125.427 C 116.000 125.112,115.640 124.740,115.200 124.600 C 114.760 124.460,114.400 124.123,114.400 123.850 C 114.400 123.324,111.758 122.000,110.709 122.000 C 110.367 122.000,109.977 121.562,109.842 121.027 C 109.708 120.491,109.202 119.928,108.718 119.774 C 108.233 119.620,107.591 119.248,107.290 118.947 C 106.989 118.646,106.423 118.400,106.033 118.400 C 105.642 118.400,104.898 118.032,104.379 117.581 C 103.057 116.436,101.400 116.668,101.400 118.000 C 101.400 118.862,101.579 118.999,102.700 118.996 C 103.415 118.994,104.000 119.129,104.000 119.296 C 104.000 119.463,103.280 119.600,102.400 119.600 C 101.067 119.600,100.800 119.467,100.800 118.800 C 100.800 118.070,100.533 118.000,97.744 118.000 C 95.295 118.000,94.587 117.861,94.176 117.300 C 93.685 116.628,33.913 116.029,31.500 116.672 M19.600 121.047 C 19.600 121.131,19.139 121.200,18.576 121.200 C 18.013 121.200,17.654 121.037,17.777 120.838 C 17.982 120.506,19.600 120.692,19.600 121.047 M107.200 120.800 C 107.200 121.020,106.795 121.197,106.300 121.194 C 105.572 121.189,105.515 121.114,106.000 120.800 C 106.776 120.299,107.200 120.299,107.200 120.800 M14.800 124.000 C 14.800 124.220,14.440 124.400,14.000 124.400 C 13.560 124.400,13.200 124.220,13.200 124.000 C 13.200 123.780,13.560 123.600,14.000 123.600 C 14.440 123.600,14.800 123.780,14.800 124.000 M112.000 124.000 C 112.000 124.220,111.550 124.400,111.000 124.400 C 110.450 124.400,110.000 124.220,110.000 124.000 C 110.000 123.780,110.450 123.600,111.000 123.600 C 111.550 123.600,112.000 123.780,112.000 124.000 M5.600 132.600 C 5.600 133.150,5.420 133.600,5.200 133.600 C 4.753 133.600,4.652 132.282,5.067 131.867 C 5.508 131.426,5.600 131.553,5.600 132.600 M120.400 132.800 C 120.400 133.240,120.220 133.600,120.000 133.600 C 119.780 133.600,119.600 133.240,119.600 132.800 C 119.600 132.360,119.780 132.000,120.000 132.000 C 120.220 132.000,120.400 132.360,120.400 132.800 M2.372 137.500 C 2.347 138.475,2.305 138.509,2.000 137.800 C 1.531 136.707,1.531 136.400,2.000 136.400 C 2.220 136.400,2.387 136.895,2.372 137.500 M93.913 144.558 C 96.234 145.737,97.575 146.958,99.059 149.243 L 100.200 151.000 100.200 234.400 L 100.200 317.800 99.055 319.564 C 95.199 325.502,97.152 325.200,62.596 325.200 L 33.149 325.200 31.074 324.240 C 28.718 323.150,26.854 321.346,25.632 318.972 L 24.794 317.344 24.897 233.944 C 24.994 155.127,25.038 150.504,25.700 149.843 C 26.085 149.458,26.400 148.896,26.400 148.594 C 26.400 147.891,28.910 145.781,31.206 144.553 L 32.988 143.600 62.507 143.600 L 92.027 143.600 93.913 144.558 M126.666 144.327 C 125.546 145.565,125.878 148.554,127.155 148.735 C 128.847 148.974,129.467 146.112,128.091 144.413 C 127.385 143.542,127.377 143.541,126.666 144.327 M302.600 160.933 C 301.021 161.460,301.565 162.533,303.600 162.907 C 304.237 163.024,303.970 163.111,302.863 163.146 C 301.487 163.189,301.081 163.367,300.916 164.000 C 300.745 164.652,300.370 164.800,298.887 164.800 C 296.856 164.800,296.878 164.261,298.910 164.224 C 300.013 164.203,300.200 164.055,300.200 163.200 C 300.200 161.864,298.481 161.605,297.417 162.781 C 296.955 163.292,296.178 163.600,295.352 163.600 C 294.438 163.600,293.896 163.847,293.600 164.400 C 293.365 164.840,292.932 165.200,292.640 165.200 C 292.347 165.200,291.650 165.560,291.091 166.000 C 290.531 166.440,289.799 166.800,289.464 166.800 C 289.128 166.800,288.752 167.120,288.628 167.512 C 288.504 167.903,287.907 168.445,287.301 168.716 C 284.045 170.172,279.600 174.829,279.600 176.784 C 279.600 177.233,279.370 177.600,279.089 177.600 C 278.431 177.600,276.400 179.906,276.400 180.654 C 276.400 181.588,277.654 181.814,278.258 180.989 C 278.775 180.282,278.800 180.288,278.800 181.124 C 278.800 181.623,278.550 182.000,278.220 182.000 C 277.901 182.000,277.456 182.315,277.232 182.700 C 277.006 183.088,276.819 183.177,276.812 182.900 C 276.795 182.191,274.933 182.277,274.655 183.000 C 274.340 183.823,274.767 184.800,275.443 184.800 C 276.082 184.800,276.198 185.830,275.600 186.200 C 275.380 186.336,275.200 186.257,275.200 186.024 C 275.200 185.375,273.316 185.520,273.060 186.189 C 272.786 186.901,273.534 189.200,274.039 189.200 C 274.847 189.200,274.447 194.578,273.600 195.107 C 272.806 195.603,272.800 196.040,272.800 257.189 C 272.800 318.362,272.805 318.775,273.600 319.200 C 274.290 319.569,274.400 320.038,274.400 322.614 C 274.400 325.002,274.520 325.600,275.000 325.600 C 275.330 325.600,275.600 325.872,275.600 326.203 C 275.600 326.705,275.466 326.723,274.806 326.311 C 274.149 325.901,273.897 325.932,273.336 326.493 C 272.646 327.183,272.685 327.387,273.932 329.600 C 275.031 331.549,275.633 332.725,276.030 333.700 C 276.298 334.357,276.784 334.800,277.239 334.800 C 277.774 334.800,278.000 335.083,278.000 335.751 C 278.000 336.274,278.270 336.926,278.600 337.200 C 278.930 337.474,279.200 338.024,279.200 338.422 C 279.200 338.820,279.560 339.260,280.000 339.400 C 280.440 339.540,280.800 339.900,280.800 340.200 C 280.800 340.500,281.160 340.860,281.600 341.000 C 282.040 341.140,282.400 341.529,282.400 341.864 C 282.400 342.200,282.760 342.569,283.200 342.684 C 283.640 342.799,284.000 343.130,284.000 343.420 C 284.000 343.709,284.360 344.060,284.800 344.200 C 285.240 344.340,285.600 344.677,285.600 344.950 C 285.600 345.476,288.242 346.800,289.291 346.800 C 289.633 346.800,290.026 347.250,290.164 347.800 C 290.302 348.350,290.658 348.800,290.954 348.800 C 291.250 348.800,291.950 349.160,292.509 349.600 C 293.069 350.040,293.789 350.400,294.109 350.400 C 294.430 350.400,295.166 350.773,295.745 351.228 C 297.162 352.343,298.600 352.128,298.600 350.800 C 298.600 349.938,298.421 349.801,297.300 349.804 C 296.585 349.806,296.000 349.671,296.000 349.504 C 296.000 348.741,299.108 349.206,299.316 350.000 C 299.501 350.707,299.862 350.800,302.418 350.800 C 304.712 350.800,305.418 350.945,305.824 351.500 C 306.303 352.156,308.276 352.200,337.400 352.200 C 366.523 352.200,368.496 352.156,368.976 351.500 C 369.386 350.939,370.095 350.800,372.544 350.800 C 375.333 350.800,375.600 350.730,375.600 350.000 C 375.600 349.319,375.867 349.200,377.400 349.200 C 378.390 349.200,379.200 349.344,379.200 349.520 C 379.200 349.696,378.591 349.768,377.847 349.681 C 376.349 349.507,375.818 349.998,376.201 351.204 C 376.530 352.241,377.988 352.239,379.309 351.200 C 379.869 350.760,380.589 350.400,380.909 350.400 C 381.230 350.400,381.950 350.040,382.509 349.600 C 383.069 349.160,383.727 348.800,383.973 348.800 C 384.219 348.800,384.591 348.350,384.800 347.800 C 385.036 347.180,385.493 346.800,386.004 346.800 C 388.317 346.800,396.800 338.317,396.800 336.004 C 396.800 335.493,397.180 335.036,397.800 334.800 C 398.350 334.591,398.800 334.140,398.800 333.797 C 398.800 333.455,399.070 333.071,399.400 332.945 C 400.085 332.682,400.271 329.200,399.600 329.200 C 399.380 329.200,399.200 328.390,399.200 327.400 C 399.200 326.410,399.380 325.600,399.600 325.600 C 399.865 325.600,400.000 302.467,400.000 257.000 C 400.000 211.533,399.865 188.400,399.600 188.400 C 399.380 188.400,399.200 187.590,399.200 186.600 C 399.200 185.610,399.380 184.800,399.600 184.800 C 399.820 184.800,400.000 184.260,400.000 183.600 C 400.000 182.214,398.735 181.893,398.032 183.100 C 397.668 183.725,397.623 183.704,397.612 182.900 C 397.604 182.271,397.359 182.000,396.800 182.000 C 396.247 182.000,396.000 181.733,396.000 181.138 C 396.000 180.328,396.044 180.316,396.731 180.938 C 397.633 181.754,398.354 181.785,398.647 181.022 C 398.938 180.263,396.800 177.600,395.900 177.600 C 395.417 177.600,395.200 177.285,395.200 176.583 C 395.200 176.024,394.975 175.295,394.700 174.963 C 393.262 173.229,390.024 170.000,389.724 170.000 C 389.533 170.000,389.070 169.640,388.693 169.200 C 388.316 168.760,387.646 168.400,387.204 168.400 C 386.750 168.400,386.400 168.134,386.400 167.790 C 386.400 167.455,385.967 167.016,385.439 166.815 C 384.910 166.614,384.372 166.278,384.243 166.069 C 384.113 165.860,383.519 165.566,382.922 165.416 C 382.324 165.266,381.593 164.796,381.295 164.372 C 380.969 163.907,380.287 163.600,379.577 163.600 C 378.930 163.600,378.040 163.240,377.600 162.800 C 376.217 161.417,374.022 162.151,374.650 163.786 C 374.846 164.297,375.260 164.434,376.257 164.317 C 376.996 164.231,377.600 164.304,377.600 164.480 C 377.600 165.262,374.096 164.809,373.884 164.000 C 373.717 163.362,373.324 163.194,371.937 163.168 C 370.157 163.136,370.183 163.050,372.100 162.627 C 373.281 162.367,373.589 161.324,372.598 160.944 C 371.637 160.575,303.706 160.565,302.600 160.933 M365.200 162.783 C 366.410 162.951,353.990 163.084,337.600 163.081 C 321.210 163.077,308.700 162.951,309.800 162.800 C 312.556 162.422,362.477 162.407,365.200 162.783 M292.400 167.600 C 292.885 167.914,292.828 167.989,292.100 167.994 C 291.605 167.997,291.200 167.820,291.200 167.600 C 291.200 167.099,291.624 167.099,292.400 167.600 M383.800 167.600 C 383.943 167.831,383.572 167.997,382.924 167.994 C 382.051 167.989,381.934 167.901,382.400 167.600 C 383.169 167.103,383.493 167.103,383.800 167.600 M288.000 170.800 C 288.485 171.114,288.428 171.189,287.700 171.194 C 287.069 171.198,286.800 171.439,286.800 172.000 C 286.800 172.611,286.540 172.795,285.700 172.779 L 284.600 172.758 285.500 172.130 C 285.995 171.785,286.400 171.254,286.400 170.951 C 286.400 170.312,287.137 170.242,288.000 170.800 M388.672 171.154 C 388.781 171.569,389.259 172.097,389.735 172.327 C 390.564 172.728,390.554 172.747,389.500 172.773 C 388.658 172.794,388.400 172.613,388.400 172.000 C 388.400 171.459,388.133 171.200,387.576 171.200 C 387.123 171.200,386.864 171.020,387.000 170.800 C 387.414 170.131,388.463 170.353,388.672 171.154 M283.726 174.763 C 283.616 175.183,283.183 175.616,282.763 175.726 C 282.343 175.835,282.000 176.212,282.000 176.563 C 282.000 176.913,281.820 177.200,281.600 177.200 C 280.775 177.200,281.239 175.711,282.200 175.273 C 282.750 175.022,283.200 174.633,283.200 174.409 C 283.200 174.184,283.363 174.000,283.563 174.000 C 283.762 174.000,283.835 174.343,283.726 174.763 M392.900 175.312 C 393.635 175.588,393.891 177.200,393.200 177.200 C 392.980 177.200,392.800 176.939,392.800 176.620 C 392.800 176.301,392.561 175.896,392.270 175.720 C 391.978 175.544,391.618 175.040,391.469 174.600 C 391.234 173.907,391.265 173.883,391.699 174.425 C 391.975 174.768,392.515 175.168,392.900 175.312 M271.639 190.460 C 271.039 192.181,271.088 193.030,271.828 193.771 C 273.314 195.256,274.515 192.961,273.748 190.100 C 273.388 188.759,272.159 188.968,271.639 190.460 M367.138 190.248 C 369.998 191.068,372.542 193.117,373.812 195.623 L 374.800 197.573 374.800 257.403 L 374.800 317.232 373.965 318.868 C 372.907 320.943,370.698 323.003,368.449 324.013 C 366.760 324.772,365.673 324.800,337.382 324.800 L 308.066 324.800 306.133 323.828 C 304.001 322.756,302.630 321.424,301.167 319.000 L 300.200 317.400 300.200 257.400 L 300.200 197.400 301.142 195.697 C 302.486 193.267,305.210 191.017,307.697 190.284 C 310.943 189.328,363.815 189.296,367.138 190.248 M126.267 320.267 C 125.854 320.679,125.952 323.162,126.414 324.026 C 127.555 326.158,129.497 323.082,128.557 320.633 C 128.316 320.004,126.776 319.757,126.267 320.267 M271.451 320.611 C 270.490 323.115,272.442 326.164,273.609 323.983 C 274.434 322.441,273.945 320.217,272.751 320.078 C 272.068 319.999,271.615 320.185,271.451 320.611 M138.880 323.280 C 137.694 324.466,138.934 327.377,140.277 326.560 C 141.149 326.029,141.442 324.174,140.780 323.376 C 140.198 322.674,139.520 322.640,138.880 323.280 M259.292 323.268 C 258.613 323.947,258.674 325.798,259.395 326.396 C 260.227 327.086,261.127 326.630,261.447 325.355 C 261.896 323.564,260.423 322.137,259.292 323.268 M2.400 331.424 C 2.400 331.987,2.237 332.346,2.038 332.223 C 1.838 332.100,1.769 331.639,1.884 331.200 C 2.172 330.099,2.400 330.198,2.400 331.424 M398.116 331.200 C 398.231 331.639,398.162 332.100,397.962 332.223 C 397.763 332.346,397.600 331.987,397.600 331.424 C 397.600 330.198,397.828 330.099,398.116 331.200 M5.600 336.000 C 5.600 336.440,5.420 336.800,5.200 336.800 C 4.980 336.800,4.800 336.440,4.800 336.000 C 4.800 335.560,4.980 335.200,5.200 335.200 C 5.420 335.200,5.600 335.560,5.600 336.000 M120.400 336.000 C 120.400 336.440,120.220 336.800,120.000 336.800 C 119.780 336.800,119.600 336.440,119.600 336.000 C 119.600 335.560,119.780 335.200,120.000 335.200 C 120.220 335.200,120.400 335.560,120.400 336.000 M280.400 336.000 C 280.400 336.440,280.220 336.800,280.000 336.800 C 279.780 336.800,279.600 336.440,279.600 336.000 C 279.600 335.560,279.780 335.200,280.000 335.200 C 280.220 335.200,280.400 335.560,280.400 336.000 M395.200 336.000 C 395.200 336.440,395.020 336.800,394.800 336.800 C 394.580 336.800,394.400 336.440,394.400 336.000 C 394.400 335.560,394.580 335.200,394.800 335.200 C 395.020 335.200,395.200 335.560,395.200 336.000 M14.800 344.800 C 14.800 345.020,14.440 345.200,14.000 345.200 C 13.560 345.200,13.200 345.020,13.200 344.800 C 13.200 344.580,13.560 344.400,14.000 344.400 C 14.440 344.400,14.800 344.580,14.800 344.800 M112.000 344.800 C 112.000 345.020,111.550 345.200,111.000 345.200 C 110.450 345.200,110.000 345.020,110.000 344.800 C 110.000 344.580,110.450 344.400,111.000 344.400 C 111.550 344.400,112.000 344.580,112.000 344.800 M290.000 344.800 C 290.000 345.020,289.550 345.200,289.000 345.200 C 288.450 345.200,288.000 345.020,288.000 344.800 C 288.000 344.580,288.450 344.400,289.000 344.400 C 289.550 344.400,290.000 344.580,290.000 344.800 M386.800 344.800 C 386.800 345.020,386.440 345.200,386.000 345.200 C 385.560 345.200,385.200 345.020,385.200 344.800 C 385.200 344.580,385.560 344.400,386.000 344.400 C 386.440 344.400,386.800 344.580,386.800 344.800 M158.400 346.400 C 157.617 346.906,156.800 346.906,156.800 346.400 C 156.800 346.180,157.295 346.003,157.900 346.006 C 158.757 346.011,158.868 346.098,158.400 346.400 M243.200 346.400 C 243.200 346.620,242.941 346.800,242.624 346.800 C 242.307 346.800,241.936 346.620,241.800 346.400 C 241.664 346.180,241.923 346.000,242.376 346.000 C 242.829 346.000,243.200 346.180,243.200 346.400 M19.600 347.753 C 19.600 348.108,17.982 348.294,17.777 347.962 C 17.654 347.763,18.013 347.600,18.576 347.600 C 19.139 347.600,19.600 347.669,19.600 347.753 M382.223 347.962 C 382.100 348.162,381.639 348.231,381.200 348.116 C 380.099 347.828,380.198 347.600,381.424 347.600 C 381.987 347.600,382.346 347.763,382.223 347.962 M25.564 351.843 C 24.774 352.795,26.150 353.669,28.200 353.518 C 29.613 353.414,29.815 353.272,29.927 352.300 C 30.080 350.963,26.597 350.598,25.564 351.843 M94.945 351.800 C 94.479 353.015,95.118 353.600,96.911 353.600 C 99.127 353.600,100.408 352.774,99.636 351.843 C 98.916 350.976,95.274 350.943,94.945 351.800 M300.380 351.825 C 299.542 352.834,300.928 353.666,303.200 353.518 C 304.822 353.412,305.000 353.301,305.000 352.400 C 305.000 351.115,301.346 350.660,300.380 351.825 M370.073 352.300 C 370.224 353.613,372.784 354.086,374.185 353.061 C 375.467 352.123,374.346 351.200,371.924 351.200 C 370.003 351.200,369.950 351.231,370.073 352.300 " stroke="none" fill="#040404" fill-rule="evenodd"></path></g></svg>