<svg id="svg" version="1.1" xmlns="http://www.w3.org/2000/svg" xmlns:xlink="http://www.w3.org/1999/xlink" width="400" height="400" viewBox="0, 0, 400,400"><g id="svgg"><path id="path0" d="M97.066 0.596 C 92.260 3.103,91.200 6.322,91.200 18.416 L 91.200 27.600 105.600 27.600 L 120.000 27.600 120.000 18.000 C 120.000 11.867,119.856 8.400,119.600 8.400 C 119.380 8.400,119.200 7.860,119.200 7.200 C 119.200 6.540,119.020 6.000,118.800 6.000 C 118.580 6.000,118.400 5.718,118.400 5.374 C 118.400 4.590,114.612 0.861,113.314 0.367 C 111.626 -0.274,98.377 -0.087,97.066 0.596 M144.900 0.267 C 144.405 0.371,144.000 0.623,144.000 0.828 C 144.000 1.033,143.814 1.200,143.587 1.200 C 142.942 1.200,140.400 3.901,140.400 4.587 C 140.400 4.924,140.220 5.200,140.000 5.200 C 139.780 5.200,139.600 5.560,139.600 6.000 C 139.600 6.440,139.420 6.800,139.200 6.800 C 138.944 6.800,138.800 10.533,138.800 17.200 L 138.800 27.600 152.800 27.600 L 166.800 27.600 166.800 17.200 C 166.800 10.533,166.656 6.800,166.400 6.800 C 166.180 6.800,166.000 6.440,166.000 6.000 C 166.000 5.560,165.820 5.200,165.600 5.200 C 165.380 5.200,165.200 4.948,165.200 4.640 C 165.200 3.931,162.496 1.200,161.793 1.200 C 161.504 1.200,161.192 0.975,161.100 0.700 C 160.934 0.198,147.007 -0.174,144.900 0.267 M192.253 0.270 C 191.230 0.553,187.200 4.638,187.200 5.391 C 187.200 5.726,187.020 6.000,186.800 6.000 C 186.580 6.000,186.400 6.540,186.400 7.200 C 186.400 7.860,186.220 8.400,186.000 8.400 C 185.744 8.400,185.600 11.867,185.600 18.000 L 185.600 27.600 200.000 27.600 L 214.400 27.600 214.400 18.000 C 214.400 11.867,214.256 8.400,214.000 8.400 C 213.780 8.400,213.600 7.860,213.600 7.200 C 213.600 6.540,213.420 6.000,213.200 6.000 C 212.980 6.000,212.800 5.726,212.800 5.391 C 212.800 5.057,211.769 3.752,210.510 2.491 L 208.219 0.200 200.610 0.131 C 196.424 0.094,192.664 0.156,192.253 0.270 M239.700 0.267 C 239.205 0.371,238.800 0.623,238.800 0.828 C 238.800 1.033,238.548 1.200,238.240 1.200 C 237.512 1.200,234.800 3.912,234.800 4.640 C 234.800 4.948,234.620 5.200,234.400 5.200 C 234.180 5.200,234.000 5.560,234.000 6.000 C 234.000 6.440,233.820 6.800,233.600 6.800 C 233.344 6.800,233.200 10.533,233.200 17.200 L 233.200 27.600 247.200 27.600 L 261.200 27.600 261.200 17.200 C 261.200 10.533,261.056 6.800,260.800 6.800 C 260.580 6.800,260.400 6.440,260.400 6.000 C 260.400 5.560,260.220 5.200,260.000 5.200 C 259.780 5.200,259.600 4.912,259.600 4.560 C 259.600 3.859,257.126 1.200,256.473 1.200 C 256.250 1.200,255.992 0.975,255.900 0.700 C 255.734 0.198,241.807 -0.174,239.700 0.267 M286.327 0.565 C 284.841 1.340,281.600 4.648,281.600 5.389 C 281.600 5.725,281.420 6.000,281.200 6.000 C 280.980 6.000,280.800 6.540,280.800 7.200 C 280.800 7.860,280.620 8.400,280.400 8.400 C 280.144 8.400,280.000 11.867,280.000 18.000 L 280.000 27.600 294.430 27.600 L 308.860 27.600 308.728 17.300 C 308.601 7.383,308.562 6.942,307.675 5.446 C 306.556 3.559,303.809 0.859,302.503 0.363 C 300.883 -0.253,287.576 -0.087,286.327 0.565 M84.492 41.200 C 84.020 41.640,83.436 42.000,83.195 42.000 C 82.622 42.000,42.000 82.622,42.000 83.195 C 42.000 83.436,41.640 84.020,41.200 84.492 C 40.404 85.347,40.400 85.904,40.400 200.000 C 40.400 314.096,40.404 314.653,41.200 315.508 C 41.640 315.980,42.000 316.555,42.000 316.785 C 42.000 317.469,82.465 357.747,84.123 358.713 L 85.646 359.600 200.000 359.600 L 314.354 359.600 315.877 358.713 C 317.852 357.564,357.531 317.877,358.706 315.877 L 359.600 314.354 359.600 200.000 L 359.600 85.646 358.711 84.123 C 357.720 82.425,317.506 42.000,316.809 42.000 C 316.565 42.000,315.980 41.640,315.508 41.200 C 314.653 40.404,314.096 40.400,200.000 40.400 C 85.904 40.400,85.347 40.404,84.492 41.200 M316.002 66.300 C 320.815 71.085,324.962 75.207,325.217 75.459 C 325.472 75.712,329.161 79.402,333.413 83.659 C 337.666 87.917,341.428 91.632,341.773 91.916 C 342.340 92.382,342.400 102.786,342.400 200.018 L 342.400 307.605 341.333 308.503 C 340.746 308.996,336.962 312.730,332.923 316.800 C 324.049 325.743,325.622 324.170,316.745 332.978 C 312.705 336.986,308.996 340.746,308.503 341.333 L 307.605 342.400 200.018 342.400 C 102.786 342.400,92.382 342.340,91.916 341.773 C 91.632 341.428,87.917 337.666,83.659 333.413 C 79.402 329.161,75.712 325.472,75.459 325.217 C 75.207 324.962,71.085 320.815,66.300 316.002 L 57.600 307.250 57.600 200.021 L 57.600 92.791 75.100 75.227 L 92.600 57.664 199.925 57.632 L 307.250 57.600 316.002 66.300 M81.500 81.594 L 66.800 96.342 66.800 200.000 L 66.800 303.659 81.570 318.430 L 96.341 333.200 200.005 333.200 L 303.670 333.200 318.435 318.435 L 333.200 303.670 333.200 199.995 L 333.200 96.319 318.440 81.560 L 303.681 66.800 199.940 66.823 L 96.200 66.846 81.500 81.594 M6.656 91.965 C 4.564 92.681,1.571 95.197,0.603 97.053 C -0.087 98.376,-0.279 111.614,0.367 113.314 C 0.861 114.612,4.590 118.400,5.374 118.400 C 5.718 118.400,6.000 118.580,6.000 118.800 C 6.000 119.020,6.540 119.200,7.200 119.200 C 7.860 119.200,8.400 119.380,8.400 119.600 C 8.400 119.856,11.867 120.000,18.000 120.000 L 27.600 120.000 27.600 105.600 L 27.600 91.200 18.100 91.250 C 10.385 91.291,8.235 91.425,6.656 91.965 M372.400 105.600 L 372.400 120.000 382.000 120.000 C 388.133 120.000,391.600 119.856,391.600 119.600 C 391.600 119.380,392.140 119.200,392.800 119.200 C 393.460 119.200,394.000 119.020,394.000 118.800 C 394.000 118.580,394.282 118.400,394.626 118.400 C 395.410 118.400,399.139 114.612,399.633 113.314 C 400.121 112.030,400.106 98.730,399.615 97.438 C 397.783 92.621,393.676 91.200,381.584 91.200 L 372.400 91.200 372.400 105.600 M6.800 139.200 C 6.800 139.420,6.440 139.600,6.000 139.600 C 5.560 139.600,5.200 139.780,5.200 140.000 C 5.200 140.220,4.924 140.400,4.587 140.400 C 3.921 140.400,1.200 142.934,1.200 143.553 C 1.200 143.762,0.975 144.008,0.700 144.100 C -0.023 144.341,-0.023 160.859,0.700 161.100 C 0.975 161.192,1.200 161.504,1.200 161.793 C 1.200 162.496,3.931 165.200,4.640 165.200 C 4.948 165.200,5.200 165.380,5.200 165.600 C 5.200 165.820,5.549 166.000,5.976 166.000 C 6.403 166.000,6.864 166.180,7.000 166.400 C 7.154 166.650,11.071 166.800,17.424 166.800 L 27.600 166.800 27.600 152.800 L 27.600 138.800 17.200 138.800 C 10.533 138.800,6.800 138.944,6.800 139.200 M372.400 152.800 L 372.400 166.800 382.576 166.800 C 388.929 166.800,392.846 166.650,393.000 166.400 C 393.136 166.180,393.597 166.000,394.024 166.000 C 394.451 166.000,394.800 165.820,394.800 165.600 C 394.800 165.380,395.052 165.200,395.360 165.200 C 396.069 165.200,398.800 162.496,398.800 161.793 C 398.800 161.504,399.025 161.192,399.300 161.100 C 399.679 160.974,399.800 158.911,399.800 152.600 C 399.800 146.289,399.679 144.226,399.300 144.100 C 399.025 144.008,398.800 143.762,398.800 143.553 C 398.800 142.934,396.079 140.400,395.413 140.400 C 395.076 140.400,394.800 140.220,394.800 140.000 C 394.800 139.780,394.440 139.600,394.000 139.600 C 393.560 139.600,393.200 139.420,393.200 139.200 C 393.200 138.944,389.467 138.800,382.800 138.800 L 372.400 138.800 372.400 152.800 M145.600 176.400 C 145.600 176.620,145.960 176.800,146.400 176.800 C 146.840 176.800,147.200 176.980,147.200 177.200 C 147.200 177.420,147.483 177.600,147.829 177.600 C 148.637 177.600,149.600 178.563,149.600 179.371 C 149.600 179.717,149.780 180.000,150.000 180.000 C 150.220 180.000,150.400 180.540,150.400 181.200 C 150.400 181.860,150.580 182.400,150.800 182.400 C 151.042 182.400,151.200 184.133,151.200 186.800 L 151.200 191.200 149.700 191.202 C 148.875 191.203,147.570 191.367,146.800 191.565 C 146.030 191.763,144.455 192.038,143.300 192.176 L 141.200 192.428 141.200 187.814 L 141.200 183.200 124.800 183.200 L 108.400 183.200 108.400 199.600 L 108.400 216.000 124.800 216.000 L 141.200 216.000 141.200 210.953 L 141.200 205.907 142.300 206.178 C 142.905 206.327,144.210 206.607,145.200 206.800 C 146.190 206.993,147.540 207.263,148.200 207.400 C 148.860 207.537,149.805 207.731,150.300 207.832 C 151.279 208.031,151.769 217.600,150.800 217.600 C 150.580 217.600,150.400 218.140,150.400 218.800 C 150.400 219.460,150.220 220.000,150.000 220.000 C 149.780 220.000,149.600 220.283,149.600 220.629 C 149.600 221.437,148.637 222.400,147.829 222.400 C 147.483 222.400,147.200 222.580,147.200 222.800 C 147.200 223.020,146.840 223.200,146.400 223.200 C 145.960 223.200,145.600 223.380,145.600 223.600 C 145.600 223.862,138.400 224.000,124.800 224.000 C 111.200 224.000,104.000 223.862,104.000 223.600 C 104.000 223.380,103.634 223.200,103.187 223.200 C 102.237 223.200,99.600 220.710,99.600 219.813 C 99.600 219.476,99.420 219.200,99.200 219.200 C 98.980 219.200,98.800 218.480,98.800 217.600 C 98.800 216.720,98.620 216.000,98.400 216.000 C 98.140 216.000,98.000 210.400,98.000 200.000 C 98.000 189.600,98.140 184.000,98.400 184.000 C 98.620 184.000,98.800 183.280,98.800 182.400 C 98.800 181.520,98.980 180.800,99.200 180.800 C 99.420 180.800,99.600 180.524,99.600 180.187 C 99.600 179.290,102.237 176.800,103.187 176.800 C 103.634 176.800,104.000 176.620,104.000 176.400 C 104.000 176.138,111.200 176.000,124.800 176.000 C 138.400 176.000,145.600 176.138,145.600 176.400 M224.000 176.400 C 224.000 176.620,224.360 176.800,224.800 176.800 C 225.240 176.800,225.600 176.980,225.600 177.200 C 225.600 177.420,225.793 177.600,226.029 177.600 C 226.666 177.600,227.600 178.653,227.600 179.371 C 227.600 179.717,227.780 180.000,228.000 180.000 C 228.220 180.000,228.400 180.439,228.400 180.976 C 228.400 181.513,228.580 182.064,228.800 182.200 C 229.044 182.351,229.200 185.463,229.200 190.200 C 229.200 194.937,229.044 198.049,228.800 198.200 C 228.580 198.336,228.400 198.887,228.400 199.424 C 228.400 199.961,228.220 200.400,228.000 200.400 C 227.780 200.400,227.600 200.683,227.600 201.029 C 227.600 201.747,226.666 202.800,226.029 202.800 C 225.793 202.800,225.600 202.980,225.600 203.200 C 225.600 203.420,225.240 203.600,224.800 203.600 C 224.360 203.600,224.000 203.780,224.000 204.000 C 224.000 204.222,222.933 204.400,221.600 204.400 C 220.267 204.400,219.200 204.578,219.200 204.800 C 219.200 205.060,213.467 205.200,202.800 205.200 L 186.400 205.200 186.400 214.600 L 186.400 224.000 181.600 224.000 L 176.800 224.000 176.800 200.000 L 176.800 176.000 200.400 176.000 C 215.867 176.000,224.000 176.138,224.000 176.400 M257.600 196.000 L 257.600 216.000 274.600 216.000 L 291.600 216.000 291.600 196.000 L 291.600 176.000 296.800 176.000 L 302.000 176.000 302.000 196.000 C 302.000 209.067,301.861 216.000,301.600 216.000 C 301.380 216.000,301.200 216.720,301.200 217.600 C 301.200 218.480,301.020 219.200,300.800 219.200 C 300.580 219.200,300.400 219.476,300.400 219.813 C 300.400 220.710,297.763 223.200,296.813 223.200 C 296.366 223.200,296.000 223.380,296.000 223.600 C 296.000 223.862,288.533 224.000,274.400 224.000 C 260.267 224.000,252.800 223.862,252.800 223.600 C 252.800 223.380,252.350 223.200,251.800 223.200 C 251.250 223.200,250.800 223.020,250.800 222.800 C 250.800 222.580,250.607 222.400,250.371 222.400 C 249.577 222.400,248.000 220.143,248.000 219.005 C 248.000 218.672,247.820 218.400,247.600 218.400 C 247.338 218.400,247.200 211.067,247.200 197.200 L 247.200 176.000 252.400 176.000 L 257.600 176.000 257.600 196.000 M186.400 190.120 C 186.400 194.969,186.544 197.184,186.880 197.520 C 187.500 198.140,214.400 198.218,214.400 197.600 C 214.400 197.380,215.223 197.200,216.229 197.200 C 218.305 197.200,219.200 196.546,219.200 195.029 C 219.200 194.463,219.380 194.000,219.600 194.000 C 219.837 194.000,220.000 192.541,220.000 190.424 C 220.000 188.457,219.820 186.736,219.600 186.600 C 219.380 186.464,219.200 185.888,219.200 185.320 C 219.200 183.246,219.039 183.226,202.100 183.213 L 186.400 183.200 186.400 190.120 M8.400 186.000 C 8.400 186.220,7.860 186.400,7.200 186.400 C 6.540 186.400,6.000 186.580,6.000 186.800 C 6.000 187.020,5.726 187.200,5.391 187.200 C 5.057 187.200,3.752 188.231,2.491 189.491 L 0.200 191.783 0.200 200.000 L 0.200 208.217 2.491 210.509 C 3.752 211.769,5.057 212.800,5.391 212.800 C 5.726 212.800,6.000 212.980,6.000 213.200 C 6.000 213.420,6.540 213.600,7.200 213.600 C 7.860 213.600,8.400 213.780,8.400 214.000 C 8.400 214.256,11.867 214.400,18.000 214.400 L 27.600 214.400 27.600 200.000 L 27.600 185.600 18.000 185.600 C 11.867 185.600,8.400 185.744,8.400 186.000 M372.400 200.000 L 372.400 214.400 382.000 214.400 C 388.133 214.400,391.600 214.256,391.600 214.000 C 391.600 213.780,392.140 213.600,392.800 213.600 C 393.460 213.600,394.000 213.420,394.000 213.200 C 394.000 212.980,394.274 212.800,394.609 212.800 C 394.943 212.800,396.248 211.769,397.509 210.509 L 399.800 208.217 399.800 200.000 L 399.800 191.783 397.509 189.491 C 396.248 188.231,394.943 187.200,394.609 187.200 C 394.274 187.200,394.000 187.020,394.000 186.800 C 394.000 186.580,393.460 186.400,392.800 186.400 C 392.140 186.400,391.600 186.220,391.600 186.000 C 391.600 185.744,388.133 185.600,382.000 185.600 L 372.400 185.600 372.400 200.000 M6.800 233.600 C 6.800 233.820,6.440 234.000,6.000 234.000 C 5.560 234.000,5.200 234.180,5.200 234.400 C 5.200 234.620,4.948 234.800,4.640 234.800 C 3.931 234.800,1.200 237.504,1.200 238.207 C 1.200 238.496,0.975 238.808,0.700 238.900 C -0.023 239.141,-0.023 255.659,0.700 255.900 C 0.975 255.992,1.200 256.250,1.200 256.473 C 1.200 257.126,3.859 259.600,4.560 259.600 C 4.912 259.600,5.200 259.780,5.200 260.000 C 5.200 260.220,5.560 260.400,6.000 260.400 C 6.440 260.400,6.800 260.580,6.800 260.800 C 6.800 261.056,10.533 261.200,17.200 261.200 L 27.600 261.200 27.600 247.200 L 27.600 233.200 17.200 233.200 C 10.533 233.200,6.800 233.344,6.800 233.600 M372.400 247.200 L 372.400 261.200 382.800 261.200 C 389.467 261.200,393.200 261.056,393.200 260.800 C 393.200 260.580,393.560 260.400,394.000 260.400 C 394.440 260.400,394.800 260.220,394.800 260.000 C 394.800 259.780,395.088 259.600,395.440 259.600 C 396.141 259.600,398.800 257.126,398.800 256.473 C 398.800 256.250,399.025 255.992,399.300 255.900 C 399.679 255.774,399.800 253.711,399.800 247.400 C 399.800 241.089,399.679 239.026,399.300 238.900 C 399.025 238.808,398.800 238.496,398.800 238.207 C 398.800 237.504,396.069 234.800,395.360 234.800 C 395.052 234.800,394.800 234.620,394.800 234.400 C 394.800 234.180,394.440 234.000,394.000 234.000 C 393.560 234.000,393.200 233.820,393.200 233.600 C 393.200 233.344,389.467 233.200,382.800 233.200 L 372.400 233.200 372.400 247.200 M8.400 280.400 C 8.400 280.620,7.860 280.800,7.200 280.800 C 6.540 280.800,6.000 280.980,6.000 281.200 C 6.000 281.420,5.718 281.600,5.374 281.600 C 4.590 281.600,0.861 285.388,0.367 286.686 C -0.108 287.937,-0.112 301.254,0.363 302.503 C 0.859 303.809,3.559 306.556,5.446 307.675 C 6.942 308.562,7.383 308.601,17.300 308.728 L 27.600 308.860 27.600 294.430 L 27.600 280.000 18.000 280.000 C 11.867 280.000,8.400 280.144,8.400 280.400 M372.400 294.430 L 372.400 308.860 382.700 308.728 C 392.617 308.601,393.058 308.562,394.554 307.675 C 396.441 306.556,399.141 303.809,399.637 302.503 C 400.112 301.254,400.108 287.937,399.633 286.686 C 399.139 285.388,395.410 281.600,394.626 281.600 C 394.282 281.600,394.000 281.420,394.000 281.200 C 394.000 280.980,393.460 280.800,392.800 280.800 C 392.140 280.800,391.600 280.620,391.600 280.400 C 391.600 280.144,388.133 280.000,382.000 280.000 L 372.400 280.000 372.400 294.430 M91.200 381.584 C 91.200 393.676,92.621 397.783,97.438 399.615 C 99.237 400.299,112.246 400.100,113.663 399.367 C 115.264 398.539,118.400 395.390,118.400 394.611 C 118.400 394.275,118.580 394.000,118.800 394.000 C 119.020 394.000,119.200 393.460,119.200 392.800 C 119.200 392.140,119.380 391.600,119.600 391.600 C 119.856 391.600,120.000 388.133,120.000 382.000 L 120.000 372.400 105.600 372.400 L 91.200 372.400 91.200 381.584 M138.800 382.800 C 138.800 389.467,138.944 393.200,139.200 393.200 C 139.420 393.200,139.600 393.560,139.600 394.000 C 139.600 394.440,139.780 394.800,140.000 394.800 C 140.220 394.800,140.400 395.076,140.400 395.413 C 140.400 396.079,142.934 398.800,143.553 398.800 C 143.762 398.800,144.008 399.025,144.100 399.300 C 144.226 399.679,146.289 399.800,152.600 399.800 C 158.911 399.800,160.974 399.679,161.100 399.300 C 161.192 399.025,161.504 398.800,161.793 398.800 C 162.496 398.800,165.200 396.069,165.200 395.360 C 165.200 395.052,165.380 394.800,165.600 394.800 C 165.820 394.800,166.000 394.451,166.000 394.024 C 166.000 393.597,166.180 393.136,166.400 393.000 C 166.650 392.846,166.800 388.929,166.800 382.576 L 166.800 372.400 152.800 372.400 L 138.800 372.400 138.800 382.800 M185.600 382.000 C 185.600 388.133,185.744 391.600,186.000 391.600 C 186.220 391.600,186.400 392.140,186.400 392.800 C 186.400 393.460,186.580 394.000,186.800 394.000 C 187.020 394.000,187.200 394.274,187.200 394.609 C 187.200 394.943,188.231 396.248,189.490 397.509 L 191.781 399.800 198.747 399.934 C 202.578 400.008,206.298 399.958,207.013 399.824 C 208.477 399.549,212.800 395.672,212.800 394.635 C 212.800 394.286,212.980 394.000,213.200 394.000 C 213.420 394.000,213.600 393.460,213.600 392.800 C 213.600 392.140,213.780 391.600,214.000 391.600 C 214.256 391.600,214.400 388.133,214.400 382.000 L 214.400 372.400 200.000 372.400 L 185.600 372.400 185.600 382.000 M233.200 382.576 C 233.200 388.929,233.350 392.846,233.600 393.000 C 233.820 393.136,234.000 393.597,234.000 394.024 C 234.000 394.451,234.180 394.800,234.400 394.800 C 234.620 394.800,234.800 395.091,234.800 395.446 C 234.800 396.176,237.495 398.800,238.245 398.800 C 238.514 398.800,238.808 399.025,238.900 399.300 C 239.026 399.679,241.089 399.800,247.400 399.800 C 253.711 399.800,255.774 399.679,255.900 399.300 C 255.992 399.025,256.250 398.800,256.473 398.800 C 257.126 398.800,259.600 396.141,259.600 395.440 C 259.600 395.088,259.780 394.800,260.000 394.800 C 260.220 394.800,260.400 394.440,260.400 394.000 C 260.400 393.560,260.580 393.200,260.800 393.200 C 261.056 393.200,261.200 389.467,261.200 382.800 L 261.200 372.400 247.200 372.400 L 233.200 372.400 233.200 382.576 M280.000 382.000 C 280.000 388.133,280.144 391.600,280.400 391.600 C 280.620 391.600,280.800 392.140,280.800 392.800 C 280.800 393.460,280.980 394.000,281.200 394.000 C 281.420 394.000,281.600 394.286,281.600 394.635 C 281.600 395.654,285.922 399.549,287.349 399.817 C 289.782 400.273,302.920 399.842,303.101 399.300 C 303.192 399.025,303.438 398.800,303.647 398.800 C 304.237 398.800,306.698 396.196,307.697 394.515 C 308.557 393.067,308.602 392.542,308.728 382.700 L 308.860 372.400 294.430 372.400 L 280.000 372.400 280.000 382.000 " stroke="none" fill="#040404" fill-rule="evenodd"></path><path id="path1" d="" stroke="none" fill="#080404" fill-rule="evenodd"></path><path id="path2" d="" stroke="none" fill="#080404" fill-rule="evenodd"></path><path id="path3" d="" stroke="none" fill="#080404" fill-rule="evenodd"></path><path id="path4" d="" stroke="none" fill="#080404" fill-rule="evenodd"></path></g></svg>