<svg id="svg" version="1.1" xmlns="http://www.w3.org/2000/svg" xmlns:xlink="http://www.w3.org/1999/xlink" width="400" height="400" viewBox="0, 0, 400,400"><g id="svgg"><path id="path0" d="M93.135 192.415 L 93.135 253.673 93.856 253.673 C 94.559 253.673,95.707 252.541,140.663 207.534 C 166.011 182.158,187.447 160.657,188.299 159.753 C 196.940 150.591,214.458 150.811,222.599 160.185 C 227.050 165.310,228.493 169.932,228.658 179.591 L 228.756 185.299 231.373 185.352 L 233.989 185.406 234.038 208.736 L 234.087 232.066 223.285 242.869 L 212.483 253.673 263.131 253.673 L 313.778 253.673 313.778 192.415 L 313.778 131.157 203.457 131.157 L 93.135 131.157 93.135 192.415 M203.169 159.214 C 192.725 160.089,187.809 166.888,187.807 180.461 L 187.806 185.310 205.201 185.310 L 222.597 185.310 222.518 179.405 C 222.429 172.793,222.224 171.488,220.781 168.365 C 218.355 163.116,213.504 159.715,207.834 159.291 C 207.011 159.230,206.035 159.153,205.665 159.120 C 205.295 159.088,204.172 159.130,203.169 159.214 M180.317 208.833 L 180.317 232.165 187.422 232.165 L 194.527 232.165 194.527 208.833 L 194.527 185.502 187.422 185.502 L 180.317 185.502 180.317 208.833 " stroke="none" fill="#e6e7e7" fill-rule="evenodd"></path><path id="path1" d="M87.727 119.235 C 85.731 119.874,84.100 121.275,83.276 123.058 L 82.861 123.956 82.812 192.116 C 82.758 266.291,82.691 261.484,83.794 263.230 C 84.816 264.850,86.787 266.043,88.960 266.358 C 90.700 266.609,316.398 266.592,318.003 266.340 C 320.584 265.935,322.512 264.543,323.546 262.337 L 324.052 261.258 324.052 192.799 C 324.052 125.896,324.044 124.316,323.685 123.284 C 323.179 121.828,321.416 120.065,319.827 119.426 L 318.675 118.963 203.745 118.925 C 93.225 118.888,88.772 118.900,87.727 119.235 M313.778 192.319 L 313.778 253.673 203.457 253.673 L 93.135 253.673 93.135 192.319 L 93.135 130.965 203.457 130.965 L 313.778 130.965 313.778 192.319 M202.752 153.242 C 193.560 153.961,186.544 159.206,183.492 167.643 C 182.176 171.281,181.999 172.565,181.904 179.213 L 181.817 185.310 184.797 185.310 L 187.777 185.310 187.855 179.309 C 187.955 171.537,188.667 168.841,191.660 164.897 C 197.869 156.717,213.564 157.076,219.297 165.528 C 221.987 169.495,222.756 172.839,222.756 180.582 L 222.756 185.310 225.636 185.310 L 228.517 185.310 228.516 179.885 C 228.515 172.533,228.044 169.825,226.032 165.602 C 221.847 156.814,213.529 152.399,202.752 153.242 M203.649 202.669 C 199.314 204.040,198.078 209.050,201.282 212.257 L 202.400 213.377 202.401 215.522 C 202.401 218.722,203.283 220.015,205.335 219.824 C 207.172 219.653,207.777 218.606,207.777 215.601 L 207.777 213.420 208.644 212.809 C 213.783 209.187,209.639 200.775,203.649 202.669 " stroke="none" fill="#3c3c63" fill-rule="evenodd"></path><path id="path2" d="M148.311 131.109 C 178.711 131.136,228.399 131.136,258.729 131.109 C 289.059 131.082,264.186 131.060,203.457 131.060 C 142.727 131.060,117.912 131.082,148.311 131.109 M203.409 153.181 C 203.593 153.229,203.896 153.229,204.081 153.181 C 204.265 153.133,204.114 153.093,203.745 153.093 C 203.375 153.093,203.224 153.133,203.409 153.181 M206.289 153.181 C 206.474 153.229,206.776 153.229,206.961 153.181 C 207.146 153.133,206.995 153.093,206.625 153.093 C 206.255 153.093,206.104 153.133,206.289 153.181 M203.891 159.137 C 204.130 159.183,204.475 159.181,204.659 159.133 C 204.843 159.085,204.647 159.048,204.225 159.050 C 203.802 159.052,203.652 159.091,203.891 159.137 M205.811 159.137 C 206.050 159.183,206.396 159.181,206.579 159.133 C 206.763 159.085,206.567 159.048,206.145 159.050 C 205.723 159.052,205.572 159.091,205.811 159.137 M140.470 207.777 L 94.575 253.673 153.529 253.673 L 212.483 253.673 223.285 242.869 L 234.087 232.066 234.038 208.736 L 233.989 185.406 231.352 185.352 L 228.715 185.299 228.660 180.455 L 228.606 175.612 228.561 180.461 L 228.517 185.310 225.640 185.310 L 222.763 185.310 222.707 180.749 L 222.652 176.188 222.608 180.749 L 222.564 185.310 202.208 185.310 L 181.853 185.310 181.854 179.693 C 181.855 171.445,182.815 167.321,185.768 162.890 C 186.137 162.336,186.423 161.882,186.403 161.882 C 186.382 161.882,165.713 182.535,140.470 207.777 M217.475 163.610 C 217.995 164.138,218.464 164.570,218.517 164.570 C 218.569 164.570,218.187 164.138,217.667 163.610 C 217.147 163.082,216.678 162.650,216.625 162.650 C 216.572 162.650,216.955 163.082,217.475 163.610 M194.527 208.833 L 194.527 232.165 187.422 232.165 L 180.317 232.165 180.317 208.833 L 180.317 185.502 187.422 185.502 L 194.527 185.502 194.527 208.833 M207.284 202.796 C 211.481 204.366,212.303 210.168,208.699 212.775 L 207.873 213.372 207.777 215.853 L 207.681 218.333 206.979 219.035 C 204.728 221.284,202.402 219.531,202.401 215.584 L 202.400 213.309 201.431 212.437 C 196.719 208.201,201.349 200.576,207.284 202.796 M67.462 268.232 C 67.888 273.761,71.911 278.723,77.004 280.003 C 78.894 280.478,328.644 280.392,330.197 279.916 C 335.529 278.281,339.496 272.930,339.509 267.355 L 339.510 266.731 203.428 266.731 L 67.346 266.731 67.462 268.232 " stroke="none" fill="#6ccbdb" fill-rule="evenodd"></path><path id="path3" d="M190.014 0.132 C 70.197 6.301,-17.182 115.185,2.697 233.552 C 20.971 342.359,124.620 415.812,233.785 397.317 C 339.360 379.431,411.898 281.356,398.544 174.556 C 385.635 71.309,294.131 -5.228,190.014 0.132 M320.122 119.486 C 321.655 120.239,322.642 121.164,323.393 122.549 L 324.052 123.764 324.052 192.607 L 324.052 261.450 323.515 262.543 C 322.833 263.932,321.235 265.409,319.779 265.997 L 318.675 266.443 204.129 266.499 C 119.588 266.540,89.281 266.498,88.430 266.338 C 86.269 265.931,84.402 264.565,83.396 262.657 L 82.861 261.642 82.861 192.703 L 82.861 123.764 83.266 122.890 C 84.038 121.220,85.578 119.865,87.432 119.224 C 88.389 118.893,93.173 118.881,203.745 118.921 L 319.059 118.963 320.122 119.486 M339.509 267.355 C 339.496 272.930,335.529 278.281,330.197 279.916 C 328.644 280.392,78.894 280.478,77.004 280.003 C 71.911 278.723,67.888 273.761,67.462 268.232 L 67.346 266.731 203.428 266.731 L 339.510 266.731 339.509 267.355 " stroke="none" fill="#fbdb3c" fill-rule="evenodd"></path><path id="path4" d="M84.483 121.123 L 83.821 121.843 84.542 121.182 C 85.212 120.566,85.350 120.403,85.203 120.403 C 85.171 120.403,84.847 120.727,84.483 121.123 M321.651 120.463 C 321.651 120.496,321.932 120.777,322.276 121.087 L 322.900 121.651 322.336 121.027 C 321.810 120.446,321.651 120.315,321.651 120.463 M221.603 159.289 C 221.962 159.659,222.298 159.962,222.351 159.962 C 222.404 159.962,222.154 159.659,221.795 159.289 C 221.437 158.920,221.101 158.617,221.048 158.617 C 220.995 158.617,221.245 158.920,221.603 159.289 M192.789 163.562 L 192.127 164.282 192.847 163.621 C 193.517 163.005,193.655 162.842,193.509 162.842 C 193.477 162.842,193.152 163.166,192.789 163.562 " stroke="none" fill="#9c8c4c" fill-rule="evenodd"></path></g></svg>