<svg id="svg" version="1.1" xmlns="http://www.w3.org/2000/svg" xmlns:xlink="http://www.w3.org/1999/xlink" width="400" height="400" viewBox="0, 0, 400,400"><g id="svgg"><path id="path0" d="M6.773 6.982 C 3.028 10.768,1.514 12.854,1.695 13.982 C 1.909 15.311,3.157 14.378,8.928 8.575 C 14.907 2.564,15.633 1.564,14.006 1.576 C 12.706 1.585,10.430 3.287,6.773 6.982 M14.648 14.684 C 4.767 24.584,1.565 28.266,1.574 29.718 C 1.581 30.775,1.848 31.289,2.167 30.859 C 2.487 30.430,3.756 29.199,4.989 28.125 L 7.230 26.172 5.904 28.778 C 5.175 30.211,4.311 33.883,3.985 36.937 C 3.658 39.991,2.980 42.626,2.477 42.794 C 1.974 42.962,1.590 44.036,1.624 45.182 C 1.658 46.328,1.863 46.826,2.080 46.289 C 2.807 44.488,3.822 45.287,5.432 48.927 C 7.440 53.466,7.512 52.994,4.290 56.393 C -0.190 61.119,0.646 63.514,5.239 59.112 L 8.915 55.589 11.684 58.020 C 15.260 61.160,15.469 60.581,8.008 68.206 C -2.171 78.609,-0.894 80.762,9.440 70.621 C 13.791 66.351,17.901 62.954,18.620 63.033 C 28.445 64.104,28.828 62.903,13.867 77.958 C 4.916 86.966,1.563 90.845,1.563 92.194 C 1.563 93.693,4.409 91.216,16.391 79.292 C 32.818 62.943,35.862 60.995,39.887 64.255 L 41.693 65.717 22.214 85.372 C 11.500 96.182,2.471 105.155,2.148 105.313 C 1.826 105.470,1.563 106.521,1.563 107.649 C 1.563 109.394,4.650 106.623,22.308 89.029 C 33.717 77.661,43.183 68.239,43.343 68.092 C 43.821 67.652,49.272 72.888,49.041 73.565 C 48.924 73.910,38.193 84.845,25.195 97.867 C 7.203 115.892,1.563 121.995,1.562 123.438 C 1.562 124.965,6.352 120.552,26.185 100.753 C 54.467 72.519,51.282 75.002,54.696 78.524 L 57.375 81.288 30.055 108.782 C 15.029 123.903,2.471 136.404,2.148 136.562 C 1.826 136.720,1.562 137.775,1.562 138.908 C 1.562 140.649,5.958 136.577,30.090 112.475 C 62.775 79.832,59.086 82.806,62.509 86.337 L 65.188 89.101 33.961 120.501 C 16.786 137.770,2.471 152.029,2.148 152.187 C 1.826 152.345,1.563 153.401,1.563 154.534 C 1.563 156.276,6.282 151.885,32.070 126.149 C 48.850 109.404,62.706 95.587,62.863 95.444 C 63.020 95.302,62.397 96.703,61.480 98.558 C 60.562 100.413,59.068 104.508,58.159 107.658 L 56.507 113.387 28.967 140.966 C 7.557 162.406,1.486 168.915,1.690 170.204 C 1.902 171.540,7.277 166.540,29.297 144.525 L 56.641 117.186 57.147 122.460 L 57.654 127.734 30.194 155.442 C 15.091 170.682,2.471 183.279,2.148 183.437 C 1.826 183.595,1.563 184.650,1.563 185.782 C 1.563 187.524,5.892 183.517,29.702 159.741 C 45.178 144.286,58.070 131.706,58.351 131.785 C 58.631 131.865,59.503 133.622,60.287 135.690 L 61.715 139.450 32.225 169.112 C 16.005 185.427,2.471 198.904,2.148 199.062 C 1.826 199.220,1.563 200.276,1.563 201.409 C 1.563 203.150,6.284 198.753,32.042 173.024 C 48.806 156.279,62.781 142.495,63.097 142.393 C 63.690 142.202,67.573 147.600,67.576 148.621 C 67.577 148.936,52.725 164.063,34.570 182.236 C 9.079 207.752,1.562 215.712,1.562 217.188 C 1.563 218.725,8.227 212.447,35.589 185.135 C 54.304 166.455,70.036 151.283,70.550 151.419 C 77.294 153.203,70.548 161.843,33.286 199.145 C 8.516 223.942,1.565 231.326,1.574 232.834 C 1.581 233.897,1.856 234.414,2.186 233.984 C 4.155 231.421,13.391 223.317,12.872 224.609 C 12.527 225.469,11.862 228.693,11.396 231.775 C 10.590 237.095,10.321 237.613,6.055 242.052 C -0.564 248.941,-0.224 251.917,6.441 245.435 L 11.320 240.690 12.745 245.078 L 14.169 249.465 8.452 255.376 C 5.307 258.627,2.471 261.414,2.148 261.568 C 1.826 261.723,1.562 262.744,1.562 263.838 C 1.562 265.614,2.278 265.126,8.244 259.281 C 16.325 251.365,15.587 251.649,18.533 255.315 L 20.948 258.320 11.270 268.027 C 4.282 275.037,1.589 278.260,1.578 279.625 C 1.565 281.195,3.357 279.740,12.159 271.031 C 17.987 265.265,22.903 260.407,23.083 260.235 C 23.588 259.754,30.495 263.595,30.274 264.235 C 30.166 264.546,23.662 271.247,15.820 279.126 C 5.317 289.679,1.562 293.943,1.563 295.316 C 1.563 296.823,4.639 294.118,17.609 281.207 L 33.656 265.234 39.410 265.234 C 42.575 265.234,45.110 265.304,45.043 265.388 C 44.976 265.473,35.136 275.361,23.175 287.362 C 6.409 304.184,1.489 309.560,1.691 310.833 C 1.902 312.162,6.686 307.751,26.172 288.262 L 50.391 264.039 52.956 266.901 C 56.251 270.577,58.919 267.223,28.320 297.865 C 7.828 318.386,1.563 325.106,1.563 326.563 C 1.562 328.094,6.978 323.057,29.309 300.756 C 61.030 269.078,57.658 271.775,60.908 275.476 L 63.435 278.354 33.085 308.877 C 16.392 325.665,2.471 339.529,2.148 339.687 C 1.826 339.845,1.562 340.901,1.562 342.035 C 1.562 343.776,6.477 339.191,33.242 312.478 C 50.666 295.088,65.015 280.778,65.129 280.678 C 65.243 280.579,66.623 281.815,68.196 283.426 L 71.056 286.356 36.314 321.107 C 9.284 348.145,1.571 356.288,1.567 357.792 C 1.563 359.355,8.305 352.989,36.728 324.589 C 56.069 305.264,72.168 289.360,72.502 289.247 C 73.241 288.997,78.548 294.357,78.072 294.872 C 77.886 295.073,60.565 312.432,39.580 333.448 C 9.648 363.423,1.482 372.018,1.689 373.328 C 1.902 374.672,9.587 367.366,40.985 335.972 C 62.453 314.507,80.118 297.045,80.240 297.167 C 80.363 297.290,79.438 299.295,78.185 301.625 C 76.932 303.954,75.375 307.915,74.726 310.427 C 74.077 312.940,73.434 315.120,73.297 315.272 C 73.159 315.424,56.932 331.689,37.236 351.417 C 9.191 379.508,1.483 387.647,1.689 388.953 C 1.902 390.295,8.895 383.680,37.500 355.076 L 73.047 319.531 73.545 322.851 C 73.819 324.678,74.171 326.955,74.327 327.912 C 74.555 329.318,67.921 336.349,39.864 364.436 C 10.551 393.781,5.441 399.219,7.182 399.219 C 8.316 399.219,9.374 398.955,9.532 398.633 C 9.690 398.311,24.623 383.321,42.716 365.322 L 75.613 332.597 77.278 336.361 C 79.417 341.197,82.580 337.314,49.634 370.301 C 26.235 393.728,21.118 399.218,22.681 399.213 C 24.172 399.209,30.992 392.824,52.734 371.083 L 80.859 342.958 83.644 345.893 C 87.004 349.436,90.667 344.787,61.356 374.178 C 41.237 394.352,36.753 399.219,38.281 399.219 C 39.726 399.219,45.907 393.499,64.246 375.195 C 77.483 361.982,88.570 351.231,88.883 351.303 C 90.276 351.625,95.299 355.118,95.120 355.640 C 95.011 355.959,85.268 365.894,73.470 377.719 C 56.009 395.219,52.375 399.217,53.939 399.211 C 55.406 399.206,60.895 394.172,77.207 377.871 L 98.555 356.539 103.145 357.735 C 105.670 358.393,107.665 359.012,107.579 359.111 C 107.493 359.209,98.473 368.274,87.535 379.255 C 71.318 395.534,68.002 399.217,69.566 399.211 C 71.027 399.205,76.225 394.466,91.355 379.349 L 111.225 359.495 115.899 358.953 C 118.469 358.654,121.616 358.111,122.892 357.745 C 124.168 357.379,125.077 357.225,124.911 357.404 C 124.745 357.582,115.308 367.064,103.940 378.474 C 87.234 395.240,83.633 399.219,85.160 399.219 C 86.592 399.219,92.540 393.750,109.736 376.619 C 122.213 364.189,134.227 352.676,136.434 351.033 C 138.641 349.391,141.629 346.584,143.075 344.797 C 145.719 341.527,149.702 340.814,153.687 342.897 C 154.279 343.206,144.144 353.895,126.935 371.111 C 104.626 393.429,99.553 398.879,100.889 399.091 C 102.179 399.296,108.696 393.214,130.184 371.747 C 159.709 342.254,158.631 343.093,165.427 344.322 L 168.745 344.922 141.800 371.875 C 120.103 393.579,115.179 398.879,116.514 399.091 C 117.802 399.295,124.180 393.361,145.062 372.529 L 171.951 345.703 176.015 345.971 C 178.250 346.119,180.507 346.478,181.030 346.770 C 181.637 347.108,172.627 356.661,156.233 373.064 C 135.493 393.815,130.805 398.879,132.139 399.091 C 133.424 399.295,139.559 393.598,159.482 373.700 C 187.223 345.994,186.230 346.746,193.160 348.210 L 196.085 348.828 171.097 373.828 C 150.970 393.965,146.430 398.879,147.764 399.091 C 149.046 399.294,155.044 393.744,174.362 374.482 L 199.304 349.609 203.754 349.859 C 206.201 349.996,208.456 350.355,208.766 350.656 C 209.075 350.957,198.620 361.919,185.532 375.016 C 166.358 394.203,162.056 398.879,163.389 399.091 C 164.668 399.294,170.500 393.906,189.159 375.282 C 215.558 348.931,213.277 350.591,220.894 352.199 L 223.429 352.734 200.395 375.781 C 181.837 394.350,177.682 398.879,179.013 399.091 C 180.288 399.293,185.906 394.129,203.658 376.434 L 226.651 353.516 231.099 353.765 C 233.545 353.903,235.800 354.261,236.109 354.562 C 236.419 354.863,226.843 364.946,214.830 376.969 C 197.225 394.588,193.308 398.879,194.638 399.091 C 195.910 399.293,201.377 394.281,218.498 377.216 C 230.713 365.040,240.777 355.022,240.862 354.954 C 240.946 354.886,243.214 355.237,245.900 355.735 L 250.785 356.641 229.700 377.734 C 212.707 394.734,208.935 398.879,210.263 399.090 C 211.530 399.292,216.756 394.518,232.927 378.387 C 249.402 361.952,254.361 357.432,255.878 357.471 C 262.236 357.631,264.164 357.896,263.932 358.577 C 263.789 358.998,254.723 368.315,243.785 379.281 C 227.575 395.532,224.252 399.217,225.816 399.211 C 227.276 399.205,232.398 394.543,247.236 379.717 L 266.738 360.232 267.678 363.905 C 268.196 365.925,268.736 367.993,268.880 368.501 C 269.023 369.008,262.482 376.127,254.343 384.321 C 242.192 396.554,239.886 399.217,241.452 399.207 C 242.872 399.199,246.836 395.725,256.976 385.603 L 270.592 372.009 272.836 375.548 C 274.070 377.494,274.974 379.199,274.845 379.336 C 274.715 379.473,270.245 384.003,264.911 389.402 C 256.999 397.411,255.547 399.219,257.028 399.219 C 258.291 399.219,261.544 396.551,267.742 390.430 C 272.636 385.596,276.740 381.641,276.861 381.641 C 276.981 381.641,278.298 382.932,279.787 384.510 L 282.493 387.380 276.688 393.299 C 269.091 401.045,271.532 401.957,279.461 394.336 C 282.255 391.650,284.769 389.512,285.046 389.584 C 285.324 389.656,287.022 390.550,288.818 391.571 L 292.085 393.426 289.353 396.323 C 285.803 400.085,288.493 400.567,292.425 396.874 C 293.938 395.452,295.383 394.720,296.094 395.014 C 296.738 395.280,298.672 395.861,300.391 396.304 C 304.237 397.295,304.555 397.549,303.102 398.468 C 302.230 399.019,302.472 399.198,304.102 399.207 C 305.283 399.213,306.250 398.955,306.250 398.633 C 306.250 398.311,309.238 398.026,312.890 398.001 C 316.543 397.976,319.091 398.234,318.554 398.575 C 317.935 398.968,318.364 399.199,319.727 399.207 C 320.908 399.213,321.875 398.914,321.875 398.542 C 321.875 398.170,324.072 397.076,326.758 396.111 C 342.314 390.521,354.075 378.795,357.728 365.234 C 358.429 362.632,361.971 358.710,378.887 341.797 C 394.371 326.316,399.205 321.028,399.211 319.567 C 399.217 318.002,395.614 321.239,379.645 337.145 C 368.879 347.868,360.002 356.699,359.918 356.771 C 359.834 356.843,359.789 354.279,359.817 351.075 L 359.869 345.248 379.544 325.519 C 394.359 310.663,399.219 305.326,399.219 303.907 C 399.219 302.386,395.458 305.774,379.671 321.520 C 357.007 344.123,359.176 342.576,357.682 337.207 L 356.502 332.967 377.853 311.601 C 394.194 295.248,399.206 289.783,399.211 288.309 C 399.217 286.741,395.134 290.462,377.204 308.360 L 355.190 330.335 352.922 326.759 L 350.654 323.183 374.351 299.313 C 387.384 286.185,398.311 275.314,398.633 275.156 C 398.955 274.999,399.219 273.945,399.219 272.814 C 399.219 271.071,395.413 274.554,374.178 295.731 C 360.406 309.466,349.054 320.776,348.952 320.864 C 348.850 320.953,347.483 319.704,345.915 318.088 L 343.065 315.151 371.136 287.068 C 392.832 265.362,399.209 258.546,399.213 257.056 C 399.218 255.492,393.730 260.603,370.273 284.009 C 354.353 299.894,341.205 313.001,341.056 313.137 C 340.906 313.272,339.178 312.384,337.216 311.162 L 333.648 308.941 366.428 276.150 C 391.894 250.677,399.210 242.928,399.214 241.427 C 399.218 239.864,392.712 245.990,365.196 273.458 C 346.484 292.138,330.752 307.354,330.235 307.272 C 329.719 307.190,327.629 306.662,325.591 306.100 L 321.884 305.078 360.547 266.406 C 390.720 236.227,399.211 227.309,399.215 225.799 C 399.218 224.237,391.458 231.619,358.974 264.080 L 318.730 304.297 312.844 304.337 L 306.958 304.378 337.659 273.655 C 354.544 256.757,369.687 242.007,371.311 240.876 C 372.934 239.745,375.318 237.384,376.609 235.628 C 377.900 233.873,383.516 227.835,389.088 222.211 C 396.512 214.718,399.216 211.481,399.207 210.095 C 399.200 209.049,398.925 208.553,398.591 208.984 C 398.259 209.414,394.221 213.451,389.619 217.955 L 381.250 226.144 381.255 220.299 L 381.261 214.453 390.223 205.469 C 396.660 199.016,399.190 195.951,399.202 194.592 C 399.216 193.010,397.659 194.246,389.701 202.136 L 380.182 211.573 377.920 208.006 L 375.658 204.440 386.853 193.064 C 393.009 186.808,398.311 181.561,398.633 181.404 C 398.955 181.248,399.219 180.207,399.219 179.090 C 399.219 177.338,397.507 178.762,386.689 189.507 C 379.798 196.352,373.965 201.916,373.727 201.870 C 372.542 201.642,367.256 197.972,367.406 197.481 C 367.500 197.169,374.697 189.768,383.398 181.032 C 395.150 169.235,399.219 164.669,399.219 163.278 C 399.219 161.767,395.833 164.780,381.639 178.926 C 364.233 196.270,364.029 196.442,361.131 196.109 C 359.521 195.925,357.035 195.786,355.608 195.800 C 353.362 195.822,394.504 152.175,398.633 150.156 C 398.955 149.999,399.219 148.945,399.219 147.814 C 399.219 146.071,395.299 149.671,373.526 171.408 C 359.395 185.515,346.651 197.629,345.206 198.328 C 343.761 199.026,340.885 201.228,338.816 203.221 L 335.053 206.843 331.594 205.961 L 328.135 205.078 363.672 169.531 C 391.343 141.854,399.211 133.556,399.214 132.051 C 399.218 130.488,392.164 137.160,362.462 166.816 C 342.246 187.001,325.574 203.635,325.413 203.781 C 324.954 204.197,316.406 202.150,316.406 201.624 C 316.406 199.296,340.667 177.484,344.548 176.323 C 355.485 173.051,365.562 162.491,367.786 151.970 C 368.241 149.821,371.570 146.036,383.855 133.700 C 395.588 121.919,399.287 117.746,399.089 116.512 C 398.878 115.195,395.980 117.726,383.984 129.701 L 369.141 144.520 368.600 140.364 C 368.302 138.078,367.951 135.819,367.818 135.344 C 367.686 134.869,374.697 127.318,383.398 118.565 C 395.124 106.769,399.219 102.167,399.219 100.782 C 399.219 99.270,396.162 101.958,383.179 114.886 C 364.757 133.232,366.900 131.806,364.392 127.390 L 362.421 123.920 380.234 105.931 C 390.031 96.037,398.311 87.813,398.633 87.656 C 398.955 87.498,399.219 86.449,399.219 85.323 C 399.219 83.577,396.393 86.089,380.035 102.380 C 369.485 112.887,360.761 121.566,360.649 121.665 C 360.537 121.765,359.159 120.529,357.586 118.919 L 354.728 115.991 376.966 93.738 C 393.997 76.696,399.206 71.034,399.212 69.561 C 399.217 67.998,394.904 71.945,376.155 90.655 C 352.507 114.254,350.201 116.063,350.628 110.675 C 351.146 104.141,352.120 102.927,376.044 78.989 C 394.059 60.963,399.294 55.291,399.091 54.014 C 398.879 52.682,394.440 56.747,376.201 74.973 C 363.756 87.409,353.507 97.512,353.426 97.425 C 353.346 97.337,353.964 94.102,354.801 90.234 L 356.321 83.203 362.529 76.944 C 367.280 72.153,369.691 70.345,372.801 69.240 C 383.316 65.506,390.906 57.940,394.121 47.991 C 394.825 45.812,396.260 43.103,397.310 41.971 C 399.543 39.562,400.155 35.671,397.954 37.872 C 396.335 39.491,396.378 39.576,395.770 33.594 C 395.290 28.875,395.394 28.366,397.236 26.401 C 400.402 23.025,399.962 20.320,396.738 23.333 L 394.257 25.652 392.412 21.671 L 390.568 17.690 394.307 13.744 C 396.364 11.574,398.311 9.674,398.633 9.522 C 398.955 9.369,399.219 8.360,399.219 7.278 C 399.219 5.481,398.777 5.738,394.081 10.273 C 391.255 13.002,388.805 15.134,388.638 15.011 C 388.471 14.889,387.119 13.643,385.634 12.243 L 382.935 9.697 386.856 5.630 C 390.543 1.804,390.660 1.563,388.813 1.563 C 387.733 1.563,386.727 1.826,386.578 2.148 C 386.429 2.471,385.056 3.885,383.528 5.291 L 380.749 7.848 376.613 6.022 C 372.734 4.310,372.559 4.115,373.794 2.880 C 375.030 1.644,374.987 1.563,373.103 1.563 C 371.998 1.563,371.094 1.912,371.094 2.340 C 371.094 2.805,368.430 3.059,364.450 2.974 C 360.795 2.895,358.247 2.551,358.786 2.209 C 359.410 1.812,358.986 1.582,357.617 1.574 C 356.436 1.568,355.469 1.886,355.469 2.281 C 355.469 2.676,353.623 3.607,351.367 4.350 C 341.830 7.490,333.585 15.142,330.062 24.121 C 328.022 29.320,327.180 30.247,298.648 58.677 C 282.524 74.745,269.597 87.411,269.922 86.825 C 270.248 86.240,270.733 83.166,270.999 79.995 L 271.484 74.229 307.793 37.896 C 337.128 8.541,343.730 1.563,342.168 1.567 C 340.663 1.571,332.459 9.345,305.156 36.641 L 270.077 71.710 268.152 67.846 C 267.093 65.721,266.355 63.842,266.512 63.671 C 266.669 63.499,280.673 49.455,297.633 32.461 C 322.443 7.602,328.097 1.563,326.563 1.563 C 325.096 1.563,317.756 8.454,294.736 31.445 C 278.281 47.881,264.560 61.327,264.245 61.326 C 263.226 61.323,257.828 57.440,258.018 56.848 C 258.120 56.532,270.496 43.964,285.521 28.918 C 307.515 6.894,312.469 1.563,310.937 1.563 C 309.481 1.563,302.660 7.921,281.817 28.711 C 266.846 43.643,254.179 55.728,253.666 55.568 C 253.154 55.408,250.889 55.057,248.633 54.787 L 244.532 54.297 270.697 28.125 C 291.773 7.043,296.540 1.902,295.204 1.690 C 293.917 1.486,287.565 7.399,266.777 28.156 C 243.900 50.998,239.317 55.217,235.264 57.162 C 230.062 59.659,226.022 63.923,223.485 69.593 C 220.667 75.893,155.274 140.424,152.969 139.180 C 146.554 135.720,140.125 143.084,214.461 68.749 C 268.156 15.055,280.928 1.901,279.576 1.688 C 278.244 1.479,264.120 15.188,211.568 67.704 C 140.557 138.665,143.994 135.262,144.869 133.747 C 145.192 133.186,146.041 129.760,146.755 126.133 L 148.053 119.539 207.022 60.551 C 254.482 13.075,265.613 1.563,264.050 1.565 C 262.523 1.568,249.945 13.732,205.078 58.595 L 148.047 115.622 147.068 110.808 C 146.530 108.161,146.178 105.892,146.287 105.768 C 146.395 105.644,169.857 82.146,198.424 53.552 C 240.110 11.826,249.983 1.563,248.438 1.563 C 246.933 1.563,235.556 12.514,196.296 51.758 C 168.678 79.365,145.820 102.037,145.501 102.140 C 144.983 102.307,141.995 96.561,141.854 95.126 C 141.822 94.808,162.708 73.627,188.266 48.056 C 227.345 8.956,234.406 1.562,232.667 1.562 C 231.530 1.562,230.470 1.826,230.312 2.148 C 230.153 2.471,209.761 22.921,184.995 47.593 L 139.965 92.452 137.756 89.826 C 136.541 88.382,135.547 86.745,135.547 86.188 C 135.547 85.631,154.348 66.363,177.327 43.369 C 210.882 9.793,218.729 1.563,217.188 1.563 C 215.696 1.563,206.184 10.642,174.423 42.383 C 128.188 88.589,133.091 84.371,129.030 81.429 L 125.915 79.173 164.519 40.563 C 195.574 9.503,202.797 1.902,201.453 1.689 C 200.144 1.482,191.626 9.571,161.963 39.189 C 141.162 59.959,124.017 77.067,123.863 77.206 C 123.344 77.675,115.616 74.637,115.817 74.043 C 115.926 73.720,132.179 57.280,151.933 37.509 C 180.958 8.461,187.480 1.563,185.918 1.567 C 184.412 1.570,176.032 9.523,148.047 37.504 L 112.109 73.436 107.031 72.940 C 104.238 72.666,101.881 72.389,101.793 72.324 C 101.705 72.259,117.436 56.399,136.752 37.079 C 165.014 8.811,171.545 1.902,170.203 1.689 C 168.898 1.483,160.835 9.114,133.058 36.846 C 113.545 56.327,97.456 72.377,97.305 72.513 C 97.154 72.649,94.748 73.238,91.958 73.822 C 89.167 74.406,85.353 75.656,83.481 76.600 C 81.610 77.545,80.254 78.115,80.469 77.868 C 80.684 77.621,97.902 60.352,118.731 39.491 C 149.326 8.851,156.232 1.563,154.669 1.567 C 153.161 1.570,144.473 9.830,115.248 39.048 L 77.762 76.525 74.833 73.665 C 73.222 72.092,71.985 70.711,72.085 70.597 C 72.184 70.483,87.725 54.903,106.620 35.976 C 135.612 6.934,140.653 1.563,138.912 1.563 C 137.777 1.563,136.720 1.826,136.562 2.148 C 136.404 2.471,121.312 17.620,103.024 35.813 L 69.773 68.892 66.751 66.123 C 65.089 64.600,63.892 63.180,64.091 62.966 C 64.290 62.753,78.154 48.850,94.899 32.070 C 120.635 6.282,125.026 1.563,123.284 1.563 C 122.151 1.563,121.095 1.826,120.937 2.148 C 120.779 2.471,107.399 15.907,91.204 32.008 L 61.758 61.282 58.993 58.602 C 55.466 55.184,52.738 58.621,83.177 28.137 C 104.540 6.743,109.342 1.562,107.813 1.562 C 106.361 1.562,99.872 7.594,80.288 27.148 C 52.107 55.285,53.901 53.715,52.146 51.775 C 48.821 48.101,51.930 43.816,73.898 21.790 C 90.160 5.485,93.708 1.563,92.191 1.563 C 90.781 1.563,85.843 6.016,72.481 19.336 C 62.675 29.111,54.356 37.211,53.995 37.334 C 53.430 37.528,52.580 34.041,52.095 29.542 C 52.012 28.770,57.434 22.702,65.183 14.893 C 76.082 3.912,78.079 1.565,76.512 1.575 C 75.108 1.584,71.436 4.754,62.510 13.662 L 50.410 25.736 47.459 22.854 L 44.507 19.972 52.918 11.383 C 57.543 6.659,61.680 2.523,62.109 2.190 C 62.539 1.858,61.953 1.581,60.807 1.574 C 59.661 1.568,58.597 1.826,58.441 2.148 C 58.286 2.471,54.635 6.173,50.329 10.376 L 42.500 18.018 38.463 16.236 L 34.426 14.453 40.761 8.008 C 46.187 2.487,46.828 1.566,45.227 1.585 C 43.957 1.601,41.384 3.570,37.191 7.736 C 31.190 13.697,30.898 13.877,26.453 14.341 C 23.940 14.604,20.564 15.366,18.950 16.036 C 16.347 17.115,25.883 6.028,30.859 2.189 C 31.289 1.858,30.762 1.583,29.688 1.580 C 28.197 1.574,24.632 4.681,14.648 14.684 M366.993 20.639 C 367.273 20.919,362.598 26.062,356.604 32.068 L 345.706 42.987 345.044 40.439 C 343.449 34.304,351.695 21.459,358.148 20.025 C 360.247 19.559,366.335 19.981,366.993 20.639 M373.590 24.756 C 376.709 27.744,376.920 27.398,364.221 40.077 L 352.660 51.618 349.740 48.698 L 346.819 45.778 358.361 34.217 C 371.106 21.450,370.520 21.814,373.590 24.756 M378.851 37.010 C 378.934 42.751,368.164 53.912,362.557 53.896 C 354.251 53.871,354.202 54.023,366.517 41.686 C 378.690 29.491,378.743 29.471,378.851 37.010 M28.906 31.472 C 28.906 31.594,26.935 33.616,24.526 35.964 C 20.094 40.284,18.793 39.069,22.941 34.485 C 24.747 32.490,28.906 30.389,28.906 31.472 M33.538 33.564 C 37.575 35.725,37.264 38.891,32.550 43.605 L 28.137 48.018 25.306 46.494 C 23.749 45.655,22.292 44.490,22.067 43.904 C 21.740 43.051,30.784 32.813,31.865 32.813 C 32.013 32.813,32.766 33.151,33.538 33.564 M303.086 69.960 L 277.920 95.136 274.483 92.713 L 271.046 90.290 298.999 62.322 L 326.953 34.354 327.603 39.569 L 328.253 44.785 303.086 69.960 M310.057 78.615 L 287.230 101.452 283.759 99.063 L 280.287 96.675 304.731 72.223 L 329.174 47.770 331.029 51.774 L 332.884 55.778 310.057 78.615 M318.620 85.677 C 306.500 97.803,296.209 107.516,295.752 107.262 C 295.296 107.009,293.741 105.926,292.297 104.858 L 289.673 102.915 312.200 80.378 L 334.728 57.840 337.693 60.735 L 340.657 63.630 318.620 85.677 M343.484 66.992 C 343.280 67.744,342.530 70.846,341.819 73.885 L 340.525 79.410 323.123 96.799 L 305.722 114.187 302.686 112.127 C 301.016 110.994,299.481 109.898,299.274 109.691 C 298.818 109.235,342.300 65.625,343.211 65.625 C 343.566 65.625,343.688 66.240,343.484 66.992 M250.142 72.339 L 252.550 73.584 246.783 79.399 L 241.016 85.213 239.648 83.536 C 234.618 77.363,242.857 68.572,250.142 72.339 M361.342 74.204 C 357.813 77.819,357.708 77.811,358.329 73.982 C 358.768 71.278,358.976 71.094,361.589 71.094 L 364.380 71.094 361.342 74.204 M254.688 78.639 C 254.688 82.910,250.054 87.500,245.742 87.500 C 242.911 87.500,243.167 86.958,248.573 81.504 C 253.239 76.796,254.688 76.117,254.688 78.639 M193.771 116.744 L 164.948 145.597 161.733 144.147 C 159.965 143.350,158.314 142.366,158.064 141.962 C 157.814 141.557,171.981 126.849,189.547 109.276 L 221.484 77.325 222.040 82.608 L 222.595 87.891 193.771 116.744 M337.522 92.692 C 335.567 100.944,328.583 109.171,320.313 112.962 C 317.949 114.046,315.137 115.772,314.063 116.798 C 312.122 118.652,312.096 118.654,310.156 117.173 L 308.203 115.682 323.401 100.448 C 331.760 92.069,338.725 85.340,338.880 85.494 C 339.034 85.648,338.423 88.887,337.522 92.692 M109.155 90.473 C 109.794 90.878,104.342 96.839,92.588 108.584 C 81.146 120.017,74.942 125.697,74.702 124.959 C 74.501 124.337,74.106 122.121,73.826 120.035 L 73.317 116.241 86.433 103.042 L 99.549 89.844 103.876 89.856 C 106.256 89.862,108.632 90.140,109.155 90.473 M94.531 90.832 C 94.531 90.946,90.109 95.428,84.703 100.793 C 75.842 109.587,75.000 110.239,76.146 107.422 C 78.962 100.495,83.897 95.413,91.016 92.109 C 94.306 90.582,94.531 90.501,94.531 90.832 M226.405 93.416 C 227.393 94.940,228.010 96.787,227.778 97.519 C 227.003 99.960,180.135 146.094,178.430 146.094 C 177.556 146.094,175.190 146.656,173.172 147.344 C 164.477 150.307,165.653 148.808,195.348 119.105 C 211.008 103.441,223.998 90.629,224.215 90.635 C 224.432 90.640,225.417 91.891,226.405 93.416 M117.276 93.894 C 118.946 94.832,120.313 95.802,120.313 96.048 C 120.313 97.278,80.540 136.074,79.769 135.597 C 79.286 135.299,78.214 133.759,77.387 132.176 L 75.882 129.297 94.380 110.742 C 104.554 100.537,113.185 92.188,113.559 92.188 C 113.934 92.188,115.607 92.955,117.276 93.894 M125.351 101.050 C 126.447 102.487,127.344 103.979,127.344 104.365 C 127.344 105.356,89.642 142.969,88.648 142.969 C 88.199 142.969,86.614 141.936,85.127 140.674 L 82.422 138.379 102.338 118.408 C 124.609 96.076,122.672 97.537,125.351 101.050 M253.906 103.335 C 253.906 103.450,250.406 107.032,246.127 111.295 L 238.348 119.045 240.268 112.067 C 241.324 108.229,242.188 104.845,242.188 104.547 C 242.188 104.249,243.333 104.190,244.732 104.417 C 246.132 104.645,248.505 104.478,250.006 104.048 C 253.025 103.182,253.906 103.021,253.906 103.335 M260.403 104.023 C 266.453 107.205,267.258 105.804,248.756 124.285 L 232.006 141.016 233.248 136.719 C 233.932 134.355,234.998 130.664,235.619 128.516 C 236.572 125.213,256.425 103.125,258.439 103.125 C 258.581 103.125,259.464 103.529,260.403 104.023 M223.259 112.695 L 220.974 120.703 210.029 131.717 L 199.085 142.732 192.498 143.455 L 185.910 144.179 205.645 124.433 C 216.499 113.573,225.416 104.688,225.462 104.688 C 225.507 104.688,224.516 108.291,223.259 112.695 M333.862 108.589 C 331.354 110.912,329.380 110.253,331.641 107.848 C 333.529 105.838,334.037 105.609,334.253 106.666 C 334.401 107.388,334.225 108.253,333.862 108.589 M130.371 112.292 L 131.271 116.771 116.082 131.960 L 100.893 147.149 96.540 146.175 C 94.146 145.639,92.188 144.965,92.188 144.677 C 92.188 144.017,128.329 107.813,128.987 107.813 C 129.254 107.813,129.877 109.828,130.371 112.292 M271.109 111.338 C 275.243 113.947,276.330 112.359,257.617 131.037 L 241.016 147.608 237.500 146.780 C 235.566 146.325,233.475 145.793,232.854 145.598 C 231.966 145.319,266.626 109.375,267.783 109.375 C 267.902 109.375,269.399 110.258,271.109 111.338 M280.664 117.863 C 284.535 120.271,285.604 118.709,268.130 136.167 L 252.665 151.617 249.965 150.533 C 248.481 149.937,246.581 149.206,245.745 148.909 C 244.462 148.453,246.787 145.802,260.583 131.995 C 269.581 122.990,277.121 115.716,277.339 115.831 C 277.556 115.946,279.053 116.861,280.664 117.863 M130.099 124.805 C 128.350 134.243,118.041 144.079,107.422 146.443 C 105.479 146.876,107.217 144.817,117.569 134.420 C 131.683 120.245,130.822 120.905,130.099 124.805 M290.234 124.557 C 291.523 125.442,292.738 126.269,292.932 126.393 C 293.127 126.518,286.481 133.432,278.164 141.758 L 263.040 156.896 259.278 154.815 L 255.516 152.734 270.872 137.348 C 279.317 128.886,286.601 122.183,287.059 122.454 C 287.516 122.725,288.945 123.671,290.234 124.557 M339.063 127.160 C 339.063 129.266,318.887 147.757,318.370 146.126 C 317.215 142.488,319.907 134.896,323.557 131.494 C 327.347 127.961,339.063 124.686,339.063 127.160 M216.638 135.474 L 214.572 143.129 211.778 142.667 C 210.242 142.413,207.761 142.201,206.265 142.196 L 203.546 142.188 210.913 134.791 C 219.651 126.016,219.205 125.963,216.638 135.474 M287.216 148.326 L 272.017 163.525 268.753 160.940 L 265.489 158.354 280.538 143.290 L 295.588 128.226 299.001 130.677 L 302.414 133.128 287.216 148.326 M346.680 131.217 C 349.138 133.533,349.638 132.805,336.744 145.678 L 325.051 157.351 323.086 155.505 C 319.106 151.767,319.260 151.464,331.304 139.399 C 343.147 127.535,342.908 127.662,346.680 131.217 M352.309 142.955 C 352.355 146.523,338.554 160.938,335.092 160.938 C 332.748 160.938,328.125 159.468,328.125 158.722 C 328.125 158.448,333.135 153.200,339.258 147.060 L 350.391 135.898 351.332 138.066 C 351.850 139.259,352.289 141.459,352.309 142.955 M300.509 144.813 L 300.628 150.562 287.730 163.367 C 280.636 170.410,275.222 175.404,275.697 174.465 C 276.848 172.196,276.773 169.574,275.488 167.188 C 274.464 165.285,274.773 164.896,287.405 152.148 C 294.538 144.951,300.377 139.063,300.382 139.063 C 300.387 139.064,300.444 141.651,300.509 144.813 M105.684 189.229 L 69.986 224.942 67.924 221.260 L 65.862 217.578 94.845 188.415 C 110.786 172.375,125.762 157.916,128.125 156.284 C 130.488 154.651,133.079 152.583,133.883 151.688 L 135.343 150.061 138.363 151.788 L 141.382 153.516 105.684 189.229 M348.714 154.146 C 347.966 155.137,346.455 156.597,345.357 157.391 C 344.180 158.242,344.627 157.502,346.448 155.589 C 349.881 151.981,350.777 151.410,348.714 154.146 M303.512 158.446 L 304.968 161.814 290.179 176.618 C 280.161 186.648,275.013 191.276,274.219 190.968 C 273.574 190.719,271.345 190.310,269.264 190.062 L 265.482 189.609 283.304 171.774 C 293.106 161.965,301.336 154.195,301.591 154.509 C 301.847 154.822,302.711 156.594,303.512 158.446 M147.772 157.271 L 150.621 159.024 146.209 162.521 C 143.782 164.444,141.190 167.248,140.449 168.751 C 139.708 170.254,123.887 186.682,105.293 205.256 L 71.484 239.028 71.268 233.405 L 71.053 227.782 107.203 191.625 C 127.085 171.739,143.706 155.480,144.137 155.493 C 144.569 155.507,146.204 156.306,147.772 157.271 M202.669 170.371 L 191.674 181.366 186.829 180.366 L 181.985 179.365 191.958 169.370 L 201.931 159.375 207.798 159.375 L 213.665 159.375 202.669 170.371 M188.178 169.235 L 179.099 178.315 175.096 176.985 C 170.059 175.312,169.967 175.687,177.148 168.582 C 183.237 162.557,184.566 161.858,192.188 160.673 C 197.372 159.866,197.218 160.195,188.178 169.235 M224.485 160.669 L 227.486 161.165 217.074 171.598 L 206.662 182.031 200.803 182.031 L 194.943 182.031 205.859 171.094 C 217.588 159.342,217.330 159.487,224.485 160.669 M90.886 188.408 L 64.198 215.096 61.904 213.167 L 59.611 211.237 61.794 207.424 C 65.909 200.240,102.978 164.065,106.244 164.047 C 107.751 164.039,110.742 163.543,112.891 162.945 C 115.039 162.348,116.972 161.827,117.186 161.789 C 117.400 161.750,105.565 173.729,90.886 188.408 M237.329 163.617 L 239.892 164.492 231.004 173.262 L 222.115 182.031 216.342 182.031 L 210.569 182.031 220.678 171.900 C 231.626 160.928,230.739 161.369,237.329 163.617 M95.910 163.888 L 99.241 164.453 84.713 178.906 L 70.184 193.359 73.867 187.109 C 75.893 183.672,79.309 177.871,81.458 174.219 C 87.340 164.223,88.841 162.417,90.863 162.908 C 91.806 163.137,94.077 163.578,95.910 163.888 M172.694 169.103 C 169.946 171.875,167.319 173.922,166.857 173.652 C 162.523 171.117,162.314 170.869,163.806 170.025 C 165.525 169.052,176.799 164.086,177.321 164.072 C 177.524 164.067,175.441 166.331,172.694 169.103 M300.123 182.293 L 287.712 194.704 283.181 193.387 L 278.650 192.069 292.625 178.078 L 306.600 164.087 309.567 166.984 L 312.534 169.882 300.123 182.293 M247.602 167.230 L 251.064 168.800 247.213 172.710 C 243.310 176.672,239.014 178.594,230.859 180.026 L 227.734 180.574 235.141 173.100 C 243.368 164.797,242.814 165.058,247.602 167.230 M318.341 173.940 L 322.035 176.005 311.145 186.895 L 300.255 197.785 296.807 196.901 C 294.911 196.415,292.852 195.843,292.231 195.631 C 291.392 195.344,313.432 171.875,314.540 171.875 C 314.599 171.875,316.309 172.804,318.341 173.940 M103.250 222.920 L 67.363 258.807 66.070 256.834 C 63.143 252.366,66.942 247.743,104.602 209.953 L 138.672 175.765 138.905 181.399 L 139.137 187.032 103.250 222.920 M324.072 189.626 C 311.873 201.877,312.288 201.663,305.628 199.131 C 303.648 198.378,303.812 198.162,314.334 187.619 L 325.059 176.874 330.156 177.636 L 335.254 178.398 324.072 189.626 M258.196 192.990 C 241.398 209.819,240.752 210.257,229.965 212.144 C 225.203 212.977,244.898 193.254,250.978 191.101 C 256.309 189.214,266.053 183.584,269.964 180.131 C 276.485 174.374,273.251 177.907,258.196 192.990 M57.181 180.664 C 56.335 182.061,52.814 187.956,49.358 193.764 L 43.075 204.325 37.748 205.198 C 34.819 205.679,31.719 206.334,30.859 206.655 C 30.000 206.976,35.797 200.688,43.742 192.682 C 59.245 177.059,59.513 176.820,57.181 180.664 M161.630 190.054 L 165.648 191.828 161.416 196.007 C 156.442 200.919,155.469 200.696,155.469 194.641 C 155.469 188.109,156.121 187.623,161.630 190.054 M107.167 234.628 L 75.197 266.598 72.397 263.572 L 69.597 260.547 104.134 225.968 L 138.672 191.390 138.905 197.024 L 139.137 202.657 107.167 234.628 M173.225 194.226 L 177.550 195.483 172.134 200.899 L 166.719 206.315 162.979 204.225 L 159.240 202.135 163.775 197.552 C 166.270 195.031,168.443 192.969,168.605 192.969 C 168.767 192.969,170.846 193.535,173.225 194.226 M231.438 204.102 L 221.869 213.672 215.634 214.063 L 209.398 214.453 217.669 206.157 L 225.941 197.861 233.088 196.299 C 237.018 195.440,240.408 194.690,240.621 194.634 C 240.834 194.577,236.702 198.838,231.438 204.102 M187.326 197.482 L 190.667 198.047 184.422 204.252 L 178.177 210.458 173.751 209.063 L 169.324 207.667 175.049 201.904 C 179.381 197.543,181.164 196.235,182.379 196.529 C 183.262 196.743,185.488 197.172,187.326 197.482 M257.181 200.759 C 251.192 205.741,249.496 205.797,254.297 200.854 C 257.923 197.121,259.049 196.341,259.270 197.406 C 259.440 198.225,258.593 199.585,257.181 200.759 M201.390 199.081 L 204.733 199.609 197.865 206.439 L 190.997 213.269 186.043 212.396 L 181.088 211.523 187.597 204.980 C 194.497 198.045,194.586 198.007,201.390 199.081 M213.277 206.510 L 205.078 214.582 199.782 214.127 L 194.485 213.672 201.735 206.489 C 209.464 198.832,209.207 198.954,218.355 198.569 L 221.475 198.438 213.277 206.510 M110.981 246.438 L 82.824 274.595 79.897 271.668 L 76.970 268.741 107.821 237.877 L 138.672 207.014 138.905 212.648 L 139.137 218.282 110.981 246.438 M282.617 210.921 C 286.664 211.967,286.824 211.281,281.250 216.797 L 276.563 221.435 276.563 215.353 C 276.563 209.929,276.711 209.313,277.930 209.666 C 278.682 209.885,280.791 210.449,282.617 210.921 M296.724 214.635 C 298.272 215.208,297.430 216.260,287.495 226.177 L 276.563 237.088 276.563 231.256 L 276.563 225.423 282.891 219.062 C 289.741 212.175,289.920 212.118,296.724 214.635 M360.416 213.479 C 361.620 214.360,361.208 215.002,356.347 219.825 C 351.259 224.875,350.888 225.097,350.079 223.585 C 346.861 217.572,355.056 209.561,360.416 213.479 M294.019 235.282 L 276.953 252.367 276.721 246.737 L 276.488 241.107 289.105 228.473 L 301.721 215.839 306.403 217.019 L 311.085 218.198 294.019 235.282 M364.887 218.472 C 366.997 224.024,360.646 230.242,355.041 228.111 L 352.844 227.276 358.237 221.841 C 364.488 215.542,363.888 215.846,364.887 218.472 M319.729 220.525 L 323.443 221.488 300.003 244.919 L 276.563 268.350 276.563 262.501 L 276.563 256.653 295.111 238.092 C 305.313 227.884,314.190 219.538,314.838 219.546 C 315.486 219.555,317.687 219.995,319.729 220.525 M160.526 222.031 C 164.873 224.143,164.890 223.854,160.156 228.516 L 156.250 232.363 156.250 226.338 C 156.250 223.024,156.416 220.313,156.620 220.313 C 156.823 220.313,158.581 221.086,160.526 222.031 M260.156 221.325 C 260.156 221.882,255.322 227.100,249.414 232.921 L 238.672 243.504 232.173 244.876 C 223.704 246.664,223.591 247.067,234.597 236.225 C 243.376 227.577,244.610 226.647,250.000 224.618 C 253.223 223.404,256.553 221.939,257.400 221.362 C 259.338 220.042,260.156 220.032,260.156 221.325 M35.529 228.154 C 30.244 233.478,29.258 234.182,29.039 232.779 C 28.640 230.221,32.300 225.417,36.069 223.551 C 42.038 220.597,41.905 221.729,35.529 228.154 M47.903 223.538 C 53.134 226.240,53.195 226.076,43.209 236.088 C 32.655 246.670,33.471 246.274,30.736 242.141 L 28.637 238.969 36.765 230.813 C 45.435 222.113,45.307 222.197,47.903 223.538 M114.704 258.343 L 90.272 282.785 87.307 279.889 L 84.342 276.994 111.507 249.816 L 138.672 222.638 138.905 228.269 L 139.137 233.901 114.704 258.343 M331.628 223.599 C 334.028 226.584,334.600 225.955,278.684 281.731 L 224.609 335.670 219.574 334.934 L 214.539 334.198 243.402 305.702 C 259.277 290.029,272.833 276.622,273.527 275.908 C 313.869 234.388,326.219 222.559,328.808 222.961 C 330.257 223.187,331.526 223.474,331.628 223.599 M172.852 226.807 C 176.576 227.973,176.664 227.686,170.792 233.506 L 165.802 238.451 162.136 236.303 L 158.470 234.154 163.013 229.564 C 165.964 226.582,167.970 225.134,168.738 225.431 C 169.389 225.683,171.240 226.302,172.852 226.807 M258.455 233.727 C 257.457 234.494,254.180 236.404,251.172 237.969 L 245.703 240.815 252.734 233.663 L 259.766 226.511 260.017 229.421 C 260.216 231.721,259.888 232.623,258.455 233.727 M185.382 229.958 L 189.123 230.859 182.999 236.936 L 176.875 243.012 172.762 241.303 L 168.649 239.594 173.952 234.250 C 179.584 228.575,179.607 228.566,185.382 229.958 M228.902 237.885 L 219.922 246.864 213.672 247.352 L 207.422 247.840 215.609 239.547 C 222.160 232.912,224.347 231.166,226.547 230.814 C 228.059 230.573,230.527 230.081,232.031 229.721 C 238.246 228.236,238.055 228.734,228.902 237.885 M54.676 235.000 C 54.701 242.196,48.395 248.460,41.160 248.426 C 35.463 248.398,35.820 247.430,44.888 238.324 C 54.003 229.171,54.654 228.950,54.676 235.000 M201.000 231.928 C 203.150 232.417,203.102 232.492,196.313 239.227 L 189.453 246.032 185.938 245.261 C 184.004 244.837,181.917 244.309,181.300 244.088 C 180.525 243.811,182.092 241.761,186.359 237.469 C 192.960 230.829,194.161 230.374,201.000 231.928 M211.714 239.402 L 203.516 247.554 198.174 247.102 L 192.833 246.650 200.081 239.372 L 207.329 232.094 212.844 231.827 C 215.878 231.680,218.709 231.491,219.136 231.405 C 219.563 231.320,216.223 234.918,211.714 239.402 M336.209 234.522 L 338.433 237.734 288.553 287.639 L 238.672 337.544 234.375 337.034 C 232.012 336.753,229.774 336.346,229.401 336.128 C 228.784 335.768,332.684 231.211,333.592 231.280 C 333.808 231.296,334.985 232.755,336.209 234.522 M123.670 264.993 C 108.757 279.903,108.041 280.499,103.687 281.631 C 101.203 282.277,97.741 283.534,95.994 284.426 C 89.795 287.588,92.130 284.833,115.269 261.679 L 138.672 238.262 138.905 243.896 L 139.137 249.530 123.670 264.993 M341.801 240.632 C 342.069 241.066,343.492 242.038,344.963 242.793 L 347.637 244.165 300.082 291.714 L 252.528 339.264 247.240 338.698 L 241.951 338.132 291.090 288.988 C 318.117 261.959,340.474 239.844,340.772 239.844 C 341.070 239.844,341.533 240.199,341.801 240.632 M332.086 275.336 C 303.491 303.938,301.846 305.440,297.324 307.075 C 283.978 311.901,273.780 322.018,268.804 335.369 L 266.700 341.016 263.233 340.819 C 254.715 340.337,251.571 344.138,303.176 292.528 L 350.386 245.313 356.244 245.313 L 362.102 245.313 332.086 275.336 M163.243 256.283 C 163.264 256.515,161.699 258.259,159.766 260.156 L 156.250 263.607 156.250 258.006 L 156.250 252.405 159.727 254.132 C 161.639 255.082,163.222 256.050,163.243 256.283 M248.935 264.737 C 236.416 277.277,237.237 276.778,226.172 278.571 L 223.047 279.078 232.345 269.681 C 241.412 260.520,241.812 260.224,248.361 257.850 C 252.055 256.511,255.957 254.912,257.031 254.298 C 261.457 251.765,259.969 253.684,248.935 264.737 M130.891 273.406 L 122.646 281.677 117.550 280.909 L 112.454 280.141 125.563 267.010 L 138.672 253.879 138.904 259.507 L 139.137 265.134 130.891 273.406 M170.174 265.374 C 164.954 270.641,164.725 270.696,160.374 267.731 L 157.857 266.016 162.192 261.636 L 166.526 257.255 170.809 258.833 L 175.093 260.411 170.174 265.374 M259.845 264.527 C 259.354 265.806,252.777 269.992,247.266 272.533 L 243.359 274.334 251.563 266.050 L 259.766 257.766 260.013 260.606 C 260.149 262.168,260.074 263.932,259.845 264.527 M183.884 262.135 C 188.498 262.827,188.542 262.676,181.735 269.438 C 175.535 275.596,175.424 275.629,170.015 272.875 L 167.765 271.729 173.131 266.321 C 176.083 263.347,178.896 261.066,179.383 261.253 C 179.870 261.440,181.896 261.837,183.884 262.135 M227.340 270.636 L 218.359 279.553 212.695 279.841 C 205.676 280.198,205.537 280.756,214.761 271.567 C 222.858 263.500,224.933 262.489,234.761 261.824 C 235.822 261.752,233.450 264.569,227.340 270.636 M198.823 264.052 L 202.724 264.063 195.571 271.215 L 188.419 278.368 183.603 277.346 L 178.788 276.324 185.292 269.770 C 190.240 264.786,192.171 263.316,193.359 263.629 C 194.219 263.856,196.677 264.046,198.823 264.052 M210.547 271.875 L 202.764 279.688 198.843 279.633 C 191.459 279.529,191.466 279.198,199.019 271.712 C 206.296 264.499,206.127 264.578,215.220 264.194 L 218.330 264.063 210.547 271.875 M141.605 275.536 C 142.911 276.840,142.754 277.128,138.248 281.674 L 133.521 286.444 129.598 284.502 L 125.675 282.561 132.166 276.036 L 138.657 269.511 139.446 271.840 C 139.880 273.121,140.851 274.784,141.605 275.536 M149.069 281.908 L 151.655 283.849 146.860 288.687 L 142.065 293.525 138.978 290.754 L 135.891 287.983 140.345 283.482 C 142.795 281.006,145.179 279.202,145.642 279.474 C 146.105 279.745,147.648 280.841,149.069 281.908 M155.400 295.772 C 147.743 303.469,148.589 303.179,145.924 299.018 L 143.801 295.703 148.978 290.480 L 154.156 285.256 158.047 287.228 L 161.938 289.200 155.400 295.772 M234.370 310.570 L 211.328 333.639 207.031 333.137 C 204.668 332.861,202.478 332.401,202.165 332.115 C 201.852 331.829,209.965 323.232,220.194 313.009 L 238.792 294.423 245.634 292.124 C 249.396 290.859,253.412 289.316,254.558 288.694 C 255.703 288.072,256.814 287.548,257.026 287.531 C 257.238 287.514,247.043 297.881,234.370 310.570 M169.623 291.981 L 173.440 293.336 162.710 304.087 L 151.980 314.838 150.729 310.349 L 149.477 305.859 156.951 298.242 C 161.061 294.053,164.735 290.625,165.115 290.625 C 165.495 290.625,167.524 291.235,169.623 291.981 M182.094 295.399 L 186.140 296.267 171.398 311.024 C 158.324 324.111,156.370 325.781,154.124 325.781 L 151.592 325.781 152.059 322.070 C 152.526 318.359,174.192 294.531,177.101 294.531 C 177.622 294.531,179.869 294.922,182.094 295.399 M215.694 313.603 C 195.511 333.800,197.593 332.444,189.629 330.578 C 185.786 329.677,219.362 296.913,224.260 296.783 C 226.171 296.732,228.789 296.422,230.078 296.094 C 231.367 295.766,232.771 295.456,233.197 295.405 C 233.623 295.354,225.747 303.543,215.694 313.603 M195.969 297.390 L 200.141 297.891 185.032 313.023 C 172.067 326.007,169.645 328.105,167.969 327.802 C 166.895 327.608,164.640 327.223,162.958 326.946 L 159.900 326.444 174.669 311.659 C 182.792 303.528,189.969 296.878,190.617 296.882 C 191.266 296.886,193.674 297.114,195.969 297.390 M119.725 298.307 C 120.821 298.741,118.258 301.677,106.751 313.171 C 96.808 323.103,92.277 327.142,91.972 326.347 C 91.730 325.716,91.286 323.558,90.985 321.551 L 90.438 317.902 100.454 307.779 L 110.470 297.656 114.415 297.711 C 116.584 297.741,118.974 298.009,119.725 298.307 M199.993 313.710 L 183.984 329.764 179.297 329.247 C 176.719 328.963,174.450 328.581,174.255 328.399 C 174.060 328.217,180.736 321.225,189.091 312.862 L 204.282 297.656 210.142 297.656 L 216.001 297.656 199.993 313.710 M99.219 305.078 C 96.018 308.301,93.302 310.938,93.184 310.938 C 91.500 310.938,98.421 302.808,101.922 300.673 C 105.693 298.373,105.393 298.862,99.219 305.078 M128.343 303.282 L 130.515 305.078 114.587 320.975 L 98.660 336.872 96.209 334.257 C 92.824 330.645,92.117 331.727,108.734 315.094 C 124.783 299.029,123.869 299.580,128.343 303.282 M133.900 310.953 C 134.591 312.681,135.156 314.530,135.156 315.063 C 135.156 315.597,129.232 321.950,121.990 329.182 L 108.825 342.330 104.739 340.573 L 100.653 338.815 116.139 323.314 C 133.620 305.817,132.231 306.783,133.900 310.953 M134.312 327.796 C 131.346 335.847,122.970 342.188,115.301 342.188 C 113.045 342.188,113.545 341.551,124.229 330.838 C 136.635 318.398,137.916 318.012,134.312 327.796 M300.774 337.908 C 284.228 354.477,283.981 354.685,283.727 352.186 C 282.981 344.858,283.849 343.259,294.318 332.670 C 304.788 322.081,306.049 321.332,313.665 321.174 L 317.564 321.094 300.774 337.908 M327.148 324.764 C 327.686 324.986,328.125 325.396,328.125 325.675 C 328.125 326.881,287.655 366.508,287.191 365.757 C 286.910 365.302,286.151 363.430,285.504 361.596 L 284.328 358.263 302.461 340.117 L 320.594 321.972 323.383 323.166 C 324.917 323.823,326.611 324.542,327.148 324.764 M334.393 330.097 L 337.061 332.850 316.388 353.534 C 305.017 364.911,295.379 374.219,294.970 374.219 C 293.939 374.219,289.844 370.205,289.844 369.195 C 289.844 368.366,330.466 327.344,331.287 327.344 C 331.528 327.344,332.925 328.583,334.393 330.097 M294.531 328.369 C 294.531 328.504,293.389 329.646,291.992 330.909 L 289.453 333.203 291.748 330.664 C 293.887 328.297,294.531 327.766,294.531 328.369 M366.028 366.401 C 339.395 393.049,333.593 399.218,335.169 399.217 C 338.007 399.214,399.478 337.714,399.093 335.264 C 398.879 333.903,392.574 339.841,366.028 366.401 M324.200 361.347 C 314.120 371.434,305.416 379.688,304.858 379.688 C 304.300 379.688,302.400 378.951,300.635 378.050 L 297.426 376.413 318.049 355.777 L 338.672 335.141 340.600 339.073 L 342.529 343.006 324.200 361.347 M342.985 354.564 C 342.461 358.646,342.276 358.889,331.477 369.688 L 320.501 380.664 314.938 381.062 C 311.878 381.281,309.375 381.152,309.375 380.776 C 309.375 380.399,316.844 372.617,325.972 363.481 C 344.157 345.281,344.177 345.271,342.985 354.564 M373.845 374.215 C 353.464 394.613,349.218 399.218,350.798 399.216 C 353.620 399.212,399.476 353.323,399.092 350.887 C 398.878 349.528,394.110 353.933,373.845 374.215 M381.664 382.031 C 367.538 396.177,364.842 399.218,366.430 399.214 C 369.220 399.208,399.471 368.915,399.091 366.508 C 398.877 365.153,395.645 368.031,381.664 382.031 M337.625 368.555 C 336.072 370.714,333.312 373.361,329.688 376.166 C 328.613 376.997,330.186 375.141,333.182 372.042 C 339.056 365.966,340.042 365.192,337.625 368.555 M389.496 389.854 C 381.633 397.745,380.464 399.217,382.074 399.210 C 384.773 399.197,399.459 384.447,399.088 382.122 C 398.874 380.779,397.172 382.151,389.496 389.854 M397.461 397.721 C 396.153 399.154,396.162 399.219,397.656 399.219 C 398.698 399.219,399.219 398.698,399.219 397.656 C 399.219 395.804,399.211 395.804,397.461 397.721 " stroke="none" fill="#000000" fill-rule="evenodd"></path></g></svg>