<svg id="svg" version="1.1" xmlns="http://www.w3.org/2000/svg" xmlns:xlink="http://www.w3.org/1999/xlink" width="400" height="400" viewBox="0, 0, 400,400"><g id="svgg"><path id="path0" d="M210.392 82.369 C 211.845 82.471,214.095 82.469,215.392 82.367 C 216.689 82.264,215.500 82.181,212.750 82.183 C 210.000 82.184,208.939 82.268,210.392 82.369 M202.625 82.845 C 203.106 82.970,203.894 82.970,204.375 82.845 C 204.856 82.719,204.463 82.616,203.500 82.616 C 202.537 82.616,202.144 82.719,202.625 82.845 M221.125 82.845 C 221.606 82.970,222.394 82.970,222.875 82.845 C 223.356 82.719,222.963 82.616,222.000 82.616 C 221.037 82.616,220.644 82.719,221.125 82.845 M203.750 83.527 C 197.334 84.153,191.179 85.459,184.817 87.544 C 181.555 88.613,178.651 89.343,178.365 89.167 C 178.079 88.990,177.985 89.071,178.155 89.346 C 178.325 89.621,177.298 90.387,175.874 91.048 C 174.450 91.709,171.396 93.431,169.088 94.875 C 164.610 97.677,164.240 97.849,164.801 96.875 C 165.010 96.512,164.970 96.425,164.705 96.667 C 164.455 96.896,164.247 97.233,164.242 97.417 C 164.228 98.043,163.442 99.000,162.941 99.000 C 162.666 99.000,162.602 98.740,162.798 98.423 C 163.026 98.054,162.934 97.982,162.544 98.223 C 162.208 98.430,162.042 98.709,162.176 98.842 C 162.491 99.158,160.913 101.000,160.328 101.000 C 160.080 101.000,160.182 100.606,160.555 100.125 C 161.127 99.386,161.062 99.395,160.136 100.185 C 159.533 100.699,159.084 101.261,159.139 101.435 C 159.282 101.891,154.375 107.042,154.079 106.746 C 153.611 106.277,152.067 108.094,152.337 108.797 C 152.486 109.184,152.358 109.500,152.053 109.500 C 151.749 109.500,151.500 109.740,151.500 110.033 C 151.500 110.987,148.904 113.999,148.367 113.668 C 148.071 113.485,147.994 113.586,148.189 113.901 C 148.620 114.598,145.567 120.100,144.958 119.724 C 144.712 119.572,144.660 119.834,144.841 120.306 C 145.082 120.934,144.993 121.054,144.508 120.755 C 144.069 120.484,143.965 120.539,144.200 120.919 C 144.394 121.234,143.778 123.462,142.831 125.871 C 141.883 128.279,140.823 131.484,140.476 132.991 C 139.979 135.146,139.762 135.520,139.457 134.741 C 139.144 133.938,139.064 133.910,139.035 134.595 C 139.016 135.061,139.254 135.598,139.564 135.790 C 139.950 136.028,139.871 136.283,139.314 136.594 C 138.866 136.845,138.522 137.545,138.550 138.150 C 138.597 139.188,138.625 139.180,139.043 138.000 C 139.369 137.079,139.422 137.393,139.243 139.195 C 139.109 140.539,138.957 143.689,138.904 146.195 L 138.809 150.750 138.487 146.000 L 138.165 141.250 138.144 146.367 C 138.132 149.181,138.314 151.365,138.547 151.221 C 138.780 151.077,139.077 151.475,139.207 152.105 C 139.338 152.735,139.813 155.008,140.263 157.157 C 140.714 159.306,140.961 161.381,140.812 161.769 C 140.663 162.156,140.845 162.648,141.217 162.862 C 141.588 163.075,142.254 164.121,142.696 165.186 C 143.636 167.449,143.668 167.663,143.006 167.254 C 142.723 167.079,142.638 167.278,142.808 167.721 C 142.971 168.146,143.290 168.380,143.516 168.240 C 143.859 168.028,144.637 169.505,144.725 170.536 C 144.739 170.693,145.144 171.215,145.625 171.696 C 146.106 172.178,146.500 172.796,146.500 173.071 C 146.500 173.346,146.828 173.899,147.229 174.300 C 147.630 174.701,147.816 175.397,147.644 175.846 C 147.444 176.367,147.529 176.541,147.877 176.326 C 148.583 175.889,150.676 178.810,150.204 179.574 C 149.988 179.923,150.063 180.020,150.393 179.816 C 150.942 179.477,153.600 182.367,153.494 183.188 C 153.463 183.429,153.932 183.879,154.537 184.188 C 155.143 184.497,155.590 184.943,155.532 185.179 C 155.474 185.415,156.236 186.158,157.226 186.831 C 158.216 187.503,158.914 188.234,158.778 188.454 C 158.642 188.674,159.141 189.394,159.887 190.052 L 161.243 191.250 160.246 190.039 C 159.616 189.272,159.525 188.979,160.000 189.240 C 161.350 189.982,162.481 191.126,162.244 191.510 C 162.116 191.717,162.402 192.193,162.881 192.568 C 163.667 193.185,163.685 193.167,163.064 192.375 C 162.004 191.024,162.841 191.333,165.275 193.191 L 167.490 194.883 166.025 195.490 C 165.220 195.823,164.287 195.927,163.953 195.721 C 163.538 195.464,163.475 195.555,163.755 196.008 C 164.054 196.493,163.934 196.582,163.306 196.341 C 162.817 196.153,162.574 196.215,162.740 196.484 C 163.105 197.074,160.153 198.654,159.473 198.233 C 159.199 198.064,159.037 198.196,159.113 198.525 C 159.188 198.855,158.937 199.239,158.555 199.377 C 158.077 199.551,157.986 199.415,158.261 198.940 C 158.497 198.533,158.474 198.421,158.205 198.667 C 157.955 198.896,157.745 199.346,157.738 199.667 C 157.731 199.987,157.323 200.216,156.830 200.175 C 156.337 200.134,156.061 200.228,156.218 200.384 C 156.562 200.728,155.031 202.500,154.390 202.500 C 154.140 202.500,153.367 203.175,152.673 204.000 C 151.979 204.825,151.167 205.500,150.868 205.500 C 150.570 205.500,150.866 204.881,151.527 204.125 C 152.188 203.369,151.440 203.980,149.864 205.483 C 147.210 208.016,146.010 209.444,147.750 208.000 C 148.162 207.658,148.500 207.590,148.500 207.849 C 148.500 208.414,145.888 210.778,145.423 210.633 C 145.243 210.578,144.793 210.919,144.423 211.391 C 143.816 212.166,143.836 212.183,144.625 211.564 C 145.993 210.491,145.680 211.195,143.230 214.699 C 140.502 218.602,137.487 224.925,135.995 229.875 C 135.280 232.248,134.704 233.388,134.326 233.176 C 133.908 232.942,133.899 233.016,134.293 233.445 C 134.685 233.871,134.656 234.973,134.190 237.393 C 133.835 239.239,133.366 243.450,133.149 246.750 C 132.801 252.045,132.719 252.427,132.449 250.000 L 132.143 247.250 132.145 250.661 C 132.146 252.536,132.307 253.812,132.503 253.495 C 132.949 252.774,133.521 255.484,133.441 257.938 L 133.382 259.750 133.000 258.250 L 132.618 256.750 132.559 258.100 C 132.527 258.843,132.795 259.630,133.155 259.850 C 133.516 260.070,134.091 261.825,134.434 263.750 C 134.777 265.675,135.832 269.577,136.780 272.421 C 137.727 275.264,138.355 277.830,138.174 278.123 C 137.993 278.415,138.079 278.510,138.365 278.334 C 138.791 278.070,140.223 280.511,140.244 281.536 C 140.247 281.693,140.644 282.215,141.125 282.696 C 142.132 283.703,142.303 284.733,141.375 284.199 C 141.012 283.990,140.925 284.030,141.167 284.295 C 141.396 284.545,141.804 284.750,142.073 284.750 C 142.343 284.750,142.943 285.425,143.407 286.250 C 143.870 287.075,144.419 287.825,144.625 287.917 C 144.831 288.008,145.000 288.303,145.000 288.571 C 145.000 288.839,144.740 288.898,144.423 288.702 C 144.054 288.474,143.982 288.566,144.223 288.956 C 144.430 289.292,144.717 289.450,144.860 289.307 C 145.138 289.028,146.500 290.221,146.500 290.744 C 146.500 290.917,146.240 290.898,145.923 290.702 C 145.554 290.474,145.482 290.566,145.723 290.956 C 145.930 291.292,146.232 291.435,146.392 291.274 C 146.739 290.928,150.000 293.988,150.000 294.659 C 150.000 294.914,149.606 294.825,149.125 294.462 C 148.644 294.100,149.367 294.972,150.731 296.401 C 152.096 297.831,153.316 299.000,153.443 299.000 C 153.570 299.000,153.146 298.438,152.500 297.750 C 151.854 297.063,151.546 296.500,151.815 296.500 C 152.414 296.500,155.494 299.620,155.352 300.083 C 155.296 300.267,155.455 300.604,155.705 300.833 C 155.970 301.075,156.010 300.988,155.801 300.625 C 155.603 300.281,155.652 300.000,155.909 300.000 C 156.520 300.000,157.567 301.266,157.234 301.600 C 157.092 301.742,157.362 302.171,157.834 302.554 C 158.402 303.014,158.565 303.039,158.316 302.625 C 157.768 301.712,158.655 301.862,159.802 302.875 C 160.347 303.356,161.458 304.138,162.271 304.612 C 163.085 305.087,163.696 305.697,163.631 305.969 C 163.566 306.241,163.884 306.321,164.338 306.147 C 164.868 305.944,165.042 306.027,164.824 306.380 C 164.637 306.683,164.712 307.072,164.992 307.245 C 165.271 307.418,165.500 307.318,165.500 307.023 C 165.500 306.363,172.480 309.822,173.405 310.941 C 173.773 311.386,173.932 311.469,173.758 311.125 C 173.583 310.781,173.679 310.500,173.970 310.500 C 174.262 310.500,174.518 310.894,174.539 311.375 C 174.561 311.856,174.684 311.993,174.813 311.679 C 175.135 310.895,180.000 312.458,180.000 313.345 C 180.000 313.705,180.225 314.000,180.500 314.000 C 180.775 314.000,181.000 313.798,181.000 313.552 C 181.000 313.305,182.069 313.386,183.375 313.730 C 184.681 314.075,185.694 314.614,185.625 314.929 C 185.477 315.605,186.341 315.707,186.583 315.043 C 186.823 314.384,192.165 315.518,192.650 316.330 C 192.870 316.698,193.545 316.984,194.150 316.965 C 195.209 316.931,195.213 316.914,194.250 316.500 C 192.903 315.921,194.546 315.830,197.062 316.345 C 198.692 316.678,198.707 316.702,197.500 317.045 C 196.352 317.371,196.385 317.404,197.905 317.450 C 198.891 317.480,199.434 317.298,199.250 317.000 C 198.754 316.197,201.491 316.420,202.321 317.250 C 202.875 317.804,204.230 318.000,207.500 318.000 C 210.770 318.000,212.125 317.804,212.679 317.250 C 213.134 316.794,214.277 316.520,215.589 316.550 C 217.413 316.592,217.555 316.662,216.500 317.000 C 215.321 317.378,215.343 317.403,216.891 317.450 C 217.923 317.482,218.638 317.222,218.819 316.750 C 218.982 316.325,219.727 316.000,220.536 316.000 C 221.322 316.000,224.279 315.551,227.107 315.002 C 233.153 313.828,232.634 313.878,232.250 314.500 C 232.080 314.775,232.179 315.000,232.470 315.000 C 232.762 315.000,233.000 314.663,233.000 314.250 C 233.000 313.837,233.319 313.500,233.709 313.500 C 234.099 313.500,234.811 313.349,235.291 313.165 C 235.886 312.937,236.049 313.016,235.803 313.415 C 235.604 313.737,235.679 314.000,235.970 314.000 C 236.262 314.000,236.500 313.617,236.500 313.150 C 236.500 312.489,236.633 312.433,237.100 312.900 C 237.430 313.230,237.936 313.497,238.225 313.492 C 238.514 313.488,238.447 313.293,238.077 313.058 C 237.583 312.745,237.816 312.488,238.952 312.092 C 239.881 311.768,240.500 311.742,240.500 312.026 C 240.500 312.287,240.725 312.500,241.000 312.500 C 241.275 312.500,241.500 312.208,241.500 311.850 C 241.500 311.493,242.344 310.899,243.375 310.530 C 244.406 310.161,245.568 309.740,245.957 309.594 C 246.443 309.413,246.549 309.552,246.295 310.040 C 246.058 310.495,246.163 310.467,246.588 309.961 C 247.662 308.682,256.910 304.500,257.184 305.169 C 257.319 305.499,257.438 305.412,257.461 304.967 C 257.510 303.993,261.285 301.808,262.075 302.296 C 262.410 302.504,262.520 302.437,262.335 302.138 C 262.160 301.854,262.896 301.040,263.972 300.328 C 265.332 299.428,266.003 299.219,266.174 299.642 C 266.323 300.008,266.437 299.924,266.461 299.433 C 266.482 298.983,267.055 298.252,267.732 297.808 C 269.184 296.856,269.698 296.776,269.202 297.577 C 268.974 297.946,269.066 298.018,269.456 297.777 C 269.792 297.570,269.941 297.274,269.788 297.121 C 269.438 296.771,270.460 295.500,271.091 295.500 C 271.348 295.500,271.398 295.760,271.202 296.077 C 270.974 296.446,271.066 296.518,271.456 296.277 C 271.792 296.070,271.939 295.772,271.782 295.616 C 271.439 295.272,272.968 293.500,273.607 293.500 C 273.856 293.500,273.898 293.760,273.702 294.077 C 273.474 294.446,273.566 294.518,273.956 294.277 C 274.292 294.070,274.437 293.770,274.279 293.612 C 273.924 293.258,275.987 291.000,276.665 291.000 C 276.934 291.000,276.726 291.506,276.202 292.125 L 275.250 293.250 276.363 292.308 C 276.975 291.790,277.379 291.208,277.259 291.014 C 276.917 290.462,280.763 286.934,281.237 287.365 C 281.470 287.577,281.517 287.499,281.342 287.192 C 281.023 286.632,282.629 284.796,283.061 285.227 C 283.187 285.354,283.321 285.047,283.359 284.545 C 283.397 284.043,282.544 282.770,281.464 281.715 C 279.377 279.677,278.730 278.195,280.625 279.794 C 281.641 280.651,281.633 280.611,280.540 279.373 C 279.874 278.620,279.213 278.121,279.070 278.263 C 278.744 278.589,274.500 274.461,274.500 273.818 C 274.500 273.558,275.006 273.772,275.625 274.294 C 276.641 275.151,276.633 275.111,275.540 273.873 C 274.874 273.120,274.213 272.621,274.070 272.763 C 273.744 273.089,269.500 268.961,269.500 268.318 C 269.500 268.058,270.006 268.272,270.625 268.794 C 271.641 269.651,271.633 269.611,270.540 268.373 C 269.874 267.620,269.213 267.121,269.070 267.263 C 268.744 267.589,264.500 263.461,264.500 262.818 C 264.500 262.558,265.006 262.772,265.625 263.294 C 266.641 264.151,266.633 264.111,265.540 262.873 C 264.874 262.120,264.213 261.621,264.070 261.763 C 263.927 261.906,262.841 261.071,261.655 259.907 C 260.470 258.744,259.500 258.064,259.500 258.396 C 259.500 258.728,259.262 259.000,258.970 259.000 C 258.679 259.000,258.602 258.740,258.798 258.423 C 259.026 258.054,258.934 257.982,258.544 258.223 C 258.208 258.430,258.063 258.730,258.221 258.888 C 258.571 259.237,256.518 261.500,255.852 261.500 C 255.591 261.500,255.686 261.106,256.064 260.625 C 256.685 259.833,256.667 259.815,255.881 260.432 C 255.402 260.807,255.119 261.287,255.250 261.500 C 255.634 262.122,254.106 263.122,253.397 262.713 C 253.041 262.508,252.917 262.524,253.121 262.749 C 253.325 262.974,253.241 263.460,252.934 263.829 C 252.254 264.648,251.301 264.727,251.798 263.923 C 252.019 263.565,251.935 263.481,251.577 263.702 C 251.260 263.898,251.000 264.357,251.000 264.722 C 251.000 265.087,250.445 265.748,249.768 266.192 C 248.316 267.144,247.802 267.224,248.298 266.423 C 248.521 266.062,248.435 265.981,248.069 266.207 C 247.747 266.406,247.601 266.759,247.745 266.992 C 248.102 267.570,244.647 269.650,243.997 269.248 C 243.710 269.071,243.537 269.212,243.613 269.561 C 243.808 270.463,232.759 275.967,226.799 277.938 C 213.625 282.293,198.832 281.760,187.649 276.526 C 185.878 275.697,184.555 274.815,184.709 274.566 C 184.863 274.317,184.603 274.144,184.132 274.181 C 183.660 274.219,183.269 273.988,183.262 273.667 C 183.255 273.346,183.045 272.896,182.795 272.667 C 182.530 272.425,182.490 272.512,182.699 272.875 C 182.897 273.219,182.848 273.500,182.591 273.500 C 182.002 273.500,180.927 272.239,181.245 271.922 C 181.375 271.791,180.586 270.810,179.491 269.741 C 178.396 268.672,177.500 267.983,177.500 268.210 C 177.500 268.437,177.162 268.342,176.750 268.000 C 175.873 267.272,175.730 266.274,176.577 266.798 C 176.938 267.021,177.019 266.935,176.793 266.569 C 176.594 266.247,176.231 266.107,175.987 266.258 C 175.384 266.631,173.871 263.614,174.307 262.908 C 174.510 262.579,174.431 262.484,174.115 262.679 C 172.390 263.745,170.275 253.187,170.643 245.343 C 171.098 235.657,176.700 222.632,179.679 224.334 C 179.993 224.514,180.081 224.474,179.874 224.246 C 179.460 223.790,180.867 222.000,181.639 222.000 C 181.905 222.000,181.824 222.394,181.460 222.875 C 180.889 223.630,180.897 223.661,181.524 223.100 C 181.923 222.743,182.255 222.180,182.262 221.850 C 182.269 221.520,182.654 221.280,183.117 221.316 C 183.581 221.353,183.943 221.240,183.921 221.066 C 183.802 220.111,184.075 219.843,184.500 220.500 C 184.911 221.136,184.986 221.112,184.992 220.344 C 184.998 219.718,185.968 219.002,188.125 218.032 C 192.493 216.067,193.714 215.721,193.276 216.571 C 193.083 216.945,193.280 216.813,193.713 216.279 C 194.288 215.570,194.504 215.503,194.516 216.029 C 194.528 216.583,194.686 216.547,195.196 215.875 C 195.894 214.955,196.782 214.639,196.250 215.500 C 196.080 215.775,196.179 216.000,196.470 216.000 C 196.762 216.000,197.000 215.689,197.000 215.308 C 197.000 214.529,199.658 213.830,199.917 214.541 C 200.176 215.256,201.000 215.080,201.000 214.310 C 201.000 213.815,202.522 213.393,206.375 212.820 C 213.646 211.739,218.539 211.352,217.250 211.959 C 216.479 212.322,216.824 212.424,218.750 212.406 C 220.836 212.386,221.002 212.323,219.750 212.028 C 218.548 211.744,219.029 211.594,222.166 211.274 C 224.963 210.989,226.406 211.048,227.216 211.482 C 228.392 212.111,230.845 212.034,230.625 211.375 C 230.556 211.169,230.500 203.946,230.500 195.325 L 230.500 179.651 220.625 179.337 C 206.001 178.873,187.105 174.162,188.809 171.405 C 189.024 171.057,188.928 170.986,188.555 171.216 C 187.855 171.649,185.345 170.156,185.729 169.535 C 185.872 169.303,185.598 168.807,185.119 168.432 C 184.333 167.815,184.315 167.833,184.936 168.625 C 186.348 170.425,184.626 169.413,182.356 167.108 C 180.092 164.809,179.313 163.545,180.625 164.301 C 180.988 164.510,181.075 164.470,180.833 164.205 C 180.604 163.955,180.161 163.750,179.849 163.750 C 178.229 163.750,175.115 155.775,174.547 150.167 C 173.831 143.108,176.026 131.433,177.983 131.887 C 178.308 131.963,178.435 131.799,178.264 131.523 C 177.858 130.865,178.920 128.892,179.491 129.244 C 179.733 129.394,180.094 129.253,180.293 128.931 C 180.519 128.565,180.438 128.479,180.077 128.702 C 178.896 129.432,179.556 128.142,181.158 126.589 C 182.070 125.706,183.006 125.155,183.238 125.366 C 183.470 125.577,183.510 125.487,183.325 125.165 C 182.851 124.337,186.094 121.849,186.603 122.650 C 186.950 123.196,187.199 122.786,187.064 121.890 C 187.034 121.692,187.514 121.261,188.130 120.933 C 189.150 120.389,189.188 120.411,188.554 121.180 C 187.947 121.916,187.963 121.983,188.679 121.708 C 189.131 121.535,189.500 121.104,189.500 120.750 C 189.500 120.037,189.757 119.911,194.713 118.197 C 198.537 116.875,199.208 116.759,198.750 117.500 C 198.580 117.775,198.679 118.000,198.970 118.000 C 199.262 118.000,199.500 117.662,199.500 117.250 C 199.500 116.803,199.955 116.503,200.625 116.508 C 201.535 116.514,201.606 116.608,201.000 117.000 C 200.359 117.414,200.377 117.486,201.125 117.492 C 201.606 117.497,202.000 117.162,202.000 116.750 C 202.000 115.901,202.783 115.744,203.250 116.500 C 203.420 116.775,204.164 116.973,204.905 116.941 C 206.243 116.882,206.243 116.880,204.750 116.543 C 203.322 116.221,203.359 116.190,205.500 115.903 C 210.421 115.242,215.857 115.406,216.171 116.226 C 216.357 116.710,217.084 116.997,218.109 116.992 C 219.353 116.987,219.568 116.867,219.000 116.500 C 218.082 115.907,219.508 115.815,221.473 116.341 C 222.606 116.644,222.625 116.696,221.723 117.049 C 220.808 117.407,220.814 117.432,221.833 117.465 C 222.429 117.484,222.992 117.277,223.083 117.005 C 223.318 116.308,226.998 117.380,227.008 118.149 C 227.013 118.593,227.120 118.586,227.416 118.119 C 227.728 117.627,228.178 117.614,229.456 118.060 C 230.690 118.490,230.930 118.747,230.423 119.098 C 229.958 119.421,230.098 119.468,230.875 119.249 C 231.631 119.036,232.003 119.149,232.008 119.591 C 232.014 120.117,232.103 120.112,232.449 119.566 C 232.798 119.014,233.086 119.086,233.941 119.941 C 235.047 121.047,235.782 121.361,235.250 120.500 C 235.080 120.225,235.179 120.000,235.470 120.000 C 235.762 120.000,236.018 120.394,236.039 120.875 C 236.062 121.376,236.185 121.489,236.327 121.138 C 236.501 120.708,237.617 121.050,240.057 122.279 C 241.972 123.243,243.414 124.234,243.261 124.482 C 243.109 124.729,243.212 125.072,243.492 125.245 C 243.771 125.418,244.000 125.307,244.000 125.000 C 244.000 124.693,244.229 124.582,244.508 124.755 C 244.788 124.928,244.896 125.263,244.750 125.500 C 244.604 125.737,244.747 126.094,245.069 126.293 C 245.435 126.519,245.521 126.438,245.298 126.077 C 245.102 125.760,245.152 125.500,245.409 125.500 C 245.955 125.500,246.915 126.561,246.916 127.167 C 246.916 127.396,247.084 127.733,247.288 127.917 C 247.493 128.100,247.498 127.969,247.301 127.625 C 247.103 127.281,247.186 127.000,247.486 127.000 C 247.786 127.000,248.169 127.394,248.338 127.875 C 249.227 130.411,250.611 130.520,252.100 128.172 C 252.876 126.949,253.708 126.070,253.949 126.219 C 254.190 126.367,254.356 126.103,254.319 125.632 C 254.281 125.160,254.513 124.769,254.833 124.762 C 255.154 124.755,255.604 124.545,255.833 124.295 C 256.075 124.030,255.988 123.990,255.625 124.199 C 254.596 124.792,254.895 124.099,257.027 120.960 C 258.142 119.318,259.242 118.090,259.471 118.232 C 259.700 118.373,259.856 118.103,259.819 117.632 C 259.781 117.160,260.013 116.769,260.333 116.762 C 260.654 116.755,261.104 116.545,261.333 116.295 C 261.575 116.030,261.488 115.990,261.125 116.199 C 260.096 116.792,260.395 116.099,262.527 112.960 C 263.642 111.318,264.742 110.090,264.971 110.232 C 265.200 110.373,265.356 110.103,265.319 109.632 C 265.281 109.160,265.513 108.769,265.833 108.762 C 266.154 108.755,266.604 108.545,266.833 108.295 C 267.079 108.026,266.967 108.003,266.560 108.239 C 266.088 108.513,265.943 108.420,266.102 107.945 C 266.229 107.563,266.577 107.250,266.875 107.250 C 267.173 107.250,267.604 107.045,267.833 106.795 C 268.075 106.530,267.988 106.490,267.625 106.699 C 266.712 107.225,266.859 106.603,268.038 104.946 C 268.628 104.118,269.330 103.631,269.663 103.819 C 269.986 104.001,269.515 103.370,268.616 102.417 C 267.718 101.464,267.155 100.494,267.366 100.262 C 267.577 100.030,267.459 100.008,267.103 100.213 C 266.380 100.630,264.869 99.616,265.264 98.978 C 265.403 98.753,265.253 98.406,264.931 98.207 C 264.544 97.968,264.480 98.063,264.742 98.488 C 265.007 98.916,264.908 99.053,264.445 98.898 C 264.063 98.771,263.750 98.423,263.750 98.125 C 263.750 97.827,263.545 97.396,263.295 97.167 C 263.026 96.921,263.003 97.033,263.239 97.440 C 263.513 97.912,263.420 98.057,262.945 97.898 C 262.563 97.771,262.250 97.423,262.250 97.125 C 262.250 96.827,262.045 96.396,261.795 96.167 C 261.526 95.921,261.503 96.033,261.739 96.440 C 262.014 96.915,261.923 97.051,261.445 96.877 C 261.063 96.739,260.812 96.355,260.887 96.025 C 260.963 95.696,260.829 95.547,260.589 95.695 C 260.350 95.843,257.363 94.553,253.952 92.829 C 238.707 85.123,221.002 81.842,203.750 83.527 M175.116 150.000 C 175.116 150.963,175.219 151.356,175.345 150.875 C 175.470 150.394,175.470 149.606,175.345 149.125 C 175.219 148.644,175.116 149.037,175.116 150.000 M212.125 178.345 C 212.606 178.470,213.394 178.470,213.875 178.345 C 214.356 178.219,213.963 178.116,213.000 178.116 C 212.037 178.116,211.644 178.219,212.125 178.345 M220.125 178.869 C 221.706 178.969,224.294 178.969,225.875 178.869 C 227.456 178.770,226.162 178.689,223.000 178.689 C 219.838 178.689,218.544 178.770,220.125 178.869 M231.150 182.000 C 231.150 183.512,231.244 184.131,231.358 183.375 C 231.473 182.619,231.473 181.381,231.358 180.625 C 231.244 179.869,231.150 180.488,231.150 182.000 M211.625 212.845 C 212.106 212.970,212.894 212.970,213.375 212.845 C 213.856 212.719,213.463 212.616,212.500 212.616 C 211.537 212.616,211.144 212.719,211.625 212.845 M171.168 248.000 C 171.168 250.063,171.256 250.906,171.364 249.875 C 171.472 248.844,171.472 247.156,171.364 246.125 C 171.256 245.094,171.168 245.938,171.168 248.000 M179.527 270.346 C 180.842 271.755,180.963 272.013,180.037 271.435 C 178.944 270.752,177.067 268.500,177.591 268.500 C 177.708 268.500,178.579 269.331,179.527 270.346 M214.625 279.845 C 215.106 279.970,215.894 279.970,216.375 279.845 C 216.856 279.719,216.463 279.616,215.500 279.616 C 214.537 279.616,214.144 279.719,214.625 279.845 M211.125 317.353 C 210.506 317.472,209.494 317.472,208.875 317.353 C 208.256 317.234,208.762 317.136,210.000 317.136 C 211.238 317.136,211.744 317.234,211.125 317.353 " stroke="none" fill="#000000" fill-rule="evenodd"></path></g></svg>