<svg id="svg" version="1.1" xmlns="http://www.w3.org/2000/svg" xmlns:xlink="http://www.w3.org/1999/xlink" width="400" height="400" viewBox="0, 0, 400,400"><g id="svgg"><path id="path0" d="M196.958 0.097 C 196.903 0.153,196.091 0.290,195.164 0.402 C 195.025 0.419,194.837 0.475,194.747 0.526 C 194.657 0.578,194.321 0.629,194.000 0.639 C 193.679 0.650,193.004 0.817,192.500 1.011 C 191.996 1.205,191.471 1.367,191.333 1.371 C 191.196 1.375,190.990 1.453,190.875 1.543 C 190.760 1.634,190.667 1.649,190.667 1.578 C 190.667 1.507,190.504 1.591,190.305 1.766 C 190.106 1.940,189.991 2.000,190.051 1.897 C 190.112 1.791,189.909 1.824,189.580 1.973 C 189.261 2.118,189.000 2.293,189.000 2.363 C 189.000 2.433,188.888 2.447,188.751 2.394 C 188.610 2.340,188.459 2.413,188.401 2.565 C 188.344 2.712,188.226 2.787,188.138 2.732 C 188.050 2.678,187.865 2.772,187.727 2.942 C 187.582 3.119,187.521 3.144,187.583 3.000 C 187.643 2.862,187.573 2.896,187.429 3.074 C 187.285 3.251,187.167 3.332,187.167 3.253 C 187.167 3.173,186.967 3.290,186.723 3.513 C 186.479 3.735,186.343 3.808,186.420 3.676 C 186.500 3.538,186.339 3.592,186.046 3.801 C 185.763 4.002,185.445 4.167,185.339 4.167 C 185.234 4.167,185.188 4.233,185.238 4.314 C 185.288 4.395,185.110 4.552,184.843 4.663 C 184.576 4.773,184.221 5.045,184.056 5.265 C 183.890 5.486,183.654 5.667,183.532 5.667 C 183.256 5.667,182.813 6.091,182.948 6.226 C 183.003 6.281,182.936 6.368,182.799 6.421 C 182.663 6.473,174.140 14.931,163.859 25.216 L 145.166 43.917 168.152 66.894 C 184.419 83.155,191.202 89.831,191.358 89.735 C 191.478 89.660,191.691 89.582,191.830 89.561 C 192.149 89.513,192.512 89.412,192.833 89.283 C 193.087 89.181,194.308 88.856,194.916 88.728 C 195.372 88.632,196.636 88.481,197.278 88.445 C 197.569 88.429,197.844 88.379,197.889 88.333 C 197.935 88.287,199.272 88.270,200.861 88.295 C 204.577 88.354,205.333 88.392,205.333 88.525 C 205.333 88.585,205.577 88.639,205.875 88.646 C 206.561 88.662,206.857 88.722,207.151 88.905 C 207.325 89.014,207.349 88.992,207.244 88.817 C 207.132 88.633,207.153 88.623,207.343 88.771 C 207.475 88.874,207.808 88.999,208.083 89.049 C 208.358 89.099,208.921 89.228,209.333 89.335 C 209.746 89.443,210.196 89.556,210.333 89.586 C 210.471 89.616,210.583 89.652,210.583 89.666 C 210.583 89.680,210.767 89.725,210.991 89.766 C 211.216 89.808,211.530 89.959,211.689 90.104 C 211.849 90.248,212.050 90.322,212.137 90.268 C 212.224 90.214,212.385 90.278,212.493 90.409 C 212.602 90.540,212.798 90.606,212.929 90.556 C 213.060 90.505,213.167 90.547,213.167 90.649 C 213.167 90.750,213.307 90.833,213.478 90.833 C 213.648 90.833,213.976 90.981,214.205 91.161 C 214.434 91.342,214.670 91.442,214.728 91.383 C 214.786 91.325,214.833 91.365,214.833 91.472 C 214.833 91.579,214.890 91.653,214.958 91.637 C 215.160 91.588,216.404 92.231,216.550 92.458 C 216.623 92.573,216.821 92.667,216.990 92.667 C 217.159 92.667,217.343 92.784,217.398 92.927 C 217.453 93.071,217.565 93.146,217.648 93.095 C 217.731 93.044,217.843 93.119,217.898 93.262 C 217.953 93.404,218.073 93.474,218.165 93.417 C 218.258 93.360,218.333 93.377,218.333 93.454 C 218.333 93.532,218.569 93.734,218.856 93.904 C 219.395 94.222,219.478 94.291,220.676 95.417 C 221.066 95.783,221.325 95.978,221.250 95.849 C 221.160 95.692,221.178 95.654,221.308 95.734 C 221.413 95.799,221.500 95.931,221.500 96.026 C 221.500 96.252,222.461 97.150,222.577 97.034 C 222.627 96.985,222.667 97.026,222.667 97.126 C 222.667 97.353,223.558 98.256,223.919 98.395 C 224.067 98.451,224.141 98.574,224.083 98.667 C 224.026 98.760,224.089 98.878,224.223 98.929 C 224.357 98.981,224.507 99.175,224.556 99.362 C 224.604 99.548,224.724 99.651,224.822 99.590 C 224.920 99.530,225.000 99.563,225.000 99.664 C 225.000 99.847,225.155 100.069,225.708 100.679 C 225.869 100.855,226.003 101.036,226.006 101.080 C 226.020 101.273,226.595 102.165,226.706 102.166 C 226.774 102.166,226.946 102.447,227.089 102.789 C 227.232 103.132,227.504 103.576,227.692 103.777 C 227.881 103.978,227.985 104.223,227.924 104.322 C 227.862 104.421,227.929 104.547,228.072 104.602 C 228.215 104.657,228.290 104.769,228.239 104.851 C 228.188 104.933,228.231 105.000,228.333 105.000 C 228.436 105.000,228.473 105.075,228.417 105.167 C 228.360 105.258,228.398 105.333,228.500 105.333 C 228.602 105.333,228.640 105.408,228.583 105.500 C 228.527 105.592,228.560 105.667,228.657 105.667 C 228.754 105.667,228.824 105.723,228.814 105.792 C 228.803 105.860,228.808 105.954,228.826 106.000 C 228.844 106.046,228.887 106.232,228.920 106.414 C 228.954 106.595,229.061 106.770,229.158 106.803 C 229.254 106.835,229.333 107.000,229.333 107.171 C 229.333 107.341,229.408 107.527,229.500 107.583 C 229.592 107.640,229.667 107.865,229.667 108.083 C 229.667 108.302,229.738 108.525,229.826 108.579 C 229.914 108.633,229.943 108.787,229.892 108.922 C 229.840 109.057,229.864 109.167,229.946 109.167 C 230.027 109.167,230.110 109.365,230.131 109.608 C 230.151 109.851,230.231 110.132,230.310 110.233 C 230.478 110.449,231.040 112.983,231.276 114.583 C 231.502 116.124,231.566 119.735,231.398 121.500 C 231.341 122.096,231.284 122.808,231.272 123.083 C 231.260 123.358,231.201 123.658,231.141 123.750 C 231.027 123.926,230.745 125.828,230.801 126.042 C 230.819 126.110,230.763 126.167,230.676 126.167 C 230.590 126.167,230.548 126.317,230.583 126.500 C 230.619 126.683,230.564 126.833,230.463 126.833 C 230.361 126.833,230.327 126.883,230.387 126.943 C 230.448 127.003,230.414 127.152,230.313 127.274 C 230.212 127.396,230.172 127.607,230.224 127.743 C 230.276 127.878,230.256 128.028,230.180 128.075 C 229.454 128.524,229.140 128.192,251.944 151.016 C 276.179 175.271,274.209 173.443,275.417 172.785 C 275.600 172.686,275.862 172.586,276.000 172.563 C 276.273 172.519,276.867 172.378,277.000 172.326 C 277.046 172.308,277.147 172.305,277.226 172.319 C 277.304 172.334,277.473 172.259,277.600 172.153 C 277.727 172.047,277.982 172.000,278.166 172.048 C 278.350 172.096,278.500 172.084,278.500 172.021 C 278.500 171.958,278.744 171.900,279.042 171.891 C 279.340 171.883,279.958 171.827,280.417 171.767 C 282.227 171.530,283.135 171.466,284.333 171.492 C 286.201 171.532,287.845 171.636,288.500 171.756 C 288.821 171.814,289.290 171.874,289.542 171.889 C 289.794 171.904,290.000 171.980,290.000 172.059 C 290.000 172.138,290.110 172.160,290.245 172.108 C 290.379 172.057,290.527 172.076,290.573 172.151 C 290.620 172.226,290.983 172.331,291.380 172.386 C 292.126 172.488,295.028 173.385,295.539 173.671 C 295.699 173.760,295.942 173.833,296.081 173.833 C 296.220 173.833,296.333 173.908,296.333 174.000 C 296.333 174.092,296.468 174.167,296.633 174.167 C 296.798 174.167,297.034 174.260,297.158 174.375 C 297.337 174.542,297.359 174.542,297.265 174.375 C 297.097 174.078,297.225 174.117,297.663 174.497 C 297.872 174.678,298.108 174.786,298.188 174.737 C 298.268 174.687,298.333 174.731,298.333 174.833 C 298.333 174.936,298.408 174.973,298.500 174.917 C 298.592 174.860,298.667 174.893,298.667 174.990 C 298.667 175.087,298.779 175.167,298.917 175.167 C 299.054 175.167,299.167 175.234,299.167 175.315 C 299.167 175.397,299.354 175.511,299.583 175.568 C 299.813 175.626,300.000 175.751,300.000 175.846 C 300.000 175.942,300.075 175.973,300.167 175.917 C 300.258 175.860,300.333 175.874,300.333 175.949 C 300.333 176.023,300.671 176.263,301.083 176.482 C 301.496 176.701,301.833 176.949,301.833 177.033 C 301.833 177.117,301.908 177.140,302.000 177.083 C 302.092 177.027,302.167 177.102,302.167 177.250 C 302.167 177.398,302.242 177.473,302.335 177.416 C 302.427 177.359,302.547 177.429,302.602 177.572 C 302.657 177.715,302.769 177.790,302.851 177.739 C 302.933 177.688,303.000 177.726,303.000 177.823 C 303.000 177.921,303.073 178.000,303.161 178.000 C 303.250 178.000,303.580 178.257,303.894 178.572 C 304.209 178.887,304.509 179.102,304.560 179.051 C 304.612 178.999,304.738 179.142,304.841 179.368 C 304.944 179.593,305.248 179.908,305.517 180.067 C 305.786 180.226,305.980 180.407,305.949 180.469 C 305.886 180.597,306.835 181.560,307.088 181.625 C 307.177 181.648,307.259 181.742,307.271 181.833 C 307.282 181.925,307.301 182.062,307.313 182.139 C 307.324 182.215,307.518 182.376,307.744 182.497 C 307.970 182.618,308.116 182.781,308.068 182.858 C 308.020 182.936,308.055 183.000,308.146 183.000 C 308.236 183.000,308.359 183.151,308.417 183.336 C 308.476 183.520,308.605 183.621,308.704 183.560 C 308.804 183.499,308.838 183.524,308.781 183.616 C 308.672 183.793,309.601 185.167,309.830 185.167 C 309.903 185.167,310.084 185.467,310.231 185.833 C 310.377 186.200,310.573 186.500,310.665 186.500 C 310.758 186.500,310.833 186.579,310.833 186.676 C 310.833 186.851,311.366 188.026,311.661 188.500 C 312.008 189.057,312.833 190.982,312.833 191.232 C 312.833 191.379,312.896 191.500,312.972 191.500 C 313.049 191.500,313.124 191.612,313.139 191.750 C 313.154 191.887,313.179 192.112,313.194 192.250 C 313.210 192.387,313.278 192.500,313.346 192.500 C 313.413 192.500,313.432 192.642,313.387 192.815 C 313.341 192.988,313.386 193.179,313.485 193.241 C 313.585 193.303,313.667 193.536,313.667 193.760 C 313.667 193.984,313.726 194.167,313.798 194.167 C 313.870 194.167,313.934 194.298,313.941 194.458 C 313.953 194.734,314.042 195.214,314.257 196.167 C 314.580 197.598,314.700 198.567,314.725 199.958 C 314.739 200.714,314.787 201.333,314.833 201.333 C 314.978 201.333,314.750 205.280,314.580 205.708 C 314.516 205.869,314.504 206.103,314.552 206.230 C 314.601 206.356,314.553 206.555,314.445 206.671 C 314.292 206.837,314.304 206.852,314.500 206.742 C 314.704 206.628,314.713 206.648,314.550 206.850 C 314.440 206.986,314.298 207.599,314.236 208.211 C 314.173 208.824,314.075 209.297,314.019 209.262 C 313.963 209.227,313.905 209.360,313.890 209.558 C 313.845 210.175,313.754 210.580,313.641 210.667 C 313.551 210.736,313.279 211.623,312.979 212.833 C 312.945 212.971,312.868 213.121,312.808 213.167 C 312.749 213.213,312.674 213.400,312.642 213.583 C 312.610 213.767,312.490 214.016,312.375 214.137 C 312.187 214.336,312.094 214.705,312.147 215.042 C 312.158 215.110,312.087 215.167,311.990 215.167 C 311.893 215.167,311.860 215.242,311.917 215.333 C 311.973 215.425,311.943 215.500,311.849 215.500 C 311.755 215.500,311.593 215.659,311.489 215.853 C 311.359 216.097,311.357 216.172,311.481 216.095 C 311.595 216.025,311.625 216.080,311.564 216.241 C 311.509 216.384,311.409 216.500,311.342 216.500 C 311.229 216.500,310.796 217.311,310.808 217.500 C 310.811 217.546,310.655 217.752,310.461 217.958 C 310.267 218.165,310.156 218.333,310.213 218.333 C 310.270 218.333,310.135 218.530,309.912 218.771 C 309.689 219.012,309.542 219.266,309.585 219.337 C 309.629 219.407,309.548 219.510,309.405 219.565 C 309.262 219.619,309.192 219.740,309.249 219.832 C 309.306 219.924,309.279 220.000,309.188 220.000 C 309.097 220.000,308.975 220.151,308.916 220.336 C 308.857 220.520,308.742 220.630,308.660 220.579 C 308.577 220.528,308.461 220.680,308.402 220.918 C 308.342 221.155,308.259 221.314,308.216 221.272 C 308.113 221.169,307.473 221.816,307.437 222.059 C 307.422 222.164,307.345 222.263,307.267 222.278 C 307.189 222.293,306.985 222.518,306.813 222.778 C 306.642 223.038,306.502 223.204,306.501 223.149 C 306.500 223.093,306.050 223.500,305.500 224.053 C 304.950 224.607,304.500 225.121,304.500 225.197 C 304.500 225.272,304.393 225.333,304.262 225.333 C 304.131 225.333,303.862 225.540,303.664 225.792 C 303.465 226.044,303.254 226.240,303.193 226.228 C 303.015 226.192,302.494 226.605,302.593 226.704 C 302.643 226.754,302.454 226.875,302.173 226.973 C 301.892 227.071,301.618 227.267,301.563 227.409 C 301.509 227.551,301.355 227.667,301.221 227.667 C 300.975 227.667,299.503 228.601,299.317 228.875 C 299.262 228.956,299.103 229.039,298.964 229.059 C 298.638 229.107,297.099 229.881,297.031 230.032 C 297.002 230.096,296.883 230.111,296.766 230.066 C 296.649 230.022,296.457 230.101,296.340 230.242 C 296.222 230.384,296.004 230.502,295.855 230.505 C 295.705 230.508,295.441 230.618,295.267 230.750 C 295.093 230.882,294.890 230.951,294.814 230.905 C 294.739 230.859,294.394 230.963,294.047 231.137 C 293.700 231.311,293.323 231.420,293.208 231.380 C 293.094 231.339,293.000 231.380,293.000 231.471 C 293.000 231.563,292.869 231.618,292.709 231.594 C 292.548 231.571,292.166 231.656,291.860 231.785 C 291.553 231.913,291.216 231.986,291.109 231.948 C 291.003 231.910,290.781 231.948,290.615 232.034 C 290.448 232.120,290.092 232.196,289.823 232.203 C 289.554 232.211,289.333 232.262,289.333 232.317 C 289.333 232.372,289.052 232.415,288.708 232.412 C 288.365 232.409,288.008 232.445,287.917 232.492 C 287.524 232.693,282.550 232.781,281.250 232.611 C 280.792 232.551,280.079 232.463,279.667 232.415 C 278.915 232.329,278.250 232.213,278.250 232.168 C 278.250 232.155,278.002 232.112,277.698 232.072 C 277.394 232.033,276.999 231.922,276.819 231.826 C 276.640 231.730,276.411 231.702,276.311 231.764 C 276.211 231.825,276.075 231.788,276.008 231.679 C 275.941 231.571,275.687 231.462,275.443 231.436 C 275.199 231.410,274.955 231.344,274.900 231.289 C 274.845 231.234,274.683 231.235,274.540 231.290 C 274.352 231.362,274.318 231.327,274.417 231.167 C 274.519 231.002,274.479 230.972,274.265 231.055 C 274.095 231.120,273.868 231.059,273.716 230.907 C 273.574 230.764,273.354 230.687,273.229 230.735 C 273.103 230.783,273.000 230.758,273.000 230.679 C 273.000 230.600,272.884 230.491,272.741 230.436 C 272.593 230.379,272.526 230.407,272.585 230.502 C 272.741 230.755,272.555 230.698,272.259 230.401 C 272.113 230.256,271.890 230.121,271.763 230.102 C 271.637 230.084,271.421 229.976,271.284 229.862 C 271.147 229.748,270.971 229.672,270.893 229.694 C 270.646 229.761,270.000 229.485,270.000 229.312 C 270.000 229.221,269.925 229.193,269.833 229.250 C 269.742 229.307,269.667 229.272,269.667 229.172 C 269.667 229.017,269.185 228.750,268.792 228.687 C 268.723 228.676,268.514 228.514,268.327 228.327 C 268.141 228.141,267.916 228.033,267.827 228.087 C 267.739 228.142,267.667 228.107,267.667 228.010 C 267.667 227.913,267.550 227.833,267.407 227.833 C 267.264 227.833,267.187 227.769,267.235 227.690 C 267.284 227.612,266.991 227.376,266.583 227.167 C 266.176 226.957,265.882 226.722,265.930 226.645 C 265.978 226.567,265.882 226.552,265.717 226.612 C 265.552 226.671,265.470 226.660,265.536 226.588 C 265.602 226.515,265.364 226.245,265.009 225.987 C 264.653 225.729,263.758 224.923,263.019 224.196 C 262.281 223.468,261.561 222.829,261.420 222.774 C 261.279 222.720,261.183 222.616,261.207 222.543 C 261.253 222.401,261.068 222.157,260.208 221.225 C 259.910 220.902,259.667 220.567,259.667 220.480 C 259.667 220.394,259.550 220.278,259.407 220.223 C 259.264 220.168,259.187 220.021,259.235 219.895 C 259.283 219.769,259.266 219.667,259.197 219.667 C 259.128 219.667,258.949 219.460,258.799 219.208 C 258.649 218.956,258.367 218.581,258.173 218.375 C 257.979 218.169,257.865 218.000,257.920 218.000 C 257.974 218.000,257.886 217.775,257.723 217.500 C 257.561 217.225,257.372 217.000,257.303 217.000 C 257.234 217.000,257.220 216.888,257.273 216.750 C 257.326 216.612,257.286 216.500,257.184 216.500 C 257.083 216.500,257.000 216.398,257.000 216.273 C 257.000 216.149,256.811 215.768,256.581 215.428 C 256.350 215.089,256.211 214.729,256.273 214.629 C 256.340 214.521,256.307 214.496,256.192 214.567 C 256.066 214.645,256.000 214.540,256.000 214.260 C 256.000 214.025,255.917 213.833,255.816 213.833 C 255.714 213.833,255.672 213.726,255.723 213.594 C 255.773 213.463,255.742 213.331,255.654 213.301 C 255.565 213.272,255.455 213.023,255.410 212.749 C 255.364 212.474,255.260 212.100,255.178 211.917 C 254.906 211.305,254.780 210.918,254.809 210.785 C 254.825 210.712,254.757 210.501,254.657 210.316 C 254.443 209.915,254.337 209.470,254.256 208.633 C 254.223 208.293,254.138 207.922,254.067 207.807 C 253.997 207.693,253.956 207.315,253.976 206.966 C 253.997 206.618,253.954 206.333,253.882 206.333 C 253.729 206.333,253.699 205.931,253.612 202.738 C 253.577 201.447,253.613 199.947,253.692 199.404 C 253.772 198.861,253.869 198.004,253.909 197.500 C 253.949 196.996,253.996 196.565,254.012 196.542 C 254.028 196.519,254.052 196.369,254.065 196.208 C 254.078 196.048,254.137 195.841,254.196 195.748 C 254.255 195.655,254.396 195.093,254.510 194.498 C 254.623 193.903,254.849 193.127,255.012 192.774 C 255.176 192.420,255.264 192.014,255.210 191.871 C 255.139 191.686,255.173 191.651,255.331 191.749 C 255.497 191.851,255.529 191.796,255.459 191.526 C 255.407 191.328,255.424 191.167,255.498 191.167 C 255.571 191.167,255.675 191.053,255.728 190.915 C 255.846 190.606,255.507 189.810,255.309 189.932 C 255.231 189.980,255.167 189.898,255.167 189.750 C 255.167 189.602,255.092 189.527,255.000 189.583 C 254.908 189.640,254.833 189.565,254.833 189.417 C 254.833 189.268,254.764 189.190,254.679 189.243 C 254.594 189.295,254.476 189.186,254.417 189.000 C 254.358 188.814,254.240 188.705,254.155 188.757 C 254.070 188.810,254.000 188.732,254.000 188.583 C 254.000 188.435,253.930 188.357,253.845 188.409 C 253.760 188.462,253.642 188.353,253.583 188.167 C 253.524 187.981,253.406 187.872,253.321 187.924 C 253.236 187.977,253.167 187.898,253.167 187.750 C 253.167 187.602,253.092 187.527,253.000 187.583 C 252.908 187.640,252.833 187.565,252.833 187.417 C 252.833 187.268,252.770 187.186,252.692 187.234 C 252.614 187.283,252.453 187.140,252.333 186.917 C 252.214 186.694,252.053 186.551,251.975 186.599 C 251.897 186.647,251.833 186.565,251.833 186.417 C 251.833 186.268,251.758 186.193,251.667 186.250 C 251.575 186.307,251.498 186.292,251.496 186.218 C 251.493 186.144,251.287 185.855,251.037 185.577 C 250.788 185.298,250.621 185.152,250.667 185.251 C 250.713 185.351,250.582 185.241,250.376 185.008 C 250.170 184.774,250.001 184.523,250.001 184.448 C 250.000 184.374,249.925 184.360,249.833 184.417 C 249.742 184.473,249.667 184.407,249.667 184.270 C 249.667 184.132,249.580 183.966,249.474 183.901 C 249.349 183.823,249.322 183.863,249.399 184.016 C 249.463 184.145,249.403 184.100,249.265 183.917 C 248.763 183.249,248.478 182.922,248.597 183.151 C 248.677 183.305,248.652 183.344,248.526 183.266 C 248.420 183.201,248.333 183.034,248.333 182.897 C 248.333 182.759,248.264 182.690,248.179 182.743 C 248.094 182.795,247.976 182.686,247.917 182.500 C 247.858 182.314,247.740 182.205,247.655 182.257 C 247.570 182.310,247.498 182.292,247.496 182.218 C 247.494 182.144,247.338 181.896,247.148 181.667 C 246.959 181.438,246.860 181.362,246.929 181.500 C 247.098 181.839,246.956 181.702,246.348 180.935 C 246.065 180.579,245.833 180.350,245.833 180.426 C 245.833 180.502,245.646 180.311,245.417 180.000 C 245.188 179.689,245.000 179.506,244.999 179.593 C 244.998 179.679,244.849 179.525,244.667 179.250 C 244.485 178.975,244.335 178.825,244.333 178.917 C 244.332 179.008,244.182 178.858,244.000 178.583 C 243.818 178.308,243.668 178.144,243.668 178.218 C 243.667 178.293,243.367 178.007,243.000 177.583 C 242.633 177.160,242.333 176.874,242.332 176.948 C 242.332 177.023,242.195 176.876,242.028 176.624 C 241.861 176.371,241.681 176.208,241.628 176.261 C 241.574 176.315,241.481 176.202,241.420 176.010 C 241.359 175.819,241.251 175.698,241.180 175.742 C 241.109 175.786,240.953 175.640,240.833 175.417 C 240.714 175.194,240.558 175.047,240.487 175.091 C 240.416 175.135,240.309 175.019,240.250 174.833 C 240.191 174.647,240.073 174.538,239.988 174.591 C 239.903 174.643,239.833 174.565,239.833 174.417 C 239.833 174.268,239.764 174.190,239.679 174.243 C 239.594 174.295,239.476 174.186,239.417 174.000 C 239.358 173.814,239.240 173.705,239.155 173.757 C 239.070 173.810,239.000 173.732,239.000 173.583 C 239.000 173.435,238.925 173.360,238.833 173.417 C 238.742 173.473,238.667 173.398,238.667 173.250 C 238.667 173.102,238.592 173.027,238.500 173.083 C 238.408 173.140,238.333 173.085,238.333 172.961 C 238.333 172.837,237.977 172.402,237.542 171.993 L 236.750 171.250 237.500 172.056 C 237.912 172.499,232.963 167.564,226.500 161.089 C 220.037 154.614,214.725 149.245,214.694 149.158 C 214.664 149.071,214.589 149.000,214.528 149.000 C 214.316 149.000,214.432 257.727,214.643 257.798 C 214.749 257.833,214.785 257.943,214.724 258.043 C 214.653 258.158,214.713 258.185,214.889 258.117 C 215.042 258.058,215.167 258.083,215.167 258.172 C 215.167 258.261,215.253 258.333,215.359 258.333 C 215.465 258.333,215.816 258.534,216.138 258.780 C 216.460 259.026,216.668 259.120,216.599 258.989 C 216.531 258.857,216.621 258.916,216.800 259.118 C 216.979 259.320,217.172 259.439,217.229 259.382 C 217.287 259.325,217.333 259.365,217.333 259.472 C 217.333 259.579,217.465 259.668,217.625 259.670 C 217.785 259.671,218.098 259.864,218.321 260.098 C 218.543 260.332,219.068 260.758,219.487 261.044 C 219.907 261.330,220.275 261.625,220.306 261.700 C 220.337 261.774,220.430 261.793,220.514 261.741 C 220.598 261.689,220.667 261.752,220.667 261.881 C 220.667 262.009,220.934 262.257,221.261 262.432 C 221.588 262.607,222.008 262.996,222.194 263.296 C 222.380 263.596,222.752 263.955,223.022 264.094 C 223.291 264.234,223.465 264.421,223.410 264.511 C 223.354 264.601,223.406 264.654,223.525 264.629 C 223.645 264.604,223.766 264.738,223.795 264.927 C 223.824 265.116,224.062 265.396,224.322 265.550 C 224.583 265.704,224.844 266.022,224.903 266.255 C 224.962 266.489,225.070 266.643,225.144 266.597 C 225.218 266.552,225.403 266.776,225.556 267.096 C 225.708 267.415,225.945 267.720,226.082 267.773 C 226.219 267.825,226.290 267.935,226.239 268.017 C 226.188 268.100,226.223 268.167,226.316 268.167 C 226.408 268.167,226.615 268.448,226.775 268.792 C 226.935 269.135,227.163 269.477,227.283 269.550 C 227.402 269.623,227.500 269.830,227.500 270.008 C 227.500 270.187,227.636 270.469,227.802 270.635 C 227.968 270.802,228.074 271.027,228.038 271.135 C 228.002 271.244,228.091 271.379,228.235 271.434 C 228.380 271.490,228.457 271.602,228.406 271.684 C 228.355 271.766,228.401 271.833,228.508 271.833 C 228.615 271.833,228.658 271.949,228.603 272.092 C 228.546 272.240,228.574 272.307,228.669 272.249 C 228.759 272.193,228.833 272.287,228.833 272.458 C 228.833 272.630,228.943 272.915,229.078 273.093 C 229.213 273.271,229.325 273.585,229.328 273.792 C 229.331 273.998,229.413 274.167,229.510 274.167 C 229.607 274.167,229.640 274.242,229.583 274.333 C 229.527 274.425,229.539 274.594,229.610 274.708 C 229.682 274.823,229.755 274.992,229.774 275.083 C 229.792 275.175,229.962 275.693,230.153 276.234 C 230.344 276.776,230.500 277.357,230.500 277.526 C 230.500 277.695,230.557 277.833,230.627 277.833 C 230.696 277.833,230.763 278.056,230.774 278.329 C 230.785 278.601,230.850 278.957,230.919 279.120 C 230.988 279.283,231.044 279.660,231.044 279.958 C 231.044 280.256,231.105 280.500,231.180 280.500 C 231.256 280.500,231.289 280.725,231.254 281.000 C 231.219 281.275,231.242 281.500,231.304 281.500 C 231.522 281.501,231.633 286.844,231.441 288.083 C 231.398 288.358,231.321 288.996,231.269 289.500 C 231.218 290.004,231.129 290.604,231.072 290.833 C 231.016 291.063,230.952 291.438,230.931 291.667 C 230.910 291.896,230.804 292.296,230.695 292.556 C 230.587 292.815,230.545 293.105,230.603 293.199 C 230.662 293.294,230.620 293.426,230.511 293.493 C 230.402 293.561,230.306 293.852,230.298 294.141 C 230.289 294.430,230.211 294.667,230.123 294.667 C 230.036 294.667,230.008 294.779,230.060 294.917 C 230.113 295.054,230.084 295.167,229.995 295.167 C 229.906 295.167,229.833 295.302,229.833 295.467 C 229.833 295.632,229.743 295.857,229.633 295.967 C 229.523 296.077,229.495 296.167,229.570 296.167 C 229.646 296.167,229.613 296.281,229.497 296.421 C 229.381 296.560,229.334 296.723,229.393 296.782 C 229.452 296.841,229.395 297.008,229.265 297.153 C 229.136 297.298,229.005 297.567,228.973 297.750 C 228.942 297.933,228.823 298.182,228.708 298.304 C 228.594 298.425,228.500 298.626,228.500 298.750 C 228.500 298.874,228.383 299.093,228.240 299.236 C 228.097 299.380,227.968 299.647,227.954 299.832 C 227.940 300.016,227.868 300.167,227.794 300.167 C 227.667 300.167,227.384 300.751,227.364 301.054 C 227.359 301.130,227.200 301.326,227.011 301.491 C 226.822 301.655,226.667 301.874,226.667 301.978 C 226.667 302.082,226.592 302.167,226.500 302.167 C 226.408 302.167,226.333 302.270,226.333 302.396 C 226.333 302.523,226.222 302.719,226.085 302.832 C 225.949 302.945,225.878 303.104,225.928 303.186 C 225.979 303.267,225.895 303.333,225.742 303.333 C 225.560 303.333,225.498 303.422,225.564 303.592 C 225.621 303.740,225.593 303.807,225.498 303.749 C 225.407 303.693,225.333 303.736,225.333 303.845 C 225.333 303.954,225.071 304.333,224.750 304.689 C 224.429 305.044,224.167 305.409,224.167 305.500 C 224.167 305.592,224.054 305.667,223.917 305.667 C 223.779 305.667,223.667 305.734,223.667 305.816 C 223.667 306.066,222.775 307.000,222.536 307.000 C 222.414 307.000,222.348 307.056,222.389 307.125 C 222.431 307.194,222.360 307.347,222.233 307.465 C 222.105 307.583,222.000 307.621,222.000 307.550 C 222.000 307.479,221.801 307.701,221.557 308.044 C 221.313 308.386,221.040 308.667,220.951 308.667 C 220.861 308.667,220.614 308.854,220.402 309.083 C 220.190 309.313,219.941 309.500,219.850 309.500 C 219.758 309.500,219.607 309.631,219.513 309.792 C 219.420 309.952,219.341 310.024,219.338 309.951 C 219.336 309.878,219.156 309.996,218.938 310.213 C 218.721 310.431,218.308 310.706,218.022 310.824 C 217.735 310.943,217.500 311.106,217.500 311.187 C 217.500 311.267,217.394 311.333,217.264 311.333 C 217.134 311.333,217.003 311.393,216.972 311.466 C 216.942 311.539,216.560 311.765,216.125 311.967 C 215.690 312.169,215.333 312.422,215.333 312.529 C 215.333 312.635,215.287 312.676,215.230 312.619 C 215.173 312.562,215.014 312.629,214.875 312.768 C 214.737 312.906,214.517 312.978,214.387 312.928 C 214.256 312.878,214.192 312.906,214.244 312.990 C 214.338 313.142,214.037 313.281,213.317 313.420 C 213.110 313.460,212.881 313.588,212.806 313.704 C 212.732 313.821,212.671 313.859,212.669 313.788 C 212.668 313.717,212.492 313.773,212.278 313.913 C 212.065 314.053,211.842 314.119,211.782 314.060 C 211.723 314.001,211.573 314.037,211.449 314.140 C 211.325 314.243,211.080 314.349,210.904 314.377 C 210.727 314.404,210.490 314.485,210.375 314.556 C 210.260 314.628,210.167 314.636,210.167 314.574 C 210.167 314.512,209.983 314.582,209.759 314.729 C 209.534 314.876,209.234 314.952,209.092 314.897 C 208.949 314.842,208.833 314.885,208.833 314.992 C 208.833 315.099,208.763 315.143,208.677 315.090 C 208.592 315.037,208.198 315.075,207.802 315.174 C 207.407 315.273,206.990 315.362,206.875 315.371 C 206.760 315.381,206.667 315.438,206.667 315.499 C 206.667 315.559,206.442 315.576,206.167 315.536 C 205.892 315.495,205.667 315.527,205.667 315.606 C 205.667 315.685,205.498 315.761,205.292 315.774 C 205.085 315.788,204.242 315.844,203.417 315.900 C 201.524 316.029,200.310 316.029,198.417 315.900 C 197.592 315.844,196.748 315.788,196.542 315.774 C 196.335 315.761,196.167 315.710,196.167 315.661 C 196.167 315.612,196.035 315.564,195.875 315.554 C 195.715 315.545,195.321 315.488,195.000 315.428 C 194.679 315.367,194.287 315.317,194.128 315.315 C 193.970 315.313,193.801 315.249,193.753 315.172 C 193.705 315.094,193.516 315.070,193.333 315.118 C 193.147 315.167,193.000 315.123,193.000 315.019 C 193.000 314.917,192.944 314.846,192.875 314.861 C 192.646 314.913,191.500 314.631,191.500 314.523 C 191.500 314.465,191.323 314.407,191.107 314.394 C 190.891 314.382,190.423 314.233,190.066 314.064 C 189.710 313.895,189.343 313.754,189.251 313.751 C 189.159 313.749,188.849 313.619,188.563 313.463 C 188.277 313.307,187.983 313.233,187.911 313.298 C 187.839 313.363,187.829 313.331,187.889 313.226 C 188.010 313.015,187.558 312.778,187.318 312.926 C 187.235 312.978,187.167 312.936,187.167 312.833 C 187.167 312.731,187.094 312.692,187.006 312.746 C 186.918 312.801,186.699 312.699,186.520 312.520 C 186.341 312.341,186.152 312.236,186.101 312.288 C 186.050 312.339,185.961 312.258,185.903 312.108 C 185.846 311.958,185.731 311.877,185.649 311.927 C 185.567 311.978,185.500 311.936,185.500 311.833 C 185.500 311.731,185.433 311.688,185.352 311.738 C 185.271 311.789,185.112 311.719,185.000 311.583 C 184.888 311.448,184.729 311.378,184.648 311.428 C 184.567 311.479,184.500 311.440,184.500 311.343 C 184.500 311.246,184.387 311.167,184.250 311.167 C 184.112 311.167,184.000 311.092,184.000 311.000 C 184.000 310.908,183.883 310.833,183.740 310.833 C 183.597 310.833,183.527 310.758,183.583 310.667 C 183.640 310.575,183.566 310.500,183.419 310.500 C 183.273 310.500,183.062 310.424,182.951 310.330 C 182.177 309.677,181.931 309.500,181.798 309.500 C 181.715 309.500,181.693 309.425,181.750 309.333 C 181.807 309.242,181.785 309.167,181.702 309.167 C 181.414 309.167,179.821 307.734,179.957 307.598 C 180.011 307.544,179.970 307.500,179.865 307.500 C 179.661 307.500,177.667 305.535,177.667 305.334 C 177.667 305.268,177.479 305.073,177.250 304.900 C 177.021 304.728,176.833 304.494,176.833 304.379 C 176.833 304.264,176.601 303.948,176.318 303.677 C 175.993 303.367,175.849 303.104,175.928 302.967 C 175.997 302.848,175.991 302.807,175.915 302.876 C 175.763 303.014,174.835 301.717,174.834 301.365 C 174.834 301.245,174.764 301.190,174.680 301.242 C 174.596 301.294,174.478 301.111,174.417 300.835 C 174.356 300.559,174.233 300.333,174.144 300.333 C 174.054 300.333,174.027 300.258,174.083 300.167 C 174.140 300.075,174.107 300.000,174.010 300.000 C 173.913 300.000,173.833 299.887,173.833 299.750 C 173.833 299.612,173.758 299.500,173.667 299.500 C 173.575 299.500,173.500 299.350,173.500 299.167 C 173.500 298.983,173.421 298.833,173.323 298.833 C 173.226 298.833,173.193 298.758,173.250 298.667 C 173.307 298.575,173.269 298.500,173.167 298.500 C 173.064 298.500,173.023 298.431,173.076 298.346 C 173.190 298.162,172.837 297.333,172.645 297.333 C 172.571 297.333,172.558 297.209,172.617 297.056 C 172.691 296.863,172.661 296.817,172.517 296.906 C 172.389 296.985,172.325 296.949,172.349 296.808 C 172.409 296.457,172.148 295.667,171.972 295.667 C 171.885 295.667,171.856 295.598,171.908 295.514 C 171.960 295.430,171.915 295.149,171.809 294.889 C 171.703 294.629,171.591 294.290,171.560 294.135 C 171.530 293.980,171.393 293.530,171.255 293.135 C 171.117 292.740,171.004 292.223,171.002 291.986 C 171.001 291.749,170.948 291.504,170.885 291.441 C 170.823 291.378,170.753 291.197,170.731 291.038 C 170.710 290.880,170.644 290.412,170.586 290.000 C 170.528 289.587,170.466 288.875,170.448 288.417 C 170.429 287.958,170.376 287.508,170.329 287.417 C 170.137 287.040,170.333 282.396,170.608 280.833 C 170.728 280.150,170.838 279.354,170.862 279.000 C 170.871 278.862,170.944 278.667,171.023 278.566 C 171.103 278.464,171.244 278.014,171.338 277.566 C 171.515 276.713,171.552 276.576,171.717 276.167 C 171.772 276.029,171.840 275.767,171.867 275.583 C 171.894 275.400,171.977 275.206,172.050 275.152 C 172.123 275.098,172.193 274.873,172.204 274.652 C 172.216 274.431,172.322 274.134,172.442 273.991 C 172.561 273.849,172.686 273.553,172.720 273.333 C 172.753 273.114,172.867 272.905,172.974 272.870 C 173.080 272.835,173.167 272.674,173.167 272.514 C 173.167 272.353,173.223 272.166,173.292 272.097 C 173.360 272.028,173.421 271.922,173.427 271.861 C 173.457 271.526,174.009 270.500,174.158 270.500 C 174.255 270.500,174.333 270.317,174.333 270.093 C 174.333 269.869,174.478 269.584,174.655 269.460 C 174.832 269.336,175.027 269.032,175.090 268.784 C 175.152 268.536,175.256 268.333,175.320 268.333 C 175.455 268.333,176.563 266.892,176.495 266.807 C 176.470 266.775,176.906 266.267,177.465 265.676 C 178.023 265.086,178.448 264.551,178.409 264.487 C 178.332 264.362,178.736 263.967,178.849 264.057 C 178.886 264.087,179.048 263.974,179.208 263.806 C 179.369 263.637,179.463 263.500,179.418 263.500 C 179.373 263.500,179.499 263.313,179.698 263.083 C 179.897 262.854,180.151 262.667,180.263 262.667 C 180.374 262.667,180.681 262.421,180.946 262.120 C 181.210 261.819,181.705 261.401,182.046 261.190 C 182.387 260.979,182.667 260.737,182.667 260.653 C 182.667 260.569,182.768 260.500,182.891 260.500 C 183.014 260.500,183.251 260.350,183.417 260.166 C 183.583 259.983,184.101 259.644,184.568 259.413 C 185.585 258.911,185.952 258.681,186.366 258.286 C 186.538 258.122,186.751 258.033,186.839 258.087 C 186.928 258.142,187.000 258.102,187.000 258.000 C 187.000 257.898,187.075 257.860,187.167 257.917 C 187.258 257.973,187.333 257.936,187.333 257.833 C 187.333 257.731,187.402 257.689,187.486 257.741 C 187.570 257.793,187.663 257.762,187.694 257.673 C 187.725 257.583,187.900 257.482,188.083 257.449 C 188.267 257.416,188.623 257.289,188.875 257.167 L 189.333 256.946 189.333 202.074 C 189.333 143.177,189.382 147.164,188.667 146.917 C 188.286 146.785,187.815 146.544,187.250 146.192 C 186.883 145.964,186.565 145.789,186.542 145.805 C 186.380 145.915,186.001 145.800,186.083 145.667 C 186.140 145.575,186.107 145.500,186.010 145.500 C 185.640 145.500,185.574 145.471,185.250 145.169 C 185.067 144.998,184.810 144.834,184.681 144.804 C 184.551 144.774,184.307 144.619,184.139 144.458 C 183.971 144.298,183.721 144.167,183.583 144.167 C 183.446 144.167,183.333 144.092,183.333 144.000 C 183.333 143.908,183.239 143.833,183.123 143.833 C 183.008 143.833,182.815 143.676,182.695 143.484 C 182.575 143.292,182.437 143.174,182.388 143.223 C 182.339 143.273,182.119 143.119,181.899 142.882 C 181.680 142.645,181.500 142.496,181.500 142.551 C 181.500 142.605,181.249 142.392,180.943 142.077 C 180.637 141.761,180.337 141.552,180.276 141.613 C 180.216 141.673,180.167 141.597,180.167 141.444 C 180.167 141.292,180.042 141.167,179.889 141.167 C 179.736 141.167,179.652 141.126,179.702 141.076 C 179.813 140.965,178.817 139.930,178.583 139.913 C 178.492 139.907,178.435 139.811,178.458 139.701 C 178.481 139.590,178.410 139.519,178.299 139.542 C 178.189 139.565,178.095 139.484,178.091 139.362 C 178.087 139.240,177.952 139.044,177.792 138.927 C 177.631 138.809,177.500 138.628,177.500 138.523 C 177.500 138.419,177.410 138.352,177.299 138.375 C 177.189 138.398,177.095 138.325,177.091 138.214 C 177.087 138.102,176.938 137.842,176.761 137.635 C 176.584 137.428,176.275 137.016,176.074 136.720 C 175.872 136.423,175.661 136.228,175.604 136.285 C 175.505 136.383,175.433 136.076,175.484 135.779 C 175.498 135.704,175.437 135.686,175.350 135.739 C 175.263 135.793,175.060 135.536,174.897 135.169 C 174.735 134.801,174.542 134.500,174.468 134.500 C 174.394 134.500,174.344 134.444,174.356 134.375 C 174.399 134.140,173.787 132.843,173.668 132.916 C 173.602 132.956,173.462 132.800,173.356 132.567 C 173.204 132.234,173.208 132.171,173.374 132.268 C 173.489 132.335,173.450 132.238,173.286 132.051 C 173.123 131.865,172.956 131.539,172.915 131.327 C 172.875 131.115,172.758 130.890,172.656 130.827 C 172.555 130.764,172.478 130.665,172.486 130.606 C 172.494 130.548,172.494 130.481,172.487 130.458 C 172.480 130.435,172.450 130.304,172.420 130.167 C 172.391 130.029,172.272 129.692,172.157 129.417 C 172.042 129.142,171.918 128.740,171.882 128.523 C 171.846 128.307,171.708 127.964,171.575 127.760 C 171.441 127.557,171.377 127.345,171.433 127.289 C 171.488 127.234,171.472 127.090,171.397 126.969 C 171.321 126.849,171.250 126.600,171.237 126.417 C 171.224 126.233,171.097 125.696,170.954 125.223 C 170.810 124.750,170.732 124.323,170.780 124.276 C 170.828 124.228,170.803 124.090,170.725 123.969 C 170.647 123.849,170.575 123.563,170.565 123.333 C 170.554 123.104,170.489 122.354,170.420 121.667 C 170.258 120.067,170.250 117.718,170.401 116.333 C 170.467 115.737,170.534 114.950,170.552 114.583 C 170.569 114.217,170.634 113.878,170.695 113.832 C 170.757 113.785,170.851 113.410,170.903 112.998 C 171.018 112.108,171.223 111.262,171.485 110.602 C 171.590 110.337,171.637 110.081,171.589 110.034 C 171.542 109.986,171.586 109.847,171.689 109.724 C 171.791 109.601,171.818 109.500,171.750 109.500 C 171.682 109.500,171.716 109.391,171.827 109.257 C 171.938 109.124,171.980 108.936,171.921 108.841 C 171.862 108.745,171.885 108.667,171.972 108.667 C 172.058 108.667,172.182 108.385,172.246 108.042 C 172.311 107.698,172.426 107.340,172.503 107.247 C 172.589 107.143,163.929 98.329,149.985 84.330 L 127.326 61.583 86.016 102.958 C 63.296 125.715,44.623 144.333,44.520 144.333 C 44.417 144.333,44.352 144.421,44.375 144.528 C 44.398 144.635,44.229 144.822,44.000 144.942 C 43.771 145.063,43.651 145.163,43.734 145.164 C 43.817 145.166,43.749 145.317,43.583 145.500 C 43.417 145.683,43.181 145.833,43.058 145.833 C 42.934 145.833,42.852 145.921,42.875 146.028 C 42.898 146.135,42.743 146.313,42.531 146.424 C 42.319 146.534,42.161 146.690,42.179 146.771 C 42.198 146.851,42.034 147.009,41.815 147.123 C 41.596 147.236,41.489 147.330,41.577 147.331 C 41.665 147.332,41.368 147.708,40.917 148.167 C 40.465 148.625,39.995 149.000,39.871 149.000 C 39.748 149.000,39.685 149.061,39.731 149.135 C 39.824 149.287,22.555 166.616,22.400 166.526 C 22.346 166.494,19.680 169.100,16.476 172.317 C 13.272 175.534,10.710 178.168,10.783 178.169 C 10.857 178.170,10.738 178.264,10.519 178.377 C 10.300 178.491,10.136 178.649,10.154 178.729 C 10.173 178.810,10.014 178.966,9.802 179.076 C 9.590 179.187,9.435 179.365,9.458 179.472 C 9.481 179.579,9.399 179.667,9.276 179.667 C 8.991 179.667,8.463 180.240,8.611 180.389 C 8.672 180.450,8.610 180.500,8.473 180.500 C 8.184 180.500,7.500 181.180,7.500 181.469 C 7.500 181.578,7.400 181.667,7.278 181.667 C 7.156 181.667,6.956 181.854,6.833 182.083 C 6.711 182.312,6.544 182.500,6.462 182.500 C 6.380 182.500,6.357 182.570,6.409 182.655 C 6.462 182.740,6.353 182.858,6.167 182.917 C 5.981 182.976,5.867 183.086,5.913 183.161 C 5.960 183.237,5.875 183.346,5.725 183.403 C 5.575 183.461,5.493 183.548,5.542 183.597 C 5.591 183.647,5.471 183.855,5.274 184.060 C 4.636 184.726,4.179 185.385,4.262 185.519 C 4.306 185.591,4.191 185.731,4.005 185.831 C 3.819 185.930,3.667 186.150,3.667 186.319 C 3.667 186.488,3.554 186.719,3.417 186.833 C 3.279 186.947,3.167 187.144,3.167 187.270 C 3.167 187.397,3.087 187.500,2.990 187.500 C 2.893 187.500,2.860 187.575,2.917 187.667 C 2.973 187.758,2.949 187.833,2.863 187.833 C 2.712 187.833,2.474 188.361,2.432 188.785 C 2.422 188.896,2.320 189.080,2.206 189.194 C 2.093 189.307,2.000 189.566,2.000 189.769 C 2.000 189.973,1.921 190.165,1.824 190.197 C 1.728 190.230,1.621 190.405,1.587 190.586 C 1.553 190.768,1.510 190.917,1.491 190.917 C 1.473 190.917,1.438 191.067,1.414 191.250 C 1.390 191.433,1.273 191.808,1.153 192.083 C 1.033 192.358,0.926 192.658,0.916 192.750 C 0.905 192.842,0.837 193.095,0.764 193.313 C 0.690 193.532,0.607 193.944,0.579 194.230 C 0.551 194.516,0.446 195.124,0.345 195.582 C 0.244 196.039,0.197 196.506,0.240 196.618 C 0.283 196.731,0.256 196.862,0.179 196.909 C -0.148 197.111,0.155 203.994,0.510 204.427 C 0.590 204.525,0.618 204.812,0.572 205.066 C 0.519 205.359,0.552 205.488,0.661 205.420 C 0.756 205.362,0.839 205.449,0.846 205.615 C 0.853 205.781,0.892 206.067,0.932 206.250 C 0.972 206.433,1.020 206.715,1.038 206.875 C 1.056 207.035,1.128 207.167,1.197 207.167 C 1.266 207.167,1.280 207.279,1.227 207.417 C 1.174 207.554,1.210 207.667,1.306 207.667 C 1.402 207.667,1.452 207.819,1.416 208.004 C 1.380 208.190,1.422 208.298,1.509 208.245 C 1.596 208.191,1.667 208.339,1.667 208.573 C 1.667 208.808,1.754 209.000,1.861 209.000 C 1.968 209.000,2.005 209.050,1.944 209.112 C 1.882 209.173,1.948 209.400,2.090 209.616 C 2.231 209.833,2.295 210.094,2.231 210.197 C 2.156 210.319,2.191 210.338,2.329 210.253 C 2.472 210.164,2.517 210.197,2.463 210.352 C 2.419 210.479,2.522 210.762,2.692 210.981 C 2.861 211.199,3.000 211.481,3.000 211.606 C 3.000 211.731,3.069 211.833,3.153 211.833 C 3.238 211.833,3.356 212.058,3.416 212.332 C 3.477 212.607,3.614 212.888,3.721 212.957 C 4.070 213.182,4.466 213.756,4.167 213.603 C 4.029 213.532,4.082 213.621,4.285 213.800 C 4.487 213.979,4.607 214.170,4.552 214.225 C 4.497 214.280,4.576 214.373,4.726 214.431 C 4.877 214.488,5.000 214.632,5.000 214.750 C 5.000 214.868,5.113 215.008,5.252 215.061 C 5.390 215.114,5.494 215.216,5.482 215.287 C 5.434 215.578,5.507 215.882,5.601 215.788 C 5.708 215.681,6.154 216.128,6.833 217.027 C 7.315 217.663,112.445 322.776,154.042 364.210 C 169.510 379.618,182.167 392.325,182.167 392.446 C 182.167 392.567,182.232 392.667,182.311 392.667 C 182.390 392.667,182.887 393.082,183.416 393.590 C 183.944 394.097,184.412 394.477,184.456 394.433 C 184.499 394.390,184.704 394.537,184.912 394.760 C 185.119 394.984,185.370 395.167,185.469 395.167 C 185.569 395.167,185.710 395.260,185.783 395.375 C 186.012 395.732,186.593 396.140,186.436 395.833 C 186.366 395.696,186.448 395.733,186.618 395.917 C 186.789 396.100,187.038 396.274,187.172 396.304 C 187.307 396.334,187.567 396.493,187.750 396.658 C 187.933 396.823,188.196 396.919,188.333 396.873 C 188.471 396.826,188.528 396.847,188.461 396.919 C 188.299 397.092,189.150 397.530,189.376 397.390 C 189.487 397.322,189.501 397.364,189.415 397.503 C 189.316 397.663,189.355 397.694,189.556 397.617 C 189.709 397.558,189.833 397.577,189.833 397.659 C 189.833 397.740,190.077 397.859,190.375 397.922 C 190.673 397.985,191.048 398.153,191.208 398.294 C 191.369 398.436,191.500 398.493,191.500 398.422 C 191.500 398.351,191.614 398.387,191.754 398.503 C 191.894 398.619,192.054 398.669,192.109 398.613 C 192.165 398.557,192.369 398.598,192.564 398.703 C 192.875 398.871,194.124 399.224,195.083 399.414 C 195.267 399.450,195.679 399.544,196.000 399.621 C 196.321 399.699,196.808 399.753,197.083 399.742 C 197.358 399.731,197.658 399.774,197.750 399.837 C 197.960 399.982,203.167 399.999,203.167 399.855 C 203.167 399.745,203.863 399.667,204.792 399.673 C 205.090 399.675,205.333 399.619,205.333 399.547 C 205.333 399.475,205.540 399.408,205.792 399.398 C 206.190 399.381,206.466 399.325,207.250 399.099 C 207.342 399.073,207.628 398.965,207.886 398.859 C 208.144 398.753,208.533 398.667,208.751 398.667 C 208.969 398.667,209.186 398.603,209.235 398.525 C 209.283 398.447,209.681 398.249,210.120 398.085 C 210.558 397.922,211.035 397.685,211.180 397.560 C 211.325 397.435,211.494 397.383,211.555 397.444 C 211.617 397.505,211.667 397.464,211.667 397.351 C 211.667 397.239,211.742 397.193,211.833 397.250 C 211.925 397.307,212.000 397.276,212.000 397.182 C 212.000 397.088,212.125 397.058,212.277 397.117 C 212.464 397.188,212.515 397.159,212.434 397.028 C 212.359 396.906,212.430 396.833,212.625 396.833 C 212.797 396.833,213.098 396.683,213.295 396.500 C 213.492 396.317,213.763 396.167,213.897 396.167 C 214.031 396.167,214.353 395.992,214.612 395.778 C 214.871 395.565,215.219 395.340,215.386 395.280 C 215.563 395.215,215.638 395.088,215.567 394.973 C 215.483 394.838,215.537 394.812,215.738 394.889 C 215.945 394.968,216.056 394.906,216.115 394.678 C 216.162 394.500,216.418 394.278,216.683 394.186 C 216.949 394.093,217.167 393.909,217.167 393.777 C 217.167 393.546,217.612 393.251,217.875 393.307 C 217.944 393.321,218.000 393.255,218.000 393.160 C 218.000 393.064,218.161 392.820,218.358 392.618 C 218.555 392.416,218.672 392.325,218.618 392.417 C 218.564 392.508,235.672 375.424,256.635 354.451 C 277.598 333.478,316.969 294.105,344.125 266.956 C 371.281 239.807,393.500 217.506,393.500 217.399 C 393.500 217.292,393.688 217.082,393.917 216.932 C 394.146 216.782,394.333 216.580,394.333 216.484 C 394.333 216.240,394.771 215.827,394.897 215.952 C 394.954 216.009,395.000 215.963,395.000 215.849 C 395.000 215.736,395.113 215.530,395.252 215.391 C 395.390 215.253,395.459 215.069,395.406 214.982 C 395.352 214.896,395.398 214.846,395.507 214.871 C 395.616 214.896,395.728 214.787,395.754 214.628 C 395.781 214.470,395.923 214.220,396.070 214.073 C 396.216 213.927,396.299 213.746,396.253 213.672 C 396.208 213.598,396.282 213.445,396.419 213.332 C 396.555 213.219,396.667 213.034,396.667 212.922 C 396.667 212.810,396.855 212.501,397.084 212.234 C 397.314 211.968,397.466 211.656,397.423 211.542 C 397.379 211.427,397.429 211.333,397.533 211.333 C 397.637 211.333,397.676 211.288,397.621 211.232 C 397.565 211.176,397.705 210.835,397.932 210.475 C 398.159 210.115,398.301 209.749,398.246 209.660 C 398.192 209.572,398.208 209.500,398.283 209.500 C 398.449 209.500,398.820 208.445,398.914 207.706 C 398.952 207.407,399.029 207.088,399.084 206.998 C 399.222 206.776,399.370 206.163,399.395 205.708 C 399.407 205.502,399.457 205.333,399.506 205.333 C 399.555 205.333,399.608 205.202,399.623 205.042 C 399.638 204.881,399.697 204.338,399.754 203.833 C 399.920 202.371,399.949 198.161,399.800 197.250 C 399.725 196.792,399.632 196.192,399.594 195.917 C 399.555 195.642,399.483 195.304,399.433 195.167 C 399.384 195.029,399.307 194.729,399.263 194.500 C 399.220 194.271,399.139 193.896,399.083 193.667 C 399.028 193.438,398.945 193.063,398.898 192.833 C 398.852 192.604,398.743 192.392,398.656 192.361 C 398.569 192.330,398.539 192.239,398.589 192.158 C 398.639 192.077,398.538 191.689,398.364 191.297 C 397.891 190.224,397.778 189.928,397.802 189.808 C 397.813 189.748,397.713 189.607,397.578 189.496 C 397.443 189.384,397.333 189.199,397.333 189.085 C 397.333 188.971,397.166 188.666,396.961 188.405 C 396.748 188.134,396.694 187.988,396.836 188.062 C 396.972 188.133,396.945 188.078,396.775 187.940 C 396.605 187.802,396.516 187.609,396.576 187.511 C 396.637 187.413,396.621 187.333,396.541 187.333 C 396.460 187.333,396.226 187.033,396.020 186.667 C 395.814 186.300,395.575 186.000,395.489 186.000 C 395.404 186.000,395.351 185.944,395.372 185.875 C 395.436 185.664,394.781 184.679,394.636 184.769 C 394.561 184.815,394.500 184.763,394.500 184.654 C 394.500 184.544,394.317 184.285,394.094 184.078 C 393.870 183.871,393.723 183.666,393.767 183.622 C 393.811 183.578,393.636 183.363,393.377 183.146 C 393.118 182.928,392.872 182.692,392.828 182.621 C 392.659 182.343,216.667 6.338,216.667 6.447 C 216.667 6.511,216.573 6.447,216.458 6.304 C 216.163 5.937,214.275 4.580,214.125 4.627 C 214.056 4.649,214.000 4.592,214.000 4.500 C 214.000 4.408,213.891 4.333,213.758 4.333 C 213.625 4.333,213.440 4.202,213.347 4.042 C 213.253 3.881,213.175 3.823,213.172 3.912 C 213.169 4.001,213.049 3.906,212.905 3.701 C 212.761 3.496,212.579 3.368,212.500 3.417 C 212.421 3.465,212.309 3.428,212.250 3.333 C 212.191 3.239,212.074 3.204,211.988 3.257 C 211.903 3.310,211.833 3.279,211.833 3.189 C 211.833 3.098,211.402 2.825,210.875 2.581 C 210.348 2.336,209.629 1.992,209.278 1.814 C 208.927 1.637,208.552 1.508,208.445 1.527 C 208.100 1.590,207.161 1.311,207.247 1.171 C 207.350 1.005,206.546 0.785,206.329 0.919 C 206.244 0.972,206.017 0.932,205.826 0.829 C 205.454 0.630,205.048 0.522,204.250 0.407 C 203.975 0.368,203.525 0.294,203.250 0.243 C 202.656 0.133,197.052 0.003,196.958 0.097 " stroke="none" fill="#dc4c34" fill-rule="evenodd"></path><path id="path1" d="M227.167 16.917 C 232.254 22.004,236.453 26.167,236.499 26.167 C 236.545 26.167,232.420 22.004,227.333 16.917 C 222.246 11.829,218.047 7.667,218.001 7.667 C 217.955 7.667,222.080 11.829,227.167 16.917 M119.666 69.125 L 112.250 76.583 119.708 69.167 C 123.810 65.089,127.167 61.732,127.167 61.709 C 127.167 61.592,126.559 62.193,119.666 69.125 M291.833 81.583 C 301.687 91.438,309.787 99.500,309.833 99.500 C 309.879 99.500,301.854 91.438,292.000 81.583 C 282.146 71.729,274.046 63.667,274.001 63.667 C 273.955 63.667,281.979 71.729,291.833 81.583 M167.917 102.333 C 168.368 102.792,168.775 103.167,168.821 103.167 C 168.867 103.167,168.535 102.792,168.083 102.333 C 167.632 101.875,167.225 101.500,167.179 101.500 C 167.133 101.500,167.465 101.875,167.917 102.333 M53.416 135.375 L 44.417 144.417 53.458 135.417 C 61.863 127.052,62.575 126.333,62.458 126.333 C 62.435 126.333,58.366 130.402,53.416 135.375 M40.577 148.208 L 39.750 149.083 40.625 148.256 C 41.106 147.801,41.500 147.408,41.500 147.381 C 41.500 147.257,41.346 147.395,40.577 148.208 M30.999 157.792 L 22.417 166.417 31.042 157.834 C 39.059 149.856,39.742 149.167,39.624 149.167 C 39.601 149.167,35.720 153.048,30.999 157.792 M214.410 156.917 C 214.410 161.225,214.432 163.011,214.458 160.886 C 214.485 158.762,214.485 155.237,214.458 153.053 C 214.432 150.870,214.410 152.608,214.410 156.917 M214.372 171.833 C 214.372 172.154,214.406 172.285,214.448 172.125 C 214.490 171.965,214.490 171.702,214.448 171.542 C 214.406 171.381,214.372 171.512,214.372 171.833 M214.405 207.417 C 214.405 209.617,214.429 210.494,214.458 209.365 C 214.487 208.237,214.487 206.437,214.458 205.365 C 214.429 204.294,214.405 205.217,214.405 207.417 M386.740 224.375 L 386.250 224.917 386.792 224.427 C 387.297 223.971,387.410 223.833,387.281 223.833 C 387.252 223.833,387.009 224.077,386.740 224.375 M365.916 245.208 L 353.583 257.583 365.958 245.250 C 372.765 238.467,378.333 232.899,378.333 232.875 C 378.333 232.759,377.381 233.704,365.916 245.208 M214.410 250.167 C 214.410 254.429,214.432 256.173,214.458 254.042 C 214.485 251.910,214.485 248.423,214.458 246.292 C 214.432 244.160,214.410 245.904,214.410 250.167 M346.162 264.958 L 345.083 266.083 346.208 265.005 C 347.253 264.003,347.410 263.833,347.287 263.833 C 347.261 263.833,346.755 264.340,346.162 264.958 M344.406 266.708 L 343.917 267.250 344.458 266.760 C 344.963 266.304,345.077 266.167,344.948 266.167 C 344.919 266.167,344.675 266.410,344.406 266.708 M342.579 268.542 L 341.417 269.750 342.625 268.588 C 343.747 267.508,343.909 267.333,343.787 267.333 C 343.762 267.333,343.218 267.877,342.579 268.542 M340.658 270.458 L 340.083 271.083 340.708 270.509 C 341.052 270.193,341.333 269.912,341.333 269.884 C 341.333 269.757,341.192 269.877,340.658 270.458 M339.324 271.792 L 338.750 272.417 339.375 271.842 C 339.719 271.526,340.000 271.245,340.000 271.217 C 340.000 271.090,339.859 271.210,339.324 271.792 M337.246 273.875 L 335.917 275.250 337.292 273.921 C 338.569 272.686,338.743 272.500,338.621 272.500 C 338.596 272.500,337.977 273.119,337.246 273.875 M335.158 275.958 L 334.583 276.583 335.208 276.009 C 335.552 275.693,335.833 275.412,335.833 275.384 C 335.833 275.257,335.692 275.377,335.158 275.958 M333.742 277.375 L 333.083 278.083 333.792 277.425 C 334.450 276.812,334.577 276.667,334.450 276.667 C 334.423 276.667,334.105 276.985,333.742 277.375 M332.242 278.875 L 331.583 279.583 332.292 278.925 C 332.950 278.312,333.077 278.167,332.950 278.167 C 332.923 278.167,332.605 278.485,332.242 278.875 M330.824 280.292 L 330.250 280.917 330.875 280.342 C 331.219 280.026,331.500 279.745,331.500 279.717 C 331.500 279.590,331.359 279.710,330.824 280.292 M329.409 281.708 L 328.750 282.417 329.458 281.758 C 330.117 281.145,330.243 281.000,330.117 281.000 C 330.090 281.000,329.771 281.319,329.409 281.708 M327.909 283.208 L 327.250 283.917 327.958 283.258 C 328.617 282.645,328.743 282.500,328.617 282.500 C 328.590 282.500,328.271 282.819,327.909 283.208 M129.750 340.167 C 142.583 353.000,153.120 363.500,153.166 363.500 C 153.212 363.500,142.750 353.000,129.917 340.167 C 117.084 327.333,106.546 316.833,106.500 316.833 C 106.455 316.833,116.917 327.333,129.750 340.167 " stroke="none" fill="#e44c36" fill-rule="evenodd"></path><path id="path2" d="M163.000 25.792 L 144.917 43.917 163.042 25.834 C 179.892 9.022,181.241 7.667,181.125 7.667 C 181.102 7.667,172.945 15.823,163.000 25.792 M76.333 112.458 L 65.417 123.417 76.375 112.500 C 82.402 106.497,87.333 101.565,87.333 101.542 C 87.333 101.425,86.480 102.272,76.333 112.458 M312.583 102.333 C 313.035 102.792,313.442 103.167,313.487 103.167 C 313.533 103.167,313.201 102.792,312.750 102.333 C 312.299 101.875,311.892 101.500,311.846 101.500 C 311.800 101.500,312.132 101.875,312.583 102.333 M343.667 133.417 C 344.442 134.196,345.113 134.833,345.159 134.833 C 345.205 134.833,344.608 134.196,343.833 133.417 C 343.058 132.637,342.387 132.000,342.341 132.000 C 342.295 132.000,342.892 132.637,343.667 133.417 M364.667 154.417 C 374.796 164.546,383.120 172.833,383.166 172.833 C 383.212 172.833,374.962 164.546,364.833 154.417 C 354.704 144.287,346.380 136.000,346.334 136.000 C 346.288 136.000,354.538 144.287,364.667 154.417 M225.667 160.250 C 231.762 166.346,236.787 171.333,236.832 171.333 C 236.878 171.333,231.929 166.346,225.833 160.250 C 219.738 154.154,214.713 149.167,214.668 149.167 C 214.622 149.167,219.571 154.154,225.667 160.250 M214.404 168.000 C 214.404 169.879,214.428 170.648,214.458 169.708 C 214.487 168.769,214.487 167.231,214.458 166.292 C 214.428 165.352,214.404 166.121,214.404 168.000 M16.667 172.083 C 16.262 172.496,15.968 172.833,16.014 172.833 C 16.060 172.833,16.428 172.496,16.833 172.083 C 17.238 171.671,17.532 171.333,17.486 171.333 C 17.440 171.333,17.072 171.671,16.667 172.083 M214.412 184.167 C 214.412 190.721,214.433 193.402,214.458 190.125 C 214.484 186.848,214.484 181.485,214.458 178.208 C 214.433 174.931,214.412 177.612,214.412 184.167 M243.000 177.583 C 243.311 177.904,243.603 178.167,243.649 178.167 C 243.695 178.167,243.478 177.904,243.167 177.583 C 242.856 177.262,242.564 177.000,242.518 177.000 C 242.472 177.000,242.689 177.262,243.000 177.583 M214.407 237.667 C 214.407 240.371,214.430 241.477,214.458 240.125 C 214.486 238.773,214.486 236.560,214.458 235.208 C 214.430 233.856,214.407 234.963,214.407 237.667 M72.750 283.167 C 73.108 283.533,73.438 283.833,73.484 283.833 C 73.530 283.833,73.275 283.533,72.917 283.167 C 72.559 282.800,72.228 282.500,72.182 282.500 C 72.137 282.500,72.392 282.800,72.750 283.167 M273.000 338.125 L 218.750 392.417 273.042 338.167 C 302.902 308.329,327.333 283.898,327.333 283.875 C 327.333 283.759,323.440 287.646,273.000 338.125 M74.250 284.667 C 74.608 285.033,74.938 285.333,74.984 285.333 C 75.030 285.333,74.775 285.033,74.417 284.667 C 74.059 284.300,73.728 284.000,73.682 284.000 C 73.637 284.000,73.892 284.300,74.250 284.667 M76.417 286.833 C 77.146 287.567,77.780 288.167,77.826 288.167 C 77.871 288.167,77.312 287.567,76.583 286.833 C 75.854 286.100,75.220 285.500,75.174 285.500 C 75.129 285.500,75.688 286.100,76.417 286.833 M78.583 289.000 C 78.941 289.367,79.272 289.667,79.318 289.667 C 79.363 289.667,79.108 289.367,78.750 289.000 C 78.392 288.633,78.062 288.333,78.016 288.333 C 77.970 288.333,78.225 288.633,78.583 289.000 M80.083 290.500 C 80.441 290.867,80.772 291.167,80.818 291.167 C 80.863 291.167,80.608 290.867,80.250 290.500 C 79.892 290.133,79.562 289.833,79.516 289.833 C 79.470 289.833,79.725 290.133,80.083 290.500 M81.500 291.917 C 81.811 292.237,82.103 292.500,82.149 292.500 C 82.195 292.500,81.978 292.237,81.667 291.917 C 81.356 291.596,81.064 291.333,81.018 291.333 C 80.972 291.333,81.189 291.596,81.500 291.917 M82.917 293.333 C 83.275 293.700,83.605 294.000,83.651 294.000 C 83.697 294.000,83.441 293.700,83.083 293.333 C 82.725 292.967,82.395 292.667,82.349 292.667 C 82.303 292.667,82.559 292.967,82.917 293.333 M85.083 295.500 C 85.812 296.233,86.446 296.833,86.492 296.833 C 86.538 296.833,85.979 296.233,85.250 295.500 C 84.521 294.767,83.887 294.167,83.841 294.167 C 83.795 294.167,84.354 294.767,85.083 295.500 M87.167 297.583 C 87.478 297.904,87.770 298.167,87.815 298.167 C 87.861 298.167,87.644 297.904,87.333 297.583 C 87.022 297.262,86.730 297.000,86.685 297.000 C 86.639 297.000,86.856 297.262,87.167 297.583 M88.500 298.917 C 88.811 299.237,89.103 299.500,89.149 299.500 C 89.195 299.500,88.978 299.237,88.667 298.917 C 88.356 298.596,88.064 298.333,88.018 298.333 C 87.972 298.333,88.189 298.596,88.500 298.917 M89.833 300.250 C 90.144 300.571,90.436 300.833,90.482 300.833 C 90.528 300.833,90.311 300.571,90.000 300.250 C 89.689 299.929,89.397 299.667,89.351 299.667 C 89.305 299.667,89.522 299.929,89.833 300.250 M91.167 301.583 C 91.478 301.904,91.770 302.167,91.815 302.167 C 91.861 302.167,91.644 301.904,91.333 301.583 C 91.022 301.262,90.730 301.000,90.685 301.000 C 90.639 301.000,90.856 301.262,91.167 301.583 M92.000 302.385 C 92.000 302.414,92.244 302.658,92.542 302.927 L 93.083 303.417 92.594 302.875 C 92.138 302.370,92.000 302.257,92.000 302.385 M93.667 304.083 C 93.978 304.404,94.270 304.667,94.315 304.667 C 94.361 304.667,94.144 304.404,93.833 304.083 C 93.522 303.762,93.230 303.500,93.185 303.500 C 93.139 303.500,93.356 303.762,93.667 304.083 M94.500 304.885 C 94.500 304.914,94.744 305.158,95.042 305.427 L 95.583 305.917 95.094 305.375 C 94.638 304.870,94.500 304.757,94.500 304.885 M95.667 306.052 C 95.667 306.081,95.910 306.325,96.208 306.594 L 96.750 307.083 96.260 306.542 C 95.804 306.037,95.667 305.923,95.667 306.052 M167.500 377.917 C 175.429 385.846,181.953 392.333,181.999 392.333 C 182.045 392.333,175.595 385.846,167.667 377.917 C 159.738 369.988,153.213 363.500,153.167 363.500 C 153.122 363.500,159.571 369.988,167.500 377.917 " stroke="none" fill="#dc4c3c" fill-rule="evenodd"></path><path id="path3" d="M207.667 1.392 C 207.987 1.519,208.281 1.595,208.319 1.561 C 208.452 1.444,208.222 1.336,207.655 1.250 L 207.083 1.162 207.667 1.392 M163.250 25.667 L 145.251 43.750 163.327 25.715 C 173.269 15.796,181.368 7.659,181.326 7.632 C 181.284 7.605,173.150 15.721,163.250 25.667 M153.750 52.667 C 158.608 57.525,162.620 61.500,162.665 61.500 C 162.711 61.500,158.774 57.525,153.917 52.667 C 149.059 47.808,145.047 43.833,145.001 43.833 C 144.955 43.833,148.892 47.808,153.750 52.667 M162.833 61.598 C 162.833 61.682,168.815 67.713,176.125 75.000 L 189.417 88.250 176.167 74.923 C 168.879 67.594,162.898 61.563,162.875 61.521 C 162.852 61.479,162.833 61.513,162.833 61.598 M106.416 82.375 L 100.583 88.250 106.458 82.418 C 111.919 76.997,112.408 76.500,112.291 76.500 C 112.267 76.500,109.624 79.144,106.416 82.375 M151.750 86.167 C 152.847 87.267,153.782 88.167,153.828 88.167 C 153.874 88.167,153.014 87.267,151.917 86.167 C 150.820 85.067,149.884 84.167,149.839 84.167 C 149.793 84.167,150.653 85.067,151.750 86.167 M189.503 88.257 C 189.501 88.352,189.838 88.762,190.250 89.167 C 191.220 90.119,191.222 89.914,190.253 88.880 C 189.842 88.442,189.504 88.161,189.503 88.257 M213.740 91.089 C 213.918 91.223,214.143 91.331,214.240 91.328 C 214.337 91.325,214.271 91.213,214.093 91.078 C 213.915 90.943,213.690 90.836,213.593 90.839 C 213.496 90.842,213.562 90.954,213.740 91.089 M95.740 93.042 L 95.250 93.583 95.792 93.094 C 96.090 92.825,96.333 92.581,96.333 92.552 C 96.333 92.423,96.196 92.537,95.740 93.042 M158.167 92.552 C 158.167 92.581,158.410 92.825,158.708 93.094 L 159.250 93.583 158.760 93.042 C 158.304 92.537,158.167 92.423,158.167 92.552 M227.500 103.747 C 227.500 103.802,227.659 104.013,227.854 104.215 L 228.208 104.583 228.020 104.218 C 227.834 103.856,227.500 103.554,227.500 103.747 M230.814 112.703 C 230.890 113.166,230.914 113.189,230.966 112.856 C 231.000 112.639,230.960 112.393,230.876 112.309 C 230.783 112.216,230.759 112.372,230.814 112.703 M55.917 133.000 C 52.343 136.575,49.456 139.500,49.502 139.500 C 49.547 139.500,52.509 136.575,56.083 133.000 C 59.657 129.425,62.544 126.500,62.498 126.500 C 62.453 126.500,59.491 129.425,55.917 133.000 M174.838 135.051 C 174.835 135.124,175.021 135.460,175.250 135.798 C 175.520 136.195,175.667 136.309,175.667 136.122 C 175.667 135.963,175.609 135.833,175.539 135.833 C 175.468 135.833,175.283 135.627,175.126 135.375 C 174.970 135.123,174.840 134.977,174.838 135.051 M47.906 141.042 L 47.417 141.583 47.958 141.094 C 48.463 140.638,48.577 140.500,48.448 140.500 C 48.419 140.500,48.175 140.744,47.906 141.042 M40.744 148.208 L 39.917 149.083 40.792 148.256 C 41.273 147.801,41.667 147.408,41.667 147.381 C 41.667 147.257,41.512 147.395,40.744 148.208 M31.083 157.875 L 22.417 166.583 31.125 157.917 C 39.220 149.862,39.908 149.167,39.791 149.167 C 39.768 149.167,35.849 153.085,31.083 157.875 M237.326 172.042 C 238.017 172.778,238.167 172.910,238.167 172.785 C 238.167 172.758,237.810 172.402,237.375 171.993 L 236.583 171.250 237.326 172.042 M300.500 176.226 C 300.500 176.354,301.676 177.046,301.757 176.965 C 301.797 176.925,301.530 176.724,301.165 176.519 C 300.799 176.313,300.500 176.182,300.500 176.226 M256.003 214.264 C 256.004 214.440,256.081 214.696,256.174 214.833 C 256.298 215.016,256.313 214.948,256.232 214.583 C 256.095 213.971,255.999 213.837,256.003 214.264 M13.500 223.885 C 13.500 223.914,13.744 224.158,14.042 224.427 L 14.583 224.917 14.094 224.375 C 13.638 223.870,13.500 223.757,13.500 223.885 M22.500 232.879 C 22.500 232.904,23.081 233.486,23.792 234.171 L 25.083 235.417 23.838 234.125 C 22.680 232.925,22.500 232.757,22.500 232.879 M179.830 262.921 C 179.518 263.296,179.699 263.340,180.071 262.978 C 180.247 262.807,180.313 262.667,180.216 262.667 C 180.120 262.667,179.946 262.781,179.830 262.921 M175.109 268.701 C 174.974 269.219,175.077 269.245,175.303 268.751 C 175.407 268.521,175.428 268.333,175.349 268.333 C 175.270 268.333,175.162 268.499,175.109 268.701 M228.556 272.238 C 228.661 272.460,228.773 272.616,228.805 272.584 C 228.909 272.480,228.649 271.833,228.504 271.833 C 228.428 271.833,228.451 272.015,228.556 272.238 M214.333 312.917 C 214.104 313.048,213.785 313.158,213.625 313.161 C 213.465 313.164,213.333 313.243,213.333 313.336 C 213.333 313.435,213.571 313.405,213.915 313.261 C 214.662 312.950,215.130 312.677,214.917 312.678 C 214.825 312.678,214.563 312.786,214.333 312.917 M170.334 380.583 C 176.796 387.092,182.118 392.395,182.160 392.368 C 182.202 392.341,176.914 387.016,170.410 380.535 L 158.585 368.750 170.334 380.583 M190.253 398.004 C 190.294 398.072,190.515 398.162,190.742 398.206 C 190.970 398.250,191.122 398.230,191.081 398.162 C 191.039 398.095,190.819 398.004,190.591 397.961 C 190.363 397.917,190.211 397.937,190.253 398.004 " stroke="none" fill="#e04c34" fill-rule="evenodd"></path><path id="path4" d="M207.667 1.392 C 207.987 1.519,208.281 1.595,208.319 1.561 C 208.452 1.444,208.222 1.336,207.655 1.250 L 207.083 1.162 207.667 1.392 M163.250 25.667 L 145.251 43.750 163.327 25.715 C 173.269 15.796,181.368 7.659,181.326 7.632 C 181.284 7.605,173.150 15.721,163.250 25.667 M153.750 52.667 C 158.608 57.525,162.620 61.500,162.665 61.500 C 162.711 61.500,158.774 57.525,153.917 52.667 C 149.059 47.808,145.047 43.833,145.001 43.833 C 144.955 43.833,148.892 47.808,153.750 52.667 M162.833 61.598 C 162.833 61.682,168.815 67.713,176.125 75.000 L 189.417 88.250 176.167 74.923 C 168.879 67.594,162.898 61.563,162.875 61.521 C 162.852 61.479,162.833 61.513,162.833 61.598 M106.416 82.375 L 100.583 88.250 106.458 82.418 C 111.919 76.997,112.408 76.500,112.291 76.500 C 112.267 76.500,109.624 79.144,106.416 82.375 M151.750 86.167 C 152.847 87.267,153.782 88.167,153.828 88.167 C 153.874 88.167,153.014 87.267,151.917 86.167 C 150.820 85.067,149.884 84.167,149.839 84.167 C 149.793 84.167,150.653 85.067,151.750 86.167 M189.503 88.257 C 189.501 88.352,189.838 88.762,190.250 89.167 C 191.220 90.119,191.222 89.914,190.253 88.880 C 189.842 88.442,189.504 88.161,189.503 88.257 M213.740 91.089 C 213.918 91.223,214.143 91.331,214.240 91.328 C 214.337 91.325,214.271 91.213,214.093 91.078 C 213.915 90.943,213.690 90.836,213.593 90.839 C 213.496 90.842,213.562 90.954,213.740 91.089 M95.740 93.042 L 95.250 93.583 95.792 93.094 C 96.090 92.825,96.333 92.581,96.333 92.552 C 96.333 92.423,96.196 92.537,95.740 93.042 M158.167 92.552 C 158.167 92.581,158.410 92.825,158.708 93.094 L 159.250 93.583 158.760 93.042 C 158.304 92.537,158.167 92.423,158.167 92.552 M227.500 103.747 C 227.500 103.802,227.659 104.013,227.854 104.215 L 228.208 104.583 228.020 104.218 C 227.834 103.856,227.500 103.554,227.500 103.747 M230.814 112.703 C 230.890 113.166,230.914 113.189,230.966 112.856 C 231.000 112.639,230.960 112.393,230.876 112.309 C 230.783 112.216,230.759 112.372,230.814 112.703 M55.917 133.000 C 52.343 136.575,49.456 139.500,49.502 139.500 C 49.547 139.500,52.509 136.575,56.083 133.000 C 59.657 129.425,62.544 126.500,62.498 126.500 C 62.453 126.500,59.491 129.425,55.917 133.000 M174.838 135.051 C 174.835 135.124,175.021 135.460,175.250 135.798 C 175.520 136.195,175.667 136.309,175.667 136.122 C 175.667 135.963,175.609 135.833,175.539 135.833 C 175.468 135.833,175.283 135.627,175.126 135.375 C 174.970 135.123,174.840 134.977,174.838 135.051 M47.906 141.042 L 47.417 141.583 47.958 141.094 C 48.463 140.638,48.577 140.500,48.448 140.500 C 48.419 140.500,48.175 140.744,47.906 141.042 M40.744 148.208 L 39.917 149.083 40.792 148.256 C 41.273 147.801,41.667 147.408,41.667 147.381 C 41.667 147.257,41.512 147.395,40.744 148.208 M31.083 157.875 L 22.417 166.583 31.125 157.917 C 39.220 149.862,39.908 149.167,39.791 149.167 C 39.768 149.167,35.849 153.085,31.083 157.875 M237.326 172.042 C 238.017 172.778,238.167 172.910,238.167 172.785 C 238.167 172.758,237.810 172.402,237.375 171.993 L 236.583 171.250 237.326 172.042 M300.500 176.226 C 300.500 176.354,301.676 177.046,301.757 176.965 C 301.797 176.925,301.530 176.724,301.165 176.519 C 300.799 176.313,300.500 176.182,300.500 176.226 M256.003 214.264 C 256.004 214.440,256.081 214.696,256.174 214.833 C 256.298 215.016,256.313 214.948,256.232 214.583 C 256.095 213.971,255.999 213.837,256.003 214.264 M13.500 223.885 C 13.500 223.914,13.744 224.158,14.042 224.427 L 14.583 224.917 14.094 224.375 C 13.638 223.870,13.500 223.757,13.500 223.885 M22.500 232.879 C 22.500 232.904,23.081 233.486,23.792 234.171 L 25.083 235.417 23.838 234.125 C 22.680 232.925,22.500 232.757,22.500 232.879 M179.830 262.921 C 179.518 263.296,179.699 263.340,180.071 262.978 C 180.247 262.807,180.313 262.667,180.216 262.667 C 180.120 262.667,179.946 262.781,179.830 262.921 M175.109 268.701 C 174.974 269.219,175.077 269.245,175.303 268.751 C 175.407 268.521,175.428 268.333,175.349 268.333 C 175.270 268.333,175.162 268.499,175.109 268.701 M228.556 272.238 C 228.661 272.460,228.773 272.616,228.805 272.584 C 228.909 272.480,228.649 271.833,228.504 271.833 C 228.428 271.833,228.451 272.015,228.556 272.238 M214.333 312.917 C 214.104 313.048,213.785 313.158,213.625 313.161 C 213.465 313.164,213.333 313.243,213.333 313.336 C 213.333 313.435,213.571 313.405,213.915 313.261 C 214.662 312.950,215.130 312.677,214.917 312.678 C 214.825 312.678,214.563 312.786,214.333 312.917 M170.334 380.583 C 176.796 387.092,182.118 392.395,182.160 392.368 C 182.202 392.341,176.914 387.016,170.410 380.535 L 158.585 368.750 170.334 380.583 M190.253 398.004 C 190.294 398.072,190.515 398.162,190.742 398.206 C 190.970 398.250,191.122 398.230,191.081 398.162 C 191.039 398.095,190.819 398.004,190.591 397.961 C 190.363 397.917,190.211 397.937,190.253 398.004 " stroke="none" fill="#e04c34" fill-rule="evenodd"></path></g></svg>