<svg id="svg" version="1.1" xmlns="http://www.w3.org/2000/svg" xmlns:xlink="http://www.w3.org/1999/xlink" width="400" height="400" viewBox="0, 0, 400,400"><g id="svgg"><path id="path0" d="M191.406 75.213 C 173.907 76.439,156.623 81.405,141.309 89.607 C 71.244 127.132,53.512 219.147,104.543 280.390 C 145.036 328.985,215.495 339.463,268.259 304.735 C 331.002 263.441,343.773 176.977,295.626 119.453 C 270.160 89.027,231.072 72.435,191.406 75.213 M210.254 95.208 C 281.613 102.670,324.699 176.166,296.247 241.895 C 285.847 265.920,264.564 287.077,239.746 298.060 C 237.143 299.212,232.826 300.968,231.885 301.258 L 231.445 301.394 231.445 291.252 C 231.445 278.154,231.181 275.011,229.740 271.000 C 228.262 266.885,225.289 262.721,222.306 260.590 L 221.467 259.991 222.599 259.861 C 257.577 255.833,274.301 240.204,277.042 208.984 C 278.496 192.414,275.220 180.102,266.656 169.959 L 265.121 168.140 265.656 166.541 C 268.371 158.415,268.003 147.953,264.671 138.493 C 263.710 135.764,264.138 136.032,260.774 136.051 C 253.544 136.091,244.130 139.811,233.041 147.010 L 230.768 148.486 227.347 147.674 C 209.454 143.422,191.267 143.458,173.529 147.780 L 170.593 148.495 168.842 147.358 C 157.292 139.860,147.853 136.085,140.561 136.049 C 137.085 136.032,137.437 135.749,136.212 139.550 C 133.178 148.969,133.034 160.208,135.853 167.453 L 136.147 168.206 135.303 169.113 C 126.256 178.835,122.359 193.448,124.279 210.449 C 127.720 240.928,144.172 255.902,178.564 259.860 L 179.687 259.989 178.760 260.726 C 175.214 263.544,172.479 267.688,171.210 272.168 C 170.084 276.146,170.073 276.296,169.978 289.307 C 169.930 295.940,169.847 301.367,169.793 301.367 C 168.918 301.367,160.311 297.791,155.859 295.578 C 115.767 275.645,92.018 235.094,95.301 192.174 C 99.355 139.166,140.990 98.290,194.434 94.849 C 197.061 94.680,207.460 94.916,210.254 95.208 " stroke="none" fill="#040404" fill-rule="evenodd"></path><path id="path1" d="" stroke="none" fill="#080404" fill-rule="evenodd"></path><path id="path2" d="" stroke="none" fill="#080404" fill-rule="evenodd"></path><path id="path3" d="" stroke="none" fill="#080404" fill-rule="evenodd"></path><path id="path4" d="" stroke="none" fill="#080404" fill-rule="evenodd"></path></g></svg>