<svg id="svg" version="1.1" xmlns="http://www.w3.org/2000/svg" xmlns:xlink="http://www.w3.org/1999/xlink" width="400" height="368.83333333333337" viewBox="0, 0, 400,368.83333333333337"><g id="svgg"><path id="path0" d="M11.941 177.193 C 4.862 199.002,0.538 212.573,0.380 213.475 C -0.492 218.457,1.496 224.016,5.357 227.396 C 6.452 228.354,199.842 368.880,199.936 368.786 C 199.974 368.749,197.696 365.763,194.875 362.151 C 188.702 354.247,188.011 353.361,142.415 294.917 C 122.533 269.433,100.005 240.558,92.352 230.750 C 74.307 207.623,73.742 206.899,46.847 172.417 C 34.264 156.283,23.807 142.919,23.609 142.718 L 23.250 142.352 11.941 177.193 M289.075 254.870 C 240.783 316.770,201.014 367.735,200.699 368.125 C 200.384 368.515,200.192 368.832,200.272 368.830 C 200.426 368.827,392.224 229.494,394.309 227.871 C 398.603 224.527,400.856 218.409,399.769 213.043 C 399.546 211.942,377.134 142.579,376.938 142.382 C 376.905 142.349,337.367 192.969,289.075 254.870 " stroke="none" fill="#fca324" fill-rule="evenodd"></path><path id="path1" d="M23.958 143.125 C 24.319 143.560,34.091 156.067,45.674 170.917 C 57.257 185.767,70.333 202.529,74.732 208.167 C 84.807 221.079,97.189 236.948,142.415 294.917 C 182.908 346.819,187.721 352.987,194.979 362.287 C 198.970 367.400,200.125 368.779,200.281 368.620 C 200.391 368.508,240.154 317.567,288.643 255.417 L 376.805 142.417 325.291 142.375 C 296.959 142.352,273.755 142.356,273.726 142.385 C 273.698 142.413,257.170 193.245,236.998 255.343 C 216.827 317.442,200.278 368.363,200.223 368.500 C 200.092 368.830,195.670 355.258,129.207 150.583 L 126.555 142.417 74.929 142.375 L 23.302 142.333 23.958 143.125 " stroke="none" fill="#fc6c24" fill-rule="evenodd"></path><path id="path2" d="M73.675 0.695 C 71.626 0.987,69.644 2.248,68.552 3.954 C 67.971 4.863,67.396 6.506,64.166 16.500 C 62.206 22.563,60.805 26.880,59.080 32.167 C 58.407 34.229,57.320 37.567,56.666 39.583 C 56.012 41.600,55.411 43.438,55.332 43.667 C 55.253 43.896,54.429 46.446,53.501 49.333 C 52.573 52.221,51.634 55.108,51.415 55.750 C 51.196 56.392,50.182 59.504,49.162 62.667 C 47.209 68.722,44.909 75.797,44.664 76.500 C 44.584 76.729,43.760 79.279,42.833 82.167 C 41.906 85.054,41.005 87.829,40.832 88.333 C 40.659 88.837,39.682 91.837,38.661 95.000 C 37.641 98.162,36.254 102.438,35.581 104.500 C 34.907 106.563,33.820 109.900,33.166 111.917 C 32.512 113.933,31.911 115.771,31.831 116.000 C 31.751 116.229,30.927 118.779,30.000 121.667 C 29.072 124.554,28.134 127.442,27.915 128.083 C 27.574 129.081,24.503 138.586,23.715 141.083 C 23.570 141.542,23.417 142.010,23.375 142.125 C 23.313 142.291,33.743 142.341,74.927 142.375 L 126.555 142.417 129.207 150.583 C 195.665 355.245,200.092 368.830,200.223 368.500 C 200.292 368.327,269.812 154.323,273.437 143.125 L 273.693 142.334 325.317 142.292 L 376.941 142.250 375.959 139.250 C 375.419 137.600,374.495 134.768,373.907 132.958 C 373.319 131.147,372.355 128.184,371.765 126.374 C 371.176 124.564,369.855 120.496,368.830 117.333 C 364.648 104.426,362.630 98.215,362.412 97.583 C 362.285 97.217,361.311 94.217,360.247 90.917 C 359.183 87.617,358.136 84.392,357.920 83.750 C 357.704 83.108,356.766 80.221,355.836 77.333 C 354.906 74.446,353.557 70.283,352.838 68.083 C 352.119 65.883,351.037 62.564,350.434 60.708 C 349.831 58.851,348.855 55.851,348.265 54.041 C 347.676 52.231,346.356 48.163,345.333 45.000 C 344.309 41.837,342.995 37.787,342.414 36.000 C 341.832 34.212,340.857 31.212,340.247 29.333 C 339.637 27.454,339.035 25.617,338.910 25.250 C 338.784 24.883,337.810 21.883,336.745 18.583 C 332.034 3.981,332.051 4.024,330.450 2.548 C 327.145 -0.498,321.516 0.128,319.008 3.822 C 318.547 4.500,318.086 5.551,317.596 7.040 C 316.307 10.957,314.736 15.791,313.004 21.167 C 312.074 24.054,311.134 26.942,310.915 27.583 C 310.696 28.225,309.719 31.225,308.745 34.250 C 307.010 39.641,304.450 47.509,304.164 48.333 C 304.084 48.563,303.260 51.112,302.333 54.000 C 301.406 56.887,300.505 59.663,300.332 60.167 C 300.159 60.671,299.182 63.671,298.161 66.833 C 297.141 69.996,295.754 74.271,295.081 76.333 C 294.407 78.396,293.320 81.733,292.666 83.750 C 292.012 85.767,291.411 87.604,291.331 87.833 C 291.251 88.063,290.426 90.612,289.498 93.500 C 288.570 96.388,287.632 99.275,287.413 99.917 C 287.195 100.558,286.219 103.558,285.245 106.583 C 284.271 109.608,282.922 113.771,282.248 115.833 C 281.573 117.896,280.633 120.783,280.158 122.250 C 279.683 123.717,279.084 125.554,278.828 126.333 C 278.571 127.112,277.597 130.112,276.663 133.000 C 275.729 135.887,274.664 139.169,274.297 140.292 L 273.628 142.334 200.118 142.292 L 126.608 142.250 125.317 138.333 C 124.607 136.179,123.154 131.717,122.088 128.417 C 121.023 125.117,120.047 122.117,119.921 121.750 C 119.794 121.383,118.854 118.496,117.832 115.333 C 116.811 112.171,115.386 107.783,114.667 105.583 C 113.948 103.383,112.487 98.883,111.422 95.583 C 110.356 92.283,109.381 89.283,109.254 88.917 C 109.127 88.550,108.188 85.662,107.166 82.500 C 106.144 79.337,104.721 74.950,104.003 72.750 C 103.285 70.550,102.198 67.212,101.587 65.333 C 100.976 63.454,100.000 60.454,99.418 58.667 C 98.836 56.879,97.523 52.829,96.500 49.667 C 95.476 46.504,94.052 42.117,93.335 39.917 C 90.634 31.632,89.808 29.089,87.920 23.250 C 86.852 19.950,85.803 16.725,85.587 16.083 C 85.371 15.442,84.506 12.779,83.664 10.167 C 81.367 3.042,79.970 1.211,76.471 0.745 C 75.007 0.550,74.728 0.545,73.675 0.695 " stroke="none" fill="#e4442c" fill-rule="evenodd"></path></g></svg>