<svg id="svg" version="1.1" xmlns="http://www.w3.org/2000/svg" xmlns:xlink="http://www.w3.org/1999/xlink" width="400" height="400" viewBox="0, 0, 400,400"><g id="svgg"><path id="path0" d="M192.969 21.262 C 158.261 31.079,56.601 91.453,45.029 109.119 C 34.010 125.942,32.762 259.464,43.359 287.620 C 47.147 297.683,79.323 320.579,128.125 347.937 C 167.356 369.929,190.730 380.080,200.977 379.576 C 224.733 378.405,341.461 311.111,354.931 290.820 C 366.972 272.682,366.972 127.313,354.930 109.174 C 346.627 96.667,292.764 61.788,242.773 36.548 C 214.030 22.035,202.618 18.533,192.969 21.262 M205.615 37.265 C 236.018 47.470,321.705 97.486,339.821 115.602 C 341.848 117.630,342.152 118.156,342.901 120.937 C 350.439 148.942,349.469 268.694,341.594 282.259 C 333.388 296.395,216.263 364.063,200.000 364.063 C 184.157 364.062,69.582 298.244,58.615 282.843 C 49.641 270.239,49.809 128.731,58.812 116.927 C 68.686 103.982,149.117 55.736,187.109 39.969 C 197.496 35.658,199.817 35.319,205.615 37.265 M157.356 86.484 C 151.369 88.622,130.606 108.740,127.482 115.430 C 124.571 121.664,128.168 127.061,135.851 127.987 C 136.985 128.123,137.987 128.356,138.079 128.504 C 138.990 129.978,139.416 225.737,138.640 254.522 C 138.121 273.759,138.168 274.211,140.993 277.421 C 144.018 280.858,144.845 281.031,158.879 281.180 C 180.151 281.405,182.307 279.779,181.601 264.045 C 181.443 260.510,181.183 250.630,181.025 242.090 L 180.736 226.563 199.980 226.563 L 219.225 226.563 218.941 248.926 C 218.613 274.689,218.990 271.698,216.030 272.007 C 208.468 272.798,204.984 278.590,208.199 285.025 C 210.455 289.540,222.960 302.853,230.969 309.267 C 240.581 316.965,243.289 316.069,259.578 299.805 C 269.928 289.470,273.174 284.896,273.187 280.628 C 273.200 275.819,270.193 272.894,264.443 272.124 L 261.392 271.716 261.067 267.596 C 260.567 261.256,260.712 194.170,261.294 162.667 C 262.031 122.821,263.377 125.195,240.039 125.195 C 224.206 125.195,223.912 125.247,220.966 128.523 C 217.988 131.835,218.001 131.520,219.002 176.465 L 219.248 187.500 200.054 187.500 L 180.859 187.500 180.864 173.535 C 180.869 158.920,181.458 133.127,181.857 130.033 L 182.090 128.230 184.441 127.984 C 190.345 127.367,193.520 124.342,193.519 119.336 C 193.517 114.965,190.452 110.786,179.052 99.608 C 166.647 87.446,162.197 84.755,157.356 86.484 M165.625 108.573 L 170.898 113.631 169.618 114.665 C 166.207 117.419,165.899 121.060,165.201 166.877 L 164.744 196.840 165.673 198.693 C 166.184 199.712,167.277 201.082,168.103 201.738 L 169.603 202.930 199.256 203.035 C 234.120 203.158,232.477 203.418,234.389 197.461 C 234.904 195.858,234.690 154.481,234.118 145.143 L 233.873 141.141 239.842 140.871 C 243.125 140.723,245.847 140.651,245.892 140.711 C 245.937 140.771,245.836 147.588,245.667 155.859 C 245.001 188.464,244.789 248.251,245.282 264.844 C 245.831 283.353,245.858 283.499,249.071 285.537 L 250.763 286.610 245.729 291.352 C 242.960 293.960,240.460 296.093,240.172 296.092 C 239.884 296.091,237.383 293.938,234.615 291.307 L 229.581 286.523 231.081 285.547 C 231.974 284.965,232.969 283.812,233.542 282.693 L 234.503 280.815 234.537 248.258 L 234.570 215.701 233.376 214.224 C 230.642 210.841,233.732 211.147,201.046 211.019 C 166.389 210.883,167.757 210.695,165.782 215.865 C 165.114 217.615,165.196 260.223,165.874 263.965 L 166.104 265.234 160.176 265.234 L 154.247 265.234 154.565 246.973 C 154.996 222.225,154.874 170.020,154.322 142.383 C 153.816 117.078,153.869 117.522,151.068 114.992 L 149.447 113.527 154.673 108.521 C 157.547 105.768,160.000 103.516,160.125 103.516 C 160.250 103.516,162.725 105.792,165.625 108.573 " stroke="none" fill="#048c4b" fill-rule="evenodd"></path><path id="path1" d="M194.531 37.478 C 158.642 49.437,61.158 108.255,57.593 120.100 C 50.080 145.059,50.639 266.392,58.337 281.641 C 65.262 295.360,183.229 363.672,199.994 363.672 C 205.102 363.672,227.296 353.957,248.633 342.382 C 267.932 331.912,290.694 318.620,303.711 310.220 C 329.523 293.563,340.994 284.602,342.372 280.018 C 350.455 253.143,349.216 127.109,340.770 117.054 C 336.283 111.712,317.169 98.065,294.922 84.320 C 286.912 79.372,282.489 76.736,271.094 70.123 C 250.052 57.912,224.792 45.078,210.742 39.460 C 201.839 35.900,199.956 35.670,194.531 37.478 M164.383 86.879 C 170.732 90.096,189.877 109.109,192.834 115.133 C 195.837 121.253,192.394 127.045,185.077 128.182 L 182.142 128.639 181.874 134.042 C 181.672 138.134,180.951 175.484,180.870 186.035 L 180.859 187.500 199.859 187.500 L 218.858 187.500 218.511 166.699 C 217.879 128.827,217.713 130.917,221.640 127.460 C 224.359 125.067,224.873 125.000,240.280 125.004 C 255.825 125.008,256.600 125.138,259.160 128.167 C 262.235 131.806,262.140 129.724,261.352 176.172 C 260.968 198.789,260.868 251.282,261.188 262.342 L 261.448 271.363 264.416 271.819 C 274.241 273.328,276.350 280.372,269.636 289.258 C 264.767 295.700,251.391 308.709,245.855 312.385 C 242.824 314.397,239.091 314.684,236.043 313.139 C 229.960 310.057,211.472 291.843,208.057 285.567 C 204.450 278.940,208.067 272.680,216.082 271.679 C 218.894 271.328,218.662 273.427,218.723 247.754 L 218.773 226.563 200.012 226.563 L 181.250 226.563 181.244 235.645 C 181.241 240.640,181.442 250.890,181.691 258.423 C 182.218 274.413,182.147 274.921,178.934 278.135 C 175.917 281.151,175.328 281.250,160.353 281.250 C 138.158 281.250,137.639 280.706,138.289 258.169 C 139.213 226.151,139.061 146.603,138.049 131.985 L 137.816 128.618 135.048 128.161 C 125.724 126.621,123.480 119.344,129.817 111.201 C 135.806 103.506,150.837 89.499,156.049 86.757 C 158.288 85.578,161.922 85.631,164.383 86.879 " stroke="none" fill="#04b464" fill-rule="evenodd"></path><path id="path2" d="M142.749 97.754 L 141.602 99.023 142.871 97.876 C 144.054 96.807,144.320 96.484,144.018 96.484 C 143.951 96.484,143.380 97.056,142.749 97.754 M181.055 101.563 C 183.195 103.711,185.034 105.469,185.142 105.469 C 185.249 105.469,183.586 103.711,181.445 101.563 C 179.305 99.414,177.466 97.656,177.358 97.656 C 177.251 97.656,178.914 99.414,181.055 101.563 M134.155 106.348 L 133.008 107.617 134.277 106.470 C 134.976 105.839,135.547 105.268,135.547 105.200 C 135.547 104.899,135.225 105.164,134.155 106.348 M60.156 115.430 C 59.207 116.396,58.519 117.188,58.626 117.188 C 58.734 117.188,59.598 116.396,60.547 115.430 C 61.496 114.463,62.184 113.672,62.077 113.672 C 61.969 113.672,61.105 114.463,60.156 115.430 M338.672 114.575 C 338.672 114.643,339.243 115.214,339.941 115.845 L 341.211 116.992 340.064 115.723 C 338.994 114.539,338.672 114.274,338.672 114.575 M181.731 131.250 C 181.731 132.002,181.812 132.310,181.910 131.934 C 182.008 131.558,182.008 130.942,181.910 130.566 C 181.812 130.190,181.731 130.498,181.731 131.250 M218.111 137.695 C 218.112 139.844,218.178 140.673,218.257 139.538 C 218.336 138.403,218.336 136.645,218.255 135.631 C 218.175 134.618,218.110 135.547,218.111 137.695 M138.422 141.797 C 138.422 143.838,138.488 144.673,138.568 143.652 C 138.649 142.632,138.649 140.962,138.568 139.941 C 138.488 138.921,138.422 139.756,138.422 141.797 M181.378 140.820 C 181.380 142.324,181.451 142.892,181.535 142.081 C 181.620 141.271,181.618 140.040,181.532 139.347 C 181.446 138.653,181.376 139.316,181.378 140.820 M218.498 154.102 C 218.497 156.035,218.563 156.875,218.645 155.969 C 218.727 155.062,218.728 153.480,218.647 152.453 C 218.566 151.426,218.499 152.168,218.498 154.102 M261.473 155.078 C 261.473 157.334,261.537 158.257,261.616 157.129 C 261.695 156.001,261.695 154.155,261.616 153.027 C 261.537 151.899,261.473 152.822,261.473 155.078 M181.009 158.789 C 181.009 161.367,181.072 162.371,181.149 161.020 C 181.225 159.669,181.225 157.559,181.148 156.332 C 181.070 155.105,181.008 156.211,181.009 158.789 M52.825 158.594 C 52.825 159.346,52.905 159.653,53.004 159.277 C 53.102 158.901,53.102 158.286,53.004 157.910 C 52.905 157.534,52.825 157.842,52.825 158.594 M346.966 158.594 C 346.966 159.346,347.046 159.653,347.144 159.277 C 347.243 158.901,347.243 158.286,347.144 157.910 C 347.046 157.534,346.966 157.842,346.966 158.594 M138.825 164.063 C 138.825 166.963,138.886 168.149,138.962 166.699 C 139.037 165.249,139.037 162.876,138.962 161.426 C 138.886 159.976,138.825 161.162,138.825 164.063 M347.383 167.188 C 347.383 168.369,347.456 168.853,347.545 168.262 C 347.635 167.671,347.635 166.704,347.545 166.113 C 347.456 165.522,347.383 166.006,347.383 167.188 M52.450 167.188 C 52.450 168.154,52.526 168.550,52.619 168.066 C 52.713 167.583,52.713 166.792,52.619 166.309 C 52.526 165.825,52.450 166.221,52.450 167.188 M261.089 178.711 C 261.090 181.504,261.152 182.595,261.228 181.136 C 261.303 179.677,261.302 177.392,261.226 176.058 C 261.150 174.724,261.089 175.918,261.089 178.711 M218.908 181.445 C 218.909 184.883,218.968 186.237,219.041 184.454 C 219.113 182.671,219.113 179.859,219.040 178.204 C 218.967 176.549,218.908 178.008,218.908 181.445 M52.090 180.078 C 52.090 181.904,52.157 182.651,52.239 181.738 C 52.321 180.825,52.321 179.331,52.239 178.418 C 52.157 177.505,52.090 178.252,52.090 180.078 M347.793 180.078 C 347.793 181.904,347.860 182.651,347.942 181.738 C 348.025 180.825,348.025 179.331,347.942 178.418 C 347.860 177.505,347.793 178.252,347.793 180.078 M139.184 200.977 C 139.186 202.266,139.259 202.746,139.346 202.044 C 139.433 201.342,139.431 200.287,139.342 199.700 C 139.252 199.113,139.181 199.688,139.184 200.977 M260.713 212.109 C 260.713 216.729,260.769 218.618,260.838 216.309 C 260.907 213.999,260.907 210.220,260.838 207.910 C 260.769 205.601,260.713 207.490,260.713 212.109 M52.087 220.117 C 52.088 221.836,52.157 222.490,52.240 221.572 C 52.322 220.653,52.321 219.247,52.237 218.447 C 52.153 217.647,52.086 218.398,52.087 220.117 M347.788 219.922 C 347.788 221.533,347.857 222.192,347.941 221.387 C 348.025 220.581,348.025 219.263,347.941 218.457 C 347.857 217.651,347.788 218.311,347.788 219.922 M218.921 237.109 C 218.921 243.018,218.976 245.435,219.042 242.480 C 219.108 239.526,219.108 234.692,219.042 231.738 C 218.976 228.784,218.921 231.201,218.921 237.109 M347.377 232.617 C 347.380 233.691,347.456 234.084,347.546 233.491 C 347.636 232.897,347.633 232.018,347.541 231.538 C 347.448 231.057,347.374 231.543,347.377 232.617 M52.455 233.008 C 52.458 234.082,52.534 234.475,52.624 233.881 C 52.714 233.288,52.711 232.409,52.619 231.928 C 52.526 231.448,52.453 231.934,52.455 233.008 M181.012 240.625 C 181.012 243.525,181.074 244.712,181.149 243.262 C 181.224 241.812,181.224 239.438,181.149 237.988 C 181.074 236.538,181.012 237.725,181.012 240.625 M138.816 241.797 C 138.816 244.053,138.881 244.976,138.960 243.848 C 139.039 242.720,139.039 240.874,138.960 239.746 C 138.881 238.618,138.816 239.541,138.816 241.797 M346.974 241.211 C 346.978 242.070,347.058 242.376,347.151 241.890 C 347.245 241.404,347.241 240.701,347.143 240.327 C 347.046 239.954,346.969 240.352,346.974 241.211 M52.825 241.406 C 52.825 242.158,52.905 242.466,53.004 242.090 C 53.102 241.714,53.102 241.099,53.004 240.723 C 52.905 240.347,52.825 240.654,52.825 241.406 M260.699 249.414 C 260.699 252.207,260.762 253.298,260.837 251.839 C 260.912 250.380,260.912 248.095,260.836 246.761 C 260.760 245.427,260.698 246.621,260.699 249.414 M138.409 258.398 C 138.411 259.902,138.482 260.470,138.566 259.659 C 138.651 258.849,138.649 257.618,138.563 256.925 C 138.477 256.231,138.408 256.895,138.409 258.398 M181.367 257.813 C 181.367 258.994,181.440 259.478,181.530 258.887 C 181.619 258.296,181.619 257.329,181.530 256.738 C 181.440 256.147,181.367 256.631,181.367 257.813 M261.063 265.625 C 261.063 267.021,261.133 267.593,261.220 266.895 C 261.307 266.196,261.307 265.054,261.220 264.355 C 261.133 263.657,261.063 264.229,261.063 265.625 M181.747 267.578 C 181.747 268.545,181.823 268.940,181.916 268.457 C 182.009 267.974,182.009 267.183,181.916 266.699 C 181.823 266.216,181.747 266.611,181.747 267.578 M59.961 284.375 C 60.800 285.234,61.575 285.938,61.682 285.938 C 61.789 285.938,61.191 285.234,60.352 284.375 C 59.512 283.516,58.738 282.813,58.631 282.813 C 58.523 282.813,59.122 283.516,59.961 284.375 M339.624 284.473 L 338.477 285.742 339.746 284.595 C 340.444 283.964,341.016 283.393,341.016 283.325 C 341.016 283.024,340.693 283.289,339.624 284.473 M217.969 297.388 C 217.969 297.455,218.540 298.026,219.238 298.657 L 220.508 299.805 219.361 298.535 C 218.291 297.352,217.969 297.086,217.969 297.388 M254.077 305.176 L 252.930 306.445 254.199 305.298 C 254.897 304.667,255.469 304.096,255.469 304.028 C 255.469 303.727,255.146 303.992,254.077 305.176 " stroke="none" fill="#04a054" fill-rule="evenodd"></path><path id="path3" d="M261.857 138.086 C 261.856 140.020,261.922 140.860,262.004 139.953 C 262.086 139.047,262.087 137.465,262.006 136.438 C 261.926 135.411,261.859 136.152,261.857 138.086 M218.075 142.969 C 218.075 143.936,218.151 144.331,218.244 143.848 C 218.338 143.364,218.338 142.573,218.244 142.090 C 218.151 141.606,218.075 142.002,218.075 142.969 M181.356 144.922 C 181.356 145.889,181.433 146.284,181.526 145.801 C 181.619 145.317,181.619 144.526,181.526 144.043 C 181.433 143.560,181.356 143.955,181.356 144.922 M138.398 147.266 C 138.398 148.447,138.472 148.931,138.561 148.340 C 138.651 147.749,138.651 146.782,138.561 146.191 C 138.472 145.601,138.398 146.084,138.398 147.266 M218.480 159.570 C 218.483 160.859,218.556 161.340,218.642 160.638 C 218.729 159.935,218.728 158.881,218.638 158.294 C 218.549 157.707,218.478 158.281,218.480 159.570 M261.453 161.328 C 261.453 162.725,261.524 163.296,261.611 162.598 C 261.697 161.899,261.697 160.757,261.611 160.059 C 261.524 159.360,261.453 159.932,261.453 161.328 M181.005 167.383 C 181.006 169.746,181.071 170.663,181.148 169.419 C 181.226 168.176,181.226 166.243,181.147 165.122 C 181.068 164.002,181.005 165.020,181.005 167.383 M52.442 170.117 C 52.447 170.977,52.527 171.282,52.620 170.796 C 52.713 170.310,52.710 169.607,52.612 169.234 C 52.514 168.860,52.438 169.258,52.442 170.117 M138.808 172.266 C 138.808 174.092,138.876 174.839,138.958 173.926 C 139.040 173.013,139.040 171.519,138.958 170.605 C 138.876 169.692,138.808 170.439,138.808 172.266 M347.356 170.313 C 347.356 171.064,347.437 171.372,347.535 170.996 C 347.633 170.620,347.633 170.005,347.535 169.629 C 347.437 169.253,347.356 169.561,347.356 170.313 M52.084 185.938 C 52.084 187.549,52.153 188.208,52.238 187.402 C 52.322 186.597,52.322 185.278,52.238 184.473 C 52.153 183.667,52.084 184.326,52.084 185.938 M347.788 185.938 C 347.788 187.549,347.857 188.208,347.941 187.402 C 348.025 186.597,348.025 185.278,347.941 184.473 C 347.857 183.667,347.788 184.326,347.788 185.938 M261.071 186.523 C 261.073 188.242,261.142 188.897,261.224 187.978 C 261.307 187.059,261.305 185.653,261.221 184.853 C 261.138 184.053,261.070 184.805,261.071 186.523 M347.793 214.063 C 347.793 215.889,347.860 216.636,347.942 215.723 C 348.025 214.810,348.025 213.315,347.942 212.402 C 347.860 211.489,347.793 212.236,347.793 214.063 M52.087 214.258 C 52.088 215.977,52.157 216.631,52.240 215.712 C 52.322 214.794,52.321 213.387,52.237 212.587 C 52.153 211.787,52.086 212.539,52.087 214.258 M260.720 233.008 C 260.720 239.453,260.773 242.145,260.839 238.989 C 260.904 235.833,260.905 230.560,260.839 227.270 C 260.774 223.981,260.720 226.563,260.720 233.008 M181.009 231.055 C 181.009 233.633,181.072 234.637,181.149 233.285 C 181.225 231.934,181.225 229.825,181.148 228.598 C 181.070 227.371,181.008 228.477,181.009 231.055 M347.356 229.688 C 347.356 230.439,347.437 230.747,347.535 230.371 C 347.633 229.995,347.633 229.380,347.535 229.004 C 347.437 228.628,347.356 228.936,347.356 229.688 M52.434 230.078 C 52.434 230.830,52.515 231.138,52.613 230.762 C 52.711 230.386,52.711 229.771,52.613 229.395 C 52.515 229.019,52.434 229.326,52.434 230.078 M138.800 235.352 C 138.802 236.855,138.872 237.423,138.957 236.612 C 139.042 235.802,139.040 234.571,138.954 233.878 C 138.868 233.185,138.798 233.848,138.800 235.352 M138.393 254.102 C 138.396 255.176,138.472 255.569,138.562 254.975 C 138.651 254.381,138.649 253.502,138.556 253.022 C 138.464 252.542,138.390 253.027,138.393 254.102 M181.356 254.297 C 181.356 255.264,181.433 255.659,181.526 255.176 C 181.619 254.692,181.619 253.901,181.526 253.418 C 181.433 252.935,181.356 253.330,181.356 254.297 M261.028 262.109 C 261.028 262.861,261.109 263.169,261.207 262.793 C 261.305 262.417,261.305 261.802,261.207 261.426 C 261.109 261.050,261.028 261.357,261.028 262.109 M137.997 269.141 C 137.997 270.107,138.073 270.503,138.166 270.020 C 138.259 269.536,138.259 268.745,138.166 268.262 C 138.073 267.778,137.997 268.174,137.997 269.141 M216.406 295.898 C 217.135 296.650,217.819 297.266,217.927 297.266 C 218.034 297.266,217.526 296.650,216.797 295.898 C 216.068 295.146,215.384 294.531,215.276 294.531 C 215.169 294.531,215.677 295.146,216.406 295.898 M259.556 300.098 L 257.617 302.148 259.668 300.210 C 260.796 299.144,261.719 298.221,261.719 298.159 C 261.719 297.868,261.357 298.192,259.556 300.098 M221.859 301.270 C 222.816 302.290,223.651 303.125,223.714 303.125 C 224.007 303.125,223.697 302.774,221.973 301.156 L 220.117 299.414 221.859 301.270 " stroke="none" fill="#04ac5c" fill-rule="evenodd"></path><path id="path4" d="M138.075 102.051 L 135.352 104.883 138.184 102.159 C 140.814 99.629,141.194 99.219,140.907 99.219 C 140.848 99.219,139.574 100.493,138.075 102.051 M137.981 130.859 C 137.981 131.611,138.062 131.919,138.160 131.543 C 138.258 131.167,138.258 130.552,138.160 130.176 C 138.062 129.800,137.981 130.107,137.981 130.859 M261.817 142.773 C 261.822 143.633,261.902 143.938,261.995 143.452 C 262.088 142.967,262.085 142.263,261.987 141.890 C 261.889 141.517,261.813 141.914,261.817 142.773 M138.372 150.391 C 138.372 151.143,138.452 151.450,138.551 151.074 C 138.649 150.698,138.649 150.083,138.551 149.707 C 138.452 149.331,138.372 149.639,138.372 150.391 M218.471 163.477 C 218.474 164.551,218.550 164.944,218.640 164.350 C 218.729 163.756,218.727 162.877,218.634 162.397 C 218.542 161.917,218.468 162.402,218.471 163.477 M261.427 165.039 C 261.431 165.898,261.511 166.204,261.604 165.718 C 261.698 165.232,261.694 164.529,261.597 164.156 C 261.499 163.782,261.422 164.180,261.427 165.039 M180.988 174.023 C 180.989 175.527,181.060 176.095,181.144 175.284 C 181.229 174.474,181.228 173.243,181.141 172.550 C 181.055 171.856,180.986 172.520,180.988 174.023 M138.789 177.344 C 138.789 178.525,138.862 179.009,138.952 178.418 C 139.041 177.827,139.041 176.860,138.952 176.270 C 138.862 175.679,138.789 176.162,138.789 177.344 M52.070 190.625 C 52.070 191.807,52.143 192.290,52.233 191.699 C 52.322 191.108,52.322 190.142,52.233 189.551 C 52.143 188.960,52.070 189.443,52.070 190.625 M347.784 191.211 C 347.786 192.715,347.857 193.282,347.941 192.472 C 348.026 191.661,348.024 190.431,347.938 189.737 C 347.852 189.044,347.783 189.707,347.784 191.211 M261.036 190.820 C 261.040 191.680,261.120 191.985,261.214 191.499 C 261.307 191.013,261.304 190.310,261.206 189.937 C 261.108 189.563,261.032 189.961,261.036 190.820 M347.773 208.984 C 347.773 210.166,347.847 210.649,347.936 210.059 C 348.026 209.468,348.026 208.501,347.936 207.910 C 347.847 207.319,347.773 207.803,347.773 208.984 M52.060 209.766 C 52.060 210.732,52.136 211.128,52.229 210.645 C 52.322 210.161,52.322 209.370,52.229 208.887 C 52.136 208.403,52.060 208.799,52.060 209.766 M138.789 230.859 C 138.789 232.041,138.862 232.524,138.952 231.934 C 139.041 231.343,139.041 230.376,138.952 229.785 C 138.862 229.194,138.789 229.678,138.789 230.859 M263.068 296.582 L 261.523 298.242 263.184 296.698 C 264.728 295.262,265.023 294.922,264.728 294.922 C 264.664 294.922,263.917 295.669,263.068 296.582 M256.036 303.613 L 254.492 305.273 256.152 303.729 C 257.696 302.293,257.992 301.953,257.696 301.953 C 257.633 301.953,256.886 302.700,256.036 303.613 " stroke="none" fill="#04b45c" fill-rule="evenodd"></path></g></svg>