<svg id="svg" version="1.1" xmlns="http://www.w3.org/2000/svg" xmlns:xlink="http://www.w3.org/1999/xlink" width="400" height="400" viewBox="0, 0, 400,400"><g id="svgg"><path id="path0" d="M103.337 114.037 C 98.656 115.302,94.979 119.602,94.081 124.860 C 93.840 126.271,93.764 146.384,93.828 191.520 L 93.920 256.160 94.661 258.136 C 96.162 262.135,99.285 265.456,102.930 266.926 L 104.800 267.680 201.120 267.767 C 267.761 267.828,298.123 267.750,299.657 267.516 C 304.982 266.701,309.098 263.022,310.736 257.613 C 311.360 255.552,311.368 254.513,311.285 189.423 L 311.200 123.327 309.997 120.893 C 308.535 117.936,306.126 115.588,303.439 114.503 L 301.600 113.760 203.200 113.701 C 125.939 113.654,104.486 113.726,103.337 114.037 M295.281 190.640 L 295.362 250.240 202.721 250.240 L 110.080 250.240 110.080 190.773 C 110.080 158.067,110.176 131.210,110.294 131.093 C 110.412 130.975,152.064 130.915,202.854 130.959 L 295.200 131.040 295.281 190.640 M206.764 145.840 C 206.388 147.581,187.942 229.541,187.678 230.648 L 187.504 231.375 193.014 231.288 L 198.523 231.200 208.162 188.640 C 213.464 165.232,217.903 145.684,218.027 145.200 L 218.252 144.320 212.673 144.320 L 207.093 144.320 206.764 145.840 M151.040 165.627 L 120.800 179.104 120.715 187.737 L 120.630 196.369 150.777 209.785 C 167.357 217.163,181.041 223.249,181.186 223.308 C 181.331 223.368,181.411 218.838,181.365 213.241 L 181.280 203.066 163.441 195.692 C 153.630 191.636,145.380 188.174,145.109 187.999 C 144.735 187.757,148.975 185.885,162.788 180.197 C 172.783 176.081,181.070 172.615,181.205 172.496 C 181.339 172.377,181.411 167.750,181.365 162.214 L 181.280 152.149 151.040 165.627 M224.076 162.451 L 224.160 172.583 242.446 180.131 C 252.504 184.283,260.690 187.752,260.637 187.840 C 260.584 187.928,252.323 191.384,242.279 195.520 L 224.017 203.040 224.008 213.190 C 224.000 222.826,224.029 223.328,224.574 223.110 C 224.890 222.983,238.572 216.907,254.979 209.608 L 284.810 196.335 284.725 187.739 L 284.640 179.142 254.560 165.733 C 238.016 158.357,224.370 152.322,224.236 152.321 C 224.101 152.321,224.029 156.879,224.076 162.451 M187.538 276.400 C 187.181 277.588,185.176 284.248,183.082 291.200 L 179.275 303.840 166.654 304.000 L 154.033 304.160 152.146 305.126 C 148.313 307.087,146.880 310.119,146.880 316.269 L 146.880 320.101 153.171 319.891 C 156.632 319.775,181.777 319.680,209.049 319.680 L 258.636 319.680 258.504 315.600 C 258.352 310.906,257.673 308.894,255.510 306.732 C 252.950 304.171,252.958 304.172,238.720 304.061 L 226.080 303.962 221.633 289.101 L 217.186 274.240 202.686 274.240 L 188.187 274.240 187.538 276.400 " stroke="none" fill="#fbfbfb" fill-rule="evenodd"></path><path id="path1" d="M110.400 190.720 L 110.400 250.240 202.720 250.240 L 295.040 250.240 295.040 190.720 L 295.040 131.200 202.720 131.200 L 110.400 131.200 110.400 190.720 M311.680 194.597 C 311.680 260.575,311.793 256.540,309.840 260.436 C 308.659 262.790,305.987 265.369,303.418 266.634 L 301.294 267.680 204.247 267.762 L 107.200 267.844 107.200 270.882 L 107.200 273.920 108.560 273.922 C 109.733 273.924,110.018 274.067,110.632 274.962 C 111.023 275.533,119.321 283.973,129.071 293.718 L 146.798 311.436 147.606 309.671 C 150.012 304.416,150.801 304.179,166.240 304.068 L 179.040 303.977 183.532 289.028 L 188.023 274.080 202.692 274.080 L 217.360 274.080 221.849 289.040 L 226.337 304.000 238.848 304.003 C 253.297 304.007,253.215 303.992,256.057 307.153 C 258.073 309.395,258.573 310.998,258.791 315.920 L 258.972 320.000 207.166 320.000 L 155.360 320.000 193.948 358.588 L 232.537 397.176 237.788 396.170 C 305.177 383.254,361.755 336.119,386.450 272.320 C 387.234 270.296,388.079 268.327,388.329 267.944 C 390.512 264.599,395.462 250.403,397.239 242.389 C 399.751 231.058,400.934 215.595,399.373 214.501 C 398.979 214.225,379.411 196.358,355.888 174.797 C 332.366 153.235,312.796 135.300,312.400 134.941 L 311.680 134.288 311.680 194.597 M218.076 145.840 C 216.765 151.486,198.720 231.342,198.720 231.496 C 198.720 231.597,196.118 231.680,192.938 231.680 C 187.582 231.680,187.169 231.639,187.324 231.120 C 187.417 230.812,191.825 211.264,197.120 187.680 C 202.416 164.096,206.810 144.620,206.884 144.400 C 206.986 144.100,208.454 144.000,212.762 144.000 L 218.503 144.000 218.076 145.840 M181.684 162.319 L 181.600 172.639 163.440 180.145 C 153.452 184.274,145.283 187.731,145.286 187.826 C 145.290 187.922,153.498 191.383,163.526 195.518 L 181.760 203.036 181.760 213.358 C 181.760 219.035,181.700 223.680,181.626 223.680 C 181.553 223.680,167.765 217.568,150.986 210.098 L 120.480 196.516 120.404 187.778 L 120.327 179.040 150.644 165.534 C 167.318 158.106,181.142 152.022,181.364 152.014 C 181.684 152.003,181.751 154.166,181.684 162.319 M254.720 165.550 L 284.960 179.056 285.045 187.714 L 285.130 196.373 284.245 196.780 C 282.930 197.385,224.547 223.398,224.080 223.587 C 223.765 223.714,223.680 221.547,223.680 213.377 L 223.680 203.006 241.778 195.524 C 251.731 191.409,259.928 187.957,259.992 187.852 C 260.057 187.748,251.915 184.282,241.900 180.151 L 223.690 172.640 223.685 162.320 C 223.681 154.263,223.768 152.005,224.080 152.022 C 224.300 152.034,238.088 158.122,254.720 165.550 " stroke="none" fill="#b44c34" fill-rule="evenodd"></path><path id="path2" d="M187.360 0.193 C 186.656 0.259,184.208 0.468,181.920 0.658 C 132.260 4.779,84.481 28.812,50.662 66.681 C 8.823 113.532,-8.547 177.410,3.707 239.360 C 20.121 322.343,88.191 386.589,172.000 398.199 C 193.455 401.171,218.247 400.469,239.360 396.293 C 295.806 385.128,344.896 349.715,373.899 299.238 C 376.318 295.027,382.089 283.760,382.071 283.283 C 382.065 283.150,380.512 286.064,378.619 289.760 C 349.867 345.891,298.801 384.476,237.789 396.170 L 232.537 397.176 193.948 358.588 L 155.359 320.000 150.960 320.000 L 146.560 320.000 146.560 316.558 C 146.560 314.665,146.695 312.646,146.859 312.072 C 147.024 311.497,147.049 311.095,146.915 311.178 C 146.601 311.372,110.080 274.811,110.080 274.303 C 110.080 274.062,109.544 273.920,108.640 273.920 L 107.200 273.920 107.200 270.925 L 107.200 267.929 105.557 267.735 C 100.459 267.131,95.695 262.654,94.251 257.109 C 93.551 254.421,93.508 125.934,94.206 123.312 C 95.583 118.142,99.699 114.389,104.856 113.599 C 106.348 113.370,137.798 113.292,204.160 113.352 L 301.280 113.440 303.121 114.183 C 309.053 116.579,311.367 120.604,311.656 129.031 L 311.840 134.383 355.680 174.586 L 399.520 214.789 399.778 212.434 C 400.202 208.568,399.812 185.448,399.234 180.160 C 388.722 83.959,316.080 11.316,219.840 0.764 C 215.485 0.286,190.948 -0.145,187.360 0.193 M386.600 271.880 C 386.218 272.877,385.960 273.747,386.026 273.813 C 386.092 273.879,386.458 273.117,386.840 272.120 C 387.222 271.123,387.480 270.253,387.414 270.187 C 387.348 270.121,386.982 270.883,386.600 271.880 M384.213 277.813 C 383.745 278.899,383.413 279.839,383.475 279.902 C 383.538 279.965,383.974 279.129,384.444 278.044 C 384.915 276.960,385.247 276.020,385.182 275.956 C 385.118 275.891,384.682 276.727,384.213 277.813 M382.617 281.455 C 381.866 283.031,381.971 283.300,382.757 281.810 C 383.114 281.133,383.350 280.523,383.280 280.454 C 383.211 280.385,382.913 280.835,382.617 281.455 " stroke="none" fill="#f3634b" fill-rule="evenodd"></path><path id="path3" d="M110.237 190.720 C 110.237 223.544,110.274 236.972,110.320 220.560 C 110.366 204.148,110.366 177.292,110.320 160.880 C 110.274 144.468,110.237 157.896,110.237 190.720 M311.517 194.400 C 311.517 227.664,311.554 241.225,311.600 224.535 C 311.646 207.845,311.646 180.629,311.600 164.055 C 311.554 147.481,311.517 161.136,311.517 194.400 M181.440 162.304 C 181.352 168.060,181.390 172.658,181.525 172.524 C 181.659 172.389,181.731 167.680,181.684 162.059 L 181.599 151.840 181.440 162.304 M284.800 187.776 L 284.959 196.640 285.045 188.021 C 285.092 183.281,285.020 179.292,284.885 179.157 C 284.750 179.022,284.712 182.900,284.800 187.776 M181.583 213.280 C 181.583 218.912,181.626 221.171,181.680 218.300 C 181.733 215.429,181.733 210.821,181.679 208.060 C 181.626 205.299,181.583 207.648,181.583 213.280 M190.160 231.598 C 191.700 231.657,194.220 231.657,195.760 231.598 C 197.300 231.540,196.040 231.492,192.960 231.492 C 189.880 231.492,188.620 231.540,190.160 231.598 M188.049 274.160 C 187.914 274.378,198.629 274.374,212.160 274.151 C 215.064 274.103,210.860 274.031,202.819 273.992 C 194.777 273.952,188.131 274.028,188.049 274.160 " stroke="none" fill="#daa096" fill-rule="evenodd"></path><path id="path4" d="M154.346 113.520 C 181.068 113.565,224.700 113.565,251.306 113.520 C 277.912 113.475,256.048 113.438,202.720 113.438 C 149.392 113.438,127.624 113.475,154.346 113.520 M258.677 316.640 C 258.678 318.400,258.731 319.079,258.796 318.149 C 258.861 317.219,258.860 315.779,258.795 314.949 C 258.729 314.119,258.676 314.880,258.677 316.640 " stroke="none" fill="#f48c74" fill-rule="evenodd"></path><path id="path5" d="M311.485 129.920 C 311.485 132.296,311.536 133.268,311.597 132.080 C 311.659 130.892,311.659 128.948,311.597 127.760 C 311.536 126.572,311.485 127.544,311.485 129.920 M202.639 131.120 L 295.038 131.201 295.120 190.721 L 295.203 250.240 295.201 190.640 L 295.200 131.040 202.720 131.039 L 110.240 131.038 202.639 131.120 M209.664 144.238 C 211.195 144.297,213.787 144.297,215.424 144.239 C 217.061 144.180,215.808 144.133,212.640 144.132 C 209.472 144.132,208.133 144.179,209.664 144.238 M223.680 162.221 C 223.680 167.843,223.788 172.509,223.920 172.591 C 224.052 172.672,224.160 168.073,224.160 162.369 C 224.160 156.666,224.052 152.000,223.920 152.000 C 223.788 152.000,223.680 156.600,223.680 162.221 M120.464 179.285 C 120.379 179.508,120.348 183.504,120.395 188.165 L 120.481 196.640 120.640 187.760 C 120.728 182.876,120.759 178.880,120.710 178.880 C 120.660 178.880,120.550 179.062,120.464 179.285 M223.823 213.280 C 223.823 218.912,223.866 221.171,223.920 218.300 C 223.973 215.429,223.973 210.821,223.919 208.060 C 223.866 205.299,223.823 207.648,223.823 213.280 M146.677 316.640 C 146.678 318.400,146.731 319.079,146.796 318.149 C 146.861 317.219,146.860 315.779,146.795 314.949 C 146.729 314.119,146.676 314.880,146.677 316.640 M181.065 319.920 C 195.379 319.966,218.707 319.966,232.905 319.920 C 247.103 319.874,235.392 319.836,206.880 319.836 C 178.368 319.836,166.751 319.874,181.065 319.920 " stroke="none" fill="#dcb4ac" fill-rule="evenodd"></path></g></svg>