<svg id="svg" version="1.1" xmlns="http://www.w3.org/2000/svg" xmlns:xlink="http://www.w3.org/1999/xlink" width="400" height="240" viewBox="0, 0, 400,240"><g id="svgg"><path id="path0" d="M106.760 44.613 C 76.198 46.048,50.929 62.791,39.102 89.440 C 27.279 116.082,32.147 149.992,50.863 171.371 C 73.635 197.383,114.189 202.602,148.200 183.899 C 162.457 176.058,173.309 167.046,198.258 142.328 L 199.917 140.685 207.138 147.885 C 216.460 157.180,219.987 160.549,225.440 165.366 C 250.216 187.256,271.150 196.177,294.680 194.873 C 336.378 192.563,367.711 159.456,367.094 118.360 C 366.393 71.649,331.287 40.218,285.160 45.003 C 260.939 47.516,240.776 59.209,211.360 87.799 C 204.061 94.893,200.041 98.765,199.952 98.786 C 199.893 98.800,197.386 96.387,194.382 93.425 C 181.467 80.688,176.505 76.052,169.600 70.269 C 147.547 51.800,127.551 43.636,106.760 44.613 M114.000 75.314 C 127.848 76.710,140.569 83.368,156.120 97.357 C 159.419 100.325,162.441 103.203,168.516 109.165 C 173.899 114.448,175.965 116.452,177.937 118.305 L 179.514 119.786 177.497 121.868 C 154.143 145.967,141.203 155.838,125.760 161.333 C 94.123 172.589,64.865 152.717,64.844 119.960 C 64.828 93.372,87.636 72.656,114.000 75.314 M294.880 75.201 C 317.449 76.748,333.480 93.324,334.956 116.640 C 336.507 141.138,318.351 162.293,294.040 164.316 C 284.181 165.136,273.779 162.648,263.800 157.081 C 254.535 151.913,246.407 145.250,231.641 130.719 C 225.946 125.115,223.619 122.860,221.023 120.428 L 220.327 119.776 223.823 116.192 C 237.764 101.900,245.663 94.797,254.542 88.568 C 268.382 78.859,282.070 74.323,294.880 75.201 " stroke="none" fill="#000000" fill-rule="evenodd"></path></g></svg>