<svg id="svg" version="1.1" xmlns="http://www.w3.org/2000/svg" xmlns:xlink="http://www.w3.org/1999/xlink" width="400" height="400" viewBox="0, 0, 400,400"><g id="svgg"><path id="path0" d="M180.750 16.007 C 117.948 19.843,62.837 55.904,34.623 111.625 C -8.355 196.503,24.400 299.720,108.625 344.820 C 147.555 365.666,194.879 370.786,237.313 358.743 L 238.250 358.476 238.250 343.113 C 238.250 334.663,238.190 327.750,238.116 327.750 C 238.042 327.750,236.833 328.781,235.428 330.040 C 225.066 339.334,213.102 345.664,201.750 347.858 C 200.581 348.083,199.372 348.323,199.063 348.389 L 198.500 348.510 198.500 317.130 L 198.500 285.750 218.375 285.750 L 238.250 285.750 238.250 277.750 L 238.250 269.750 218.375 269.750 L 198.500 269.750 198.500 234.125 L 198.500 198.500 218.375 198.500 L 238.250 198.500 238.250 190.500 L 238.250 182.500 218.375 182.500 L 198.500 182.500 198.500 146.875 L 198.500 111.250 235.615 111.250 L 272.730 111.250 274.006 115.188 C 280.060 133.857,283.812 154.345,285.004 175.250 L 285.268 179.875 286.701 181.250 C 287.489 182.006,291.953 186.197,296.622 190.563 L 305.110 198.500 326.930 198.500 L 348.750 198.500 348.749 199.313 C 348.738 206.060,346.167 222.214,343.591 231.716 C 343.242 233.003,343.050 234.138,343.166 234.238 C 343.281 234.339,346.167 237.041,349.580 240.243 C 353.098 243.545,355.877 245.970,355.999 245.845 C 357.352 244.455,362.039 224.830,363.486 214.500 C 378.678 106.026,289.681 9.355,180.750 16.007 M182.500 63.750 L 182.500 95.000 148.750 95.000 C 130.188 95.000,115.000 94.905,115.000 94.790 C 115.000 94.353,120.508 83.486,122.370 80.250 C 134.097 59.863,150.316 44.075,166.770 37.032 C 171.285 35.099,179.650 32.649,182.188 32.516 C 182.436 32.503,182.500 38.908,182.500 63.750 M203.205 33.416 C 205.839 33.990,209.568 35.153,213.125 36.510 C 232.529 43.912,253.156 66.246,265.356 93.063 L 266.237 95.000 232.369 95.000 L 198.500 95.000 198.500 63.766 L 198.500 32.531 199.438 32.666 C 199.953 32.740,201.648 33.077,203.205 33.416 M256.014 45.992 C 279.022 56.346,300.055 73.097,316.219 93.939 L 317.045 95.004 300.270 94.939 L 283.495 94.875 281.539 90.500 C 273.954 73.533,264.641 58.990,253.641 46.938 L 250.732 43.750 251.942 44.227 C 252.608 44.490,254.440 45.284,256.014 45.992 M127.489 46.438 C 116.342 58.201,105.929 74.495,98.652 91.563 L 97.186 95.000 80.578 95.000 L 63.971 95.000 65.172 93.438 C 81.036 72.798,102.664 55.896,126.875 45.217 C 128.387 44.550,129.664 44.004,129.712 44.002 C 129.760 44.001,128.760 45.097,127.489 46.438 M91.135 111.688 C 85.801 125.521,80.776 154.886,79.606 179.063 L 79.440 182.500 55.723 182.500 L 32.006 182.500 32.146 180.563 C 33.881 156.549,39.996 135.513,51.333 114.563 L 53.125 111.251 72.214 111.251 C 90.292 111.250,91.295 111.273,91.135 111.688 M182.500 146.875 L 182.500 182.500 139.006 182.500 L 95.513 182.500 95.620 181.813 C 95.679 181.434,95.792 179.325,95.872 177.125 C 96.584 157.449,100.656 134.652,106.868 115.563 L 108.271 111.250 145.386 111.250 L 182.500 111.250 182.500 146.875 M328.292 111.938 C 339.783 131.715,348.734 162.017,348.749 181.188 L 348.750 182.500 325.147 182.500 L 301.545 182.500 301.406 180.438 C 301.330 179.303,301.145 176.181,300.996 173.500 C 300.069 156.866,297.048 137.993,292.854 122.646 C 292.004 119.535,289.904 112.443,289.593 111.631 C 289.463 111.292,291.550 111.250,308.669 111.250 L 327.892 111.250 328.292 111.938 M267.738 198.590 C 265.504 199.193,263.443 200.983,262.409 203.219 L 261.875 204.375 261.875 282.750 L 261.875 361.125 262.575 362.551 C 263.986 365.424,266.762 367.124,270.000 367.097 C 273.276 367.071,272.978 367.311,286.756 353.585 C 293.565 346.801,299.202 341.250,299.281 341.250 C 299.361 341.250,303.971 351.168,309.526 363.291 C 321.312 389.012,320.612 387.868,325.131 388.816 C 327.428 389.298,328.368 388.943,345.319 381.195 C 364.331 372.504,364.138 372.632,365.026 368.207 C 365.488 365.908,365.211 365.216,354.278 341.348 L 343.813 318.500 363.147 318.500 C 381.975 318.500,382.517 318.487,383.840 317.992 C 388.818 316.129,390.573 309.853,387.290 305.653 C 386.192 304.248,275.516 200.458,274.226 199.624 C 272.311 198.385,269.915 198.003,267.738 198.590 M79.606 201.938 C 80.773 226.045,85.813 255.443,91.176 269.418 C 91.283 269.697,88.107 269.742,72.232 269.689 L 53.160 269.625 52.419 268.375 C 41.859 250.551,33.636 223.773,32.382 203.125 C 32.298 201.750,32.171 200.147,32.100 199.563 L 31.969 198.500 55.705 198.500 L 79.440 198.500 79.606 201.938 M182.500 234.125 L 182.500 269.750 145.396 269.750 L 108.291 269.750 107.285 266.688 C 100.341 245.559,96.782 225.145,95.671 200.063 L 95.601 198.500 139.051 198.500 L 182.500 198.500 182.500 234.125 M319.967 264.375 L 360.464 302.375 345.295 302.500 L 330.125 302.625 328.636 303.355 C 324.446 305.409,322.441 309.789,323.935 313.625 C 324.328 314.633,346.095 362.273,346.388 362.766 C 346.486 362.930,330.693 370.220,330.486 370.107 C 330.409 370.065,325.472 359.395,319.515 346.396 C 307.014 319.121,307.576 320.052,303.132 319.230 C 299.338 318.529,298.692 318.979,287.563 330.082 L 278.000 339.623 278.000 282.404 L 278.000 225.186 278.735 225.780 C 279.139 226.107,297.693 243.475,319.967 264.375 M98.744 289.568 C 105.896 306.382,115.880 322.031,127.288 334.308 L 129.781 336.991 127.953 336.227 C 107.754 327.786,87.301 312.971,71.899 295.625 C 69.543 292.972,64.000 286.145,64.000 285.897 C 64.000 285.816,71.453 285.752,80.563 285.755 L 97.125 285.761 98.744 289.568 M182.500 317.085 L 182.500 348.419 180.938 348.187 C 156.326 344.523,131.764 321.967,116.147 288.688 L 114.769 285.750 148.634 285.750 L 182.500 285.750 182.500 317.085 " stroke="none" fill="#047cfc" fill-rule="evenodd"></path><path id="path1" d="" stroke="none" fill="#087cfc" fill-rule="evenodd"></path><path id="path2" d="" stroke="none" fill="#087cfc" fill-rule="evenodd"></path></g></svg>