<svg id="svg" version="1.1" xmlns="http://www.w3.org/2000/svg" xmlns:xlink="http://www.w3.org/1999/xlink" width="400" height="435.3333333333333" viewBox="0, 0, 400,435.3333333333333"><g id="svgg"><path id="path0" d="M96.000 2.007 C 48.975 2.334,50.539 2.222,47.001 5.531 C 43.910 8.423,44.240 6.492,39.027 52.167 C 31.694 116.414,31.750 115.758,33.388 118.833 C 36.941 125.503,45.899 126.831,50.689 121.398 C 52.700 119.117,53.088 118.161,54.828 111.185 C 62.459 80.604,77.049 62.291,107.202 45.448 C 139.441 27.440,170.023 22.702,244.215 24.220 L 254.931 24.440 252.250 28.803 C 235.912 55.396,47.825 358.552,19.711 403.606 C 12.148 415.725,11.531 416.841,10.787 419.744 C 9.403 425.150,11.730 428.947,17.715 431.045 L 19.833 431.788 89.500 432.108 C 164.117 432.450,361.753 431.920,369.022 431.358 C 376.429 430.786,377.509 429.502,379.140 419.330 C 381.802 402.734,392.980 323.430,395.185 305.500 C 396.353 296.003,396.640 287.234,395.852 285.169 C 394.407 281.386,387.027 278.844,382.315 280.507 C 377.957 282.044,376.849 284.260,374.318 296.500 C 362.383 354.215,312.163 399.992,251.429 408.518 C 245.147 409.399,133.579 411.024,132.800 410.245 C 132.733 410.177,133.451 408.857,134.398 407.311 C 143.954 391.699,297.772 143.737,351.499 57.333 C 364.552 36.342,375.554 18.436,375.948 17.543 C 378.876 10.909,376.793 5.522,370.444 3.304 C 366.880 2.059,201.167 1.276,96.000 2.007 M95.306 24.616 L 97.111 24.833 91.318 28.667 C 84.410 33.238,76.889 38.791,70.500 44.040 C 60.812 51.998,60.808 52.000,61.130 49.985 C 61.249 49.244,61.795 44.781,62.343 40.069 C 63.345 31.463,64.092 26.679,64.672 25.154 L 64.983 24.333 79.242 24.366 C 87.084 24.384,94.313 24.497,95.306 24.616 M345.903 24.583 C 345.494 25.330,335.209 42.027,325.728 57.333 C 290.065 114.914,107.344 409.066,107.012 409.430 C 106.798 409.667,41.988 410.387,41.725 410.156 C 41.462 409.925,60.967 378.465,228.171 109.433 L 280.833 24.699 285.167 24.589 C 294.494 24.352,346.031 24.348,345.903 24.583 M363.000 380.385 C 361.185 393.781,359.781 403.469,359.108 407.250 L 358.558 410.333 346.196 410.333 C 330.889 410.332,315.220 409.977,315.571 409.639 C 315.715 409.499,318.325 407.823,321.370 405.913 C 333.530 398.288,343.529 389.984,357.322 376.056 C 361.984 371.349,364.180 369.341,364.257 369.718 C 364.319 370.021,363.753 374.821,363.000 380.385 " stroke="none" fill="#000000" fill-rule="evenodd"></path></g></svg>