<svg id="svg" version="1.1" xmlns="http://www.w3.org/2000/svg" xmlns:xlink="http://www.w3.org/1999/xlink" width="400" height="400" viewBox="0, 0, 400,400"><g id="svgg"><path id="path0" d="M211.600 110.613 C 211.600 110.936,211.870 111.200,212.200 111.200 C 212.530 111.200,212.800 111.039,212.800 110.843 C 212.800 110.646,212.530 110.382,212.200 110.255 C 211.835 110.115,211.600 110.255,211.600 110.613 M237.802 129.202 C 238.202 129.644,238.611 129.922,238.712 129.821 C 238.928 129.605,237.788 128.400,237.367 128.400 C 237.207 128.400,237.403 128.761,237.802 129.202 M239.200 130.314 C 239.200 130.737,241.540 133.002,241.738 132.771 C 241.818 132.677,241.280 132.010,240.542 131.289 C 239.804 130.567,239.200 130.129,239.200 130.314 M242.000 133.406 C 242.000 133.713,244.551 135.975,244.913 135.988 C 245.086 135.995,244.597 135.370,243.827 134.600 C 242.497 133.270,242.000 132.945,242.000 133.406 M294.000 137.000 C 294.000 137.863,294.161 138.347,294.400 138.200 C 294.620 138.064,294.800 137.524,294.800 137.000 C 294.800 136.476,294.620 135.936,294.400 135.800 C 294.161 135.653,294.000 136.137,294.000 137.000 M93.032 139.148 C 92.909 139.347,93.077 139.732,93.404 140.004 C 93.889 140.406,94.000 140.381,94.000 139.873 C 94.000 139.126,93.348 138.638,93.032 139.148 M249.248 140.334 C 249.460 140.955,259.701 151.232,259.904 151.029 C 259.996 150.938,257.601 148.394,254.583 145.376 C 251.566 142.358,249.165 140.089,249.248 140.334 M185.200 179.172 C 185.200 179.377,185.515 179.618,185.900 179.709 C 186.285 179.799,185.837 179.792,184.905 179.692 C 182.801 179.467,181.526 179.846,182.411 180.434 C 182.835 180.715,182.696 180.754,181.917 180.573 C 180.959 180.351,178.989 181.264,178.000 182.389 C 177.890 182.514,177.295 182.838,176.677 183.110 C 176.060 183.381,175.671 183.791,175.813 184.021 C 175.988 184.305,176.256 184.286,176.645 183.962 C 176.961 183.700,177.335 183.602,177.476 183.743 C 177.618 183.884,177.493 184.000,177.200 184.000 C 176.907 184.000,176.784 184.117,176.927 184.261 C 177.071 184.404,176.710 184.769,176.125 185.073 C 175.379 185.460,174.982 185.494,174.793 185.189 C 174.515 184.739,172.000 187.284,172.000 188.014 C 172.000 188.226,171.623 188.777,171.163 189.237 C 170.513 189.887,170.372 190.404,170.534 191.537 C 170.649 192.342,170.652 192.685,170.542 192.300 C 170.235 191.230,169.660 191.462,169.057 192.900 C 168.718 193.708,168.642 194.455,168.856 194.874 C 169.045 195.244,169.200 197.809,169.200 200.574 C 169.200 203.658,169.355 205.600,169.600 205.600 C 169.820 205.600,170.000 206.072,170.000 206.649 C 170.000 207.507,169.897 207.613,169.436 207.230 C 169.047 206.907,168.790 206.893,168.610 207.183 C 168.467 207.416,168.641 207.718,168.998 207.854 C 169.354 207.991,169.551 208.350,169.436 208.652 C 169.320 208.953,169.474 209.200,169.779 209.200 C 170.084 209.200,170.424 208.975,170.535 208.700 C 170.656 208.401,170.750 208.482,170.768 208.900 C 170.786 209.285,170.980 209.600,171.200 209.600 C 171.420 209.600,171.597 209.915,171.594 210.300 C 171.589 210.854,171.515 210.885,171.239 210.449 C 171.047 210.146,170.688 210.022,170.443 210.174 C 169.538 210.733,176.669 218.800,178.067 218.800 C 178.269 218.800,178.826 219.166,179.305 219.612 C 180.217 220.462,181.473 220.499,181.299 219.672 C 181.221 219.303,181.379 219.305,181.983 219.682 C 182.469 219.986,182.606 220.273,182.342 220.436 C 182.102 220.584,182.484 220.983,183.219 221.350 C 184.953 222.215,329.789 222.367,329.501 221.504 C 329.410 221.231,329.562 220.781,329.839 220.504 C 330.517 219.826,330.825 219.868,330.545 220.600 C 330.401 220.974,330.548 221.200,330.934 221.200 C 331.742 221.200,332.149 220.528,331.502 220.261 C 331.226 220.147,331.615 220.160,332.367 220.290 C 333.489 220.484,333.692 220.416,333.498 219.912 C 333.369 219.574,333.464 219.096,333.711 218.849 C 334.365 218.195,334.813 218.300,334.529 219.040 C 334.314 219.600,334.391 219.613,335.143 219.143 C 335.616 218.848,335.942 218.426,335.869 218.207 C 335.739 217.817,336.527 216.800,336.959 216.800 C 337.078 216.800,337.058 217.106,336.914 217.479 C 336.698 218.042,336.862 218.010,337.865 217.296 C 339.335 216.249,342.000 213.351,342.000 212.799 C 342.000 212.579,342.377 212.023,342.837 211.563 C 343.487 210.913,343.628 210.396,343.466 209.263 C 343.351 208.458,343.348 208.115,343.458 208.500 C 343.863 209.914,344.639 209.020,345.804 205.800 C 346.172 204.781,346.454 197.630,346.162 196.694 C 345.629 194.981,345.200 196.785,345.200 200.744 C 345.200 203.107,345.035 205.211,344.834 205.420 C 344.632 205.629,344.386 206.160,344.287 206.600 C 344.187 207.040,344.193 206.860,344.300 206.200 C 344.772 203.283,344.835 196.324,344.394 195.793 C 344.143 195.490,343.994 194.738,344.064 194.121 C 344.147 193.392,344.018 193.035,343.696 193.100 C 343.417 193.156,343.203 192.805,343.206 192.300 C 343.211 191.643,343.305 191.546,343.556 191.943 C 343.775 192.288,343.993 192.336,344.154 192.075 C 344.293 191.849,344.101 191.358,343.726 190.983 C 343.084 190.342,343.028 190.346,342.751 191.051 C 342.486 191.723,342.453 191.728,342.428 191.100 C 342.413 190.715,342.220 190.400,342.000 190.400 C 341.780 190.400,341.614 190.085,341.632 189.700 C 341.650 189.282,341.744 189.201,341.865 189.500 C 342.061 189.985,343.200 190.223,343.200 189.779 C 343.200 189.307,338.736 184.061,338.140 183.832 C 337.694 183.661,337.579 183.767,337.743 184.195 C 338.039 184.966,337.711 184.968,336.943 184.200 C 336.613 183.870,336.452 183.600,336.586 183.600 C 337.379 183.600,335.756 182.003,334.127 181.182 C 333.067 180.648,332.090 180.058,331.955 179.870 C 331.587 179.359,329.785 179.744,329.900 180.309 C 329.955 180.579,329.730 180.800,329.400 180.800 C 329.070 180.800,328.800 180.633,328.800 180.429 C 328.800 180.225,328.485 179.976,328.100 179.876 C 327.433 179.702,327.433 179.691,328.100 179.646 C 328.485 179.621,328.800 179.420,328.800 179.200 C 328.800 178.935,304.600 178.800,257.000 178.800 C 212.978 178.800,185.200 178.944,185.200 179.172 M340.800 187.520 C 340.800 188.201,340.125 187.780,339.578 186.759 C 339.187 186.028,339.219 186.005,339.976 186.478 C 340.429 186.761,340.800 187.230,340.800 187.520 M344.466 194.455 C 344.540 194.975,344.780 195.355,345.000 195.300 C 345.590 195.152,345.486 193.895,344.866 193.689 C 344.500 193.567,344.375 193.808,344.466 194.455 M167.972 196.053 C 167.357 197.201,167.631 205.391,168.306 206.066 C 168.698 206.458,168.800 205.388,168.800 200.880 C 168.800 194.996,168.736 194.624,167.972 196.053 M292.332 221.100 C 273.044 221.157,241.364 221.157,221.932 221.100 C 202.499 221.043,218.280 220.996,257.000 220.996 C 295.720 220.996,311.619 221.043,292.332 221.100 M294.000 263.400 C 294.000 263.730,294.180 264.000,294.400 264.000 C 294.620 264.000,294.800 263.730,294.800 263.400 C 294.800 263.070,294.620 262.800,294.400 262.800 C 294.180 262.800,294.000 263.070,294.000 263.400 M198.075 292.825 C 198.171 293.114,198.486 293.429,198.775 293.525 C 199.075 293.625,199.225 293.475,199.125 293.175 C 199.029 292.886,198.714 292.571,198.425 292.475 C 198.125 292.375,197.975 292.525,198.075 292.825 M200.898 292.666 C 200.621 292.777,200.497 293.033,200.621 293.234 C 200.961 293.784,201.486 293.675,201.745 293.000 C 201.980 292.386,201.783 292.309,200.898 292.666 " stroke="none" fill="#b4b4b4" fill-rule="evenodd"></path><path id="path1" d="M224.400 70.000 C 224.400 70.220,224.670 70.400,225.000 70.400 C 225.330 70.400,225.600 70.220,225.600 70.000 C 225.600 69.780,225.330 69.600,225.000 69.600 C 224.670 69.600,224.400 69.780,224.400 70.000 M197.688 92.122 C 185.540 104.290,175.600 114.441,175.600 114.680 C 175.600 114.919,175.060 115.693,174.400 116.400 C 173.740 117.107,173.200 117.789,173.200 117.917 C 173.200 118.151,175.212 116.399,176.435 115.100 C 177.145 114.346,178.400 114.150,178.400 114.794 C 178.400 115.010,179.030 114.887,179.800 114.519 C 181.311 113.799,181.624 113.206,180.500 113.191 C 180.073 113.185,180.308 112.931,181.100 112.541 C 181.815 112.188,182.400 111.743,182.400 111.550 C 182.400 111.358,182.760 111.200,183.200 111.200 C 183.640 111.200,184.000 111.020,184.000 110.800 C 184.000 110.580,184.540 110.400,185.200 110.400 C 185.860 110.400,186.400 110.211,186.400 109.980 C 186.400 109.703,187.219 109.653,188.800 109.832 C 190.406 110.013,191.200 109.962,191.200 109.676 C 191.200 109.441,190.525 109.188,189.700 109.113 C 188.614 109.016,189.079 108.883,191.382 108.635 C 193.674 108.387,194.606 108.418,194.715 108.745 C 194.902 109.305,197.200 109.355,197.200 108.800 C 197.200 108.580,196.739 108.400,196.176 108.400 C 195.596 108.400,195.260 108.227,195.400 108.000 C 195.542 107.771,197.604 107.600,200.224 107.600 C 203.008 107.600,204.800 107.757,204.800 108.000 C 204.800 108.220,204.350 108.400,203.800 108.400 C 203.250 108.400,202.800 108.580,202.800 108.800 C 202.800 109.028,203.873 109.183,205.300 109.160 C 207.244 109.129,207.577 109.043,206.800 108.774 C 206.151 108.550,206.714 108.510,208.400 108.660 C 209.830 108.788,211.060 109.052,211.133 109.246 C 211.207 109.441,211.681 109.600,212.188 109.600 C 213.714 109.600,215.266 110.563,214.509 111.040 C 214.062 111.322,214.349 111.388,215.532 111.275 C 217.264 111.110,218.714 111.969,218.174 112.842 C 217.857 113.354,218.778 114.061,219.324 113.724 C 219.523 113.601,219.441 113.345,219.143 113.156 C 218.720 112.888,218.755 112.811,219.300 112.806 C 219.685 112.803,220.000 112.980,220.000 113.200 C 220.000 113.420,220.283 113.600,220.629 113.600 C 221.521 113.600,222.556 114.676,221.896 114.918 C 221.513 115.058,221.525 115.225,221.950 115.650 C 222.378 116.078,222.541 116.089,222.683 115.700 C 223.059 114.676,225.200 116.115,225.200 117.391 C 225.200 118.056,227.000 119.667,227.351 119.316 C 227.511 119.156,227.512 119.365,227.352 119.782 C 227.122 120.379,227.201 120.485,227.726 120.284 C 228.137 120.126,228.354 120.214,228.295 120.514 C 228.243 120.781,228.425 120.955,228.700 120.900 C 228.975 120.845,229.155 121.025,229.100 121.300 C 229.045 121.575,229.225 121.755,229.500 121.700 C 229.775 121.645,229.955 121.762,229.900 121.960 C 229.845 122.158,229.939 122.334,230.108 122.352 C 230.621 122.404,231.527 123.374,231.462 123.800 C 231.428 124.020,231.638 124.151,231.930 124.090 C 232.221 124.030,232.358 124.144,232.234 124.345 C 232.110 124.545,232.632 125.389,233.393 126.220 L 234.777 127.731 235.163 126.766 C 235.532 125.844,235.550 125.840,235.575 126.667 C 235.589 127.143,235.825 127.625,236.100 127.736 C 236.478 127.889,236.453 128.052,236.000 128.402 C 235.518 128.774,235.619 128.817,236.517 128.621 C 238.070 128.281,239.585 129.868,238.405 130.597 C 238.169 130.743,238.116 130.562,238.274 130.151 C 238.475 129.629,238.381 129.522,237.890 129.710 C 237.433 129.886,237.307 129.788,237.463 129.380 C 237.586 129.061,237.497 128.800,237.266 128.800 C 236.277 128.800,236.538 129.573,238.017 131.016 C 238.887 131.867,239.600 132.414,239.600 132.232 C 239.600 132.051,239.870 132.126,240.200 132.400 C 240.978 133.046,240.981 132.523,240.203 131.746 C 239.875 131.418,239.442 131.251,239.240 131.375 C 239.039 131.499,238.966 131.253,239.077 130.828 C 239.260 130.125,239.395 130.171,240.568 131.328 C 241.814 132.557,241.829 132.612,241.029 132.961 C 240.290 133.283,240.277 133.340,240.905 133.491 C 241.293 133.584,241.504 133.872,241.375 134.130 C 241.246 134.389,241.412 134.267,241.744 133.860 C 242.320 133.153,242.411 133.185,243.787 134.560 C 244.579 135.352,245.072 136.000,244.883 136.000 C 244.694 136.000,244.117 135.550,243.600 135.000 C 242.546 133.878,242.000 133.728,242.000 134.561 C 242.000 134.869,242.556 135.316,243.235 135.552 C 243.915 135.789,244.562 136.333,244.674 136.761 C 244.803 137.255,245.146 137.487,245.613 137.398 C 246.017 137.320,246.570 137.523,246.842 137.851 C 247.113 138.178,247.170 138.390,246.968 138.323 C 246.765 138.255,246.600 138.380,246.600 138.600 C 246.600 138.820,246.690 138.972,246.800 138.938 C 246.910 138.904,247.232 139.129,247.516 139.438 C 247.799 139.747,247.889 140.003,247.716 140.006 C 247.542 140.009,247.850 140.249,248.400 140.539 C 248.950 140.828,249.363 141.252,249.317 141.481 C 249.196 142.091,251.966 145.200,252.631 145.200 C 252.944 145.200,253.200 145.001,253.200 144.757 C 253.200 144.514,252.939 144.414,252.620 144.537 C 252.212 144.693,252.114 144.567,252.290 144.110 C 252.478 143.619,252.371 143.525,251.849 143.726 C 251.451 143.879,251.259 143.829,251.395 143.608 C 251.525 143.398,251.084 142.653,250.416 141.953 C 246.931 138.307,249.895 140.687,254.200 144.992 C 259.288 150.081,259.899 150.816,258.300 149.929 C 257.805 149.655,257.271 149.466,257.114 149.510 C 256.957 149.554,256.944 149.291,257.084 148.926 C 257.279 148.418,257.176 148.324,256.649 148.526 C 256.235 148.685,256.057 148.631,256.205 148.392 C 256.525 147.873,255.327 146.675,254.808 146.995 C 254.569 147.143,254.515 146.965,254.674 146.551 C 254.875 146.029,254.781 145.922,254.290 146.110 C 253.833 146.286,253.707 146.188,253.863 145.780 C 254.091 145.185,253.551 144.982,253.056 145.477 C 252.699 145.834,256.801 150.000,257.510 150.000 C 257.818 150.000,257.924 150.199,257.758 150.468 C 257.568 150.775,257.681 150.855,258.086 150.699 C 258.425 150.569,258.931 150.673,259.210 150.931 C 259.601 151.292,259.652 151.285,259.435 150.900 C 259.280 150.625,259.356 150.400,259.603 150.400 C 259.875 150.400,259.951 150.725,259.794 151.219 C 259.482 152.201,260.231 153.240,261.029 152.933 C 261.343 152.813,261.600 152.914,261.600 153.157 C 261.600 153.401,261.868 153.600,262.197 153.600 C 262.525 153.600,263.018 153.960,263.293 154.400 C 263.568 154.840,264.079 155.200,264.430 155.200 C 264.780 155.200,265.190 155.323,265.341 155.474 C 265.748 155.882,268.321 156.716,270.092 157.015 C 271.456 157.246,271.563 157.339,270.962 157.778 C 269.852 158.590,270.752 158.725,275.291 158.430 C 279.567 158.152,280.590 157.912,279.417 157.462 C 279.078 157.332,278.800 157.399,278.800 157.613 C 278.800 157.836,277.402 157.975,275.500 157.941 L 272.200 157.883 275.000 157.597 C 276.540 157.440,278.070 157.212,278.400 157.090 C 278.730 156.969,279.614 156.762,280.365 156.632 L 281.729 156.394 280.965 157.290 C 280.544 157.783,280.470 157.982,280.800 157.731 C 281.130 157.481,281.850 157.214,282.400 157.138 C 283.087 157.043,283.400 156.750,283.400 156.200 C 283.400 155.553,283.625 155.424,284.571 155.526 C 285.593 155.636,285.676 155.573,285.222 155.026 C 284.791 154.507,284.800 154.400,285.276 154.400 C 285.591 154.400,286.284 153.995,286.815 153.500 C 287.347 153.005,287.875 152.600,287.991 152.600 C 288.106 152.600,288.155 152.465,288.100 152.300 C 288.045 152.135,288.225 152.045,288.500 152.100 C 288.775 152.155,288.955 151.975,288.900 151.700 C 288.845 151.425,288.935 151.245,289.100 151.300 C 289.265 151.355,289.433 151.251,289.474 151.070 C 289.514 150.888,289.890 150.438,290.310 150.070 C 290.729 149.701,291.220 148.860,291.400 148.200 C 291.634 147.343,291.775 147.200,291.893 147.700 C 292.214 149.060,292.835 148.389,292.634 146.900 C 292.522 146.075,292.527 145.715,292.645 146.100 C 292.903 146.945,293.600 147.033,293.600 146.220 C 293.600 145.901,293.285 145.456,292.900 145.232 C 292.512 145.006,292.423 144.819,292.700 144.812 C 292.975 144.805,293.200 144.440,293.200 144.000 C 293.200 143.560,293.380 143.200,293.600 143.200 C 293.820 143.200,294.013 142.615,294.028 141.900 C 294.051 140.835,294.114 140.745,294.378 141.400 C 294.555 141.840,294.607 142.358,294.494 142.552 C 294.381 142.745,294.539 142.813,294.844 142.702 C 295.150 142.591,295.347 142.272,295.281 141.994 C 295.216 141.715,295.425 140.928,295.745 140.244 C 296.249 139.170,296.337 137.509,296.060 134.300 C 295.855 131.921,295.200 134.148,295.200 137.224 C 295.200 139.217,295.050 140.755,294.867 140.641 C 294.683 140.528,294.618 139.862,294.720 139.161 C 294.850 138.276,294.769 137.972,294.454 138.167 C 294.147 138.356,294.000 137.977,294.000 137.000 C 294.000 136.137,294.161 135.653,294.400 135.800 C 294.627 135.940,294.800 135.604,294.800 135.024 C 294.800 134.461,294.620 134.000,294.400 134.000 C 294.180 134.000,294.000 133.280,294.000 132.400 C 294.000 131.520,293.820 130.800,293.600 130.800 C 293.380 130.800,293.200 130.361,293.200 129.824 C 293.200 129.287,293.014 128.733,292.788 128.592 C 292.544 128.442,292.485 127.755,292.643 126.911 C 292.842 125.848,292.788 125.560,292.428 125.783 C 292.163 125.947,292.046 126.342,292.168 126.661 C 292.302 127.011,292.220 127.136,291.961 126.976 C 291.724 126.829,291.619 126.370,291.728 125.955 C 291.836 125.540,291.763 125.200,291.565 125.200 C 290.582 125.200,279.167 113.122,279.627 112.568 C 280.002 112.116,279.961 112.000,279.425 112.000 C 279.055 112.000,278.864 112.180,279.000 112.400 C 279.378 113.012,278.819 112.876,278.132 112.189 C 277.644 111.701,277.619 111.459,278.009 110.989 C 278.407 110.510,278.372 110.400,277.825 110.400 C 277.455 110.400,277.264 110.580,277.400 110.800 C 277.778 111.412,277.219 111.276,276.532 110.589 C 276.064 110.121,276.028 109.848,276.380 109.424 C 276.695 109.045,276.707 108.790,276.419 108.612 C 276.023 108.367,275.846 108.628,275.953 109.300 C 276.042 109.865,275.378 109.600,274.689 108.795 C 273.954 107.937,273.812 107.537,274.300 107.700 C 274.465 107.755,274.645 107.665,274.700 107.500 C 274.925 106.826,274.769 106.728,274.209 107.193 C 273.720 107.598,273.330 107.384,271.960 105.958 C 271.048 105.009,270.504 104.165,270.751 104.083 C 270.998 104.001,271.200 103.756,271.200 103.540 C 271.200 103.323,270.852 103.257,270.426 103.392 C 269.571 103.663,267.814 101.706,267.805 100.473 C 267.802 100.035,267.536 99.845,267.046 99.930 C 266.513 100.022,266.359 99.884,266.522 99.459 C 266.649 99.129,266.493 98.643,266.176 98.380 C 265.649 97.943,265.430 98.125,265.553 98.900 C 265.647 99.498,265.203 99.158,262.785 96.786 C 260.902 94.937,260.427 94.249,260.759 93.849 C 261.325 93.167,260.829 92.678,260.147 93.244 C 259.747 93.576,259.353 93.403,258.510 92.526 C 256.400 90.329,255.627 89.230,256.022 88.987 C 256.237 88.854,256.304 88.568,256.171 88.353 C 256.018 88.105,255.728 88.128,255.381 88.416 C 254.712 88.971,252.830 87.310,253.125 86.425 C 253.250 86.049,253.100 85.953,252.655 86.124 C 252.295 86.262,251.978 86.201,251.950 85.987 C 251.923 85.774,251.873 85.375,251.840 85.100 C 251.808 84.825,251.472 84.625,251.095 84.655 C 250.717 84.685,250.507 84.550,250.628 84.355 C 251.041 83.686,250.368 83.129,249.758 83.635 C 249.161 84.130,247.020 82.215,247.429 81.553 C 247.530 81.389,247.440 81.148,247.227 81.017 C 247.013 80.884,246.911 81.138,246.998 81.589 C 247.084 82.035,247.051 82.400,246.924 82.400 C 246.512 82.400,245.200 80.691,245.200 80.154 C 245.200 79.156,243.489 77.961,242.400 78.200 C 241.694 78.355,241.105 78.171,240.496 77.604 C 240.012 77.153,239.477 76.769,239.308 76.752 C 239.138 76.734,239.033 76.595,239.072 76.443 C 239.112 76.291,238.792 76.140,238.362 76.107 C 237.931 76.075,237.016 75.767,236.328 75.424 C 235.640 75.081,234.835 74.800,234.539 74.800 C 234.242 74.800,234.000 74.620,234.000 74.400 C 234.000 74.180,233.595 73.986,233.100 73.968 C 232.605 73.951,232.435 73.843,232.721 73.728 C 233.280 73.504,232.198 72.432,231.400 72.419 C 231.180 72.415,231.270 72.587,231.600 72.800 C 232.113 73.131,232.098 73.189,231.500 73.194 C 231.115 73.197,230.800 73.020,230.800 72.800 C 230.800 72.580,230.260 72.400,229.600 72.400 C 228.940 72.400,228.400 72.220,228.400 72.000 C 228.400 71.780,227.860 71.600,227.200 71.600 C 226.540 71.600,226.000 71.420,226.000 71.200 C 226.000 70.980,225.460 70.800,224.800 70.800 C 224.140 70.800,223.600 70.620,223.600 70.400 C 223.600 70.180,222.740 70.000,221.688 70.000 L 219.777 70.000 197.688 92.122 M268.602 101.602 C 269.002 102.044,269.411 102.322,269.512 102.221 C 269.728 102.005,268.588 100.800,268.167 100.800 C 268.007 100.800,268.203 101.161,268.602 101.602 M271.200 104.330 C 271.200 104.512,271.650 105.083,272.200 105.600 C 272.949 106.304,273.200 106.387,273.200 105.932 C 273.200 105.597,272.871 105.026,272.469 104.662 C 271.669 103.939,271.200 103.816,271.200 104.330 M199.100 108.282 C 199.595 108.378,200.405 108.378,200.900 108.282 C 201.395 108.187,200.990 108.109,200.000 108.109 C 199.010 108.109,198.605 108.187,199.100 108.282 M208.800 109.600 C 208.800 109.820,209.160 110.000,209.600 110.000 C 210.040 110.000,210.400 109.820,210.400 109.600 C 210.400 109.380,210.040 109.200,209.600 109.200 C 209.160 109.200,208.800 109.380,208.800 109.600 M282.667 115.467 C 282.521 115.613,283.849 117.164,285.619 118.915 C 287.388 120.665,288.940 121.994,289.067 121.867 C 289.194 121.740,287.865 120.188,286.115 118.419 C 284.364 116.649,282.813 115.321,282.667 115.467 M294.400 131.976 C 294.400 132.403,294.580 132.864,294.800 133.000 C 295.020 133.136,295.200 133.071,295.200 132.856 C 295.200 132.641,295.309 132.181,295.443 131.833 C 295.602 131.418,295.465 131.200,295.043 131.200 C 294.673 131.200,294.400 131.530,294.400 131.976 M94.680 137.454 C 94.530 137.604,94.607 137.968,94.852 138.263 C 95.182 138.661,95.175 138.800,94.825 138.800 C 94.565 138.800,94.465 138.981,94.602 139.203 C 94.755 139.451,95.094 139.363,95.483 138.974 C 96.035 138.422,96.041 138.270,95.533 137.762 C 95.214 137.442,94.830 137.304,94.680 137.454 M91.443 140.730 C 91.302 140.958,91.371 141.259,91.597 141.398 C 92.123 141.723,93.600 141.262,93.600 140.773 C 93.600 140.224,92.900 140.319,92.664 140.900 C 92.506 141.289,92.376 141.279,92.080 140.857 C 91.834 140.506,91.609 140.461,91.443 140.730 M293.784 144.827 C 293.639 145.061,293.616 145.349,293.733 145.467 C 294.020 145.753,294.800 145.248,294.800 144.776 C 294.800 144.265,294.109 144.299,293.784 144.827 M328.800 179.957 C 328.800 180.154,329.040 180.407,329.333 180.519 C 329.627 180.632,329.867 180.471,329.867 180.162 C 329.867 179.853,329.627 179.600,329.333 179.600 C 329.040 179.600,328.800 179.761,328.800 179.957 M175.067 184.267 C 174.553 184.781,174.799 185.575,175.400 185.345 C 175.730 185.218,176.000 184.864,176.000 184.557 C 176.000 183.969,175.515 183.818,175.067 184.267 M268.738 242.674 C 268.482 242.983,268.031 243.144,267.736 243.031 C 267.403 242.903,267.200 243.115,267.200 243.589 C 267.200 244.009,267.020 244.464,266.800 244.600 C 266.580 244.736,266.400 244.567,266.400 244.224 C 266.400 243.215,265.709 243.510,265.426 244.639 C 265.205 245.521,265.009 245.639,264.132 245.419 C 263.301 245.210,263.146 245.282,263.339 245.785 C 263.530 246.282,263.377 246.359,262.589 246.162 C 261.469 245.880,261.194 246.623,262.300 246.945 C 262.705 247.062,262.578 247.117,262.000 247.074 C 261.400 247.030,261.038 247.194,261.095 247.486 C 261.154 247.785,260.937 247.874,260.530 247.718 C 260.084 247.547,259.964 247.618,260.160 247.935 C 260.325 248.202,260.181 248.509,259.828 248.645 C 259.485 248.776,259.316 249.064,259.452 249.285 C 259.602 249.527,259.396 249.589,258.934 249.442 C 257.927 249.123,254.653 252.357,254.873 253.454 C 255.063 254.403,247.833 261.600,246.690 261.600 C 246.166 261.600,245.123 262.751,245.333 263.097 C 245.608 263.552,244.708 264.200,243.800 264.200 C 243.247 264.200,243.000 264.467,243.000 265.064 C 243.000 266.224,242.449 266.714,241.961 265.988 C 241.656 265.535,241.592 265.630,241.683 266.400 C 241.845 267.782,230.371 279.257,229.213 278.871 C 228.850 278.750,228.755 278.905,228.922 279.341 C 229.099 279.803,228.892 280.062,228.209 280.234 C 227.628 280.379,227.197 280.817,227.122 281.338 C 227.031 281.964,226.752 282.174,226.099 282.105 C 225.604 282.052,225.200 282.187,225.200 282.405 C 225.200 282.622,225.388 282.800,225.619 282.800 C 226.286 282.800,224.667 284.773,223.988 284.787 C 223.652 284.794,223.117 285.160,222.800 285.600 C 222.483 286.040,221.969 286.400,221.659 286.400 C 221.348 286.400,220.772 286.771,220.379 287.225 C 219.985 287.678,219.334 287.993,218.932 287.925 C 218.512 287.853,218.243 288.013,218.300 288.300 C 218.355 288.575,218.040 288.800,217.600 288.800 C 217.160 288.800,216.800 288.980,216.800 289.200 C 216.800 289.420,216.440 289.600,216.000 289.600 C 215.560 289.600,215.200 289.780,215.200 290.000 C 215.200 290.220,214.761 290.400,214.224 290.400 C 213.687 290.400,213.136 290.580,213.000 290.800 C 212.864 291.020,212.213 291.200,211.553 291.200 C 210.893 291.200,210.451 291.359,210.571 291.554 C 210.795 291.915,206.731 292.406,203.729 292.381 C 202.545 292.370,201.945 292.570,201.668 293.064 C 201.380 293.578,201.135 293.652,200.739 293.343 C 199.742 292.568,198.822 292.391,199.063 293.020 C 199.186 293.339,199.081 293.600,198.830 293.600 C 198.580 293.600,198.270 293.326,198.141 292.991 C 197.960 292.518,197.381 292.412,195.554 292.518 C 194.259 292.592,193.200 292.506,193.200 292.327 C 193.200 292.147,192.289 292.000,191.176 292.000 C 189.929 292.000,189.248 291.847,189.400 291.600 C 189.544 291.367,189.145 291.200,188.447 291.200 C 187.787 291.200,187.136 291.020,187.000 290.800 C 186.864 290.580,186.313 290.400,185.776 290.400 C 185.239 290.400,184.800 290.220,184.800 290.000 C 184.800 289.780,184.406 289.600,183.924 289.600 C 183.064 289.600,183.062 289.588,183.824 288.975 C 184.553 288.388,184.509 288.365,183.100 288.593 C 182.168 288.744,181.600 288.678,181.600 288.418 C 181.600 288.188,181.317 288.000,180.971 288.000 C 180.170 288.000,179.386 287.217,179.014 286.044 C 178.761 285.248,178.542 285.159,177.361 285.381 C 176.613 285.521,175.994 285.493,175.987 285.318 C 175.981 285.143,175.534 284.679,174.995 284.287 C 174.198 283.707,174.059 283.689,174.250 284.187 C 174.380 284.524,174.646 284.800,174.843 284.800 C 175.039 284.800,175.200 284.977,175.200 285.192 C 175.200 285.408,175.853 286.606,176.652 287.855 C 183.728 298.916,178.919 312.962,166.605 317.198 C 163.758 318.178,157.840 318.290,155.400 317.412 C 153.254 316.638,150.930 316.593,151.548 317.337 C 151.793 317.632,151.879 317.988,151.740 318.127 C 151.264 318.603,152.498 319.623,153.258 319.382 C 154.104 319.113,154.962 319.819,155.376 321.124 C 155.531 321.612,155.844 321.897,156.072 321.756 C 156.337 321.591,156.291 321.377,155.943 321.156 C 155.504 320.878,155.501 320.811,155.929 320.806 C 156.219 320.803,156.729 321.072,157.061 321.404 C 157.393 321.736,157.875 321.881,158.132 321.727 C 158.476 321.521,158.474 321.603,158.123 322.037 C 157.860 322.361,157.770 322.814,157.923 323.043 C 158.285 323.586,159.725 324.126,159.397 323.595 C 159.263 323.378,159.411 323.200,159.727 323.200 C 160.424 323.200,161.297 324.170,160.930 324.537 C 160.785 324.682,160.877 324.800,161.133 324.800 C 161.390 324.800,161.600 324.610,161.600 324.377 C 161.600 324.140,161.991 324.228,162.489 324.577 C 162.978 324.920,163.698 325.200,164.089 325.200 C 164.480 325.200,164.800 325.367,164.800 325.571 C 164.800 325.775,165.115 326.024,165.500 326.124 C 166.167 326.298,166.167 326.309,165.500 326.354 C 165.115 326.379,164.800 326.577,164.800 326.792 C 164.800 327.027,165.522 327.086,166.600 326.938 C 167.822 326.771,168.400 326.837,168.400 327.146 C 168.400 327.396,168.805 327.603,169.300 327.606 C 169.801 327.610,170.013 327.743,169.778 327.906 C 169.502 328.099,169.600 328.437,170.063 328.885 C 170.452 329.262,170.869 329.413,170.988 329.220 C 171.107 329.026,170.979 328.777,170.702 328.666 C 170.426 328.554,170.695 328.449,171.300 328.432 C 171.905 328.414,172.400 328.580,172.400 328.800 C 172.400 329.020,172.760 329.200,173.200 329.200 C 173.640 329.200,174.000 329.380,174.000 329.600 C 174.000 329.820,174.720 330.000,175.600 330.000 C 176.480 330.000,177.200 330.180,177.200 330.400 C 177.200 330.620,177.785 330.825,178.500 330.854 C 179.480 330.896,179.573 330.952,178.877 331.085 C 178.369 331.182,178.032 331.473,178.127 331.731 C 178.222 331.989,178.548 332.121,178.850 332.024 C 180.196 331.592,183.600 331.549,183.600 331.963 C 183.600 332.203,184.275 332.427,185.100 332.460 C 186.307 332.508,186.385 332.552,185.500 332.687 C 182.675 333.114,184.897 333.455,189.400 333.285 C 192.963 333.150,194.400 333.225,194.400 333.548 C 194.400 333.862,196.057 334.000,199.824 334.000 C 203.337 334.000,205.160 333.859,205.000 333.600 C 204.841 333.343,206.196 333.200,208.776 333.200 C 211.192 333.200,212.800 333.040,212.800 332.800 C 212.800 332.580,213.700 332.400,214.800 332.400 C 215.900 332.400,216.800 332.220,216.800 332.000 C 216.800 331.780,217.599 331.600,218.576 331.600 C 219.553 331.600,220.464 331.420,220.600 331.200 C 220.736 330.980,221.287 330.800,221.824 330.800 C 222.361 330.800,222.800 330.620,222.800 330.400 C 222.800 330.180,223.340 330.000,224.000 330.000 C 224.660 330.000,225.200 329.820,225.200 329.600 C 225.200 329.380,225.740 329.200,226.400 329.200 C 227.060 329.200,227.600 329.020,227.600 328.800 C 227.600 328.580,228.095 328.403,228.700 328.406 C 229.469 328.410,229.637 328.516,229.257 328.756 C 228.959 328.945,228.869 329.184,229.057 329.287 C 229.246 329.389,229.704 329.153,230.075 328.762 C 230.555 328.256,230.613 327.989,230.275 327.838 C 230.014 327.721,230.520 327.721,231.400 327.838 C 232.902 328.037,232.952 328.011,232.224 327.425 C 231.462 326.812,231.464 326.800,232.324 326.800 C 232.806 326.800,233.200 326.620,233.200 326.400 C 233.200 326.180,233.560 326.000,234.000 326.000 C 234.440 326.000,234.800 325.820,234.800 325.600 C 234.800 325.380,235.210 325.200,235.711 325.200 C 236.212 325.200,237.015 324.925,237.495 324.588 C 238.056 324.195,238.747 324.072,239.427 324.243 C 240.134 324.420,240.603 324.324,240.837 323.954 C 241.344 323.153,241.278 322.709,240.700 323.035 C 240.425 323.191,240.595 322.934,241.077 322.464 C 241.743 321.817,242.249 321.670,243.177 321.855 C 243.961 322.012,244.400 321.939,244.400 321.650 C 244.400 321.403,244.117 321.200,243.771 321.200 C 243.213 321.200,243.210 321.133,243.743 320.600 C 244.527 319.816,244.837 319.838,244.524 320.655 C 244.351 321.105,244.449 321.250,244.836 321.121 C 245.146 321.018,245.423 320.723,245.450 320.467 C 245.478 320.210,245.523 319.820,245.550 319.600 C 245.578 319.380,245.915 319.203,246.300 319.206 C 246.845 319.211,246.880 319.288,246.457 319.556 C 246.109 319.777,246.063 319.991,246.328 320.156 C 246.556 320.297,246.867 320.019,247.019 319.540 C 247.343 318.520,248.967 316.800,249.605 316.800 C 249.848 316.800,249.960 316.659,249.853 316.487 C 249.747 316.314,250.139 316.179,250.725 316.187 C 251.310 316.194,251.792 315.982,251.795 315.716 C 251.806 314.675,252.882 313.727,253.842 313.910 C 254.390 314.015,254.800 313.902,254.800 313.647 C 254.800 313.401,254.526 313.200,254.192 313.200 C 253.836 313.200,254.459 312.318,255.692 311.075 C 256.851 309.906,257.858 309.091,257.930 309.263 C 258.001 309.436,257.596 310.041,257.030 310.607 C 256.463 311.173,256.000 311.755,256.000 311.899 C 256.000 312.044,256.699 311.480,257.553 310.646 C 258.671 309.554,259.054 308.887,258.919 308.264 C 258.768 307.572,258.814 307.519,259.149 307.997 C 259.500 308.498,259.839 308.337,261.258 306.997 C 262.188 306.119,263.186 305.188,263.475 304.929 C 264.146 304.326,264.138 304.090,263.439 303.929 C 262.958 303.818,262.958 303.727,263.439 303.284 C 263.901 302.860,264.000 302.877,264.000 303.384 C 264.000 304.151,264.293 304.164,265.029 303.429 C 265.745 302.713,265.747 302.493,265.039 302.329 C 264.558 302.218,264.558 302.127,265.039 301.684 C 265.501 301.260,265.600 301.277,265.600 301.784 C 265.600 302.551,265.893 302.564,266.629 301.829 C 267.345 301.113,267.347 300.893,266.639 300.729 C 266.158 300.618,266.158 300.527,266.639 300.084 C 267.101 299.660,267.200 299.677,267.200 300.184 C 267.200 300.951,267.493 300.964,268.229 300.229 C 268.945 299.513,268.947 299.293,268.239 299.129 C 267.758 299.018,267.758 298.927,268.239 298.484 C 268.701 298.060,268.800 298.077,268.800 298.584 C 268.800 299.538,269.141 299.346,271.063 297.311 C 272.057 296.259,272.775 295.147,272.684 294.800 C 272.480 294.019,273.377 293.140,274.097 293.416 C 274.393 293.530,275.046 293.151,275.547 292.575 L 276.457 291.528 275.529 291.816 C 274.675 292.080,274.697 292.009,275.800 290.928 C 276.460 290.281,277.067 289.919,277.149 290.123 C 277.231 290.326,277.051 290.649,276.749 290.840 C 276.447 291.031,276.380 291.185,276.600 291.182 C 277.239 291.173,279.706 288.771,279.383 288.472 C 279.222 288.322,279.010 288.425,278.912 288.700 C 278.814 288.975,278.477 289.200,278.163 289.200 C 277.850 289.200,279.980 286.800,282.896 283.867 C 286.079 280.667,288.422 278.613,288.755 278.731 C 289.101 278.854,289.237 278.716,289.117 278.364 C 288.909 277.751,290.217 276.400,291.018 276.400 C 291.291 276.400,291.614 276.139,291.737 275.820 C 291.883 275.440,291.767 275.315,291.401 275.455 C 290.940 275.632,290.925 275.494,291.316 274.665 C 291.608 274.047,291.896 273.832,292.065 274.105 C 292.725 275.173,293.581 273.574,293.330 271.743 C 293.143 270.377,293.210 269.990,293.618 270.081 C 294.005 270.168,294.122 269.751,294.047 268.541 C 293.991 267.628,294.137 266.762,294.372 266.617 C 294.913 266.283,294.937 264.000,294.400 264.000 C 294.180 264.000,294.000 263.730,294.000 263.400 C 294.000 263.070,294.180 262.800,294.400 262.800 C 294.620 262.800,294.800 262.350,294.800 261.800 C 294.800 261.250,294.620 260.800,294.400 260.800 C 294.180 260.800,294.000 260.080,294.000 259.200 C 294.000 258.279,293.809 257.600,293.549 257.600 C 293.247 257.600,293.182 257.072,293.354 256.000 C 293.596 254.484,293.148 253.800,292.633 254.900 C 292.504 255.175,292.497 254.725,292.618 253.900 C 292.836 252.401,292.229 251.747,291.876 253.100 C 291.737 253.631,291.682 253.585,291.646 252.907 C 291.619 252.381,290.531 250.946,288.996 249.411 C 287.564 247.979,286.391 246.671,286.389 246.504 C 286.386 246.337,286.073 246.200,285.692 246.200 C 284.919 246.200,282.940 244.927,283.242 244.624 C 283.349 244.517,283.929 244.686,284.531 244.998 C 285.134 245.311,285.527 245.405,285.405 245.208 C 285.072 244.669,282.747 243.585,282.393 243.804 C 282.223 243.909,281.981 243.726,281.854 243.398 C 281.556 242.620,280.400 242.622,280.400 243.400 C 280.400 243.730,280.109 244.000,279.753 244.000 C 279.304 244.000,279.170 243.756,279.316 243.200 C 279.431 242.761,279.362 242.300,279.162 242.177 C 278.963 242.054,278.800 242.307,278.800 242.739 C 278.800 243.339,278.602 243.473,277.966 243.307 C 277.332 243.141,277.260 243.008,277.666 242.751 C 277.960 242.565,278.020 242.407,277.800 242.401 C 277.580 242.395,275.556 242.327,273.302 242.251 C 270.140 242.144,269.099 242.240,268.738 242.674 M270.654 243.402 C 269.387 244.064,268.400 244.179,268.400 243.667 C 268.400 243.036,268.937 242.800,270.367 242.802 L 271.800 242.805 270.654 243.402 M275.907 243.086 C 275.306 243.177,274.226 243.179,273.507 243.090 C 272.788 243.001,273.280 242.926,274.600 242.924 C 275.920 242.922,276.508 242.995,275.907 243.086 M287.600 246.935 C 287.600 247.095,288.230 247.857,289.000 248.627 C 289.770 249.397,290.400 249.876,290.400 249.692 C 290.400 249.508,289.770 248.746,289.000 248.000 C 288.230 247.254,287.600 246.774,287.600 246.935 M295.200 261.953 C 295.200 263.926,295.708 264.939,296.137 263.821 C 296.422 263.078,295.996 260.445,295.546 260.167 C 295.356 260.049,295.200 260.853,295.200 261.953 M295.200 265.353 C 295.200 265.683,295.380 266.064,295.600 266.200 C 295.820 266.336,296.000 266.177,296.000 265.847 C 296.000 265.517,295.820 265.136,295.600 265.000 C 295.380 264.864,295.200 265.023,295.200 265.353 M294.678 267.455 C 294.273 267.860,294.337 269.600,294.757 269.600 C 295.303 269.600,295.641 268.403,295.278 267.754 C 295.101 267.437,294.831 267.303,294.678 267.455 M112.662 280.700 C 112.368 281.176,114.291 283.043,114.677 282.656 C 114.831 282.502,114.494 281.912,113.928 281.346 C 113.362 280.780,112.792 280.489,112.662 280.700 M280.787 286.812 C 280.074 287.478,279.593 288.126,279.718 288.252 C 279.844 288.377,280.595 287.832,281.387 287.040 C 283.129 285.298,282.617 285.103,280.787 286.812 M187.692 290.075 C 187.779 290.336,188.064 290.621,188.325 290.708 C 188.618 290.806,188.707 290.623,188.557 290.233 C 188.278 289.506,187.452 289.355,187.692 290.075 M192.200 291.200 C 192.064 291.420,192.323 291.600,192.776 291.600 C 193.229 291.600,193.600 291.420,193.600 291.200 C 193.600 290.980,193.341 290.800,193.024 290.800 C 192.707 290.800,192.336 290.980,192.200 291.200 M206.600 291.200 C 206.736 291.420,207.117 291.600,207.447 291.600 C 207.777 291.600,207.936 291.420,207.800 291.200 C 207.664 290.980,207.283 290.800,206.953 290.800 C 206.623 290.800,206.464 290.980,206.600 291.200 M196.700 291.897 C 198.295 291.973,200.905 291.973,202.500 291.897 C 204.095 291.821,202.790 291.759,199.600 291.759 C 196.410 291.759,195.105 291.821,196.700 291.897 M163.200 326.000 C 163.200 326.220,163.470 326.400,163.800 326.400 C 164.130 326.400,164.400 326.220,164.400 326.000 C 164.400 325.780,164.130 325.600,163.800 325.600 C 163.470 325.600,163.200 325.780,163.200 326.000 M234.629 326.209 C 234.205 326.529,233.969 326.902,234.104 327.038 C 234.462 327.395,236.522 326.633,236.708 326.075 C 236.928 325.415,235.562 325.503,234.629 326.209 M226.584 330.027 C 226.439 330.261,226.416 330.549,226.533 330.667 C 226.820 330.953,227.600 330.448,227.600 329.976 C 227.600 329.465,226.909 329.499,226.584 330.027 M224.874 330.422 C 224.365 330.626,224.056 330.967,224.187 331.179 C 224.497 331.680,225.476 331.299,225.757 330.569 C 225.877 330.256,225.936 330.011,225.887 330.025 C 225.839 330.039,225.383 330.218,224.874 330.422 M213.400 333.200 C 213.264 333.420,212.803 333.600,212.376 333.600 C 211.949 333.600,211.600 333.780,211.600 334.000 C 211.600 334.220,211.960 334.400,212.400 334.400 C 212.840 334.400,213.200 334.220,213.200 334.000 C 213.200 333.780,213.740 333.600,214.400 333.600 C 215.060 333.600,215.600 333.420,215.600 333.200 C 215.600 332.980,215.161 332.800,214.624 332.800 C 214.087 332.800,213.536 332.980,213.400 333.200 M194.800 334.800 C 194.800 335.046,196.800 335.200,200.000 335.200 C 203.200 335.200,205.200 335.046,205.200 334.800 C 205.200 334.554,203.200 334.400,200.000 334.400 C 196.800 334.400,194.800 334.554,194.800 334.800 " stroke="none" fill="#fb9c1c" fill-rule="evenodd"></path><path id="path2" d="M236.623 1.962 C 236.500 2.162,236.042 2.232,235.606 2.117 C 234.594 1.853,232.800 2.294,232.800 2.808 C 232.800 3.382,237.745 3.295,238.330 2.710 C 238.717 2.323,238.985 2.323,239.605 2.710 C 240.537 3.292,244.400 3.371,244.400 2.808 C 244.400 2.273,242.640 1.870,241.663 2.180 C 241.225 2.319,240.752 2.245,240.610 2.016 C 240.294 1.505,236.934 1.460,236.623 1.962 M229.831 3.707 C 228.042 4.725,227.628 5.448,228.678 5.720 C 229.075 5.822,228.728 5.882,227.907 5.853 C 226.438 5.801,225.390 6.823,160.807 71.351 C 100.426 131.680,94.105 138.106,95.761 137.470 C 96.759 137.087,96.776 137.661,95.794 138.642 C 94.626 139.810,94.264 139.858,94.600 138.800 C 94.780 138.232,94.672 138.000,94.227 138.000 C 93.487 138.000,93.402 138.842,94.073 139.513 C 94.334 139.774,94.421 140.113,94.267 140.267 C 94.113 140.421,93.774 140.334,93.513 140.073 C 92.768 139.328,92.000 139.519,92.000 140.449 C 92.000 141.164,92.096 141.218,92.610 140.792 C 94.055 139.592,93.549 140.912,92.037 142.286 C 91.120 143.118,89.567 144.570,88.585 145.511 C 87.465 146.584,86.800 146.994,86.800 146.611 C 86.800 145.741,86.274 145.856,85.588 146.874 C 85.265 147.355,84.325 148.500,83.500 149.419 C 82.675 150.338,82.000 151.261,82.000 151.470 C 82.000 151.679,81.460 152.368,80.800 153.000 C 80.140 153.632,79.600 154.304,79.600 154.492 C 79.600 154.680,79.240 155.220,78.800 155.692 C 78.360 156.164,78.000 156.787,78.000 157.075 C 78.000 157.364,77.799 157.600,77.553 157.600 C 77.294 157.600,77.186 158.014,77.296 158.588 C 77.399 159.131,77.354 159.495,77.196 159.397 C 76.572 159.012,75.446 160.909,75.347 162.514 C 75.212 164.721,75.206 164.733,74.768 163.800 C 74.484 163.196,74.434 163.392,74.567 164.600 C 74.663 165.480,74.652 165.885,74.542 165.500 C 74.153 164.143,73.508 164.776,73.727 166.300 C 73.845 167.125,73.852 167.485,73.742 167.100 C 73.337 165.687,70.800 169.222,70.800 171.199 C 70.800 171.551,70.594 172.046,70.342 172.298 C 69.999 172.641,70.009 173.055,70.382 173.957 C 70.656 174.618,70.786 175.393,70.672 175.680 C 70.557 175.966,70.449 175.795,70.432 175.300 C 70.414 174.805,70.239 174.400,70.043 174.400 C 69.488 174.400,69.234 175.410,69.631 176.036 C 69.827 176.346,69.965 177.230,69.937 178.000 L 69.886 179.400 69.643 177.800 C 69.366 175.973,69.046 176.255,68.197 179.075 C 67.739 180.597,67.723 181.140,68.115 181.789 C 68.428 182.307,68.519 183.322,68.366 184.600 L 68.126 186.600 68.063 184.300 C 68.019 182.677,67.200 180.635,67.200 182.148 C 67.200 182.229,66.931 183.837,66.603 185.721 C 66.274 187.606,66.106 189.411,66.230 189.733 C 66.353 190.056,66.262 190.438,66.027 190.583 C 65.454 190.938,65.434 209.850,66.007 210.204 C 66.230 210.342,66.302 210.635,66.167 210.854 C 65.833 211.394,66.348 214.000,66.789 214.000 C 66.983 214.000,67.218 213.775,67.312 213.500 C 67.406 213.225,67.380 213.450,67.254 214.000 C 66.832 215.835,67.049 218.184,67.790 219.800 L 68.522 221.400 68.814 220.200 C 69.040 219.271,69.116 219.199,69.153 219.881 C 69.179 220.366,69.018 221.176,68.796 221.681 C 68.478 222.406,68.677 223.399,69.737 226.380 C 71.025 230.002,72.000 231.403,72.000 229.633 C 72.000 229.175,71.820 228.800,71.600 228.800 C 71.380 228.800,71.200 228.260,71.200 227.600 C 71.200 226.940,71.020 226.400,70.800 226.400 C 70.580 226.400,70.425 225.905,70.454 225.300 C 70.501 224.357,70.534 224.328,70.682 225.100 C 70.778 225.595,71.023 226.000,71.228 226.000 C 71.433 226.000,71.600 226.540,71.600 227.200 C 71.600 227.860,71.780 228.400,72.000 228.400 C 72.529 228.400,72.511 229.846,71.969 230.857 C 71.642 231.469,71.694 231.991,72.188 233.031 C 72.909 234.551,73.600 234.829,73.600 233.600 C 73.600 233.160,73.420 232.800,73.200 232.800 C 72.980 232.800,72.825 232.305,72.854 231.700 C 72.901 230.757,72.934 230.728,73.082 231.500 C 73.178 231.995,73.446 232.400,73.679 232.400 C 73.950 232.400,74.009 232.985,73.842 234.025 C 73.588 235.616,75.318 240.331,76.402 241.001 C 76.609 241.129,77.074 241.856,77.435 242.617 C 77.796 243.378,78.251 244.000,78.446 244.000 C 78.641 244.000,78.800 244.242,78.800 244.538 C 78.800 244.834,79.160 245.402,79.600 245.800 C 80.040 246.198,80.400 246.732,80.400 246.987 C 80.400 247.242,80.940 247.968,81.600 248.600 C 82.260 249.232,82.803 249.941,82.807 250.175 C 82.821 251.020,94.779 263.369,95.170 262.942 C 95.296 262.804,95.175 262.610,94.900 262.512 C 94.625 262.414,94.400 262.077,94.400 261.763 C 94.400 261.449,96.830 263.623,99.800 266.593 C 102.770 269.563,105.200 272.112,105.200 272.258 C 105.200 272.404,104.839 272.197,104.398 271.798 C 103.956 271.398,103.469 271.197,103.315 271.351 C 103.161 271.505,105.135 273.731,107.702 276.298 C 110.269 278.865,112.497 280.837,112.653 280.681 C 112.809 280.525,112.514 279.948,111.999 279.398 C 111.483 278.849,111.181 278.400,111.329 278.400 C 111.927 278.400,125.932 292.756,125.484 292.910 C 125.188 293.012,125.620 293.783,126.600 294.901 C 128.325 296.867,128.671 297.079,128.871 296.290 C 128.942 296.009,132.200 298.979,136.112 302.890 C 142.915 309.691,145.560 312.865,139.849 307.374 C 138.347 305.930,137.030 304.836,136.923 304.943 C 136.816 305.050,137.498 305.827,138.437 306.669 C 140.191 308.241,140.477 308.535,143.197 311.574 C 144.070 312.550,144.910 313.223,145.063 313.070 C 145.216 312.917,144.826 312.254,144.196 311.596 C 142.159 309.470,143.546 310.329,145.817 312.600 C 147.090 313.872,147.761 314.800,147.409 314.800 C 147.074 314.800,146.800 314.980,146.800 315.200 C 146.800 315.420,147.036 315.600,147.325 315.600 C 147.614 315.600,148.352 316.124,148.965 316.764 C 150.161 318.012,151.458 318.554,151.825 317.959 C 151.950 317.758,151.635 317.426,151.126 317.222 C 149.510 316.574,153.575 316.754,155.400 317.412 C 157.840 318.290,163.758 318.178,166.605 317.198 C 178.919 312.962,183.728 298.916,176.652 287.855 C 175.853 286.606,175.200 285.408,175.200 285.192 C 175.200 284.977,175.039 284.800,174.843 284.800 C 174.646 284.800,174.366 284.485,174.219 284.100 C 174.005 283.539,174.052 283.499,174.456 283.900 C 174.733 284.175,175.194 284.400,175.480 284.400 C 176.174 284.400,176.148 283.232,175.448 282.963 C 175.031 282.803,141.176 249.034,129.800 237.431 C 128.920 236.534,127.030 234.720,125.599 233.400 C 124.169 232.080,121.649 229.474,119.999 227.610 C 118.350 225.745,116.771 223.973,116.491 223.672 C 116.211 223.371,115.711 222.601,115.380 221.962 C 115.050 221.323,114.593 220.800,114.366 220.800 C 114.139 220.800,114.056 220.632,114.183 220.428 C 114.310 220.223,113.960 219.388,113.407 218.572 C 112.853 217.756,112.400 216.933,112.400 216.744 C 112.400 216.112,111.661 216.391,111.458 217.100 C 111.348 217.485,111.349 217.154,111.461 216.364 C 111.690 214.755,110.977 211.600,110.385 211.600 C 110.173 211.600,109.975 212.095,109.946 212.700 C 109.899 213.643,109.866 213.672,109.718 212.900 C 109.622 212.405,109.377 212.000,109.172 212.000 C 108.668 212.000,108.697 209.463,109.208 208.952 C 109.465 208.695,109.517 207.263,109.350 205.084 C 109.064 201.367,108.404 200.704,108.394 204.124 C 108.389 205.633,108.280 206.036,107.992 205.600 C 107.502 204.858,107.546 195.281,108.041 194.975 C 108.238 194.853,108.400 195.653,108.400 196.753 C 108.400 200.117,109.068 199.388,109.350 195.716 C 109.517 193.537,109.465 192.105,109.208 191.848 C 108.682 191.322,108.675 188.800,109.200 188.800 C 109.420 188.800,109.627 188.215,109.660 187.500 C 109.719 186.221,109.723 186.219,109.891 187.349 C 109.985 187.981,109.868 188.692,109.631 188.929 C 109.118 189.442,109.051 191.200,109.545 191.200 C 110.227 191.200,111.325 186.833,110.803 186.203 C 110.540 185.886,110.417 185.396,110.531 185.113 C 110.660 184.791,110.749 184.860,110.768 185.300 C 110.786 185.685,111.000 186.000,111.245 186.000 C 111.530 186.000,111.612 185.463,111.473 184.500 C 111.355 183.675,111.348 183.315,111.458 183.700 C 111.784 184.838,112.207 184.520,113.206 182.387 C 113.724 181.280,114.375 180.187,114.651 179.958 C 114.927 179.729,115.054 179.285,114.933 178.971 C 114.813 178.657,114.905 178.400,115.138 178.400 C 115.371 178.400,116.091 177.635,116.739 176.700 C 118.336 174.396,175.773 116.938,177.238 116.181 C 177.877 115.850,178.400 115.314,178.400 114.990 C 178.400 114.209,177.639 114.233,177.336 115.023 C 177.204 115.366,176.862 115.556,176.574 115.445 C 176.287 115.335,175.993 115.370,175.922 115.522 C 175.717 115.961,173.200 118.176,173.200 117.917 C 173.200 117.789,173.740 117.107,174.400 116.400 C 175.060 115.693,175.600 114.919,175.600 114.680 C 175.600 113.747,219.747 70.000,220.688 70.000 C 221.190 70.000,221.600 69.808,221.600 69.573 C 221.600 69.326,221.942 69.255,222.411 69.404 C 222.981 69.584,223.453 69.384,223.998 68.731 C 224.939 67.601,225.056 66.886,224.152 67.790 C 223.110 68.833,223.028 68.153,224.060 67.021 C 227.576 63.160,232.000 58.855,232.000 59.293 C 232.000 59.582,230.470 61.340,228.600 63.200 C 226.730 65.060,225.200 66.731,225.200 66.913 C 225.200 67.095,230.600 61.879,237.200 55.322 C 249.180 43.418,249.743 42.800,248.584 42.800 C 248.077 42.800,248.060 42.701,248.484 42.239 C 248.927 41.758,249.018 41.758,249.129 42.239 C 249.200 42.548,249.376 42.800,249.520 42.800 C 249.925 42.800,255.600 37.066,255.600 36.657 C 255.600 36.457,255.940 35.999,256.355 35.639 C 258.073 34.149,259.266 31.200,258.151 31.200 C 257.622 31.200,257.593 31.090,257.996 30.604 C 258.268 30.277,258.650 30.107,258.845 30.228 C 259.040 30.349,259.200 30.092,259.200 29.657 C 259.200 29.222,259.425 28.791,259.700 28.699 C 260.065 28.577,260.200 27.149,260.200 23.399 C 260.200 19.648,260.065 18.221,259.700 18.100 C 259.425 18.008,259.200 17.594,259.200 17.179 C 259.200 16.705,258.997 16.503,258.652 16.636 C 258.350 16.751,257.992 16.556,257.856 16.202 C 257.712 15.826,257.774 15.661,258.007 15.805 C 258.831 16.313,258.813 14.848,257.978 13.361 C 257.075 11.754,255.237 9.930,254.795 10.203 C 254.655 10.289,254.554 9.973,254.570 9.500 C 254.588 9.001,254.238 8.456,253.736 8.201 C 253.261 7.960,252.355 7.208,251.721 6.530 C 250.318 5.028,245.876 2.719,245.021 3.047 C 243.997 3.440,244.316 3.939,245.700 4.111 C 246.980 4.269,246.977 4.273,245.500 4.336 C 244.675 4.371,244.000 4.220,244.000 4.000 C 244.000 3.373,233.319 3.471,233.065 4.100 C 232.938 4.416,232.852 4.358,232.832 3.943 C 232.814 3.581,232.515 3.176,232.167 3.043 C 231.383 2.742,231.666 2.662,229.831 3.707 M227.345 7.000 C 227.218 7.330,226.857 7.600,226.541 7.600 C 226.070 7.600,226.060 7.496,226.484 7.015 C 227.160 6.249,227.636 6.241,227.345 7.000 M259.200 23.400 C 259.200 28.287,258.810 30.411,258.283 28.396 C 258.169 27.958,258.256 27.600,258.478 27.600 C 258.735 27.600,258.831 25.800,258.741 22.638 C 258.663 19.909,258.735 17.760,258.900 17.862 C 259.065 17.964,259.200 20.456,259.200 23.400 M246.773 45.029 C 246.271 45.563,245.617 46.000,245.319 46.000 C 245.018 46.000,245.359 45.409,246.089 44.669 C 247.560 43.175,248.199 43.511,246.773 45.029 M238.642 53.385 C 237.863 54.163,237.036 54.800,236.804 54.800 C 236.572 54.800,237.151 54.023,238.091 53.073 C 239.031 52.122,239.858 51.486,239.928 51.658 C 239.999 51.829,239.420 52.607,238.642 53.385 M225.600 69.802 C 225.600 70.498,226.870 71.290,227.299 70.861 C 227.545 70.615,227.669 70.343,227.573 70.256 C 227.212 69.929,225.600 69.557,225.600 69.802 M228.000 70.602 C 228.000 71.298,229.270 72.090,229.699 71.661 C 229.945 71.415,230.069 71.143,229.973 71.056 C 229.612 70.729,228.000 70.357,228.000 70.602 M230.477 72.030 C 230.555 72.266,230.791 72.460,231.000 72.460 C 231.209 72.460,231.445 72.266,231.523 72.030 C 231.602 71.794,231.367 71.600,231.000 71.600 C 230.633 71.600,230.398 71.794,230.477 72.030 M232.413 72.700 C 232.429 73.089,236.098 75.379,236.526 75.268 C 236.705 75.221,237.363 75.547,237.988 75.991 C 238.612 76.436,239.321 76.800,239.562 76.800 C 239.803 76.800,240.000 76.999,240.000 77.243 C 240.000 77.486,240.255 77.588,240.567 77.468 C 240.879 77.348,241.233 77.509,241.354 77.825 C 241.616 78.508,242.400 78.597,242.400 77.944 C 242.400 77.202,241.089 76.427,239.800 76.407 C 238.876 76.392,238.738 76.299,239.200 76.000 C 239.626 75.725,239.650 75.610,239.283 75.606 C 238.999 75.603,238.380 75.240,237.908 74.800 C 237.436 74.360,236.716 74.000,236.308 74.000 C 235.900 74.000,235.180 73.640,234.708 73.200 C 233.872 72.421,232.387 72.098,232.413 72.700 M245.200 79.817 C 245.200 80.471,249.485 83.848,249.851 83.482 C 250.189 83.144,249.603 82.351,249.200 82.600 C 249.010 82.717,248.601 82.452,248.291 82.009 C 247.982 81.567,247.634 81.300,247.518 81.415 C 247.403 81.530,247.010 81.169,246.645 80.612 C 246.054 79.710,245.200 79.240,245.200 79.817 M251.867 85.067 C 251.750 85.183,251.748 85.519,251.861 85.814 C 252.069 86.357,253.200 86.177,253.200 85.600 C 253.200 85.203,252.150 84.783,251.867 85.067 M253.886 86.662 C 253.769 86.850,254.004 87.412,254.408 87.911 C 254.892 88.508,255.237 88.664,255.420 88.368 C 255.572 88.121,255.337 87.559,254.897 87.119 C 254.457 86.679,254.002 86.473,253.886 86.662 M255.873 89.060 C 255.730 89.203,256.060 89.735,256.607 90.241 C 257.153 90.747,257.600 91.380,257.600 91.648 C 257.600 91.915,257.718 92.015,257.863 91.870 C 258.225 91.508,259.244 92.405,258.972 92.845 C 258.851 93.040,259.123 93.200,259.576 93.200 C 260.814 93.200,260.595 92.717,258.429 90.666 C 256.343 88.692,256.281 88.652,255.873 89.060 M260.680 94.136 C 260.562 94.443,260.971 94.965,261.637 95.358 C 262.277 95.736,262.800 96.305,262.800 96.623 C 262.800 96.940,263.011 97.200,263.269 97.200 C 263.526 97.200,264.067 97.499,264.471 97.864 C 266.279 99.500,265.523 97.761,263.574 95.799 C 261.241 93.451,260.997 93.311,260.680 94.136 M267.840 100.735 C 267.350 101.529,269.812 103.747,270.625 103.243 C 271.326 102.808,271.305 102.788,270.403 103.039 C 269.477 103.296,269.448 103.264,270.003 102.583 C 270.542 101.922,270.533 101.875,269.913 102.108 C 269.233 102.362,268.513 101.825,269.098 101.500 C 269.264 101.407,269.181 101.384,268.913 101.448 C 268.243 101.609,267.875 100.917,268.498 100.666 C 268.857 100.521,268.865 100.454,268.524 100.432 C 268.262 100.414,267.954 100.551,267.840 100.735 M270.891 103.935 C 270.500 104.183,270.569 104.473,271.191 105.190 C 271.636 105.703,272.000 105.951,272.000 105.741 C 272.000 105.532,271.777 105.137,271.503 104.863 C 271.108 104.468,271.128 104.290,271.603 103.989 C 271.932 103.782,272.020 103.612,271.800 103.612 C 271.580 103.612,271.171 103.758,270.891 103.935 M273.200 106.567 C 273.200 106.915,273.485 107.200,273.833 107.200 C 274.182 107.200,274.395 106.986,274.308 106.725 C 274.061 105.983,273.200 105.860,273.200 106.567 M274.872 108.469 C 274.942 108.946,275.270 109.410,275.600 109.499 C 276.088 109.631,276.098 109.590,275.655 109.279 C 275.219 108.974,275.213 108.862,275.626 108.725 C 275.910 108.630,276.009 108.339,275.847 108.076 C 275.360 107.288,274.735 107.540,274.872 108.469 M191.600 109.000 C 191.898 109.359,192.680 109.574,193.549 109.536 L 195.000 109.472 193.600 109.279 C 192.275 109.097,192.254 109.070,193.200 108.783 C 194.067 108.520,193.993 108.474,192.651 108.440 C 191.317 108.406,191.171 108.483,191.600 109.000 M197.200 108.800 C 197.200 109.020,197.470 109.200,197.800 109.200 C 198.130 109.200,198.400 109.020,198.400 108.800 C 198.400 108.580,198.130 108.400,197.800 108.400 C 197.470 108.400,197.200 108.580,197.200 108.800 M201.600 108.800 C 201.600 109.020,201.870 109.200,202.200 109.200 C 202.530 109.200,202.800 109.020,202.800 108.800 C 202.800 108.580,202.530 108.400,202.200 108.400 C 201.870 108.400,201.600 108.580,201.600 108.800 M206.800 108.783 L 207.800 109.086 206.600 109.281 L 205.400 109.475 206.569 109.437 C 207.212 109.417,207.812 109.175,207.903 108.900 C 208.010 108.574,207.673 108.414,206.933 108.440 L 205.800 108.480 206.800 108.783 M210.280 109.736 C 210.149 110.076,210.323 110.438,210.683 110.576 C 211.603 110.929,211.850 110.479,211.131 109.759 C 210.584 109.213,210.482 109.210,210.280 109.736 M276.262 109.783 C 276.096 110.215,276.271 110.400,276.846 110.400 C 277.302 110.400,277.596 110.189,277.508 109.925 C 277.261 109.184,276.524 109.100,276.262 109.783 M185.985 110.618 C 185.703 110.958,185.236 111.146,184.949 111.036 C 184.291 110.783,183.835 111.451,184.419 111.812 C 184.656 111.958,185.169 111.790,185.558 111.438 C 185.947 111.086,186.378 110.911,186.515 111.049 C 186.653 111.186,187.083 111.177,187.472 111.028 C 188.074 110.797,188.091 110.702,187.589 110.385 C 186.782 109.874,186.577 109.904,185.985 110.618 M212.783 110.874 C 213.228 111.351,213.712 111.621,213.859 111.474 C 214.006 111.327,214.376 111.414,214.680 111.667 C 215.057 111.979,215.365 111.995,215.642 111.718 C 215.919 111.441,215.649 111.230,214.798 111.060 C 214.110 110.922,213.636 110.665,213.745 110.490 C 213.853 110.314,213.500 110.133,212.959 110.088 L 211.975 110.007 212.783 110.874 M277.862 111.383 C 277.696 111.815,277.871 112.000,278.446 112.000 C 278.902 112.000,279.196 111.789,279.108 111.525 C 278.861 110.784,278.124 110.700,277.862 111.383 M182.800 112.213 C 182.800 112.860,183.425 113.007,183.774 112.442 C 183.896 112.245,183.726 111.981,183.398 111.854 C 183.035 111.715,182.800 111.856,182.800 112.213 M216.446 111.970 C 216.007 112.242,216.079 112.414,216.789 112.794 C 217.438 113.141,217.807 113.153,218.123 112.837 C 218.439 112.521,218.381 112.400,217.913 112.400 C 217.558 112.400,217.207 112.226,217.133 112.013 C 217.055 111.786,216.770 111.768,216.446 111.970 M181.200 113.000 C 181.200 113.330,181.380 113.600,181.600 113.600 C 181.820 113.600,182.000 113.330,182.000 113.000 C 182.000 112.670,181.820 112.400,181.600 112.400 C 181.380 112.400,181.200 112.670,181.200 113.000 M279.398 112.803 C 279.115 113.261,279.699 113.926,281.312 114.981 C 282.971 116.066,283.134 115.382,281.594 113.794 C 280.164 112.318,279.799 112.154,279.398 112.803 M219.450 113.483 C 219.113 113.821,220.389 115.200,221.038 115.200 C 221.321 115.200,221.659 115.028,221.789 114.817 C 222.062 114.376,219.830 113.104,219.450 113.483 M224.274 116.693 C 224.174 116.862,224.767 117.698,225.591 118.551 C 226.737 119.737,227.165 119.972,227.409 119.551 C 227.585 119.248,227.578 119.137,227.394 119.304 C 226.993 119.668,225.200 118.074,225.200 117.354 C 225.200 116.743,224.528 116.264,224.274 116.693 M228.863 121.867 C 229.897 122.968,229.867 122.957,229.867 122.222 C 229.867 121.904,229.672 121.679,229.433 121.722 C 229.195 121.765,229.035 121.605,229.078 121.367 C 229.121 121.128,228.892 120.933,228.571 120.933 C 228.141 120.933,228.218 121.181,228.863 121.867 M230.400 122.935 C 230.400 123.247,230.640 123.701,230.933 123.945 C 231.330 124.274,231.467 124.257,231.467 123.876 C 231.467 123.595,231.227 123.141,230.933 122.867 C 230.505 122.467,230.400 122.480,230.400 122.935 M290.514 123.944 C 290.477 124.440,290.760 124.860,291.232 125.010 C 291.661 125.146,291.908 125.425,291.782 125.629 C 291.656 125.833,291.743 126.000,291.976 126.000 C 292.623 126.000,292.485 125.512,291.486 124.263 C 290.657 123.226,290.570 123.198,290.514 123.944 M292.800 126.746 C 292.800 127.036,292.590 127.124,292.300 126.955 C 292.025 126.794,292.115 127.023,292.501 127.464 C 292.886 127.904,293.066 128.414,292.901 128.597 C 292.735 128.779,292.813 128.806,293.073 128.657 C 293.374 128.485,293.592 128.756,293.673 129.406 C 293.827 130.640,294.555 130.914,294.715 129.798 C 294.778 129.357,294.373 128.377,293.815 127.620 C 293.257 126.864,292.800 126.470,292.800 126.746 M235.002 127.197 C 234.665 127.741,235.115 128.400,235.824 128.400 C 236.553 128.400,236.554 128.097,235.826 127.368 C 235.466 127.009,235.158 126.945,235.002 127.197 M236.561 128.706 C 236.278 128.895,236.517 129.323,237.233 129.907 C 237.924 130.472,238.441 130.657,238.602 130.397 C 238.743 130.168,238.621 130.030,238.330 130.090 C 238.038 130.151,237.845 129.975,237.900 129.700 C 237.955 129.425,237.775 129.245,237.500 129.300 C 237.225 129.355,237.045 129.175,237.100 128.900 C 237.215 128.324,237.161 128.305,236.561 128.706 M239.087 131.046 C 238.769 131.365,239.968 133.200,240.495 133.200 C 240.744 133.200,240.728 132.996,240.452 132.663 C 240.207 132.368,240.140 131.993,240.303 131.830 C 240.467 131.667,240.330 131.593,240.000 131.667 C 239.670 131.740,239.445 131.575,239.500 131.300 C 239.609 130.753,239.468 130.665,239.087 131.046 M295.200 132.624 C 295.200 132.967,295.032 133.144,294.828 133.017 C 294.623 132.891,294.342 132.970,294.204 133.193 C 294.065 133.419,294.320 133.600,294.776 133.600 C 295.333 133.600,295.600 133.341,295.600 132.800 C 295.600 132.360,295.510 132.000,295.400 132.000 C 295.290 132.000,295.200 132.281,295.200 132.624 M243.608 136.541 C 244.154 137.059,244.662 137.323,244.738 137.128 C 244.946 136.591,243.987 135.600,243.259 135.600 C 242.768 135.600,242.850 135.822,243.608 136.541 M245.200 137.671 C 245.200 138.018,245.456 138.514,245.768 138.773 C 246.219 139.148,246.317 139.116,246.244 138.618 C 246.107 137.683,245.200 136.860,245.200 137.671 M246.804 139.284 C 246.807 139.568,247.422 140.396,248.173 141.125 C 249.197 142.120,249.511 142.270,249.433 141.725 C 249.375 141.326,248.941 140.804,248.467 140.564 C 247.993 140.325,247.676 140.055,247.762 139.964 C 247.849 139.874,247.667 139.568,247.360 139.284 C 246.903 138.863,246.801 138.863,246.804 139.284 M90.333 141.569 C 90.260 141.772,89.415 142.773,88.456 143.792 C 87.497 144.812,86.814 145.748,86.939 145.872 C 87.199 146.132,91.600 142.034,91.600 141.532 C 91.600 141.078,90.499 141.110,90.333 141.569 M293.600 144.187 C 293.600 144.544,293.835 144.685,294.198 144.546 C 294.526 144.419,294.696 144.155,294.574 143.958 C 294.225 143.393,293.600 143.540,293.600 144.187 M291.200 148.853 C 291.200 149.102,290.812 149.642,290.339 150.053 C 289.719 150.591,289.643 150.800,290.069 150.800 C 290.653 150.800,292.400 149.207,292.400 148.674 C 292.400 148.523,292.130 148.400,291.800 148.400 C 291.470 148.400,291.200 148.604,291.200 148.853 M258.288 150.645 C 257.951 150.982,260.813 154.000,261.470 154.000 C 261.757 154.000,261.874 153.738,261.742 153.393 C 261.614 153.059,261.224 152.834,260.877 152.893 C 260.529 152.952,260.030 152.580,259.769 152.066 C 259.144 150.841,258.608 150.326,258.288 150.645 M288.922 151.767 C 288.965 152.005,288.805 152.165,288.567 152.122 C 288.328 152.079,288.133 152.304,288.133 152.622 C 288.133 153.401,288.541 153.349,289.338 152.469 C 290.151 151.570,290.168 151.333,289.422 151.333 C 289.104 151.333,288.879 151.528,288.922 151.767 M286.408 153.859 C 285.849 154.389,285.644 154.800,285.937 154.800 C 286.585 154.800,287.710 153.710,287.532 153.255 C 287.459 153.069,286.954 153.341,286.408 153.859 M81.048 154.610 C 80.498 155.159,80.400 155.167,80.400 154.662 C 80.400 154.335,80.625 153.986,80.900 153.888 C 81.690 153.606,81.752 153.906,81.048 154.610 M262.962 154.300 C 263.125 154.586,263.032 154.800,262.744 154.800 C 262.379 154.800,262.361 154.921,262.678 155.238 C 262.918 155.478,263.377 155.613,263.697 155.538 C 264.162 155.428,264.118 155.238,263.479 154.600 C 263.038 154.160,262.805 154.025,262.962 154.300 M283.467 155.467 C 283.006 155.927,283.175 156.400,283.800 156.400 C 284.130 156.400,284.400 156.130,284.400 155.800 C 284.400 155.175,283.927 155.006,283.467 155.467 M265.495 156.442 C 265.604 156.859,265.996 157.200,266.367 157.200 C 266.737 157.200,267.211 157.356,267.420 157.547 C 267.629 157.738,268.384 158.003,269.097 158.136 C 270.625 158.422,270.178 157.036,268.624 156.671 C 268.171 156.564,267.237 156.298,266.548 156.080 C 265.422 155.723,265.317 155.760,265.495 156.442 M279.615 156.753 L 278.230 157.000 279.256 157.465 C 280.127 157.859,280.382 157.813,280.937 157.165 C 281.298 156.744,281.459 156.424,281.296 156.453 C 281.133 156.482,280.377 156.617,279.615 156.753 M72.881 169.955 C 72.667 170.090,72.403 170.560,72.293 171.000 C 72.139 171.613,72.082 171.543,72.046 170.700 C 72.021 170.095,72.180 169.600,72.400 169.600 C 72.620 169.600,72.825 169.195,72.854 168.700 C 72.907 167.824,72.914 167.826,73.089 168.755 C 73.189 169.280,73.095 169.820,72.881 169.955 M115.848 176.610 C 115.298 177.159,115.200 177.167,115.200 176.662 C 115.200 176.335,115.425 175.986,115.700 175.888 C 116.490 175.606,116.552 175.906,115.848 176.610 M69.076 181.100 C 68.975 181.485,68.893 181.170,68.893 180.400 C 68.893 179.630,68.975 179.315,69.076 179.700 C 69.176 180.085,69.176 180.715,69.076 181.100 M112.860 181.113 C 112.607 181.198,112.400 181.612,112.400 182.033 C 112.400 182.509,112.134 182.788,111.700 182.768 C 111.282 182.750,111.201 182.656,111.500 182.535 C 111.775 182.424,112.000 182.071,112.000 181.750 C 112.000 180.949,112.950 179.941,113.160 180.519 C 113.248 180.762,113.113 181.029,112.860 181.113 M336.533 183.372 C 336.533 183.698,336.786 184.063,337.096 184.181 C 337.463 184.322,337.613 184.167,337.529 183.732 C 337.364 182.883,336.533 182.583,336.533 183.372 M67.144 192.035 C 66.857 192.212,66.528 192.252,66.412 192.123 C 66.295 191.995,66.425 191.810,66.700 191.712 C 66.975 191.614,67.227 191.053,67.260 190.467 C 67.319 189.407,67.321 189.407,67.492 190.557 C 67.594 191.242,67.452 191.844,67.144 192.035 M343.878 192.256 C 343.558 192.575,343.919 193.200,344.424 193.200 C 344.631 193.200,344.800 192.930,344.800 192.600 C 344.800 191.981,344.328 191.805,343.878 192.256 M168.880 206.080 C 168.616 206.344,168.400 206.704,168.400 206.880 C 168.400 207.305,169.322 207.106,169.694 206.600 C 170.397 205.644,169.737 205.223,168.880 206.080 M67.229 208.800 C 67.433 208.800,67.579 209.385,67.554 210.100 C 67.524 210.942,67.439 211.118,67.315 210.600 C 67.209 210.160,66.960 209.629,66.761 209.420 C 66.563 209.211,66.421 208.671,66.446 208.220 C 66.485 207.545,66.525 207.524,66.676 208.100 C 66.776 208.485,67.025 208.800,67.229 208.800 M109.200 210.176 C 109.200 211.244,109.795 211.855,110.198 211.203 C 110.523 210.677,110.062 209.200,109.573 209.200 C 109.368 209.200,109.200 209.639,109.200 210.176 M68.289 217.300 C 68.201 218.015,68.128 217.430,68.128 216.000 C 68.128 214.570,68.201 213.985,68.289 214.700 C 68.378 215.415,68.378 216.585,68.289 217.300 M333.417 219.172 C 333.144 219.614,333.775 220.092,334.144 219.722 C 334.525 219.342,334.454 218.800,334.024 218.800 C 333.817 218.800,333.544 218.968,333.417 219.172 M69.876 223.500 C 69.775 223.885,69.693 223.570,69.693 222.800 C 69.693 222.030,69.775 221.715,69.876 222.100 C 69.976 222.485,69.976 223.115,69.876 223.500 M77.508 240.725 C 77.606 241.018,77.423 241.107,77.033 240.957 C 76.685 240.824,76.400 240.539,76.400 240.324 C 76.400 239.798,77.309 240.127,77.508 240.725 M273.507 242.290 C 274.226 242.379,275.306 242.377,275.907 242.286 C 276.508 242.195,275.920 242.122,274.600 242.124 C 273.280 242.126,272.788 242.201,273.507 242.290 M266.578 243.235 C 266.431 243.474,266.510 243.870,266.755 244.115 C 267.082 244.442,267.200 244.326,267.200 243.680 C 267.200 242.714,266.992 242.565,266.578 243.235 M268.167 243.425 C 268.878 244.135,269.067 244.147,269.067 243.480 C 269.067 243.194,268.735 242.935,268.329 242.905 C 267.688 242.856,267.667 242.924,268.167 243.425 M273.507 243.090 C 274.226 243.179,275.306 243.177,275.907 243.086 C 276.508 242.995,275.920 242.922,274.600 242.924 C 273.280 242.926,272.788 243.001,273.507 243.090 M264.699 244.177 C 263.947 244.727,263.755 245.600,264.386 245.600 C 264.780 245.600,265.773 244.039,265.532 243.798 C 265.459 243.725,265.084 243.896,264.699 244.177 M283.213 244.713 C 283.262 245.842,286.000 246.625,286.000 245.510 C 286.000 245.266,285.882 245.185,285.737 245.330 C 285.592 245.475,285.277 245.443,285.037 245.259 C 284.360 244.740,283.199 244.393,283.213 244.713 M259.053 248.342 C 258.412 249.049,258.535 249.600,259.333 249.600 C 259.553 249.600,259.616 249.483,259.473 249.340 C 259.330 249.196,259.507 248.864,259.867 248.601 C 260.265 248.310,260.362 248.024,260.114 247.870 C 259.890 247.732,259.412 247.944,259.053 248.342 M85.349 251.564 C 85.145 251.797,83.600 250.348,83.600 249.924 C 83.600 249.730,84.026 249.983,84.546 250.486 C 85.067 250.989,85.428 251.474,85.349 251.564 M290.533 250.209 C 290.533 250.975,291.545 252.400,292.089 252.400 C 292.626 252.400,292.428 251.840,291.465 250.636 C 290.714 249.698,290.533 249.615,290.533 250.209 M251.900 255.689 C 250.415 257.168,249.200 258.491,249.200 258.629 C 249.200 258.766,248.635 259.407,247.945 260.051 C 247.255 260.696,246.796 261.329,246.925 261.458 C 247.317 261.850,254.902 254.209,254.745 253.581 C 254.649 253.198,253.679 253.918,251.900 255.689 M292.662 253.382 C 292.523 253.745,292.745 254.156,293.215 254.408 C 294.121 254.893,294.212 254.513,293.435 253.488 C 292.971 252.878,292.862 252.863,292.662 253.382 M293.600 256.200 C 293.600 256.750,293.780 257.200,294.000 257.200 C 294.220 257.200,294.400 257.571,294.400 258.024 C 294.400 258.477,294.580 258.736,294.800 258.600 C 295.020 258.464,295.200 258.644,295.200 259.000 C 295.200 259.356,295.020 259.536,294.800 259.400 C 294.580 259.264,294.400 259.448,294.400 259.810 C 294.400 260.796,295.379 260.278,295.536 259.209 C 295.610 258.698,295.492 257.902,295.272 257.440 C 295.052 256.978,294.772 256.285,294.649 255.900 C 294.314 254.852,293.600 255.057,293.600 256.200 M244.253 263.141 C 243.725 263.725,243.686 263.947,244.085 264.100 C 244.766 264.362,245.602 263.450,245.231 262.850 C 245.025 262.517,244.742 262.602,244.253 263.141 M95.200 263.422 C 95.200 263.834,102.856 271.277,103.066 271.068 C 103.282 270.851,95.871 263.200,95.444 263.200 C 95.310 263.200,95.200 263.300,95.200 263.422 M296.000 263.957 C 296.000 264.227,295.820 264.336,295.600 264.200 C 295.380 264.064,295.200 264.133,295.200 264.353 C 295.200 264.573,295.381 264.865,295.603 265.002 C 296.052 265.280,296.642 264.108,296.249 263.716 C 296.112 263.579,296.000 263.687,296.000 263.957 M242.164 265.350 C 242.019 265.727,242.016 266.150,242.157 266.291 C 242.298 266.431,242.626 266.334,242.887 266.073 C 243.247 265.713,243.249 265.489,242.893 265.133 C 242.537 264.777,242.364 264.829,242.164 265.350 M235.258 272.150 C 231.660 275.778,229.231 278.527,229.393 278.789 C 229.802 279.451,241.727 267.540,241.543 266.653 C 241.440 266.151,239.700 267.672,235.258 272.150 M295.200 266.344 C 295.200 266.621,295.050 266.755,294.867 266.641 C 294.683 266.528,294.533 266.689,294.533 267.000 C 294.533 267.311,294.683 267.472,294.867 267.359 C 295.050 267.245,295.205 267.388,295.212 267.676 C 295.219 267.982,295.403 267.893,295.654 267.461 C 295.961 266.932,295.958 266.598,295.641 266.281 C 295.320 265.960,295.200 265.976,295.200 266.344 M293.894 270.239 C 293.534 270.600,294.030 271.629,294.442 271.374 C 294.639 271.252,294.800 270.893,294.800 270.576 C 294.800 269.987,294.323 269.810,293.894 270.239 M289.641 277.164 C 289.157 277.584,288.923 278.029,289.122 278.152 C 289.321 278.275,289.901 277.931,290.412 277.388 C 291.503 276.226,290.919 276.056,289.641 277.164 M284.675 282.104 C 281.243 285.589,280.616 286.555,282.410 285.595 C 283.235 285.153,289.200 279.403,289.200 279.049 C 289.200 278.060,287.584 279.151,284.675 282.104 M225.817 281.572 C 225.691 281.777,225.770 282.058,225.993 282.196 C 226.471 282.491,227.200 282.117,227.200 281.576 C 227.200 281.090,226.117 281.087,225.817 281.572 M114.661 282.702 C 114.534 282.906,115.034 283.657,115.770 284.371 C 116.507 285.085,117.213 285.502,117.339 285.298 C 117.466 285.094,116.966 284.343,116.230 283.629 C 115.493 282.915,114.787 282.498,114.661 282.702 M222.900 284.046 C 222.185 284.504,221.600 285.131,221.600 285.439 C 221.600 286.230,222.153 286.136,223.000 285.200 C 223.398 284.760,224.011 284.386,224.362 284.368 C 224.779 284.348,224.826 284.267,224.498 284.134 C 224.221 284.023,224.097 283.767,224.221 283.566 C 224.544 283.043,224.363 283.109,222.900 284.046 M176.533 284.589 C 176.533 284.925,176.788 285.200,177.100 285.200 C 177.412 285.200,177.595 284.986,177.508 284.725 C 177.267 284.000,176.533 283.897,176.533 284.589 M117.876 285.877 C 117.738 286.100,118.808 287.344,120.254 288.641 C 123.280 291.357,124.477 292.051,122.188 289.762 C 121.335 288.908,120.072 287.594,119.382 286.840 C 118.678 286.073,118.017 285.649,117.876 285.877 M179.055 286.200 C 179.182 286.530,179.536 286.800,179.843 286.800 C 180.601 286.800,180.549 286.143,179.767 285.843 C 178.864 285.496,178.798 285.529,179.055 286.200 M219.500 286.229 C 218.895 286.557,218.400 287.010,218.400 287.236 C 218.400 287.462,218.233 287.544,218.030 287.419 C 217.481 287.080,215.600 288.044,215.600 288.664 C 215.600 289.363,215.716 289.346,217.382 288.410 C 218.166 287.970,219.087 287.735,219.463 287.880 C 219.965 288.072,220.077 287.976,219.897 287.509 C 219.739 287.096,219.922 286.809,220.428 286.677 C 220.852 286.566,221.200 286.278,221.200 286.037 C 221.200 285.464,220.834 285.505,219.500 286.229 M181.260 287.580 C 181.348 287.844,181.551 288.047,181.710 288.030 C 182.188 287.981,182.096 287.432,181.580 287.260 C 181.316 287.172,181.172 287.316,181.260 287.580 M184.478 289.494 C 184.717 289.782,185.248 289.912,185.658 289.781 C 186.131 289.632,186.492 289.775,186.645 290.172 C 186.777 290.518,187.131 290.800,187.430 290.800 C 187.749 290.800,187.880 290.552,187.746 290.202 C 187.619 289.874,187.375 289.692,187.203 289.798 C 187.031 289.904,186.671 289.727,186.403 289.404 C 186.135 289.080,185.494 288.851,184.980 288.893 C 184.257 288.953,184.143 289.090,184.478 289.494 M214.060 289.180 C 214.148 289.444,214.350 289.647,214.510 289.630 C 214.988 289.581,214.896 289.032,214.380 288.860 C 214.116 288.772,213.972 288.916,214.060 289.180 M212.400 290.000 C 212.400 290.440,212.561 290.800,212.757 290.800 C 213.207 290.800,213.626 289.760,213.306 289.439 C 212.824 288.958,212.400 289.220,212.400 290.000 M210.500 289.865 C 209.644 290.210,209.952 290.800,210.987 290.800 C 211.701 290.800,211.911 290.633,211.745 290.200 C 211.505 289.575,211.333 289.529,210.500 289.865 M190.500 290.900 C 190.592 291.175,190.997 291.400,191.400 291.400 C 191.803 291.400,192.208 291.175,192.300 290.900 C 192.406 290.583,192.076 290.400,191.400 290.400 C 190.724 290.400,190.394 290.583,190.500 290.900 M207.700 290.900 C 207.792 291.175,208.197 291.400,208.600 291.400 C 209.003 291.400,209.408 291.175,209.500 290.900 C 209.606 290.583,209.276 290.400,208.600 290.400 C 207.924 290.400,207.594 290.583,207.700 290.900 M193.600 291.768 C 193.600 292.197,194.336 292.369,196.601 292.468 C 198.251 292.541,199.601 292.465,199.601 292.300 C 199.600 292.135,198.295 291.968,196.700 291.928 L 193.800 291.856 196.800 291.600 L 199.800 291.344 196.700 291.272 C 194.254 291.215,193.600 291.320,193.600 291.768 M202.800 291.545 L 205.400 291.760 202.800 292.011 L 200.200 292.262 203.257 292.331 C 205.517 292.382,206.369 292.258,206.523 291.856 C 206.689 291.423,206.060 291.313,203.466 291.321 L 200.200 291.331 202.800 291.545 M273.342 293.396 C 272.869 293.887,272.613 294.497,272.771 294.753 C 272.973 295.079,273.279 294.976,273.791 294.409 C 274.194 293.964,274.361 293.597,274.162 293.594 C 273.963 293.591,274.044 293.433,274.343 293.244 C 274.641 293.055,274.731 292.811,274.543 292.703 C 274.354 292.594,273.814 292.906,273.342 293.396 M128.800 297.005 C 128.800 297.404,136.465 304.869,136.667 304.667 C 136.869 304.465,129.404 296.800,129.005 296.800 C 128.892 296.800,128.800 296.892,128.800 297.005 M145.200 313.429 C 145.200 313.853,146.436 314.897,146.667 314.667 C 146.792 314.541,146.617 314.160,146.276 313.819 C 145.641 313.184,145.200 313.024,145.200 313.429 M252.287 314.517 C 251.916 314.973,251.668 315.402,251.736 315.469 C 251.927 315.660,253.993 314.631,253.997 314.343 C 254.005 313.665,252.885 313.779,252.287 314.517 M249.817 316.772 C 249.414 317.424,250.180 317.550,250.981 316.965 C 251.734 316.414,251.732 316.400,250.900 316.400 C 250.431 316.400,249.944 316.568,249.817 316.772 M248.061 317.947 C 246.859 318.990,246.938 319.646,248.197 319.062 C 248.745 318.808,249.195 318.285,249.197 317.900 C 249.201 317.024,249.121 317.028,248.061 317.947 M153.888 320.686 C 153.997 320.969,154.336 321.200,154.643 321.200 C 154.949 321.200,155.200 320.969,155.200 320.686 C 155.200 320.403,154.860 320.171,154.445 320.171 C 153.995 320.171,153.770 320.379,153.888 320.686 M156.262 322.217 C 156.570 323.020,157.933 323.225,157.820 322.451 C 157.767 322.093,157.352 321.780,156.896 321.756 C 156.383 321.729,156.142 321.904,156.262 322.217 M242.000 322.209 C 242.000 322.640,241.786 322.804,241.413 322.660 C 241.090 322.536,240.702 322.635,240.551 322.879 C 240.393 323.136,240.457 323.212,240.704 323.059 C 240.939 322.914,241.200 323.001,241.284 323.252 C 241.393 323.579,241.688 323.552,242.319 323.158 C 243.234 322.587,243.300 321.967,242.475 321.692 C 242.214 321.605,242.000 321.838,242.000 322.209 M159.333 323.784 C 159.333 324.124,159.676 324.400,160.100 324.400 C 160.535 324.400,160.795 324.184,160.700 323.900 C 160.454 323.162,159.333 323.066,159.333 323.784 M238.000 324.353 C 238.000 324.548,237.598 324.812,237.107 324.940 C 236.407 325.123,236.319 325.279,236.699 325.659 C 237.079 326.039,237.402 326.027,238.192 325.604 C 239.296 325.013,239.554 324.000,238.600 324.000 C 238.270 324.000,238.000 324.159,238.000 324.353 M162.345 325.130 C 162.806 325.445,162.806 325.541,162.345 325.745 C 162.033 325.883,162.142 325.944,162.600 325.887 C 163.575 325.767,163.519 325.047,162.521 324.878 C 161.965 324.785,161.925 324.842,162.345 325.130 M164.406 325.667 C 164.403 326.033,164.175 326.424,163.900 326.535 C 163.592 326.659,163.660 326.749,164.076 326.768 C 164.951 326.809,165.244 326.314,164.780 325.581 C 164.471 325.093,164.411 325.106,164.406 325.667 M233.116 326.769 C 232.299 327.728,232.762 328.147,234.063 327.626 C 234.578 327.420,234.788 327.239,234.529 327.225 C 234.270 327.211,234.000 326.922,233.929 326.582 C 233.822 326.072,233.682 326.104,233.116 326.769 M167.201 327.599 C 166.540 328.008,166.583 328.058,168.161 328.738 C 168.893 329.053,169.462 329.098,169.701 328.859 C 169.940 328.620,169.733 328.371,169.140 328.186 C 168.623 328.024,168.105 327.746,167.989 327.567 C 167.874 327.388,167.519 327.403,167.201 327.599 M230.457 328.356 C 230.079 328.596,230.049 328.783,230.357 328.974 C 230.865 329.287,231.600 328.934,231.600 328.376 C 231.600 327.911,231.171 327.904,230.457 328.356 M171.011 329.183 C 170.745 329.612,172.804 330.800,173.813 330.800 C 174.883 330.800,174.229 329.811,173.069 329.673 C 172.481 329.604,172.000 329.379,172.000 329.173 C 172.000 328.685,171.314 328.692,171.011 329.183 M227.426 329.158 C 227.158 329.591,228.321 330.096,228.843 329.774 C 229.046 329.648,229.109 329.377,228.983 329.172 C 228.690 328.698,227.716 328.689,227.426 329.158 M225.389 329.617 C 225.259 329.828,225.354 330.000,225.600 330.000 C 225.846 330.000,225.936 330.180,225.800 330.400 C 225.664 330.620,225.724 330.800,225.934 330.800 C 226.143 330.800,226.412 330.545,226.532 330.233 C 226.780 329.588,225.750 329.033,225.389 329.617 M222.698 330.746 C 222.581 331.194,222.802 331.417,223.397 331.454 C 224.431 331.517,224.573 330.539,223.568 330.276 C 223.148 330.166,222.801 330.354,222.698 330.746 M175.017 330.772 C 174.744 331.214,175.026 331.400,176.500 331.752 C 177.152 331.908,177.600 331.849,177.600 331.608 C 177.600 331.383,177.409 331.200,177.176 331.200 C 176.943 331.200,176.864 331.020,177.000 330.800 C 177.140 330.574,176.812 330.400,176.247 330.400 C 175.697 330.400,175.144 330.568,175.017 330.772 M220.866 331.879 C 221.099 332.161,221.450 332.293,221.645 332.172 C 222.281 331.779,222.019 331.248,221.220 331.308 C 220.635 331.353,220.546 331.494,220.866 331.879 M180.497 332.490 C 180.653 332.960,183.225 333.708,183.554 333.379 C 183.642 333.291,183.486 332.945,183.208 332.610 C 182.595 331.871,180.256 331.768,180.497 332.490 M217.300 332.500 C 217.392 332.775,217.887 333.000,218.400 333.000 C 218.913 333.000,219.408 332.775,219.500 332.500 C 219.610 332.170,219.236 332.000,218.400 332.000 C 217.564 332.000,217.190 332.170,217.300 332.500 M184.200 332.800 C 184.064 333.020,184.064 333.380,184.200 333.600 C 184.502 334.089,185.873 334.129,186.164 333.658 C 186.281 333.470,185.931 333.401,185.388 333.504 C 184.845 333.608,184.400 333.505,184.400 333.274 C 184.400 333.044,184.805 332.778,185.300 332.682 C 186.200 332.509,186.200 332.509,185.324 332.454 C 184.842 332.425,184.336 332.580,184.200 332.800 M214.700 332.662 C 215.815 332.902,215.866 333.469,214.800 333.772 C 214.122 333.965,214.137 333.985,214.900 333.900 C 216.143 333.762,216.059 332.617,214.800 332.534 C 213.919 332.477,213.907 332.492,214.700 332.662 M187.891 333.442 C 187.157 334.176,187.827 334.400,190.757 334.400 C 192.978 334.400,193.974 334.246,194.114 333.880 C 194.334 333.307,188.441 332.892,187.891 333.442 M205.886 333.880 C 206.197 334.691,211.440 334.595,211.755 333.773 C 211.963 333.231,211.568 333.160,208.841 333.253 C 206.450 333.335,205.735 333.486,205.886 333.880 " stroke="none" fill="#040404" fill-rule="evenodd"></path></g></svg>