<svg id="svg" version="1.1" xmlns="http://www.w3.org/2000/svg" xmlns:xlink="http://www.w3.org/1999/xlink" width="400" height="470.1621621621622" viewBox="0, 0, 400,470.1621621621622"><g id="svgg"><path id="path0" d="M174.666 97.011 C 174.666 97.389,174.706 97.543,174.755 97.354 C 174.805 97.166,174.805 96.857,174.755 96.668 C 174.706 96.480,174.666 96.634,174.666 97.011 M181.299 102.614 C 175.058 103.522,169.924 105.821,161.293 111.571 C 151.743 117.934,146.753 123.468,145.504 129.082 C 144.784 132.318,145.188 132.987,149.157 135.126 C 150.915 136.073,153.769 137.662,155.500 138.658 C 170.351 147.200,182.905 148.662,197.844 143.591 C 205.534 140.981,216.414 134.563,224.302 127.985 C 227.198 125.569,229.078 124.962,230.848 125.873 C 232.233 126.585,231.813 127.174,228.711 128.872 C 227.580 129.492,225.154 131.073,223.322 132.385 C 209.135 142.541,201.108 146.406,189.123 148.849 C 177.451 151.229,164.945 147.937,150.955 138.802 C 149.711 137.990,150.861 139.325,154.265 142.644 C 156.618 144.938,159.273 147.798,161.388 150.318 C 166.085 155.915,168.379 157.964,172.155 159.936 C 179.409 163.723,190.767 163.824,199.902 160.182 C 206.684 157.478,210.539 154.985,221.373 146.295 C 226.568 142.128,229.165 140.290,232.302 138.558 C 236.622 136.173,237.988 133.337,238.010 126.703 C 238.032 120.204,236.104 118.509,223.616 114.050 C 216.033 111.342,208.795 108.712,206.329 107.769 C 195.957 103.802,193.422 102.985,190.040 102.515 C 187.994 102.232,183.583 102.281,181.299 102.614 M178.472 107.638 C 178.733 107.900,178.618 108.026,177.428 108.776 C 176.692 109.241,175.534 110.046,174.854 110.567 C 172.752 112.176,170.969 111.250,172.189 109.183 C 173.092 107.655,177.423 106.589,178.472 107.638 M193.533 107.568 C 195.527 108.477,196.866 111.543,195.252 111.506 C 194.572 111.491,187.751 108.084,187.751 107.760 C 187.751 107.157,192.300 107.007,193.533 107.568 M276.647 224.371 C 276.590 224.463,276.783 224.750,277.076 225.008 L 277.609 225.478 277.166 224.973 C 276.923 224.696,276.783 224.409,276.856 224.336 C 276.929 224.263,276.935 224.204,276.869 224.204 C 276.804 224.204,276.704 224.279,276.647 224.371 M299.906 274.375 C 299.906 274.860,299.945 275.059,299.991 274.816 C 300.038 274.574,300.038 274.177,299.991 273.934 C 299.945 273.692,299.906 273.890,299.906 274.375 M304.998 277.217 C 305.000 277.648,305.040 277.802,305.087 277.558 C 305.134 277.314,305.132 276.961,305.083 276.774 C 305.034 276.586,304.996 276.786,304.998 277.217 M302.354 307.635 C 302.598 307.682,302.951 307.680,303.138 307.631 C 303.325 307.582,303.126 307.544,302.695 307.546 C 302.264 307.548,302.110 307.588,302.354 307.635 M311.465 307.631 C 311.654 307.681,311.962 307.681,312.151 307.631 C 312.340 307.582,312.185 307.542,311.808 307.542 C 311.431 307.542,311.276 307.582,311.465 307.631 M70.965 316.517 C 67.952 317.147,64.734 318.626,62.696 320.317 C 60.420 322.206,59.056 324.226,55.076 331.602 C 49.723 341.521,45.329 344.368,30.573 347.480 C 15.426 350.675,11.946 352.589,9.601 359.013 C 8.208 362.830,7.995 367.584,8.821 376.384 C 10.126 390.289,9.114 401.407,5.609 411.661 C 3.018 419.242,3.009 421.383,5.547 426.360 C 8.837 432.813,15.340 435.208,52.621 443.700 C 56.007 444.471,59.255 445.126,66.242 446.445 C 72.275 447.584,75.730 448.708,89.466 454.002 C 122.773 466.839,137.707 465.383,150.784 448.023 C 156.227 440.797,157.837 434.296,156.515 424.888 C 155.468 417.445,153.229 413.712,142.455 401.453 C 138.721 397.203,137.223 395.187,131.682 386.953 C 126.312 378.973,121.701 372.274,115.234 363.057 C 105.520 349.214,103.199 345.896,100.155 341.499 C 98.363 338.912,95.595 334.887,94.003 332.554 C 85.120 319.540,78.511 314.939,70.965 316.517 M274.027 324.634 C 267.796 326.652,265.751 332.855,265.364 350.906 C 265.262 355.649,265.088 361.470,264.978 363.841 C 264.868 366.213,264.644 372.871,264.481 378.638 C 264.045 394.054,264.095 393.670,260.565 408.899 C 256.171 427.860,255.717 433.706,257.807 444.390 C 260.439 457.848,273.194 466.438,290.544 466.438 C 302.570 466.438,308.428 463.882,319.941 453.612 C 322.205 451.593,325.106 449.133,326.388 448.145 C 327.671 447.158,331.551 444.142,335.011 441.443 C 347.518 431.690,350.835 429.286,359.349 423.804 C 390.360 403.833,395.734 399.387,396.040 393.443 C 396.284 388.693,391.154 382.165,379.422 372.297 C 368.753 363.324,365.239 357.123,362.965 343.263 C 361.628 335.108,360.795 333.105,357.298 329.642 C 353.842 326.219,352.446 325.580,346.830 324.848 C 344.487 324.543,339.841 324.446,338.217 324.668 L 337.330 324.790 336.395 326.579 C 329.592 339.602,323.763 346.797,315.635 352.208 C 305.607 358.884,294.240 360.566,287.558 356.362 C 281.606 352.617,277.315 341.090,276.791 327.438 L 276.665 324.155 276.059 324.164 C 275.726 324.168,274.811 324.380,274.027 324.634 M102.695 327.976 C 103.060 328.354,103.404 328.662,103.458 328.662 C 103.511 328.662,103.256 328.354,102.891 327.976 C 102.525 327.599,102.182 327.291,102.128 327.291 C 102.074 327.291,102.329 327.599,102.695 327.976 " stroke="none" fill="#fbc324" fill-rule="evenodd"></path><path id="path1" d="M217.638 66.640 C 204.520 68.285,195.519 82.162,196.473 99.273 L 196.605 101.632 198.009 102.086 C 198.780 102.335,200.717 103.026,202.313 103.620 C 205.506 104.809,205.516 104.810,205.112 103.843 C 201.800 95.917,206.818 84.613,214.531 82.623 C 227.807 79.198,233.968 101.006,222.176 109.687 C 221.482 110.197,221.133 110.566,221.293 110.620 C 221.439 110.669,223.278 111.342,225.380 112.114 C 230.339 113.937,229.835 113.978,231.539 111.612 C 239.484 100.579,241.481 92.260,238.597 82.215 C 235.694 72.101,226.800 65.492,217.638 66.640 M155.484 71.123 C 149.056 72.703,145.532 79.240,145.544 89.564 C 145.554 98.374,149.096 108.644,153.609 112.947 L 154.187 113.498 156.123 112.098 C 158.388 110.460,158.339 110.530,157.538 110.056 C 152.477 107.067,149.699 97.459,151.967 90.791 C 155.536 80.299,166.174 82.129,169.327 93.778 C 170.038 96.402,170.079 101.806,169.402 103.570 C 169.329 103.761,169.923 103.568,171.122 103.010 C 172.130 102.542,173.275 102.045,173.667 101.906 C 174.551 101.591,174.622 101.214,174.617 96.837 C 174.613 93.504,174.309 90.936,173.561 87.898 C 170.400 75.074,163.910 69.051,155.484 71.123 M234.199 140.247 C 231.443 141.706,228.337 143.796,225.450 146.136 C 211.895 157.120,209.768 158.604,203.467 161.481 C 196.385 164.715,192.967 165.500,185.987 165.492 C 174.282 165.479,168.944 162.814,160.896 152.964 C 156.593 147.699,152.376 143.265,151.667 143.263 C 151.600 143.263,151.485 143.814,151.412 144.488 C 150.987 148.384,148.970 159.684,147.275 167.663 C 143.263 186.545,140.181 195.393,133.284 207.828 C 130.849 212.218,128.925 217.060,127.479 222.440 C 127.209 223.444,126.941 223.921,126.211 224.694 C 113.471 238.168,98.999 281.716,98.760 307.300 L 98.740 309.358 97.801 307.398 C 94.612 300.746,93.330 294.473,93.152 284.664 C 92.780 264.122,99.328 245.324,111.882 230.900 C 113.738 228.766,113.914 228.371,112.729 228.987 C 111.947 229.393,107.712 233.797,105.851 236.139 C 92.222 253.294,85.730 280.719,90.167 302.401 C 92.602 314.299,95.952 320.803,103.844 328.956 C 111.540 336.908,115.477 340.154,132.705 352.757 C 146.588 362.913,149.833 367.021,149.818 374.424 C 149.805 380.544,146.556 385.431,139.697 389.646 L 137.710 390.867 138.987 392.053 C 152.474 404.571,184.067 410.484,211.171 405.563 C 230.385 402.075,245.698 393.018,259.433 377.018 C 261.218 374.939,261.244 374.893,261.245 373.882 C 261.245 373.318,261.416 369.108,261.624 364.527 C 261.832 359.946,262.056 353.993,262.123 351.298 C 262.484 336.596,263.232 331.503,265.631 327.410 C 267.398 324.395,271.393 321.668,275.015 321.006 C 275.687 320.883,276.436 320.746,276.678 320.701 C 276.992 320.643,277.119 320.483,277.119 320.144 C 277.119 317.167,280.264 312.672,283.532 310.977 C 292.815 306.163,321.375 306.372,332.386 311.335 L 333.856 311.998 333.227 311.454 C 328.647 307.498,316.069 304.356,302.795 303.855 C 301.123 303.792,299.658 303.711,299.539 303.675 C 299.403 303.635,299.644 302.679,300.190 301.095 C 305.474 285.775,306.243 274.482,302.882 261.538 C 299.394 248.102,291.284 235.908,279.510 226.395 C 276.505 223.967,276.269 223.961,278.596 226.372 C 293.279 241.585,299.904 256.818,299.902 275.355 C 299.901 284.571,298.129 291.714,293.562 300.907 C 292.103 303.843,292.579 303.531,289.444 303.609 L 286.775 303.675 286.662 296.521 C 286.339 276.107,282.142 259.699,271.195 236.061 C 268.570 230.394,263.715 222.876,260.438 219.404 L 259.141 218.030 258.607 215.483 C 257.011 207.857,256.238 205.542,252.583 197.452 C 245.279 181.281,242.344 171.199,237.833 146.791 C 237.125 142.964,236.482 139.681,236.402 139.495 C 236.274 139.197,236.013 139.286,234.199 140.247 " stroke="none" fill="#f3f3f3" fill-rule="evenodd"></path><path id="path2" d="M195.786 0.134 C 193.796 0.339,190.017 1.094,188.113 1.666 C 184.255 2.825,181.128 3.938,178.983 4.914 C 178.526 5.121,178.105 5.292,178.048 5.292 C 177.903 5.292,174.437 7.023,172.627 8.000 C 170.237 9.289,168.982 10.065,165.916 12.151 C 165.241 12.610,163.376 13.983,163.126 14.205 C 163.002 14.315,162.569 14.669,162.164 14.993 C 158.741 17.721,154.606 22.027,151.906 25.674 C 151.148 26.698,150.362 27.756,150.159 28.025 C 149.798 28.504,148.603 30.443,147.527 32.294 C 146.819 33.513,144.537 38.182,144.345 38.805 C 144.263 39.074,144.131 39.383,144.053 39.490 C 143.975 39.598,143.704 40.304,143.450 41.058 C 143.197 41.813,142.925 42.520,142.845 42.631 C 142.454 43.174,140.616 50.188,140.107 53.078 C 138.370 62.950,138.035 86.551,139.294 110.338 C 139.807 120.012,139.532 136.873,138.844 137.986 C 138.800 138.058,138.626 139.030,138.459 140.145 C 137.783 144.643,134.920 155.002,133.453 158.256 C 133.356 158.471,132.843 159.750,132.314 161.098 C 130.638 165.361,130.398 165.904,128.250 170.295 C 126.547 173.777,124.106 178.266,122.538 180.799 C 122.006 181.658,121.270 182.845,120.903 183.436 C 120.089 184.747,116.060 190.755,114.958 192.302 C 114.519 192.919,113.851 193.873,113.474 194.423 C 113.097 194.972,112.700 195.526,112.592 195.653 C 112.219 196.093,106.942 203.353,106.275 204.344 C 106.142 204.542,105.568 205.367,105.001 206.178 C 104.433 206.989,103.087 208.974,102.009 210.588 C 100.931 212.202,100.005 213.567,99.951 213.621 C 99.897 213.675,99.584 214.116,99.255 214.601 C 98.926 215.086,98.051 216.365,97.310 217.442 C 95.188 220.530,93.109 223.569,91.883 225.380 C 91.262 226.296,90.682 227.134,90.594 227.242 C 90.328 227.568,84.785 235.971,83.962 237.297 C 83.540 237.977,82.821 239.123,82.364 239.845 C 81.573 241.094,80.243 243.293,78.726 245.860 C 74.481 253.042,68.790 264.792,68.790 266.371 C 68.790 266.527,68.713 266.737,68.620 266.840 C 68.262 267.233,66.122 274.407,64.941 279.177 C 63.876 283.475,62.675 289.709,62.128 293.778 C 61.734 296.705,61.526 301.674,61.520 308.246 L 61.514 315.238 60.105 316.718 C 58.124 318.799,55.804 321.819,55.247 323.043 C 55.116 323.331,54.948 323.567,54.875 323.567 C 54.802 323.567,54.633 323.807,54.499 324.101 C 53.823 325.585,49.063 332.692,47.375 334.738 C 45.045 337.561,43.548 338.657,39.784 340.293 C 38.783 340.729,35.341 341.751,33.365 342.200 C 31.750 342.567,30.222 342.885,24.596 344.026 C 21.318 344.691,17.802 345.746,15.189 346.849 C 14.155 347.285,11.492 348.671,11.367 348.837 C 11.313 348.909,10.946 349.163,10.552 349.403 C 4.573 353.034,3.071 361.885,4.907 382.656 C 5.429 388.566,5.320 397.445,4.692 400.073 C 4.586 400.518,4.333 401.587,4.130 402.450 C 3.751 404.061,2.958 406.864,2.053 409.799 C -1.652 421.807,-0.100 429.926,6.761 434.431 C 7.193 434.715,7.773 435.100,8.050 435.288 C 11.824 437.844,20.920 440.796,35.767 444.282 C 39.628 445.188,42.309 445.822,44.488 446.343 C 52.634 448.288,58.274 449.493,63.800 450.465 C 66.520 450.944,69.731 451.680,71.632 452.261 C 73.387 452.798,77.300 454.131,77.933 454.408 C 78.272 454.557,78.607 454.679,78.677 454.679 C 78.802 454.679,79.343 454.882,84.664 456.933 C 86.120 457.494,88.060 458.234,88.976 458.578 C 89.892 458.923,90.818 459.289,91.034 459.391 C 92.568 460.122,102.440 463.385,105.634 464.217 C 122.026 468.485,133.932 467.557,143.165 461.290 C 146.245 459.199,151.102 454.423,153.675 450.955 C 156.902 446.604,159.069 442.400,160.102 438.485 C 160.290 437.775,160.430 437.628,161.246 437.289 C 165.433 435.549,170.779 434.396,178.344 433.602 C 184.060 433.003,185.509 432.930,194.219 432.804 C 202.752 432.680,208.242 432.844,211.857 433.330 C 212.665 433.439,214.694 433.701,216.365 433.914 C 224.589 434.960,233.423 436.961,240.960 439.486 C 242.469 439.991,243.969 440.519,244.292 440.659 C 244.615 440.799,245.233 441.024,245.664 441.157 C 246.095 441.291,246.913 441.610,247.483 441.867 C 248.052 442.123,248.567 442.332,248.629 442.332 C 248.690 442.332,249.062 442.478,249.456 442.655 C 250.614 443.178,253.892 444.716,253.933 444.756 C 253.954 444.776,254.143 445.584,254.355 446.551 C 254.911 449.095,256.131 452.480,256.932 453.699 C 257.038 453.861,257.310 454.336,257.537 454.756 C 257.763 455.175,258.026 455.616,258.121 455.736 C 260.600 458.875,261.560 459.897,263.574 461.538 C 264.037 461.916,264.518 462.313,264.643 462.422 C 273.859 470.418,293.586 472.808,306.870 467.537 C 310.852 465.957,317.043 461.779,320.540 458.312 C 320.761 458.092,321.641 457.295,322.494 456.541 C 323.348 455.786,324.445 454.810,324.933 454.370 C 325.421 453.931,326.394 453.108,327.095 452.542 C 328.549 451.366,328.347 451.522,330.922 449.584 C 331.996 448.775,333.007 448.007,333.169 447.877 C 333.331 447.747,334.434 446.885,335.620 445.963 C 336.805 445.040,338.040 444.072,338.364 443.811 C 339.179 443.153,340.240 442.325,341.012 441.744 C 341.371 441.475,342.024 440.962,342.463 440.605 C 343.608 439.676,343.654 439.641,345.813 438.021 C 346.890 437.213,347.859 436.481,347.967 436.395 C 348.074 436.308,348.956 435.667,349.927 434.969 C 350.897 434.272,351.824 433.593,351.987 433.460 C 352.326 433.185,354.513 431.693,356.554 430.345 C 357.315 429.842,358.076 429.336,358.244 429.221 C 358.412 429.106,359.167 428.613,359.922 428.127 C 360.676 427.641,361.426 427.154,361.587 427.046 C 362.223 426.619,364.549 425.117,366.593 423.814 C 368.456 422.627,377.051 416.902,383.831 412.332 C 403.841 398.847,405.191 389.447,389.133 375.396 C 388.276 374.646,387.431 373.900,387.255 373.738 C 387.079 373.577,386.461 373.048,385.882 372.562 C 384.728 371.597,383.323 370.408,382.558 369.750 C 382.288 369.518,381.407 368.765,380.598 368.075 C 375.540 363.762,373.117 361.058,371.198 357.584 C 368.424 352.561,367.896 350.792,366.573 342.087 C 365.472 334.845,364.321 331.518,361.692 327.976 C 360.546 326.432,359.220 325.087,357.550 323.775 C 357.000 323.343,354.838 322.331,353.903 322.068 C 352.066 321.550,351.530 321.446,349.535 321.215 C 348.457 321.091,347.475 320.958,347.353 320.921 C 347.201 320.874,347.309 320.128,347.700 318.535 C 350.703 306.294,351.338 301.191,351.136 290.936 C 351.029 285.480,350.716 281.488,350.221 279.275 C 350.113 278.790,349.855 277.511,349.649 276.433 C 349.189 274.027,348.591 271.450,348.193 270.155 C 348.029 269.620,347.610 268.256,347.263 267.124 C 346.479 264.566,344.539 259.106,343.977 257.875 C 343.746 257.368,343.557 256.908,343.557 256.851 C 343.557 256.793,343.293 256.169,342.969 255.463 C 342.646 254.757,342.381 254.140,342.381 254.091 C 342.381 254.005,341.788 252.686,340.574 250.073 C 338.837 246.332,335.822 240.485,333.553 236.453 C 332.334 234.288,331.725 233.235,329.303 229.103 C 327.314 225.711,323.568 219.733,320.489 215.038 C 319.056 212.854,317.650 210.693,317.364 210.237 C 317.079 209.780,316.790 209.363,316.723 209.309 C 316.656 209.255,316.208 208.594,315.728 207.839 C 315.247 207.085,314.807 206.423,314.750 206.369 C 314.693 206.316,313.766 204.949,312.691 203.332 C 311.031 200.836,304.306 191.248,303.138 189.711 C 302.680 189.109,301.428 187.359,301.029 186.763 C 300.867 186.522,300.551 186.094,300.326 185.813 C 300.101 185.532,299.527 184.728,299.049 184.027 C 298.572 183.327,297.822 182.268,297.384 181.676 C 296.945 181.083,296.200 180.024,295.728 179.324 C 295.257 178.623,294.822 178.006,294.763 177.952 C 294.705 177.898,294.221 177.193,293.689 176.384 C 293.157 175.576,292.670 174.870,292.605 174.816 C 292.541 174.762,292.015 173.969,291.435 173.052 C 290.856 172.136,289.981 170.769,289.491 170.015 C 288.317 168.206,285.490 163.603,284.811 162.393 C 284.515 161.866,284.183 161.293,284.075 161.119 C 282.799 159.084,279.211 152.226,277.990 149.493 C 277.592 148.600,277.056 147.403,276.800 146.834 C 276.544 146.265,276.335 145.753,276.335 145.696 C 276.335 145.640,276.164 145.217,275.954 144.758 C 274.477 141.515,272.780 135.419,272.214 131.327 C 271.997 129.754,271.737 127.981,271.636 127.389 C 271.535 126.796,271.317 124.415,271.151 122.097 C 270.985 119.780,270.757 116.693,270.646 115.238 C 270.276 110.432,270.057 101.986,269.960 88.780 C 269.906 81.612,269.771 74.160,269.658 72.220 C 269.397 67.740,268.925 61.984,268.693 60.461 C 267.742 54.222,267.611 53.546,266.409 48.702 C 262.571 33.226,254.255 20.112,242.920 11.660 C 242.489 11.338,242.092 11.025,242.038 10.963 C 241.236 10.048,234.153 6.076,231.749 5.192 C 231.210 4.994,230.681 4.774,230.573 4.702 C 230.276 4.505,227.449 3.538,225.576 2.992 C 222.294 2.036,220.180 1.604,213.817 0.588 C 210.701 0.091,199.042 -0.203,195.786 0.134 M221.985 66.648 C 236.860 68.682,244.514 87.657,236.722 103.185 C 234.820 106.976,230.284 113.853,229.773 113.721 C 229.674 113.696,227.785 113.008,225.576 112.192 C 223.366 111.377,221.426 110.662,221.264 110.603 C 221.021 110.514,221.034 110.456,221.342 110.270 C 231.699 103.996,230.317 85.040,219.325 82.584 C 209.593 80.410,201.099 93.158,205.162 103.838 C 205.519 104.774,205.526 104.869,205.230 104.750 C 203.957 104.241,198.082 102.099,197.420 101.904 L 196.604 101.663 196.461 99.582 C 196.103 94.414,197.453 85.938,199.368 81.333 C 203.384 71.670,213.009 65.420,221.985 66.648 M162.089 71.198 C 169.169 73.611,174.627 84.738,174.655 96.815 C 174.667 101.553,174.680 101.510,172.988 102.193 C 172.215 102.506,171.068 103.016,170.439 103.327 C 169.454 103.815,169.310 103.844,169.399 103.539 C 172.436 93.180,164.159 80.789,156.721 84.558 C 148.996 88.472,149.675 105.898,157.717 110.120 C 158.387 110.472,158.307 110.575,156.177 112.097 L 154.197 113.513 153.418 112.758 C 147.155 106.692,143.718 91.025,146.497 81.213 C 148.795 73.104,155.343 68.898,162.089 71.198 M190.040 102.515 C 193.422 102.985,195.957 103.802,206.329 107.769 C 208.795 108.712,216.033 111.342,223.616 114.050 C 236.104 118.509,238.032 120.204,238.010 126.703 C 237.988 133.337,236.622 136.173,232.302 138.558 C 229.165 140.290,226.568 142.128,221.373 146.295 C 210.539 154.985,206.684 157.478,199.902 160.182 C 190.767 163.824,179.409 163.723,172.155 159.936 C 168.379 157.964,166.085 155.915,161.388 150.318 C 159.273 147.798,156.618 144.938,154.265 142.644 C 150.861 139.325,149.711 137.990,150.955 138.802 C 164.945 147.937,177.451 151.229,189.123 148.849 C 201.108 146.406,209.135 142.541,223.322 132.385 C 225.154 131.073,227.580 129.492,228.711 128.872 C 231.813 127.174,232.233 126.585,230.848 125.873 C 229.078 124.962,227.198 125.569,224.302 127.985 C 216.414 134.563,205.534 140.981,197.844 143.591 C 182.905 148.662,170.351 147.200,155.500 138.658 C 153.769 137.662,150.915 136.073,149.157 135.126 C 145.188 132.987,144.784 132.318,145.504 129.082 C 146.926 122.692,153.539 116.067,165.951 108.597 C 174.603 103.391,182.314 101.444,190.040 102.515 M175.034 107.495 C 173.034 107.945,171.877 108.976,171.877 110.308 C 171.877 111.736,173.179 111.849,174.854 110.567 C 175.534 110.046,176.692 109.241,177.428 108.776 C 179.446 107.503,178.129 106.798,175.034 107.495 M188.388 107.422 C 187.429 107.698,187.540 107.804,190.348 109.273 C 194.908 111.659,195.452 111.835,195.815 111.038 C 196.900 108.658,192.138 106.339,188.388 107.422 M237.630 145.624 C 242.239 170.548,245.212 181.042,251.786 195.590 C 256.364 205.723,257.017 207.617,258.615 215.385 L 259.159 218.030 260.295 219.206 C 264.567 223.632,269.198 231.296,273.449 240.973 C 282.729 262.098,286.380 277.403,286.664 296.374 L 286.773 303.577 289.490 303.577 L 292.207 303.577 293.370 301.256 C 299.611 288.806,301.280 277.722,298.970 264.067 C 296.662 250.422,289.813 237.714,278.822 226.683 C 276.042 223.893,276.014 223.610,278.727 225.737 C 294.624 238.194,303.722 255.086,304.923 274.375 C 305.378 281.678,303.572 291.825,300.111 301.405 C 299.257 303.769,299.259 303.772,301.268 303.775 C 313.292 303.789,326.159 306.746,332.533 310.960 C 334.281 312.116,334.601 312.438,333.383 311.817 C 327.206 308.665,315.161 307.048,302.433 307.662 C 284.973 308.503,278.922 311.357,277.230 319.549 L 276.987 320.725 275.828 320.868 C 271.587 321.390,267.091 324.486,265.213 328.177 C 263.161 332.209,262.591 336.580,262.123 351.886 C 261.961 357.168,261.699 364.091,261.540 367.271 C 261.381 370.451,261.250 373.465,261.248 373.970 C 261.237 377.081,247.006 390.259,237.531 395.934 C 218.684 407.222,189.666 410.540,164.527 404.283 C 153.893 401.636,145.129 397.360,138.184 391.431 L 137.515 390.860 138.978 390.057 C 145.911 386.252,149.805 380.622,149.789 374.424 C 149.771 366.953,146.761 363.115,132.974 352.985 C 115.512 340.154,112.680 337.869,106.115 331.313 C 97.978 323.186,95.404 319.376,92.510 311.173 C 85.307 290.753,88.714 263.673,101.093 242.950 C 104.713 236.891,113.474 226.965,113.474 228.924 C 113.474 229.040,112.693 230.033,111.740 231.129 C 99.551 245.133,93.171 263.115,93.198 283.390 C 93.212 293.584,94.198 299.062,97.326 306.308 C 98.724 309.548,98.775 309.574,98.775 307.033 C 98.775 286.978,108.684 252.669,120.119 233.128 C 122.043 229.841,123.982 227.104,125.702 225.248 L 127.005 223.842 128.163 220.153 C 130.190 213.693,130.709 212.453,133.573 207.231 C 139.588 196.261,142.249 189.139,145.611 175.012 C 147.718 166.156,150.785 149.977,151.396 144.488 C 151.471 143.814,151.597 143.263,151.675 143.263 C 152.389 143.263,156.287 147.322,160.427 152.376 C 168.588 162.339,173.553 165.096,184.125 165.535 C 196.328 166.042,206.194 161.864,220.480 150.141 C 228.263 143.755,230.211 142.345,234.047 140.326 C 235.647 139.484,236.289 139.233,236.388 139.411 C 236.464 139.546,237.023 142.342,237.630 145.624 M78.295 317.062 C 83.302 319.032,87.803 323.472,94.003 332.554 C 95.595 334.887,98.363 338.912,100.155 341.499 C 103.199 345.896,105.520 349.214,115.234 363.057 C 121.701 372.274,126.312 378.973,131.682 386.953 C 137.223 395.187,138.721 397.203,142.455 401.453 C 153.229 413.712,155.468 417.445,156.515 424.888 C 157.837 434.296,156.227 440.797,150.784 448.023 C 137.707 465.383,122.773 466.839,89.466 454.002 C 75.730 448.708,72.275 447.584,66.242 446.445 C 59.255 445.126,56.007 444.471,52.621 443.700 C 15.340 435.208,8.837 432.813,5.547 426.360 C 3.009 421.383,3.018 419.242,5.609 411.661 C 9.114 401.407,10.126 390.289,8.821 376.384 C 7.995 367.584,8.208 362.830,9.601 359.013 C 11.946 352.589,15.426 350.675,30.573 347.480 C 45.329 344.368,49.723 341.521,55.076 331.602 C 59.056 324.226,60.420 322.206,62.696 320.317 C 66.985 316.757,73.869 315.321,78.295 317.062 M276.791 327.438 C 277.315 341.090,281.606 352.617,287.558 356.362 C 294.240 360.566,305.607 358.884,315.635 352.208 C 323.763 346.797,329.592 339.602,336.395 326.579 L 337.330 324.790 338.217 324.668 C 339.841 324.446,344.487 324.543,346.830 324.848 C 352.446 325.580,353.842 326.219,357.298 329.642 C 360.795 333.105,361.628 335.108,362.965 343.263 C 365.239 357.123,368.753 363.324,379.422 372.297 C 391.154 382.165,396.284 388.693,396.040 393.443 C 395.734 399.387,390.360 403.833,359.349 423.804 C 350.835 429.286,347.518 431.690,335.011 441.443 C 331.551 444.142,327.671 447.158,326.388 448.145 C 325.106 449.133,322.205 451.593,319.941 453.612 C 308.428 463.882,302.570 466.438,290.544 466.438 C 273.194 466.438,260.439 457.848,257.807 444.390 C 255.717 433.706,256.171 427.860,260.565 408.899 C 264.095 393.670,264.045 394.054,264.481 378.638 C 264.644 372.871,264.868 366.213,264.978 363.841 C 265.088 361.470,265.262 355.649,265.364 350.906 C 265.669 336.682,266.467 332.359,269.609 327.925 C 271.079 325.851,273.919 324.195,276.059 324.164 L 276.665 324.155 276.791 327.438 " stroke="none" fill="#2c2c2c" fill-rule="evenodd"></path></g></svg>