<svg id="svg" version="1.1" xmlns="http://www.w3.org/2000/svg" xmlns:xlink="http://www.w3.org/1999/xlink" width="400" height="400" viewBox="0, 0, 400,400"><g id="svgg"><path id="path0" d="M97.139 12.581 C 96.722 13.020,90.830 14.400,89.373 14.400 C 87.348 14.400,87.260 15.189,89.276 15.263 C 90.224 15.298,91.270 15.281,91.600 15.227 C 91.930 15.172,95.313 15.007,99.117 14.859 C 106.139 14.587,108.373 14.000,105.888 13.080 C 104.712 12.645,97.470 12.232,97.139 12.581 M186.400 12.663 C 186.070 12.773,185.530 12.984,185.200 13.131 C 184.393 13.491,211.565 13.851,220.600 13.600 C 226.626 13.433,227.658 13.318,226.926 12.900 C 225.841 12.279,224.097 12.263,221.752 12.854 C 220.445 13.183,219.708 13.188,219.074 12.872 C 218.547 12.610,216.531 12.495,214.000 12.584 C 208.917 12.762,199.377 12.884,193.447 12.846 C 191.052 12.831,188.937 12.915,188.747 13.033 C 188.556 13.151,188.400 13.057,188.400 12.824 C 188.400 12.387,187.455 12.311,186.400 12.663 M232.179 13.015 C 231.152 13.468,231.113 13.539,231.876 13.568 C 232.358 13.585,232.853 13.761,232.975 13.959 C 233.217 14.351,226.972 24.917,226.370 25.133 C 226.167 25.207,226.000 25.435,226.000 25.640 C 226.000 25.846,225.155 27.406,224.122 29.107 C 222.369 31.994,220.962 34.413,218.485 38.800 C 217.926 39.790,217.113 41.230,216.678 42.000 C 215.927 43.330,209.909 54.938,209.245 56.338 C 209.072 56.702,208.373 58.170,207.692 59.600 C 207.010 61.030,205.712 63.820,204.807 65.800 C 203.902 67.780,203.002 69.694,202.807 70.052 C 202.612 70.411,201.612 72.751,200.584 75.252 C 199.557 77.754,198.398 80.520,198.010 81.400 C 197.622 82.280,196.820 84.260,196.228 85.800 C 195.637 87.340,194.806 89.438,194.382 90.462 C 193.958 91.486,192.431 95.716,190.989 99.862 C 189.547 104.008,188.214 107.760,188.027 108.200 C 187.699 108.971,187.147 110.698,185.596 115.800 C 185.194 117.120,184.384 119.730,183.796 121.600 C 182.525 125.638,182.513 125.681,180.454 133.600 C 178.023 142.949,177.761 144.000,177.218 146.600 C 176.942 147.920,176.566 149.360,176.383 149.800 C 176.200 150.240,175.966 151.230,175.863 152.000 C 175.761 152.770,175.390 154.750,175.040 156.400 C 173.924 161.648,173.069 166.307,172.394 170.800 C 172.147 172.450,171.789 174.430,171.598 175.200 C 171.408 175.970,171.051 178.220,170.805 180.200 C 170.378 183.629,170.028 186.329,169.198 192.600 C 168.752 195.968,167.987 205.588,167.878 209.200 L 167.800 211.800 203.800 211.889 C 223.600 211.938,240.025 211.983,240.300 211.989 C 241.057 212.006,240.927 212.979,239.359 219.035 C 237.133 227.632,236.982 228.609,236.014 240.600 C 235.801 243.240,235.436 247.650,235.202 250.400 C 234.000 264.583,232.701 294.058,232.885 303.000 L 233.000 308.600 234.600 308.498 C 237.619 308.306,251.665 305.653,255.200 304.608 C 256.190 304.315,258.440 303.682,260.200 303.201 C 267.599 301.179,280.078 296.869,285.000 294.636 C 286.100 294.136,288.350 293.136,290.000 292.413 C 293.521 290.870,292.811 291.220,300.282 287.351 C 303.537 285.666,307.343 283.592,308.741 282.743 C 310.138 281.894,311.518 281.200,311.808 281.200 C 312.097 281.200,312.393 281.053,312.467 280.872 C 312.617 280.503,317.419 277.200,317.806 277.200 C 317.943 277.200,318.841 276.660,319.800 276.000 C 320.759 275.340,321.782 274.810,322.072 274.822 C 322.597 274.843,325.200 278.455,325.200 279.162 C 325.200 279.366,325.351 279.593,325.535 279.667 C 326.130 279.903,330.400 286.570,330.400 287.262 C 330.400 287.837,328.833 289.021,325.400 291.040 C 324.960 291.299,321.807 293.196,318.393 295.255 C 311.747 299.265,293.034 308.800,291.811 308.800 C 291.708 308.800,290.673 309.227,289.512 309.748 C 285.422 311.584,274.110 315.629,269.190 317.016 C 267.986 317.355,266.370 317.817,265.600 318.043 C 264.830 318.269,263.570 318.609,262.800 318.800 C 262.030 318.991,260.680 319.347,259.800 319.591 C 258.347 319.995,253.869 321.023,249.200 322.026 C 245.729 322.771,239.737 323.732,235.325 324.251 C 234.183 324.385,233.162 324.722,233.056 324.999 C 232.542 326.337,233.901 348.923,235.222 361.000 C 236.511 372.782,237.236 376.829,239.036 382.288 C 239.778 384.536,240.291 386.618,240.178 386.913 C 239.962 387.477,290.492 387.813,291.400 387.254 C 291.620 387.119,294.548 387.071,297.907 387.147 C 301.540 387.230,304.214 387.126,304.507 386.892 C 304.778 386.675,306.080 386.375,307.400 386.226 C 312.711 385.624,313.414 385.510,313.746 385.196 C 313.936 385.016,315.406 384.968,317.013 385.090 C 318.620 385.211,320.265 385.168,320.667 384.994 C 321.070 384.820,321.850 384.615,322.400 384.538 C 325.290 384.138,328.119 383.354,328.291 382.907 C 328.398 382.628,328.906 382.400,329.419 382.400 C 329.933 382.400,330.464 382.220,330.600 382.000 C 330.736 381.780,331.377 381.600,332.024 381.600 C 332.671 381.600,333.200 381.420,333.200 381.200 C 333.200 380.980,333.639 380.800,334.176 380.800 C 334.713 380.800,335.264 380.620,335.400 380.400 C 335.536 380.180,335.997 380.000,336.424 380.000 C 336.851 380.000,337.200 379.820,337.200 379.600 C 337.200 379.380,337.560 379.200,338.000 379.200 C 338.440 379.200,338.800 379.020,338.800 378.800 C 338.800 378.580,339.486 378.400,340.325 378.400 C 341.296 378.400,342.161 378.110,342.708 377.600 C 343.180 377.160,343.718 376.800,343.904 376.800 C 344.671 376.800,346.394 375.764,346.397 375.300 C 346.399 375.025,346.636 374.800,346.925 374.800 C 347.213 374.800,347.836 374.440,348.308 374.000 C 348.780 373.560,349.320 373.200,349.508 373.200 C 349.696 373.200,350.198 372.878,350.625 372.485 C 351.051 372.092,352.002 371.523,352.737 371.221 C 353.472 370.919,355.182 369.623,356.537 368.341 C 357.892 367.058,359.495 365.783,360.100 365.507 C 360.912 365.136,361.200 364.717,361.200 363.902 C 361.200 363.067,361.394 362.800,362.000 362.800 C 362.533 362.800,362.800 362.533,362.800 362.000 C 362.800 361.500,363.067 361.200,363.512 361.200 C 363.903 361.200,364.483 360.840,364.800 360.400 C 365.117 359.960,365.613 359.600,365.901 359.600 C 366.189 359.600,366.545 359.285,366.692 358.900 C 366.839 358.515,368.003 356.926,369.279 355.370 C 370.556 353.813,371.600 352.238,371.600 351.870 C 371.600 351.501,371.750 351.200,371.932 351.200 C 372.115 351.200,372.520 350.705,372.832 350.100 C 373.145 349.495,373.715 348.651,374.100 348.225 C 374.485 347.798,374.800 347.213,374.800 346.925 C 374.800 346.636,375.070 346.400,375.400 346.400 C 375.730 346.400,376.000 346.164,376.000 345.875 C 376.000 345.587,376.360 344.964,376.800 344.492 C 377.240 344.020,377.604 343.491,377.609 343.317 C 377.614 343.143,377.961 342.553,378.381 342.007 C 378.981 341.226,379.043 340.892,378.672 340.442 C 378.307 340.000,378.314 339.832,378.700 339.702 C 378.975 339.609,379.200 339.188,379.200 338.767 C 379.200 338.345,379.380 338.000,379.600 338.000 C 379.820 338.000,380.000 337.638,380.000 337.195 C 380.000 336.752,380.180 336.032,380.400 335.595 C 380.620 335.158,380.980 334.442,381.200 334.005 C 381.420 333.568,381.600 332.769,381.600 332.229 C 381.600 331.689,381.780 331.136,382.000 331.000 C 382.220 330.864,382.400 330.223,382.400 329.576 C 382.400 328.929,382.567 328.400,382.772 328.400 C 383.075 328.400,384.297 324.977,384.557 323.400 C 384.593 323.180,384.742 322.809,384.888 322.576 C 385.034 322.342,385.196 321.217,385.248 320.076 C 385.300 318.934,385.464 318.000,385.613 318.000 C 385.762 318.000,385.895 316.785,385.910 315.300 C 385.954 310.772,386.463 304.612,386.811 304.395 C 387.169 304.172,387.726 288.396,387.771 277.200 C 387.787 273.350,387.943 269.979,388.118 269.708 C 388.294 269.438,388.224 268.818,387.963 268.330 C 387.621 267.692,387.547 265.203,387.699 259.422 C 387.831 254.420,387.746 250.516,387.476 249.053 C 387.099 247.020,387.128 246.642,387.692 246.230 C 388.123 245.914,388.225 245.563,387.993 245.189 C 387.474 244.349,387.577 213.688,388.103 212.533 C 388.418 211.843,388.401 211.349,388.040 210.675 C 387.738 210.111,387.576 208.374,387.618 206.178 C 387.657 204.210,387.680 196.664,387.671 189.409 C 387.661 182.043,387.814 176.024,388.017 175.780 C 388.237 175.514,388.227 175.187,387.991 174.951 C 387.668 174.628,387.545 165.995,387.660 151.800 C 387.667 150.920,387.655 143.314,387.634 134.898 C 387.607 124.167,387.730 119.380,388.047 118.873 C 388.394 118.318,388.357 117.877,387.886 116.966 C 387.434 116.092,387.261 114.376,387.226 110.419 C 387.196 107.115,387.006 104.848,386.729 104.515 C 386.409 104.129,386.362 101.470,386.564 95.189 C 386.802 87.832,386.754 86.269,386.268 85.576 C 385.949 85.121,385.779 84.400,385.891 83.975 C 386.002 83.549,385.802 82.757,385.446 82.215 C 385.091 81.672,384.800 80.898,384.800 80.494 C 384.800 80.090,384.637 79.589,384.439 79.380 C 384.240 79.171,383.978 78.190,383.857 77.200 C 383.436 73.756,383.110 72.400,382.704 72.400 C 382.454 72.400,382.383 71.745,382.520 70.722 C 382.862 68.171,380.111 60.923,377.827 58.360 C 377.262 57.726,376.800 56.935,376.800 56.603 C 376.800 56.272,376.620 56.000,376.400 56.000 C 376.180 56.000,376.000 55.640,376.000 55.200 C 376.000 54.760,375.820 54.400,375.600 54.400 C 375.380 54.400,375.200 54.023,375.200 53.562 C 375.200 53.101,374.871 52.246,374.470 51.662 C 374.068 51.078,373.512 50.028,373.234 49.330 C 372.955 48.631,370.674 46.060,368.164 43.616 C 365.395 40.921,363.600 38.863,363.600 38.386 C 363.600 37.527,360.951 34.800,360.117 34.800 C 359.832 34.800,359.600 34.620,359.600 34.400 C 359.600 34.180,359.367 34.000,359.081 34.000 C 358.796 34.000,357.859 33.280,357.000 32.400 C 356.141 31.520,355.270 30.800,355.066 30.800 C 354.861 30.800,354.403 30.477,354.047 30.083 C 353.505 29.483,349.626 26.318,348.180 25.297 C 347.099 24.534,345.957 24.000,345.405 24.000 C 345.072 24.000,344.800 23.820,344.800 23.600 C 344.800 23.380,344.260 23.200,343.600 23.200 C 342.940 23.200,342.400 23.020,342.400 22.800 C 342.400 22.580,342.011 22.400,341.536 22.400 C 341.060 22.400,340.205 21.880,339.636 21.244 C 339.066 20.609,337.970 19.903,337.200 19.675 C 336.430 19.448,334.540 18.780,333.000 18.191 C 329.122 16.708,328.863 16.650,328.284 17.130 C 327.961 17.399,327.558 17.418,327.187 17.183 C 326.864 16.979,325.936 16.809,325.124 16.806 C 324.312 16.803,323.536 16.620,323.400 16.400 C 323.264 16.180,322.441 16.000,321.571 16.000 C 320.701 16.000,319.677 15.844,319.295 15.654 C 315.808 13.915,312.167 13.526,300.095 13.600 C 291.461 13.653,289.732 13.564,288.216 12.985 C 286.813 12.449,285.832 12.368,283.521 12.600 C 281.914 12.761,278.260 12.883,275.400 12.870 C 261.046 12.809,257.738 12.799,252.200 12.795 C 248.900 12.794,243.311 12.725,239.779 12.643 C 235.103 12.535,233.039 12.636,232.179 13.015 M117.200 13.200 C 116.801 13.458,118.811 13.570,123.200 13.535 C 128.171 13.495,129.208 13.409,127.400 13.185 C 123.861 12.745,117.889 12.754,117.200 13.200 M142.200 13.200 C 141.139 13.390,142.284 13.496,145.600 13.515 C 148.717 13.533,150.299 13.414,149.800 13.200 C 148.854 12.794,144.470 12.794,142.200 13.200 M164.200 13.200 C 163.712 13.410,165.976 13.539,170.000 13.532 C 173.888 13.525,176.189 13.389,175.600 13.200 C 174.253 12.769,165.204 12.769,164.200 13.200 M110.505 13.487 C 111.114 13.579,112.014 13.577,112.505 13.482 C 112.997 13.387,112.500 13.311,111.400 13.314 C 110.300 13.317,109.897 13.395,110.505 13.487 M79.400 15.204 C 78.960 15.391,78.037 15.556,77.349 15.572 C 76.661 15.587,75.893 15.847,75.643 16.149 C 75.392 16.450,74.403 16.786,73.445 16.894 C 72.487 17.002,71.112 17.385,70.390 17.745 C 69.668 18.105,68.745 18.400,68.339 18.400 C 67.932 18.400,67.600 18.580,67.600 18.800 C 67.600 19.020,67.161 19.200,66.624 19.200 C 66.087 19.200,65.536 19.380,65.400 19.600 C 65.264 19.820,64.801 20.000,64.371 20.000 C 63.941 20.000,63.277 20.168,62.895 20.374 C 62.513 20.579,61.615 20.983,60.900 21.271 C 60.185 21.560,59.600 21.931,59.600 22.098 C 59.600 22.264,59.330 22.400,59.000 22.400 C 58.670 22.400,58.400 22.580,58.400 22.800 C 58.400 23.020,58.040 23.200,57.600 23.200 C 57.160 23.200,56.800 23.380,56.800 23.600 C 56.800 23.820,56.528 24.000,56.195 24.000 C 55.592 24.000,53.981 24.775,53.600 25.249 C 53.490 25.386,52.552 25.882,51.515 26.352 C 50.478 26.822,49.181 27.655,48.633 28.203 C 48.085 28.751,47.420 29.200,47.155 29.200 C 46.602 29.200,45.055 30.647,37.686 38.057 C 30.080 45.706,30.000 45.792,30.000 46.339 C 30.000 46.613,29.559 47.278,29.019 47.817 C 28.480 48.356,27.724 49.473,27.340 50.299 C 26.956 51.124,26.452 51.932,26.221 52.094 C 25.959 52.277,25.951 52.392,26.200 52.400 C 26.467 52.408,26.467 52.510,26.200 52.706 C 25.612 53.138,24.800 54.697,24.800 55.395 C 24.800 55.728,24.620 56.000,24.400 56.000 C 24.180 56.000,24.000 56.360,24.000 56.800 C 24.000 57.240,23.854 57.600,23.675 57.600 C 23.496 57.600,23.102 58.230,22.800 59.000 C 22.498 59.770,22.104 60.400,21.925 60.400 C 21.746 60.400,21.600 60.760,21.600 61.200 C 21.600 61.640,21.420 62.000,21.200 62.000 C 20.980 62.000,20.800 62.349,20.800 62.776 C 20.800 63.203,20.620 63.664,20.400 63.800 C 20.180 63.936,20.000 64.476,20.000 65.000 C 20.000 65.524,19.820 66.064,19.600 66.200 C 19.380 66.336,19.200 66.887,19.200 67.424 C 19.200 67.961,19.064 68.400,18.897 68.400 C 18.545 68.400,17.600 71.250,17.600 72.314 C 17.600 72.713,17.445 73.211,17.255 73.420 C 15.911 74.901,14.421 88.329,15.647 87.915 C 16.004 87.795,16.223 87.034,16.265 85.764 C 16.350 83.174,16.975 79.264,17.515 77.943 C 17.753 77.362,17.854 76.527,17.739 76.088 C 17.624 75.649,17.726 75.169,17.965 75.022 C 18.204 74.874,18.406 74.178,18.413 73.476 C 18.420 72.774,18.690 71.851,19.013 71.424 C 19.336 70.996,19.600 70.382,19.600 70.058 C 19.600 69.342,23.051 60.719,24.070 58.888 C 24.471 58.166,24.800 57.311,24.800 56.988 C 24.800 56.665,24.980 56.400,25.200 56.400 C 25.420 56.400,25.600 56.164,25.600 55.875 C 25.600 55.587,25.915 55.002,26.300 54.575 C 26.685 54.149,27.255 53.305,27.568 52.700 C 27.880 52.095,28.285 51.600,28.468 51.600 C 28.650 51.600,28.800 51.375,28.801 51.100 C 28.801 50.825,29.341 49.970,30.000 49.200 C 30.659 48.430,31.200 47.620,31.203 47.400 C 31.225 45.706,49.010 28.800,50.771 28.800 C 50.970 28.800,51.193 28.639,51.267 28.443 C 51.456 27.936,58.125 24.000,58.795 24.000 C 58.998 24.000,60.028 23.502,61.082 22.894 C 62.137 22.285,64.530 21.283,66.400 20.666 C 68.270 20.048,70.160 19.389,70.600 19.200 C 72.904 18.210,81.233 16.414,83.600 16.398 C 84.936 16.388,86.387 15.829,85.988 15.477 C 85.573 15.111,80.148 14.886,79.400 15.204 M298.400 86.813 C 298.928 87.084,298.976 90.671,298.800 116.660 L 298.600 146.200 286.700 146.306 L 274.800 146.412 274.800 116.673 C 274.800 100.316,274.930 86.803,275.089 86.644 C 275.475 86.258,297.632 86.419,298.400 86.813 M14.700 90.133 C 14.535 90.536,14.400 91.535,14.400 92.353 C 14.400 93.171,14.202 94.038,13.959 94.281 C 13.571 94.669,13.373 107.792,13.211 143.800 C 13.205 145.340,13.299 150.553,13.422 155.384 C 13.581 161.635,13.513 164.416,13.185 165.029 C 12.867 165.622,12.808 167.241,12.995 170.245 C 13.143 172.640,13.252 177.525,13.236 181.100 C 13.198 189.529,13.190 195.596,13.206 205.200 C 13.212 209.490,13.216 215.115,13.214 217.700 C 13.212 220.285,13.211 225.730,13.212 229.800 C 13.216 251.620,13.214 260.629,13.206 264.900 C 13.185 274.902,13.828 301.163,14.100 301.434 C 14.523 301.856,14.483 309.721,14.621 200.400 C 14.690 145.290,14.894 98.670,15.074 96.800 C 15.434 93.042,15.203 88.905,14.700 90.133 M386.800 100.800 C 386.800 102.330,386.950 103.155,387.200 103.000 C 387.420 102.864,387.600 101.874,387.600 100.800 C 387.600 99.726,387.420 98.736,387.200 98.600 C 386.950 98.445,386.800 99.270,386.800 100.800 M14.400 303.920 C 14.400 305.158,14.240 305.600,13.791 305.600 C 13.256 305.600,13.261 305.722,13.832 306.593 C 14.353 307.388,14.428 308.132,14.206 310.337 C 13.978 312.608,14.036 313.128,14.540 313.322 C 14.949 313.479,15.143 314.072,15.129 315.118 C 15.117 315.977,15.308 317.055,15.554 317.513 C 15.799 317.972,16.000 318.989,16.000 319.774 C 16.000 320.558,16.180 321.200,16.400 321.200 C 17.088 321.200,17.015 317.357,16.310 316.498 C 16.075 316.211,16.009 315.305,16.156 314.388 C 16.352 313.160,16.272 312.726,15.816 312.551 C 15.332 312.365,15.224 311.448,15.246 307.718 C 15.263 304.886,15.105 302.945,14.837 302.677 C 14.521 302.361,14.400 302.706,14.400 303.920 M16.800 323.376 C 16.800 324.353,16.980 325.264,17.200 325.400 C 17.420 325.536,17.603 326.312,17.606 327.124 C 17.612 328.564,18.377 331.311,18.926 331.859 C 19.077 332.010,19.200 332.553,19.200 333.067 C 19.200 333.580,19.380 334.000,19.600 334.000 C 19.820 334.000,20.000 334.540,20.000 335.200 C 20.000 335.860,20.151 336.400,20.336 336.400 C 20.521 336.400,20.910 337.120,21.200 338.000 C 21.490 338.880,21.879 339.600,22.064 339.600 C 22.249 339.600,22.400 340.050,22.400 340.600 C 22.400 341.150,22.580 341.600,22.800 341.600 C 23.020 341.600,23.200 341.960,23.200 342.400 C 23.200 342.840,23.335 343.203,23.500 343.207 C 23.665 343.210,24.334 344.290,24.986 345.607 C 25.639 346.923,26.294 348.000,26.443 348.000 C 26.592 348.000,26.995 348.704,27.339 349.564 C 27.683 350.425,28.423 351.586,28.982 352.146 C 29.542 352.706,30.000 353.336,30.000 353.547 C 30.000 353.758,31.080 355.027,32.400 356.368 C 33.720 357.708,34.800 358.911,34.800 359.041 C 34.800 359.512,40.814 365.200,41.312 365.200 C 41.593 365.200,42.088 365.580,42.412 366.044 C 43.552 367.681,45.127 369.200,45.684 369.200 C 45.994 369.200,46.867 369.916,47.624 370.791 C 48.381 371.666,49.315 372.386,49.700 372.391 C 50.085 372.396,50.400 372.565,50.400 372.766 C 50.400 372.967,51.480 373.642,52.800 374.265 C 54.120 374.889,55.200 375.534,55.200 375.699 C 55.200 375.865,55.560 376.000,56.000 376.000 C 56.440 376.000,56.800 376.180,56.800 376.400 C 56.800 376.620,57.160 376.800,57.600 376.800 C 58.040 376.800,58.400 376.980,58.400 377.200 C 58.400 377.420,58.670 377.600,59.000 377.600 C 59.330 377.600,59.600 377.780,59.600 378.000 C 59.600 378.220,59.848 378.400,60.151 378.400 C 60.454 378.400,60.929 378.674,61.207 379.009 C 61.487 379.346,62.030 379.517,62.423 379.393 C 62.813 379.269,63.248 379.355,63.390 379.584 C 63.531 379.813,63.997 380.000,64.424 380.000 C 64.851 380.000,65.200 380.180,65.200 380.400 C 65.200 380.620,65.526 380.800,65.925 380.800 C 66.324 380.800,67.395 381.160,68.306 381.600 C 69.216 382.040,70.679 382.400,71.557 382.400 C 72.435 382.400,73.264 382.580,73.400 382.800 C 73.536 383.020,74.346 383.200,75.200 383.200 C 76.054 383.200,76.864 383.380,77.000 383.600 C 77.136 383.820,78.011 384.000,78.944 384.000 C 79.877 384.000,80.811 384.161,81.020 384.357 C 81.559 384.864,85.320 385.600,87.371 385.600 C 88.422 385.600,89.298 385.836,89.600 386.200 C 90.242 386.973,92.774 386.975,94.254 386.202 C 95.208 385.705,95.263 385.605,94.580 385.602 C 94.129 385.601,93.538 385.378,93.267 385.107 C 92.946 384.786,91.640 384.636,89.511 384.677 C 87.293 384.719,85.995 384.562,85.459 384.186 C 84.927 383.814,84.102 383.711,82.935 383.871 C 81.767 384.031,81.200 383.960,81.200 383.654 C 81.200 383.376,80.426 383.200,79.200 383.200 C 78.100 383.200,77.200 383.020,77.200 382.800 C 77.200 382.580,76.480 382.400,75.600 382.400 C 74.720 382.400,74.000 382.220,74.000 382.000 C 74.000 381.780,73.381 381.600,72.624 381.600 C 71.867 381.600,71.143 381.431,71.016 381.226 C 70.888 381.020,69.483 380.451,67.892 379.962 C 66.301 379.473,64.829 378.922,64.620 378.737 C 64.411 378.551,63.841 378.400,63.353 378.400 C 62.866 378.400,62.407 378.259,62.333 378.086 C 62.260 377.914,60.850 377.099,59.200 376.275 C 54.025 373.691,49.164 370.643,46.600 368.374 C 45.940 367.790,43.828 365.926,41.908 364.233 C 39.987 362.540,37.219 359.769,35.758 358.077 C 34.296 356.385,32.673 354.507,32.150 353.903 C 31.628 353.300,31.200 352.657,31.200 352.473 C 31.200 352.290,30.738 351.706,30.174 351.176 C 29.610 350.646,28.881 349.649,28.554 348.960 C 28.227 348.271,27.654 347.369,27.280 346.954 C 26.906 346.539,26.330 345.660,26.001 345.000 C 25.671 344.340,25.302 343.710,25.180 343.600 C 25.058 343.490,24.672 342.770,24.323 342.000 C 23.974 341.230,23.232 339.610,22.674 338.400 C 22.116 337.190,21.349 335.210,20.969 334.000 C 20.589 332.790,20.146 331.620,19.985 331.400 C 19.824 331.180,19.567 330.415,19.414 329.700 C 19.262 328.985,18.971 328.400,18.768 328.400 C 18.566 328.400,18.400 327.680,18.400 326.800 C 18.400 325.920,18.206 325.200,17.970 325.200 C 17.733 325.200,17.572 324.705,17.612 324.100 C 17.732 322.277,17.621 321.600,17.200 321.600 C 16.980 321.600,16.800 322.399,16.800 323.376 M99.600 385.582 C 94.928 385.863,96.026 386.284,102.200 386.579 C 104.620 386.694,108.490 386.897,110.800 387.028 C 113.321 387.171,115.400 387.104,116.000 386.859 C 117.138 386.394,114.095 386.153,109.148 386.315 C 107.419 386.372,106.097 386.194,105.348 385.804 C 104.717 385.474,104.020 385.238,103.800 385.279 C 103.580 385.320,101.690 385.456,99.600 385.582 M205.700 386.309 C 201.021 386.375,198.000 386.571,198.000 386.809 C 198.000 387.024,198.225 387.197,198.500 387.194 C 198.775 387.190,204.670 387.278,211.600 387.389 C 221.493 387.547,224.716 387.472,226.600 387.036 L 229.000 386.482 225.600 386.350 C 221.285 386.184,215.438 386.171,205.700 386.309 M130.800 386.820 C 133.164 387.241,136.397 387.231,137.400 386.800 C 137.904 386.583,136.500 386.464,133.600 386.478 C 130.015 386.495,129.397 386.571,130.800 386.820 M154.000 386.800 C 154.550 386.976,156.440 387.120,158.200 387.120 C 159.960 387.120,161.850 386.976,162.400 386.800 C 163.010 386.605,161.369 386.480,158.200 386.480 C 155.031 386.480,153.390 386.605,154.000 386.800 M176.000 386.800 C 177.348 387.232,187.195 387.232,188.200 386.800 C 188.685 386.591,186.247 386.461,182.000 386.468 C 177.912 386.475,175.416 386.613,176.000 386.800 " stroke="none" fill="#83ccfb" fill-rule="evenodd"></path><path id="path1" d="M106.306 14.083 C 106.141 14.578,95.901 15.224,89.098 15.169 C 87.156 15.153,86.220 15.323,85.770 15.773 C 85.425 16.118,84.481 16.402,83.671 16.404 C 81.268 16.410,72.953 18.188,70.600 19.200 C 70.160 19.389,68.270 20.048,66.400 20.666 C 64.530 21.283,62.137 22.285,61.082 22.894 C 60.028 23.502,58.998 24.000,58.795 24.000 C 58.125 24.000,51.456 27.936,51.267 28.443 C 51.193 28.639,50.970 28.800,50.771 28.800 C 49.010 28.800,31.225 45.706,31.203 47.400 C 31.200 47.620,30.659 48.430,30.000 49.200 C 29.341 49.970,28.801 50.825,28.801 51.100 C 28.800 51.375,28.650 51.600,28.468 51.600 C 28.285 51.600,27.880 52.095,27.568 52.700 C 27.255 53.305,26.685 54.149,26.300 54.575 C 25.915 55.002,25.600 55.587,25.600 55.875 C 25.600 56.164,25.420 56.400,25.200 56.400 C 24.980 56.400,24.800 56.665,24.800 56.988 C 24.800 57.311,24.471 58.166,24.070 58.888 C 23.051 60.719,19.600 69.342,19.600 70.058 C 19.600 70.382,19.336 70.996,19.013 71.424 C 18.690 71.851,18.420 72.774,18.413 73.476 C 18.406 74.178,18.204 74.874,17.965 75.022 C 17.726 75.169,17.624 75.649,17.739 76.088 C 17.854 76.527,17.753 77.362,17.515 77.943 C 16.897 79.456,16.303 83.478,16.370 85.708 C 16.410 87.071,16.256 87.681,15.827 87.845 C 15.335 88.034,15.228 89.068,15.226 93.642 C 15.224 96.704,15.057 99.522,14.853 99.905 C 14.386 100.783,14.471 301.991,14.939 302.721 C 15.123 303.007,15.261 305.285,15.246 307.782 C 15.224 311.455,15.333 312.365,15.816 312.551 C 16.272 312.726,16.352 313.160,16.156 314.388 C 15.990 315.421,16.073 316.206,16.388 316.585 C 16.657 316.909,16.870 318.121,16.861 319.277 C 16.852 320.434,17.045 321.504,17.289 321.655 C 17.534 321.806,17.705 322.666,17.670 323.565 C 17.635 324.464,17.784 325.200,18.003 325.200 C 18.221 325.200,18.400 325.920,18.400 326.800 C 18.400 327.680,18.566 328.400,18.768 328.400 C 18.971 328.400,19.262 328.985,19.414 329.700 C 19.567 330.415,19.824 331.180,19.985 331.400 C 20.146 331.620,20.589 332.790,20.969 334.000 C 21.349 335.210,22.116 337.190,22.674 338.400 C 23.232 339.610,23.974 341.230,24.323 342.000 C 24.672 342.770,25.058 343.490,25.180 343.600 C 25.302 343.710,25.671 344.340,26.001 345.000 C 26.330 345.660,26.906 346.539,27.280 346.954 C 27.654 347.369,28.227 348.271,28.554 348.960 C 28.881 349.649,29.610 350.646,30.174 351.176 C 30.738 351.706,31.200 352.290,31.200 352.473 C 31.200 352.657,31.628 353.300,32.150 353.903 C 32.673 354.507,34.296 356.385,35.758 358.077 C 37.219 359.769,39.987 362.540,41.908 364.233 C 43.828 365.926,45.940 367.790,46.600 368.374 C 49.164 370.643,54.025 373.691,59.200 376.275 C 60.850 377.099,62.260 377.914,62.333 378.086 C 62.407 378.259,62.866 378.400,63.353 378.400 C 63.841 378.400,64.411 378.551,64.620 378.737 C 64.829 378.922,66.301 379.473,67.892 379.962 C 69.483 380.451,70.888 381.020,71.016 381.226 C 71.143 381.431,71.867 381.600,72.624 381.600 C 73.381 381.600,74.000 381.780,74.000 382.000 C 74.000 382.220,74.720 382.400,75.600 382.400 C 76.480 382.400,77.200 382.580,77.200 382.800 C 77.200 383.020,78.100 383.200,79.200 383.200 C 80.426 383.200,81.200 383.376,81.200 383.654 C 81.200 383.960,81.767 384.031,82.935 383.871 C 84.102 383.711,84.927 383.814,85.459 384.186 C 85.994 384.561,87.288 384.719,89.472 384.677 C 91.606 384.636,92.907 384.791,93.320 385.134 C 93.780 385.515,95.426 385.626,99.545 385.554 C 103.362 385.487,105.324 385.605,105.708 385.923 C 106.517 386.595,223.741 386.552,223.326 385.881 C 223.169 385.627,222.979 384.694,222.903 383.809 C 222.828 382.924,222.494 380.670,222.162 378.800 C 219.969 366.458,218.883 354.907,217.665 331.000 L 217.400 325.800 210.600 325.942 C 199.158 326.182,178.073 324.535,167.419 322.570 C 154.021 320.099,139.089 316.375,131.200 313.537 C 129.990 313.102,128.190 312.508,127.200 312.217 C 124.947 311.555,119.457 309.544,117.600 308.700 C 116.830 308.350,115.750 307.939,115.200 307.787 C 114.650 307.635,113.062 306.990,111.672 306.355 C 110.282 305.720,109.058 305.200,108.953 305.200 C 108.848 305.200,107.040 304.390,104.935 303.400 C 102.831 302.410,100.860 301.600,100.555 301.600 C 100.250 301.600,100.000 301.442,100.000 301.249 C 100.000 301.055,99.415 300.673,98.700 300.398 C 97.985 300.124,95.960 299.162,94.200 298.260 C 92.440 297.359,90.190 296.207,89.200 295.701 C 88.210 295.195,87.130 294.622,86.800 294.427 C 86.470 294.232,85.030 293.372,83.600 292.516 C 82.170 291.659,80.703 290.845,80.339 290.707 C 79.069 290.223,75.600 287.520,75.600 287.014 C 75.600 286.733,76.730 284.905,78.110 282.952 C 79.491 280.998,81.231 278.455,81.978 277.300 C 83.632 274.739,83.585 274.741,87.241 277.152 C 91.181 279.751,101.241 285.037,110.000 289.110 C 114.943 291.409,115.272 291.550,121.584 294.067 C 125.228 295.520,137.996 300.000,138.493 300.000 C 138.828 300.000,139.799 300.294,140.651 300.653 C 146.948 303.308,172.314 308.578,183.800 309.617 C 186.440 309.856,190.040 310.207,191.800 310.397 C 197.106 310.971,216.796 310.895,216.979 310.300 C 217.064 310.025,217.439 301.160,217.811 290.600 C 218.619 267.706,218.959 260.457,219.576 253.000 C 219.831 249.920,220.201 245.150,220.399 242.400 C 220.597 239.650,220.955 235.435,221.194 233.034 C 221.437 230.590,221.477 228.517,221.284 228.324 C 221.094 228.134,205.437 227.939,186.489 227.890 C 164.164 227.832,151.905 227.659,151.656 227.400 C 151.135 226.857,152.162 208.035,153.239 198.400 C 153.473 196.310,153.817 192.890,154.005 190.800 C 154.334 187.131,154.782 183.638,155.568 178.600 C 155.774 177.280,156.136 174.850,156.372 173.200 C 157.146 167.788,159.867 153.438,161.377 146.800 C 161.903 144.490,162.557 141.520,162.831 140.200 C 163.105 138.880,163.480 137.629,163.664 137.420 C 163.849 137.211,164.000 136.671,164.000 136.220 C 163.999 135.294,165.621 129.172,168.295 120.000 C 169.290 116.590,170.536 112.270,171.064 110.400 C 171.593 108.530,172.193 106.640,172.399 106.200 C 172.605 105.760,173.518 103.150,174.428 100.400 C 175.338 97.650,176.312 94.860,176.593 94.200 C 176.874 93.540,177.865 90.840,178.795 88.200 C 179.726 85.560,180.647 83.229,180.843 83.020 C 181.040 82.811,181.200 82.391,181.200 82.087 C 181.200 81.626,182.383 78.636,184.004 75.000 C 184.200 74.560,185.015 72.580,185.815 70.600 C 186.615 68.620,187.794 65.862,188.435 64.472 C 189.076 63.082,189.600 61.881,189.600 61.805 C 189.600 61.565,194.788 50.723,196.110 48.200 C 197.816 44.943,200.259 40.021,200.775 38.800 C 201.008 38.250,201.380 37.530,201.602 37.200 C 201.824 36.870,203.020 34.800,204.261 32.600 C 205.501 30.400,207.142 27.520,207.907 26.200 C 208.672 24.880,209.654 23.170,210.090 22.400 C 210.525 21.630,211.114 20.730,211.399 20.400 C 211.685 20.070,212.582 18.541,213.393 17.003 C 214.204 15.464,215.073 14.079,215.322 13.924 C 215.572 13.770,191.183 13.629,161.125 13.611 C 117.493 13.586,106.440 13.681,106.306 14.083 M232.400 14.271 C 232.400 14.728,232.130 15.326,231.800 15.600 C 231.470 15.874,231.200 16.233,231.200 16.398 C 231.200 16.563,230.201 18.362,228.981 20.396 C 227.760 22.431,226.839 24.173,226.934 24.267 C 227.029 24.362,228.481 22.148,230.161 19.348 C 232.237 15.887,233.085 14.125,232.808 13.848 C 232.531 13.571,232.400 13.706,232.400 14.271 M222.528 30.900 C 218.806 37.184,217.720 39.110,214.799 44.600 C 213.862 46.360,212.939 47.971,212.748 48.180 C 212.557 48.389,212.402 48.839,212.405 49.180 C 212.410 49.838,213.128 48.666,216.065 43.200 C 217.069 41.330,218.254 39.170,218.697 38.400 C 219.140 37.630,220.119 35.920,220.873 34.600 C 221.627 33.280,223.089 30.808,224.122 29.107 C 225.155 27.406,226.000 25.846,226.000 25.640 C 226.000 25.435,226.225 25.176,226.500 25.065 C 226.775 24.954,226.806 24.849,226.570 24.832 C 226.333 24.814,224.514 27.545,222.528 30.900 M209.075 55.662 C 207.576 58.754,206.443 61.376,206.556 61.489 C 206.669 61.603,207.245 60.639,207.835 59.348 C 208.954 56.899,209.019 56.767,210.823 53.290 C 212.210 50.617,212.451 49.995,212.087 50.020 C 211.929 50.031,210.574 52.570,209.075 55.662 M205.012 64.212 C 203.687 67.208,203.944 67.466,205.365 64.565 C 205.967 63.334,206.364 62.231,206.247 62.114 C 206.130 61.997,205.574 62.941,205.012 64.212 M203.023 68.557 C 202.681 69.351,202.113 70.675,201.762 71.500 C 201.411 72.325,200.847 73.591,200.510 74.314 C 200.172 75.037,199.985 75.718,200.094 75.827 C 200.203 75.936,200.526 75.435,200.811 74.713 C 201.096 73.991,201.938 72.073,202.683 70.452 C 203.428 68.830,203.949 67.416,203.842 67.309 C 203.735 67.201,203.366 67.763,203.023 68.557 M198.810 78.501 C 198.301 79.656,197.452 81.566,196.925 82.748 C 196.397 83.929,196.028 85.085,196.106 85.317 C 196.183 85.548,196.489 85.122,196.786 84.369 C 197.083 83.616,197.639 82.280,198.022 81.400 C 199.500 77.999,200.005 76.672,199.873 76.540 C 199.797 76.464,199.319 77.347,198.810 78.501 M194.391 89.273 C 192.895 93.136,190.559 99.492,189.785 101.800 C 189.490 102.680,188.878 104.464,188.423 105.766 C 187.969 107.067,187.684 108.217,187.789 108.323 C 187.895 108.428,188.067 108.264,188.171 107.957 C 190.314 101.669,193.821 91.875,194.793 89.462 C 195.488 87.736,195.972 86.239,195.868 86.135 C 195.764 86.031,195.099 87.443,194.391 89.273 M275.067 86.667 C 274.920 86.813,274.800 100.316,274.800 116.673 L 274.800 146.412 286.700 146.306 L 298.600 146.200 298.800 116.646 L 299.000 87.092 298.135 86.698 C 297.564 86.437,296.750 86.442,295.735 86.711 L 294.200 87.117 296.300 87.159 L 298.400 87.200 298.400 116.600 L 298.400 146.000 286.800 146.000 L 275.200 146.000 275.200 116.600 L 275.200 87.200 284.600 87.200 C 290.600 87.200,294.000 87.055,294.000 86.800 C 294.000 86.351,275.513 86.220,275.067 86.667 M125.120 87.280 C 125.485 87.645,125.600 94.766,125.600 116.886 L 125.600 146.012 113.900 145.906 L 102.200 145.800 102.096 116.800 C 102.000 89.892,102.041 87.764,102.673 87.300 C 103.626 86.599,124.421 86.581,125.120 87.280 M187.029 109.829 C 186.881 110.415,186.851 110.984,186.961 111.094 C 187.071 111.204,187.281 110.815,187.429 110.229 C 187.576 109.642,187.606 109.073,187.496 108.963 C 187.386 108.853,187.176 109.242,187.029 109.829 M186.400 111.639 C 186.400 111.734,185.590 114.416,184.600 117.600 C 183.610 120.784,182.814 123.661,182.832 123.994 C 182.870 124.738,182.827 124.860,184.602 119.000 C 185.401 116.360,186.247 113.699,186.481 113.087 C 186.716 112.475,186.793 111.860,186.654 111.721 C 186.514 111.581,186.400 111.544,186.400 111.639 M182.244 125.300 C 182.172 125.575,181.908 126.443,181.656 127.228 C 181.105 128.953,181.093 130.196,181.640 128.825 C 182.144 127.564,182.765 124.800,182.545 124.800 C 182.451 124.800,182.316 125.025,182.244 125.300 M179.608 135.100 C 177.577 142.911,176.011 149.744,176.206 149.939 C 176.423 150.156,176.578 149.643,177.216 146.600 C 177.493 145.280,177.973 143.210,178.284 142.000 C 180.472 133.478,181.226 130.293,181.090 130.157 C 181.004 130.070,180.337 132.295,179.608 135.100 M175.659 151.200 C 175.620 151.750,175.489 152.650,175.367 153.200 C 175.176 154.062,175.208 154.102,175.597 153.491 C 175.846 153.102,175.977 152.202,175.889 151.491 C 175.764 150.487,175.713 150.422,175.659 151.200 M174.640 156.040 C 174.493 156.957,174.452 157.785,174.547 157.880 C 174.642 157.976,174.846 157.310,175.000 156.400 C 175.154 155.490,175.196 154.662,175.093 154.560 C 174.990 154.457,174.787 155.123,174.640 156.040 M173.822 160.222 C 173.672 161.025,173.638 161.772,173.748 161.882 C 173.858 161.992,174.072 161.425,174.222 160.622 C 174.373 159.819,174.406 159.073,174.296 158.963 C 174.186 158.853,173.973 159.419,173.822 160.222 M173.264 163.050 C 173.229 163.518,173.105 164.508,172.989 165.250 C 172.796 166.486,172.815 166.517,173.208 165.614 C 173.445 165.072,173.568 164.082,173.483 163.414 C 173.391 162.697,173.302 162.548,173.264 163.050 M171.889 170.964 C 171.504 173.361,171.272 175.406,171.375 175.508 C 171.578 175.711,171.693 175.211,172.414 170.991 C 172.678 169.447,172.826 167.828,172.742 167.395 C 172.659 166.961,172.275 168.567,171.889 170.964 M170.629 178.829 C 170.476 180.179,170.433 181.366,170.533 181.467 C 170.634 181.567,170.844 180.547,171.000 179.200 C 171.156 177.853,171.199 176.666,171.095 176.562 C 170.991 176.458,170.781 177.478,170.629 178.829 M169.785 184.985 C 169.630 186.223,169.593 187.327,169.703 187.437 C 169.813 187.547,170.030 186.623,170.185 185.385 C 170.339 184.146,170.376 183.043,170.266 182.933 C 170.156 182.823,169.939 183.746,169.785 184.985 M169.040 190.531 C 168.869 192.034,168.821 193.354,168.932 193.465 C 169.211 193.744,169.717 189.481,169.515 188.553 C 169.425 188.139,169.211 189.029,169.040 190.531 M168.196 198.909 C 168.043 200.541,167.991 202.219,168.080 202.638 C 168.170 203.057,168.379 201.806,168.546 199.858 C 168.712 197.909,168.764 196.231,168.661 196.128 C 168.558 196.025,168.349 197.276,168.196 198.909 M167.431 207.799 C 167.277 209.889,167.263 211.779,167.400 211.999 C 167.562 212.262,180.084 212.400,203.800 212.400 C 226.263 212.400,240.042 212.544,240.188 212.781 C 240.318 212.990,239.960 214.991,239.393 217.226 C 238.827 219.461,238.427 221.480,238.504 221.712 C 238.662 222.186,240.801 213.791,240.800 212.700 C 240.800 212.315,240.575 211.995,240.300 211.989 C 240.025 211.983,223.600 211.938,203.800 211.889 L 167.800 211.800 167.944 207.900 C 168.128 202.908,167.795 202.842,167.431 207.799 M237.829 223.429 C 237.681 224.015,237.651 224.584,237.761 224.694 C 237.871 224.804,238.081 224.415,238.229 223.829 C 238.376 223.242,238.406 222.673,238.296 222.563 C 238.186 222.453,237.976 222.842,237.829 223.429 M237.054 226.754 C 236.900 227.718,236.858 228.591,236.961 228.694 C 237.230 228.963,237.715 226.145,237.507 225.522 C 237.412 225.236,237.208 225.790,237.054 226.754 M236.220 233.318 C 236.045 235.253,235.998 236.931,236.114 237.048 C 236.397 237.330,236.930 231.533,236.710 230.562 C 236.616 230.143,236.395 231.383,236.220 233.318 M235.460 242.340 C 235.288 245.057,235.231 247.364,235.333 247.467 C 235.589 247.723,236.119 239.639,235.927 238.400 C 235.842 237.850,235.631 239.623,235.460 242.340 M234.595 252.538 C 234.438 254.842,234.394 256.969,234.497 257.264 C 234.600 257.559,234.820 255.765,234.987 253.278 C 235.154 250.792,235.198 248.665,235.085 248.552 C 234.973 248.439,234.752 250.233,234.595 252.538 M233.900 261.959 C 233.735 263.366,233.625 265.976,233.656 267.759 L 233.713 271.000 234.062 266.600 C 234.479 261.349,234.363 258.013,233.900 261.959 M233.007 280.878 C 232.852 285.345,232.787 289.720,232.864 290.600 C 232.941 291.480,233.152 287.909,233.332 282.663 C 233.513 277.418,233.577 273.044,233.475 272.942 C 233.373 272.840,233.162 276.411,233.007 280.878 M319.800 276.000 C 318.920 276.642,318.062 277.175,317.894 277.184 C 317.500 277.205,313.200 280.055,313.200 280.295 C 313.200 280.529,316.353 278.697,319.352 276.719 C 322.131 274.887,321.972 274.863,323.820 277.400 C 325.528 279.743,325.517 279.360,323.800 276.694 C 322.396 274.513,321.946 274.435,319.800 276.000 M325.342 279.900 C 325.445 280.065,326.541 281.716,327.776 283.569 C 329.011 285.421,329.958 287.131,329.880 287.369 C 329.499 288.536,313.648 297.820,302.521 303.393 C 299.264 305.023,296.828 306.367,297.106 306.379 C 297.976 306.415,313.541 298.258,319.200 294.800 C 322.170 292.985,324.960 291.291,325.400 291.035 C 328.684 289.124,330.400 287.838,330.400 287.287 C 330.400 286.542,325.960 279.616,325.476 279.606 C 325.298 279.603,325.238 279.735,325.342 279.900 M310.000 281.964 C 309.450 282.371,307.065 283.745,304.700 285.019 C 302.336 286.292,300.480 287.414,300.577 287.511 C 300.765 287.699,309.655 282.857,311.000 281.834 C 311.440 281.499,311.620 281.225,311.400 281.225 C 311.180 281.225,310.550 281.558,310.000 281.964 M297.000 289.031 C 295.460 289.810,294.020 290.635,293.800 290.865 C 293.580 291.095,294.885 290.542,296.700 289.637 C 298.515 288.732,300.000 287.903,300.000 287.796 C 300.000 287.510,300.041 287.493,297.000 289.031 M290.000 292.400 C 288.790 293.039,287.980 293.557,288.200 293.550 C 288.895 293.530,293.429 291.262,292.800 291.250 C 292.470 291.243,291.210 291.761,290.000 292.400 M285.470 294.279 C 284.848 294.605,284.426 294.959,284.532 295.065 C 284.638 295.171,285.416 294.893,286.262 294.447 C 287.108 294.000,287.530 293.646,287.200 293.660 C 286.870 293.674,286.091 293.952,285.470 294.279 M232.486 301.313 C 232.389 309.779,232.273 309.483,235.439 308.841 L 237.400 308.444 235.200 308.522 L 233.000 308.600 232.786 301.200 L 232.573 293.800 232.486 301.313 M276.458 297.911 C 273.741 298.935,271.688 299.829,271.897 299.899 C 272.300 300.033,277.388 298.218,280.400 296.865 C 283.510 295.468,281.597 295.976,276.458 297.911 M269.600 300.400 C 269.067 300.745,269.067 300.788,269.600 300.788 C 269.930 300.788,270.470 300.613,270.800 300.400 C 271.333 300.055,271.333 300.012,270.800 300.012 C 270.470 300.012,269.930 300.187,269.600 300.400 M266.895 301.214 C 266.397 301.414,263.967 302.137,261.495 302.821 C 259.023 303.505,256.190 304.306,255.200 304.602 C 254.210 304.898,250.700 305.678,247.400 306.336 C 244.100 306.994,240.500 307.720,239.400 307.949 L 237.400 308.365 239.400 308.160 C 241.899 307.903,252.782 305.726,255.200 304.999 C 256.190 304.701,259.430 303.794,262.400 302.982 C 267.685 301.539,269.728 300.808,268.400 300.838 C 268.070 300.845,267.393 301.014,266.895 301.214 M292.400 308.004 C 285.848 310.945,283.747 311.739,273.800 315.034 C 268.960 316.637,265.246 317.960,265.546 317.974 C 265.847 317.988,266.927 317.732,267.946 317.405 C 276.612 314.622,279.159 313.764,283.000 312.333 C 285.420 311.432,288.120 310.377,289.000 309.989 C 289.880 309.600,291.770 308.798,293.200 308.204 C 295.641 307.192,297.065 306.348,296.180 306.439 C 295.971 306.461,294.270 307.165,292.400 308.004 M263.000 318.400 L 262.200 318.744 263.000 318.766 C 263.440 318.778,264.070 318.613,264.400 318.400 C 265.195 317.886,264.196 317.886,263.000 318.400 M259.800 319.200 L 259.000 319.544 259.800 319.566 C 260.240 319.578,260.870 319.413,261.200 319.200 C 261.995 318.686,260.996 318.686,259.800 319.200 M256.800 320.000 L 255.800 320.320 256.800 320.354 C 257.350 320.373,258.070 320.213,258.400 320.000 C 259.164 319.506,258.342 319.506,256.800 320.000 M251.200 321.126 C 249.550 321.476,248.474 321.821,248.809 321.893 C 249.144 321.965,250.854 321.677,252.609 321.253 C 256.453 320.325,255.417 320.231,251.200 321.126 M245.200 322.400 L 243.800 322.695 245.200 322.719 C 245.970 322.733,246.960 322.589,247.400 322.400 L 248.200 322.056 247.400 322.081 C 246.960 322.094,245.970 322.238,245.200 322.400 M240.400 323.200 L 239.000 323.495 240.400 323.507 C 241.170 323.515,242.250 323.376,242.800 323.200 L 243.800 322.880 242.800 322.893 C 242.250 322.900,241.170 323.038,240.400 323.200 M234.800 324.000 L 233.400 324.295 235.000 324.319 C 235.880 324.333,236.960 324.189,237.400 324.000 C 238.442 323.552,236.926 323.552,234.800 324.000 M232.845 332.833 C 232.869 335.565,233.028 339.510,233.197 341.600 C 233.391 344.004,233.429 342.241,233.300 336.800 C 233.188 332.070,233.030 328.125,232.948 328.033 C 232.867 327.942,232.820 330.102,232.845 332.833 M233.704 347.600 C 233.695 348.810,233.821 350.880,233.985 352.200 L 234.282 354.600 234.294 352.600 C 234.301 351.500,234.175 349.430,234.014 348.000 L 233.722 345.400 233.704 347.600 M234.399 356.900 C 234.397 358.512,235.736 368.798,235.923 368.610 C 236.127 368.407,234.768 356.000,234.542 356.000 C 234.464 356.000,234.399 356.405,234.399 356.900 M236.063 370.600 C 236.054 371.040,236.195 372.120,236.377 373.000 L 236.708 374.600 236.714 373.200 C 236.717 372.430,236.576 371.350,236.400 370.800 C 236.141 369.991,236.077 369.953,236.063 370.600 M236.868 375.400 C 236.862 375.840,237.011 376.560,237.200 377.000 C 237.638 378.019,237.638 376.968,237.200 375.600 C 236.943 374.796,236.877 374.757,236.868 375.400 M237.600 379.062 C 237.600 379.956,239.791 386.400,240.095 386.400 C 240.300 386.400,240.372 386.175,240.257 385.900 C 240.142 385.625,239.566 383.915,238.977 382.100 C 238.028 379.175,237.600 378.232,237.600 379.062 " stroke="none" fill="#3394fa" fill-rule="evenodd"></path><path id="path2" d="M215.334 13.909 C 215.078 14.072,214.204 15.464,213.393 17.003 C 212.582 18.541,211.685 20.070,211.399 20.400 C 211.114 20.730,210.525 21.630,210.090 22.400 C 209.654 23.170,208.672 24.880,207.907 26.200 C 207.142 27.520,205.501 30.400,204.261 32.600 C 203.020 34.800,201.824 36.870,201.602 37.200 C 201.380 37.530,201.008 38.250,200.775 38.800 C 200.259 40.021,197.816 44.943,196.110 48.200 C 194.788 50.723,189.600 61.565,189.600 61.805 C 189.600 61.881,189.076 63.082,188.435 64.472 C 187.794 65.862,186.615 68.620,185.815 70.600 C 185.015 72.580,184.200 74.560,184.004 75.000 C 182.383 78.636,181.200 81.626,181.200 82.087 C 181.200 82.391,181.040 82.811,180.843 83.020 C 180.647 83.229,179.726 85.560,178.795 88.200 C 177.865 90.840,176.874 93.540,176.593 94.200 C 176.312 94.860,175.338 97.650,174.428 100.400 C 173.518 103.150,172.605 105.760,172.399 106.200 C 172.193 106.640,171.593 108.530,171.064 110.400 C 170.536 112.270,169.290 116.590,168.295 120.000 C 165.621 129.172,163.999 135.294,164.000 136.220 C 164.000 136.671,163.849 137.211,163.664 137.420 C 163.480 137.629,163.105 138.880,162.831 140.200 C 162.557 141.520,161.903 144.490,161.377 146.800 C 159.867 153.438,157.146 167.788,156.372 173.200 C 156.136 174.850,155.774 177.280,155.568 178.600 C 154.782 183.638,154.334 187.131,154.005 190.800 C 153.817 192.890,153.473 196.310,153.239 198.400 C 152.162 208.035,151.135 226.857,151.656 227.400 C 151.905 227.659,164.164 227.832,186.489 227.890 C 205.437 227.939,221.094 228.134,221.284 228.324 C 221.477 228.517,221.437 230.590,221.194 233.034 C 220.955 235.435,220.597 239.650,220.399 242.400 C 220.201 245.150,219.831 249.920,219.576 253.000 C 218.959 260.457,218.619 267.706,217.811 290.600 C 217.439 301.160,217.064 310.025,216.979 310.300 C 216.796 310.895,197.106 310.971,191.800 310.397 C 190.040 310.207,186.440 309.856,183.800 309.617 C 172.314 308.578,146.948 303.308,140.651 300.653 C 139.799 300.294,138.828 300.000,138.493 300.000 C 137.996 300.000,125.228 295.520,121.584 294.067 C 115.272 291.550,114.943 291.409,110.000 289.110 C 101.241 285.037,91.181 279.751,87.241 277.152 C 83.585 274.741,83.632 274.739,81.978 277.300 C 81.231 278.455,79.491 280.998,78.110 282.952 C 76.730 284.905,75.600 286.733,75.600 287.014 C 75.600 287.520,79.069 290.223,80.339 290.707 C 80.703 290.845,82.170 291.659,83.600 292.516 C 85.030 293.372,86.470 294.232,86.800 294.427 C 87.130 294.622,88.210 295.195,89.200 295.701 C 90.190 296.207,92.440 297.359,94.200 298.260 C 95.960 299.162,97.985 300.124,98.700 300.398 C 99.415 300.673,100.000 301.055,100.000 301.249 C 100.000 301.442,100.250 301.600,100.555 301.600 C 100.860 301.600,102.831 302.410,104.935 303.400 C 107.040 304.390,108.848 305.200,108.953 305.200 C 109.058 305.200,110.282 305.720,111.672 306.355 C 113.062 306.990,114.650 307.635,115.200 307.787 C 115.750 307.939,116.830 308.350,117.600 308.700 C 119.457 309.544,124.947 311.555,127.200 312.217 C 128.190 312.508,129.990 313.102,131.200 313.537 C 139.089 316.375,154.021 320.099,167.419 322.570 C 178.073 324.535,199.158 326.182,210.600 325.942 L 217.400 325.800 217.665 331.000 C 218.361 344.658,218.916 353.077,219.458 358.200 C 220.718 370.106,221.004 372.279,222.162 378.800 C 222.494 380.670,222.828 382.924,222.903 383.809 C 223.131 386.482,222.854 386.400,231.624 386.400 C 236.011 386.400,239.600 386.291,239.600 386.158 C 239.600 386.025,239.172 384.450,238.649 382.658 C 234.579 368.721,230.865 324.857,233.700 324.210 C 234.195 324.097,236.580 323.724,239.000 323.382 C 253.569 321.320,277.011 314.898,287.800 310.014 C 288.240 309.814,290.580 308.808,293.000 307.778 C 304.735 302.780,329.284 289.195,329.880 287.370 C 330.004 286.988,328.088 283.878,323.676 277.300 C 322.340 275.309,321.516 274.765,321.030 275.552 C 320.910 275.746,319.054 276.958,316.906 278.246 C 314.758 279.534,312.910 280.681,312.800 280.794 C 312.580 281.020,312.294 281.188,306.902 284.256 C 292.850 292.251,275.474 299.492,261.000 303.384 C 258.800 303.976,256.190 304.703,255.200 305.000 C 250.661 306.362,233.504 309.435,232.816 309.010 C 231.940 308.469,232.892 276.042,234.372 256.000 C 236.179 231.509,236.403 229.644,238.629 220.468 C 239.607 216.435,240.305 212.970,240.180 212.768 C 240.045 212.548,225.341 212.400,203.764 212.400 C 173.086 212.400,167.542 212.315,167.360 211.839 C 167.170 211.344,167.587 205.944,168.800 193.200 C 168.999 191.110,169.352 188.140,169.585 186.600 C 169.817 185.060,170.194 182.360,170.421 180.600 C 171.509 172.176,174.775 154.865,177.176 144.800 C 179.054 136.926,181.776 126.612,182.402 125.000 C 182.572 124.560,182.924 123.390,183.184 122.400 C 183.851 119.858,188.308 105.801,189.209 103.400 C 189.621 102.300,191.156 98.160,192.620 94.200 C 195.881 85.379,196.471 83.836,197.365 81.800 C 197.751 80.920,198.487 79.210,199.001 78.000 C 199.514 76.790,200.309 74.947,200.767 73.904 C 201.225 72.862,201.600 71.933,201.600 71.840 C 201.600 71.747,202.253 70.260,203.052 68.536 C 203.851 66.811,205.213 63.870,206.080 62.000 C 208.808 56.113,211.788 50.205,212.100 50.067 C 212.265 49.993,212.400 49.624,212.400 49.247 C 212.400 48.869,212.557 48.389,212.748 48.180 C 212.939 47.971,213.863 46.360,214.801 44.600 C 219.667 35.470,225.777 25.098,226.426 24.867 C 226.632 24.793,226.800 24.575,226.800 24.382 C 226.800 24.189,227.790 22.381,229.000 20.364 C 230.210 18.348,231.200 16.563,231.200 16.398 C 231.200 16.233,231.470 15.874,231.800 15.600 C 232.130 15.326,232.400 14.764,232.400 14.351 C 232.400 13.564,216.523 13.152,215.334 13.909 M102.673 87.300 C 102.041 87.764,102.000 89.892,102.096 116.800 L 102.200 145.800 113.900 145.906 L 125.600 146.012 125.600 116.886 C 125.600 94.766,125.485 87.645,125.120 87.280 C 124.421 86.581,103.626 86.599,102.673 87.300 M284.500 87.107 L 275.200 87.214 275.200 116.607 L 275.200 146.000 286.800 146.000 L 298.400 146.000 298.400 116.637 L 298.400 87.274 296.100 87.137 C 294.835 87.062,289.615 87.048,284.500 87.107 " stroke="none" fill="#201f24" fill-rule="evenodd"></path></g></svg>