<svg id="svg" version="1.1" xmlns="http://www.w3.org/2000/svg" xmlns:xlink="http://www.w3.org/1999/xlink" width="400" height="200" viewBox="0, 0, 400,200"><g id="svgg"><path id="path0" d="M96.000 20.079 C 96.000 20.232,96.270 20.647,96.600 21.000 C 96.930 21.353,97.200 21.720,97.200 21.814 C 97.200 21.909,97.494 22.282,97.853 22.643 C 98.213 23.005,98.730 23.615,99.002 24.000 C 99.275 24.385,99.836 25.048,100.249 25.474 C 100.662 25.900,101.000 26.334,101.000 26.440 C 101.000 26.545,101.360 26.977,101.800 27.400 C 102.240 27.823,102.600 28.235,102.600 28.315 C 102.600 28.396,102.960 28.804,103.400 29.223 C 103.840 29.642,104.200 30.081,104.200 30.200 C 104.200 30.319,104.292 30.526,104.404 30.658 C 105.162 31.557,105.400 31.878,105.400 31.999 C 105.400 32.076,105.625 32.399,105.900 32.719 C 106.175 33.039,106.400 33.371,106.400 33.458 C 106.400 33.545,106.580 33.810,106.800 34.046 C 107.020 34.282,107.200 34.593,107.200 34.738 C 107.200 34.882,107.290 35.000,107.400 35.000 C 107.510 35.000,107.600 35.135,107.600 35.300 C 107.600 35.465,107.690 35.600,107.800 35.600 C 107.910 35.600,108.000 35.735,108.000 35.900 C 108.000 36.065,108.090 36.200,108.200 36.200 C 108.310 36.200,108.400 36.335,108.400 36.500 C 108.400 36.665,108.490 36.800,108.600 36.800 C 108.710 36.800,108.800 36.935,108.800 37.100 C 108.800 37.265,108.890 37.400,109.000 37.400 C 109.110 37.400,109.200 37.535,109.200 37.700 C 109.200 37.865,109.290 38.000,109.400 38.000 C 109.510 38.000,109.600 38.180,109.600 38.400 C 109.600 38.620,109.690 38.800,109.800 38.800 C 109.910 38.800,110.000 38.918,110.000 39.062 C 110.000 39.207,110.180 39.518,110.400 39.754 C 110.620 39.990,110.800 40.322,110.800 40.492 C 110.800 40.661,110.890 40.800,111.000 40.800 C 111.110 40.800,111.200 40.980,111.200 41.200 C 111.200 41.420,111.290 41.600,111.400 41.600 C 111.510 41.600,111.600 41.780,111.600 42.000 C 111.600 42.220,111.690 42.400,111.800 42.400 C 111.910 42.400,112.000 42.535,112.000 42.700 C 112.000 42.865,112.090 43.000,112.200 43.000 C 112.310 43.000,112.400 43.088,112.400 43.195 C 112.400 43.491,113.462 45.691,113.642 45.767 C 113.729 45.803,113.800 46.006,113.800 46.217 C 113.800 46.428,113.890 46.600,114.000 46.600 C 114.110 46.600,114.200 46.780,114.200 47.000 C 114.200 47.220,114.290 47.400,114.400 47.400 C 114.510 47.400,114.600 47.526,114.600 47.681 C 114.600 47.923,114.876 48.560,115.625 50.047 C 115.721 50.238,115.800 50.531,115.800 50.697 C 115.800 50.864,115.890 51.000,116.000 51.000 C 116.110 51.000,116.200 51.180,116.200 51.400 C 116.200 51.620,116.290 51.800,116.400 51.800 C 116.510 51.800,116.600 51.975,116.600 52.188 C 116.600 52.402,116.690 52.632,116.800 52.700 C 116.910 52.768,117.000 52.998,117.000 53.212 C 117.000 53.425,117.090 53.600,117.200 53.600 C 117.310 53.600,117.400 53.780,117.400 54.000 C 117.400 54.220,117.490 54.400,117.600 54.400 C 117.710 54.400,117.800 54.670,117.800 55.000 L 117.800 55.600 68.800 55.600 L 19.800 55.600 19.800 59.900 L 19.800 64.200 70.406 64.200 C 110.721 64.200,121.027 64.251,121.083 64.450 C 121.121 64.588,121.262 65.105,121.396 65.600 C 121.530 66.095,121.720 66.656,121.819 66.847 C 121.919 67.038,122.000 67.415,122.000 67.685 C 122.000 67.955,122.090 68.232,122.200 68.300 C 122.310 68.368,122.400 68.683,122.400 69.000 C 122.400 69.317,122.490 69.632,122.600 69.700 C 122.710 69.768,122.800 70.133,122.800 70.512 C 122.800 70.890,122.890 71.200,123.000 71.200 C 123.110 71.200,123.200 71.555,123.200 71.988 C 123.200 72.422,123.290 72.832,123.400 72.900 C 123.510 72.968,123.600 73.373,123.600 73.800 C 123.600 74.227,123.690 74.632,123.800 74.700 C 123.910 74.768,124.000 75.218,124.000 75.700 C 124.000 76.182,124.090 76.632,124.200 76.700 C 124.310 76.768,124.400 77.223,124.400 77.712 C 124.400 78.200,124.482 78.600,124.581 78.600 C 124.755 78.600,124.874 79.382,125.122 82.150 C 125.184 82.838,125.316 83.400,125.417 83.400 C 125.518 83.400,125.600 84.075,125.600 84.900 C 125.600 85.767,125.684 86.400,125.800 86.400 C 125.919 86.400,126.000 87.163,126.000 88.288 C 126.000 89.331,126.090 90.232,126.200 90.300 C 126.320 90.374,126.400 91.731,126.400 93.700 C 126.400 95.669,126.480 97.026,126.600 97.100 C 126.718 97.173,126.800 98.365,126.800 100.000 C 126.800 101.635,126.718 102.827,126.600 102.900 C 126.480 102.974,126.400 104.331,126.400 106.300 C 126.400 108.269,126.320 109.626,126.200 109.700 C 126.090 109.768,126.000 110.669,126.000 111.712 C 126.000 112.837,125.919 113.600,125.800 113.600 C 125.684 113.600,125.600 114.233,125.600 115.100 C 125.600 115.967,125.516 116.600,125.400 116.600 C 125.289 116.600,125.200 117.129,125.200 117.788 C 125.200 118.442,125.110 119.032,125.000 119.100 C 124.890 119.168,124.800 119.713,124.800 120.312 C 124.800 120.910,124.710 121.400,124.600 121.400 C 124.490 121.400,124.400 121.800,124.400 122.288 C 124.400 122.777,124.310 123.232,124.200 123.300 C 124.090 123.368,124.000 123.823,124.000 124.312 C 124.000 124.800,123.910 125.200,123.800 125.200 C 123.690 125.200,123.600 125.600,123.600 126.088 C 123.600 126.577,123.510 127.032,123.400 127.100 C 123.290 127.168,123.200 127.578,123.200 128.012 C 123.200 128.445,123.110 128.800,123.000 128.800 C 122.890 128.800,122.800 129.110,122.800 129.488 C 122.800 129.867,122.710 130.232,122.600 130.300 C 122.490 130.368,122.400 130.683,122.400 131.000 C 122.400 131.317,122.310 131.632,122.200 131.700 C 122.090 131.768,122.000 132.045,122.000 132.315 C 122.000 132.585,121.919 132.962,121.819 133.153 C 121.720 133.344,121.530 133.905,121.396 134.400 C 121.262 134.895,121.121 135.412,121.083 135.550 C 121.027 135.749,110.721 135.800,70.406 135.800 L 19.800 135.800 19.800 140.100 L 19.800 144.400 68.800 144.400 L 117.800 144.400 117.800 145.000 C 117.800 145.330,117.710 145.600,117.600 145.600 C 117.490 145.600,117.400 145.780,117.400 146.000 C 117.400 146.220,117.310 146.400,117.200 146.400 C 117.090 146.400,117.000 146.580,117.000 146.800 C 117.000 147.020,116.910 147.200,116.800 147.200 C 116.690 147.200,116.600 147.425,116.600 147.700 C 116.600 147.975,116.510 148.200,116.400 148.200 C 116.290 148.200,116.200 148.380,116.200 148.600 C 116.200 148.820,116.110 149.000,116.000 149.000 C 115.890 149.000,115.800 149.136,115.800 149.303 C 115.800 149.469,115.721 149.762,115.625 149.953 C 114.876 151.440,114.600 152.077,114.600 152.319 C 114.600 152.474,114.510 152.600,114.400 152.600 C 114.290 152.600,114.200 152.780,114.200 153.000 C 114.200 153.220,114.110 153.400,114.000 153.400 C 113.890 153.400,113.800 153.572,113.800 153.783 C 113.800 153.994,113.729 154.197,113.642 154.233 C 113.462 154.309,112.400 156.509,112.400 156.805 C 112.400 156.912,112.310 157.000,112.200 157.000 C 112.090 157.000,112.000 157.135,112.000 157.300 C 112.000 157.465,111.910 157.600,111.800 157.600 C 111.690 157.600,111.600 157.780,111.600 158.000 C 111.600 158.220,111.510 158.400,111.400 158.400 C 111.290 158.400,111.200 158.580,111.200 158.800 C 111.200 159.020,111.110 159.200,111.000 159.200 C 110.890 159.200,110.800 159.339,110.800 159.508 C 110.800 159.678,110.620 160.010,110.400 160.246 C 110.180 160.482,110.000 160.793,110.000 160.938 C 110.000 161.082,109.910 161.200,109.800 161.200 C 109.690 161.200,109.600 161.380,109.600 161.600 C 109.600 161.820,109.510 162.000,109.400 162.000 C 109.290 162.000,109.200 162.135,109.200 162.300 C 109.200 162.465,109.110 162.600,109.000 162.600 C 108.890 162.600,108.800 162.735,108.800 162.900 C 108.800 163.065,108.710 163.200,108.600 163.200 C 108.490 163.200,108.400 163.335,108.400 163.500 C 108.400 163.665,108.310 163.800,108.200 163.800 C 108.090 163.800,108.000 163.935,108.000 164.100 C 108.000 164.265,107.910 164.400,107.800 164.400 C 107.690 164.400,107.600 164.535,107.600 164.700 C 107.600 164.865,107.510 165.000,107.400 165.000 C 107.290 165.000,107.200 165.118,107.200 165.262 C 107.200 165.407,107.020 165.718,106.800 165.954 C 106.580 166.190,106.400 166.455,106.400 166.542 C 106.400 166.629,106.175 166.961,105.900 167.281 C 105.625 167.601,105.400 167.924,105.400 168.001 C 105.400 168.122,105.162 168.443,104.404 169.342 C 104.292 169.474,104.200 169.684,104.200 169.807 C 104.200 169.931,103.840 170.377,103.400 170.800 C 102.960 171.223,102.600 171.628,102.600 171.700 C 102.600 171.772,102.240 172.177,101.800 172.600 C 101.360 173.023,101.000 173.457,101.000 173.564 C 101.000 173.672,100.550 174.219,100.000 174.781 C 99.450 175.342,99.000 175.877,99.000 175.969 C 99.000 176.061,98.595 176.565,98.100 177.089 C 97.605 177.613,97.200 178.113,97.200 178.200 C 97.200 178.287,96.930 178.647,96.600 179.000 C 96.270 179.353,96.000 179.768,96.000 179.921 C 96.000 180.159,102.057 180.200,136.900 180.200 C 164.033 180.200,177.800 180.133,177.800 180.000 C 177.800 179.877,178.800 179.800,180.400 179.800 C 182.000 179.800,183.000 179.723,183.000 179.600 C 183.000 179.487,183.628 179.392,184.450 179.383 C 186.102 179.363,188.692 179.116,190.600 178.797 C 191.315 178.678,192.395 178.532,193.000 178.472 C 193.605 178.413,194.186 178.283,194.290 178.182 C 194.395 178.082,194.867 178.000,195.340 178.000 C 195.813 178.000,196.200 177.910,196.200 177.800 C 196.200 177.690,196.645 177.600,197.188 177.600 C 197.732 177.600,198.232 177.510,198.300 177.400 C 198.368 177.290,198.773 177.200,199.200 177.200 C 199.627 177.200,200.032 177.110,200.100 177.000 C 200.168 176.890,200.528 176.800,200.900 176.800 C 201.272 176.800,201.632 176.710,201.700 176.600 C 201.768 176.490,202.128 176.400,202.500 176.400 C 202.872 176.400,203.232 176.310,203.300 176.200 C 203.368 176.090,203.733 176.000,204.112 176.000 C 204.490 176.000,204.800 175.910,204.800 175.800 C 204.800 175.690,205.110 175.600,205.488 175.600 C 205.867 175.600,206.232 175.510,206.300 175.400 C 206.368 175.290,206.688 175.200,207.012 175.200 C 207.335 175.200,207.600 175.110,207.600 175.000 C 207.600 174.890,207.865 174.800,208.188 174.800 C 208.512 174.800,208.832 174.710,208.900 174.600 C 208.968 174.490,209.283 174.400,209.600 174.400 C 209.917 174.400,210.232 174.310,210.300 174.200 C 210.368 174.090,210.638 174.000,210.900 174.000 C 211.162 174.000,211.432 173.910,211.500 173.800 C 211.568 173.690,211.843 173.600,212.112 173.600 C 212.380 173.600,212.600 173.510,212.600 173.400 C 212.600 173.290,212.870 173.200,213.200 173.200 C 213.530 173.200,213.800 173.110,213.800 173.000 C 213.800 172.890,214.070 172.800,214.400 172.800 C 214.730 172.800,215.000 172.710,215.000 172.600 C 215.000 172.490,215.180 172.400,215.400 172.400 C 215.620 172.400,215.800 172.310,215.800 172.200 C 215.800 172.090,216.070 172.000,216.400 172.000 C 216.730 172.000,217.000 171.910,217.000 171.800 C 217.000 171.690,217.175 171.600,217.388 171.600 C 217.602 171.600,217.832 171.510,217.900 171.400 C 217.968 171.290,218.243 171.200,218.512 171.200 C 218.780 171.200,219.000 171.110,219.000 171.000 C 219.000 170.890,219.203 170.799,219.450 170.799 C 219.697 170.798,220.158 170.663,220.473 170.499 C 220.788 170.334,221.170 170.200,221.323 170.200 C 221.475 170.200,221.600 170.110,221.600 170.000 C 221.600 169.890,221.739 169.800,221.910 169.800 C 222.080 169.800,222.592 169.620,223.047 169.400 C 223.503 169.180,223.993 169.000,224.138 169.000 C 224.282 169.000,224.400 168.910,224.400 168.800 C 224.400 168.690,224.580 168.600,224.800 168.600 C 225.020 168.600,225.200 168.510,225.200 168.400 C 225.200 168.290,225.380 168.200,225.600 168.200 C 225.820 168.200,226.000 168.110,226.000 168.000 C 226.000 167.890,226.180 167.800,226.400 167.800 C 226.620 167.800,226.800 167.710,226.800 167.600 C 226.800 167.490,226.980 167.400,227.200 167.400 C 227.420 167.400,227.600 167.310,227.600 167.200 C 227.600 167.090,227.780 167.000,228.000 167.000 C 228.220 167.000,228.400 166.910,228.400 166.800 C 228.400 166.690,228.580 166.600,228.800 166.600 C 229.020 166.600,229.200 166.510,229.200 166.400 C 229.200 166.290,229.335 166.200,229.500 166.200 C 229.665 166.200,229.800 166.110,229.800 166.000 C 229.800 165.890,229.980 165.800,230.200 165.800 C 230.420 165.800,230.600 165.710,230.600 165.600 C 230.600 165.490,230.780 165.400,231.000 165.400 C 231.220 165.400,231.400 165.310,231.400 165.200 C 231.400 165.090,231.580 165.000,231.800 165.000 C 232.020 165.000,232.200 164.910,232.200 164.800 C 232.200 164.690,232.380 164.600,232.600 164.600 C 232.820 164.600,233.000 164.510,233.000 164.400 C 233.000 164.290,233.118 164.200,233.262 164.200 C 233.407 164.200,233.718 164.020,233.954 163.800 C 234.190 163.580,234.515 163.400,234.675 163.400 C 234.835 163.400,234.997 163.330,235.033 163.244 C 235.070 163.158,235.615 162.829,236.244 162.514 C 236.874 162.198,237.567 161.774,237.786 161.570 C 238.004 161.367,238.322 161.200,238.492 161.200 C 238.661 161.200,238.800 161.121,238.800 161.024 C 238.800 160.928,239.070 160.737,239.400 160.600 C 239.730 160.463,240.000 160.272,240.000 160.176 C 240.000 160.079,240.118 160.000,240.262 160.000 C 240.407 160.000,240.699 159.842,240.912 159.650 C 241.126 159.458,241.548 159.172,241.850 159.016 C 242.153 158.860,242.400 158.658,242.400 158.566 C 242.400 158.475,242.522 158.400,242.670 158.400 C 242.819 158.400,243.223 158.130,243.569 157.800 C 243.914 157.470,244.312 157.200,244.454 157.200 C 244.596 157.200,244.841 157.020,245.000 156.800 C 245.159 156.580,245.367 156.400,245.464 156.400 C 245.560 156.400,245.892 156.130,246.200 155.800 C 246.508 155.470,246.871 155.200,247.007 155.200 C 247.142 155.200,247.399 155.033,247.577 154.830 C 247.754 154.626,248.170 154.319,248.500 154.147 C 248.830 153.975,249.280 153.666,249.500 153.462 C 249.720 153.257,250.215 152.870,250.600 152.602 C 250.985 152.335,251.539 151.864,251.830 151.558 C 252.122 151.251,252.419 151.000,252.491 151.000 C 252.563 151.000,252.909 150.730,253.261 150.401 C 253.612 150.071,253.961 149.801,254.037 149.801 C 254.112 149.800,254.226 149.634,254.290 149.432 C 254.354 149.230,254.651 148.937,254.949 148.782 C 255.248 148.627,256.140 147.870,256.932 147.100 C 257.723 146.330,258.884 145.250,259.511 144.700 C 261.307 143.125,263.263 141.164,263.803 140.400 C 264.074 140.015,265.197 138.794,266.298 137.688 C 268.654 135.319,270.153 133.634,270.587 132.865 C 270.759 132.561,271.238 131.979,271.650 131.572 C 272.063 131.164,272.400 130.727,272.400 130.600 C 272.400 130.473,272.760 130.023,273.200 129.600 C 273.640 129.177,274.000 128.767,274.000 128.689 C 274.000 128.611,274.162 128.401,274.359 128.223 C 274.557 128.046,274.935 127.585,275.200 127.200 C 275.465 126.815,275.843 126.354,276.041 126.177 C 276.238 125.999,276.400 125.764,276.400 125.656 C 276.400 125.548,276.670 125.177,277.000 124.831 C 277.330 124.486,277.600 124.109,277.600 123.993 C 277.600 123.877,277.825 123.557,278.100 123.282 C 278.375 123.007,278.600 122.710,278.600 122.622 C 278.600 122.533,278.780 122.254,279.000 122.000 C 279.220 121.746,279.400 121.422,279.400 121.278 C 279.400 121.135,279.603 120.805,279.850 120.544 C 280.577 119.778,281.000 119.209,281.000 118.998 C 281.000 118.889,281.090 118.800,281.200 118.800 C 281.310 118.800,281.400 118.665,281.400 118.500 C 281.400 118.335,281.490 118.200,281.600 118.200 C 281.710 118.200,281.800 118.065,281.800 117.900 C 281.800 117.735,281.890 117.600,282.000 117.600 C 282.110 117.600,282.200 117.465,282.200 117.300 C 282.200 117.135,282.290 117.000,282.400 117.000 C 282.510 117.000,282.600 116.882,282.600 116.738 C 282.600 116.593,282.780 116.282,283.000 116.046 C 283.220 115.810,283.400 115.498,283.400 115.353 C 283.400 115.207,283.580 114.959,283.800 114.800 C 284.020 114.641,284.200 114.393,284.200 114.247 C 284.200 114.102,284.380 113.790,284.600 113.554 C 284.820 113.318,285.000 113.007,285.000 112.862 C 285.000 112.718,285.090 112.600,285.200 112.600 C 285.310 112.600,285.400 112.482,285.400 112.338 C 285.400 112.193,285.558 111.901,285.750 111.688 C 285.943 111.474,286.235 111.030,286.400 110.700 C 286.565 110.370,286.903 109.795,287.150 109.422 C 287.398 109.049,287.600 108.618,287.600 108.464 C 287.600 108.309,287.780 107.990,288.000 107.754 C 288.220 107.518,288.400 107.207,288.400 107.062 C 288.400 106.918,288.490 106.800,288.600 106.800 C 288.710 106.800,288.800 106.620,288.800 106.400 C 288.800 106.180,288.890 106.000,289.000 106.000 C 289.110 106.000,289.200 105.820,289.200 105.600 C 289.200 105.380,289.290 105.200,289.400 105.200 C 289.510 105.200,289.600 105.020,289.600 104.800 C 289.600 104.401,289.733 104.400,334.900 104.400 L 380.200 104.400 380.200 100.000 L 380.200 95.600 334.900 95.600 C 289.733 95.600,289.600 95.599,289.600 95.200 C 289.600 94.980,289.510 94.800,289.400 94.800 C 289.290 94.800,289.200 94.620,289.200 94.400 C 289.200 94.180,289.110 94.000,289.000 94.000 C 288.890 94.000,288.800 93.820,288.800 93.600 C 288.800 93.380,288.710 93.200,288.600 93.200 C 288.490 93.200,288.400 93.082,288.400 92.938 C 288.400 92.793,288.220 92.482,288.000 92.246 C 287.780 92.010,287.600 91.691,287.600 91.536 C 287.600 91.382,287.375 90.924,287.100 90.519 C 286.825 90.114,286.600 89.735,286.600 89.677 C 286.600 89.619,286.330 89.180,286.000 88.700 C 285.670 88.220,285.400 87.732,285.400 87.614 C 285.400 87.496,285.310 87.400,285.200 87.400 C 285.090 87.400,285.000 87.282,285.000 87.138 C 285.000 86.993,284.820 86.682,284.600 86.446 C 284.380 86.210,284.200 85.898,284.200 85.753 C 284.200 85.607,284.020 85.359,283.800 85.200 C 283.580 85.041,283.400 84.752,283.400 84.556 C 283.400 84.360,283.325 84.200,283.234 84.200 C 283.142 84.200,282.940 83.953,282.784 83.650 C 282.628 83.348,282.343 82.926,282.150 82.712 C 281.957 82.499,281.800 82.207,281.800 82.062 C 281.800 81.918,281.725 81.800,281.634 81.800 C 281.542 81.800,281.340 81.554,281.184 81.253 C 280.865 80.638,280.510 80.167,279.850 79.484 C 279.603 79.228,279.400 78.893,279.400 78.740 C 279.400 78.587,279.220 78.254,279.000 78.000 C 278.780 77.746,278.600 77.467,278.600 77.378 C 278.600 77.290,278.375 76.993,278.100 76.718 C 277.825 76.443,277.600 76.137,277.600 76.039 C 277.600 75.940,277.330 75.577,277.000 75.231 C 276.670 74.886,276.400 74.526,276.400 74.431 C 276.400 74.337,276.130 73.977,275.800 73.631 C 275.470 73.286,275.200 72.924,275.200 72.826 C 275.200 72.728,274.840 72.277,274.400 71.824 C 273.960 71.370,273.600 70.948,273.600 70.884 C 273.600 70.821,273.240 70.423,272.800 70.000 C 272.360 69.577,272.000 69.131,272.000 69.009 C 272.000 68.887,271.707 68.480,271.350 68.104 C 270.534 67.248,270.328 66.993,270.054 66.504 C 269.798 66.046,268.005 64.102,264.800 60.805 C 263.535 59.505,261.864 57.779,261.087 56.970 C 259.386 55.199,257.853 53.800,257.615 53.800 C 257.519 53.800,256.761 53.148,255.929 52.350 C 253.602 50.118,252.942 49.528,252.192 49.003 C 251.811 48.737,251.365 48.375,251.200 48.200 C 251.035 48.025,250.585 47.663,250.200 47.396 C 249.815 47.130,249.276 46.706,249.002 46.456 C 248.728 46.205,248.404 46.000,248.282 46.000 C 248.159 46.000,247.777 45.730,247.431 45.400 C 247.086 45.070,246.688 44.800,246.546 44.800 C 246.404 44.800,246.159 44.620,246.000 44.400 C 245.841 44.180,245.641 44.000,245.554 44.000 C 245.467 44.000,245.114 43.730,244.769 43.400 C 244.423 43.070,244.039 42.800,243.914 42.800 C 243.790 42.800,243.559 42.620,243.400 42.400 C 243.241 42.180,242.971 42.000,242.800 42.000 C 242.629 42.000,242.359 41.820,242.200 41.600 C 242.041 41.380,241.771 41.200,241.600 41.200 C 241.429 41.200,241.159 41.020,241.000 40.800 C 240.841 40.580,240.593 40.400,240.447 40.400 C 240.302 40.400,239.990 40.220,239.754 40.000 C 239.518 39.780,239.207 39.600,239.062 39.600 C 238.918 39.600,238.800 39.510,238.800 39.400 C 238.800 39.290,238.661 39.200,238.492 39.200 C 238.322 39.200,238.005 39.034,237.787 38.831 C 237.569 38.628,236.875 38.200,236.245 37.881 C 235.615 37.561,235.070 37.233,235.033 37.150 C 234.997 37.068,234.794 37.000,234.583 37.000 C 234.373 37.000,234.200 36.910,234.200 36.800 C 234.200 36.690,234.065 36.600,233.900 36.600 C 233.735 36.600,233.600 36.510,233.600 36.400 C 233.600 36.290,233.465 36.200,233.300 36.200 C 233.135 36.200,233.000 36.110,233.000 36.000 C 233.000 35.890,232.820 35.800,232.600 35.800 C 232.380 35.800,232.200 35.710,232.200 35.600 C 232.200 35.490,232.020 35.400,231.800 35.400 C 231.580 35.400,231.400 35.310,231.400 35.200 C 231.400 35.090,231.220 35.000,231.000 35.000 C 230.780 35.000,230.600 34.910,230.600 34.800 C 230.600 34.690,230.420 34.600,230.200 34.600 C 229.980 34.600,229.800 34.527,229.800 34.437 C 229.800 34.348,229.485 34.151,229.100 34.000 C 228.715 33.849,228.400 33.652,228.400 33.563 C 228.400 33.473,228.220 33.400,228.000 33.400 C 227.780 33.400,227.600 33.310,227.600 33.200 C 227.600 33.090,227.420 33.000,227.200 33.000 C 226.980 33.000,226.800 32.910,226.800 32.800 C 226.800 32.690,226.620 32.600,226.400 32.600 C 226.180 32.600,226.000 32.510,226.000 32.400 C 226.000 32.290,225.820 32.200,225.600 32.200 C 225.380 32.200,225.200 32.110,225.200 32.000 C 225.200 31.890,225.020 31.800,224.800 31.800 C 224.580 31.800,224.400 31.710,224.400 31.600 C 224.400 31.490,224.225 31.400,224.012 31.400 C 223.798 31.400,223.568 31.310,223.500 31.200 C 223.432 31.090,223.157 31.000,222.888 31.000 C 222.620 31.000,222.400 30.910,222.400 30.800 C 222.400 30.690,222.220 30.600,222.000 30.600 C 221.780 30.600,221.600 30.510,221.600 30.400 C 221.600 30.290,221.464 30.200,221.297 30.200 C 221.131 30.200,220.838 30.118,220.647 30.017 C 219.714 29.524,218.789 29.200,218.320 29.200 C 218.034 29.200,217.800 29.110,217.800 29.000 C 217.800 28.890,217.620 28.800,217.400 28.800 C 217.180 28.800,217.000 28.710,217.000 28.600 C 217.000 28.490,216.730 28.400,216.400 28.400 C 216.070 28.400,215.800 28.310,215.800 28.200 C 215.800 28.090,215.620 28.000,215.400 28.000 C 215.180 28.000,215.000 27.910,215.000 27.800 C 215.000 27.690,214.730 27.600,214.400 27.600 C 214.070 27.600,213.800 27.510,213.800 27.400 C 213.800 27.290,213.530 27.200,213.200 27.200 C 212.870 27.200,212.600 27.110,212.600 27.000 C 212.600 26.890,212.380 26.800,212.112 26.800 C 211.843 26.800,211.568 26.710,211.500 26.600 C 211.432 26.490,211.157 26.400,210.888 26.400 C 210.620 26.400,210.400 26.310,210.400 26.200 C 210.400 26.090,210.135 26.000,209.812 26.000 C 209.488 26.000,209.168 25.910,209.100 25.800 C 209.032 25.690,208.667 25.600,208.288 25.600 C 207.910 25.600,207.600 25.510,207.600 25.400 C 207.600 25.290,207.330 25.200,207.000 25.200 C 206.670 25.200,206.400 25.110,206.400 25.000 C 206.400 24.890,206.090 24.800,205.712 24.800 C 205.333 24.800,204.968 24.710,204.900 24.600 C 204.832 24.490,204.512 24.400,204.188 24.400 C 203.865 24.400,203.600 24.310,203.600 24.200 C 203.600 24.090,203.290 24.000,202.912 24.000 C 202.533 24.000,202.168 23.910,202.100 23.800 C 202.032 23.690,201.672 23.600,201.300 23.600 C 200.928 23.600,200.568 23.510,200.500 23.400 C 200.432 23.290,200.027 23.200,199.600 23.200 C 199.173 23.200,198.768 23.110,198.700 23.000 C 198.632 22.890,198.227 22.800,197.800 22.800 C 197.373 22.800,196.968 22.710,196.900 22.600 C 196.832 22.490,196.377 22.400,195.888 22.400 C 195.400 22.400,195.000 22.310,195.000 22.200 C 195.000 22.090,194.568 22.000,194.040 22.000 C 193.512 22.000,192.995 21.918,192.890 21.818 C 192.786 21.719,192.250 21.588,191.700 21.527 C 188.873 21.218,187.175 21.006,186.000 20.814 C 185.285 20.698,183.958 20.602,183.050 20.602 C 182.084 20.601,181.400 20.517,181.400 20.400 C 181.400 20.278,180.467 20.200,179.000 20.200 C 177.533 20.200,176.600 20.122,176.600 20.000 C 176.600 19.867,163.033 19.800,136.300 19.800 C 101.970 19.800,96.000 19.841,96.000 20.079 M170.200 32.400 C 170.200 32.527,171.833 32.600,174.700 32.600 C 177.567 32.600,179.200 32.673,179.200 32.800 C 179.200 32.919,179.963 33.000,181.088 33.000 C 182.131 33.000,183.032 33.090,183.100 33.200 C 183.168 33.310,183.888 33.400,184.700 33.400 C 185.512 33.400,186.232 33.490,186.300 33.600 C 186.368 33.710,186.953 33.800,187.600 33.800 C 188.247 33.800,188.832 33.890,188.900 34.000 C 188.968 34.110,189.508 34.200,190.100 34.200 C 190.692 34.200,191.232 34.290,191.300 34.400 C 191.368 34.510,191.818 34.600,192.300 34.600 C 192.782 34.600,193.232 34.690,193.300 34.800 C 193.368 34.910,193.823 35.000,194.312 35.000 C 194.800 35.000,195.200 35.090,195.200 35.200 C 195.200 35.310,195.555 35.400,195.988 35.400 C 196.422 35.400,196.832 35.490,196.900 35.600 C 196.968 35.710,197.378 35.800,197.812 35.800 C 198.245 35.800,198.600 35.890,198.600 36.000 C 198.600 36.110,198.910 36.200,199.288 36.200 C 199.667 36.200,200.026 36.280,200.086 36.378 C 200.147 36.476,200.490 36.606,200.848 36.668 C 202.399 36.936,202.912 37.060,203.105 37.212 C 203.218 37.301,203.780 37.437,204.355 37.513 C 204.930 37.589,205.400 37.730,205.400 37.826 C 205.400 37.922,205.625 38.000,205.900 38.000 C 206.175 38.000,206.400 38.090,206.400 38.200 C 206.400 38.310,206.670 38.400,207.000 38.400 C 207.330 38.400,207.600 38.490,207.600 38.600 C 207.600 38.710,207.870 38.800,208.200 38.800 C 208.530 38.800,208.800 38.890,208.800 39.000 C 208.800 39.110,209.070 39.200,209.400 39.200 C 209.730 39.200,210.000 39.290,210.000 39.400 C 210.000 39.510,210.175 39.600,210.388 39.600 C 210.602 39.600,210.832 39.690,210.900 39.800 C 210.968 39.910,211.243 40.000,211.512 40.000 C 211.780 40.000,212.000 40.090,212.000 40.200 C 212.000 40.310,212.225 40.400,212.500 40.400 C 212.775 40.400,213.000 40.490,213.000 40.600 C 213.000 40.710,213.180 40.800,213.400 40.800 C 213.620 40.800,213.800 40.890,213.800 41.000 C 213.800 41.110,213.975 41.200,214.188 41.200 C 214.402 41.200,214.632 41.290,214.700 41.400 C 214.768 41.510,215.043 41.600,215.312 41.600 C 215.580 41.600,215.800 41.690,215.800 41.800 C 215.800 41.910,215.980 42.000,216.200 42.000 C 216.420 42.000,216.600 42.090,216.600 42.200 C 216.600 42.310,216.780 42.400,217.000 42.400 C 217.220 42.400,217.400 42.490,217.400 42.600 C 217.400 42.710,217.515 42.800,217.655 42.800 C 217.795 42.800,218.448 43.067,219.105 43.394 C 219.762 43.720,220.457 43.990,220.650 43.994 C 220.843 43.997,221.000 44.080,221.000 44.177 C 221.000 44.274,221.157 44.405,221.350 44.468 C 221.543 44.531,222.150 44.853,222.700 45.183 C 223.250 45.513,223.857 45.787,224.050 45.792 C 224.243 45.796,224.400 45.890,224.400 46.000 C 224.400 46.110,224.580 46.200,224.800 46.200 C 225.020 46.200,225.200 46.290,225.200 46.400 C 225.200 46.510,225.360 46.600,225.556 46.600 C 225.752 46.600,226.041 46.780,226.200 47.000 C 226.359 47.220,226.648 47.400,226.844 47.400 C 227.040 47.400,227.200 47.490,227.200 47.600 C 227.200 47.710,227.339 47.800,227.508 47.800 C 227.678 47.800,228.010 47.980,228.246 48.200 C 228.482 48.420,228.793 48.600,228.938 48.600 C 229.082 48.600,229.200 48.690,229.200 48.800 C 229.200 48.910,229.335 49.000,229.500 49.000 C 229.665 49.000,229.800 49.090,229.800 49.200 C 229.800 49.310,229.935 49.400,230.100 49.400 C 230.265 49.400,230.400 49.490,230.400 49.600 C 230.400 49.710,230.535 49.800,230.700 49.800 C 230.865 49.800,231.000 49.890,231.000 50.000 C 231.000 50.110,231.135 50.200,231.300 50.200 C 231.465 50.200,231.600 50.290,231.600 50.400 C 231.600 50.510,231.735 50.600,231.900 50.600 C 232.065 50.600,232.200 50.690,232.200 50.800 C 232.200 50.910,232.313 51.000,232.450 51.000 C 232.588 51.000,232.961 51.225,233.281 51.500 C 233.601 51.775,233.924 52.000,234.000 52.000 C 234.076 52.000,234.399 52.225,234.719 52.500 C 235.039 52.775,235.413 53.000,235.550 53.000 C 235.688 53.000,235.800 53.067,235.800 53.150 C 235.801 53.233,236.228 53.566,236.750 53.891 C 237.273 54.217,237.846 54.644,238.023 54.841 C 238.201 55.039,238.405 55.200,238.475 55.200 C 238.546 55.200,238.886 55.470,239.231 55.800 C 239.577 56.130,239.936 56.400,240.029 56.400 C 240.123 56.400,240.570 56.760,241.024 57.200 C 241.477 57.640,241.934 58.000,242.040 58.000 C 242.145 58.000,242.562 58.340,242.966 58.756 C 243.370 59.172,244.009 59.731,244.388 59.997 C 244.766 60.263,245.576 60.980,246.188 61.591 C 246.799 62.202,247.696 63.016,248.180 63.401 C 249.251 64.252,252.332 67.328,253.700 68.911 C 254.250 69.547,255.308 70.687,256.050 71.444 C 256.793 72.201,257.400 72.903,257.400 73.005 C 257.400 73.108,257.895 73.686,258.500 74.291 C 259.105 74.896,259.600 75.472,259.600 75.572 C 259.600 75.671,259.960 76.123,260.400 76.576 C 260.840 77.030,261.200 77.452,261.200 77.515 C 261.200 77.577,261.313 77.747,261.450 77.892 C 261.769 78.228,262.151 78.707,262.893 79.704 C 263.219 80.142,263.601 80.619,263.743 80.764 C 263.884 80.910,264.000 81.108,264.000 81.205 C 264.000 81.302,264.225 81.607,264.500 81.882 C 264.775 82.157,265.000 82.463,265.000 82.561 C 265.000 82.660,265.270 83.023,265.600 83.369 C 265.930 83.714,266.200 84.088,266.200 84.200 C 266.200 84.312,266.470 84.686,266.800 85.031 C 267.130 85.377,267.400 85.761,267.400 85.886 C 267.400 86.010,267.580 86.241,267.800 86.400 C 268.020 86.559,268.200 86.803,268.200 86.942 C 268.200 87.082,268.380 87.309,268.600 87.446 C 268.820 87.584,269.000 87.835,269.000 88.004 C 269.000 88.173,269.180 88.441,269.400 88.600 C 269.620 88.759,269.800 89.029,269.800 89.200 C 269.800 89.371,269.980 89.641,270.200 89.800 C 270.420 89.959,270.600 90.248,270.600 90.444 C 270.600 90.640,270.668 90.800,270.750 90.800 C 270.832 90.801,271.163 91.341,271.485 92.000 C 271.807 92.660,272.144 93.200,272.235 93.200 C 272.326 93.200,272.400 93.318,272.400 93.462 C 272.400 93.607,272.558 93.899,272.750 94.112 C 272.943 94.326,273.234 94.770,273.399 95.100 C 273.563 95.430,273.855 95.846,274.049 96.023 C 274.242 96.201,274.400 96.494,274.400 96.673 C 274.400 96.853,274.490 97.000,274.600 97.000 C 274.710 97.000,274.800 97.180,274.800 97.400 C 274.800 97.620,274.879 97.800,274.976 97.800 C 275.072 97.800,275.263 98.070,275.400 98.400 C 275.537 98.730,275.728 99.000,275.824 99.000 C 275.921 99.000,276.000 99.173,276.000 99.383 C 276.000 99.594,276.113 99.819,276.250 99.883 C 276.450 99.977,276.450 100.023,276.250 100.117 C 276.113 100.181,276.000 100.406,276.000 100.617 C 276.000 100.828,275.921 101.000,275.824 101.000 C 275.728 101.000,275.537 101.270,275.400 101.600 C 275.263 101.930,275.072 102.200,274.976 102.200 C 274.879 102.200,274.800 102.380,274.800 102.600 C 274.800 102.820,274.710 103.000,274.600 103.000 C 274.490 103.000,274.400 103.147,274.400 103.327 C 274.400 103.506,274.242 103.799,274.049 103.977 C 273.855 104.154,273.563 104.570,273.399 104.900 C 273.234 105.230,272.943 105.674,272.750 105.888 C 272.558 106.101,272.400 106.393,272.400 106.538 C 272.400 106.682,272.332 106.800,272.250 106.801 C 272.168 106.801,271.830 107.319,271.500 107.951 C 271.170 108.583,270.855 109.145,270.800 109.200 C 270.745 109.255,270.572 109.547,270.416 109.850 C 270.260 110.153,270.058 110.400,269.966 110.400 C 269.875 110.400,269.800 110.560,269.800 110.756 C 269.800 110.952,269.620 111.241,269.400 111.400 C 269.180 111.559,269.000 111.802,269.000 111.941 C 269.000 112.080,268.776 112.442,268.501 112.747 C 267.479 113.881,267.000 114.506,267.000 114.706 C 267.000 114.819,266.820 115.041,266.600 115.200 C 266.380 115.359,266.200 115.581,266.200 115.694 C 266.199 115.807,265.929 116.215,265.600 116.600 C 265.271 116.985,265.001 117.368,265.000 117.452 C 265.000 117.535,264.730 117.886,264.400 118.231 C 264.070 118.577,263.800 118.940,263.800 119.039 C 263.800 119.137,263.575 119.443,263.300 119.718 C 263.025 119.993,262.800 120.291,262.800 120.379 C 262.800 120.468,262.552 120.802,262.248 121.120 C 261.944 121.439,261.472 122.015,261.199 122.400 C 260.926 122.785,260.364 123.448,259.951 123.874 C 259.538 124.300,259.200 124.733,259.200 124.837 C 259.200 124.941,258.770 125.448,258.244 125.963 C 257.719 126.478,257.068 127.215,256.798 127.600 C 256.180 128.480,245.664 139.000,245.402 139.000 C 245.296 139.000,244.714 139.495,244.109 140.100 C 243.504 140.705,242.928 141.200,242.828 141.200 C 242.729 141.200,242.277 141.560,241.824 142.000 C 241.370 142.440,240.910 142.800,240.800 142.800 C 240.690 142.800,240.600 142.890,240.600 143.000 C 240.600 143.110,240.501 143.200,240.380 143.200 C 240.259 143.200,239.908 143.470,239.600 143.800 C 239.292 144.130,238.941 144.400,238.820 144.400 C 238.699 144.400,238.600 144.490,238.600 144.600 C 238.600 144.710,238.487 144.800,238.348 144.800 C 238.210 144.800,237.984 144.980,237.846 145.200 C 237.709 145.420,237.504 145.600,237.390 145.600 C 237.276 145.600,237.049 145.712,236.885 145.850 C 236.720 145.988,236.477 146.190,236.343 146.300 C 236.209 146.410,235.853 146.628,235.550 146.784 C 235.248 146.940,235.000 147.142,235.000 147.234 C 235.000 147.325,234.882 147.400,234.738 147.400 C 234.593 147.400,234.301 147.558,234.088 147.750 C 233.874 147.943,233.453 148.228,233.150 148.384 C 232.847 148.540,232.600 148.742,232.600 148.834 C 232.600 148.925,232.482 149.000,232.338 149.000 C 232.193 149.000,231.901 149.158,231.688 149.350 C 231.474 149.542,231.053 149.828,230.750 149.984 C 230.447 150.140,230.200 150.342,230.200 150.434 C 230.200 150.525,230.065 150.600,229.900 150.600 C 229.735 150.600,229.600 150.690,229.600 150.800 C 229.600 150.910,229.440 151.000,229.244 151.000 C 229.048 151.000,228.759 151.180,228.600 151.400 C 228.441 151.620,228.152 151.800,227.956 151.800 C 227.760 151.800,227.600 151.890,227.600 152.000 C 227.600 152.110,227.440 152.200,227.244 152.200 C 227.048 152.200,226.759 152.380,226.600 152.600 C 226.441 152.820,226.152 153.000,225.956 153.000 C 225.760 153.000,225.600 153.090,225.600 153.200 C 225.600 153.310,225.420 153.400,225.200 153.400 C 224.980 153.400,224.800 153.490,224.800 153.600 C 224.800 153.710,224.620 153.800,224.400 153.800 C 224.180 153.800,224.000 153.890,224.000 154.000 C 224.000 154.110,223.863 154.200,223.696 154.200 C 223.529 154.200,223.056 154.408,222.646 154.662 C 222.236 154.916,221.540 155.285,221.100 155.482 C 220.660 155.679,219.855 156.056,219.311 156.320 C 218.767 156.584,218.204 156.800,218.061 156.800 C 217.917 156.800,217.800 156.890,217.800 157.000 C 217.800 157.110,217.620 157.200,217.400 157.200 C 217.180 157.200,217.000 157.290,217.000 157.400 C 217.000 157.510,216.820 157.600,216.600 157.600 C 216.380 157.600,216.200 157.690,216.200 157.800 C 216.200 157.910,216.064 158.000,215.897 158.000 C 215.731 158.000,215.416 158.090,215.197 158.200 C 214.979 158.310,214.621 158.490,214.403 158.600 C 214.184 158.710,213.869 158.800,213.703 158.800 C 213.536 158.800,213.400 158.890,213.400 159.000 C 213.400 159.110,213.175 159.200,212.900 159.200 C 212.625 159.200,212.400 159.290,212.400 159.400 C 212.400 159.510,212.225 159.600,212.012 159.600 C 211.798 159.600,211.568 159.690,211.500 159.800 C 211.432 159.910,211.157 160.000,210.888 160.000 C 210.620 160.000,210.400 160.090,210.400 160.200 C 210.400 160.310,210.130 160.400,209.800 160.400 C 209.470 160.400,209.200 160.490,209.200 160.600 C 209.200 160.710,208.980 160.800,208.712 160.800 C 208.443 160.800,208.168 160.890,208.100 161.000 C 208.032 161.110,207.802 161.200,207.588 161.200 C 207.375 161.200,207.200 161.290,207.200 161.400 C 207.200 161.510,206.930 161.600,206.600 161.600 C 206.270 161.600,206.000 161.690,206.000 161.800 C 206.000 161.910,205.685 162.000,205.300 162.000 C 204.915 162.000,204.600 162.090,204.600 162.200 C 204.600 162.310,204.385 162.400,204.123 162.400 C 203.861 162.400,203.163 162.542,202.573 162.716 C 201.983 162.889,201.140 163.123,200.700 163.235 C 200.260 163.347,199.744 163.520,199.553 163.619 C 199.362 163.719,198.940 163.800,198.615 163.800 C 198.290 163.800,197.968 163.890,197.900 164.000 C 197.832 164.110,197.472 164.200,197.100 164.200 C 196.728 164.200,196.368 164.290,196.300 164.400 C 196.232 164.510,195.840 164.600,195.428 164.600 C 195.017 164.600,194.595 164.681,194.490 164.780 C 194.311 164.949,193.733 165.058,191.600 165.326 C 191.105 165.388,190.614 165.520,190.510 165.619 C 190.405 165.719,189.893 165.800,189.372 165.800 C 188.850 165.800,188.368 165.890,188.300 166.000 C 188.232 166.110,187.642 166.200,186.988 166.200 C 186.329 166.200,185.800 166.289,185.800 166.400 C 185.800 166.517,185.133 166.600,184.200 166.600 C 183.267 166.600,182.600 166.683,182.600 166.800 C 182.600 166.921,181.767 167.000,180.500 167.000 C 179.233 167.000,178.400 167.079,178.400 167.200 C 178.400 167.327,176.833 167.400,174.100 167.400 C 171.367 167.400,169.800 167.473,169.800 167.600 C 169.800 167.732,161.500 167.800,145.300 167.800 C 121.947 167.800,120.800 167.783,120.800 167.444 C 120.800 167.248,120.980 166.959,121.200 166.800 C 121.420 166.641,121.600 166.352,121.600 166.156 C 121.600 165.960,121.690 165.800,121.800 165.800 C 121.910 165.800,122.000 165.620,122.000 165.400 C 122.000 165.180,122.090 165.000,122.200 165.000 C 122.310 165.000,122.400 164.861,122.400 164.692 C 122.400 164.522,122.580 164.190,122.800 163.954 C 123.020 163.718,123.200 163.407,123.200 163.262 C 123.200 163.118,123.290 163.000,123.400 163.000 C 123.510 163.000,123.600 162.820,123.600 162.600 C 123.600 162.380,123.673 162.200,123.763 162.200 C 123.852 162.200,124.049 161.885,124.200 161.500 C 124.351 161.115,124.548 160.800,124.637 160.800 C 124.727 160.800,124.800 160.620,124.800 160.400 C 124.800 160.180,124.890 160.000,125.000 160.000 C 125.110 160.000,125.200 159.820,125.200 159.600 C 125.200 159.380,125.290 159.200,125.400 159.200 C 125.510 159.200,125.600 159.020,125.600 158.800 C 125.600 158.580,125.690 158.400,125.800 158.400 C 125.910 158.400,126.000 158.220,126.000 158.000 C 126.000 157.780,126.090 157.600,126.200 157.600 C 126.310 157.600,126.400 157.420,126.400 157.200 C 126.400 156.980,126.490 156.800,126.600 156.800 C 126.710 156.800,126.800 156.620,126.800 156.400 C 126.800 156.180,126.890 156.000,127.000 156.000 C 127.110 156.000,127.200 155.863,127.200 155.696 C 127.200 155.434,128.465 152.523,128.992 151.575 C 129.091 151.396,129.234 150.923,129.309 150.525 C 129.383 150.126,129.525 149.800,129.622 149.800 C 129.720 149.800,129.800 149.530,129.800 149.200 C 129.800 148.870,129.890 148.600,130.000 148.600 C 130.110 148.600,130.200 148.420,130.200 148.200 C 130.200 147.980,130.290 147.800,130.400 147.800 C 130.510 147.800,130.600 147.530,130.600 147.200 C 130.600 146.870,130.690 146.600,130.800 146.600 C 130.910 146.600,131.000 146.425,131.000 146.212 C 131.000 145.998,131.090 145.768,131.200 145.700 C 131.310 145.632,131.400 145.357,131.400 145.088 C 131.400 144.820,131.490 144.600,131.600 144.600 C 131.710 144.600,131.800 144.375,131.800 144.100 C 131.800 143.825,131.890 143.600,132.000 143.600 C 132.110 143.600,132.200 143.330,132.200 143.000 C 132.200 142.670,132.290 142.400,132.400 142.400 C 132.510 142.400,132.600 142.130,132.600 141.800 C 132.600 141.470,132.690 141.200,132.800 141.200 C 132.910 141.200,133.000 140.930,133.000 140.600 C 133.000 140.270,133.090 140.000,133.200 140.000 C 133.310 140.000,133.400 139.735,133.400 139.412 C 133.400 139.088,133.490 138.768,133.600 138.700 C 133.710 138.632,133.800 138.312,133.800 137.988 C 133.800 137.665,133.890 137.400,134.000 137.400 C 134.110 137.400,134.200 137.135,134.200 136.812 C 134.200 136.488,134.290 136.168,134.400 136.100 C 134.510 136.032,134.600 135.667,134.600 135.288 C 134.600 134.910,134.690 134.600,134.800 134.600 C 134.910 134.600,135.000 134.290,135.000 133.912 C 135.000 133.533,135.080 133.174,135.178 133.114 C 135.355 133.004,135.517 132.280,135.729 130.650 C 135.790 130.183,135.921 129.800,136.020 129.800 C 136.119 129.800,136.200 129.490,136.200 129.112 C 136.200 128.733,136.290 128.368,136.400 128.300 C 136.510 128.232,136.600 127.782,136.600 127.300 C 136.600 126.818,136.690 126.368,136.800 126.300 C 136.910 126.232,137.000 125.816,137.000 125.375 C 137.000 124.934,137.089 124.407,137.198 124.204 C 137.307 124.001,137.455 122.927,137.528 121.817 C 137.601 120.708,137.737 119.800,137.830 119.800 C 137.924 119.800,138.000 119.265,138.000 118.612 C 138.000 117.958,138.090 117.368,138.200 117.300 C 138.310 117.232,138.400 116.417,138.400 115.488 C 138.400 114.496,138.482 113.800,138.600 113.800 C 138.721 113.800,138.800 112.933,138.800 111.600 C 138.800 110.267,138.879 109.400,139.000 109.400 C 139.130 109.400,139.200 106.133,139.200 100.000 C 139.200 93.867,139.130 90.600,139.000 90.600 C 138.879 90.600,138.800 89.733,138.800 88.400 C 138.800 87.067,138.721 86.200,138.600 86.200 C 138.482 86.200,138.400 85.500,138.400 84.500 C 138.400 83.500,138.318 82.800,138.200 82.800 C 138.087 82.800,138.000 82.233,138.000 81.500 C 138.000 80.767,137.913 80.200,137.800 80.200 C 137.690 80.200,137.593 79.683,137.585 79.050 C 137.571 77.945,137.467 77.189,136.996 74.800 C 136.877 74.195,136.730 73.340,136.669 72.900 C 136.609 72.460,136.478 72.015,136.380 71.910 C 136.281 71.806,136.200 71.378,136.200 70.960 C 136.200 70.542,136.110 70.200,136.000 70.200 C 135.890 70.200,135.800 69.840,135.800 69.400 C 135.800 68.960,135.710 68.600,135.600 68.600 C 135.490 68.600,135.400 68.240,135.400 67.800 C 135.400 67.360,135.310 67.000,135.200 67.000 C 135.090 67.000,135.000 66.690,135.000 66.312 C 135.000 65.933,134.910 65.568,134.800 65.500 C 134.690 65.432,134.600 65.117,134.600 64.800 C 134.600 64.483,134.510 64.168,134.400 64.100 C 134.290 64.032,134.200 63.712,134.200 63.388 C 134.200 63.065,134.110 62.800,134.000 62.800 C 133.890 62.800,133.800 62.530,133.800 62.200 C 133.800 61.870,133.710 61.600,133.600 61.600 C 133.490 61.600,133.400 61.335,133.400 61.012 C 133.400 60.688,133.310 60.368,133.200 60.300 C 133.090 60.232,133.000 59.917,133.000 59.600 C 133.000 59.283,132.910 58.968,132.800 58.900 C 132.690 58.832,132.600 58.600,132.600 58.385 C 132.600 58.008,132.528 57.813,132.031 56.853 C 131.904 56.607,131.800 56.224,131.800 56.003 C 131.800 55.781,131.710 55.600,131.600 55.600 C 131.490 55.600,131.400 55.375,131.400 55.100 C 131.400 54.825,131.310 54.600,131.200 54.600 C 131.090 54.600,131.000 54.330,131.000 54.000 C 131.000 53.670,130.910 53.400,130.800 53.400 C 130.690 53.400,130.600 53.220,130.600 53.000 C 130.600 52.780,130.510 52.600,130.400 52.600 C 130.290 52.600,130.200 52.330,130.200 52.000 C 130.200 51.670,130.110 51.400,130.000 51.400 C 129.890 51.400,129.800 51.220,129.800 51.000 C 129.800 50.780,129.710 50.600,129.600 50.600 C 129.490 50.600,129.400 50.361,129.400 50.070 C 129.400 49.619,128.867 48.254,128.183 46.953 C 128.082 46.762,128.000 46.469,128.000 46.303 C 128.000 46.136,127.910 46.000,127.800 46.000 C 127.690 46.000,127.600 45.820,127.600 45.600 C 127.600 45.380,127.510 45.200,127.400 45.200 C 127.290 45.200,127.200 45.020,127.200 44.800 C 127.200 44.580,127.110 44.400,127.000 44.400 C 126.890 44.400,126.800 44.264,126.800 44.097 C 126.800 43.931,126.717 43.638,126.615 43.447 C 126.514 43.256,126.131 42.470,125.765 41.700 C 125.399 40.930,125.033 40.270,124.950 40.233 C 124.868 40.197,124.800 39.994,124.800 39.783 C 124.800 39.572,124.710 39.400,124.600 39.400 C 124.490 39.400,124.400 39.265,124.400 39.100 C 124.400 38.935,124.310 38.800,124.200 38.800 C 124.090 38.800,124.000 38.620,124.000 38.400 C 124.000 38.180,123.910 38.000,123.800 38.000 C 123.690 38.000,123.600 37.865,123.600 37.700 C 123.600 37.535,123.510 37.400,123.400 37.400 C 123.290 37.400,123.200 37.220,123.200 37.000 C 123.200 36.780,123.110 36.600,123.000 36.600 C 122.890 36.600,122.800 36.420,122.800 36.200 C 122.800 35.980,122.710 35.800,122.600 35.800 C 122.490 35.800,122.400 35.640,122.400 35.444 C 122.400 35.248,122.220 34.959,122.000 34.800 C 121.780 34.641,121.600 34.352,121.600 34.156 C 121.600 33.960,121.510 33.800,121.400 33.800 C 121.290 33.800,121.200 33.620,121.200 33.400 C 121.200 33.180,121.120 33.000,121.023 33.000 C 120.926 33.000,120.800 32.820,120.742 32.600 C 120.638 32.202,120.736 32.200,145.419 32.200 C 161.806 32.200,170.200 32.268,170.200 32.400 " stroke="none" fill="#040404" fill-rule="evenodd"></path><path id="path1" d="" stroke="none" fill="#080404" fill-rule="evenodd"></path><path id="path2" d="" stroke="none" fill="#080404" fill-rule="evenodd"></path></g></svg>