<svg id="svg" version="1.1" xmlns="http://www.w3.org/2000/svg" xmlns:xlink="http://www.w3.org/1999/xlink" width="400" height="365.06238859180036" viewBox="0, 0, 400,365.06238859180036"><g id="svgg"><path id="path0" d="M-0.000 4.934 L -0.000 9.871 5.292 10.100 C 32.139 11.262,47.888 19.553,67.337 42.765 L 70.961 47.090 70.849 179.784 C 70.726 324.297,70.827 317.003,68.812 326.892 C 65.669 342.316,51.817 349.020,23.090 349.020 L 19.964 349.020 19.964 354.011 L 19.964 359.002 82.709 359.002 L 145.455 359.002 145.455 354.011 L 145.455 349.020 142.507 349.020 C 127.083 349.020,113.886 346.486,107.149 342.232 C 98.907 337.026,96.343 330.188,95.190 310.339 C 94.757 302.892,94.696 76.649,95.126 76.649 C 95.357 76.649,250.431 266.482,317.825 349.266 L 330.660 365.031 335.918 365.047 L 341.176 365.062 341.178 209.358 C 341.180 53.352,341.222 47.554,342.427 37.604 C 344.856 17.559,354.821 11.165,385.294 10.097 L 391.800 9.869 391.800 4.935 L 391.800 0.000 329.055 0.000 L 266.310 0.000 266.310 4.991 L 266.310 9.982 269.786 9.986 C 288.221 10.004,301.679 13.287,308.211 19.358 C 313.520 24.292,315.192 28.980,316.626 42.959 C 317.412 50.623,317.492 268.184,316.709 268.032 C 316.377 267.967,267.072 207.674,207.142 134.046 L 98.177 0.178 49.088 0.088 L 0.000 -0.003 -0.000 4.934 M93.601 13.288 C 94.591 14.509,145.328 76.836,206.349 151.792 L 317.296 288.075 317.204 309.040 L 317.112 330.004 195.900 181.188 C 129.234 99.339,73.138 30.645,71.243 28.534 C 65.718 22.381,58.523 16.411,52.057 12.617 L 49.391 11.052 70.596 11.059 L 91.800 11.067 93.601 13.288 " stroke="none" fill="#040404" fill-rule="evenodd"></path><path id="path1" d="" stroke="none" fill="#080404" fill-rule="evenodd"></path><path id="path2" d="" stroke="none" fill="#080404" fill-rule="evenodd"></path></g></svg>