<svg id="svg" version="1.1" xmlns="http://www.w3.org/2000/svg" xmlns:xlink="http://www.w3.org/1999/xlink" width="400" height="400" viewBox="0, 0, 400,400"><g id="svgg"><path id="path0" d="M112.083 4.337 C 71.342 7.826,37.933 38.023,29.849 78.667 C 20.946 123.426,44.071 168.790,84.417 185.710 C 106.528 194.983,133.362 194.739,154.696 185.071 C 158.199 183.483,157.884 183.594,157.651 184.036 C 157.540 184.245,146.050 204.442,132.118 228.917 C 118.185 253.392,102.324 281.254,96.871 290.833 C 91.419 300.412,86.153 309.600,85.170 311.250 C 72.388 332.696,69.951 339.269,69.966 352.250 C 69.993 374.695,86.626 392.963,109.441 395.602 C 124.291 397.320,136.831 392.054,147.189 379.750 C 152.654 373.257,152.872 372.899,174.131 335.535 L 189.805 307.986 189.908 309.118 C 190.646 317.231,191.806 323.564,193.688 329.750 C 207.230 374.260,247.325 400.805,292.500 395.168 C 333.978 389.992,367.595 354.006,371.672 310.417 C 376.335 260.567,340.311 213.965,292.500 207.999 C 275.759 205.910,259.259 208.344,244.458 215.086 C 243.198 215.660,242.167 216.104,242.167 216.073 C 242.167 216.041,248.777 204.406,256.856 190.216 C 270.625 166.034,286.132 138.796,304.754 106.083 C 309.137 98.383,313.896 90.133,315.330 87.750 C 325.937 70.119,328.756 63.322,329.842 52.750 C 332.555 26.353,312.313 4.256,285.417 4.251 C 268.983 4.248,258.211 11.262,245.747 30.083 C 242.570 34.881,242.899 34.316,225.076 65.637 C 210.742 90.826,210.246 91.670,210.143 91.054 C 210.084 90.703,209.949 89.442,209.842 88.250 C 206.129 46.853,174.298 12.016,134.083 5.336 C 128.052 4.334,117.642 3.861,112.083 4.337 M124.508 21.004 C 169.617 24.443,201.334 68.231,191.990 114.167 C 185.469 146.224,159.700 171.059,128.704 175.159 C 92.677 179.925,59.534 158.150,48.416 122.410 C 33.273 73.734,65.161 24.834,114.583 20.942 C 116.250 20.811,122.483 20.850,124.508 21.004 M289.000 21.075 C 303.427 23.011,313.681 34.627,313.282 48.583 C 313.031 57.386,311.097 62.221,301.290 78.583 C 299.641 81.333,263.494 144.708,220.962 219.417 C 138.425 364.394,141.539 358.947,139.281 362.333 C 130.843 374.990,124.004 379.470,113.667 379.114 C 98.746 378.601,87.186 367.497,86.716 353.229 C 86.411 343.952,88.005 339.524,97.451 323.417 C 98.633 321.400,100.282 318.587,101.115 317.167 C 101.948 315.746,137.149 253.946,179.340 179.833 C 221.530 105.721,256.867 43.771,257.867 42.167 C 268.598 24.950,276.745 19.430,289.000 21.075 M115.250 75.933 C 103.180 78.069,96.379 91.148,99.935 105.383 C 102.856 117.073,113.031 123.255,124.530 120.325 C 142.040 115.864,144.406 85.674,127.884 77.515 C 124.504 75.846,119.371 75.203,115.250 75.933 M120.827 92.836 C 122.874 95.189,122.716 102.230,120.576 104.006 C 120.114 104.390,117.950 104.324,117.494 103.912 C 115.177 101.818,115.299 93.785,117.667 92.540 C 118.406 92.151,120.393 92.337,120.827 92.836 M286.250 224.170 C 338.530 227.956,371.142 287.540,347.411 335.917 C 331.984 367.366,301.065 383.720,267.700 378.078 C 214.065 369.009,188.339 302.755,220.426 256.333 C 235.573 234.420,260.383 222.297,286.250 224.170 M278.083 279.188 C 258.752 281.603,254.397 313.602,272.223 322.248 C 285.350 328.614,299.521 319.572,300.864 303.975 C 302.161 288.900,291.675 277.490,278.083 279.188 M282.173 296.089 C 285.468 299.071,284.571 307.399,280.956 307.394 C 279.365 307.392,278.823 306.881,278.065 304.667 C 277.026 301.633,278.312 296.084,280.124 295.778 C 280.900 295.647,281.843 295.791,282.173 296.089 " stroke="none" fill="#fbfbfb" fill-rule="evenodd"></path><path id="path1" d="M114.970 21.010 C 92.050 22.197,70.268 35.033,57.292 55.000 C 31.913 94.050,46.660 149.130,87.750 168.758 C 109.179 178.995,135.323 177.852,155.417 165.800 C 204.179 136.554,206.527 64.773,159.750 33.341 C 146.406 24.374,131.148 20.173,114.970 21.010 M282.750 21.012 C 274.630 21.825,268.663 26.370,260.885 37.667 C 257.909 41.989,256.924 43.708,178.708 181.083 C 136.172 255.792,100.679 318.079,99.834 319.500 C 88.840 337.993,87.208 341.877,86.741 350.667 C 85.953 365.498,96.999 377.689,112.417 379.002 C 123.640 379.958,131.613 374.589,140.775 359.904 C 141.870 358.148,189.424 274.686,287.293 102.750 C 293.293 92.208,299.310 81.746,300.664 79.500 C 311.593 61.366,314.040 54.686,313.184 45.319 C 311.848 30.696,297.833 19.502,282.750 21.012 M123.276 75.916 C 133.174 77.793,139.751 87.568,139.089 99.417 C 138.278 113.926,128.719 122.728,115.820 120.841 C 105.577 119.344,99.125 110.629,99.093 98.250 C 99.054 82.867,109.426 73.288,123.276 75.916 M276.738 224.171 C 243.448 226.042,214.940 251.472,208.080 285.417 C 199.923 325.778,223.198 366.170,260.500 376.390 C 296.025 386.123,331.187 369.530,347.678 335.250 C 356.865 316.153,357.692 292.919,349.889 273.188 C 337.407 241.629,308.674 222.376,276.738 224.171 M284.690 279.258 C 302.044 282.465,307.070 309.595,292.361 320.663 C 286.868 324.797,277.850 325.402,271.667 322.052 C 256.873 314.036,257.426 288.004,272.543 280.739 C 275.843 279.153,280.832 278.544,284.690 279.258 " stroke="none" fill="#040404" fill-rule="evenodd"></path><path id="path2" d="M115.621 20.954 C 115.917 20.990,116.442 20.991,116.788 20.955 C 117.134 20.919,116.892 20.889,116.250 20.888 C 115.608 20.887,115.325 20.917,115.621 20.954 M121.625 20.954 C 121.923 20.991,122.410 20.991,122.708 20.954 C 123.006 20.917,122.763 20.887,122.167 20.887 C 121.571 20.887,121.327 20.917,121.625 20.954 M283.127 20.951 C 283.334 20.991,283.634 20.990,283.794 20.948 C 283.953 20.906,283.783 20.874,283.417 20.875 C 283.050 20.877,282.920 20.911,283.127 20.951 M286.794 20.951 C 287.001 20.991,287.301 20.990,287.460 20.948 C 287.620 20.906,287.450 20.874,287.083 20.875 C 286.717 20.877,286.586 20.911,286.794 20.951 M112.875 21.115 C 113.035 21.157,113.298 21.157,113.458 21.115 C 113.619 21.073,113.487 21.039,113.167 21.039 C 112.846 21.039,112.715 21.073,112.875 21.115 M124.708 21.115 C 124.869 21.157,125.131 21.157,125.292 21.115 C 125.452 21.073,125.321 21.039,125.000 21.039 C 124.679 21.039,124.548 21.073,124.708 21.115 M268.413 28.208 L 267.083 29.583 268.458 28.254 C 269.215 27.523,269.833 26.904,269.833 26.879 C 269.833 26.757,269.647 26.931,268.413 28.208 M170.000 41.750 C 170.867 42.621,171.614 43.333,171.660 43.333 C 171.706 43.333,171.034 42.621,170.167 41.750 C 169.299 40.879,168.552 40.167,168.507 40.167 C 168.461 40.167,169.133 40.879,170.000 41.750 M67.163 42.625 L 65.583 44.250 67.208 42.670 C 68.102 41.801,68.833 41.070,68.833 41.045 C 68.833 40.924,68.631 41.116,67.163 42.625 M173.250 45.167 C 173.608 45.533,173.938 45.833,173.984 45.833 C 174.030 45.833,173.775 45.533,173.417 45.167 C 173.059 44.800,172.728 44.500,172.682 44.500 C 172.637 44.500,172.892 44.800,173.250 45.167 M313.209 45.417 C 313.211 45.783,313.245 45.914,313.285 45.706 C 313.324 45.499,313.323 45.199,313.281 45.040 C 313.239 44.880,313.207 45.050,313.209 45.417 M313.212 49.833 C 313.212 50.246,313.245 50.415,313.284 50.208 C 313.324 50.002,313.324 49.665,313.284 49.458 C 313.245 49.252,313.212 49.421,313.212 49.833 M118.208 75.623 C 118.644 75.657,119.356 75.657,119.792 75.623 C 120.227 75.588,119.871 75.560,119.000 75.560 C 118.129 75.560,117.773 75.588,118.208 75.623 M193.205 90.667 C 193.205 90.987,193.240 91.119,193.282 90.958 C 193.323 90.798,193.323 90.535,193.282 90.375 C 193.240 90.215,193.205 90.346,193.205 90.667 M44.872 92.333 C 44.872 92.654,44.906 92.785,44.948 92.625 C 44.990 92.465,44.990 92.202,44.948 92.042 C 44.906 91.881,44.872 92.013,44.872 92.333 M193.379 92.833 C 193.379 93.246,193.411 93.415,193.451 93.208 C 193.491 93.002,193.491 92.665,193.451 92.458 C 193.411 92.252,193.379 92.421,193.379 92.833 M44.736 97.917 C 44.736 99.658,44.761 100.348,44.791 99.450 C 44.821 98.551,44.821 97.126,44.791 96.283 C 44.761 95.440,44.736 96.175,44.736 97.917 M99.042 95.583 C 99.044 95.950,99.078 96.080,99.118 95.873 C 99.158 95.666,99.156 95.366,99.115 95.206 C 99.073 95.047,99.040 95.217,99.042 95.583 M193.566 98.000 C 193.566 99.329,193.592 99.873,193.624 99.208 C 193.655 98.544,193.655 97.456,193.624 96.792 C 193.592 96.127,193.566 96.671,193.566 98.000 M139.062 98.000 C 139.062 98.962,139.089 99.356,139.123 98.875 C 139.157 98.394,139.157 97.606,139.123 97.125 C 139.089 96.644,139.062 97.037,139.062 98.000 M99.042 100.417 C 99.044 100.783,99.078 100.914,99.118 100.706 C 99.158 100.499,99.156 100.199,99.115 100.040 C 99.073 99.880,99.040 100.050,99.042 100.417 M193.379 103.000 C 193.379 103.412,193.411 103.581,193.451 103.375 C 193.491 103.169,193.491 102.831,193.451 102.625 C 193.411 102.419,193.379 102.587,193.379 103.000 M44.872 103.500 C 44.872 103.821,44.906 103.952,44.948 103.792 C 44.990 103.631,44.990 103.369,44.948 103.208 C 44.906 103.048,44.872 103.179,44.872 103.500 M193.205 105.333 C 193.205 105.654,193.240 105.785,193.282 105.625 C 193.323 105.465,193.323 105.202,193.282 105.042 C 193.240 104.881,193.205 105.013,193.205 105.333 M132.328 115.958 L 131.417 116.917 132.375 116.006 C 133.265 115.159,133.410 115.000,133.286 115.000 C 133.260 115.000,132.829 115.431,132.328 115.958 M170.497 154.125 L 168.417 156.250 170.542 154.169 C 172.516 152.236,172.742 152.000,172.622 152.000 C 172.598 152.000,171.642 152.956,170.497 154.125 M66.083 153.000 C 66.535 153.458,66.942 153.833,66.987 153.833 C 67.033 153.833,66.701 153.458,66.250 153.000 C 65.799 152.542,65.392 152.167,65.346 152.167 C 65.300 152.167,65.632 152.542,66.083 153.000 M68.917 155.833 C 69.461 156.383,69.944 156.833,69.990 156.833 C 70.035 156.833,69.628 156.383,69.083 155.833 C 68.539 155.283,68.056 154.833,68.010 154.833 C 67.965 154.833,68.372 155.283,68.917 155.833 M111.542 175.448 C 111.702 175.490,111.965 175.490,112.125 175.448 C 112.285 175.406,112.154 175.372,111.833 175.372 C 111.513 175.372,111.381 175.406,111.542 175.448 M125.875 175.448 C 126.035 175.490,126.298 175.490,126.458 175.448 C 126.619 175.406,126.487 175.372,126.167 175.372 C 125.846 175.372,125.715 175.406,125.875 175.448 M113.625 175.618 C 113.831 175.657,114.169 175.657,114.375 175.618 C 114.581 175.578,114.412 175.545,114.000 175.545 C 113.587 175.545,113.419 175.578,113.625 175.618 M123.625 175.618 C 123.831 175.657,124.169 175.657,124.375 175.618 C 124.581 175.578,124.412 175.545,124.000 175.545 C 123.587 175.545,123.419 175.578,123.625 175.618 M117.708 175.791 C 118.419 175.822,119.581 175.822,120.292 175.791 C 121.002 175.759,120.421 175.734,119.000 175.734 C 117.579 175.734,116.998 175.759,117.708 175.791 M277.455 224.120 C 277.750 224.157,278.275 224.158,278.621 224.122 C 278.967 224.086,278.725 224.055,278.083 224.055 C 277.442 224.054,277.159 224.083,277.455 224.120 M283.121 224.120 C 283.417 224.157,283.942 224.158,284.288 224.122 C 284.634 224.086,284.392 224.055,283.750 224.055 C 283.108 224.054,282.825 224.083,283.121 224.120 M328.667 242.385 C 328.667 242.414,328.910 242.658,329.208 242.927 L 329.750 243.417 329.260 242.875 C 328.804 242.370,328.667 242.257,328.667 242.385 M229.079 245.875 L 227.750 247.250 229.125 245.921 C 230.402 244.686,230.576 244.500,230.454 244.500 C 230.429 244.500,229.811 245.119,229.079 245.875 M331.833 245.417 C 332.331 245.921,332.776 246.333,332.822 246.333 C 332.868 246.333,332.498 245.921,332.000 245.417 C 331.502 244.912,331.057 244.500,331.011 244.500 C 330.966 244.500,331.335 244.912,331.833 245.417 M334.000 247.719 C 334.000 247.748,334.244 247.991,334.542 248.260 L 335.083 248.750 334.594 248.208 C 334.138 247.703,334.000 247.590,334.000 247.719 M226.573 248.542 L 226.083 249.083 226.625 248.594 C 227.130 248.138,227.243 248.000,227.115 248.000 C 227.086 248.000,226.842 248.244,226.573 248.542 M293.833 284.083 C 294.424 284.679,294.945 285.167,294.990 285.167 C 295.036 285.167,294.591 284.679,294.000 284.083 C 293.409 283.487,292.889 283.000,292.843 283.000 C 292.797 283.000,293.243 283.487,293.833 284.083 M206.705 294.333 C 206.705 294.654,206.740 294.785,206.782 294.625 C 206.823 294.465,206.823 294.202,206.782 294.042 C 206.740 293.881,206.705 294.012,206.705 294.333 M355.042 296.250 C 355.044 296.617,355.078 296.747,355.118 296.540 C 355.158 296.332,355.156 296.032,355.115 295.873 C 355.073 295.714,355.040 295.883,355.042 296.250 M206.545 296.667 C 206.545 297.079,206.578 297.248,206.618 297.042 C 206.657 296.835,206.657 296.498,206.618 296.292 C 206.578 296.085,206.545 296.254,206.545 296.667 M355.236 301.833 C 355.236 303.529,355.261 304.223,355.291 303.375 C 355.321 302.527,355.321 301.140,355.291 300.292 C 355.261 299.444,355.236 300.137,355.236 301.833 M300.872 299.500 C 300.872 299.821,300.906 299.952,300.948 299.792 C 300.990 299.631,300.990 299.369,300.948 299.208 C 300.906 299.048,300.872 299.179,300.872 299.500 M206.400 301.833 C 206.400 303.254,206.426 303.835,206.457 303.125 C 206.488 302.415,206.488 301.252,206.457 300.542 C 206.426 299.831,206.400 300.412,206.400 301.833 M260.894 301.750 C 260.895 302.667,260.923 303.020,260.956 302.536 C 260.990 302.052,260.990 301.302,260.956 300.869 C 260.921 300.437,260.894 300.833,260.894 301.750 M300.872 304.000 C 300.872 304.321,300.906 304.452,300.948 304.292 C 300.990 304.131,300.990 303.869,300.948 303.708 C 300.906 303.548,300.872 303.679,300.872 304.000 M206.542 306.917 C 206.544 307.283,206.578 307.414,206.618 307.206 C 206.658 306.999,206.656 306.699,206.615 306.540 C 206.573 306.380,206.540 306.550,206.542 306.917 M355.042 307.250 C 355.044 307.617,355.078 307.747,355.118 307.540 C 355.158 307.332,355.156 307.032,355.115 306.873 C 355.073 306.714,355.040 306.883,355.042 307.250 M206.705 309.167 C 206.705 309.487,206.740 309.619,206.782 309.458 C 206.823 309.298,206.823 309.035,206.782 308.875 C 206.740 308.715,206.705 308.846,206.705 309.167 M354.872 309.333 C 354.872 309.654,354.906 309.785,354.948 309.625 C 354.990 309.465,354.990 309.202,354.948 309.042 C 354.906 308.881,354.872 309.012,354.872 309.333 M294.079 319.042 L 292.917 320.250 294.125 319.088 C 295.247 318.008,295.409 317.833,295.287 317.833 C 295.262 317.833,294.718 318.377,294.079 319.042 M266.833 318.385 C 266.833 318.414,267.077 318.658,267.375 318.927 L 267.917 319.417 267.427 318.875 C 266.971 318.370,266.833 318.257,266.833 318.385 M86.712 349.833 C 86.712 350.246,86.745 350.415,86.784 350.208 C 86.824 350.002,86.824 349.665,86.784 349.458 C 86.745 349.252,86.712 349.421,86.712 349.833 M86.709 354.417 C 86.711 354.783,86.745 354.914,86.785 354.706 C 86.824 354.499,86.823 354.199,86.781 354.040 C 86.739 353.880,86.707 354.050,86.709 354.417 M226.000 354.719 C 226.000 354.748,226.244 354.991,226.542 355.260 L 227.083 355.750 226.594 355.208 C 226.138 354.703,226.000 354.590,226.000 354.719 M331.997 357.625 L 330.083 359.583 332.042 357.669 C 333.861 355.892,334.076 355.667,333.956 355.667 C 333.931 355.667,333.050 356.548,331.997 357.625 M229.333 358.250 C 230.201 359.121,230.948 359.833,230.993 359.833 C 231.039 359.833,230.367 359.121,229.500 358.250 C 228.633 357.379,227.886 356.667,227.840 356.667 C 227.794 356.667,228.466 357.379,229.333 358.250 M328.906 360.542 L 328.417 361.083 328.958 360.594 C 329.256 360.325,329.500 360.081,329.500 360.052 C 329.500 359.923,329.362 360.037,328.906 360.542 M231.833 360.552 C 231.833 360.581,232.077 360.825,232.375 361.094 L 232.917 361.583 232.427 361.042 C 231.971 360.537,231.833 360.423,231.833 360.552 M131.414 372.042 L 129.750 373.750 131.458 372.086 C 133.045 370.541,133.242 370.333,133.122 370.333 C 133.097 370.333,132.328 371.102,131.414 372.042 M274.542 378.948 C 274.702 378.990,274.965 378.990,275.125 378.948 C 275.285 378.906,275.154 378.872,274.833 378.872 C 274.512 378.872,274.381 378.906,274.542 378.948 M286.542 378.948 C 286.702 378.990,286.965 378.990,287.125 378.948 C 287.285 378.906,287.154 378.872,286.833 378.872 C 286.512 378.872,286.381 378.906,286.542 378.948 M112.458 379.118 C 112.665 379.157,113.002 379.157,113.208 379.118 C 113.415 379.078,113.246 379.045,112.833 379.045 C 112.421 379.045,112.252 379.078,112.458 379.118 M116.294 379.118 C 116.501 379.158,116.801 379.156,116.960 379.115 C 117.120 379.073,116.950 379.040,116.583 379.042 C 116.217 379.044,116.086 379.078,116.294 379.118 M277.375 379.121 C 277.719 379.157,278.281 379.157,278.625 379.121 C 278.969 379.085,278.688 379.056,278.000 379.056 C 277.313 379.056,277.031 379.085,277.375 379.121 M283.121 379.120 C 283.417 379.157,283.942 379.158,284.288 379.122 C 284.634 379.086,284.392 379.055,283.750 379.055 C 283.108 379.054,282.825 379.083,283.121 379.120 " stroke="none" fill="#555555" fill-rule="evenodd"></path></g></svg>