<svg id="svg" version="1.1" xmlns="http://www.w3.org/2000/svg" xmlns:xlink="http://www.w3.org/1999/xlink" width="400" height="400" viewBox="0, 0, 400,400"><g id="svgg"><path id="path0" d="M36.900 19.483 C 36.294 20.787,36.176 36.186,36.774 35.816 C 36.980 35.689,37.205 36.173,37.274 36.892 L 37.400 38.200 53.900 38.304 L 70.400 38.409 70.400 200.004 L 70.400 361.600 53.800 361.600 C 37.467 361.600,37.200 361.613,37.200 362.400 C 37.200 362.840,37.020 363.200,36.800 363.200 C 36.181 363.200,36.273 379.167,36.900 380.517 L 37.400 381.594 88.211 381.597 C 138.625 381.600,139.028 381.594,139.711 380.795 C 140.316 380.090,140.400 378.962,140.400 371.600 C 140.400 360.296,142.733 361.600,122.511 361.600 L 106.000 361.600 106.000 208.200 L 106.000 54.800 200.000 54.800 L 294.000 54.800 294.000 208.200 L 294.000 361.600 277.564 361.600 L 261.128 361.600 260.377 362.500 C 259.192 363.921,259.211 379.611,260.400 380.800 C 261.192 381.592,261.731 381.600,311.900 381.597 L 362.600 381.594 363.100 380.517 C 363.727 379.167,363.819 363.200,363.200 363.200 C 362.980 363.200,362.800 362.840,362.800 362.400 C 362.800 361.613,362.533 361.600,346.200 361.600 L 329.600 361.600 329.600 200.000 L 329.600 38.400 346.200 38.400 C 362.533 38.400,362.800 38.387,362.800 37.600 C 362.800 37.160,362.980 36.800,363.200 36.800 C 363.819 36.800,363.727 20.833,363.100 19.483 L 362.600 18.406 200.000 18.406 L 37.400 18.406 36.900 19.483 " stroke="none" fill="#040404" fill-rule="evenodd"></path><path id="path1" d="" stroke="none" fill="#080404" fill-rule="evenodd"></path><path id="path2" d="" stroke="none" fill="#080404" fill-rule="evenodd"></path></g></svg>