<svg id="svg" version="1.1" xmlns="http://www.w3.org/2000/svg" xmlns:xlink="http://www.w3.org/1999/xlink" width="400" height="400" viewBox="0, 0, 400,400"><g id="svgg"><path id="path0" d="M221.500 48.388 C 168.096 48.868,155.976 49.311,139.125 51.396 C 110.427 54.946,97.318 61.604,89.940 76.375 C 85.391 85.482,77.076 104.344,66.686 129.125 C 62.347 139.474,63.463 143.915,70.859 145.728 C 82.736 148.640,89.851 144.761,97.183 131.375 C 105.809 115.629,117.122 106.535,130.625 104.493 C 132.888 104.150,148.750 103.851,148.749 104.151 C 148.748 104.604,147.483 116.903,146.996 121.197 C 140.538 178.097,129.527 214.801,112.952 234.671 C 108.865 239.571,105.597 242.515,96.500 249.497 C 84.696 258.555,80.920 266.023,80.888 280.375 C 80.827 307.598,101.841 324.164,130.000 319.092 C 153.821 314.801,166.805 295.303,175.594 250.625 C 179.985 228.305,183.217 202.376,189.495 139.125 C 191.283 121.112,192.813 105.841,192.896 105.188 L 193.047 104.000 211.660 104.000 L 230.273 104.000 230.136 104.813 C 230.061 105.259,229.433 110.912,228.739 117.375 C 228.046 123.838,226.026 141.950,224.252 157.625 C 216.482 226.254,214.622 253.283,216.513 270.054 C 220.479 305.219,242.933 323.332,277.980 319.639 C 310.864 316.174,329.747 294.698,334.731 255.095 C 336.080 244.378,336.372 230.634,335.297 228.451 C 334.559 226.953,333.047 225.441,331.549 224.703 C 329.719 223.802,314.281 223.802,312.451 224.703 C 309.816 226.001,308.332 228.273,307.964 231.576 C 307.508 235.668,307.211 237.173,306.350 239.747 C 303.367 248.673,296.781 256.261,290.624 257.865 C 287.747 258.614,281.776 258.161,279.548 257.025 C 271.435 252.886,270.313 221.007,275.750 149.125 C 276.805 135.174,279.141 106.868,279.386 105.066 L 279.530 104.007 304.952 103.941 L 330.375 103.875 331.549 103.297 C 333.047 102.559,334.559 101.047,335.297 99.549 L 335.875 98.375 335.875 76.000 L 335.875 53.625 335.297 52.451 C 334.559 50.953,333.047 49.441,331.549 48.703 L 330.375 48.125 293.500 48.098 C 273.219 48.083,240.819 48.214,221.500 48.388 " stroke="none" fill="#040404" fill-rule="evenodd"></path><path id="path1" d="" stroke="none" fill="#080404" fill-rule="evenodd"></path><path id="path2" d="" stroke="none" fill="#080404" fill-rule="evenodd"></path></g></svg>