<svg id="svg" version="1.1" xmlns="http://www.w3.org/2000/svg" xmlns:xlink="http://www.w3.org/1999/xlink" width="400" height="400" viewBox="0, 0, 400,400"><g id="svgg"><path id="path0" d="M3.375 3.460 C 0.805 6.042,-0.035 7.136,0.063 7.769 C 0.175 8.487,0.857 7.953,4.486 4.309 C 8.185 0.593,8.641 0.000,7.798 0.000 C 7.087 0.000,5.879 0.945,3.375 3.460 M7.285 7.363 C 1.572 13.082,-0.040 14.915,0.063 15.575 C 0.172 16.276,1.625 14.993,8.395 8.212 C 15.220 1.377,16.431 0.000,15.618 0.000 C 14.870 0.000,12.913 1.729,7.285 7.363 M11.193 11.268 C 2.341 20.124,-0.042 22.718,0.063 23.385 C 0.171 24.080,2.393 22.035,12.302 12.117 C 22.252 2.159,24.235 0.000,23.433 0.000 C 22.674 0.000,19.945 2.512,11.193 11.268 M15.100 15.174 C 3.109 27.167,-0.042 30.525,0.063 31.197 C 0.171 31.889,3.162 29.077,16.209 16.023 C 29.284 2.941,32.044 -0.000,31.246 -0.000 C 30.482 -0.000,26.977 3.293,15.100 15.174 M19.006 19.080 C 3.879 34.210,-0.043 38.335,0.062 39.008 C 0.170 39.698,3.932 36.120,20.116 19.929 C 36.315 3.722,39.854 -0.000,39.060 -0.000 C 38.292 -0.000,34.009 4.075,19.006 19.080 M22.913 22.986 C 4.648 41.253,-0.043 46.146,0.062 46.821 C 0.170 47.509,4.701 43.163,24.022 23.835 C 43.347 4.504,47.665 0.000,46.873 0.000 C 46.102 0.000,41.040 4.856,22.913 22.986 M26.819 26.892 C 5.417 48.296,-0.043 53.957,0.062 54.633 C 0.170 55.320,5.470 50.206,27.929 27.741 C 50.378 5.285,55.476 0.000,54.685 0.000 C 53.914 0.000,48.071 5.638,26.819 26.892 M30.726 30.798 C 6.186 55.339,-0.043 61.768,0.062 62.445 C 0.170 63.132,6.239 57.249,31.835 31.647 C 57.410 6.067,63.288 0.000,62.498 0.000 C 61.725 0.000,55.103 6.419,30.726 30.798 M34.632 34.704 C 6.956 62.382,-0.044 69.580,0.062 70.257 C 0.170 70.944,7.009 64.292,35.741 35.553 C 64.441 6.848,71.099 0.000,70.311 0.000 C 69.537 0.000,62.134 7.200,34.632 34.704 M38.538 38.610 C 7.725 69.425,-0.044 77.392,0.062 78.070 C 0.170 78.756,7.778 71.335,39.648 39.459 C 71.472 7.629,78.911 0.000,78.124 0.000 C 77.349 0.000,69.166 7.982,38.538 38.610 M42.445 42.516 C 8.494 76.468,-0.044 85.204,0.062 85.882 C 0.170 86.568,8.547 78.378,43.554 43.366 C 78.503 8.411,86.723 0.000,85.936 0.000 C 85.161 -0.000,76.197 8.763,42.445 42.516 M46.351 46.423 C 9.264 83.511,-0.044 93.016,0.062 93.694 C 0.170 94.380,9.317 85.421,47.460 47.272 C 85.535 9.192,94.535 0.000,93.749 0.000 C 92.973 0.000,83.228 9.544,46.351 46.423 M50.257 50.329 C 10.033 90.554,-0.044 100.828,0.062 101.507 C 0.170 102.192,10.086 92.464,51.367 51.178 C 92.566 9.973,102.348 0.000,101.561 0.000 C 100.785 0.000,90.259 10.326,50.257 50.329 M54.163 54.235 C 10.802 97.597,-0.044 108.640,0.062 109.319 C 0.170 110.004,10.856 99.507,55.273 55.084 C 99.597 10.754,110.160 0.000,109.374 0.000 C 108.597 0.000,97.291 11.107,54.163 54.235 M58.070 58.141 C 11.572 104.640,-0.044 116.453,0.062 117.132 C 0.170 117.816,11.625 106.550,59.179 58.990 C 106.629 11.536,117.972 -0.000,117.187 -0.000 C 116.410 -0.000,104.322 11.888,58.070 58.141 M61.976 62.047 C 12.341 111.683,-0.044 124.265,0.062 124.944 C 0.170 125.629,12.394 113.593,63.085 62.897 C 113.660 12.317,125.784 0.000,124.999 0.000 C 124.222 0.000,111.353 12.669,61.976 62.047 M65.882 65.954 C 13.110 118.726,-0.044 132.077,0.062 132.757 C 0.170 133.441,13.164 120.636,66.992 66.803 C 120.691 13.098,133.597 -0.000,132.812 -0.000 C 132.034 -0.000,118.385 13.451,65.882 65.954 M69.789 69.860 C 13.880 125.769,-0.044 139.889,0.062 140.569 C 0.169 141.253,13.933 127.679,70.898 70.709 C 127.722 13.880,141.409 -0.000,140.624 -0.000 C 139.847 -0.000,125.416 14.232,69.789 69.860 M73.695 73.766 C 14.649 132.812,-0.044 147.702,0.062 148.381 C 0.169 149.066,14.702 134.722,74.804 74.615 C 134.754 14.661,149.221 -0.000,148.437 -0.000 C 147.659 -0.000,132.447 15.013,73.695 73.766 M77.601 77.672 C 15.418 139.856,-0.044 155.514,0.062 156.194 C 0.169 156.878,15.472 141.765,78.711 78.522 C 141.785 15.442,157.034 0.000,156.249 0.000 C 155.471 0.000,139.478 15.795,77.601 77.672 M81.507 81.579 C 16.188 146.899,-0.044 163.326,0.062 164.006 C 0.169 164.690,16.241 148.809,82.617 82.428 C 148.816 16.223,164.846 0.000,164.062 0.000 C 163.284 0.000,146.510 16.576,81.507 81.579 M85.414 85.485 C 16.957 153.942,-0.044 171.139,0.062 171.819 C 0.169 172.503,17.011 155.852,86.523 86.334 C 155.848 17.005,172.659 0.000,171.874 0.000 C 171.096 0.000,153.541 17.357,85.414 85.485 M89.320 89.391 C 17.727 160.985,-0.044 178.951,0.062 179.631 C 0.169 180.315,17.780 162.895,90.429 90.240 C 162.879 17.786,180.471 0.000,179.687 0.000 C 178.908 0.000,160.572 18.138,89.320 89.391 M93.226 93.297 C 18.496 168.028,-0.044 186.764,0.062 187.444 C 0.169 188.127,18.549 169.938,94.336 94.147 C 169.910 18.567,188.283 0.000,187.499 0.000 C 186.721 0.000,167.603 18.920,93.226 93.297 M97.132 97.204 C 19.265 175.071,-0.044 194.576,0.062 195.256 C 0.169 195.940,19.319 176.981,98.242 98.053 C 176.941 19.348,196.096 -0.000,195.312 -0.000 C 194.533 -0.000,174.635 19.701,97.132 97.204 M101.039 101.110 C 20.035 182.114,-0.044 202.388,0.062 203.069 C 0.169 203.752,20.088 184.024,102.148 101.959 C 183.973 20.130,203.908 0.000,203.124 0.000 C 202.346 0.000,181.666 20.482,101.039 101.110 M104.945 105.016 C 20.804 189.157,-0.044 210.201,0.062 210.881 C 0.169 211.565,20.857 191.067,106.054 105.865 C 191.004 20.911,211.721 -0.000,210.937 -0.000 C 210.158 -0.000,188.697 21.263,104.945 105.016 M108.851 108.922 C 21.573 196.200,-0.044 218.013,0.062 218.694 C 0.169 219.377,21.627 198.110,109.961 109.771 C 198.035 21.692,219.533 0.000,218.749 0.000 C 217.971 0.000,195.728 22.045,108.851 108.922 M112.757 112.829 C 22.343 203.244,-0.044 225.826,0.062 226.506 C 0.169 227.190,22.396 205.153,113.867 113.678 C 205.066 22.473,227.345 0.000,226.562 0.000 C 225.783 0.000,202.760 22.826,112.757 112.829 M116.664 116.735 C 23.112 210.287,-0.044 233.638,0.062 234.319 C 0.169 235.002,23.166 212.197,117.773 117.584 C 212.098 23.255,235.158 0.000,234.375 0.000 C 233.595 0.000,209.791 23.607,116.664 116.735 M120.570 120.641 C 23.882 217.330,-0.044 241.451,0.062 242.131 C 0.169 242.814,23.935 219.240,121.679 121.490 C 219.129 24.036,242.970 0.000,242.187 0.000 C 241.408 0.000,216.822 24.388,120.570 120.641 M124.476 124.547 C 24.651 224.373,-0.044 249.263,0.062 249.944 C 0.169 250.627,24.704 226.283,125.586 125.396 C 226.160 24.817,250.783 0.000,250.000 0.000 C 249.220 0.000,223.853 25.170,124.476 124.547 M128.382 128.454 C 25.420 231.416,-0.044 257.076,0.062 257.756 C 0.169 258.439,25.474 233.326,129.492 129.303 C 233.191 25.598,258.595 -0.000,257.812 -0.000 C 257.033 -0.000,230.885 25.951,128.382 128.454 M132.289 132.360 C 26.190 238.459,-0.044 264.888,0.062 265.569 C 0.169 266.252,26.243 240.369,133.398 133.209 C 240.223 26.380,266.408 -0.000,265.625 -0.000 C 264.845 -0.000,237.916 26.732,132.289 132.360 M136.195 136.266 C 26.959 245.502,-0.044 272.700,0.062 273.381 C 0.169 274.064,27.012 247.412,137.304 137.115 C 247.254 27.161,274.220 -0.000,273.437 -0.000 C 272.658 -0.000,244.947 27.513,136.195 136.266 M140.101 140.172 C 27.728 252.545,-0.044 280.513,0.062 281.194 C 0.169 281.877,27.782 254.455,141.211 141.021 C 254.285 27.942,282.033 0.000,281.250 0.000 C 280.470 0.000,251.978 28.295,140.101 140.172 M144.007 144.078 C 28.498 259.588,-0.044 288.325,0.062 289.006 C 0.169 289.689,28.551 261.498,145.117 144.928 C 261.316 28.723,289.845 0.000,289.062 0.000 C 288.283 0.000,259.010 29.076,144.007 144.078 M147.949 147.949 C 29.959 265.940,0.000 296.096,0.000 296.874 C -0.000 297.664,4.740 293.110,24.912 272.939 L 49.824 248.029 51.272 249.512 L 52.719 250.994 26.360 277.351 C 5.531 298.178,0.000 303.914,0.000 304.685 C 0.000 305.476,5.112 300.551,26.865 278.799 L 53.731 251.936 55.178 253.418 L 56.625 254.900 28.313 283.211 C 5.922 305.600,0.000 311.726,0.000 312.498 C 0.000 313.288,5.502 307.973,28.818 284.658 L 57.637 255.842 59.084 257.324 L 60.532 258.806 30.266 289.070 C 6.313 313.022,0.000 319.538,0.000 320.311 C 0.000 321.100,5.893 315.394,30.771 290.518 L 61.543 259.748 62.990 261.230 L 64.438 262.712 32.219 294.930 C 6.703 320.444,-0.000 327.350,-0.000 328.123 C -0.000 328.912,6.284 322.816,32.725 296.377 L 65.449 263.654 66.897 265.136 L 68.344 266.619 34.172 300.789 C 7.094 327.866,0.000 335.162,0.000 335.936 C 0.000 336.724,6.674 330.238,34.678 302.236 L 69.355 267.560 70.803 269.043 L 72.250 270.525 36.125 306.648 C 7.485 335.287,0.000 342.974,0.000 343.748 C 0.000 344.537,7.065 337.660,36.631 308.095 C 60.754 283.974,73.394 271.597,73.648 271.852 C 73.903 272.106,74.699 271.910,75.982 271.280 C 82.455 268.096,83.096 267.397,40.332 310.209 C 8.370 342.208,0.000 350.790,0.000 351.563 C 0.000 352.348,8.078 344.460,41.536 311.003 L 83.073 269.468 85.350 269.889 C 86.602 270.120,87.679 270.362,87.743 270.425 C 87.807 270.489,68.091 290.309,43.929 314.469 C 9.046 349.352,0.000 358.598,0.000 359.374 C 0.000 360.161,8.663 351.688,44.629 315.727 L 89.258 271.105 90.918 272.098 C 91.831 272.644,92.578 273.213,92.578 273.363 C 92.578 273.512,71.748 294.464,46.289 319.922 C 9.518 356.692,0.000 366.410,0.000 367.186 C 0.000 367.973,9.113 359.055,46.898 321.288 L 93.797 274.414 94.945 275.766 C 95.577 276.510,96.094 277.302,96.094 277.525 C 96.094 277.748,74.473 299.551,48.047 325.977 C 9.869 364.153,-0.000 374.223,0.000 374.999 C 0.000 375.785,9.407 366.568,48.340 327.636 C 74.928 301.050,96.800 279.297,96.945 279.297 C 97.091 279.297,97.429 280.277,97.697 281.474 L 98.184 283.651 49.092 332.744 C 10.110 371.727,0.000 382.038,0.000 382.812 C 0.000 383.598,9.572 374.224,49.067 334.765 C 97.743 286.133,98.132 285.756,97.876 287.494 C 97.118 292.635,99.877 289.644,47.791 341.797 C 9.866 379.771,0.000 389.851,0.000 390.625 C 0.000 391.410,9.440 382.161,48.346 343.256 L 96.691 294.912 97.514 295.734 C 98.296 296.517,98.396 296.526,99.556 295.926 C 100.227 295.579,101.261 295.115,101.853 294.896 C 102.473 294.666,81.088 316.345,51.465 345.979 C 10.589 386.869,-0.000 397.663,-0.000 398.438 C -0.000 399.222,10.318 389.096,52.736 346.679 L 105.473 293.945 107.872 294.035 C 109.191 294.084,110.369 294.224,110.490 294.344 C 110.610 294.465,86.986 318.287,57.992 347.282 C 15.588 389.686,5.465 400.000,6.250 400.000 C 7.025 400.000,18.033 389.192,59.805 347.421 L 112.385 294.842 113.712 295.517 C 114.442 295.888,115.271 296.377,115.554 296.603 C 115.952 296.921,104.338 308.747,64.578 348.508 C 23.156 389.931,13.278 400.000,14.062 400.000 C 14.837 400.000,25.552 389.489,66.129 348.926 L 117.219 297.852 118.620 299.364 L 120.020 300.877 70.460 350.439 C 30.551 390.349,21.090 400.000,21.876 400.000 C 22.652 400.000,32.873 389.979,71.657 351.195 C 98.499 324.352,120.587 302.467,120.741 302.562 C 120.895 302.657,121.304 303.567,121.650 304.583 L 122.280 306.430 75.496 353.215 C 37.808 390.904,28.902 400.000,29.689 400.000 C 30.464 400.000,40.061 390.604,76.344 354.320 C 101.468 329.196,122.166 308.728,122.341 308.835 C 122.692 309.053,122.412 311.558,121.800 313.672 C 121.488 314.746,112.295 324.157,78.964 357.520 C 44.741 391.776,36.714 400.000,37.501 400.000 C 38.276 400.000,46.900 391.578,79.289 359.187 L 120.100 318.375 121.582 319.822 L 123.065 321.270 83.701 360.635 C 51.949 392.388,44.526 400.000,45.314 400.000 C 46.089 400.000,54.321 391.969,85.144 361.145 L 123.998 322.289 124.905 323.141 L 125.811 323.993 228.531 221.274 C 285.026 164.779,331.250 118.393,331.250 118.195 C 331.250 117.997,330.951 117.505,330.586 117.102 C 329.949 116.397,331.318 114.973,364.961 81.328 C 392.700 53.587,400.000 46.084,400.000 45.312 C 400.000 44.526,393.121 51.217,364.456 79.880 L 328.912 115.422 327.448 113.958 L 325.984 112.494 362.992 75.485 C 392.307 46.168,400.000 38.272,400.000 37.500 C 400.000 36.714,392.511 44.013,361.412 75.111 C 319.218 117.303,321.942 114.844,317.419 114.844 L 315.822 114.844 357.911 72.753 C 391.291 39.372,400.000 30.461,400.000 29.687 C 400.000 28.902,391.639 37.073,357.051 71.660 L 314.102 114.608 311.875 113.906 L 309.648 113.204 354.824 68.027 C 390.673 32.177,400.000 22.649,400.000 21.875 C 400.000 21.090,391.100 29.800,354.351 66.547 C 304.777 116.120,308.475 112.735,306.360 110.473 L 305.493 109.545 352.746 62.293 C 390.289 24.751,400.000 14.840,400.000 14.064 C 400.000 13.277,390.711 22.375,352.246 60.835 L 304.492 108.583 303.613 107.046 C 303.130 106.201,302.734 105.280,302.734 105.000 C 302.734 104.720,324.619 82.607,351.367 55.859 C 390.013 17.214,400.000 7.027,400.000 6.251 C 400.000 5.465,390.468 14.807,351.033 54.240 C 302.426 102.846,302.065 103.196,301.815 101.945 C 301.024 97.990,296.525 102.890,350.488 48.926 C 389.889 9.524,399.223 0.000,398.436 0.000 C 397.660 0.000,387.711 9.749,350.016 47.445 C 323.922 73.540,302.505 94.823,302.423 94.740 C 302.340 94.658,302.710 93.719,303.245 92.655 L 304.217 90.719 303.384 89.886 L 302.551 89.052 347.075 44.526 C 382.956 8.644,391.411 0.000,390.624 0.000 C 389.848 0.000,380.639 9.010,345.898 43.756 C 314.177 75.483,301.637 87.781,300.288 88.489 C 298.631 89.359,294.649 90.625,293.571 90.625 C 293.348 90.625,313.555 70.234,338.477 45.312 C 374.986 8.802,383.598 0.000,382.811 0.000 C 382.036 0.000,372.522 9.313,336.573 45.263 C 299.535 82.302,291.159 90.493,290.479 90.339 C 290.022 90.236,288.960 89.980,288.119 89.770 L 286.590 89.388 331.282 44.694 C 367.266 8.709,375.785 0.000,375.000 0.000 C 374.226 0.000,364.862 9.162,329.671 44.352 L 285.318 88.704 283.620 87.474 L 281.922 86.244 325.042 43.122 C 359.768 8.395,367.973 -0.000,367.188 -0.000 C 366.414 -0.000,357.395 8.817,323.583 42.627 L 280.955 85.255 279.930 83.748 C 279.367 82.919,278.906 82.062,278.906 81.844 C 278.906 81.625,297.231 63.121,319.628 40.723 C 352.467 7.884,360.161 0.000,359.374 0.000 C 358.599 0.000,350.132 8.266,318.369 40.030 C 296.353 62.046,278.199 79.918,278.027 79.746 C 277.855 79.573,277.604 78.506,277.470 77.374 L 277.226 75.315 314.882 37.657 C 345.236 7.302,352.348 0.000,351.563 0.000 C 350.790 0.000,342.962 7.621,313.944 36.621 C 275.730 74.813,276.365 74.233,278.797 68.681 C 279.332 67.461,279.639 66.254,279.482 65.998 C 279.298 65.702,291.036 53.692,311.960 32.767 C 338.401 6.324,344.537 0.000,343.750 -0.000 C 342.979 -0.000,336.019 6.756,310.453 32.321 L 278.131 64.641 276.667 63.177 L 275.203 61.713 306.057 30.857 C 330.971 5.942,336.725 0.000,335.938 0.000 C 335.167 0.000,328.597 6.365,304.594 30.367 L 274.224 60.735 272.760 59.271 L 271.297 57.807 300.198 28.903 C 323.549 5.551,328.912 -0.000,328.125 0.000 C 327.355 0.000,321.175 5.975,298.734 28.414 L 270.318 56.828 268.854 55.365 L 267.390 53.901 294.339 26.950 C 316.127 5.161,321.100 0.000,320.313 0.000 C 319.544 0.000,313.754 5.584,292.875 26.461 L 266.412 52.922 264.948 51.458 L 263.484 49.995 288.479 24.997 C 308.705 4.770,313.288 0.000,312.500 0.000 C 311.732 0.000,306.332 5.193,287.016 24.508 L 262.505 49.016 261.042 47.552 L 259.578 46.088 282.620 23.044 C 301.283 4.379,305.476 -0.000,304.688 -0.000 C 303.921 -0.000,298.910 4.803,281.156 22.555 L 258.599 45.109 257.135 43.646 L 255.672 42.182 276.760 21.091 C 293.879 3.971,297.665 -0.000,296.873 -0.000 C 296.095 -0.000,265.954 29.944,147.949 147.949 M225.977 226.166 C 86.652 365.495,52.343 400.000,53.125 400.000 C 54.568 400.000,400.133 54.429,399.938 53.181 C 399.831 52.499,365.755 86.383,225.977 226.166 M251.478 60.041 C 246.485 65.035,246.247 65.150,247.012 62.200 C 247.963 58.532,251.529 55.484,254.881 55.473 C 255.985 55.469,255.794 55.725,251.478 60.041 M259.682 56.881 L 261.425 57.902 255.424 63.912 C 248.573 70.773,249.174 70.427,247.881 68.262 L 246.889 66.602 252.248 61.230 C 255.195 58.276,257.682 55.859,257.773 55.859 C 257.864 55.859,258.723 56.319,259.682 56.881 M263.106 60.730 C 264.041 62.967,263.852 63.309,259.031 68.118 L 254.389 72.747 252.878 72.260 C 249.936 71.312,249.893 71.407,256.123 65.166 C 262.571 58.707,262.326 58.863,263.106 60.730 M368.289 91.666 C 343.101 116.859,336.666 123.099,336.239 122.745 C 335.454 122.093,129.672 327.875,130.390 328.593 C 130.780 328.983,123.766 336.194,95.420 364.541 C 66.793 393.169,60.151 400.000,60.939 400.000 C 61.713 400.000,69.166 392.750,96.867 365.047 L 131.819 330.094 133.301 331.541 L 134.783 332.988 101.279 366.494 C 74.215 393.560,67.963 400.000,68.752 400.000 C 69.525 400.000,76.588 393.140,102.727 367.000 L 135.725 334.000 137.207 335.447 L 138.690 336.895 107.139 368.447 C 81.637 393.951,75.775 400.000,76.564 400.000 C 77.337 400.000,84.010 393.531,108.586 368.953 L 139.631 337.906 141.113 339.353 L 142.596 340.801 112.998 370.400 C 89.059 394.341,83.587 400.000,84.377 400.000 C 85.149 400.000,91.430 393.923,114.439 370.913 C 142.124 343.226,143.559 341.856,144.242 342.474 C 145.365 343.491,159.501 329.343,158.484 328.220 C 157.474 327.104,161.554 323.049,162.617 324.113 C 163.672 325.168,180.947 307.886,180.135 306.587 C 179.333 305.303,183.037 301.599,184.321 302.401 C 185.617 303.210,202.823 286.014,202.014 284.718 C 201.203 283.420,204.848 279.749,205.954 280.749 C 207.083 281.772,224.741 264.115,223.719 262.986 C 222.787 261.956,226.778 257.804,227.757 258.784 C 228.273 259.300,228.975 258.729,233.921 253.775 C 238.889 248.798,239.432 248.125,238.866 247.656 C 237.894 246.849,254.044 230.695,255.139 231.379 C 256.232 232.061,267.213 221.089,266.408 220.119 C 265.608 219.155,269.545 215.217,270.509 216.016 C 271.488 216.829,288.933 199.373,288.081 198.432 C 287.231 197.493,291.314 193.435,292.209 194.330 C 292.724 194.844,293.811 193.890,301.694 186.001 C 309.579 178.110,310.526 177.031,309.966 176.567 C 309.401 176.098,309.550 175.824,311.384 173.967 C 313.206 172.122,313.503 171.954,314.057 172.456 C 314.998 173.308,332.454 155.863,331.641 154.884 C 330.842 153.920,334.780 149.983,335.744 150.783 C 336.715 151.588,350.805 137.494,350.000 136.523 C 349.529 135.956,352.325 133.029,374.735 110.617 C 394.655 90.695,400.000 85.143,400.000 84.375 C 400.000 83.587,395.074 88.326,374.221 109.177 L 348.443 134.953 346.979 133.490 L 345.515 132.026 372.758 104.781 C 394.260 83.278,400.000 77.332,400.000 76.562 C 400.000 75.775,394.683 80.904,372.268 103.318 L 344.537 131.047 343.073 129.583 L 341.609 128.119 370.805 98.922 C 393.869 75.856,400.000 69.520,400.000 68.750 C 400.000 67.963,394.293 73.482,370.315 97.458 L 340.631 127.141 339.167 125.677 L 337.703 124.213 368.887 93.027 C 393.728 68.185,400.043 61.669,399.938 60.993 C 399.830 60.307,393.776 66.175,368.289 91.666 M263.265 67.034 C 262.628 68.710,261.048 70.626,259.748 71.298 C 256.441 73.008,256.471 72.671,259.941 69.173 C 263.643 65.440,263.945 65.246,263.265 67.034 M232.437 94.711 C 225.251 101.900,219.304 107.716,219.223 107.634 C 218.420 106.831,221.503 103.218,231.303 93.477 C 240.894 83.944,243.493 81.720,245.115 81.656 C 245.329 81.648,239.624 87.522,232.437 94.711 M250.414 82.281 L 252.015 82.922 249.750 85.211 C 248.008 86.972,247.220 87.500,246.335 87.500 C 244.343 87.500,225.215 106.795,224.904 109.118 C 224.820 109.746,223.909 111.037,222.647 112.314 L 220.530 114.458 219.852 113.186 C 218.449 110.556,218.102 111.004,233.299 95.803 C 241.086 88.014,247.762 81.641,248.135 81.641 C 248.507 81.641,249.533 81.929,250.414 82.281 M253.938 88.826 L 252.003 90.761 250.464 89.371 L 248.925 87.980 250.917 85.988 L 252.909 83.996 254.391 85.443 L 255.873 86.891 253.938 88.826 M257.820 92.756 L 255.861 94.715 254.406 93.260 L 252.951 91.805 254.878 89.849 L 256.805 87.892 258.292 89.345 L 259.780 90.797 257.820 92.756 M245.508 245.697 C 121.809 369.402,91.405 400.000,92.188 400.000 C 93.631 400.000,400.133 93.491,399.938 92.244 C 399.831 91.561,369.602 121.598,245.508 245.697 M261.727 96.663 L 259.767 98.622 258.312 97.167 L 256.857 95.711 258.784 93.755 L 260.711 91.799 262.198 93.251 L 263.686 94.703 261.727 96.663 M265.633 100.569 L 263.674 102.528 262.219 101.073 L 260.763 99.618 262.690 97.661 L 264.617 95.705 266.105 97.157 L 267.592 98.610 265.633 100.569 M249.414 249.604 C 128.840 370.183,99.217 400.000,100.000 400.000 C 101.443 400.000,400.133 101.304,399.938 100.056 C 399.831 99.373,370.372 128.641,249.414 249.604 M269.539 104.475 L 267.580 106.434 266.125 104.979 L 264.670 103.524 266.597 101.568 L 268.524 99.611 270.011 101.064 L 271.498 102.516 269.539 104.475 M273.445 108.381 L 271.486 110.340 270.031 108.885 L 268.576 107.430 270.503 105.474 L 272.430 103.517 273.917 104.970 L 275.405 106.422 273.445 108.381 M253.321 253.510 C 135.871 370.964,107.030 400.000,107.813 400.000 C 109.256 400.000,400.133 109.116,399.938 107.869 C 399.831 107.186,371.141 135.684,253.321 253.510 M277.352 112.288 L 275.392 114.247 273.937 112.792 L 272.482 111.336 274.409 109.380 L 276.336 107.424 277.823 108.876 L 279.311 110.328 277.352 112.288 M281.258 116.194 L 279.299 118.153 277.844 116.698 L 276.388 115.243 278.315 113.286 L 280.242 111.330 281.730 112.782 L 283.217 114.235 281.258 116.194 M226.961 113.094 L 228.294 114.470 226.257 116.507 L 224.221 118.544 222.765 117.088 L 221.310 115.633 223.238 113.676 C 225.533 111.346,225.302 111.382,226.961 113.094 M257.227 257.416 C 142.902 371.745,114.842 400.000,115.625 400.000 C 117.068 400.000,400.133 116.929,399.938 115.681 C 399.831 114.998,371.910 142.728,257.227 257.416 M285.164 120.100 L 283.205 122.059 281.750 120.604 L 280.295 119.149 282.222 117.193 L 284.149 115.236 285.636 116.689 L 287.123 118.141 285.164 120.100 M230.867 117.001 L 232.201 118.376 230.164 120.413 L 228.127 122.450 226.672 120.995 L 225.217 119.539 227.144 117.582 C 229.440 115.252,229.208 115.288,230.867 117.001 M289.025 124.062 L 287.028 126.084 285.638 124.545 L 284.248 123.007 286.152 121.075 L 288.055 119.142 289.538 120.591 L 291.022 122.040 289.025 124.062 M234.774 120.907 L 236.107 122.282 234.070 124.319 L 232.033 126.356 230.578 124.901 L 229.123 123.446 231.051 121.488 C 233.346 119.158,233.114 119.194,234.774 120.907 M261.133 261.322 C 149.934 372.527,122.655 400.000,123.438 400.000 C 124.880 400.000,400.133 124.741,399.938 123.494 C 399.831 122.811,372.680 149.771,261.133 261.322 M203.906 123.147 C 203.906 123.202,198.022 129.129,190.831 136.318 C 179.124 148.021,177.803 149.227,178.207 147.839 C 178.788 145.850,199.244 124.962,201.758 123.792 C 203.212 123.115,203.906 122.906,203.906 123.147 M209.266 123.644 L 210.694 124.240 208.583 126.378 C 207.422 127.554,206.150 128.516,205.756 128.516 C 204.253 128.516,202.648 129.907,193.262 139.357 C 185.015 147.658,183.594 149.258,183.594 150.241 C 183.594 151.122,183.083 151.898,181.431 153.529 C 179.054 155.876,178.933 155.857,178.054 153.001 L 177.595 151.510 191.823 137.279 C 206.961 122.136,206.507 122.491,209.266 123.644 M238.680 124.813 L 240.013 126.189 237.976 128.225 L 235.939 130.262 234.484 128.807 L 233.029 127.352 234.957 125.395 C 237.252 123.064,237.020 123.101,238.680 124.813 M292.558 124.902 C 292.781 125.708,292.965 126.718,292.967 127.146 C 292.970 128.423,265.707 155.469,264.416 155.469 C 263.223 155.469,260.938 154.730,260.938 154.344 C 260.938 153.845,265.426 149.692,266.219 149.457 C 267.249 149.152,287.109 129.237,287.109 128.510 C 287.109 127.945,291.335 123.438,291.864 123.438 C 292.022 123.438,292.334 124.097,292.558 124.902 M213.289 126.766 L 214.623 128.142 212.682 130.069 L 210.742 131.996 209.236 130.603 L 207.731 129.211 209.612 127.301 C 211.856 125.023,211.632 125.056,213.289 126.766 M242.586 128.719 L 243.919 130.095 241.882 132.132 L 239.846 134.169 238.390 132.713 L 236.935 131.258 238.863 129.301 C 241.158 126.971,240.927 127.007,242.586 128.719 M217.191 130.667 L 218.519 132.038 216.599 133.987 L 214.680 135.936 213.197 134.488 L 211.714 133.040 213.557 131.168 C 215.757 128.935,215.540 128.964,217.191 130.667 M291.771 131.995 C 290.638 134.009,270.899 153.628,269.141 154.487 C 268.247 154.923,272.034 150.879,280.076 142.811 C 286.842 136.023,292.434 130.469,292.503 130.469 C 292.572 130.469,292.242 131.155,291.771 131.995 M265.039 265.229 C 156.965 373.308,130.467 400.000,131.250 400.000 C 132.693 400.000,400.133 132.554,399.938 131.306 C 399.831 130.623,373.449 156.814,265.039 265.229 M246.492 132.626 L 247.826 134.001 245.789 136.038 L 243.752 138.075 242.297 136.620 L 240.842 135.164 242.769 133.207 C 245.065 130.877,244.833 130.913,246.492 132.626 M221.102 134.579 L 222.435 135.954 220.410 137.979 L 218.385 140.004 217.035 138.459 L 215.685 136.914 217.496 135.059 C 219.659 132.842,219.446 132.871,221.102 134.579 M250.399 136.532 L 251.732 137.907 249.695 139.944 L 247.658 141.981 246.203 140.526 L 244.748 139.071 246.676 137.113 C 248.971 134.783,248.739 134.819,250.399 136.532 M225.008 138.485 L 226.341 139.860 224.304 141.897 L 222.267 143.934 220.812 142.479 L 219.357 141.024 221.285 139.067 C 223.580 136.736,223.348 136.773,225.008 138.485 M268.946 269.135 C 163.996 374.089,138.280 400.000,139.063 400.000 C 140.505 400.000,400.133 140.366,399.938 139.119 C 399.831 138.436,374.219 163.857,268.946 269.135 M254.305 140.438 L 255.638 141.814 253.601 143.850 L 251.564 145.887 250.109 144.432 L 248.654 142.977 250.582 141.020 C 252.877 138.689,252.645 138.726,254.305 140.438 M228.914 142.391 L 230.248 143.767 228.211 145.804 L 226.174 147.840 224.719 146.385 L 223.263 144.930 225.191 142.973 C 227.486 140.643,227.255 140.679,228.914 142.391 M324.418 143.355 C 323.803 143.998,323.212 144.436,323.106 144.330 C 322.849 144.072,324.639 142.188,325.141 142.188 C 325.359 142.188,325.033 142.713,324.418 143.355 M328.914 143.954 L 330.248 145.329 328.211 147.366 L 326.174 149.403 324.719 147.948 L 323.263 146.493 325.191 144.535 C 327.486 142.205,327.255 142.241,328.914 143.954 M258.211 144.344 L 259.544 145.720 257.507 147.757 L 255.471 149.794 254.015 148.338 L 252.560 146.883 254.488 144.926 C 256.783 142.596,256.552 142.632,258.211 144.344 M232.821 146.297 L 234.154 147.673 232.117 149.710 L 230.080 151.747 228.625 150.292 L 227.170 148.836 229.098 146.879 C 231.393 144.549,231.161 144.585,232.821 146.297 M272.852 273.041 C 171.027 374.870,146.092 400.000,146.875 400.000 C 148.318 400.000,400.133 148.178,399.938 146.931 C 399.831 146.248,374.988 170.900,272.852 273.041 M332.821 147.860 L 334.154 149.235 332.117 151.272 L 330.080 153.309 328.625 151.854 L 327.170 150.399 329.098 148.442 C 331.393 146.111,331.161 146.148,332.821 147.860 M262.116 148.201 L 263.584 149.528 261.476 151.609 L 259.368 153.691 257.917 152.240 L 256.467 150.789 258.394 148.832 C 260.684 146.508,260.311 146.571,262.116 148.201 M236.727 150.204 L 238.060 151.579 236.023 153.616 L 233.986 155.653 232.531 154.198 L 231.076 152.743 233.004 150.785 C 235.299 148.455,235.067 148.491,236.727 150.204 M185.077 157.698 L 183.038 159.763 181.555 158.315 L 180.072 156.867 182.111 154.802 L 184.150 152.737 185.633 154.185 L 187.116 155.633 185.077 157.698 M240.633 154.110 L 241.966 155.485 239.929 157.522 L 237.892 159.559 236.437 158.104 L 234.982 156.649 236.910 154.692 C 239.205 152.361,238.973 152.398,240.633 154.110 M276.758 276.947 C 178.059 375.652,153.905 400.000,154.688 400.000 C 156.130 400.000,400.133 155.991,399.938 154.744 C 399.831 154.061,375.757 177.943,276.758 276.947 M188.983 161.604 L 186.944 163.669 185.461 162.221 L 183.978 160.773 186.017 158.708 L 188.056 156.644 189.539 158.092 L 191.022 159.540 188.983 161.604 M244.539 158.016 L 245.873 159.392 243.836 161.429 L 241.799 163.465 240.344 162.010 L 238.888 160.555 240.816 158.598 C 243.111 156.268,242.880 156.304,244.539 158.016 M192.889 165.510 L 190.850 167.575 189.367 166.127 L 187.884 164.679 189.923 162.615 L 191.962 160.550 193.445 161.998 L 194.928 163.446 192.889 165.510 M248.446 161.922 L 249.779 163.298 247.742 165.335 L 245.705 167.372 244.250 165.917 L 242.795 164.461 244.723 162.504 C 247.018 160.174,246.786 160.210,248.446 161.922 M280.664 280.854 C 185.090 376.433,161.717 400.000,162.500 400.000 C 163.943 400.000,400.133 163.803,399.938 162.556 C 399.831 161.873,376.527 184.986,280.664 280.854 M303.906 163.791 C 303.906 163.856,303.269 164.515,302.490 165.255 C 301.470 166.225,301.198 166.361,301.517 165.743 C 301.988 164.828,303.906 163.261,303.906 163.791 M196.795 169.417 L 194.756 171.481 193.274 170.033 L 191.791 168.585 193.830 166.521 L 195.869 164.456 197.351 165.904 L 198.834 167.352 196.795 169.417 M251.513 167.324 L 251.838 169.064 237.872 183.026 C 222.590 198.304,223.837 197.363,220.537 196.106 L 219.395 195.671 221.514 193.495 C 222.679 192.298,224.160 191.087,224.805 190.803 C 226.221 190.179,245.703 170.706,245.703 169.915 C 245.703 169.608,246.795 168.255,248.131 166.908 C 250.801 164.213,250.935 164.230,251.513 167.324 M307.237 165.686 L 308.641 166.920 306.582 169.005 L 304.522 171.091 303.040 169.643 L 301.558 168.196 303.401 166.325 C 305.586 164.106,305.461 164.127,307.237 165.686 M310.467 172.932 L 308.428 174.997 306.945 173.549 L 305.463 172.101 307.502 170.036 L 309.541 167.972 311.023 169.420 L 312.506 170.868 310.467 172.932 M200.702 173.323 L 198.663 175.388 197.180 173.940 L 195.697 172.492 197.736 170.427 L 199.775 168.362 201.258 169.810 L 202.741 171.258 200.702 173.323 M284.571 284.760 C 192.121 377.214,169.530 400.000,170.313 400.000 C 171.755 400.000,400.133 171.616,399.938 170.369 C 399.831 169.685,377.296 192.029,284.571 284.760 M156.641 170.412 C 156.641 170.467,150.752 176.399,143.555 183.594 C 132.648 194.497,130.534 196.449,130.859 195.313 C 131.074 194.564,131.250 193.875,131.250 193.782 C 131.250 193.117,153.194 171.662,154.492 171.057 C 155.946 170.380,156.641 170.172,156.641 170.412 M161.923 170.927 L 163.395 171.542 161.188 173.772 C 159.710 175.266,158.628 176.031,157.909 176.090 C 156.340 176.219,136.328 196.228,136.328 197.667 C 136.328 198.775,132.388 203.001,131.732 202.596 C 131.526 202.468,131.130 201.553,130.852 200.561 L 130.348 198.758 144.566 184.535 C 159.614 169.484,159.215 169.796,161.923 170.927 M250.552 173.145 C 249.848 174.541,231.580 193.158,229.141 194.965 C 225.397 197.738,227.565 195.291,238.867 183.984 C 245.525 177.324,251.021 171.875,251.082 171.875 C 251.142 171.875,250.904 172.446,250.552 173.145 M204.608 177.229 L 202.569 179.294 201.086 177.846 L 199.603 176.398 201.642 174.333 L 203.681 172.269 205.164 173.717 L 206.647 175.165 204.608 177.229 M166.024 174.032 L 167.357 175.407 165.320 177.444 L 163.283 179.481 161.828 178.026 L 160.373 176.571 162.301 174.613 C 164.596 172.283,164.364 172.319,166.024 174.032 M208.514 181.135 L 206.475 183.200 204.992 181.752 L 203.509 180.304 205.548 178.240 L 207.587 176.175 209.070 177.623 L 210.553 179.071 208.514 181.135 M169.930 177.938 L 171.263 179.314 169.226 181.350 L 167.189 183.387 165.734 181.932 L 164.279 180.477 166.207 178.520 C 168.502 176.189,168.270 176.226,169.930 177.938 M288.477 288.666 C 199.152 377.995,177.342 400.000,178.126 400.000 C 179.568 400.000,400.133 179.428,399.938 178.181 C 399.831 177.498,378.065 199.072,288.477 288.666 M212.420 185.042 L 210.381 187.106 208.899 185.658 L 207.416 184.210 209.455 182.146 L 211.494 180.081 212.976 181.529 L 214.459 182.977 212.420 185.042 M173.836 181.844 L 175.169 183.220 173.132 185.257 L 171.096 187.294 169.640 185.838 L 168.185 184.383 170.113 182.426 C 172.408 180.096,172.177 180.132,173.836 181.844 M216.327 188.948 L 214.288 191.013 212.805 189.565 L 211.322 188.117 213.361 186.052 L 215.400 183.987 216.883 185.435 L 218.366 186.883 216.327 188.948 M177.742 185.751 L 179.076 187.126 177.039 189.163 L 175.002 191.200 173.547 189.745 L 172.092 188.289 174.019 186.332 C 176.315 184.002,176.083 184.038,177.742 185.751 M292.383 292.572 C 206.184 378.777,185.154 400.000,185.938 400.000 C 187.380 400.000,400.133 187.241,399.938 185.994 C 399.831 185.310,378.835 206.116,292.383 292.572 M282.031 185.666 C 282.031 185.731,281.394 186.390,280.615 187.130 C 279.595 188.100,279.323 188.236,279.642 187.618 C 280.113 186.703,282.031 185.136,282.031 185.666 M284.690 190.897 L 282.655 192.957 281.721 192.084 C 279.819 190.305,279.833 189.924,281.880 187.846 L 283.758 185.939 285.241 187.388 L 286.725 188.836 284.690 190.897 M220.233 192.854 L 218.194 194.919 216.711 193.471 L 215.228 192.023 217.267 189.958 L 219.306 187.894 220.789 189.342 L 222.272 190.790 220.233 192.854 M181.649 189.657 L 182.982 191.032 180.945 193.069 L 178.908 195.106 177.453 193.651 L 175.998 192.196 177.926 190.238 C 180.221 187.908,179.989 187.944,181.649 189.657 M288.592 194.807 L 286.553 196.872 285.070 195.424 L 283.588 193.976 285.627 191.911 L 287.666 189.847 289.148 191.295 L 290.631 192.743 288.592 194.807 M185.555 193.563 L 186.888 194.939 184.851 196.975 L 182.814 199.012 181.359 197.557 L 179.904 196.102 181.832 194.145 C 184.127 191.814,183.895 191.851,185.555 193.563 M296.289 296.479 C 213.215 379.558,192.967 400.000,193.751 400.000 C 195.193 400.000,400.133 195.053,399.938 193.806 C 399.831 193.123,379.604 213.159,296.289 296.479 M189.461 197.469 L 190.794 198.845 188.757 200.882 L 186.721 202.919 185.265 201.463 L 183.810 200.008 185.738 198.051 C 188.033 195.721,187.802 195.757,189.461 197.469 M137.811 204.964 L 135.772 207.028 134.289 205.580 L 132.806 204.132 134.845 202.068 L 136.884 200.003 138.367 201.451 L 139.850 202.899 137.811 204.964 M193.367 201.376 L 194.701 202.751 192.664 204.788 L 190.627 206.825 189.172 205.370 L 187.717 203.914 189.644 201.957 C 191.940 199.627,191.708 199.663,193.367 201.376 M300.196 300.385 C 220.246 380.339,200.779 400.000,201.563 400.000 C 203.005 400.000,400.133 202.866,399.938 201.619 C 399.831 200.935,380.374 220.202,300.196 300.385 M141.717 208.870 L 139.678 210.934 138.195 209.486 L 136.713 208.039 138.752 205.974 L 140.791 203.909 142.273 205.357 L 143.756 206.805 141.717 208.870 M197.274 205.282 L 198.607 206.657 196.570 208.694 L 194.533 210.731 193.078 209.276 L 191.623 207.821 193.551 205.863 C 195.846 203.533,195.614 203.569,197.274 205.282 M259.184 208.590 C 258.568 209.232,257.978 209.671,257.872 209.565 C 257.614 209.307,259.404 207.422,259.907 207.422 C 260.124 207.422,259.799 207.947,259.184 208.590 M145.623 212.776 L 143.584 214.841 142.102 213.393 L 140.619 211.945 142.658 209.880 L 144.697 207.816 146.180 209.264 L 147.662 210.711 145.623 212.776 M201.176 209.184 L 202.505 210.555 200.430 212.655 L 198.356 214.756 196.966 213.217 L 195.576 211.679 197.481 209.746 C 199.749 207.443,199.522 207.477,201.176 209.184 M263.680 209.188 L 265.013 210.564 262.976 212.600 L 260.939 214.637 259.484 213.182 L 258.029 211.727 259.957 209.770 C 262.252 207.439,262.020 207.476,263.680 209.188 M304.102 304.291 C 227.277 381.120,208.592 400.000,209.376 400.000 C 210.818 400.000,400.133 210.678,399.938 209.431 C 399.831 208.748,381.143 227.245,304.102 304.291 M102.733 224.416 C 95.537 231.614,89.595 237.340,89.529 237.140 C 88.796 234.943,112.530 211.474,115.623 211.337 C 115.729 211.332,109.928 217.218,102.733 224.416 M119.531 211.722 C 122.246 212.496,122.266 212.664,119.935 215.025 C 118.471 216.508,117.492 217.188,116.818 217.188 C 115.389 217.188,94.922 237.655,94.922 239.084 C 94.922 240.796,90.846 244.503,90.230 243.351 C 88.552 240.216,87.556 241.550,103.416 225.686 C 111.310 217.789,117.858 211.329,117.967 211.330 C 118.075 211.332,118.779 211.508,119.531 211.722 M149.530 216.682 L 147.491 218.747 146.008 217.299 L 144.525 215.851 146.564 213.786 L 148.603 211.722 150.086 213.170 L 151.569 214.618 149.530 216.682 M204.297 215.375 C 204.297 216.461,202.760 218.135,190.529 230.369 C 175.880 245.023,176.302 244.695,173.546 243.544 L 172.117 242.946 174.425 240.614 C 175.695 239.331,176.995 238.281,177.314 238.281 C 178.058 238.281,197.974 218.442,198.285 217.391 C 198.413 216.957,199.590 215.507,200.900 214.169 L 203.281 211.736 203.789 212.944 C 204.068 213.609,204.297 214.702,204.297 215.375 M267.586 213.094 L 268.919 214.470 266.882 216.507 L 264.846 218.544 263.390 217.088 L 261.935 215.633 263.863 213.676 C 266.158 211.346,265.927 211.382,267.586 213.094 M124.139 218.635 L 122.100 220.700 120.617 219.252 L 119.134 217.804 121.173 215.740 L 123.212 213.675 124.695 215.123 L 126.178 216.571 124.139 218.635 M153.436 220.589 L 151.397 222.653 149.914 221.205 L 148.431 219.757 150.470 217.693 L 152.509 215.628 153.992 217.076 L 155.475 218.524 153.436 220.589 M308.008 308.197 C 234.309 381.902,216.404 400.000,217.188 400.000 C 218.630 400.000,400.133 218.490,399.938 217.244 C 399.831 216.560,381.912 234.288,308.008 308.197 M128.045 222.542 L 126.006 224.606 124.524 223.158 L 123.041 221.710 125.080 219.646 L 127.119 217.581 128.601 219.029 L 130.084 220.477 128.045 222.542 M203.099 220.666 C 201.967 222.681,182.227 242.300,180.469 243.158 C 179.575 243.595,183.362 239.551,191.404 231.483 C 198.170 224.695,203.763 219.141,203.831 219.141 C 203.900 219.141,203.570 219.827,203.099 220.666 M157.342 224.495 L 155.303 226.559 153.820 225.111 L 152.338 223.664 154.377 221.599 L 156.416 219.534 157.898 220.982 L 159.381 222.430 157.342 224.495 M131.952 226.448 L 129.913 228.513 128.430 227.065 L 126.947 225.617 128.986 223.552 L 131.025 221.487 132.508 222.935 L 133.991 224.383 131.952 226.448 M161.248 228.401 L 159.209 230.466 157.727 229.018 L 156.244 227.570 158.283 225.505 L 160.322 223.441 161.805 224.889 L 163.287 226.336 161.248 228.401 M311.914 312.103 C 241.340 382.683,224.216 400.000,225.001 400.000 C 226.442 400.000,400.133 226.303,399.938 225.056 C 399.831 224.372,382.682 241.331,311.914 312.103 M237.709 230.065 C 232.054 235.732,232.204 235.642,233.018 232.901 C 234.100 229.258,238.893 225.136,242.182 225.020 C 242.501 225.009,240.488 227.279,237.709 230.065 M247.305 225.444 C 248.035 225.688,248.761 226.001,248.918 226.139 C 249.075 226.277,245.704 229.886,241.428 234.158 L 233.653 241.926 232.995 239.662 L 232.337 237.399 238.527 231.199 C 244.910 224.807,245.076 224.699,247.305 225.444 M135.858 230.354 L 133.819 232.419 132.336 230.971 L 130.853 229.523 132.892 227.458 L 134.931 225.394 136.414 226.842 L 137.897 228.290 135.858 230.354 M245.421 237.977 C 240.961 242.441,237.281 246.094,237.243 246.094 C 237.206 246.094,236.606 245.375,235.910 244.497 L 234.646 242.900 242.606 234.933 L 250.566 226.966 252.048 228.413 L 253.531 229.861 245.421 237.977 M165.155 232.307 L 163.116 234.372 161.633 232.924 L 160.150 231.476 162.189 229.411 L 164.228 227.347 165.711 228.795 L 167.194 230.243 165.155 232.307 M139.764 234.260 L 137.725 236.325 136.242 234.877 L 134.759 233.429 136.798 231.365 L 138.837 229.300 140.320 230.748 L 141.803 232.196 139.764 234.260 M169.061 236.214 L 167.022 238.278 165.539 236.830 L 164.056 235.382 166.095 233.318 L 168.134 231.253 169.617 232.701 L 171.100 234.149 169.061 236.214 M315.821 316.010 C 248.371 383.464,232.029 400.000,232.813 400.000 C 234.255 400.000,400.133 234.115,399.938 232.869 C 399.831 232.185,383.451 248.374,315.821 316.010 M143.670 238.167 L 141.631 240.231 140.149 238.783 L 138.666 237.335 140.705 235.271 L 142.744 233.206 144.226 234.654 L 145.709 236.102 143.670 238.167 M172.967 240.120 L 170.928 242.184 169.445 240.736 L 167.963 239.289 170.002 237.224 L 172.041 235.159 173.523 236.607 L 175.006 238.055 172.967 240.120 M147.577 242.073 L 145.538 244.138 144.055 242.690 L 142.572 241.242 144.611 239.177 L 146.650 237.112 148.133 238.560 L 149.616 240.008 147.577 242.073 M67.962 243.566 C 63.536 248.011,63.475 248.054,63.353 246.868 C 62.995 243.390,67.273 239.194,71.283 239.092 C 72.374 239.064,72.164 239.348,67.962 243.566 M76.325 240.477 L 77.832 241.501 71.715 247.606 L 65.599 253.711 64.829 252.734 C 63.067 250.497,63.140 250.348,68.790 244.687 C 74.596 238.869,74.246 239.064,76.325 240.477 M319.727 319.916 C 255.402 384.245,239.841 400.000,240.626 400.000 C 242.067 400.000,400.133 241.928,399.938 240.681 C 399.831 239.997,384.220 255.417,319.727 319.916 M151.483 245.979 L 149.444 248.044 147.961 246.596 L 146.478 245.148 148.517 243.083 L 150.556 241.019 152.039 242.467 L 153.522 243.915 151.483 245.979 M96.492 246.272 L 94.533 248.231 93.078 246.776 L 91.623 245.321 93.550 243.364 L 95.477 241.408 96.964 242.860 L 98.451 244.313 96.492 246.272 M80.068 246.295 C 80.074 246.788,78.346 248.810,75.440 251.708 C 70.427 256.709,70.628 256.617,67.816 255.186 L 66.688 254.611 72.699 248.583 L 78.711 242.554 79.384 244.031 C 79.755 244.843,80.062 245.862,80.068 246.295 M155.389 249.885 L 153.350 251.950 151.867 250.502 L 150.384 249.054 152.423 246.990 L 154.462 244.925 155.945 246.373 L 157.428 247.821 155.389 249.885 M100.399 250.178 L 98.439 252.137 96.984 250.682 L 95.529 249.227 97.456 247.271 L 99.383 245.314 100.870 246.767 L 102.358 248.219 100.399 250.178 M323.633 323.822 C 262.434 385.027,247.654 400.000,248.438 400.000 C 249.880 400.000,400.133 249.740,399.938 248.494 C 399.831 247.809,384.990 262.460,323.633 323.822 M159.295 253.792 L 157.256 255.856 155.774 254.408 L 154.291 252.960 156.330 250.896 L 158.369 248.831 159.851 250.279 L 161.334 251.727 159.295 253.792 M79.672 250.628 C 79.034 252.304,77.454 254.220,76.154 254.892 C 72.847 256.602,72.878 256.265,76.347 252.767 C 80.050 249.034,80.351 248.840,79.672 250.628 M104.305 254.084 L 102.346 256.044 100.890 254.588 L 99.435 253.133 101.362 251.177 L 103.289 249.221 104.777 250.673 L 106.264 252.125 104.305 254.084 M217.578 250.119 C 217.578 250.184,216.941 250.843,216.162 251.584 C 215.142 252.553,214.870 252.689,215.188 252.071 C 215.660 251.156,217.578 249.589,217.578 250.119 M220.233 255.354 L 218.194 257.419 216.711 255.971 L 215.228 254.523 217.267 252.458 L 219.306 250.394 220.789 251.842 L 222.272 253.290 220.233 255.354 M108.211 257.991 L 106.252 259.950 104.797 258.495 L 103.342 257.039 105.269 255.083 L 107.195 253.127 108.683 254.579 L 110.170 256.031 108.211 257.991 M162.901 255.513 L 163.381 257.513 149.366 271.537 C 133.985 286.928,135.253 285.974,131.906 284.682 L 130.804 284.257 133.262 281.777 C 134.613 280.413,135.981 279.297,136.300 279.297 C 137.028 279.297,157.031 259.392,157.031 258.668 C 157.031 257.996,161.720 253.080,162.123 253.329 C 162.287 253.430,162.637 254.413,162.901 255.513 M224.139 259.260 L 222.100 261.325 220.617 259.877 L 219.134 258.429 221.173 256.365 L 223.212 254.300 224.695 255.748 L 226.178 257.196 224.139 259.260 M327.539 327.728 C 269.465 385.808,255.466 400.000,256.251 400.000 C 257.692 400.000,400.133 257.552,399.938 256.306 C 399.831 255.622,385.759 269.503,327.539 327.728 M112.117 261.897 L 110.158 263.856 108.703 262.401 L 107.248 260.946 109.175 258.989 L 111.102 257.033 112.589 258.485 L 114.076 259.938 112.117 261.897 M162.271 261.426 C 161.568 262.821,142.911 281.827,140.469 283.637 C 136.716 286.417,138.910 283.946,150.391 272.461 C 157.156 265.693,162.740 260.156,162.801 260.156 C 162.861 260.156,162.623 260.728,162.271 261.426 M116.024 265.803 L 114.064 267.762 112.609 266.307 L 111.154 264.852 113.081 262.896 L 115.008 260.939 116.495 262.392 L 117.983 263.844 116.024 265.803 M331.446 331.635 C 276.496 386.589,263.278 400.000,264.063 400.000 C 265.505 400.000,400.133 265.365,399.938 264.118 C 399.831 263.434,386.529 276.547,331.446 331.635 M119.930 269.709 L 117.971 271.669 116.515 270.213 L 115.060 268.758 116.987 266.802 L 118.914 264.846 120.402 266.298 L 121.889 267.750 119.930 269.709 M123.836 273.616 L 121.877 275.575 120.422 274.120 L 118.967 272.664 120.894 270.708 L 122.820 268.752 124.308 270.204 L 125.795 271.656 123.836 273.616 M335.352 335.541 C 283.528 387.371,271.091 400.000,271.876 400.000 C 273.317 400.000,400.133 273.177,399.938 271.931 C 399.830 271.246,387.298 283.590,335.352 335.541 M194.730 273.043 C 194.115 273.685,193.511 274.110,193.388 273.986 C 193.163 273.761,195.141 271.875,195.603 271.875 C 195.738 271.875,195.346 272.401,194.730 273.043 M198.445 277.131 L 196.486 279.090 195.031 277.635 L 193.576 276.180 195.503 274.224 L 197.430 272.267 198.917 273.720 L 200.405 275.172 198.445 277.131 M127.697 277.577 L 125.700 279.599 124.310 278.061 L 122.920 276.523 124.823 274.590 L 126.727 272.658 128.210 274.107 L 129.694 275.555 127.697 277.577 M202.352 281.038 L 200.392 282.997 198.937 281.542 L 197.482 280.086 199.409 278.130 L 201.336 276.174 202.823 277.626 L 204.311 279.078 202.352 281.038 M133.561 279.312 C 133.579 279.427,132.724 280.378,131.660 281.426 L 129.727 283.330 128.193 281.944 L 126.659 280.558 128.637 278.581 L 130.614 276.603 132.071 277.852 C 132.872 278.539,133.542 279.196,133.561 279.312 M339.258 339.447 C 290.559 388.152,278.903 400.000,279.688 400.000 C 281.129 400.000,400.133 280.989,399.938 279.743 C 399.830 279.059,388.067 290.633,339.258 339.447 M343.165 343.353 C 297.590 388.933,286.715 400.000,287.501 400.000 C 288.942 400.000,400.133 288.802,399.938 287.556 C 399.830 286.871,388.837 297.676,343.165 343.353 M173.828 293.872 C 173.828 293.939,173.274 294.511,172.596 295.142 C 171.400 296.255,171.391 295.819,172.581 294.434 C 173.090 293.840,173.828 293.508,173.828 293.872 M177.352 295.516 L 178.685 296.892 176.648 298.929 L 174.611 300.965 173.156 299.510 L 171.701 298.055 173.629 296.098 C 175.924 293.768,175.692 293.804,177.352 295.516 M347.071 347.260 C 304.621 389.714,294.527 400.000,295.314 400.000 C 296.754 400.000,400.133 296.614,399.938 295.368 C 399.830 294.683,389.606 304.719,347.071 347.260 M181.258 299.422 L 182.591 300.798 180.554 302.835 L 178.517 304.872 177.062 303.417 L 175.607 301.961 177.535 300.004 C 179.830 297.674,179.598 297.710,181.258 299.422 M350.977 351.166 C 311.653 390.496,302.340 400.000,303.126 400.000 C 304.566 400.000,400.133 304.426,399.938 303.181 C 399.830 302.495,390.375 311.762,350.977 351.166 M354.883 355.072 C 318.684 391.277,310.152 400.000,310.939 400.000 C 312.379 400.000,400.132 312.238,399.938 310.993 C 399.830 310.308,391.145 318.805,354.883 355.072 M151.953 315.747 C 151.953 315.814,151.399 316.386,150.721 317.017 C 149.525 318.130,149.516 317.694,150.706 316.309 C 151.215 315.715,151.953 315.383,151.953 315.747 M155.748 317.268 L 157.040 318.521 155.000 320.587 L 152.959 322.653 151.477 321.206 L 149.995 319.758 151.838 317.887 C 154.023 315.669,154.087 315.659,155.748 317.268 M358.790 358.978 C 325.715 392.058,317.964 400.000,318.751 400.000 C 320.191 400.000,400.132 320.050,399.938 318.805 C 399.830 318.120,391.914 325.848,358.790 358.978 M158.905 324.495 L 156.866 326.559 155.383 325.111 L 153.900 323.664 155.939 321.599 L 157.978 319.534 159.461 320.982 L 160.944 322.430 158.905 324.495 M362.696 362.884 C 332.747 392.840,325.776 400.000,326.564 400.000 C 328.003 400.000,400.132 327.862,399.938 326.618 C 399.830 325.932,392.683 332.891,362.696 362.884 M366.602 366.790 C 339.778 393.621,333.588 400.000,334.377 400.000 C 335.815 400.000,400.132 335.674,399.938 334.430 C 399.830 333.743,393.453 339.934,366.602 366.790 M370.509 370.697 C 346.809 394.402,341.399 400.000,342.189 400.000 C 343.627 400.000,400.132 343.486,399.938 342.242 C 399.830 341.555,394.222 346.977,370.509 370.697 M374.415 374.603 C 353.841 395.184,349.211 400.000,350.002 400.000 C 351.439 400.000,400.132 351.297,399.938 350.055 C 399.830 349.366,394.991 354.020,374.415 374.603 M378.322 378.509 C 360.872 395.965,357.022 400.000,357.815 400.000 C 359.250 400.000,400.132 359.108,399.938 357.867 C 399.830 357.177,395.761 361.063,378.322 378.509 M382.228 382.415 C 367.904 396.746,364.832 400.000,365.628 400.000 C 367.062 400.000,400.131 366.918,399.937 365.679 C 399.829 364.988,396.530 368.106,382.228 382.415 M386.135 386.321 C 374.935 397.528,372.642 400.000,373.442 400.000 C 374.872 400.000,400.131 374.728,399.937 373.490 C 399.829 372.797,397.299 375.148,386.135 386.321 M390.042 390.226 C 381.967 398.310,380.448 400.000,381.256 400.000 C 382.680 400.000,400.130 382.534,399.937 381.301 C 399.828 380.603,398.068 382.191,390.042 390.226 M393.950 394.130 C 389.000 399.093,388.247 400.000,389.073 400.000 C 390.481 400.000,400.127 390.330,399.937 389.110 C 399.827 388.401,398.836 389.231,393.950 394.130 M397.866 398.027 C 396.040 399.886,395.985 400.000,396.914 400.000 C 398.197 400.000,400.111 398.034,399.935 396.897 C 399.819 396.144,399.598 396.264,397.866 398.027 " stroke="none" fill="#000000" fill-rule="evenodd"></path></g></svg>