<svg id="svg" version="1.1" xmlns="http://www.w3.org/2000/svg" xmlns:xlink="http://www.w3.org/1999/xlink" width="400" height="400" viewBox="0, 0, 400,400"><g id="svgg"><path id="path0" d="M220.983 49.121 C 220.897 49.282,206.443 98.589,188.862 158.691 C 171.282 218.794,156.788 267.969,156.653 267.969 C 156.518 267.969,145.781 241.958,132.794 210.167 L 109.180 152.365 62.402 152.354 L 15.625 152.344 15.625 172.852 L 15.625 193.359 48.535 193.365 L 81.445 193.371 105.836 252.838 C 119.251 285.545,133.820 321.050,138.211 331.738 L 146.196 351.172 160.707 351.172 L 175.218 351.172 212.680 223.340 C 233.284 153.032,250.556 94.146,251.062 92.480 L 251.983 89.453 318.179 89.453 L 384.375 89.453 384.375 69.141 L 384.375 48.828 302.757 48.828 C 257.868 48.828,221.069 48.960,220.983 49.121 " stroke="none" fill="#000000" fill-rule="evenodd"></path></g></svg>