<svg id="svg" version="1.1" xmlns="http://www.w3.org/2000/svg" xmlns:xlink="http://www.w3.org/1999/xlink" width="400" height="400" viewBox="0, 0, 400,400"><g id="svgg"><path id="path0" d="M38.857 52.964 C 21.139 58.520,15.046 80.490,27.561 93.698 C 30.607 96.914,41.083 103.146,119.318 148.284 C 167.893 176.310,207.703 199.486,207.787 199.787 C 207.870 200.087,168.921 222.083,121.233 248.667 C 40.088 293.901,34.301 297.244,30.987 300.810 C 19.267 313.422,23.304 332.685,39.251 340.241 L 43.667 342.333 195.333 342.531 C 306.759 342.676,348.055 342.527,350.978 341.969 C 374.883 337.405,378.854 305.120,356.783 294.774 L 353.000 293.000 249.333 292.667 L 145.667 292.333 150.000 289.870 C 152.383 288.514,181.183 272.423,214.000 254.111 C 286.335 213.748,283.667 215.820,283.667 200.000 C 283.667 184.697,286.660 186.992,206.288 140.667 L 139.782 102.333 250.072 102.000 L 360.362 101.667 364.795 99.484 C 383.761 90.147,383.761 63.853,364.795 54.516 L 360.362 52.333 201.014 52.208 C 70.551 52.106,41.157 52.243,38.857 52.964 " stroke="none" fill="#000000" fill-rule="evenodd"></path></g></svg>