<svg id="svg" version="1.1" xmlns="http://www.w3.org/2000/svg" xmlns:xlink="http://www.w3.org/1999/xlink" width="400" height="400" viewBox="0, 0, 400,400"><g id="svgg"><path id="path0" d="M105.859 25.259 C 78.590 26.718,62.817 32.855,47.836 47.836 C 33.163 62.509,27.016 77.857,25.378 103.906 C 24.584 116.540,25.062 296.885,25.908 303.906 C 30.482 341.857,53.475 367.130,88.792 373.024 C 99.400 374.795,96.213 374.739,194.922 374.897 C 289.541 375.049,296.569 374.968,307.011 373.604 C 345.367 368.595,369.488 343.374,374.112 303.443 C 375.183 294.195,375.179 105.791,374.108 96.484 C 371.611 74.793,365.402 61.033,352.163 47.852 C 337.355 33.108,322.133 27.032,295.898 25.393 C 290.391 25.049,112.137 24.924,105.859 25.259 M100.977 79.265 L 134.961 94.459 134.961 99.611 L 134.961 104.762 101.563 119.685 C 83.193 127.893,67.856 134.726,67.480 134.870 C 66.848 135.112,66.797 134.687,66.797 129.157 L 66.797 123.183 93.543 111.494 C 108.253 105.065,120.289 99.717,120.289 99.609 C 120.289 99.502,108.253 94.154,93.543 87.725 L 66.797 76.036 66.797 70.049 C 66.797 66.756,66.841 64.064,66.895 64.067 C 66.948 64.069,82.285 70.908,100.977 79.265 M208.203 146.875 L 208.203 150.391 174.609 150.391 L 141.016 150.391 141.016 146.875 L 141.016 143.359 174.609 143.359 L 208.203 143.359 208.203 146.875 " stroke="none" fill="#2f2f2f" fill-rule="evenodd"></path><path id="path1" d="M66.884 70.170 L 66.992 75.886 93.847 87.650 C 108.618 94.120,120.703 99.502,120.703 99.609 C 120.703 99.717,108.618 105.098,93.847 111.569 L 66.992 123.333 66.884 129.049 C 66.825 132.193,66.893 134.766,67.037 134.766 C 67.262 134.766,130.010 106.799,133.496 105.145 L 134.766 104.543 134.766 99.609 L 134.766 94.676 133.496 94.072 C 130.108 92.461,67.263 64.453,67.037 64.453 C 66.893 64.453,66.825 67.026,66.884 70.170 M141.016 147.070 L 141.016 150.391 174.609 150.391 L 208.203 150.391 208.203 147.070 L 208.203 143.750 174.609 143.750 L 141.016 143.750 141.016 147.070 " stroke="none" fill="#fafafa" fill-rule="evenodd"></path><path id="path2" d="M134.570 99.609 C 134.570 102.576,134.702 104.922,134.863 104.822 C 135.024 104.723,135.156 102.377,135.156 99.609 C 135.156 96.842,135.024 94.496,134.863 94.396 C 134.702 94.297,134.570 96.643,134.570 99.609 M157.715 143.652 C 167.007 143.711,182.212 143.711,191.504 143.652 C 200.796 143.594,193.193 143.546,174.609 143.546 C 156.025 143.546,148.423 143.594,157.715 143.652 " stroke="none" fill="#6c6c6c" fill-rule="evenodd"></path><path id="path3" d="" stroke="none" fill="#848484" fill-rule="evenodd"></path></g></svg>