<svg id="svg" version="1.1" xmlns="http://www.w3.org/2000/svg" xmlns:xlink="http://www.w3.org/1999/xlink" width="400" height="400" viewBox="0, 0, 400,400"><g id="svgg"><path id="path0" d="M183.308 0.811 C 61.077 19.958,11.354 228.749,100.862 347.019 C 140.273 399.093,203.265 414.786,255.469 385.533 C 359.612 327.178,376.544 128.919,285.197 37.447 C 256.481 8.693,219.009 -4.781,183.308 0.811 M212.570 56.952 C 248.943 66.270,278.254 110.143,287.133 168.555 L 287.637 171.875 200.000 171.875 L 112.363 171.875 112.867 168.555 C 124.036 95.076,168.241 45.595,212.570 56.952 M287.133 231.445 C 277.121 297.311,240.738 344.531,200.000 344.531 C 159.262 344.531,122.879 297.311,112.867 231.445 L 112.363 228.125 200.000 228.125 L 287.637 228.125 287.133 231.445 " stroke="none" fill="#000000" fill-rule="evenodd"></path></g></svg>