<svg id="svg" version="1.1" xmlns="http://www.w3.org/2000/svg" xmlns:xlink="http://www.w3.org/1999/xlink" width="400" height="400" viewBox="0, 0, 400,400"><g id="svgg"><path id="path0" d="M156.201 0.273 C 154.442 0.363,152.831 0.609,152.621 0.819 C 152.412 1.028,150.847 1.200,149.144 1.200 C 147.441 1.200,145.936 1.380,145.800 1.600 C 145.664 1.820,144.753 2.000,143.776 2.000 C 142.799 2.000,142.000 2.180,142.000 2.400 C 142.000 2.620,141.100 2.800,140.000 2.800 C 138.900 2.800,138.000 2.980,138.000 3.200 C 138.000 3.420,137.100 3.600,136.000 3.600 C 134.900 3.600,134.000 3.780,134.000 4.000 C 134.000 4.220,133.201 4.400,132.224 4.400 C 131.247 4.400,130.336 4.580,130.200 4.800 C 130.064 5.020,129.423 5.200,128.776 5.200 C 128.129 5.200,127.600 5.380,127.600 5.600 C 127.600 5.820,126.970 6.000,126.200 6.000 C 125.430 6.000,124.800 6.180,124.800 6.400 C 124.800 6.620,124.080 6.800,123.200 6.800 C 122.320 6.800,121.600 6.980,121.600 7.200 C 121.600 7.420,121.060 7.600,120.400 7.600 C 119.740 7.600,119.200 7.780,119.200 8.000 C 119.200 8.220,118.754 8.400,118.208 8.400 C 117.179 8.400,111.522 10.124,110.305 10.809 C 109.923 11.024,109.338 11.200,109.005 11.200 C 108.672 11.200,108.400 11.380,108.400 11.600 C 108.400 11.820,107.860 12.000,107.200 12.000 C 106.540 12.000,106.000 12.180,106.000 12.400 C 106.000 12.620,105.640 12.800,105.200 12.800 C 104.760 12.800,104.400 12.980,104.400 13.200 C 104.400 13.420,103.961 13.600,103.424 13.600 C 102.887 13.600,102.336 13.780,102.200 14.000 C 102.064 14.220,101.603 14.400,101.176 14.400 C 100.749 14.400,100.400 14.580,100.400 14.800 C 100.400 15.020,100.040 15.200,99.600 15.200 C 99.160 15.200,98.800 15.380,98.800 15.600 C 98.800 15.820,98.440 16.000,98.000 16.000 C 97.560 16.000,97.200 16.180,97.200 16.400 C 97.200 16.620,96.750 16.800,96.200 16.800 C 95.650 16.800,95.200 16.980,95.200 17.200 C 95.200 17.420,94.928 17.600,94.595 17.600 C 93.886 17.600,92.570 18.311,91.445 19.300 C 91.007 19.685,90.413 20.000,90.125 20.000 C 89.836 20.000,89.600 20.180,89.600 20.400 C 89.600 20.620,89.240 20.800,88.800 20.800 C 88.360 20.800,88.000 20.980,88.000 21.200 C 88.000 21.420,87.640 21.600,87.200 21.600 C 86.760 21.600,86.400 21.780,86.400 22.000 C 86.400 22.220,86.040 22.400,85.600 22.400 C 85.160 22.400,84.800 22.580,84.800 22.800 C 84.800 23.020,84.564 23.200,84.275 23.200 C 83.987 23.200,83.364 23.560,82.892 24.000 C 82.420 24.440,81.821 24.800,81.561 24.800 C 81.083 24.800,74.621 28.955,73.698 29.857 C 73.421 30.127,72.836 30.462,72.398 30.601 C 71.959 30.740,71.600 31.022,71.600 31.227 C 71.600 31.432,71.352 31.600,71.048 31.600 C 70.745 31.600,69.755 32.320,68.848 33.200 C 67.941 34.080,67.041 34.800,66.848 34.800 C 66.655 34.800,65.755 35.520,64.848 36.400 C 63.941 37.280,63.019 38.000,62.800 38.000 C 62.580 38.000,62.400 38.180,62.400 38.400 C 62.400 38.620,62.212 38.800,61.982 38.800 C 61.752 38.800,60.447 39.925,59.082 41.300 C 57.717 42.676,55.432 44.791,54.004 46.000 C 50.656 48.837,49.989 49.504,48.804 51.200 C 48.266 51.970,47.184 53.230,46.400 54.000 C 45.616 54.770,44.562 55.986,44.059 56.702 C 43.555 57.418,42.526 58.658,41.772 59.458 C 41.017 60.257,40.400 61.117,40.400 61.368 C 40.400 61.618,40.040 62.083,39.600 62.400 C 39.160 62.717,38.800 63.180,38.800 63.429 C 38.800 63.678,38.260 64.446,37.600 65.137 C 36.940 65.828,36.400 66.625,36.400 66.908 C 36.400 67.191,36.040 67.683,35.600 68.000 C 35.160 68.317,34.800 68.815,34.800 69.106 C 34.800 69.398,34.364 70.072,33.831 70.605 C 33.298 71.138,32.746 71.940,32.604 72.387 C 32.462 72.834,32.178 73.200,31.973 73.200 C 31.768 73.200,31.600 73.560,31.600 74.000 C 31.600 74.440,31.464 74.800,31.298 74.800 C 31.131 74.800,30.741 75.385,30.430 76.100 C 30.119 76.815,29.760 77.490,29.632 77.600 C 29.246 77.933,27.966 80.153,27.729 80.900 C 27.607 81.285,27.348 81.600,27.153 81.600 C 26.959 81.600,26.800 81.960,26.800 82.400 C 26.800 82.840,26.641 83.200,26.447 83.200 C 26.253 83.200,25.758 84.278,25.347 85.597 C 24.936 86.915,24.465 87.995,24.300 87.997 C 24.135 87.998,24.000 88.360,24.000 88.800 C 24.000 89.240,23.820 89.600,23.600 89.600 C 23.380 89.600,23.200 90.050,23.200 90.600 C 23.200 91.150,23.020 91.600,22.800 91.600 C 22.580 91.600,22.400 91.960,22.400 92.400 C 22.400 92.840,22.220 93.200,22.000 93.200 C 21.780 93.200,21.600 93.560,21.600 94.000 C 21.600 94.440,21.420 94.800,21.200 94.800 C 20.980 94.800,20.800 95.149,20.800 95.576 C 20.800 96.003,20.620 96.464,20.400 96.600 C 20.180 96.736,20.000 97.287,20.000 97.824 C 20.000 98.361,19.820 98.800,19.600 98.800 C 19.380 98.800,19.200 99.340,19.200 100.000 C 19.200 100.660,19.020 101.200,18.800 101.200 C 18.580 101.200,18.400 101.740,18.400 102.400 C 18.400 103.060,18.220 103.600,18.000 103.600 C 17.780 103.600,17.600 104.140,17.600 104.800 C 17.600 105.460,17.420 106.000,17.200 106.000 C 16.980 106.000,16.800 106.540,16.800 107.200 C 16.800 107.860,16.620 108.400,16.400 108.400 C 16.180 108.400,16.000 108.940,16.000 109.600 C 16.000 110.260,15.820 110.800,15.600 110.800 C 15.380 110.800,15.200 111.419,15.200 112.176 C 15.200 112.933,15.020 113.664,14.800 113.800 C 14.580 113.936,14.400 114.656,14.400 115.400 C 14.400 116.144,14.220 116.864,14.000 117.000 C 13.780 117.136,13.600 117.946,13.600 118.800 C 13.600 119.654,13.420 120.464,13.200 120.600 C 12.980 120.736,12.800 121.737,12.800 122.824 C 12.800 123.911,12.620 124.800,12.400 124.800 C 12.179 124.800,12.000 125.840,12.000 127.120 C 12.000 128.396,11.833 129.611,11.629 129.820 C 10.776 130.694,9.979 161.739,10.789 162.549 C 11.015 162.775,11.200 164.508,11.200 166.400 C 11.200 168.292,11.363 170.011,11.563 170.220 C 11.763 170.429,12.033 171.545,12.163 172.700 C 12.293 173.855,12.507 175.745,12.637 176.900 C 12.767 178.055,13.037 179.171,13.237 179.380 C 13.437 179.589,13.600 180.433,13.600 181.256 C 13.600 182.079,13.780 182.864,14.000 183.000 C 14.220 183.136,14.400 183.856,14.400 184.600 C 14.400 185.344,14.580 186.064,14.800 186.200 C 15.020 186.336,15.200 187.056,15.200 187.800 C 15.200 188.544,15.380 189.264,15.600 189.400 C 15.820 189.536,16.000 190.267,16.000 191.024 C 16.000 191.781,16.180 192.400,16.400 192.400 C 16.620 192.400,16.800 192.940,16.800 193.600 C 16.800 194.260,16.980 194.800,17.200 194.800 C 17.420 194.800,17.600 195.340,17.600 196.000 C 17.600 196.660,17.780 197.200,18.000 197.200 C 18.220 197.200,18.400 197.740,18.400 198.400 C 18.400 199.060,18.580 199.600,18.800 199.600 C 19.020 199.600,19.200 200.140,19.200 200.800 C 19.200 201.460,19.380 202.000,19.600 202.000 C 19.820 202.000,20.000 202.439,20.000 202.976 C 20.000 203.513,20.180 204.064,20.400 204.200 C 20.620 204.336,20.800 204.797,20.800 205.224 C 20.800 205.651,20.980 206.000,21.200 206.000 C 21.420 206.000,21.600 206.450,21.600 207.000 C 21.600 207.550,21.780 208.000,22.000 208.000 C 22.220 208.000,22.400 208.360,22.400 208.800 C 22.400 209.240,22.580 209.600,22.800 209.600 C 23.020 209.600,23.200 210.140,23.200 210.800 C 23.200 211.460,23.380 212.000,23.600 212.000 C 23.820 212.000,24.000 212.360,24.000 212.800 C 24.000 213.240,24.180 213.600,24.400 213.600 C 24.620 213.600,24.800 213.888,24.800 214.240 C 24.800 214.591,25.070 215.491,25.400 216.240 C 25.730 216.988,26.289 218.275,26.643 219.100 C 27.704 221.576,29.347 224.986,29.582 225.200 C 29.703 225.310,30.056 225.895,30.368 226.500 C 30.680 227.105,31.085 227.600,31.268 227.600 C 31.450 227.600,31.600 227.960,31.600 228.400 C 31.600 228.840,31.780 229.200,32.000 229.200 C 32.220 229.200,32.400 229.560,32.400 230.000 C 32.400 230.440,32.580 230.800,32.800 230.800 C 33.020 230.800,33.200 231.160,33.200 231.600 C 33.200 232.040,33.380 232.400,33.600 232.400 C 33.820 232.400,34.000 232.720,34.000 233.112 C 34.000 233.503,34.360 234.083,34.800 234.400 C 35.240 234.717,35.600 235.297,35.600 235.688 C 35.600 236.080,35.780 236.400,36.000 236.400 C 36.220 236.400,36.400 236.670,36.400 237.000 C 36.400 237.330,36.580 237.600,36.800 237.600 C 37.020 237.600,37.200 237.870,37.200 238.200 C 37.200 238.530,37.380 238.800,37.600 238.800 C 37.820 238.800,38.000 239.036,38.000 239.325 C 38.000 239.613,38.360 240.236,38.800 240.708 C 39.240 241.180,39.600 241.754,39.600 241.983 C 39.600 242.212,39.780 242.400,40.000 242.400 C 40.220 242.400,40.400 242.694,40.400 243.053 C 40.400 243.412,40.732 243.997,41.138 244.353 C 41.544 244.709,42.194 245.675,42.584 246.500 C 42.973 247.325,43.451 248.000,43.646 248.000 C 43.841 248.000,44.000 248.225,44.001 248.500 C 44.001 248.775,44.541 249.630,45.200 250.400 C 45.859 251.170,46.399 251.985,46.399 252.212 C 46.400 252.438,46.760 252.883,47.200 253.200 C 47.640 253.517,48.000 253.972,48.000 254.210 C 48.000 254.625,49.148 256.017,52.201 259.307 C 52.971 260.135,53.600 260.990,53.600 261.205 C 53.600 261.420,54.500 262.515,55.600 263.639 C 56.700 264.762,57.600 265.856,57.600 266.069 C 57.600 266.283,57.825 266.686,58.100 266.966 C 58.375 267.246,59.500 268.528,60.600 269.815 C 61.700 271.102,63.365 272.954,64.300 273.930 C 65.235 274.906,66.000 275.912,66.000 276.164 C 66.000 276.417,66.360 276.883,66.800 277.200 C 67.240 277.517,67.600 278.097,67.600 278.488 C 67.600 278.880,67.780 279.200,68.000 279.200 C 68.220 279.200,68.400 279.560,68.400 280.000 C 68.400 280.440,68.580 280.800,68.800 280.800 C 69.020 280.800,69.200 281.145,69.200 281.567 C 69.200 281.988,69.335 282.393,69.500 282.467 C 69.924 282.655,72.400 287.599,72.400 288.256 C 72.400 288.555,72.580 288.800,72.800 288.800 C 73.020 288.800,73.200 289.250,73.200 289.800 C 73.200 290.350,73.380 290.800,73.600 290.800 C 73.820 290.800,74.000 291.340,74.000 292.000 C 74.000 292.660,74.135 293.200,74.300 293.201 C 74.465 293.201,74.930 294.686,75.333 296.501 C 75.736 298.315,76.231 300.213,76.433 300.719 C 76.635 301.224,76.800 302.159,76.800 302.795 C 76.800 303.432,76.980 304.064,77.200 304.200 C 77.420 304.336,77.600 305.247,77.600 306.224 C 77.600 307.201,77.765 308.000,77.966 308.000 C 78.167 308.000,78.432 309.125,78.553 310.500 C 78.675 311.875,78.974 314.530,79.216 316.400 C 79.459 318.270,79.744 322.320,79.850 325.400 C 79.956 328.480,80.213 331.171,80.422 331.380 C 80.653 331.612,80.800 343.245,80.800 361.256 C 80.800 380.489,80.939 390.839,81.200 391.000 C 81.420 391.136,81.600 391.687,81.600 392.224 C 81.600 392.761,81.780 393.200,82.000 393.200 C 82.220 393.200,82.400 393.520,82.400 393.912 C 82.400 394.303,82.760 394.883,83.200 395.200 C 83.640 395.517,84.000 396.097,84.000 396.488 C 84.000 396.880,84.270 397.200,84.600 397.200 C 84.930 397.200,85.200 397.380,85.200 397.600 C 85.200 397.820,85.388 398.000,85.617 398.000 C 85.846 398.000,86.409 398.350,86.868 398.778 C 87.357 399.233,88.551 399.655,89.751 399.796 C 94.139 400.312,260.124 399.829,260.300 399.300 C 260.392 399.025,260.733 398.800,261.059 398.800 C 262.718 398.800,266.800 393.219,266.800 390.951 C 266.800 390.428,266.980 390.000,267.200 390.000 C 267.439 390.000,267.600 388.467,267.600 386.200 C 267.600 383.933,267.761 382.400,268.000 382.400 C 268.241 382.400,268.400 380.741,268.400 378.224 C 268.400 375.871,268.575 373.939,268.800 373.800 C 269.020 373.664,269.200 372.933,269.200 372.176 C 269.200 371.419,269.380 370.800,269.600 370.800 C 269.820 370.800,270.000 370.375,270.000 369.856 C 270.000 368.908,272.339 363.916,272.900 363.667 C 273.065 363.593,273.200 363.270,273.200 362.948 C 273.200 362.406,273.581 361.911,275.854 359.504 C 277.356 357.915,279.399 356.217,280.516 355.632 C 281.112 355.320,281.600 354.915,281.600 354.732 C 281.600 354.550,281.960 354.400,282.400 354.400 C 282.840 354.400,283.200 354.220,283.200 354.000 C 283.200 353.780,283.472 353.600,283.805 353.600 C 284.138 353.600,284.813 353.392,285.305 353.138 C 287.284 352.115,287.636 352.000,288.795 352.000 C 289.458 352.000,290.000 351.820,290.000 351.600 C 290.000 351.380,290.720 351.200,291.600 351.200 C 292.480 351.200,293.200 351.020,293.200 350.800 C 293.200 350.551,295.467 350.400,299.200 350.400 C 302.933 350.400,305.200 350.551,305.200 350.800 C 305.200 351.038,306.725 351.200,308.976 351.200 C 311.063 351.200,312.863 351.379,313.000 351.600 C 313.154 351.849,316.871 352.000,322.824 352.000 C 328.941 352.000,332.400 351.856,332.400 351.600 C 332.400 351.378,333.467 351.200,334.800 351.200 C 336.133 351.200,337.200 351.022,337.200 350.800 C 337.200 350.580,337.639 350.400,338.176 350.400 C 338.713 350.400,339.264 350.220,339.400 350.000 C 339.536 349.780,340.087 349.600,340.624 349.600 C 341.161 349.600,341.600 349.420,341.600 349.200 C 341.600 348.980,341.960 348.800,342.400 348.800 C 342.840 348.800,343.200 348.620,343.200 348.400 C 343.200 348.180,343.520 348.000,343.912 348.000 C 344.303 348.000,344.883 347.640,345.200 347.200 C 345.517 346.760,346.097 346.400,346.488 346.400 C 346.880 346.400,347.200 346.220,347.200 346.000 C 347.200 345.780,347.484 345.600,347.831 345.600 C 348.780 345.600,353.577 340.354,353.593 339.300 C 353.597 339.025,353.780 338.800,354.000 338.800 C 354.220 338.800,354.400 338.528,354.400 338.195 C 354.400 337.862,354.559 337.277,354.753 336.895 C 355.401 335.622,355.937 334.212,356.234 333.000 C 356.680 331.183,357.179 313.705,357.419 291.500 L 357.635 271.600 358.794 271.600 C 359.431 271.600,360.064 271.420,360.200 271.200 C 360.336 270.980,360.966 270.800,361.600 270.800 C 362.234 270.800,362.864 270.620,363.000 270.400 C 363.136 270.180,363.946 270.000,364.800 270.000 C 365.654 270.000,366.464 269.820,366.600 269.600 C 366.736 269.380,367.557 269.200,368.424 269.200 C 369.291 269.200,370.000 269.020,370.000 268.800 C 370.000 268.580,370.810 268.400,371.800 268.400 C 372.790 268.400,373.600 268.220,373.600 268.000 C 373.600 267.780,374.320 267.600,375.200 267.600 C 376.080 267.600,376.800 267.420,376.800 267.200 C 376.800 266.980,377.520 266.800,378.400 266.800 C 379.280 266.800,380.000 266.620,380.000 266.400 C 380.000 266.180,380.540 266.000,381.200 266.000 C 381.860 266.000,382.400 265.820,382.400 265.600 C 382.400 265.380,382.674 265.200,383.009 265.200 C 383.801 265.200,388.000 261.001,388.000 260.209 C 388.000 259.874,388.180 259.600,388.400 259.600 C 388.620 259.600,388.800 259.251,388.800 258.824 C 388.800 258.397,388.980 257.936,389.200 257.800 C 390.195 257.185,389.350 247.200,388.303 247.200 C 388.136 247.200,388.000 246.963,388.000 246.673 C 388.000 246.112,384.996 242.763,378.800 236.416 C 376.710 234.275,374.280 231.645,373.400 230.572 C 372.520 229.498,370.855 227.643,369.700 226.449 C 368.545 225.255,367.600 224.126,367.600 223.940 C 367.600 223.753,366.880 222.859,366.000 221.952 C 365.120 221.045,364.400 220.127,364.400 219.912 C 364.400 219.697,363.860 219.017,363.200 218.400 C 362.540 217.783,362.000 217.031,362.000 216.728 C 362.000 216.425,361.640 215.917,361.200 215.600 C 360.760 215.283,360.400 214.743,360.400 214.400 C 360.400 214.057,360.040 213.517,359.600 213.200 C 359.160 212.883,358.800 212.390,358.800 212.104 C 358.800 211.818,358.350 210.871,357.800 210.000 C 357.250 209.129,356.800 208.232,356.800 208.008 C 356.800 207.784,356.620 207.600,356.400 207.600 C 356.180 207.600,356.000 207.240,356.000 206.800 C 356.000 206.360,355.820 206.000,355.600 206.000 C 355.380 206.000,355.200 205.640,355.200 205.200 C 355.200 204.760,355.020 204.400,354.800 204.400 C 354.580 204.400,354.400 204.051,354.400 203.624 C 354.400 203.197,354.220 202.736,354.000 202.600 C 353.780 202.464,353.600 201.913,353.600 201.376 C 353.600 200.839,353.420 200.400,353.200 200.400 C 352.978 200.400,352.800 199.333,352.800 198.000 C 352.800 196.667,352.622 195.600,352.400 195.600 C 352.159 195.600,352.000 193.933,352.000 191.400 C 352.000 188.867,352.159 187.200,352.400 187.200 C 352.637 187.200,352.800 185.741,352.800 183.624 C 352.800 181.657,352.980 179.936,353.200 179.800 C 353.420 179.664,353.600 178.224,353.600 176.600 C 353.600 174.976,353.780 173.536,354.000 173.400 C 354.220 173.264,354.400 171.903,354.400 170.376 C 354.400 168.792,354.572 167.600,354.800 167.600 C 355.055 167.600,355.200 164.275,355.200 158.424 C 355.200 152.737,355.048 149.153,354.800 149.000 C 354.580 148.864,354.400 147.413,354.400 145.776 C 354.400 144.059,354.231 142.800,354.000 142.800 C 353.780 142.800,353.600 141.900,353.600 140.800 C 353.600 139.700,353.420 138.800,353.200 138.800 C 352.980 138.800,352.800 137.821,352.800 136.624 C 352.800 135.427,352.620 134.336,352.400 134.200 C 352.180 134.064,352.000 133.344,352.000 132.600 C 352.000 131.856,351.820 131.136,351.600 131.000 C 351.380 130.864,351.200 130.144,351.200 129.400 C 351.200 128.656,351.020 127.936,350.800 127.800 C 350.580 127.664,350.400 127.034,350.400 126.400 C 350.400 125.766,350.220 125.136,350.000 125.000 C 349.780 124.864,349.600 124.223,349.600 123.576 C 349.600 122.929,349.420 122.400,349.200 122.400 C 348.980 122.400,348.800 121.860,348.800 121.200 C 348.800 120.540,348.620 120.000,348.400 120.000 C 348.180 120.000,348.000 119.460,348.000 118.800 C 348.000 118.140,347.820 117.600,347.600 117.600 C 347.380 117.600,347.200 117.060,347.200 116.400 C 347.200 115.740,347.020 115.200,346.800 115.200 C 346.580 115.200,346.400 114.660,346.400 114.000 C 346.400 113.340,346.220 112.800,346.000 112.800 C 345.780 112.800,345.600 112.528,345.600 112.195 C 345.600 111.607,345.433 111.182,344.462 109.305 C 344.208 108.813,344.000 108.048,344.000 107.605 C 344.000 107.162,343.820 106.800,343.600 106.800 C 343.380 106.800,343.200 106.440,343.200 106.000 C 343.200 105.560,343.020 105.200,342.800 105.200 C 342.580 105.200,342.400 104.840,342.400 104.400 C 342.400 103.960,342.240 103.600,342.045 103.600 C 341.849 103.600,341.567 102.948,341.417 102.151 C 341.169 100.829,338.164 94.073,337.613 93.600 C 337.485 93.490,336.935 92.545,336.391 91.500 C 335.847 90.455,335.266 89.600,335.101 89.600 C 334.935 89.600,334.800 89.240,334.800 88.800 C 334.800 88.360,334.620 88.000,334.400 88.000 C 334.180 88.000,334.000 87.722,334.000 87.383 C 334.000 87.044,333.640 86.380,333.200 85.908 C 332.760 85.436,332.400 84.813,332.400 84.525 C 332.400 84.236,332.220 84.000,332.000 84.000 C 331.780 84.000,331.600 83.680,331.600 83.288 C 331.600 82.897,331.240 82.317,330.800 82.000 C 330.360 81.683,330.000 81.103,330.000 80.712 C 330.000 80.320,329.850 80.000,329.668 80.000 C 329.485 80.000,329.080 79.508,328.768 78.906 C 328.207 77.825,327.865 77.359,326.100 75.266 C 325.606 74.680,325.201 74.003,325.200 73.762 C 325.200 73.521,324.750 72.801,324.200 72.162 C 323.651 71.523,323.201 70.857,323.200 70.682 C 323.200 70.507,322.750 69.914,322.200 69.364 C 321.650 68.814,321.200 68.211,321.200 68.024 C 321.200 67.837,320.390 66.826,319.400 65.778 C 318.410 64.730,317.600 63.707,317.600 63.505 C 317.600 63.303,316.880 62.446,316.000 61.600 C 315.120 60.754,314.400 59.956,314.400 59.825 C 314.400 59.695,313.095 58.238,311.500 56.589 C 303.243 48.050,299.179 44.084,297.575 43.000 C 296.599 42.340,295.139 41.125,294.331 40.300 C 293.524 39.475,292.591 38.800,292.258 38.800 C 291.926 38.800,291.549 38.469,291.420 38.064 C 291.292 37.659,290.740 37.089,290.193 36.796 C 289.647 36.504,289.200 36.115,289.200 35.932 C 289.200 35.750,289.018 35.600,288.796 35.600 C 288.574 35.600,287.828 35.060,287.137 34.400 C 286.446 33.740,285.678 33.200,285.429 33.200 C 285.180 33.200,284.717 32.840,284.400 32.400 C 284.083 31.960,283.585 31.600,283.294 31.600 C 283.002 31.600,282.328 31.164,281.795 30.631 C 281.262 30.098,280.460 29.546,280.013 29.404 C 279.566 29.262,279.200 28.978,279.200 28.773 C 279.200 28.568,278.964 28.400,278.675 28.400 C 278.387 28.400,277.764 28.040,277.292 27.600 C 276.820 27.160,276.156 26.800,275.817 26.800 C 275.478 26.800,275.200 26.658,275.200 26.484 C 275.200 26.311,274.210 25.651,273.000 25.018 C 271.790 24.385,270.800 23.717,270.800 23.533 C 270.800 23.350,270.440 23.200,270.000 23.200 C 269.560 23.200,269.200 23.020,269.200 22.800 C 269.200 22.580,268.840 22.400,268.400 22.400 C 267.960 22.400,267.600 22.220,267.600 22.000 C 267.600 21.780,267.240 21.600,266.800 21.600 C 266.360 21.600,266.000 21.420,266.000 21.200 C 266.000 20.980,265.722 20.800,265.383 20.800 C 265.044 20.800,264.380 20.440,263.908 20.000 C 263.436 19.560,262.813 19.200,262.525 19.200 C 262.236 19.200,262.000 19.020,262.000 18.800 C 262.000 18.580,261.640 18.400,261.200 18.400 C 260.760 18.400,260.400 18.220,260.400 18.000 C 260.400 17.780,259.950 17.600,259.400 17.600 C 258.850 17.600,258.400 17.420,258.400 17.200 C 258.400 16.980,258.040 16.800,257.600 16.800 C 257.160 16.800,256.800 16.620,256.800 16.400 C 256.800 16.180,256.440 16.000,256.000 16.000 C 255.560 16.000,255.200 15.820,255.200 15.600 C 255.200 15.380,254.840 15.200,254.400 15.200 C 253.960 15.200,253.600 15.020,253.600 14.800 C 253.600 14.580,253.251 14.400,252.824 14.400 C 252.397 14.400,251.936 14.220,251.800 14.000 C 251.664 13.780,251.113 13.600,250.576 13.600 C 250.039 13.600,249.600 13.420,249.600 13.200 C 249.600 12.980,249.251 12.800,248.824 12.800 C 248.397 12.800,247.936 12.620,247.800 12.400 C 247.664 12.180,247.113 12.000,246.576 12.000 C 246.039 12.000,245.600 11.859,245.600 11.687 C 245.600 11.515,244.745 11.125,243.700 10.820 C 242.655 10.515,241.530 10.137,241.200 9.981 C 239.880 9.355,236.547 8.396,235.700 8.398 C 235.205 8.399,234.800 8.220,234.800 8.000 C 234.800 7.780,234.271 7.600,233.624 7.600 C 232.977 7.600,232.336 7.420,232.200 7.200 C 232.064 6.980,231.333 6.800,230.576 6.800 C 229.819 6.800,229.200 6.620,229.200 6.400 C 229.200 6.180,228.480 6.000,227.600 6.000 C 226.720 6.000,226.000 5.820,226.000 5.600 C 226.000 5.380,225.471 5.200,224.824 5.200 C 224.177 5.200,223.536 5.020,223.400 4.800 C 223.264 4.580,222.443 4.400,221.576 4.400 C 220.709 4.400,220.000 4.220,220.000 4.000 C 220.000 3.780,219.100 3.600,218.000 3.600 C 216.900 3.600,216.000 3.420,216.000 3.200 C 216.000 2.980,215.100 2.800,214.000 2.800 C 212.900 2.800,212.000 2.620,212.000 2.400 C 212.000 2.178,210.933 2.000,209.600 2.000 C 208.267 2.000,207.200 1.822,207.200 1.600 C 207.200 1.376,206.093 1.200,204.680 1.200 C 203.288 1.200,201.950 0.990,201.692 0.732 C 201.224 0.264,163.714 -0.114,156.201 0.273 M174.800 39.200 C 174.800 39.420,175.432 39.600,176.205 39.600 C 176.978 39.600,177.923 39.774,178.305 39.987 C 179.193 40.482,182.672 41.600,183.326 41.600 C 183.599 41.600,184.083 41.960,184.400 42.400 C 184.717 42.840,185.209 43.200,185.492 43.200 C 185.775 43.200,186.572 43.740,187.263 44.400 C 188.536 45.616,192.400 46.218,192.400 45.200 C 192.400 44.980,192.839 44.800,193.376 44.800 C 193.913 44.800,194.464 44.620,194.600 44.400 C 194.736 44.180,195.377 44.000,196.024 44.000 C 196.671 44.000,197.200 43.820,197.200 43.600 C 197.200 43.380,197.819 43.200,198.576 43.200 C 199.333 43.200,200.064 43.020,200.200 42.800 C 200.340 42.573,202.337 42.400,204.824 42.400 C 207.475 42.400,209.200 42.558,209.200 42.800 C 209.200 43.020,209.729 43.200,210.376 43.200 C 211.023 43.200,211.664 43.380,211.800 43.600 C 211.936 43.820,212.397 44.000,212.824 44.000 C 213.251 44.000,213.600 44.180,213.600 44.400 C 213.600 44.620,213.888 44.800,214.240 44.800 C 214.591 44.800,215.383 45.340,216.000 46.000 C 216.617 46.660,217.319 47.200,217.560 47.200 C 217.802 47.200,218.000 47.380,218.000 47.600 C 218.000 47.820,218.188 48.000,218.418 48.000 C 218.982 48.000,220.800 49.848,220.800 50.421 C 220.800 50.673,221.340 51.383,222.000 52.000 C 222.660 52.617,223.200 53.332,223.200 53.589 C 223.200 55.013,229.801 56.093,230.600 54.800 C 230.747 54.562,233.271 54.400,236.824 54.400 C 240.541 54.400,242.800 54.551,242.800 54.800 C 242.800 55.020,243.610 55.200,244.600 55.200 C 245.590 55.200,246.400 55.336,246.400 55.503 C 246.400 55.669,247.165 56.040,248.100 56.326 C 250.373 57.023,254.400 58.924,254.400 59.299 C 254.400 59.465,254.680 59.600,255.022 59.600 C 255.970 59.600,261.617 65.523,262.485 67.427 C 262.729 67.962,263.080 68.400,263.264 68.400 C 263.449 68.400,263.600 68.669,263.600 68.997 C 263.600 70.533,265.259 71.600,267.649 71.600 C 268.916 71.600,270.064 71.780,270.200 72.000 C 270.336 72.220,271.067 72.400,271.824 72.400 C 272.581 72.400,273.200 72.580,273.200 72.800 C 273.200 73.020,273.487 73.200,273.838 73.200 C 274.189 73.200,274.954 73.536,275.538 73.948 C 276.122 74.359,276.996 74.818,277.480 74.968 C 277.963 75.118,278.459 75.555,278.580 75.938 C 278.702 76.321,279.431 77.302,280.201 78.118 C 280.970 78.934,281.600 79.871,281.600 80.201 C 281.600 80.530,281.780 80.800,282.000 80.800 C 282.220 80.800,282.400 81.160,282.400 81.600 C 282.400 82.040,282.580 82.400,282.800 82.400 C 283.020 82.400,283.200 83.120,283.200 84.000 C 283.200 84.880,283.020 85.600,282.800 85.600 C 281.002 85.600,283.004 88.695,285.587 89.910 C 286.965 90.557,287.440 90.873,288.585 91.900 C 288.892 92.175,289.381 92.405,289.671 92.412 C 289.962 92.419,290.650 92.972,291.200 93.642 C 291.750 94.312,293.145 95.833,294.300 97.021 C 295.455 98.210,296.400 99.340,296.400 99.532 C 296.400 99.724,296.940 100.446,297.600 101.137 C 298.260 101.828,298.800 102.664,298.800 102.996 C 298.800 103.328,298.980 103.600,299.200 103.600 C 299.420 103.600,299.600 103.945,299.600 104.367 C 299.600 104.788,299.735 105.193,299.900 105.267 C 300.065 105.340,300.625 106.300,301.144 107.400 C 301.663 108.500,302.248 109.713,302.444 110.095 C 302.640 110.477,302.800 111.141,302.800 111.571 C 302.800 112.001,302.980 112.464,303.200 112.600 C 303.420 112.736,303.600 113.377,303.600 114.024 C 303.600 114.671,303.780 115.200,304.000 115.200 C 304.222 115.200,304.400 116.267,304.400 117.600 C 304.400 118.933,304.578 120.000,304.800 120.000 C 305.029 120.000,305.200 121.200,305.200 122.800 C 305.200 124.400,305.029 125.600,304.800 125.600 C 304.580 125.600,304.400 126.500,304.400 127.600 C 304.400 128.700,304.220 129.600,304.000 129.600 C 303.780 129.600,303.600 130.230,303.600 131.000 C 303.600 131.770,303.420 132.400,303.200 132.400 C 302.980 132.400,302.800 132.760,302.800 133.200 C 302.800 133.640,302.620 134.000,302.400 134.000 C 302.180 134.000,302.000 134.273,302.000 134.607 C 302.000 135.399,296.999 140.400,296.207 140.400 C 295.873 140.400,295.599 140.535,295.597 140.700 C 295.592 141.194,293.521 142.015,291.604 142.284 C 290.616 142.422,289.581 142.762,289.304 143.039 C 288.707 143.635,288.622 146.400,289.200 146.400 C 289.422 146.400,289.600 147.467,289.600 148.800 C 289.600 150.133,289.422 151.200,289.200 151.200 C 288.980 151.200,288.800 151.740,288.800 152.400 C 288.800 153.060,288.620 153.600,288.400 153.600 C 288.180 153.600,288.000 153.885,288.000 154.233 C 288.000 154.829,285.394 157.626,283.188 159.400 C 281.765 160.544,277.223 162.800,276.344 162.800 C 275.935 162.800,275.600 162.980,275.600 163.200 C 275.600 163.420,275.071 163.600,274.424 163.600 C 273.777 163.600,273.136 163.780,273.000 164.000 C 272.864 164.220,272.133 164.400,271.376 164.400 C 270.619 164.400,270.000 164.580,270.000 164.800 C 270.000 165.020,269.460 165.200,268.800 165.200 C 268.140 165.200,267.600 165.380,267.600 165.600 C 267.600 165.820,267.071 166.000,266.424 166.000 C 265.777 166.000,265.136 166.180,265.000 166.400 C 264.864 166.620,264.401 166.800,263.971 166.800 C 263.541 166.800,262.877 166.968,262.495 167.174 C 262.113 167.379,261.215 167.783,260.500 168.071 C 259.785 168.360,259.200 168.731,259.200 168.898 C 259.200 169.064,258.840 169.200,258.400 169.200 C 257.960 169.200,257.600 169.380,257.600 169.600 C 257.600 169.820,257.240 170.000,256.800 170.000 C 256.360 170.000,256.000 170.180,256.000 170.400 C 256.000 170.620,255.680 170.800,255.288 170.800 C 254.897 170.800,254.317 171.160,254.000 171.600 C 253.683 172.040,253.143 172.400,252.800 172.400 C 252.457 172.400,251.917 172.760,251.600 173.200 C 251.283 173.640,250.703 174.000,250.312 174.000 C 249.920 174.000,249.600 174.144,249.600 174.320 C 249.600 174.496,248.796 175.149,247.813 175.770 C 246.178 176.804,245.259 177.658,241.009 182.100 C 240.219 182.925,239.432 183.600,239.258 183.600 C 238.780 183.600,235.544 186.798,234.196 188.603 C 232.854 190.399,231.333 191.909,229.970 192.800 C 229.465 193.130,228.300 194.075,227.381 194.900 C 226.462 195.725,225.506 196.400,225.255 196.400 C 225.005 196.400,224.800 196.580,224.800 196.800 C 224.800 197.020,224.440 197.200,224.000 197.200 C 223.560 197.200,223.200 197.380,223.200 197.600 C 223.200 197.820,222.840 198.000,222.400 198.000 C 221.960 198.000,221.599 198.135,221.597 198.300 C 221.593 198.659,219.656 199.600,218.920 199.600 C 218.634 199.600,218.400 199.780,218.400 200.000 C 218.400 200.220,217.860 200.400,217.200 200.400 C 216.540 200.400,216.000 200.580,216.000 200.800 C 216.000 201.020,215.550 201.200,215.000 201.200 C 214.450 201.200,214.000 201.380,214.000 201.600 C 214.000 201.820,213.370 202.000,212.600 202.000 C 211.830 202.000,211.200 202.180,211.200 202.400 C 211.200 202.620,210.570 202.800,209.800 202.800 C 209.030 202.800,208.400 202.980,208.400 203.200 C 208.400 203.420,207.601 203.600,206.624 203.600 C 205.647 203.600,204.736 203.780,204.600 204.000 C 204.464 204.220,203.643 204.400,202.776 204.400 C 201.909 204.400,201.200 204.580,201.200 204.800 C 201.200 205.020,200.660 205.200,200.000 205.200 C 199.340 205.200,198.800 205.380,198.800 205.600 C 198.800 205.820,198.170 206.000,197.400 206.000 C 196.630 206.000,196.000 206.180,196.000 206.400 C 196.000 206.620,195.550 206.800,195.000 206.800 C 194.450 206.800,194.000 206.980,194.000 207.200 C 194.000 207.420,193.640 207.600,193.200 207.600 C 192.760 207.600,192.400 207.780,192.400 208.000 C 192.400 208.220,192.174 208.400,191.897 208.400 C 191.196 208.400,187.529 210.384,186.794 211.160 C 186.461 211.512,185.843 211.992,185.421 212.227 C 184.999 212.461,184.461 212.991,184.227 213.403 C 183.992 213.816,183.388 214.584,182.884 215.111 C 182.380 215.637,181.663 216.773,181.290 217.634 C 180.917 218.495,180.474 219.200,180.306 219.200 C 180.138 219.200,180.000 219.560,180.000 220.000 C 180.000 220.440,179.853 220.800,179.672 220.800 C 179.492 220.800,179.100 221.700,178.800 222.800 C 178.500 223.900,178.108 224.800,177.928 224.800 C 177.747 224.800,177.600 225.214,177.600 225.720 C 177.600 226.226,177.442 226.811,177.249 227.020 C 176.731 227.581,175.136 231.998,174.909 233.500 C 174.801 234.215,174.552 234.800,174.356 234.800 C 174.160 234.800,174.000 235.340,174.000 236.000 C 174.000 236.660,173.820 237.200,173.600 237.200 C 173.380 237.200,173.200 237.740,173.200 238.400 C 173.200 239.060,173.020 239.600,172.800 239.600 C 172.580 239.600,172.400 240.140,172.400 240.800 C 172.400 241.460,172.220 242.000,172.000 242.000 C 171.780 242.000,171.600 242.450,171.600 243.000 C 171.600 243.550,171.420 244.000,171.200 244.000 C 170.980 244.000,170.800 244.540,170.800 245.200 C 170.800 245.860,170.620 246.400,170.400 246.400 C 170.180 246.400,170.000 246.940,170.000 247.600 C 170.000 248.260,169.820 248.800,169.600 248.800 C 169.380 248.800,169.200 249.340,169.200 250.000 C 169.200 250.660,169.020 251.200,168.800 251.200 C 168.580 251.200,168.400 251.920,168.400 252.800 C 168.400 253.680,168.220 254.400,168.000 254.400 C 167.780 254.400,167.600 254.940,167.600 255.600 C 167.600 256.260,167.420 256.800,167.200 256.800 C 166.980 256.800,166.800 257.321,166.800 257.957 C 166.800 259.488,166.389 259.601,160.867 259.594 C 154.844 259.586,155.405 260.109,154.547 253.700 C 154.422 252.765,154.158 252.000,153.960 252.000 C 153.762 252.000,153.600 251.100,153.600 250.000 C 153.600 248.900,153.420 248.000,153.200 248.000 C 152.980 248.000,152.800 247.201,152.800 246.224 C 152.800 245.247,152.620 244.336,152.400 244.200 C 152.180 244.064,152.000 243.254,152.000 242.400 C 152.000 241.546,151.820 240.736,151.600 240.600 C 151.380 240.464,151.200 239.643,151.200 238.776 C 151.200 237.909,151.020 237.200,150.800 237.200 C 150.580 237.200,150.400 236.840,150.400 236.400 C 150.400 235.645,150.133 235.600,145.624 235.600 C 142.871 235.600,140.742 235.431,140.600 235.200 C 140.455 234.966,138.137 234.800,135.000 234.800 C 131.863 234.800,129.545 234.634,129.400 234.400 C 129.264 234.180,128.004 234.000,126.600 234.000 C 125.196 234.000,123.936 233.820,123.800 233.600 C 123.664 233.380,122.753 233.200,121.776 233.200 C 120.799 233.200,120.000 233.020,120.000 232.800 C 120.000 232.580,119.201 232.400,118.224 232.400 C 117.247 232.400,116.336 232.220,116.200 232.000 C 116.064 231.780,115.423 231.600,114.776 231.600 C 114.129 231.600,113.600 231.453,113.600 231.272 C 113.600 231.092,112.700 230.700,111.600 230.400 C 110.500 230.100,109.600 229.752,109.600 229.625 C 109.600 229.499,109.015 229.136,108.300 228.820 C 107.585 228.503,106.651 227.920,106.225 227.522 C 105.798 227.125,105.290 226.800,105.096 226.800 C 104.902 226.800,104.517 226.575,104.242 226.300 C 103.966 226.025,103.171 225.350,102.474 224.800 C 101.777 224.250,101.206 223.567,101.204 223.283 C 101.202 222.999,100.840 222.380,100.400 221.908 C 99.960 221.436,99.600 220.633,99.600 220.125 C 99.600 219.616,99.420 219.200,99.200 219.200 C 98.980 219.200,98.800 218.737,98.800 218.171 C 98.800 217.606,98.543 216.886,98.229 216.571 C 97.582 215.925,94.800 215.786,94.800 216.400 C 94.800 216.620,94.170 216.800,93.400 216.800 C 92.630 216.800,92.000 216.980,92.000 217.200 C 92.000 217.420,91.111 217.600,90.024 217.600 C 88.937 217.600,87.936 217.780,87.800 218.000 C 87.478 218.521,84.122 218.521,83.800 218.000 C 83.664 217.780,82.931 217.600,82.170 217.600 C 80.584 217.600,77.600 216.753,77.600 216.303 C 77.600 216.136,77.240 216.000,76.800 216.000 C 76.360 216.000,76.000 215.820,76.000 215.600 C 76.000 215.380,75.822 215.200,75.605 215.200 C 75.125 215.200,73.787 214.139,72.643 212.851 C 72.179 212.329,71.350 211.402,70.800 210.791 C 68.861 208.637,68.400 207.985,68.400 207.395 C 68.400 207.068,68.220 206.800,68.000 206.800 C 67.780 206.800,67.600 206.361,67.600 205.824 C 67.600 205.287,67.420 204.736,67.200 204.600 C 66.980 204.464,66.800 203.823,66.800 203.176 C 66.800 202.529,66.620 202.000,66.400 202.000 C 66.180 202.000,66.000 201.100,66.000 200.000 C 66.000 198.900,65.820 198.000,65.600 198.000 C 65.380 198.000,65.200 197.640,65.200 197.200 C 65.200 196.760,65.380 196.400,65.600 196.400 C 65.837 196.400,66.000 194.924,66.000 192.771 C 66.000 189.102,65.611 188.000,64.317 188.000 C 64.020 188.000,63.517 187.640,63.200 187.200 C 62.883 186.760,62.388 186.400,62.099 186.400 C 61.128 186.400,54.416 179.159,54.405 178.100 C 54.402 177.825,54.254 177.600,54.075 177.600 C 53.896 177.600,53.502 176.970,53.200 176.200 C 52.898 175.430,52.504 174.800,52.325 174.800 C 52.146 174.800,52.000 174.451,52.000 174.024 C 52.000 173.597,51.820 173.136,51.600 173.000 C 51.380 172.864,51.200 172.313,51.200 171.776 C 51.200 171.239,51.020 170.800,50.800 170.800 C 50.580 170.800,50.400 170.260,50.400 169.600 C 50.400 168.940,50.220 168.400,50.000 168.400 C 49.774 168.400,49.600 167.267,49.600 165.800 C 49.600 164.333,49.426 163.200,49.200 163.200 C 48.950 163.200,48.800 160.741,48.800 156.624 C 48.800 152.671,48.960 149.949,49.200 149.800 C 49.420 149.664,49.600 148.483,49.600 147.176 C 49.600 145.859,49.778 144.800,50.000 144.800 C 50.220 144.800,50.400 144.260,50.400 143.600 C 50.400 142.940,50.580 142.400,50.800 142.400 C 51.020 142.400,51.200 141.948,51.200 141.395 C 51.200 140.842,51.360 140.077,51.556 139.695 C 51.752 139.313,52.312 138.100,52.800 137.000 C 53.288 135.900,53.848 134.687,54.044 134.305 C 54.240 133.923,54.400 133.421,54.400 133.189 C 54.400 132.957,54.760 132.380,55.200 131.908 C 55.640 131.436,56.000 130.813,56.000 130.525 C 56.000 130.236,56.180 130.000,56.400 130.000 C 56.620 130.000,56.800 129.640,56.800 129.200 C 56.800 128.760,56.967 128.400,57.171 128.400 C 57.375 128.400,57.860 127.680,58.248 126.800 C 58.636 125.920,59.099 125.200,59.277 125.200 C 59.455 125.200,59.600 124.970,59.600 124.688 C 59.600 124.407,59.960 123.917,60.400 123.600 C 60.840 123.283,61.200 122.793,61.200 122.512 C 61.200 122.230,61.380 122.000,61.600 122.000 C 61.820 122.000,62.000 121.730,62.000 121.400 C 62.000 121.070,62.180 120.800,62.400 120.800 C 62.922 120.800,62.922 115.832,62.400 114.795 C 62.180 114.358,61.820 113.642,61.600 113.205 C 61.380 112.768,61.200 111.879,61.200 111.229 C 61.200 110.579,61.020 109.936,60.800 109.800 C 60.580 109.664,60.400 108.573,60.400 107.376 C 60.400 106.179,60.580 105.200,60.800 105.200 C 61.020 105.200,61.200 104.480,61.200 103.600 C 61.200 102.720,61.380 102.000,61.600 102.000 C 61.820 102.000,62.000 101.460,62.000 100.800 C 62.000 100.140,62.180 99.600,62.400 99.600 C 62.620 99.600,62.800 99.240,62.800 98.800 C 62.800 98.360,62.980 98.000,63.200 98.000 C 63.420 98.000,63.600 97.712,63.600 97.360 C 63.600 97.009,64.140 96.217,64.800 95.600 C 65.460 94.983,66.000 94.257,66.000 93.986 C 66.000 93.431,67.393 92.113,68.600 91.527 C 69.040 91.313,70.660 90.473,72.200 89.661 L 75.000 88.185 75.121 86.092 C 75.187 84.942,75.412 84.000,75.621 84.000 C 75.829 84.000,76.000 82.560,76.000 80.800 C 76.000 78.933,76.167 77.600,76.400 77.600 C 76.620 77.600,76.800 77.060,76.800 76.400 C 76.800 75.740,76.980 75.200,77.200 75.200 C 77.420 75.200,77.600 74.840,77.600 74.400 C 77.600 73.960,77.780 73.600,78.000 73.600 C 78.220 73.600,78.400 73.240,78.400 72.800 C 78.400 72.360,78.580 72.000,78.800 72.000 C 79.020 72.000,79.200 71.730,79.200 71.400 C 79.200 71.070,79.380 70.800,79.600 70.800 C 79.820 70.800,80.000 70.530,80.000 70.200 C 80.000 69.871,80.720 68.859,81.600 67.952 C 82.480 67.045,83.200 66.094,83.200 65.838 C 83.200 65.582,83.750 65.047,84.423 64.650 C 85.095 64.253,86.259 63.314,87.009 62.564 C 87.760 61.814,88.559 61.200,88.787 61.200 C 89.014 61.200,89.200 61.020,89.200 60.800 C 89.200 60.580,89.470 60.400,89.800 60.400 C 90.130 60.400,90.400 60.220,90.400 60.000 C 90.400 59.780,90.670 59.600,91.000 59.600 C 91.330 59.600,91.600 59.436,91.600 59.235 C 91.600 59.034,92.320 58.749,93.200 58.600 C 94.080 58.451,94.800 58.198,94.800 58.037 C 94.800 57.876,95.700 57.500,96.800 57.200 C 97.900 56.900,98.800 56.508,98.800 56.328 C 98.800 56.147,99.394 56.000,100.120 56.000 C 100.846 56.000,101.611 55.836,101.820 55.635 C 102.029 55.435,103.190 55.170,104.400 55.048 C 105.610 54.926,107.472 54.711,108.537 54.570 C 109.755 54.409,110.638 54.478,110.917 54.757 C 111.161 55.001,112.303 55.200,113.456 55.200 C 114.609 55.200,115.664 55.380,115.800 55.600 C 115.936 55.820,116.577 56.000,117.224 56.000 C 117.871 56.000,118.400 56.180,118.400 56.400 C 118.400 56.620,118.839 56.800,119.376 56.800 C 119.913 56.800,120.464 56.980,120.600 57.200 C 120.998 57.843,122.625 57.661,123.271 56.900 C 123.982 56.064,125.200 53.474,125.200 52.800 C 125.200 52.537,125.740 51.817,126.400 51.200 C 127.060 50.583,127.600 49.791,127.600 49.440 C 127.600 49.088,127.894 48.800,128.253 48.800 C 128.612 48.800,129.199 48.485,129.557 48.100 C 130.396 47.199,131.823 46.400,132.595 46.400 C 132.928 46.400,133.200 46.220,133.200 46.000 C 133.200 45.780,133.650 45.600,134.200 45.600 C 134.750 45.600,135.200 45.420,135.200 45.200 C 135.200 44.980,136.154 44.800,137.320 44.800 C 138.486 44.800,139.656 44.584,139.920 44.320 C 140.293 43.947,140.507 43.947,140.880 44.320 C 141.144 44.584,142.314 44.800,143.480 44.800 C 144.646 44.800,145.600 44.980,145.600 45.200 C 145.600 45.420,146.129 45.600,146.776 45.600 C 147.423 45.600,148.064 45.780,148.200 46.000 C 148.336 46.220,149.067 46.400,149.824 46.400 C 150.581 46.400,151.200 46.220,151.200 46.000 C 151.200 45.780,151.470 45.600,151.800 45.600 C 152.130 45.600,152.400 45.420,152.400 45.200 C 152.400 44.980,152.630 44.800,152.912 44.800 C 153.193 44.800,153.683 44.440,154.000 44.000 C 154.317 43.560,154.773 43.200,155.013 43.200 C 155.253 43.200,155.813 42.861,156.258 42.446 C 156.703 42.032,157.682 41.561,158.433 41.399 C 159.185 41.238,159.980 40.994,160.200 40.856 C 161.147 40.265,163.499 39.612,164.700 39.606 C 165.415 39.603,166.000 39.420,166.000 39.200 C 166.000 38.958,167.733 38.800,170.400 38.800 C 173.067 38.800,174.800 38.958,174.800 39.200 " stroke="none" fill="#040404" fill-rule="evenodd"></path><path id="path1" d="" stroke="none" fill="#080404" fill-rule="evenodd"></path><path id="path2" d="" stroke="none" fill="#080404" fill-rule="evenodd"></path></g></svg>