<svg id="svg" version="1.1" xmlns="http://www.w3.org/2000/svg" xmlns:xlink="http://www.w3.org/1999/xlink" width="400" height="400" viewBox="0, 0, 400,400"><g id="svgg"><path id="path0" d="M135.600 89.465 C 116.400 91.347,104.162 94.952,89.000 103.193 C 78.490 108.905,66.699 118.512,59.096 127.556 C 57.504 129.450,56.107 131.090,55.990 131.200 C 54.949 132.186,48.513 141.549,46.904 144.417 C 41.171 154.638,37.056 165.035,34.797 175.000 C 33.796 179.417,33.625 180.324,33.216 183.400 C 32.982 185.160,32.613 187.894,32.395 189.477 C 31.876 193.258,31.888 206.489,32.415 210.800 C 32.985 215.465,33.590 219.474,34.031 221.500 C 35.401 227.805,35.610 228.595,37.343 234.000 C 39.603 241.046,42.314 247.322,45.897 253.800 C 47.257 256.261,50.883 262.127,51.212 262.400 C 51.344 262.510,52.059 263.500,52.799 264.600 C 61.538 277.578,79.687 292.878,94.400 299.669 C 106.792 305.389,116.087 308.133,129.600 310.058 C 134.460 310.751,151.375 310.755,155.800 310.064 C 161.329 309.201,168.159 307.954,169.200 307.617 C 169.750 307.439,171.010 307.066,172.000 306.790 C 174.412 306.115,180.777 304.051,181.900 303.579 C 182.395 303.370,183.205 303.044,183.700 302.854 C 185.782 302.052,186.740 301.630,189.330 300.374 L 192.061 299.049 191.130 298.310 C 190.619 297.904,189.390 297.001,188.400 296.304 C 169.585 283.058,154.108 262.759,146.082 240.800 C 145.640 239.590,144.989 237.827,144.635 236.882 C 138.969 221.740,137.317 196.067,140.858 178.200 C 147.003 147.200,164.121 120.599,189.111 103.215 C 192.573 100.807,192.526 100.752,184.244 97.452 C 174.723 93.658,169.316 92.187,158.400 90.420 C 152.318 89.436,140.815 88.954,135.600 89.465 " stroke="none" fill="#fba934" fill-rule="evenodd"></path><path id="path1" d="M0.000 1.000 C 0.000 2.185,0.430 2.272,1.338 1.269 C 2.243 0.268,2.171 0.000,1.000 0.000 C 0.200 0.000,0.000 0.200,0.000 1.000 M6.500 6.621 L -0.000 13.183 -0.000 15.391 C 0.000 18.298,-0.672 18.769,9.048 9.048 C 18.789 -0.692,18.315 -0.009,15.300 0.030 L 13.000 0.060 6.500 6.621 M14.300 14.411 L 0.000 28.767 0.000 30.984 C 0.000 32.203,0.113 33.200,0.251 33.200 C 0.579 33.200,33.200 0.579,33.200 0.251 C 33.200 0.113,32.165 0.012,30.900 0.028 L 28.600 0.055 14.300 14.411 M22.196 22.196 L 0.000 44.391 0.000 46.596 C 0.000 47.808,0.116 48.800,0.258 48.800 C 0.596 48.800,48.800 0.596,48.800 0.258 C 48.800 0.116,47.808 0.000,46.596 0.000 L 44.391 0.000 22.196 22.196 M30.001 30.001 L 0.000 60.003 0.000 62.201 C 0.000 63.411,0.135 64.395,0.300 64.389 C 0.677 64.376,64.400 0.631,64.400 0.267 C 64.400 0.120,63.411 0.000,62.201 0.000 L 60.003 0.000 30.001 30.001 M70.839 4.761 C 68.208 7.379,66.163 9.629,66.294 9.761 C 66.426 9.892,66.273 10.000,65.955 10.000 C 65.637 10.000,65.112 10.379,64.788 10.842 C 64.032 11.925,61.925 14.032,60.842 14.788 C 60.379 15.112,60.000 15.637,60.000 15.955 C 60.000 16.273,59.894 16.427,59.765 16.298 C 59.460 15.993,49.672 25.704,49.885 26.100 C 49.974 26.265,49.756 26.400,49.400 26.400 C 49.044 26.400,48.864 26.580,49.000 26.800 C 49.136 27.020,49.044 27.200,48.795 27.200 C 48.546 27.200,48.073 27.470,47.743 27.800 C 47.413 28.130,47.230 28.400,47.337 28.400 C 47.444 28.400,46.962 29.002,46.266 29.737 C 45.570 30.472,44.934 31.021,44.852 30.956 C 44.605 30.758,43.600 31.913,43.600 32.395 C 43.600 32.644,43.465 32.774,43.300 32.685 C 42.904 32.472,32.393 43.060,32.698 43.365 C 32.828 43.494,32.710 43.600,32.438 43.600 C 31.924 43.600,30.749 44.593,30.956 44.852 C 31.021 44.934,30.472 45.570,29.737 46.266 C 29.002 46.962,28.400 47.444,28.400 47.337 C 28.400 47.230,28.130 47.413,27.800 47.743 C 27.470 48.073,27.200 48.546,27.200 48.795 C 27.200 49.044,27.020 49.136,26.800 49.000 C 26.580 48.864,26.400 49.063,26.400 49.443 C 26.400 49.823,26.294 50.027,26.165 49.898 C 25.860 49.593,16.072 59.304,16.285 59.700 C 16.374 59.865,16.206 60.000,15.912 60.000 C 15.617 60.000,15.112 60.379,14.788 60.842 C 14.032 61.925,11.925 64.032,10.842 64.788 C 10.379 65.112,10.000 65.637,10.000 65.955 C 10.000 66.273,9.892 66.426,9.761 66.294 C 9.629 66.163,7.379 68.208,4.761 70.839 L 0.000 75.624 0.000 77.812 C 0.000 79.015,0.135 79.997,0.300 79.993 C 0.682 79.984,80.000 0.652,80.000 0.278 C 80.000 0.125,79.015 0.000,77.812 0.000 L 75.624 0.000 70.839 4.761 M45.625 45.625 L 0.000 91.249 0.000 93.425 C 0.000 94.621,0.135 95.600,0.301 95.600 C 0.693 95.600,95.600 0.692,95.600 0.299 C 95.600 0.135,94.621 0.000,93.425 0.000 L 91.249 0.000 45.625 45.625 M53.437 53.437 L 0.000 106.874 0.000 109.070 C 0.000 110.444,0.159 111.214,0.425 111.125 C 1.015 110.928,111.200 0.711,111.200 0.318 C 111.200 0.143,110.227 0.000,109.037 0.000 L 106.874 0.000 53.437 53.437 M61.253 61.253 L 0.000 122.506 0.000 124.653 C 0.000 125.834,0.154 126.800,0.342 126.800 C 0.789 126.800,126.800 0.789,126.800 0.342 C 126.800 0.154,125.834 0.000,124.653 0.000 L 122.506 0.000 61.253 61.253 M69.179 68.976 L 0.200 137.953 0.080 140.176 C 0.014 141.399,0.131 142.400,0.339 142.400 C 0.821 142.400,142.400 0.841,142.400 0.359 C 142.400 0.161,141.445 0.000,140.279 0.000 L 138.158 0.000 69.179 68.976 M76.900 76.904 L 0.000 153.807 0.000 155.903 C 0.000 157.057,0.168 158.000,0.372 158.000 C 0.859 158.000,158.000 0.859,158.000 0.372 C 158.000 0.168,157.055 0.000,155.900 0.001 L 153.800 0.002 76.900 76.904 M84.700 84.728 L -0.000 169.442 -0.000 171.521 C -0.000 172.664,0.173 173.600,0.385 173.600 C 0.596 173.600,11.498 162.872,24.611 149.760 C 37.725 136.648,48.560 126.027,48.691 126.158 C 48.821 126.288,48.576 126.711,48.145 127.097 C 47.714 127.484,46.925 128.430,46.392 129.200 C 45.858 129.970,45.102 130.949,44.711 131.375 C 44.320 131.802,44.000 132.387,44.000 132.675 C 44.000 132.964,43.847 133.200,43.661 133.200 C 43.474 133.200,42.997 133.920,42.600 134.800 C 42.203 135.680,41.726 136.400,41.539 136.400 C 41.353 136.400,41.200 136.760,41.200 137.200 C 41.200 137.640,41.020 138.000,40.800 138.000 C 40.580 138.000,40.400 138.320,40.400 138.712 C 40.400 139.103,40.040 139.683,39.600 140.000 C 39.160 140.317,38.800 140.897,38.800 141.288 C 38.800 141.680,38.620 142.000,38.400 142.000 C 38.180 142.000,38.000 142.270,38.000 142.600 C 38.000 142.930,37.820 143.200,37.600 143.200 C 37.380 143.200,37.200 143.560,37.200 144.000 C 37.200 144.440,37.020 144.800,36.800 144.800 C 36.580 144.800,36.400 145.160,36.400 145.600 C 36.400 146.040,36.220 146.400,36.000 146.400 C 35.780 146.400,35.600 146.760,35.600 147.200 C 35.600 147.640,35.420 148.000,35.200 148.000 C 34.980 148.000,34.800 148.360,34.800 148.800 C 34.800 149.240,34.620 149.600,34.400 149.600 C 34.180 149.600,34.000 149.892,34.000 150.248 C 34.000 151.028,32.232 152.867,14.103 170.944 L 0.005 185.000 0.003 187.100 C 0.001 188.255,0.180 189.200,0.399 189.200 C 0.619 189.200,7.294 182.705,15.233 174.767 C 23.172 166.829,29.775 160.442,29.907 160.574 C 30.039 160.705,29.934 161.026,29.673 161.287 C 29.413 161.547,29.200 162.086,29.200 162.485 C 29.200 162.884,29.042 163.523,28.849 163.905 C 28.260 165.072,27.600 167.408,27.600 168.328 C 27.600 168.808,27.420 169.200,27.200 169.200 C 26.980 169.200,26.800 169.909,26.800 170.776 C 26.800 171.643,26.620 172.464,26.400 172.600 C 26.180 172.736,26.000 173.266,26.000 173.777 C 26.000 174.465,22.613 178.087,12.979 187.702 L -0.043 200.698 0.079 203.049 L 0.200 205.400 12.500 193.100 L 24.800 180.801 24.800 183.200 C 24.800 184.533,24.622 185.600,24.400 185.600 C 24.165 185.600,24.000 186.983,24.000 188.950 L 24.000 192.301 11.979 204.309 L -0.042 216.317 0.079 218.658 L 0.200 221.000 11.700 209.515 L 23.200 198.030 23.200 200.215 C 23.200 201.417,23.380 202.400,23.600 202.400 C 23.828 202.400,24.000 203.589,24.000 205.167 L 24.000 207.934 12.000 219.921 L 0.000 231.907 0.000 234.154 C 0.000 235.389,0.108 236.400,0.240 236.400 C 0.372 236.400,5.772 231.104,12.240 224.631 C 19.662 217.202,24.000 213.133,24.000 213.597 C 24.000 214.002,24.153 214.393,24.339 214.467 C 24.526 214.540,24.790 216.347,24.927 218.483 L 25.176 222.366 12.588 234.946 L 0.000 247.525 0.000 249.763 C 0.000 250.993,0.115 252.000,0.255 252.000 C 0.395 252.000,6.173 246.323,13.095 239.384 C 26.512 225.934,26.800 225.721,26.800 229.249 C 26.800 230.102,26.960 230.800,27.156 230.800 C 27.352 230.800,27.595 231.385,27.695 232.100 C 27.796 232.815,28.007 233.696,28.166 234.057 C 28.384 234.558,25.061 238.106,14.226 248.937 L 0.000 263.159 0.000 265.380 C 0.000 266.601,0.118 267.600,0.263 267.600 C 0.408 267.600,6.986 261.120,14.883 253.200 C 29.591 238.447,30.000 238.085,30.000 239.800 C 30.000 240.350,30.180 240.800,30.400 240.800 C 30.620 240.800,30.800 241.239,30.800 241.776 C 30.800 242.313,30.980 242.864,31.200 243.000 C 31.420 243.136,31.600 243.597,31.600 244.024 C 31.600 244.451,31.780 244.800,32.000 244.800 C 33.613 244.800,31.018 247.717,16.200 262.558 L -0.000 278.784 -0.000 280.992 C -0.000 282.206,0.112 283.200,0.250 283.200 C 0.387 283.200,7.960 275.741,17.079 266.624 C 33.177 250.530,34.800 249.121,34.800 251.243 C 34.800 251.659,34.980 252.000,35.200 252.000 C 35.420 252.000,35.600 252.360,35.600 252.800 C 35.600 253.240,35.780 253.600,36.000 253.600 C 36.220 253.600,36.400 253.960,36.400 254.400 C 36.400 254.840,36.580 255.200,36.800 255.200 C 38.896 255.200,36.719 257.663,18.600 275.789 L -0.000 294.397 -0.000 296.598 C -0.000 297.809,0.115 298.800,0.255 298.800 C 0.396 298.800,9.287 290.025,20.013 279.300 C 39.430 259.884,40.400 259.032,40.400 261.383 C 40.400 261.722,40.580 262.000,40.800 262.000 C 41.020 262.000,41.200 262.360,41.200 262.800 C 41.200 263.240,41.347 263.600,41.526 263.600 C 41.808 263.600,43.200 266.102,43.200 266.609 C 43.200 266.709,33.480 276.515,21.600 288.400 L 0.000 310.010 0.000 312.205 C 0.000 313.412,0.135 314.395,0.300 314.390 C 0.465 314.384,10.677 304.291,22.993 291.960 L 45.385 269.542 46.103 270.471 C 46.497 270.982,47.266 271.898,47.810 272.507 C 48.355 273.116,48.800 273.725,48.800 273.860 C 48.800 273.995,49.188 274.442,49.661 274.853 C 50.135 275.264,50.304 275.600,50.038 275.600 C 49.771 275.600,49.664 275.780,49.800 276.000 C 49.936 276.220,49.756 276.400,49.400 276.400 C 49.044 276.400,48.864 276.580,49.000 276.800 C 49.136 277.020,49.044 277.200,48.795 277.200 C 48.546 277.200,48.073 277.470,47.743 277.800 C 47.413 278.130,47.230 278.400,47.337 278.400 C 47.444 278.400,46.962 279.002,46.266 279.737 C 45.570 280.472,44.934 281.021,44.852 280.956 C 44.605 280.758,43.600 281.913,43.600 282.395 C 43.600 282.644,43.465 282.774,43.300 282.685 C 42.904 282.472,32.393 293.060,32.698 293.365 C 32.828 293.494,32.710 293.600,32.438 293.600 C 31.924 293.600,30.749 294.593,30.956 294.852 C 31.021 294.934,30.472 295.570,29.737 296.266 C 29.002 296.962,28.400 297.444,28.400 297.337 C 28.400 297.230,28.130 297.413,27.800 297.743 C 27.470 298.073,27.200 298.546,27.200 298.795 C 27.200 299.044,27.020 299.136,26.800 299.000 C 26.580 298.864,26.400 299.044,26.400 299.400 C 26.400 299.756,26.265 299.974,26.100 299.885 C 25.704 299.672,15.993 309.460,16.298 309.765 C 16.427 309.894,16.273 310.000,15.955 310.000 C 15.637 310.000,15.112 310.379,14.788 310.842 C 14.032 311.925,11.925 314.032,10.842 314.788 C 10.379 315.112,10.000 315.637,10.000 315.955 C 10.000 316.273,9.892 316.426,9.761 316.294 C 9.629 316.163,7.379 318.208,4.761 320.839 L 0.000 325.624 0.000 327.812 C 0.000 329.015,0.135 329.998,0.300 329.996 C 0.465 329.994,9.905 320.679,21.278 309.296 C 32.650 297.913,44.286 286.282,47.134 283.449 L 52.313 278.298 54.972 280.957 L 57.631 283.616 28.816 312.431 L -0.000 341.246 -0.000 343.423 C -0.000 344.620,0.135 345.600,0.299 345.600 C 0.463 345.600,13.946 332.253,30.259 315.941 L 59.921 286.281 61.749 287.995 C 62.754 288.937,63.942 289.964,64.388 290.277 C 64.835 290.590,65.200 291.041,65.200 291.280 C 65.200 291.519,50.530 306.370,32.600 324.282 L -0.000 356.850 -0.000 359.058 C -0.000 360.405,0.162 361.213,0.415 361.128 C 0.643 361.052,15.956 345.872,34.445 327.395 C 70.685 291.176,68.689 292.940,70.835 295.238 C 71.432 295.877,72.143 296.400,72.414 296.400 C 72.684 296.400,73.240 296.785,73.649 297.256 C 74.391 298.112,74.366 298.138,37.196 335.307 L 0.000 372.501 0.000 374.651 C 0.000 375.833,0.153 376.800,0.341 376.800 C 0.528 376.800,17.871 359.610,38.880 338.600 C 73.026 304.453,78.400 299.313,78.400 300.800 C 78.400 301.020,78.678 301.200,79.017 301.200 C 79.356 301.200,80.020 301.560,80.492 302.000 C 80.964 302.440,81.587 302.800,81.875 302.800 C 82.164 302.800,82.400 302.980,82.400 303.200 C 82.400 303.420,82.760 303.600,83.200 303.600 C 84.598 303.600,84.721 303.472,41.997 346.172 L 0.000 388.144 0.000 390.272 C 0.000 391.442,0.159 392.400,0.352 392.400 C 0.546 392.400,20.172 372.940,43.965 349.156 L 87.225 305.911 89.913 307.212 C 91.391 307.927,93.098 308.622,93.706 308.756 C 94.747 308.986,92.184 311.627,49.607 354.200 C 24.744 379.060,4.401 399.535,4.401 399.700 C 4.400 399.865,5.379 400.000,6.576 400.000 L 8.753 400.000 53.576 355.174 C 78.229 330.519,98.400 310.539,98.400 310.774 C 98.400 311.008,98.850 311.200,99.400 311.200 C 99.950 311.200,100.400 311.380,100.400 311.600 C 100.400 311.820,100.940 312.000,101.600 312.000 C 102.260 312.000,102.800 312.180,102.800 312.400 C 102.800 312.620,103.321 312.800,103.957 312.800 C 104.594 312.800,105.209 313.047,105.325 313.348 C 105.457 313.693,89.619 329.810,62.775 356.648 C 39.257 380.162,20.012 399.535,20.008 399.700 C 20.003 399.865,20.985 400.000,22.188 400.000 L 24.376 400.000 67.188 357.184 C 90.735 333.635,110.000 314.555,110.000 314.784 C 110.000 315.013,110.630 315.200,111.400 315.200 C 112.170 315.200,112.800 315.380,112.800 315.600 C 112.800 315.820,113.484 316.000,114.320 316.000 C 115.156 316.000,116.011 316.163,116.220 316.361 C 116.429 316.560,116.930 316.785,117.332 316.861 C 117.864 316.962,106.747 328.320,76.832 358.241 C 54.155 380.923,35.600 399.598,35.600 399.741 C 35.600 399.883,36.589 400.000,37.798 400.000 L 39.996 400.000 81.198 358.800 C 117.555 322.445,122.541 317.600,123.600 317.600 C 124.260 317.600,124.800 317.780,124.800 318.000 C 124.800 318.235,126.200 318.400,128.200 318.400 C 130.070 318.400,131.600 318.552,131.600 318.738 C 131.600 318.924,113.510 337.167,91.400 359.278 C 69.290 381.389,51.200 399.597,51.200 399.740 C 51.200 399.883,52.192 400.000,53.404 400.000 L 55.607 400.000 96.016 359.600 L 136.424 319.200 141.682 319.200 L 146.939 319.200 145.970 320.246 C 145.436 320.821,127.405 338.885,105.900 360.388 C 84.395 381.890,66.800 399.600,66.800 399.742 C 66.800 399.884,67.798 400.000,69.018 400.000 L 71.235 400.000 111.636 359.600 C 142.752 328.484,152.256 319.200,152.994 319.200 C 153.522 319.200,154.064 319.020,154.200 318.800 C 154.336 318.580,155.772 318.400,157.390 318.400 C 159.123 318.400,160.392 318.224,160.476 317.973 C 160.557 317.729,161.373 317.600,162.376 317.673 L 164.134 317.800 123.267 358.651 C 100.790 381.119,82.400 399.614,82.400 399.751 C 82.400 399.888,83.398 400.000,84.618 400.000 L 86.836 400.000 128.857 358.000 C 155.152 331.719,171.163 316.000,171.639 316.000 C 172.058 316.000,172.400 315.820,172.400 315.600 C 172.400 315.380,173.030 315.200,173.800 315.200 C 174.570 315.200,175.200 315.020,175.200 314.800 C 175.200 314.580,175.740 314.400,176.400 314.400 C 177.060 314.400,177.600 314.220,177.600 314.000 C 177.600 313.780,178.219 313.600,178.976 313.600 C 179.733 313.600,180.464 313.420,180.600 313.200 C 180.736 312.980,181.197 312.800,181.624 312.800 C 182.051 312.800,182.400 312.620,182.400 312.400 C 182.400 312.180,182.940 312.000,183.600 312.000 C 184.260 312.000,184.800 311.820,184.800 311.600 C 184.800 311.380,185.142 311.200,185.559 311.200 C 186.043 311.200,170.292 327.228,142.159 355.362 C 117.872 379.651,98.000 399.631,98.000 399.762 C 98.000 399.893,99.006 400.000,100.236 400.000 L 102.472 400.000 148.837 353.635 C 195.798 306.674,197.356 305.200,200.000 305.200 C 200.736 305.200,204.691 307.100,205.002 307.604 C 205.116 307.788,184.597 328.548,159.405 353.737 C 134.212 378.926,113.600 399.640,113.600 399.768 C 113.600 399.896,114.609 400.000,115.842 400.000 L 118.085 400.000 163.728 354.358 C 188.832 329.254,209.438 308.914,209.519 309.158 C 209.600 309.401,210.012 309.600,210.433 309.600 C 210.855 309.600,211.200 309.780,211.200 310.000 C 211.200 310.220,211.560 310.400,212.000 310.400 C 212.440 310.400,212.800 310.580,212.800 310.800 C 212.800 311.020,213.340 311.200,214.000 311.200 C 214.660 311.200,215.200 311.380,215.200 311.600 C 215.200 311.820,215.550 312.000,215.978 312.000 C 216.486 312.000,201.569 327.194,172.878 355.900 L 129.000 399.800 131.331 399.921 L 133.661 400.042 176.890 356.821 C 220.826 312.893,222.400 311.412,222.400 314.000 C 222.400 314.220,222.940 314.400,223.600 314.400 C 224.260 314.400,224.800 314.580,224.800 314.800 C 224.800 315.020,225.411 315.200,226.157 315.200 C 229.185 315.200,229.085 315.307,186.290 358.106 L 144.600 399.800 146.941 399.921 L 149.281 400.042 190.898 358.421 C 233.184 316.130,234.800 314.613,234.800 317.200 C 234.800 317.422,235.867 317.600,237.200 317.600 C 238.533 317.600,239.600 317.778,239.600 318.000 C 239.600 318.220,239.960 318.400,240.400 318.400 C 241.650 318.400,243.263 316.738,201.000 359.001 C 178.890 381.111,160.800 399.381,160.800 399.600 C 160.800 399.820,161.745 399.996,162.900 399.992 L 165.000 399.983 205.364 359.592 L 245.728 319.200 250.864 319.200 C 253.689 319.200,256.000 319.298,256.000 319.417 C 256.000 319.537,254.571 321.048,252.825 322.775 C 251.079 324.503,249.759 326.025,249.892 326.158 C 250.025 326.291,249.823 326.400,249.443 326.400 C 249.063 326.400,248.864 326.580,249.000 326.800 C 249.136 327.020,249.044 327.200,248.795 327.200 C 248.546 327.200,248.073 327.470,247.743 327.800 C 247.413 328.130,247.230 328.400,247.337 328.400 C 247.444 328.400,246.962 329.002,246.266 329.737 C 245.570 330.472,244.934 331.021,244.852 330.956 C 244.605 330.758,243.600 331.913,243.600 332.395 C 243.600 332.644,243.465 332.774,243.300 332.685 C 242.904 332.472,232.393 343.060,232.698 343.365 C 232.828 343.494,232.710 343.600,232.438 343.600 C 231.924 343.600,230.749 344.593,230.956 344.852 C 231.021 344.934,230.472 345.570,229.737 346.266 C 229.002 346.962,228.400 347.444,228.400 347.337 C 228.400 347.230,228.130 347.413,227.800 347.743 C 227.470 348.073,227.200 348.546,227.200 348.795 C 227.200 349.044,227.020 349.136,226.800 349.000 C 226.580 348.864,226.400 349.063,226.400 349.443 C 226.400 349.823,226.294 350.027,226.165 349.898 C 225.860 349.593,216.072 359.304,216.285 359.700 C 216.374 359.865,216.206 360.000,215.912 360.000 C 215.617 360.000,215.112 360.379,214.788 360.842 C 214.032 361.925,211.925 364.032,210.842 364.788 C 210.379 365.112,210.000 365.637,210.000 365.955 C 210.000 366.273,209.894 366.427,209.765 366.298 C 209.460 365.993,199.672 375.704,199.885 376.100 C 199.974 376.265,199.756 376.400,199.400 376.400 C 199.044 376.400,198.864 376.580,199.000 376.800 C 199.136 377.020,199.044 377.200,198.795 377.200 C 198.546 377.200,198.073 377.470,197.743 377.800 C 197.413 378.130,197.230 378.400,197.337 378.400 C 197.444 378.400,196.962 379.002,196.266 379.737 C 195.570 380.472,194.934 381.021,194.852 380.956 C 194.605 380.758,193.600 381.913,193.600 382.395 C 193.600 382.644,193.465 382.774,193.300 382.685 C 192.904 382.472,182.393 393.060,182.698 393.365 C 182.828 393.494,182.710 393.600,182.438 393.600 C 181.924 393.600,180.749 394.593,180.956 394.852 C 181.021 394.934,180.472 395.570,179.737 396.266 C 179.002 396.962,178.400 397.444,178.400 397.337 C 178.400 397.230,178.130 397.413,177.800 397.743 C 177.470 398.073,177.200 398.546,177.200 398.795 C 177.200 399.044,177.020 399.136,176.800 399.000 C 176.580 398.864,176.400 399.033,176.400 399.376 C 176.400 399.863,176.862 399.999,178.500 399.994 L 180.600 399.988 220.974 359.594 L 261.349 319.200 264.874 319.200 C 266.958 319.200,268.400 319.036,268.400 318.800 C 268.400 318.580,269.300 318.400,270.400 318.400 C 271.500 318.400,272.400 318.500,272.400 318.622 C 272.400 318.744,254.310 336.939,232.200 359.055 C 210.090 381.170,192.000 399.430,192.000 399.633 C 192.000 399.835,192.945 400.000,194.101 400.000 L 196.201 400.000 237.400 358.800 C 260.709 335.491,278.903 317.600,279.299 317.600 C 279.685 317.600,280.000 317.420,280.000 317.200 C 280.000 316.980,280.799 316.800,281.776 316.800 C 282.753 316.800,283.664 316.620,283.800 316.400 C 283.936 316.180,284.757 316.000,285.624 316.000 C 286.491 316.000,287.200 315.820,287.200 315.600 C 287.200 315.380,287.830 315.200,288.600 315.200 C 289.370 315.200,290.000 315.020,290.000 314.800 C 290.000 314.580,290.540 314.400,291.200 314.400 C 291.860 314.400,292.400 314.220,292.400 314.000 C 292.400 313.780,292.593 313.600,292.829 313.600 C 293.066 313.600,273.986 332.882,250.429 356.449 C 226.873 380.016,207.600 399.456,207.600 399.649 C 207.600 399.842,208.555 400.000,209.721 400.000 L 211.843 400.000 256.621 355.208 C 294.194 317.624,301.577 310.414,302.500 310.408 C 303.105 310.403,303.600 310.220,303.600 310.000 C 303.600 309.780,303.960 309.600,304.400 309.600 C 304.840 309.600,305.200 309.420,305.200 309.200 C 305.200 308.980,305.562 308.800,306.004 308.800 C 306.937 308.800,315.735 304.520,315.933 303.970 C 316.007 303.766,316.412 303.600,316.833 303.600 C 317.255 303.600,317.600 303.420,317.600 303.200 C 317.600 302.980,317.836 302.800,318.125 302.800 C 318.413 302.800,319.055 302.422,319.551 301.960 C 320.047 301.498,320.557 301.224,320.684 301.351 C 320.812 301.478,298.930 323.575,272.058 350.455 C 245.186 377.335,223.200 399.479,223.200 399.664 C 223.200 399.849,224.166 400.000,225.346 400.000 L 227.493 400.000 313.746 313.746 L 400.000 227.493 400.000 225.346 C 400.000 224.166,399.849 223.200,399.665 223.200 C 399.481 223.200,390.146 232.382,378.920 243.605 C 364.703 257.818,358.567 263.705,358.701 263.005 C 358.807 262.452,359.052 262.000,359.247 262.000 C 359.441 262.000,359.600 261.706,359.600 261.347 C 359.600 260.988,359.929 260.403,360.330 260.047 C 360.732 259.691,361.316 258.815,361.628 258.100 C 361.940 257.385,362.331 256.800,362.498 256.800 C 362.664 256.800,362.800 256.440,362.800 256.000 C 362.800 255.560,362.980 255.200,363.200 255.200 C 363.420 255.200,363.600 254.840,363.600 254.400 C 363.600 253.960,363.780 253.600,364.000 253.600 C 364.220 253.600,364.400 253.240,364.400 252.800 C 364.400 252.360,364.580 252.000,364.800 252.000 C 365.020 252.000,365.200 251.640,365.200 251.200 C 365.200 250.760,365.380 250.400,365.600 250.400 C 365.820 250.400,366.000 250.040,366.000 249.600 C 366.000 249.160,366.180 248.800,366.400 248.800 C 366.620 248.800,366.800 248.451,366.800 248.024 C 366.800 247.597,366.980 247.136,367.200 247.000 C 367.420 246.864,367.600 246.313,367.600 245.776 C 367.600 245.239,367.780 244.800,368.000 244.800 C 368.220 244.800,368.401 244.485,368.403 244.100 C 368.405 243.714,375.487 236.334,384.203 227.636 L 400.000 211.872 400.000 209.736 C 400.000 208.561,399.847 207.600,399.660 207.600 C 399.473 207.600,393.165 213.743,385.643 221.250 C 373.044 233.825,370.780 235.879,371.968 233.661 C 372.205 233.216,372.400 232.401,372.400 231.850 C 372.400 231.298,372.580 230.736,372.800 230.600 C 373.020 230.464,373.200 229.744,373.200 229.000 C 373.200 228.256,373.361 227.548,373.558 227.426 C 373.755 227.305,374.018 226.529,374.142 225.703 C 374.828 221.163,374.085 222.110,387.437 208.763 L 400.000 196.205 400.000 194.102 C 400.000 192.946,399.835 192.000,399.633 192.000 C 399.432 192.000,393.852 197.418,387.233 204.039 C 378.569 212.708,375.200 215.844,375.200 215.239 C 375.200 214.778,375.380 214.400,375.600 214.400 C 375.845 214.400,376.000 212.497,376.000 209.490 L 376.000 204.581 387.992 192.590 L 399.984 180.600 399.992 178.500 C 399.998 176.861,399.863 176.400,399.376 176.400 C 399.033 176.400,398.864 176.580,399.000 176.800 C 399.136 177.020,399.044 177.200,398.795 177.200 C 398.546 177.200,398.073 177.470,397.743 177.800 C 397.413 178.130,397.230 178.400,397.337 178.400 C 397.444 178.400,396.962 179.002,396.266 179.737 C 395.570 180.472,394.934 181.021,394.852 180.956 C 394.605 180.758,393.600 181.913,393.600 182.395 C 393.600 182.644,393.465 182.774,393.300 182.685 C 392.904 182.472,382.393 193.060,382.698 193.365 C 382.828 193.494,382.710 193.600,382.438 193.600 C 381.924 193.600,380.749 194.593,380.956 194.852 C 381.021 194.934,380.472 195.570,379.737 196.266 C 379.002 196.962,378.400 197.444,378.400 197.337 C 378.400 197.230,378.130 197.413,377.800 197.743 C 377.470 198.073,377.199 198.581,377.198 198.871 C 377.196 199.162,376.926 198.884,376.598 198.254 C 376.182 197.457,376.000 195.870,376.000 193.032 L 376.000 188.956 387.992 176.978 L 399.984 165.000 399.992 162.900 C 399.996 161.745,399.821 160.800,399.602 160.800 C 399.383 160.800,393.827 166.175,387.255 172.745 L 375.307 184.689 375.030 180.675 C 374.878 178.467,374.587 176.350,374.384 175.970 C 374.079 175.400,376.297 173.001,387.029 162.291 L 400.043 149.302 399.921 146.951 L 399.800 144.600 386.701 157.700 C 372.840 171.563,373.200 171.235,373.200 170.000 C 373.200 169.560,373.020 169.200,372.800 169.200 C 372.580 169.200,372.400 168.808,372.400 168.328 C 372.400 167.408,371.740 165.072,371.151 163.905 C 370.958 163.523,370.800 163.128,370.800 163.027 C 370.800 162.927,377.380 156.287,385.422 148.274 L 400.043 133.703 399.922 131.352 L 399.800 129.000 384.700 144.100 C 368.473 160.328,369.200 159.665,369.200 158.224 C 369.200 157.687,369.020 157.136,368.800 157.000 C 368.580 156.864,368.400 156.403,368.400 155.976 C 368.400 155.549,368.220 155.200,368.000 155.200 C 367.780 155.200,367.600 154.761,367.600 154.224 C 367.600 153.687,367.420 153.136,367.200 153.000 C 366.045 152.286,367.852 150.244,383.400 134.684 L 400.000 118.072 400.000 115.836 C 400.000 114.606,399.892 113.600,399.760 113.600 C 399.629 113.600,391.789 121.340,382.340 130.800 C 365.154 148.005,364.400 148.694,364.400 147.200 C 364.400 146.760,364.220 146.400,364.000 146.400 C 363.780 146.400,363.600 146.040,363.600 145.600 C 363.600 145.160,363.420 144.800,363.200 144.800 C 362.980 144.800,362.800 144.440,362.800 144.000 C 362.800 143.560,362.620 143.200,362.400 143.200 C 362.180 143.200,362.000 142.930,362.000 142.600 C 362.000 142.270,361.820 142.000,361.600 142.000 C 360.585 142.000,362.380 140.098,380.600 121.872 L 400.000 102.465 400.000 100.233 C 400.000 99.005,399.890 98.000,399.757 98.000 C 399.623 98.000,390.517 107.000,379.520 118.000 C 359.625 137.903,358.800 138.669,358.800 137.261 C 358.800 136.855,358.445 136.113,358.012 135.614 C 357.578 135.114,357.116 134.366,356.985 133.952 C 356.854 133.539,356.598 133.200,356.416 133.200 C 356.235 133.200,355.976 132.761,355.842 132.224 C 355.624 131.355,358.051 128.793,377.798 109.047 L 400.000 86.846 400.000 84.623 C 400.000 83.400,399.884 82.400,399.743 82.400 C 399.602 82.400,389.151 92.750,376.519 105.400 C 363.887 118.050,353.464 128.400,353.357 128.400 C 353.045 128.400,351.202 126.467,351.182 126.118 C 351.171 125.943,350.492 125.184,349.672 124.431 L 348.181 123.062 374.090 97.146 L 400.000 71.231 400.000 69.016 C 400.000 67.797,399.883 66.800,399.740 66.800 C 399.597 66.800,389.443 76.835,377.175 89.100 C 364.908 101.365,352.891 113.361,350.470 115.758 L 346.070 120.117 343.635 117.636 C 342.296 116.271,341.200 114.991,341.200 114.790 C 341.200 114.589,354.430 101.191,370.600 85.015 L 400.000 55.605 400.000 53.402 C 400.000 52.191,399.880 51.200,399.734 51.200 C 399.588 51.200,385.796 64.880,369.085 81.600 C 352.374 98.320,338.631 112.000,338.545 112.000 C 338.459 112.000,337.431 111.235,336.260 110.300 C 335.089 109.365,333.763 108.351,333.315 108.047 C 332.544 107.525,334.353 105.641,366.250 73.747 L 400.000 39.999 400.000 37.800 C 400.000 36.590,399.881 35.600,399.736 35.600 C 399.590 35.600,385.472 49.595,368.361 66.700 C 351.250 83.805,335.535 99.500,333.439 101.578 L 329.629 105.356 328.867 104.478 C 328.449 103.995,327.901 103.600,327.649 103.600 C 327.398 103.600,326.628 103.060,325.937 102.400 C 325.246 101.740,324.528 101.200,324.341 101.200 C 323.299 101.200,327.197 97.181,362.000 62.375 L 400.000 24.371 400.000 22.186 C 400.000 20.984,399.865 20.003,399.700 20.006 C 399.535 20.009,382.714 36.704,362.320 57.106 C 341.926 77.508,324.168 95.258,322.858 96.550 L 320.475 98.901 319.562 98.050 C 319.060 97.583,318.413 97.200,318.125 97.200 C 317.836 97.200,317.600 97.020,317.600 96.800 C 317.600 96.580,317.240 96.400,316.800 96.400 C 316.360 96.400,316.000 96.232,316.000 96.027 C 316.000 95.822,315.640 95.540,315.200 95.400 C 314.760 95.260,314.400 94.964,314.400 94.742 C 314.400 94.520,333.660 75.082,357.200 51.548 L 400.000 8.758 400.000 6.579 C 400.000 5.381,399.865 4.400,399.700 4.401 C 399.535 4.401,379.442 24.362,355.048 48.758 L 310.696 93.114 309.143 92.419 C 308.289 92.037,307.473 91.606,307.329 91.462 C 307.185 91.318,306.647 91.200,306.133 91.200 C 305.620 91.200,305.200 91.020,305.200 90.800 C 305.200 90.580,304.840 90.400,304.400 90.400 C 303.960 90.400,303.600 90.203,303.600 89.961 C 303.600 89.720,323.580 69.540,348.000 45.117 C 372.420 20.694,392.400 0.552,392.400 0.356 C 392.400 0.160,391.445 0.000,390.277 0.000 L 388.155 0.000 344.041 44.115 C 300.883 87.275,299.898 88.227,298.564 88.072 C 297.814 87.984,297.200 87.752,297.200 87.556 C 297.200 87.360,296.660 87.200,296.000 87.200 C 295.340 87.200,294.800 87.020,294.800 86.800 C 294.800 86.580,294.275 86.400,293.633 86.400 C 292.992 86.400,292.390 86.175,292.296 85.900 C 292.202 85.625,311.177 66.335,334.463 43.033 C 357.748 19.731,376.800 0.516,376.800 0.333 C 376.800 0.150,375.831 0.000,374.647 0.000 L 372.493 0.000 329.990 42.500 C 306.614 65.875,287.408 84.775,287.310 84.500 C 287.210 84.217,286.464 84.000,285.590 84.000 C 284.742 84.000,283.936 83.820,283.800 83.600 C 283.664 83.380,282.753 83.200,281.776 83.200 C 280.377 83.200,280.000 83.057,280.000 82.526 C 280.000 82.155,298.222 63.623,320.494 41.343 C 342.766 19.064,361.051 0.648,361.127 0.418 C 361.213 0.161,360.417 0.000,359.062 0.000 L 356.858 0.000 316.080 40.800 L 275.302 81.600 272.075 81.600 C 270.300 81.600,268.736 81.420,268.600 81.200 C 268.464 80.980,267.689 80.800,266.877 80.800 C 265.433 80.800,266.261 79.941,305.501 40.699 C 327.555 18.644,345.600 0.464,345.600 0.299 C 345.600 0.135,344.619 0.000,343.419 0.000 L 341.238 0.000 300.842 40.412 L 260.445 80.824 255.200 80.712 L 249.955 80.600 289.971 40.600 C 311.979 18.600,329.989 0.465,329.993 0.300 C 329.997 0.135,329.015 0.000,327.812 0.000 L 325.624 0.000 320.839 4.761 C 318.208 7.379,316.163 9.629,316.294 9.761 C 316.426 9.892,316.273 10.000,315.955 10.000 C 315.637 10.000,315.112 10.379,314.788 10.842 C 314.032 11.925,311.925 14.032,310.842 14.788 C 310.379 15.112,310.000 15.637,310.000 15.955 C 310.000 16.273,309.894 16.427,309.765 16.298 C 309.460 15.993,299.672 25.704,299.885 26.100 C 299.974 26.265,299.756 26.400,299.400 26.400 C 299.044 26.400,298.864 26.580,299.000 26.800 C 299.136 27.020,299.044 27.200,298.795 27.200 C 298.546 27.200,298.073 27.470,297.743 27.800 C 297.413 28.130,297.230 28.400,297.337 28.400 C 297.444 28.400,296.962 29.002,296.266 29.737 C 295.570 30.472,294.934 31.021,294.852 30.956 C 294.605 30.758,293.600 31.913,293.600 32.395 C 293.600 32.644,293.465 32.774,293.300 32.685 C 292.904 32.472,282.393 43.060,282.698 43.365 C 282.828 43.494,282.710 43.600,282.438 43.600 C 281.924 43.600,280.749 44.593,280.956 44.852 C 281.021 44.934,280.472 45.570,279.737 46.266 C 279.002 46.962,278.400 47.444,278.400 47.337 C 278.400 47.230,278.130 47.413,277.800 47.743 C 277.470 48.073,277.200 48.546,277.200 48.795 C 277.200 49.044,277.020 49.136,276.800 49.000 C 276.580 48.864,276.400 49.044,276.400 49.400 C 276.400 49.756,276.265 49.974,276.100 49.885 C 275.704 49.672,265.993 59.460,266.298 59.765 C 266.427 59.894,266.273 60.000,265.955 60.000 C 265.637 60.000,265.112 60.379,264.788 60.842 C 264.032 61.925,261.925 64.032,260.842 64.788 C 260.379 65.112,260.000 65.617,260.000 65.912 C 260.000 66.206,259.865 66.374,259.700 66.285 C 259.304 66.072,249.593 75.860,249.898 76.165 C 250.027 76.294,249.823 76.400,249.443 76.400 C 249.063 76.400,248.864 76.580,249.000 76.800 C 249.136 77.020,249.044 77.200,248.795 77.200 C 248.546 77.200,248.073 77.470,247.743 77.800 C 247.413 78.130,247.230 78.400,247.337 78.400 C 247.444 78.400,246.962 79.003,246.266 79.740 C 245.570 80.476,244.865 81.006,244.700 80.916 C 244.535 80.826,244.400 80.943,244.400 81.176 C 244.400 81.427,243.422 81.600,242.000 81.600 C 240.667 81.600,239.600 81.778,239.600 82.000 C 239.600 82.222,238.544 82.400,237.233 82.400 C 235.894 82.400,234.804 82.588,234.723 82.832 C 234.643 83.070,233.983 83.205,233.256 83.132 C 231.970 83.004,233.090 81.844,273.155 41.800 C 295.828 19.140,314.383 0.465,314.389 0.300 C 314.395 0.135,313.411 0.000,312.202 0.000 L 310.004 0.000 267.202 42.800 C 233.228 76.772,224.194 85.600,223.400 85.600 C 222.850 85.600,222.400 85.780,222.400 86.000 C 222.400 86.220,221.781 86.400,221.024 86.400 C 220.267 86.400,219.536 86.580,219.400 86.800 C 219.264 87.020,218.803 87.200,218.376 87.200 C 217.949 87.200,217.600 87.380,217.600 87.600 C 217.600 87.820,217.060 88.000,216.400 88.000 C 215.740 88.000,215.200 88.180,215.200 88.400 C 215.200 88.620,214.761 88.800,214.224 88.800 C 213.687 88.800,213.136 88.980,213.000 89.200 C 212.864 89.420,212.403 89.600,211.976 89.600 C 211.549 89.600,211.200 89.780,211.200 90.000 C 211.200 90.220,210.840 90.400,210.400 90.400 C 209.960 90.400,209.600 90.580,209.600 90.800 C 209.600 91.020,209.267 91.200,208.859 91.200 C 208.401 91.200,225.384 73.934,253.459 45.859 C 278.397 20.922,298.800 0.402,298.800 0.259 C 298.800 0.117,297.807 0.000,296.594 0.000 L 294.388 0.000 246.986 47.400 C 220.914 73.470,199.532 94.800,199.469 94.800 C 199.406 94.800,198.104 94.171,196.577 93.401 C 195.050 92.632,193.485 92.002,193.100 92.001 C 191.743 91.999,192.801 90.908,237.800 45.906 C 262.770 20.935,283.200 0.391,283.200 0.252 C 283.200 0.113,282.202 0.000,280.982 0.000 L 278.764 0.000 233.964 44.800 C 188.952 89.813,187.959 90.752,187.000 89.200 C 186.864 88.980,186.313 88.800,185.776 88.800 C 185.239 88.800,184.800 88.620,184.800 88.400 C 184.800 88.180,184.260 88.000,183.600 88.000 C 182.940 88.000,182.400 87.833,182.400 87.629 C 182.400 87.425,182.107 87.200,181.748 87.129 C 181.322 87.045,196.035 72.060,224.348 43.743 C 248.137 19.951,267.600 0.376,267.600 0.243 C 267.600 0.109,266.601 0.000,265.381 0.000 L 263.162 0.000 220.344 42.800 C 183.156 79.973,177.374 85.600,176.363 85.600 C 175.723 85.600,175.200 85.420,175.200 85.200 C 175.200 84.980,174.570 84.800,173.800 84.800 C 173.030 84.800,172.400 84.620,172.400 84.400 C 172.400 84.180,171.680 84.000,170.800 84.000 C 169.920 84.000,169.200 83.834,169.200 83.632 C 169.200 83.430,187.830 64.639,210.600 41.874 C 233.370 19.110,252.000 0.375,252.000 0.242 C 252.000 0.109,250.995 0.000,249.766 0.000 L 247.533 0.000 206.326 41.200 L 165.120 82.400 162.760 82.400 C 161.453 82.400,160.400 82.221,160.400 82.000 C 160.400 81.778,159.333 81.600,158.000 81.600 C 156.680 81.600,155.600 81.519,155.600 81.419 C 155.600 81.320,173.780 63.066,196.000 40.855 C 218.220 18.644,236.400 0.366,236.400 0.236 C 236.400 0.106,235.390 -0.000,234.156 -0.000 L 231.912 -0.000 191.517 40.400 L 151.122 80.800 145.961 80.800 C 143.122 80.800,140.800 80.715,140.800 80.611 C 140.800 80.508,158.845 62.373,180.900 40.311 L 221.000 0.200 218.663 0.079 L 216.327 -0.042 175.916 40.379 L 135.506 80.800 133.577 80.800 C 132.515 80.800,131.536 80.980,131.400 81.200 C 131.264 81.420,129.723 81.600,127.976 81.600 C 126.125 81.600,124.800 81.767,124.800 82.000 C 124.800 82.220,124.530 82.400,124.200 82.400 C 123.190 82.400,122.460 83.148,164.500 41.104 L 205.400 0.200 203.059 0.079 L 200.718 -0.042 159.305 41.376 C 117.810 82.877,116.621 84.000,114.139 84.000 C 113.402 84.000,112.800 84.180,112.800 84.400 C 112.800 84.620,112.170 84.800,111.400 84.800 C 110.630 84.800,110.000 84.980,110.000 85.200 C 110.000 85.420,109.460 85.600,108.800 85.600 C 108.140 85.600,107.600 85.780,107.600 86.000 C 107.600 86.220,107.060 86.400,106.400 86.400 C 105.740 86.400,105.200 86.580,105.200 86.800 C 105.200 87.020,104.659 87.200,103.998 87.200 C 102.920 87.200,107.292 82.704,145.998 44.001 C 169.759 20.241,189.200 0.621,189.200 0.401 C 189.200 0.180,188.255 0.004,187.100 0.010 L 185.000 0.019 139.434 45.610 C 114.373 70.684,93.628 91.200,93.334 91.200 C 93.040 91.200,92.800 91.380,92.800 91.600 C 92.800 91.820,92.512 92.000,92.160 92.000 C 91.366 92.000,84.249 95.555,84.067 96.044 C 83.993 96.240,83.588 96.400,83.167 96.400 C 82.745 96.400,82.400 96.580,82.400 96.800 C 82.400 97.020,82.164 97.200,81.875 97.200 C 81.587 97.200,80.964 97.560,80.492 98.000 C 80.020 98.440,79.371 98.800,79.050 98.800 C 78.729 98.800,78.407 98.945,78.333 99.123 C 78.260 99.301,77.300 100.055,76.200 100.798 C 75.100 101.542,73.909 102.476,73.553 102.875 C 73.197 103.274,72.684 103.600,72.414 103.600 C 72.143 103.600,71.417 104.140,70.800 104.800 C 70.183 105.460,69.384 106.000,69.022 106.000 C 68.661 106.000,92.044 82.324,120.983 53.387 C 149.922 24.451,173.600 0.601,173.600 0.387 C 173.600 0.174,172.655 0.003,171.500 0.007 L 169.400 0.014 84.700 84.728 M151.000 89.604 C 163.201 90.609,172.697 92.851,184.244 97.452 C 192.526 100.752,192.573 100.807,189.111 103.215 C 164.121 120.599,147.003 147.200,140.858 178.200 C 137.317 196.067,138.969 221.740,144.635 236.882 C 144.989 237.827,145.640 239.590,146.082 240.800 C 154.108 262.759,169.585 283.058,188.400 296.304 C 189.390 297.001,190.619 297.904,191.130 298.310 L 192.061 299.049 189.330 300.374 C 186.740 301.630,185.782 302.052,183.700 302.854 C 183.205 303.044,182.395 303.370,181.900 303.579 C 180.777 304.051,174.412 306.115,172.000 306.790 C 171.010 307.066,169.750 307.439,169.200 307.617 C 168.159 307.954,161.329 309.201,155.800 310.064 C 151.375 310.755,134.460 310.751,129.600 310.058 C 116.087 308.133,106.792 305.389,94.400 299.669 C 79.687 292.878,61.538 277.578,52.799 264.600 C 52.059 263.500,51.344 262.510,51.212 262.400 C 50.883 262.127,47.257 256.261,45.897 253.800 C 42.314 247.322,39.603 241.046,37.343 234.000 C 35.610 228.595,35.401 227.805,34.031 221.500 C 33.590 219.474,32.985 215.465,32.415 210.800 C 31.888 206.489,31.876 193.258,32.395 189.477 C 32.613 187.894,32.982 185.160,33.216 183.400 C 33.625 180.324,33.796 179.417,34.797 175.000 C 37.056 165.035,41.171 154.638,46.904 144.417 C 48.513 141.549,54.949 132.186,55.990 131.200 C 56.107 131.090,57.504 129.450,59.096 127.556 C 66.699 118.512,78.490 108.905,89.000 103.193 C 104.162 94.952,116.400 91.347,135.600 89.465 C 138.704 89.161,146.476 89.231,151.000 89.604 M271.400 89.970 C 272.720 90.199,274.970 90.578,276.400 90.813 C 278.854 91.217,280.102 91.476,284.400 92.474 C 287.220 93.129,292.795 94.831,294.600 95.588 C 295.040 95.773,296.930 96.518,298.800 97.243 C 306.753 100.329,318.090 106.729,324.000 111.469 C 324.330 111.734,325.680 112.808,327.000 113.857 C 335.916 120.939,349.743 136.838,352.520 143.200 C 352.664 143.530,353.323 144.700,353.983 145.800 C 360.673 156.934,365.442 171.766,367.591 188.116 C 368.119 192.138,368.121 207.993,367.593 211.723 C 367.369 213.305,366.995 215.950,366.762 217.600 C 365.105 229.323,359.778 244.567,353.922 254.341 C 353.085 255.738,352.400 256.959,352.400 257.054 C 352.400 257.555,346.435 266.007,343.541 269.606 C 332.093 283.844,314.928 296.566,298.800 302.769 C 296.930 303.488,295.040 304.227,294.600 304.412 C 293.807 304.745,289.710 306.088,287.400 306.773 C 284.282 307.698,277.613 309.077,271.400 310.082 C 267.031 310.789,247.268 310.786,243.200 310.078 C 233.103 308.320,229.765 307.545,223.200 305.436 C 217.370 303.563,207.985 299.520,208.014 298.895 C 208.021 298.733,209.416 297.666,211.114 296.525 C 232.533 282.127,250.456 256.308,257.154 230.200 C 260.168 218.449,260.928 212.370,260.928 200.000 C 260.928 187.630,260.168 181.551,257.154 169.800 C 254.488 159.408,248.638 145.578,244.353 139.538 C 243.939 138.954,243.600 138.362,243.600 138.223 C 243.600 137.295,234.524 125.025,231.048 121.254 C 224.063 113.677,214.333 105.169,209.155 102.110 C 208.520 101.735,208.000 101.305,208.000 101.156 C 208.000 100.859,214.495 97.600,215.086 97.600 C 215.286 97.600,216.195 97.240,217.106 96.800 C 218.016 96.360,219.029 96.000,219.357 96.000 C 219.685 96.000,220.064 95.820,220.200 95.600 C 220.336 95.380,220.851 95.200,221.344 95.200 C 221.837 95.200,222.411 95.051,222.620 94.870 C 222.987 94.550,223.674 94.327,228.400 92.994 C 232.882 91.730,243.624 89.814,248.400 89.427 C 251.819 89.150,269.008 89.556,271.400 89.970 M204.000 107.738 C 206.867 109.646,211.314 112.913,212.234 113.788 C 212.473 114.014,213.148 114.558,213.734 114.995 C 216.088 116.750,215.711 116.800,200.000 116.800 C 188.417 116.800,185.204 116.691,185.218 116.300 C 185.266 114.995,199.572 104.906,200.557 105.482 C 200.801 105.625,202.350 106.640,204.000 107.738 M225.173 126.125 C 227.273 128.366,231.576 133.713,231.589 134.100 C 231.602 134.461,169.042 134.509,168.681 134.148 C 168.361 133.827,171.529 129.721,174.420 126.711 L 176.639 124.400 200.098 124.400 L 223.556 124.400 225.173 126.125 M237.695 142.900 C 239.212 145.226,242.362 151.505,242.129 151.738 C 241.484 152.383,158.000 152.026,158.000 151.378 C 158.000 151.036,158.564 149.731,159.252 148.478 C 159.941 147.225,160.796 145.660,161.152 145.000 C 161.509 144.340,161.903 143.710,162.029 143.600 C 162.155 143.490,162.375 143.085,162.517 142.700 C 162.760 142.040,164.910 142.000,199.941 142.000 L 237.108 142.000 237.695 142.900 M244.927 159.973 C 246.061 160.204,249.192 167.042,249.199 169.300 C 249.200 169.465,227.060 169.600,200.000 169.600 C 172.940 169.600,150.800 169.553,150.800 169.495 C 150.800 169.190,152.809 163.162,153.391 161.723 C 153.764 160.800,154.368 159.979,154.734 159.897 C 155.924 159.632,243.622 159.706,244.927 159.973 M251.096 177.700 C 251.640 178.392,252.141 181.693,252.173 184.800 L 252.200 187.400 200.000 187.400 L 147.800 187.400 147.835 185.000 C 147.880 181.900,148.402 178.337,148.904 177.700 C 149.482 176.967,250.518 176.967,251.096 177.700 M253.343 196.700 C 253.660 198.616,253.660 201.384,253.343 203.300 L 253.095 204.800 200.003 204.800 L 146.911 204.800 146.662 202.700 C 146.526 201.545,146.526 199.385,146.664 197.900 L 146.915 195.200 200.005 195.200 L 253.095 195.200 253.343 196.700 M252.173 215.200 C 252.141 218.307,251.640 221.608,251.096 222.300 C 250.784 222.695,240.085 222.800,200.000 222.800 C 159.917 222.800,149.215 222.695,148.901 222.300 C 148.288 221.528,147.350 214.027,147.740 213.013 C 147.951 212.462,153.475 212.408,200.088 212.499 L 252.200 212.600 252.173 215.200 M249.197 230.700 C 249.187 231.732,246.240 239.490,245.703 239.900 C 244.962 240.465,155.408 240.647,154.525 240.086 C 153.931 239.708,152.617 236.672,151.750 233.678 C 151.388 232.425,151.007 231.175,150.903 230.900 C 150.753 230.502,160.729 230.400,199.957 230.400 C 227.041 230.400,249.199 230.535,249.197 230.700 M319.191 318.974 C 275.095 363.069,238.954 399.339,238.875 399.574 C 238.786 399.841,239.552 400.000,240.929 400.000 L 243.125 400.000 321.562 321.562 L 400.000 243.125 400.000 240.962 C 400.000 239.773,399.857 238.800,399.682 238.800 C 399.507 238.800,363.286 274.878,319.191 318.974 M242.129 248.262 C 242.362 248.495,239.212 254.775,237.694 257.102 L 237.105 258.004 199.914 257.902 L 162.722 257.800 161.699 256.000 C 159.104 251.434,158.000 249.239,158.000 248.645 C 158.000 247.977,241.464 247.597,242.129 248.262 M326.900 326.905 C 287.025 366.781,254.400 399.541,254.400 399.704 C 254.400 399.867,255.379 400.000,256.575 400.000 L 258.750 400.000 329.375 329.375 L 400.000 258.750 400.000 256.575 C 400.000 255.379,399.865 254.400,399.700 254.401 C 399.535 254.402,366.775 287.028,326.900 326.905 M231.352 265.923 C 231.575 266.283,228.102 270.775,225.340 273.700 L 223.545 275.600 200.016 275.600 L 176.486 275.600 174.278 273.215 C 171.276 269.972,168.377 266.157,168.682 265.851 C 169.057 265.476,231.120 265.547,231.352 265.923 M334.700 334.728 C 299.115 370.321,270.000 399.568,270.000 399.721 C 270.000 399.875,270.984 400.000,272.187 400.000 L 274.373 400.000 337.187 337.187 L 400.000 274.373 400.000 272.187 C 400.000 270.984,399.865 270.003,399.700 270.007 C 399.535 270.011,370.285 299.135,334.700 334.728 M214.800 283.728 C 214.800 284.500,206.772 290.734,202.131 293.567 L 200.063 294.830 197.331 293.163 C 195.829 292.247,194.510 291.373,194.400 291.222 C 194.290 291.071,193.300 290.343,192.200 289.605 C 190.366 288.374,186.912 285.677,185.700 284.530 C 184.377 283.278,185.220 283.200,200.000 283.200 C 211.995 283.200,214.800 283.300,214.800 283.728 M342.500 342.548 C 311.205 373.856,285.600 399.591,285.600 399.736 C 285.600 399.881,286.590 400.000,287.799 400.000 L 289.998 400.000 344.999 344.999 L 400.000 289.998 400.000 287.799 C 400.000 286.590,399.865 285.605,399.700 285.612 C 399.535 285.618,373.795 311.240,342.500 342.548 M350.300 350.350 C 323.295 377.369,301.200 399.594,301.200 399.738 C 301.200 399.882,302.193 400.000,303.407 400.000 L 305.614 400.000 352.807 352.807 L 400.000 305.614 400.000 303.407 C 400.000 302.193,399.865 301.206,399.700 301.212 C 399.535 301.219,377.305 323.331,350.300 350.350 M358.100 358.163 C 335.385 380.896,316.800 399.609,316.800 399.748 C 316.800 399.886,317.798 400.000,319.018 400.000 L 321.235 400.000 360.618 360.618 L 400.000 321.235 400.000 319.018 C 400.000 317.798,399.865 316.807,399.700 316.816 C 399.535 316.824,380.815 335.431,358.100 358.163 M365.900 365.973 C 347.475 384.419,332.400 399.621,332.400 399.755 C 332.400 399.890,333.401 400.000,334.624 400.000 L 336.848 400.000 368.424 368.424 L 400.000 336.848 400.000 334.624 C 400.000 333.401,399.865 332.408,399.700 332.418 C 399.535 332.428,384.325 347.528,365.900 365.973 M373.700 373.781 C 359.565 387.938,348.000 399.629,348.000 399.761 C 348.000 399.892,349.005 400.000,350.234 400.000 L 352.469 400.000 376.234 376.234 L 400.000 352.469 400.000 350.234 C 400.000 349.005,399.865 348.009,399.700 348.020 C 399.535 348.031,387.835 359.623,373.700 373.781 M381.500 381.589 C 371.655 391.459,363.600 399.639,363.600 399.767 C 363.600 399.895,364.608 400.000,365.840 400.000 L 368.080 400.000 384.040 384.040 L 400.000 368.080 400.000 365.840 C 400.000 364.608,399.865 363.610,399.700 363.622 C 399.535 363.634,391.345 371.719,381.500 381.589 M389.400 389.400 L 379.000 399.800 381.334 399.921 L 383.669 400.042 391.855 391.855 L 400.042 383.669 399.921 381.334 L 399.800 379.000 389.400 389.400 M397.200 397.200 L 394.600 399.800 396.958 399.922 C 398.255 399.989,399.480 399.880,399.680 399.680 C 399.880 399.480,399.989 398.255,399.922 396.958 L 399.800 394.600 397.200 397.200 " stroke="none" fill="#353635" fill-rule="evenodd"></path><path id="path2" d="M248.400 89.427 C 243.624 89.814,232.882 91.730,228.400 92.994 C 223.674 94.327,222.987 94.550,222.620 94.870 C 222.411 95.051,221.837 95.200,221.344 95.200 C 220.851 95.200,220.336 95.380,220.200 95.600 C 220.064 95.820,219.685 96.000,219.357 96.000 C 219.029 96.000,218.016 96.360,217.106 96.800 C 216.195 97.240,215.286 97.600,215.086 97.600 C 214.495 97.600,208.000 100.859,208.000 101.156 C 208.000 101.305,208.520 101.735,209.155 102.110 C 210.247 102.755,214.456 105.828,216.200 107.254 C 224.103 113.714,230.240 119.901,235.796 127.008 C 238.875 130.947,243.600 137.737,243.600 138.223 C 243.600 138.362,243.939 138.954,244.353 139.538 C 248.638 145.578,254.488 159.408,257.154 169.800 C 260.168 181.551,260.928 187.630,260.928 200.000 C 260.928 238.629,241.639 276.006,211.114 296.525 C 209.416 297.666,208.021 298.733,208.014 298.895 C 207.985 299.520,217.370 303.563,223.200 305.436 C 229.765 307.545,233.103 308.320,243.200 310.078 C 247.268 310.786,267.031 310.789,271.400 310.082 C 277.613 309.077,284.282 307.698,287.400 306.773 C 289.710 306.088,293.807 304.745,294.600 304.412 C 295.040 304.227,296.930 303.488,298.800 302.769 C 314.928 296.566,332.093 283.844,343.541 269.606 C 346.435 266.007,352.400 257.555,352.400 257.054 C 352.400 256.959,353.085 255.738,353.922 254.341 C 359.778 244.567,365.105 229.323,366.762 217.600 C 366.995 215.950,367.369 213.305,367.593 211.723 C 368.121 207.993,368.119 192.138,367.591 188.116 C 366.408 179.115,364.504 170.711,362.008 163.473 C 359.908 157.383,356.708 150.335,353.983 145.800 C 353.323 144.700,352.664 143.530,352.520 143.200 C 349.743 136.838,335.916 120.939,327.000 113.857 C 325.680 112.808,324.330 111.734,324.000 111.469 C 318.090 106.729,306.753 100.329,298.800 97.243 C 296.930 96.518,295.040 95.773,294.600 95.588 C 292.795 94.831,287.220 93.129,284.400 92.474 C 280.102 91.476,278.854 91.217,276.400 90.813 C 274.970 90.578,272.720 90.199,271.400 89.970 C 269.008 89.556,251.819 89.150,248.400 89.427 M197.957 106.537 C 193.172 109.452,185.247 115.526,185.218 116.300 C 185.204 116.691,188.417 116.800,200.000 116.800 C 215.711 116.800,216.088 116.750,213.734 114.995 C 213.148 114.558,212.473 114.014,212.234 113.788 C 210.918 112.537,203.050 106.940,200.557 105.482 C 200.313 105.340,199.143 105.815,197.957 106.537 M174.420 126.711 C 171.529 129.721,168.361 133.827,168.681 134.148 C 169.042 134.509,231.602 134.461,231.589 134.100 C 231.576 133.713,227.273 128.366,225.173 126.125 L 223.556 124.400 200.098 124.400 L 176.639 124.400 174.420 126.711 M162.517 142.700 C 162.375 143.085,162.155 143.490,162.029 143.600 C 161.903 143.710,161.509 144.340,161.152 145.000 C 160.796 145.660,159.941 147.225,159.252 148.478 C 158.564 149.731,158.000 151.036,158.000 151.378 C 158.000 152.026,241.484 152.383,242.129 151.738 C 242.362 151.505,239.212 145.226,237.695 142.900 L 237.108 142.000 199.941 142.000 C 164.910 142.000,162.760 142.040,162.517 142.700 M154.734 159.897 C 154.368 159.979,153.764 160.800,153.391 161.723 C 152.809 163.162,150.800 169.190,150.800 169.495 C 150.800 169.553,172.940 169.600,200.000 169.600 C 227.060 169.600,249.200 169.465,249.199 169.300 C 249.192 167.042,246.061 160.204,244.927 159.973 C 243.622 159.706,155.924 159.632,154.734 159.897 M148.904 177.700 C 148.402 178.337,147.880 181.900,147.835 185.000 L 147.800 187.400 200.000 187.400 L 252.200 187.400 252.173 184.800 C 252.141 181.693,251.640 178.392,251.096 177.700 C 250.518 176.967,149.482 176.967,148.904 177.700 M146.664 197.900 C 146.526 199.385,146.526 201.545,146.662 202.700 L 146.911 204.800 200.003 204.800 L 253.095 204.800 253.343 203.300 C 253.660 201.384,253.660 198.616,253.343 196.700 L 253.095 195.200 200.005 195.200 L 146.915 195.200 146.664 197.900 M147.740 213.013 C 147.350 214.027,148.288 221.528,148.901 222.300 C 149.483 223.033,250.518 223.033,251.096 222.300 C 251.640 221.608,252.141 218.307,252.173 215.200 L 252.200 212.600 200.088 212.499 C 153.475 212.408,147.951 212.462,147.740 213.013 M150.903 230.900 C 151.007 231.175,151.388 232.425,151.750 233.678 C 152.617 236.672,153.931 239.708,154.525 240.086 C 155.408 240.647,244.962 240.465,245.703 239.900 C 246.240 239.490,249.187 231.732,249.197 230.700 C 249.199 230.535,227.041 230.400,199.957 230.400 C 160.729 230.400,150.753 230.502,150.903 230.900 M158.000 248.645 C 158.000 249.239,159.104 251.434,161.699 256.000 L 162.722 257.800 199.914 257.902 L 237.105 258.004 237.694 257.102 C 239.212 254.775,242.362 248.495,242.129 248.262 C 241.464 247.597,158.000 247.977,158.000 248.645 M168.682 265.851 C 168.377 266.157,171.276 269.972,174.278 273.215 L 176.486 275.600 200.016 275.600 L 223.545 275.600 225.340 273.700 C 228.102 270.775,231.575 266.283,231.352 265.923 C 231.120 265.547,169.057 265.476,168.682 265.851 M185.200 283.629 C 185.200 283.864,185.425 284.270,185.700 284.530 C 186.912 285.677,190.366 288.374,192.200 289.605 C 193.300 290.343,194.290 291.071,194.400 291.222 C 194.510 291.373,195.829 292.247,197.331 293.163 L 200.063 294.830 202.131 293.567 C 206.772 290.734,214.800 284.500,214.800 283.728 C 214.800 283.300,211.995 283.200,200.000 283.200 C 189.742 283.200,185.200 283.332,185.200 283.629 " stroke="none" fill="#90bfc0" fill-rule="evenodd"></path></g></svg>