<svg id="svg" version="1.1" xmlns="http://www.w3.org/2000/svg" xmlns:xlink="http://www.w3.org/1999/xlink" width="400" height="398.6666666666667" viewBox="0, 0, 400,398.6666666666667"><g id="svgg"><path id="path0" d="M165.105 32.956 C 159.638 33.430,152.132 34.385,151.952 34.631 C 151.838 34.787,149.771 35.242,147.358 35.641 C 141.629 36.590,133.853 38.323,133.598 38.707 C 133.488 38.874,132.232 39.304,130.807 39.663 C 127.341 40.538,121.883 42.325,121.635 42.667 C 121.525 42.818,121.077 43.043,120.638 43.166 C 118.700 43.712,113.079 45.906,112.881 46.193 C 112.760 46.368,111.585 46.933,110.269 47.450 C 107.555 48.517,97.420 53.680,96.510 54.459 C 96.181 54.741,94.968 55.445,93.814 56.024 C 92.660 56.602,91.243 57.514,90.665 58.049 C 90.087 58.585,89.449 59.023,89.246 59.023 C 88.902 59.023,85.387 61.285,84.945 61.791 C 84.543 62.251,81.923 64.040,80.860 64.581 C 80.258 64.887,79.491 65.556,79.156 66.068 C 78.820 66.580,78.297 66.999,77.994 66.999 C 77.690 66.999,76.630 67.787,75.639 68.751 C 74.647 69.714,73.653 70.567,73.428 70.645 C 72.119 71.103,54.636 88.147,54.636 88.966 C 54.636 89.116,53.963 89.963,53.141 90.849 C 50.366 93.838,48.456 96.161,48.194 96.866 C 48.051 97.251,47.378 98.090,46.699 98.732 C 46.020 99.373,45.464 100.047,45.464 100.231 C 45.464 100.414,44.412 102.029,43.127 103.821 C 41.841 105.613,40.373 107.841,39.863 108.774 C 39.353 109.706,38.823 110.469,38.686 110.469 C 38.548 110.469,37.729 111.859,36.865 113.559 C 36.001 115.259,35.102 116.775,34.868 116.929 C 34.633 117.082,33.744 118.787,32.892 120.717 C 32.040 122.648,31.210 124.321,31.049 124.435 C 30.686 124.693,28.614 129.284,27.948 131.306 C 27.677 132.129,27.321 132.802,27.156 132.802 C 26.991 132.802,26.063 135.179,25.093 138.086 C 24.123 140.992,23.218 143.460,23.082 143.569 C 22.800 143.795,21.085 149.436,20.293 152.742 C 20.003 153.948,19.650 155.025,19.506 155.135 C 18.895 155.602,15.952 171.206,15.952 173.978 C 15.952 174.581,15.796 175.075,15.605 175.075 C 14.926 175.075,14.166 186.972,14.166 197.607 C 14.166 207.864,14.920 220.140,15.550 220.140 C 15.710 220.140,15.963 221.319,16.110 222.760 C 16.636 227.893,18.877 239.385,19.527 240.279 C 19.686 240.499,20.043 241.575,20.320 242.672 C 21.255 246.368,22.809 251.443,23.129 251.844 C 23.305 252.064,23.721 253.141,24.055 254.237 C 24.999 257.336,26.809 262.192,27.103 262.413 C 27.248 262.522,27.790 263.689,28.306 265.005 C 29.392 267.776,30.698 270.500,31.079 270.788 C 31.224 270.897,32.040 272.567,32.892 274.497 C 33.744 276.428,34.633 278.133,34.868 278.286 C 35.102 278.439,36.001 279.955,36.865 281.655 C 37.729 283.355,38.590 284.746,38.780 284.746 C 38.969 284.746,39.370 285.337,39.672 286.059 C 39.974 286.781,41.225 288.772,42.452 290.482 C 43.679 292.192,44.940 294.068,45.255 294.652 C 45.570 295.235,46.304 296.155,46.886 296.694 C 47.468 297.234,48.059 297.974,48.200 298.339 C 48.486 299.084,50.895 302.044,53.114 304.378 C 53.922 305.228,54.640 306.078,54.709 306.266 C 55.308 307.895,71.988 324.033,73.754 324.692 C 74.145 324.839,74.560 325.204,74.675 325.504 C 74.790 325.804,75.667 326.582,76.625 327.232 C 77.582 327.883,78.976 328.998,79.722 329.711 C 80.469 330.424,81.258 331.007,81.476 331.007 C 81.694 331.007,82.608 331.603,83.508 332.331 C 84.408 333.059,86.302 334.360,87.718 335.222 C 89.133 336.084,90.729 337.193,91.265 337.687 C 91.801 338.180,92.410 338.584,92.618 338.584 C 92.825 338.584,94.625 339.571,96.616 340.778 C 98.608 341.984,100.389 342.971,100.575 342.971 C 100.761 342.971,101.672 343.458,102.600 344.054 C 104.597 345.335,107.305 346.643,109.381 347.328 C 110.202 347.599,111.097 348.031,111.370 348.288 C 111.642 348.546,112.941 349.171,114.257 349.678 C 115.573 350.185,117.906 351.120,119.442 351.754 C 122.408 352.981,125.395 353.982,129.611 355.166 C 131.037 355.566,132.293 356.014,132.403 356.162 C 132.669 356.519,138.267 357.862,144.167 358.985 C 146.800 359.486,149.043 360.009,149.153 360.148 C 149.412 360.476,158.395 361.628,164.506 362.117 C 177.419 363.150,207.748 361.799,208.973 360.137 C 209.083 359.988,210.967 359.552,213.161 359.168 C 217.970 358.327,225.370 356.560,225.922 356.121 C 226.142 355.947,227.417 355.521,228.757 355.174 C 231.950 354.348,237.378 352.535,237.897 352.121 C 238.122 351.942,240.059 351.160,242.202 350.385 C 244.344 349.609,246.371 348.701,246.706 348.366 C 247.041 348.031,247.498 347.757,247.721 347.757 C 248.276 347.757,254.583 344.966,254.833 344.609 C 254.944 344.451,256.605 343.561,258.524 342.630 C 260.444 341.700,262.014 340.804,262.014 340.639 C 262.014 340.474,262.866 339.926,263.908 339.423 C 264.950 338.919,267.098 337.627,268.680 336.552 C 270.263 335.476,271.730 334.596,271.940 334.596 C 272.150 334.596,272.836 334.082,273.464 333.454 C 274.092 332.826,275.151 332.030,275.817 331.685 C 276.484 331.341,277.617 330.509,278.337 329.836 C 279.057 329.164,279.731 328.614,279.835 328.614 C 280.048 328.614,283.308 326.025,284.542 324.877 C 284.983 324.466,285.985 323.656,286.768 323.077 C 287.552 322.498,288.782 321.353,289.502 320.534 C 290.221 319.714,290.987 319.043,291.204 319.043 C 291.733 319.043,301.129 309.271,305.391 304.287 C 308.328 300.853,309.870 298.818,309.870 298.378 C 309.870 298.134,310.216 297.750,310.638 297.524 C 311.289 297.175,314.257 292.823,314.257 292.217 C 314.257 292.106,312.328 292.534,309.970 293.168 C 303.309 294.960,295.057 296.292,288.885 296.573 L 283.254 296.829 279.514 300.475 C 263.826 315.766,246.652 326.536,226.630 333.639 C 220.771 335.717,220.702 335.618,225.369 331.792 C 232.784 325.715,241.192 316.191,247.665 306.536 C 250.206 302.746,256.135 292.652,255.913 292.493 C 255.869 292.461,253.769 291.666,251.246 290.725 C 248.724 289.785,244.532 287.954,241.932 286.657 C 239.331 285.360,237.156 284.354,237.097 284.422 C 237.039 284.491,236.676 285.174,236.292 285.942 C 232.987 292.541,224.872 303.839,217.387 312.263 C 209.890 320.700,192.244 337.787,191.027 337.787 C 190.757 337.787,190.657 328.299,190.725 309.172 L 190.828 280.558 210.942 280.455 L 231.057 280.351 228.489 278.493 C 224.111 275.323,219.200 270.986,215.265 266.813 L 211.489 262.812 201.058 262.812 L 190.626 262.812 190.727 197.707 L 190.828 132.602 205.220 132.498 L 219.612 132.393 222.169 130.174 C 231.286 122.263,242.822 115.616,253.388 112.186 C 255.939 111.358,258.026 110.539,258.026 110.365 C 258.026 109.446,250.946 96.696,247.344 91.127 C 242.529 83.682,235.278 74.326,230.021 68.773 C 228.255 66.907,226.897 65.293,227.003 65.187 C 227.800 64.390,243.883 71.863,252.642 77.099 C 263.797 83.768,275.076 92.903,283.373 101.989 C 288.366 107.456,288.126 107.278,290.515 107.278 C 296.317 107.278,306.870 109.343,315.081 112.085 C 318.405 113.195,321.199 114.029,321.290 113.938 C 321.570 113.658,319.318 109.598,318.765 109.386 C 318.479 109.277,318.245 109.001,318.245 108.774 C 318.245 108.190,315.296 103.592,314.079 102.278 C 313.519 101.674,313.061 100.972,313.061 100.718 C 313.061 100.463,312.453 99.592,311.711 98.782 C 310.968 97.971,310.074 96.870,309.724 96.336 C 307.020 92.209,295.953 80.325,289.207 74.304 C 284.991 70.542,280.504 66.909,279.661 66.576 C 279.167 66.381,278.764 66.055,278.764 65.851 C 278.764 65.648,277.732 64.806,276.471 63.980 C 275.209 63.155,273.908 62.239,273.579 61.945 C 272.644 61.108,264.425 55.833,264.058 55.833 C 263.877 55.833,263.029 55.332,262.173 54.721 C 261.318 54.109,259.182 52.910,257.428 52.056 C 255.673 51.202,254.148 50.384,254.038 50.237 C 253.770 49.879,247.469 47.059,246.937 47.059 C 246.707 47.059,246.280 46.834,245.991 46.559 C 245.422 46.020,242.401 44.762,238.883 43.597 C 237.677 43.198,236.491 42.686,236.248 42.458 C 236.006 42.231,233.314 41.338,230.266 40.474 C 227.219 39.610,224.636 38.792,224.526 38.656 C 224.259 38.323,216.165 36.530,210.967 35.651 C 208.664 35.261,206.690 34.818,206.580 34.665 C 205.741 33.495,173.987 32.187,165.105 32.956 M167.099 86.939 L 167.099 116.451 144.167 116.451 C 128.622 116.451,121.236 116.318,121.236 116.038 C 121.236 114.559,127.714 102.607,132.519 95.222 C 142.914 79.241,162.045 57.428,165.664 57.428 L 167.099 57.428 167.099 86.939 M195.334 57.996 C 196.342 58.528,206.699 69.108,209.222 72.183 C 209.852 72.951,210.780 74.028,211.286 74.576 C 220.172 84.219,238.086 112.108,238.086 116.300 C 238.086 116.383,227.408 116.451,214.357 116.451 L 190.628 116.451 190.628 86.939 L 190.628 57.428 192.443 57.428 C 193.440 57.428,194.742 57.683,195.334 57.996 M132.148 65.503 C 131.712 65.997,129.813 68.106,127.929 70.189 C 117.308 81.937,107.702 96.470,100.686 111.406 L 98.317 116.451 80.838 116.451 L 63.360 116.451 64.681 114.601 C 79.437 93.941,103.943 75.358,128.814 65.972 C 132.965 64.405,133.140 64.381,132.148 65.503 M91.568 132.967 C 91.687 133.277,91.237 135.239,90.568 137.326 C 86.687 149.442,83.239 167.543,82.104 181.755 L 81.618 187.836 59.501 187.836 L 37.384 187.836 37.658 184.945 C 39.161 169.037,43.663 152.829,50.664 138.124 L 53.388 132.403 72.369 132.403 C 88.366 132.403,91.385 132.492,91.568 132.967 M167.002 160.219 L 167.104 187.836 135.342 187.836 L 103.580 187.836 103.857 183.948 C 104.936 168.840,111.075 139.548,114.513 133.098 C 114.864 132.439,116.431 132.403,140.893 132.500 L 166.899 132.602 167.002 160.219 M81.660 208.175 C 82.588 224.072,86.499 246.959,90.522 260.020 C 90.961 261.446,91.321 262.657,91.323 262.712 C 91.325 262.767,82.434 262.812,71.566 262.812 L 51.806 262.812 49.881 258.689 C 42.997 243.946,37.089 220.230,37.089 207.336 L 37.089 206.175 59.322 206.278 L 81.555 206.381 81.660 208.175 M167.002 234.397 L 166.899 262.612 140.205 262.612 L 113.512 262.612 111.770 256.830 C 110.812 253.649,109.150 247.099,108.077 242.273 C 105.502 230.695,104.713 224.949,103.489 208.873 L 103.285 206.181 135.194 206.181 L 167.104 206.181 167.002 234.397 M98.900 283.250 C 108.403 304.200,120.396 320.749,134.379 332.207 C 138.771 335.806,138.443 335.978,131.767 333.576 C 105.006 323.946,82.927 307.704,65.460 284.800 C 63.894 282.746,62.612 280.907,62.612 280.712 C 62.612 280.512,70.200 280.359,80.100 280.359 L 97.589 280.359 98.900 283.250 M167.002 308.574 C 167.058 324.078,166.951 336.590,166.760 336.590 C 165.212 336.590,145.191 316.461,137.819 307.492 C 129.419 297.274,119.572 281.757,120.744 280.586 C 120.872 280.457,131.309 280.399,143.938 280.455 L 166.899 280.558 167.002 308.574 " stroke="none" fill="#143444" fill-rule="evenodd"></path><path id="path1" d="M166.889 86.939 C 166.889 103.280,166.939 109.965,166.999 101.795 C 167.059 93.624,167.059 80.254,166.999 72.084 C 166.939 63.913,166.889 70.598,166.889 86.939 M159.514 62.114 L 155.334 66.401 159.621 62.220 C 161.979 59.921,163.908 57.992,163.908 57.933 C 163.908 57.645,163.397 58.132,159.514 62.114 M195.813 58.350 C 195.813 58.419,196.396 59.002,197.109 59.646 L 198.405 60.818 197.233 59.521 C 196.142 58.313,195.813 58.042,195.813 58.350 M199.402 61.939 C 199.402 62.008,199.985 62.591,200.698 63.235 L 201.994 64.407 200.823 63.111 C 199.731 61.903,199.402 61.631,199.402 61.939 M226.919 65.323 C 226.919 65.498,227.682 66.350,228.614 67.217 L 230.309 68.794 228.805 67.173 C 227.978 66.282,227.425 65.430,227.576 65.279 C 227.726 65.128,227.640 65.005,227.385 65.005 C 227.129 65.005,226.919 65.148,226.919 65.323 M129.785 67.896 L 128.614 69.192 129.910 68.021 C 131.118 66.929,131.390 66.600,131.082 66.600 C 131.013 66.600,130.430 67.183,129.785 67.896 M206.780 69.791 C 207.636 70.668,208.427 71.386,208.537 71.386 C 208.646 71.386,208.035 70.668,207.178 69.791 C 206.322 68.913,205.531 68.195,205.421 68.195 C 205.312 68.195,205.923 68.913,206.780 69.791 M279.761 98.504 C 281.505 100.259,283.022 101.695,283.132 101.695 C 283.242 101.695,281.904 100.259,280.160 98.504 C 278.415 96.750,276.898 95.314,276.788 95.314 C 276.679 95.314,278.016 96.750,279.761 98.504 M276.569 122.652 C 229.699 128.340,197.711 173.613,208.017 219.674 C 218.265 265.479,264.950 292.634,309.979 278.982 C 312.438 278.237,314.475 277.658,314.506 277.697 C 315.565 279.010,321.562 288.707,321.564 289.110 C 321.567 289.427,322.257 290.668,323.097 291.868 C 323.938 293.068,324.630 294.245,324.634 294.483 C 324.638 294.721,325.266 295.631,326.030 296.506 C 326.793 297.381,327.418 298.247,327.418 298.431 C 327.418 298.615,328.343 300.142,329.474 301.825 C 330.606 303.508,331.978 305.693,332.524 306.680 C 333.071 307.667,333.760 308.618,334.057 308.793 C 334.354 308.969,334.596 309.295,334.596 309.519 C 334.596 309.743,335.135 310.709,335.793 311.665 C 336.451 312.621,336.989 313.596,336.989 313.831 C 336.989 314.065,337.153 314.257,337.353 314.257 C 337.553 314.257,338.545 315.693,339.557 317.448 C 340.569 319.202,341.572 320.638,341.785 320.638 C 341.999 320.638,342.173 320.794,342.173 320.984 C 342.173 321.519,345.431 327.019,345.748 327.019 C 345.902 327.019,346.552 328.028,347.192 329.260 C 349.104 332.947,350.637 334.233,354.736 335.596 C 356.710 336.253,358.419 336.914,358.534 337.065 C 359.542 338.399,371.465 338.400,372.473 337.067 C 372.588 336.914,373.741 336.251,375.036 335.593 C 376.659 334.768,377.815 333.809,378.762 332.502 C 379.517 331.461,380.290 330.608,380.480 330.608 C 380.991 330.608,385.233 324.749,385.934 323.076 C 386.831 320.933,385.761 312.429,384.473 311.466 C 384.326 311.356,383.608 310.189,382.876 308.873 C 382.144 307.557,380.852 305.509,380.005 304.322 C 379.158 303.135,378.465 301.966,378.465 301.726 C 378.465 301.485,378.054 300.841,377.552 300.295 C 376.720 299.390,375.278 297.058,373.795 294.217 C 373.479 293.614,373.093 293.121,372.936 293.121 C 372.779 293.121,372.127 292.120,371.487 290.897 C 370.847 289.673,369.912 288.228,369.409 287.686 C 368.906 287.143,368.495 286.600,368.495 286.480 C 368.495 286.154,365.646 281.477,364.887 280.558 C 364.525 280.120,363.650 278.729,362.943 277.468 C 362.235 276.206,361.535 275.173,361.386 275.171 C 361.238 275.170,360.917 274.766,360.672 274.274 C 359.324 271.564,357.960 269.308,357.288 268.677 C 356.869 268.283,356.267 267.341,355.951 266.583 C 355.634 265.825,355.116 265.204,354.799 265.204 C 354.482 265.204,354.118 264.932,353.990 264.598 C 353.862 264.265,352.493 262.025,350.947 259.621 C 349.401 257.217,348.039 254.996,347.920 254.685 C 347.797 254.365,348.804 252.678,350.247 250.789 C 393.017 194.788,346.649 114.147,276.569 122.652 M219.940 132.004 C 219.783 132.258,214.494 132.403,205.384 132.403 C 197.513 132.403,190.991 132.537,190.889 132.702 C 190.496 133.337,219.619 132.831,220.148 132.194 C 220.416 131.870,220.535 131.605,220.411 131.605 C 220.288 131.605,220.076 131.785,219.940 132.004 M53.302 132.702 C 53.133 132.974,67.383 132.969,84.746 132.691 C 88.475 132.631,82.967 132.542,72.506 132.492 C 62.045 132.443,53.403 132.537,53.302 132.702 M114.719 132.699 C 114.617 132.865,126.269 132.954,140.614 132.896 L 166.694 132.790 166.801 160.313 L 166.908 187.837 166.903 160.219 L 166.899 132.602 140.903 132.500 C 126.605 132.443,114.822 132.533,114.719 132.699 M295.949 148.355 C 348.990 158.244,358.658 229.274,310.091 252.267 C 272.948 269.852,230.451 241.321,232.237 200.000 C 233.648 167.392,264.391 142.471,295.949 148.355 M81.847 182.253 C 81.847 183.021,81.929 183.335,82.030 182.951 C 82.130 182.567,82.130 181.939,82.030 181.555 C 81.929 181.171,81.847 181.486,81.847 182.253 M166.889 234.297 C 166.889 249.870,166.938 256.299,166.999 248.584 C 167.059 240.868,167.059 228.126,166.999 220.269 C 166.938 212.411,166.889 218.724,166.889 234.297 M37.197 208.574 C 37.197 209.561,37.275 209.965,37.370 209.472 C 37.465 208.978,37.465 208.170,37.370 207.677 C 37.275 207.183,37.197 207.587,37.197 208.574 M81.847 213.360 C 81.847 214.128,81.929 214.442,82.030 214.058 C 82.130 213.674,82.130 213.046,82.030 212.662 C 81.929 212.278,81.847 212.592,81.847 213.360 M215.354 266.999 C 216.545 268.205,217.610 269.192,217.720 269.192 C 217.829 269.192,216.944 268.205,215.753 266.999 C 214.561 265.793,213.497 264.806,213.387 264.806 C 213.277 264.806,214.163 265.793,215.354 266.999 M71.286 280.658 C 76.167 280.721,84.153 280.721,89.033 280.658 C 93.913 280.594,89.920 280.542,80.160 280.542 C 70.399 280.542,66.406 280.594,71.286 280.658 M120.702 280.655 C 120.599 280.821,130.909 280.909,143.613 280.851 L 166.711 280.745 166.606 308.668 C 166.548 324.025,166.636 336.590,166.802 336.590 C 166.968 336.590,167.058 323.983,167.002 308.574 L 166.899 280.558 143.894 280.455 C 131.241 280.399,120.804 280.489,120.702 280.655 M200.897 280.658 C 206.436 280.720,215.499 280.720,221.037 280.658 C 226.575 280.595,222.044 280.544,210.967 280.544 C 199.890 280.544,195.359 280.595,200.897 280.658 M293.619 296.187 C 294.003 296.287,294.631 296.287,295.015 296.187 C 295.399 296.087,295.085 296.005,294.317 296.005 C 293.549 296.005,293.235 296.087,293.619 296.187 M288.833 296.586 C 289.217 296.686,289.845 296.686,290.229 296.586 C 290.613 296.486,290.299 296.404,289.531 296.404 C 288.764 296.404,288.450 296.486,288.833 296.586 M279.553 300.199 L 276.171 303.689 279.661 300.308 C 282.902 297.168,283.332 296.710,283.042 296.710 C 282.982 296.710,281.412 298.280,279.553 300.199 M78.764 300.299 C 79.844 301.396,80.817 302.293,80.927 302.293 C 81.037 302.293,80.243 301.396,79.163 300.299 C 78.082 299.202,77.109 298.305,76.999 298.305 C 76.889 298.305,77.683 299.202,78.764 300.299 M145.364 316.251 C 146.221 317.129,147.011 317.846,147.121 317.846 C 147.231 317.846,146.619 317.129,145.763 316.251 C 144.906 315.374,144.115 314.656,144.006 314.656 C 143.896 314.656,144.507 315.374,145.364 316.251 M212.338 317.547 L 211.167 318.843 212.463 317.672 C 213.671 316.580,213.942 316.251,213.634 316.251 C 213.565 316.251,212.982 316.834,212.338 317.547 M127.019 325.823 C 128.543 327.358,129.879 328.614,129.989 328.614 C 130.098 328.614,128.941 327.358,127.418 325.823 C 125.894 324.287,124.558 323.031,124.448 323.031 C 124.338 323.031,125.495 324.287,127.019 325.823 M159.106 329.910 C 160.759 331.671,161.117 331.988,161.117 331.688 C 161.117 331.624,160.264 330.772,159.222 329.794 L 157.328 328.016 159.106 329.910 M200.178 329.711 L 198.804 331.206 200.299 329.832 C 201.691 328.553,201.978 328.215,201.673 328.215 C 201.607 328.215,200.934 328.888,200.178 329.711 " stroke="none" fill="#eb6444" fill-rule="evenodd"></path><path id="path2" d="M164.706 57.703 C 161.911 58.696,145.210 77.408,137.278 88.434 C 131.541 96.409,121.236 114.211,121.236 116.148 C 121.236 116.314,131.466 116.451,143.968 116.451 L 166.700 116.451 166.700 86.939 C 166.700 54.793,166.846 56.943,164.706 57.703 M190.628 86.884 L 190.628 116.451 214.347 116.451 L 238.066 116.451 237.663 115.354 C 232.963 102.550,216.956 79.970,201.196 63.913 L 195.214 57.818 192.921 57.568 L 190.628 57.318 190.628 86.884 M125.823 67.337 C 103.432 76.593,84.936 90.182,69.693 108.571 C 65.749 113.330,63.809 115.854,63.809 116.225 C 63.809 116.349,71.536 116.451,80.981 116.451 L 98.153 116.451 100.263 111.964 C 107.778 95.990,117.146 81.851,128.474 69.385 C 130.663 66.976,132.218 65.010,131.930 65.017 C 131.642 65.023,128.893 66.067,125.823 67.337 M231.809 70.532 C 241.602 81.640,249.552 93.297,256.190 106.281 C 258.516 110.831,258.543 110.680,255.223 111.668 C 244.493 114.864,231.551 122.183,222.279 130.300 L 219.433 132.791 205.130 132.896 L 190.828 133.001 190.718 197.009 C 190.658 232.213,190.707 261.421,190.826 261.914 L 191.042 262.812 201.570 262.812 C 207.975 262.812,212.149 262.962,212.230 263.196 C 212.746 264.690,224.330 275.426,229.013 278.750 C 230.055 279.490,230.907 280.244,230.907 280.427 C 230.907 280.609,221.844 280.758,210.768 280.758 L 190.628 280.758 190.628 309.272 C 190.628 324.955,190.739 337.787,190.875 337.787 C 192.090 337.787,212.160 318.310,217.762 311.696 C 225.436 302.634,230.825 295.225,234.681 288.435 C 237.192 284.011,237.255 283.965,239.188 285.143 C 241.258 286.406,248.759 289.739,252.243 290.945 C 256.507 292.422,256.423 292.107,253.797 296.773 C 245.873 310.847,236.207 322.815,225.411 331.919 C 221.380 335.318,221.339 335.272,226.739 333.410 C 245.478 326.947,263.209 315.964,277.966 301.679 L 282.951 296.853 289.133 296.387 C 297.091 295.788,302.476 294.961,308.236 293.453 C 310.780 292.787,313.469 292.177,314.211 292.096 C 317.051 291.788,322.046 289.406,321.555 288.595 C 321.267 288.119,314.606 277.821,314.506 277.697 C 314.475 277.658,312.438 278.237,309.979 278.982 C 287.028 285.940,261.606 282.327,242.246 269.356 C 180.056 227.691,202.949 131.298,277.092 122.625 C 346.916 114.458,392.874 194.975,350.247 250.789 C 348.804 252.678,347.797 254.365,347.920 254.685 C 348.039 254.996,349.401 257.217,350.947 259.621 C 352.493 262.025,353.862 264.265,353.990 264.598 C 354.341 265.511,355.634 265.327,356.330 264.265 C 356.669 263.748,357.660 262.552,358.533 261.606 C 359.405 260.661,360.120 259.658,360.120 259.378 C 360.120 259.098,360.439 258.634,360.830 258.348 C 361.783 257.649,365.907 251.370,367.420 248.316 C 368.088 246.966,368.753 245.773,368.898 245.663 C 369.262 245.387,371.219 241.059,371.963 238.883 C 372.300 237.896,372.717 236.999,372.889 236.889 C 373.271 236.645,375.993 227.754,376.329 225.649 C 376.463 224.812,376.698 224.128,376.851 224.128 C 377.796 224.128,379.249 210.693,379.245 201.994 C 379.241 193.248,377.897 180.215,376.922 179.462 C 376.780 179.352,376.330 177.916,375.921 176.271 C 374.891 172.127,373.248 166.940,372.889 166.700 C 372.724 166.590,372.454 166.052,372.288 165.503 C 371.834 164.005,369.165 158.157,368.824 157.912 C 368.660 157.795,368.134 156.808,367.655 155.719 C 366.686 153.515,362.589 147.002,361.392 145.763 C 360.969 145.324,360.140 144.252,359.550 143.380 C 358.961 142.509,358.064 141.342,357.557 140.788 C 357.050 140.234,355.760 138.811,354.689 137.626 C 353.618 136.440,352.114 134.855,351.346 134.103 C 350.578 133.350,349.141 131.942,348.151 130.973 C 347.162 130.005,346.143 129.212,345.887 129.212 C 345.631 129.212,345.046 128.734,344.586 128.149 C 344.126 127.565,342.823 126.476,341.690 125.730 C 340.557 124.984,339.440 124.151,339.207 123.879 C 338.659 123.239,333.999 120.439,333.482 120.439 C 333.264 120.439,332.998 120.208,332.890 119.927 C 332.696 119.422,326.994 116.451,326.220 116.451 C 326.001 116.451,325.823 116.291,325.823 116.095 C 325.823 115.641,322.978 114.496,321.315 114.282 C 320.614 114.192,319.159 113.739,318.083 113.277 C 312.389 110.833,301.468 108.313,293.519 107.609 L 288.136 107.132 281.975 100.781 C 270.500 88.951,259.129 80.438,244.467 72.697 C 240.068 70.376,228.663 65.404,227.735 65.404 C 227.490 65.404,229.323 67.711,231.809 70.532 M51.682 136.317 C 44.389 150.838,39.524 167.908,37.708 185.344 L 37.448 187.836 59.359 187.836 C 83.970 187.836,81.755 188.152,81.755 184.651 C 81.755 174.747,88.419 139.829,91.357 134.340 C 91.559 133.961,91.725 133.460,91.725 133.227 C 91.725 132.932,85.866 132.802,72.586 132.802 L 53.448 132.802 51.682 136.317 M114.273 134.098 C 110.233 143.767,105.481 166.990,103.868 184.945 L 103.608 187.836 135.154 187.836 L 166.700 187.836 166.700 160.319 L 166.700 132.802 140.757 132.802 L 114.815 132.802 114.273 134.098 M280.639 147.964 C 235.084 153.190,215.845 209.325,248.513 241.703 C 277.159 270.094,326.362 258.225,338.951 219.887 C 351.434 181.873,320.257 143.418,280.639 147.964 M37.442 206.360 C 36.591 207.211,39.029 224.564,41.280 233.669 C 43.661 243.306,49.005 257.841,51.650 261.879 L 52.262 262.812 71.641 262.812 L 91.020 262.812 90.810 261.914 C 90.695 261.421,89.601 257.101,88.379 252.315 C 85.091 239.435,82.973 225.991,81.504 208.674 L 81.292 206.181 59.456 206.181 C 47.447 206.181,37.540 206.262,37.442 206.360 M103.689 208.873 C 103.690 217.099,106.329 235.446,109.124 246.660 C 110.440 251.942,113.366 261.845,113.748 262.313 C 114.067 262.703,119.893 262.812,140.428 262.812 L 166.700 262.812 166.700 234.497 L 166.700 206.181 135.194 206.181 L 103.689 206.181 103.689 208.873 M64.877 283.848 C 81.531 306.518,105.867 324.449,132.403 333.604 C 138.451 335.690,138.393 335.727,134.314 332.385 C 120.425 321.006,107.769 303.511,98.769 283.250 L 97.662 280.758 80.134 280.758 L 62.606 280.758 64.877 283.848 M120.837 281.170 C 120.837 283.214,130.555 298.387,136.740 306.000 C 143.914 314.832,164.068 335.364,166.308 336.125 C 166.562 336.211,166.700 326.494,166.700 308.508 L 166.700 280.758 143.769 280.758 C 128.230 280.758,120.837 280.891,120.837 281.170 " stroke="none" fill="#fbfbfb" fill-rule="evenodd"></path></g></svg>