<svg id="svg" version="1.1" xmlns="http://www.w3.org/2000/svg" xmlns:xlink="http://www.w3.org/1999/xlink" width="400" height="400" viewBox="0, 0, 400,400"><g id="svgg"><path id="path0" d="M396.141 0.126 C 396.067 0.200,394.489 0.417,392.090 0.682 C 391.864 0.707,391.570 0.795,391.437 0.877 C 391.303 0.960,390.992 1.002,390.747 0.970 C 390.501 0.938,390.210 0.967,390.100 1.034 C 389.990 1.100,389.315 1.209,388.600 1.276 C 387.885 1.343,387.075 1.445,386.800 1.505 C 386.525 1.564,385.940 1.654,385.500 1.705 C 385.060 1.756,384.295 1.855,383.800 1.924 C 383.305 1.993,382.653 2.051,382.350 2.053 C 382.048 2.056,381.800 2.125,381.800 2.208 C 381.800 2.357,379.527 2.664,378.250 2.688 C 377.893 2.694,377.600 2.762,377.600 2.838 C 377.600 2.913,377.443 2.973,377.250 2.971 C 376.942 2.968,376.397 3.027,374.400 3.282 C 374.125 3.317,373.742 3.413,373.550 3.495 C 373.357 3.576,372.982 3.589,372.716 3.522 C 372.450 3.455,372.203 3.482,372.167 3.580 C 372.104 3.748,370.117 4.030,368.650 4.078 C 368.293 4.090,368.000 4.162,368.000 4.238 C 368.000 4.313,367.843 4.373,367.650 4.371 C 367.280 4.367,365.771 4.541,364.600 4.724 C 364.215 4.784,363.668 4.856,363.385 4.883 C 363.101 4.911,362.786 4.984,362.685 5.046 C 362.583 5.108,361.912 5.214,361.193 5.282 C 360.474 5.351,359.664 5.450,359.393 5.504 C 358.635 5.655,357.153 5.854,355.090 6.082 C 354.864 6.107,354.570 6.195,354.437 6.277 C 354.303 6.360,353.992 6.402,353.747 6.370 C 353.501 6.338,353.210 6.367,353.100 6.434 C 352.990 6.500,352.315 6.609,351.600 6.676 C 350.885 6.743,350.075 6.845,349.800 6.905 C 349.525 6.964,348.940 7.054,348.500 7.105 C 348.060 7.156,347.295 7.255,346.800 7.324 C 346.305 7.393,345.653 7.451,345.350 7.453 C 345.048 7.456,344.800 7.525,344.800 7.608 C 344.800 7.757,342.527 8.064,341.250 8.088 C 340.893 8.094,340.600 8.162,340.600 8.238 C 340.600 8.313,340.443 8.373,340.250 8.371 C 339.942 8.368,339.397 8.427,337.400 8.682 C 337.125 8.717,336.742 8.813,336.550 8.895 C 336.357 8.976,335.982 8.989,335.716 8.922 C 335.450 8.855,335.203 8.882,335.167 8.980 C 335.104 9.148,333.117 9.430,331.650 9.478 C 331.293 9.490,331.000 9.562,331.000 9.638 C 331.000 9.713,330.843 9.773,330.650 9.771 C 330.280 9.767,328.771 9.941,327.600 10.124 C 327.215 10.184,326.668 10.256,326.385 10.283 C 326.101 10.311,325.786 10.384,325.685 10.446 C 325.583 10.508,324.912 10.614,324.193 10.682 C 323.474 10.751,322.664 10.850,322.393 10.904 C 321.635 11.055,320.153 11.254,318.090 11.482 C 317.864 11.507,317.570 11.595,317.437 11.677 C 317.303 11.760,316.992 11.802,316.747 11.770 C 316.501 11.738,316.210 11.767,316.100 11.834 C 315.990 11.900,315.315 12.009,314.600 12.076 C 313.885 12.143,313.075 12.245,312.800 12.305 C 312.525 12.364,311.940 12.454,311.500 12.505 C 311.060 12.556,310.295 12.655,309.800 12.724 C 309.305 12.793,308.653 12.851,308.350 12.853 C 308.048 12.856,307.800 12.925,307.800 13.008 C 307.800 13.157,305.527 13.464,304.250 13.488 C 303.893 13.494,303.600 13.562,303.600 13.638 C 303.600 13.713,303.443 13.773,303.250 13.771 C 302.942 13.768,302.397 13.827,300.400 14.082 C 300.125 14.117,299.742 14.213,299.550 14.295 C 299.357 14.376,298.982 14.389,298.716 14.322 C 298.450 14.255,298.203 14.282,298.167 14.380 C 298.104 14.548,296.117 14.830,294.650 14.878 C 294.293 14.890,294.000 14.962,294.000 15.038 C 294.000 15.113,293.843 15.173,293.650 15.171 C 293.280 15.167,291.771 15.341,290.600 15.524 C 290.215 15.584,289.668 15.656,289.385 15.683 C 289.101 15.711,288.786 15.784,288.685 15.846 C 288.583 15.908,287.912 16.014,287.193 16.082 C 286.474 16.151,285.664 16.250,285.393 16.304 C 284.635 16.455,283.153 16.654,281.090 16.882 C 280.864 16.907,280.570 16.995,280.437 17.077 C 280.303 17.160,279.992 17.202,279.747 17.170 C 279.501 17.138,279.210 17.167,279.100 17.234 C 278.990 17.300,278.315 17.409,277.600 17.476 C 276.885 17.543,276.075 17.645,275.800 17.705 C 275.525 17.764,274.940 17.854,274.500 17.905 C 274.060 17.956,273.295 18.055,272.800 18.124 C 272.305 18.193,271.653 18.251,271.350 18.253 C 271.048 18.256,270.800 18.325,270.800 18.408 C 270.800 18.557,268.527 18.864,267.250 18.888 C 266.893 18.894,266.600 18.962,266.600 19.038 C 266.600 19.113,266.443 19.173,266.250 19.171 C 265.942 19.168,265.397 19.227,263.400 19.482 C 263.125 19.517,262.742 19.613,262.550 19.695 C 262.357 19.776,261.982 19.789,261.716 19.722 C 261.450 19.655,261.203 19.682,261.167 19.780 C 261.104 19.948,259.117 20.230,257.650 20.278 C 257.293 20.290,257.000 20.362,257.000 20.438 C 257.000 20.513,256.843 20.573,256.650 20.571 C 256.280 20.567,254.771 20.741,253.600 20.924 C 253.215 20.984,252.668 21.056,252.385 21.083 C 252.101 21.111,251.786 21.184,251.685 21.246 C 251.583 21.308,250.912 21.414,250.193 21.482 C 249.474 21.551,248.664 21.650,248.393 21.704 C 247.635 21.855,246.153 22.054,244.090 22.282 C 243.864 22.307,243.570 22.395,243.437 22.477 C 243.303 22.560,242.992 22.608,242.747 22.584 C 242.501 22.560,242.165 22.594,242.000 22.659 C 241.835 22.724,241.205 22.830,240.600 22.895 C 239.995 22.959,239.230 23.054,238.900 23.106 C 238.570 23.159,237.940 23.246,237.500 23.300 C 237.060 23.354,236.295 23.453,235.800 23.521 C 235.305 23.588,234.675 23.653,234.400 23.665 C 234.125 23.677,233.855 23.747,233.800 23.821 C 233.698 23.958,231.695 24.220,230.350 24.271 C 229.938 24.287,229.600 24.362,229.600 24.438 C 229.600 24.513,229.443 24.573,229.250 24.571 C 229.058 24.569,228.450 24.624,227.900 24.693 C 227.350 24.762,226.672 24.842,226.394 24.870 C 226.115 24.899,225.776 24.991,225.640 25.075 C 225.504 25.159,225.192 25.202,224.947 25.170 C 224.701 25.138,224.410 25.168,224.300 25.235 C 224.094 25.362,221.803 25.640,220.650 25.678 C 220.293 25.690,220.000 25.762,220.000 25.838 C 220.000 25.913,219.843 25.973,219.650 25.971 C 219.257 25.967,217.906 26.124,216.700 26.315 C 216.260 26.385,215.668 26.462,215.385 26.488 C 215.101 26.513,214.786 26.584,214.685 26.646 C 214.583 26.708,213.912 26.814,213.193 26.882 C 212.474 26.951,211.664 27.053,211.393 27.109 C 211.122 27.166,210.495 27.259,210.000 27.316 C 209.505 27.373,208.830 27.457,208.500 27.503 C 208.170 27.550,207.622 27.621,207.283 27.662 C 206.943 27.702,206.559 27.801,206.430 27.882 C 206.300 27.962,205.992 28.008,205.747 27.984 C 205.501 27.960,205.165 27.994,205.000 28.059 C 204.835 28.124,204.205 28.230,203.600 28.295 C 202.995 28.359,202.230 28.454,201.900 28.506 C 201.570 28.559,200.940 28.646,200.500 28.700 C 200.060 28.754,199.295 28.853,198.800 28.921 C 198.305 28.988,197.675 29.053,197.400 29.065 C 197.125 29.077,196.855 29.147,196.800 29.221 C 196.698 29.358,194.695 29.620,193.350 29.671 C 192.938 29.687,192.600 29.762,192.600 29.838 C 192.600 29.913,192.443 29.973,192.250 29.971 C 192.058 29.969,191.450 30.024,190.900 30.093 C 190.350 30.162,189.672 30.242,189.394 30.270 C 189.115 30.299,188.776 30.391,188.640 30.475 C 188.504 30.559,188.192 30.602,187.947 30.570 C 187.701 30.538,187.410 30.568,187.300 30.635 C 187.126 30.742,185.707 30.928,183.700 31.107 C 183.370 31.136,182.808 31.225,182.450 31.305 L 181.800 31.450 181.800 110.896 L 181.800 190.343 183.804 190.481 C 184.906 190.557,185.910 190.556,186.035 190.478 C 186.160 190.401,192.166 190.301,199.381 190.257 C 211.685 190.181,218.803 190.128,250.200 189.879 C 257.130 189.824,268.470 189.734,275.400 189.679 C 282.330 189.624,293.670 189.534,300.600 189.479 C 307.530 189.424,318.847 189.334,325.750 189.279 C 332.652 189.224,343.970 189.135,350.900 189.080 C 357.830 189.026,370.025 188.924,378.000 188.854 C 385.975 188.784,393.490 188.720,394.700 188.713 L 396.900 188.700 396.850 94.383 C 396.797 -3.166,396.817 -0.550,396.141 0.126 M161.761 34.306 C 161.640 34.427,160.685 34.585,159.467 34.687 C 159.008 34.725,158.541 34.813,158.429 34.882 C 158.317 34.951,157.972 35.003,157.662 34.996 C 157.353 34.989,156.830 35.035,156.500 35.098 C 156.170 35.161,155.450 35.264,154.900 35.327 C 153.486 35.489,152.789 35.583,152.100 35.706 C 151.770 35.765,151.095 35.851,150.600 35.898 C 150.105 35.944,149.700 35.997,149.700 36.016 C 149.700 36.034,149.385 36.082,149.000 36.122 C 148.615 36.161,148.030 36.243,147.700 36.304 C 147.370 36.364,146.695 36.451,146.200 36.498 C 145.705 36.544,145.255 36.600,145.200 36.623 C 145.145 36.645,144.830 36.690,144.500 36.722 C 144.170 36.755,143.630 36.834,143.300 36.897 C 142.970 36.960,142.250 37.061,141.700 37.121 C 140.357 37.268,139.618 37.368,138.900 37.501 C 138.570 37.562,137.895 37.656,137.400 37.710 C 136.905 37.763,136.275 37.844,136.000 37.888 C 133.768 38.249,132.260 38.430,131.150 38.472 C 130.738 38.487,130.400 38.562,130.400 38.638 C 130.400 38.713,130.243 38.776,130.050 38.777 C 129.858 38.778,129.205 38.837,128.600 38.909 C 127.995 38.981,127.140 39.069,126.700 39.104 C 126.260 39.139,125.900 39.182,125.900 39.199 C 125.900 39.265,125.064 39.418,124.200 39.510 C 123.315 39.604,122.487 39.718,121.300 39.908 C 120.970 39.961,120.295 40.050,119.800 40.106 C 119.305 40.161,118.675 40.243,118.400 40.287 C 117.074 40.499,115.068 40.775,114.800 40.781 C 114.635 40.785,114.275 40.829,114.000 40.878 C 113.095 41.040,110.706 41.374,110.400 41.381 C 110.235 41.385,109.830 41.439,109.500 41.501 C 109.170 41.563,108.525 41.646,108.067 41.685 C 107.608 41.724,107.141 41.813,107.029 41.882 C 106.917 41.951,106.572 42.003,106.262 41.996 C 105.953 41.989,105.430 42.035,105.100 42.098 C 104.770 42.161,104.050 42.264,103.500 42.327 C 102.086 42.489,101.389 42.583,100.700 42.706 C 100.370 42.765,99.695 42.851,99.200 42.898 C 98.705 42.944,98.300 42.997,98.300 43.016 C 98.300 43.034,97.985 43.082,97.600 43.122 C 97.215 43.161,96.630 43.243,96.300 43.304 C 95.970 43.364,95.295 43.451,94.800 43.498 C 94.305 43.544,93.855 43.600,93.800 43.623 C 93.745 43.645,93.430 43.690,93.100 43.722 C 92.770 43.755,92.230 43.834,91.900 43.897 C 91.570 43.960,90.850 44.061,90.300 44.121 C 88.957 44.268,88.218 44.368,87.500 44.501 C 87.170 44.562,86.495 44.656,86.000 44.710 C 85.505 44.763,84.875 44.844,84.600 44.888 C 82.368 45.249,80.860 45.430,79.750 45.472 C 79.338 45.487,79.000 45.562,79.000 45.638 C 79.000 45.713,78.843 45.776,78.650 45.777 C 78.458 45.778,77.805 45.837,77.200 45.909 C 76.595 45.981,75.740 46.069,75.300 46.104 C 74.860 46.139,74.500 46.182,74.500 46.199 C 74.500 46.265,73.664 46.418,72.800 46.510 C 71.934 46.602,71.352 46.682,69.950 46.902 C 69.593 46.958,68.895 47.050,68.400 47.106 C 67.905 47.161,67.275 47.243,67.000 47.287 C 65.674 47.499,63.668 47.775,63.400 47.781 C 63.235 47.785,62.875 47.829,62.600 47.878 C 61.695 48.040,59.306 48.374,59.000 48.381 C 58.835 48.385,58.430 48.439,58.100 48.501 C 57.770 48.563,57.125 48.646,56.667 48.685 C 56.208 48.724,55.741 48.813,55.629 48.882 C 55.517 48.951,55.172 49.003,54.862 48.996 C 54.553 48.989,54.030 49.035,53.700 49.098 C 53.370 49.161,52.650 49.264,52.100 49.327 C 50.686 49.489,49.989 49.583,49.300 49.706 C 48.970 49.765,48.295 49.851,47.800 49.898 C 47.305 49.944,46.900 49.997,46.900 50.016 C 46.900 50.034,46.585 50.082,46.200 50.122 C 45.815 50.161,45.230 50.243,44.900 50.304 C 44.570 50.364,43.895 50.451,43.400 50.498 C 42.905 50.544,42.455 50.600,42.400 50.623 C 42.345 50.645,42.030 50.690,41.700 50.722 C 41.370 50.755,40.830 50.834,40.500 50.897 C 40.170 50.960,39.450 51.061,38.900 51.121 C 37.557 51.268,36.818 51.368,36.100 51.501 C 35.770 51.562,35.095 51.656,34.600 51.710 C 34.105 51.763,33.475 51.844,33.200 51.888 C 30.968 52.249,29.460 52.430,28.350 52.472 C 27.938 52.487,27.600 52.562,27.600 52.638 C 27.600 52.713,27.442 52.776,27.250 52.777 C 27.057 52.778,26.405 52.837,25.800 52.909 C 25.195 52.981,24.340 53.069,23.900 53.104 C 23.460 53.139,23.100 53.182,23.100 53.199 C 23.100 53.265,22.264 53.418,21.400 53.510 C 20.534 53.602,19.952 53.682,18.550 53.902 C 18.192 53.958,17.495 54.050,17.000 54.106 C 16.505 54.161,15.875 54.243,15.600 54.287 C 14.274 54.499,12.268 54.775,12.000 54.781 C 11.835 54.785,11.475 54.829,11.200 54.878 C 10.295 55.040,7.906 55.374,7.600 55.381 C 7.435 55.385,7.030 55.439,6.700 55.501 C 6.370 55.563,5.725 55.646,5.267 55.685 C 4.808 55.724,4.341 55.813,4.229 55.882 C 4.117 55.951,3.772 56.002,3.462 55.995 C 3.153 55.987,2.585 56.034,2.200 56.099 C 1.815 56.163,1.185 56.247,0.800 56.285 L 0.100 56.354 0.100 123.977 L 0.100 191.600 2.500 191.646 C 3.820 191.671,5.440 191.679,6.100 191.663 C 7.838 191.621,40.807 191.388,61.200 191.274 C 70.825 191.220,86.620 191.130,96.300 191.074 C 105.980 191.018,121.775 190.939,131.400 190.899 C 149.440 190.822,162.020 190.647,162.198 190.468 C 162.419 190.248,162.304 34.200,162.083 34.200 C 161.964 34.200,161.819 34.248,161.761 34.306 M1.176 207.760 L 0.252 207.820 0.157 231.560 C -0.088 292.819,0.066 343.096,0.500 343.149 C 0.720 343.175,1.215 343.236,1.600 343.283 C 1.985 343.331,2.750 343.421,3.300 343.483 C 3.850 343.545,4.593 343.642,4.950 343.698 C 6.612 343.959,6.939 344.008,7.500 344.081 C 7.830 344.124,8.550 344.210,9.100 344.272 C 10.109 344.386,11.281 344.556,12.200 344.721 C 12.475 344.771,12.835 344.815,13.000 344.819 C 13.303 344.826,15.674 345.157,16.600 345.321 C 17.217 345.431,17.998 345.535,19.300 345.683 C 19.850 345.745,20.593 345.842,20.950 345.898 C 22.612 346.159,22.939 346.208,23.500 346.281 C 23.830 346.324,24.550 346.410,25.100 346.472 C 26.109 346.586,27.281 346.756,28.200 346.921 C 28.475 346.971,28.835 347.015,29.000 347.019 C 29.303 347.026,31.674 347.357,32.600 347.521 C 33.217 347.631,33.998 347.735,35.300 347.883 C 35.850 347.945,36.593 348.042,36.950 348.098 C 38.612 348.359,38.939 348.408,39.500 348.481 C 39.830 348.524,40.550 348.610,41.100 348.672 C 42.109 348.786,43.281 348.956,44.200 349.121 C 44.475 349.171,44.835 349.215,45.000 349.219 C 45.303 349.226,47.674 349.557,48.600 349.721 C 49.217 349.831,49.998 349.935,51.300 350.083 C 51.850 350.145,52.570 350.239,52.900 350.292 C 54.714 350.583,55.497 350.691,57.100 350.872 C 58.109 350.986,59.281 351.156,60.200 351.321 C 60.475 351.371,60.835 351.415,61.000 351.419 C 61.307 351.426,63.701 351.761,64.600 351.922 C 64.875 351.972,65.415 352.042,65.800 352.078 C 66.185 352.115,66.500 352.162,66.500 352.183 C 66.500 352.204,66.860 352.251,67.300 352.288 C 67.740 352.324,68.415 352.409,68.800 352.478 C 70.255 352.737,70.917 352.818,71.462 352.805 C 71.772 352.798,72.119 352.850,72.234 352.921 C 72.350 352.992,72.771 353.074,73.172 353.103 C 73.864 353.153,75.108 353.325,76.200 353.522 C 76.475 353.571,76.835 353.615,77.000 353.619 C 77.307 353.626,79.701 353.961,80.600 354.122 C 80.875 354.172,81.415 354.242,81.800 354.278 C 82.185 354.315,82.500 354.362,82.500 354.383 C 82.500 354.404,82.860 354.451,83.300 354.488 C 83.740 354.524,84.415 354.609,84.800 354.678 C 86.255 354.937,86.917 355.018,87.462 355.005 C 87.772 354.998,88.119 355.050,88.234 355.121 C 88.350 355.192,88.771 355.274,89.172 355.303 C 89.864 355.353,91.108 355.525,92.200 355.722 C 92.475 355.771,92.835 355.815,93.000 355.819 C 93.307 355.826,95.701 356.161,96.600 356.322 C 96.875 356.372,97.415 356.442,97.800 356.478 C 98.185 356.515,98.500 356.561,98.500 356.581 C 98.500 356.601,98.905 356.655,99.400 356.701 C 100.244 356.779,101.100 356.930,101.100 357.001 C 101.100 357.051,102.849 357.193,103.462 357.192 C 103.772 357.192,104.119 357.250,104.234 357.321 C 104.350 357.392,104.771 357.474,105.172 357.503 C 105.864 357.553,107.108 357.725,108.200 357.922 C 108.475 357.971,108.835 358.015,109.000 358.019 C 109.295 358.026,111.618 358.349,112.600 358.520 C 112.875 358.567,113.415 358.639,113.800 358.678 C 114.185 358.718,114.500 358.766,114.500 358.784 C 114.500 358.827,116.389 359.019,116.850 359.022 C 117.043 359.024,117.200 359.087,117.200 359.162 C 117.200 359.291,118.141 359.385,119.462 359.390 C 119.772 359.391,120.117 359.449,120.229 359.518 C 120.341 359.587,120.808 359.676,121.267 359.715 C 121.725 359.754,122.370 359.837,122.700 359.898 C 123.424 360.033,124.170 360.134,125.500 360.277 C 126.467 360.381,127.562 360.537,128.600 360.719 C 128.875 360.767,129.415 360.839,129.800 360.878 C 130.185 360.918,130.500 360.966,130.500 360.984 C 130.500 361.027,132.389 361.219,132.850 361.222 C 133.042 361.224,133.200 361.287,133.200 361.362 C 133.200 361.491,134.141 361.585,135.462 361.590 C 135.772 361.591,136.117 361.649,136.229 361.718 C 136.341 361.787,136.808 361.876,137.267 361.915 C 137.725 361.954,138.370 362.037,138.700 362.098 C 139.424 362.233,140.170 362.334,141.500 362.477 C 142.467 362.581,143.562 362.737,144.600 362.919 C 144.875 362.967,145.415 363.039,145.800 363.078 C 146.185 363.118,146.500 363.166,146.500 363.184 C 146.500 363.227,148.389 363.419,148.850 363.422 C 149.043 363.424,149.200 363.487,149.200 363.562 C 149.200 363.691,150.141 363.785,151.462 363.790 C 151.772 363.791,152.117 363.849,152.229 363.918 C 152.341 363.987,152.808 364.076,153.267 364.115 C 153.725 364.154,154.370 364.237,154.700 364.298 C 155.424 364.433,156.170 364.534,157.500 364.677 C 158.050 364.736,158.860 364.840,159.300 364.908 C 159.740 364.976,160.280 365.058,160.500 365.091 C 160.720 365.123,161.146 365.216,161.447 365.296 C 162.344 365.535,162.334 366.017,162.267 327.900 C 162.232 307.770,162.180 272.738,162.151 250.050 L 162.100 208.800 161.300 208.790 C 160.860 208.785,153.885 208.747,145.800 208.706 C 137.715 208.665,124.125 208.584,115.600 208.527 C 100.627 208.425,86.735 208.335,54.000 208.127 C 40.902 208.044,11.865 207.808,4.300 207.724 C 3.090 207.711,1.684 207.727,1.176 207.760 M181.511 210.000 C 181.482 210.055,181.491 221.800,181.530 236.100 C 181.569 250.400,181.633 285.825,181.672 314.822 C 181.711 343.820,181.800 367.639,181.871 367.754 C 181.942 367.868,182.179 367.916,182.397 367.859 C 182.615 367.802,182.953 367.823,183.147 367.906 C 183.341 367.989,183.739 368.039,184.030 368.016 C 184.322 367.993,184.620 368.071,184.694 368.190 C 184.767 368.309,184.914 368.353,185.018 368.289 C 185.123 368.224,185.860 368.275,186.655 368.402 C 187.450 368.529,188.280 368.660,188.500 368.694 C 188.720 368.727,189.350 368.824,189.900 368.908 C 190.450 368.993,191.058 369.054,191.250 369.043 C 191.442 369.033,191.600 369.087,191.600 369.162 C 191.600 369.238,191.938 369.309,192.350 369.319 C 192.763 369.330,193.460 369.399,193.900 369.474 C 195.112 369.680,197.099 369.958,198.200 370.076 C 198.585 370.117,198.945 370.172,199.000 370.197 C 199.055 370.223,199.301 370.228,199.547 370.208 C 199.792 370.188,200.107 370.243,200.247 370.329 C 200.386 370.415,200.738 370.460,201.030 370.430 C 201.322 370.399,201.620 370.471,201.694 370.590 C 201.767 370.709,201.914 370.753,202.018 370.689 C 202.123 370.624,202.860 370.677,203.655 370.807 C 204.450 370.936,205.280 371.069,205.500 371.101 C 205.720 371.133,206.260 371.213,206.700 371.278 C 207.140 371.344,207.860 371.444,208.300 371.501 C 209.558 371.665,210.656 371.824,211.200 371.921 C 211.475 371.970,211.970 372.048,212.300 372.095 C 212.630 372.142,213.260 372.233,213.700 372.296 C 214.140 372.359,214.753 372.407,215.062 372.402 C 215.372 372.396,215.732 372.458,215.862 372.539 C 215.993 372.619,216.347 372.659,216.650 372.628 C 216.963 372.595,217.200 372.668,217.200 372.798 C 217.200 372.930,217.357 372.977,217.572 372.909 C 217.776 372.844,218.878 372.937,220.022 373.116 C 221.165 373.295,222.280 373.468,222.500 373.500 C 222.720 373.533,223.260 373.613,223.700 373.679 C 224.140 373.744,224.905 373.850,225.400 373.915 C 225.895 373.979,226.525 374.072,226.800 374.121 C 227.410 374.230,228.268 374.358,229.200 374.480 C 229.585 374.531,230.260 374.625,230.700 374.690 C 232.346 374.932,232.917 374.993,233.535 374.991 C 233.884 374.990,234.228 375.083,234.299 375.198 C 234.370 375.313,234.514 375.353,234.618 375.289 C 234.723 375.224,235.460 375.275,236.255 375.402 C 237.050 375.529,237.880 375.661,238.100 375.697 C 239.511 375.922,240.547 376.050,240.850 376.039 C 241.043 376.031,241.200 376.087,241.200 376.162 C 241.200 376.238,241.538 376.309,241.950 376.319 C 242.363 376.330,243.060 376.399,243.500 376.474 C 243.940 376.549,244.615 376.652,245.000 376.704 C 245.385 376.756,246.015 376.843,246.400 376.897 C 246.785 376.951,247.415 377.030,247.800 377.073 C 248.185 377.115,248.545 377.172,248.600 377.197 C 248.655 377.223,248.901 377.228,249.147 377.208 C 249.392 377.188,249.707 377.243,249.847 377.329 C 249.986 377.415,250.338 377.460,250.630 377.430 C 250.922 377.399,251.220 377.471,251.294 377.590 C 251.367 377.709,251.514 377.753,251.618 377.689 C 251.723 377.624,252.460 377.675,253.255 377.802 C 254.050 377.929,254.880 378.060,255.100 378.094 C 255.320 378.127,255.950 378.224,256.500 378.308 C 257.050 378.393,257.657 378.454,257.850 378.443 C 258.043 378.433,258.200 378.487,258.200 378.562 C 258.200 378.638,258.538 378.709,258.950 378.719 C 259.363 378.730,260.060 378.799,260.500 378.874 C 261.712 379.080,263.699 379.358,264.800 379.476 C 265.185 379.517,265.545 379.572,265.600 379.597 C 265.655 379.623,265.901 379.628,266.147 379.608 C 266.392 379.588,266.707 379.643,266.847 379.729 C 266.986 379.815,267.338 379.860,267.630 379.830 C 267.922 379.799,268.220 379.871,268.294 379.990 C 268.367 380.109,268.514 380.153,268.618 380.089 C 268.723 380.024,269.460 380.077,270.255 380.207 C 271.050 380.336,271.880 380.469,272.100 380.501 C 272.320 380.533,272.860 380.613,273.300 380.678 C 273.740 380.744,274.460 380.844,274.900 380.901 C 276.158 381.065,277.256 381.224,277.800 381.321 C 278.075 381.370,278.570 381.448,278.900 381.495 C 279.230 381.542,279.860 381.633,280.300 381.696 C 280.740 381.759,281.353 381.807,281.662 381.802 C 281.972 381.796,282.332 381.858,282.462 381.939 C 282.593 382.019,282.947 382.059,283.250 382.028 C 283.563 381.995,283.800 382.068,283.800 382.198 C 283.800 382.330,283.957 382.377,284.172 382.309 C 284.376 382.244,285.478 382.337,286.622 382.516 C 287.765 382.695,288.880 382.868,289.100 382.900 C 289.320 382.933,289.860 383.013,290.300 383.079 C 290.740 383.144,291.505 383.250,292.000 383.315 C 292.495 383.379,293.125 383.472,293.400 383.521 C 293.879 383.606,294.436 383.688,295.850 383.883 C 296.208 383.932,296.860 384.025,297.300 384.090 C 298.946 384.332,299.517 384.393,300.135 384.391 C 300.484 384.390,300.828 384.483,300.899 384.598 C 300.970 384.713,301.114 384.753,301.218 384.689 C 301.323 384.624,302.060 384.675,302.855 384.802 C 303.650 384.929,304.480 385.061,304.700 385.097 C 306.111 385.322,307.147 385.450,307.450 385.439 C 307.643 385.431,307.800 385.487,307.800 385.562 C 307.800 385.638,308.138 385.709,308.550 385.719 C 308.963 385.730,309.660 385.799,310.100 385.874 C 311.256 386.071,313.131 386.331,314.400 386.473 C 314.785 386.515,315.100 386.569,315.100 386.591 C 315.100 386.657,316.452 386.788,317.135 386.789 C 317.484 386.789,317.828 386.883,317.899 386.998 C 317.970 387.113,318.114 387.153,318.218 387.089 C 318.323 387.024,319.060 387.075,319.855 387.202 C 320.650 387.329,321.480 387.460,321.700 387.494 C 321.920 387.527,322.550 387.624,323.100 387.708 C 323.650 387.793,324.257 387.854,324.450 387.843 C 324.643 387.833,324.800 387.887,324.800 387.962 C 324.800 388.038,325.138 388.109,325.550 388.119 C 325.963 388.130,326.660 388.199,327.100 388.274 C 328.312 388.480,330.299 388.758,331.400 388.876 C 331.785 388.917,332.145 388.972,332.200 388.997 C 332.255 389.023,332.501 389.028,332.747 389.008 C 332.992 388.988,333.307 389.043,333.447 389.129 C 333.586 389.215,333.938 389.260,334.230 389.230 C 334.522 389.199,334.820 389.271,334.894 389.390 C 334.967 389.509,335.114 389.553,335.218 389.489 C 335.323 389.424,336.060 389.475,336.855 389.602 C 337.650 389.729,338.480 389.859,338.700 389.891 C 338.920 389.923,339.460 390.005,339.900 390.073 C 340.340 390.141,341.060 390.244,341.500 390.301 C 342.758 390.465,343.856 390.624,344.400 390.721 C 344.675 390.770,345.170 390.848,345.500 390.895 C 345.830 390.942,346.460 391.033,346.900 391.096 C 347.340 391.159,347.953 391.207,348.262 391.202 C 348.572 391.196,348.932 391.258,349.062 391.339 C 349.193 391.419,349.547 391.459,349.850 391.428 C 350.163 391.395,350.400 391.468,350.400 391.598 C 350.400 391.730,350.557 391.777,350.772 391.709 C 350.976 391.644,352.078 391.737,353.222 391.916 C 354.365 392.095,355.480 392.268,355.700 392.300 C 357.370 392.549,357.794 392.609,358.500 392.701 C 359.758 392.865,360.856 393.024,361.400 393.121 C 361.675 393.170,362.170 393.246,362.500 393.291 C 362.830 393.336,363.460 393.425,363.900 393.490 C 365.546 393.732,366.117 393.793,366.735 393.791 C 367.084 393.790,367.428 393.883,367.499 393.998 C 367.570 394.113,367.714 394.153,367.818 394.089 C 367.923 394.024,368.660 394.075,369.455 394.202 C 370.250 394.329,371.080 394.461,371.300 394.497 C 372.711 394.722,373.747 394.850,374.050 394.839 C 374.243 394.831,374.400 394.887,374.400 394.962 C 374.400 395.038,374.738 395.109,375.150 395.119 C 375.563 395.130,376.260 395.199,376.700 395.274 C 377.464 395.404,378.007 395.485,379.450 395.683 C 379.808 395.732,380.460 395.825,380.900 395.890 C 382.546 396.132,383.117 396.193,383.735 396.191 C 384.084 396.190,384.428 396.283,384.499 396.398 C 384.570 396.513,384.714 396.553,384.818 396.489 C 384.923 396.424,385.660 396.475,386.455 396.602 C 387.250 396.729,388.080 396.860,388.300 396.894 C 388.520 396.927,389.150 397.024,389.700 397.108 C 390.250 397.193,390.858 397.254,391.050 397.243 C 391.243 397.233,391.400 397.287,391.400 397.362 C 391.400 397.438,391.738 397.509,392.150 397.519 C 392.563 397.530,393.260 397.601,393.700 397.677 C 394.140 397.754,394.770 397.846,395.100 397.881 C 395.430 397.917,395.700 397.969,395.700 397.996 C 395.700 398.023,395.970 398.066,396.300 398.092 L 396.900 398.139 396.911 304.219 L 396.923 210.300 383.611 210.292 C 367.802 210.283,252.221 210.067,210.731 209.969 C 194.688 209.931,181.539 209.945,181.511 210.000 " stroke="none" fill="#047cd4" fill-rule="evenodd"></path><path id="path1" d="M396.850 94.336 L 396.800 188.572 396.350 188.659 L 395.900 188.746 396.356 188.773 C 396.607 188.788,396.855 188.688,396.907 188.550 C 396.960 188.413,396.979 145.955,396.951 94.200 L 396.900 0.100 396.850 94.336 M390.900 0.800 L 390.300 0.953 390.838 0.976 C 391.134 0.989,391.432 0.910,391.500 0.800 C 391.568 0.690,391.596 0.611,391.562 0.624 C 391.528 0.637,391.230 0.716,390.900 0.800 M389.500 1.000 L 388.900 1.153 389.438 1.176 C 389.734 1.189,390.032 1.110,390.100 1.000 C 390.168 0.890,390.196 0.811,390.162 0.824 C 390.128 0.837,389.830 0.916,389.500 1.000 M379.900 2.400 L 379.300 2.553 379.838 2.576 C 380.134 2.589,380.432 2.510,380.500 2.400 C 380.568 2.290,380.596 2.211,380.562 2.224 C 380.528 2.237,380.230 2.316,379.900 2.400 M373.100 3.400 L 372.500 3.553 373.038 3.576 C 373.334 3.589,373.632 3.510,373.700 3.400 C 373.768 3.290,373.796 3.211,373.762 3.224 C 373.728 3.237,373.430 3.316,373.100 3.400 M353.900 6.200 L 353.300 6.353 353.838 6.376 C 354.134 6.389,354.432 6.310,354.500 6.200 C 354.568 6.090,354.596 6.011,354.562 6.024 C 354.528 6.037,354.230 6.116,353.900 6.200 M352.500 6.400 L 351.900 6.553 352.438 6.576 C 352.734 6.589,353.032 6.510,353.100 6.400 C 353.168 6.290,353.196 6.211,353.162 6.224 C 353.128 6.237,352.830 6.316,352.500 6.400 M342.900 7.800 L 342.300 7.953 342.838 7.976 C 343.134 7.989,343.432 7.910,343.500 7.800 C 343.568 7.690,343.596 7.611,343.562 7.624 C 343.528 7.637,343.230 7.716,342.900 7.800 M336.100 8.800 L 335.500 8.953 336.038 8.976 C 336.334 8.989,336.632 8.910,336.700 8.800 C 336.768 8.690,336.796 8.611,336.762 8.624 C 336.728 8.637,336.430 8.716,336.100 8.800 M316.900 11.600 L 316.300 11.753 316.838 11.776 C 317.134 11.789,317.432 11.710,317.500 11.600 C 317.568 11.490,317.596 11.411,317.562 11.424 C 317.528 11.437,317.230 11.516,316.900 11.600 M315.500 11.800 L 314.900 11.953 315.438 11.976 C 315.734 11.989,316.032 11.910,316.100 11.800 C 316.168 11.690,316.196 11.611,316.162 11.624 C 316.128 11.637,315.830 11.716,315.500 11.800 M305.900 13.200 L 305.300 13.353 305.838 13.376 C 306.134 13.389,306.432 13.310,306.500 13.200 C 306.568 13.090,306.596 13.011,306.562 13.024 C 306.528 13.037,306.230 13.116,305.900 13.200 M299.100 14.200 L 298.500 14.353 299.038 14.376 C 299.334 14.389,299.632 14.310,299.700 14.200 C 299.768 14.090,299.796 14.011,299.762 14.024 C 299.728 14.037,299.430 14.116,299.100 14.200 M279.900 17.000 L 279.300 17.153 279.838 17.176 C 280.134 17.189,280.432 17.110,280.500 17.000 C 280.568 16.890,280.596 16.811,280.562 16.824 C 280.528 16.837,280.230 16.916,279.900 17.000 M278.500 17.200 L 277.900 17.353 278.438 17.376 C 278.734 17.389,279.032 17.310,279.100 17.200 C 279.168 17.090,279.196 17.011,279.162 17.024 C 279.128 17.037,278.830 17.116,278.500 17.200 M268.900 18.600 L 268.300 18.753 268.838 18.776 C 269.134 18.789,269.432 18.710,269.500 18.600 C 269.568 18.490,269.596 18.411,269.562 18.424 C 269.528 18.437,269.230 18.516,268.900 18.600 M262.100 19.600 L 261.500 19.753 262.038 19.776 C 262.334 19.789,262.632 19.710,262.700 19.600 C 262.768 19.490,262.796 19.411,262.762 19.424 C 262.728 19.437,262.430 19.516,262.100 19.600 M251.100 21.200 L 250.500 21.353 251.038 21.376 C 251.334 21.389,251.632 21.310,251.700 21.200 C 251.768 21.090,251.796 21.011,251.762 21.024 C 251.728 21.037,251.430 21.116,251.100 21.200 M242.900 22.400 L 242.300 22.553 242.838 22.576 C 243.134 22.589,243.432 22.510,243.500 22.400 C 243.568 22.290,243.596 22.211,243.562 22.224 C 243.528 22.237,243.230 22.316,242.900 22.400 M241.500 22.600 L 240.900 22.753 241.438 22.776 C 241.734 22.789,242.032 22.710,242.100 22.600 C 242.168 22.490,242.196 22.411,242.162 22.424 C 242.128 22.437,241.830 22.516,241.500 22.600 M225.100 25.000 L 224.500 25.153 225.038 25.176 C 225.334 25.189,225.632 25.110,225.700 25.000 C 225.768 24.890,225.796 24.811,225.762 24.824 C 225.728 24.837,225.430 24.916,225.100 25.000 M214.100 26.600 L 213.500 26.753 214.038 26.776 C 214.334 26.789,214.632 26.710,214.700 26.600 C 214.768 26.490,214.796 26.411,214.762 26.424 C 214.728 26.437,214.430 26.516,214.100 26.600 M205.900 27.800 L 205.300 27.953 205.838 27.976 C 206.134 27.989,206.432 27.910,206.500 27.800 C 206.568 27.690,206.596 27.611,206.562 27.624 C 206.528 27.637,206.230 27.716,205.900 27.800 M204.500 28.000 L 203.900 28.153 204.438 28.176 C 204.734 28.189,205.032 28.110,205.100 28.000 C 205.168 27.890,205.196 27.811,205.162 27.824 C 205.128 27.837,204.830 27.916,204.500 28.000 M188.100 30.400 L 187.500 30.553 188.038 30.576 C 188.334 30.589,188.632 30.510,188.700 30.400 C 188.768 30.290,188.796 30.211,188.762 30.224 C 188.728 30.237,188.430 30.316,188.100 30.400 M159.300 34.600 L 158.700 34.753 159.238 34.776 C 159.534 34.789,159.832 34.710,159.900 34.600 C 159.968 34.490,159.996 34.411,159.962 34.424 C 159.928 34.437,159.630 34.516,159.300 34.600 M162.271 36.100 C 162.270 37.090,162.304 37.520,162.346 37.056 C 162.388 36.592,162.389 35.782,162.347 35.256 C 162.306 34.730,162.272 35.110,162.271 36.100 M157.900 34.800 L 157.300 34.953 157.838 34.976 C 158.134 34.989,158.432 34.910,158.500 34.800 C 158.568 34.690,158.596 34.611,158.562 34.624 C 158.528 34.637,158.230 34.716,157.900 34.800 M137.300 37.600 L 136.700 37.753 137.238 37.776 C 137.534 37.789,137.832 37.710,137.900 37.600 C 137.968 37.490,137.996 37.411,137.962 37.424 C 137.928 37.437,137.630 37.516,137.300 37.600 M132.900 38.200 L 132.300 38.353 132.838 38.376 C 133.134 38.389,133.432 38.310,133.500 38.200 C 133.568 38.090,133.596 38.011,133.562 38.024 C 133.528 38.037,133.230 38.116,132.900 38.200 M128.500 38.800 L 127.900 38.953 128.438 38.976 C 128.734 38.989,129.032 38.910,129.100 38.800 C 129.168 38.690,129.196 38.611,129.162 38.624 C 129.128 38.637,128.830 38.716,128.500 38.800 M124.100 39.400 L 123.500 39.553 124.038 39.576 C 124.334 39.589,124.632 39.510,124.700 39.400 C 124.768 39.290,124.796 39.211,124.762 39.224 C 124.728 39.237,124.430 39.316,124.100 39.400 M116.700 40.400 L 116.100 40.553 116.638 40.576 C 116.934 40.589,117.232 40.510,117.300 40.400 C 117.368 40.290,117.396 40.211,117.362 40.224 C 117.328 40.237,117.030 40.316,116.700 40.400 M112.300 41.000 L 111.700 41.153 112.238 41.176 C 112.534 41.189,112.832 41.110,112.900 41.000 C 112.968 40.890,112.996 40.811,112.962 40.824 C 112.928 40.837,112.630 40.916,112.300 41.000 M107.900 41.600 L 107.300 41.753 107.838 41.776 C 108.134 41.789,108.432 41.710,108.500 41.600 C 108.568 41.490,108.596 41.411,108.562 41.424 C 108.528 41.437,108.230 41.516,107.900 41.600 M106.500 41.800 L 105.900 41.953 106.438 41.976 C 106.734 41.989,107.032 41.910,107.100 41.800 C 107.168 41.690,107.196 41.611,107.162 41.624 C 107.128 41.637,106.830 41.716,106.500 41.800 M85.900 44.600 L 85.300 44.753 85.838 44.776 C 86.134 44.789,86.432 44.710,86.500 44.600 C 86.568 44.490,86.596 44.411,86.562 44.424 C 86.528 44.437,86.230 44.516,85.900 44.600 M81.500 45.200 L 80.900 45.353 81.438 45.376 C 81.734 45.389,82.032 45.310,82.100 45.200 C 82.168 45.090,82.196 45.011,82.162 45.024 C 82.128 45.037,81.830 45.116,81.500 45.200 M77.100 45.800 L 76.500 45.953 77.038 45.976 C 77.334 45.989,77.632 45.910,77.700 45.800 C 77.768 45.690,77.796 45.611,77.762 45.624 C 77.728 45.637,77.430 45.716,77.100 45.800 M72.700 46.400 L 72.100 46.553 72.638 46.576 C 72.934 46.589,73.232 46.510,73.300 46.400 C 73.368 46.290,73.396 46.211,73.362 46.224 C 73.328 46.237,73.030 46.316,72.700 46.400 M65.300 47.400 L 64.700 47.553 65.238 47.576 C 65.534 47.589,65.832 47.510,65.900 47.400 C 65.968 47.290,65.996 47.211,65.962 47.224 C 65.928 47.237,65.630 47.316,65.300 47.400 M60.900 48.000 L 60.300 48.153 60.838 48.176 C 61.134 48.189,61.432 48.110,61.500 48.000 C 61.568 47.890,61.596 47.811,61.562 47.824 C 61.528 47.837,61.230 47.916,60.900 48.000 M162.254 49.000 C 162.254 49.495,162.293 49.698,162.341 49.450 C 162.389 49.203,162.389 48.798,162.341 48.550 C 162.293 48.303,162.254 48.505,162.254 49.000 M56.500 48.600 L 55.900 48.753 56.438 48.776 C 56.734 48.789,57.032 48.710,57.100 48.600 C 57.168 48.490,57.196 48.411,57.162 48.424 C 57.128 48.437,56.830 48.516,56.500 48.600 M34.500 51.600 L 33.900 51.753 34.438 51.776 C 34.734 51.789,35.032 51.710,35.100 51.600 C 35.168 51.490,35.196 51.411,35.162 51.424 C 35.128 51.437,34.830 51.516,34.500 51.600 M30.100 52.200 L 29.500 52.353 30.038 52.376 C 30.334 52.389,30.632 52.310,30.700 52.200 C 30.768 52.090,30.796 52.011,30.762 52.024 C 30.728 52.037,30.430 52.116,30.100 52.200 M25.700 52.800 L 25.100 52.953 25.638 52.976 C 25.934 52.989,26.232 52.910,26.300 52.800 C 26.368 52.690,26.396 52.611,26.362 52.624 C 26.328 52.637,26.030 52.716,25.700 52.800 M21.300 53.400 L 20.700 53.553 21.238 53.576 C 21.534 53.589,21.832 53.510,21.900 53.400 C 21.968 53.290,21.996 53.211,21.962 53.224 C 21.928 53.237,21.630 53.316,21.300 53.400 M162.257 54.100 C 162.259 54.650,162.298 54.851,162.344 54.547 C 162.389 54.243,162.388 53.793,162.341 53.547 C 162.293 53.301,162.256 53.550,162.257 54.100 M13.900 54.400 L 13.300 54.553 13.838 54.576 C 14.134 54.589,14.432 54.510,14.500 54.400 C 14.568 54.290,14.596 54.211,14.562 54.224 C 14.528 54.237,14.230 54.316,13.900 54.400 M9.500 55.000 L 8.900 55.153 9.438 55.176 C 9.734 55.189,10.032 55.110,10.100 55.000 C 10.168 54.890,10.196 54.811,10.162 54.824 C 10.128 54.837,9.830 54.916,9.500 55.000 M5.100 55.600 L 4.500 55.753 5.038 55.776 C 5.334 55.789,5.632 55.710,5.700 55.600 C 5.768 55.490,5.796 55.411,5.762 55.424 C 5.728 55.437,5.430 55.516,5.100 55.600 M162.254 57.600 C 162.254 58.095,162.293 58.298,162.341 58.050 C 162.389 57.803,162.389 57.398,162.341 57.150 C 162.293 56.903,162.254 57.105,162.254 57.600 M0.050 68.500 C 0.053 68.940,0.094 69.096,0.141 68.848 C 0.189 68.599,0.187 68.239,0.137 68.048 C 0.087 67.856,0.048 68.060,0.050 68.500 M162.254 69.600 C 162.254 70.095,162.293 70.297,162.341 70.050 C 162.389 69.802,162.389 69.398,162.341 69.150 C 162.293 68.903,162.254 69.105,162.254 69.600 M162.257 76.500 C 162.259 77.050,162.298 77.251,162.344 76.947 C 162.389 76.643,162.388 76.193,162.341 75.947 C 162.293 75.701,162.256 75.950,162.257 76.500 M0.062 80.300 C 0.063 80.960,0.100 81.206,0.145 80.846 C 0.189 80.487,0.189 79.947,0.143 79.646 C 0.097 79.346,0.061 79.640,0.062 80.300 M162.254 83.400 C 162.254 83.895,162.293 84.098,162.341 83.850 C 162.389 83.603,162.389 83.198,162.341 82.950 C 162.293 82.703,162.254 82.905,162.254 83.400 M162.254 86.800 C 162.254 87.295,162.293 87.498,162.341 87.250 C 162.389 87.002,162.389 86.598,162.341 86.350 C 162.293 86.103,162.254 86.305,162.254 86.800 M0.072 91.800 C 0.072 92.845,0.106 93.273,0.147 92.750 C 0.188 92.228,0.188 91.373,0.147 90.850 C 0.106 90.328,0.072 90.755,0.072 91.800 M162.272 98.000 C 162.272 99.045,162.306 99.473,162.347 98.950 C 162.388 98.428,162.388 97.573,162.347 97.050 C 162.306 96.528,162.272 96.955,162.272 98.000 M162.257 102.300 C 162.259 102.850,162.298 103.051,162.344 102.747 C 162.389 102.443,162.388 101.993,162.341 101.747 C 162.293 101.501,162.256 101.750,162.257 102.300 M0.072 103.800 C 0.072 104.845,0.106 105.272,0.147 104.750 C 0.188 104.228,0.188 103.373,0.147 102.850 C 0.106 102.328,0.072 102.755,0.072 103.800 M162.254 112.600 C 162.254 113.095,162.293 113.297,162.341 113.050 C 162.389 112.803,162.389 112.397,162.341 112.150 C 162.293 111.903,162.254 112.105,162.254 112.600 M0.050 113.500 C 0.053 113.940,0.094 114.096,0.141 113.848 C 0.189 113.599,0.187 113.239,0.137 113.048 C 0.087 112.856,0.048 113.060,0.050 113.500 M0.069 116.300 C 0.069 117.180,0.104 117.515,0.147 117.045 C 0.189 116.574,0.188 115.854,0.145 115.445 C 0.102 115.035,0.068 115.420,0.069 116.300 M162.272 123.800 C 162.272 124.845,162.306 125.272,162.347 124.750 C 162.388 124.228,162.388 123.373,162.347 122.850 C 162.306 122.328,162.272 122.755,162.272 123.800 M0.078 127.300 C 0.078 128.730,0.110 129.289,0.148 128.542 C 0.187 127.795,0.187 126.625,0.148 125.942 C 0.109 125.259,0.077 125.870,0.078 127.300 M162.254 135.000 C 162.254 135.495,162.293 135.697,162.341 135.450 C 162.389 135.203,162.389 134.797,162.341 134.550 C 162.293 134.303,162.254 134.505,162.254 135.000 M0.079 138.400 C 0.079 139.995,0.111 140.648,0.149 139.850 C 0.186 139.053,0.186 137.748,0.149 136.950 C 0.111 136.153,0.079 136.805,0.079 138.400 M162.254 138.400 C 162.254 138.895,162.293 139.097,162.341 138.850 C 162.389 138.603,162.389 138.197,162.341 137.950 C 162.293 137.703,162.254 137.905,162.254 138.400 M162.257 141.900 C 162.259 142.450,162.298 142.651,162.344 142.347 C 162.389 142.043,162.388 141.593,162.341 141.347 C 162.293 141.101,162.256 141.350,162.257 141.900 M162.254 152.200 C 162.254 152.695,162.293 152.898,162.341 152.650 C 162.389 152.403,162.389 151.998,162.341 151.750 C 162.293 151.503,162.254 151.705,162.254 152.200 M0.050 153.900 C 0.053 154.340,0.094 154.496,0.141 154.248 C 0.189 153.999,0.187 153.639,0.137 153.448 C 0.087 153.256,0.048 153.460,0.050 153.900 M162.282 161.600 C 162.282 163.525,162.312 164.313,162.349 163.350 C 162.386 162.388,162.386 160.813,162.349 159.850 C 162.312 158.888,162.282 159.675,162.282 161.600 M0.062 163.500 C 0.063 164.160,0.100 164.406,0.145 164.046 C 0.189 163.687,0.189 163.147,0.143 162.846 C 0.097 162.546,0.061 162.840,0.062 163.500 M162.254 167.600 C 162.254 168.095,162.293 168.298,162.341 168.050 C 162.389 167.803,162.389 167.398,162.341 167.150 C 162.293 166.903,162.254 167.105,162.254 167.600 M0.069 174.500 C 0.069 175.380,0.104 175.715,0.147 175.245 C 0.189 174.774,0.188 174.054,0.145 173.645 C 0.102 173.235,0.068 173.620,0.069 174.500 M162.254 181.400 C 162.254 181.895,162.293 182.097,162.341 181.850 C 162.389 181.603,162.389 181.197,162.341 180.950 C 162.293 180.703,162.254 180.905,162.254 181.400 M162.277 188.000 C 162.277 189.375,162.309 189.938,162.348 189.250 C 162.387 188.563,162.387 187.438,162.348 186.750 C 162.309 186.063,162.277 186.625,162.277 188.000 M392.950 188.741 C 393.197 188.789,393.603 188.789,393.850 188.741 C 394.098 188.693,393.895 188.654,393.400 188.654 C 392.905 188.654,392.703 188.693,392.950 188.741 M394.752 188.741 C 395.001 188.789,395.361 188.787,395.552 188.737 C 395.744 188.687,395.540 188.648,395.100 188.650 C 394.660 188.653,394.504 188.694,394.752 188.741 M368.752 188.941 C 369.001 188.989,369.361 188.987,369.552 188.937 C 369.744 188.887,369.540 188.848,369.100 188.850 C 368.660 188.853,368.504 188.894,368.752 188.941 M370.350 188.941 C 370.598 188.989,371.003 188.989,371.250 188.941 C 371.498 188.893,371.295 188.854,370.800 188.854 C 370.305 188.854,370.103 188.893,370.350 188.941 M372.152 188.941 C 372.401 188.989,372.761 188.987,372.952 188.937 C 373.144 188.887,372.940 188.848,372.500 188.850 C 372.060 188.853,371.904 188.894,372.152 188.941 M373.752 188.941 C 374.001 188.989,374.361 188.987,374.552 188.937 C 374.744 188.887,374.540 188.848,374.100 188.850 C 373.660 188.853,373.504 188.894,373.752 188.941 M375.350 188.941 C 375.598 188.989,376.003 188.989,376.250 188.941 C 376.498 188.893,376.295 188.854,375.800 188.854 C 375.305 188.854,375.103 188.893,375.350 188.941 M377.152 188.941 C 377.401 188.989,377.761 188.987,377.952 188.937 C 378.144 188.887,377.940 188.848,377.500 188.850 C 377.060 188.853,376.904 188.894,377.152 188.941 M381.750 188.949 C 382.658 188.986,384.143 188.986,385.050 188.949 C 385.957 188.912,385.215 188.881,383.400 188.881 C 381.585 188.881,380.843 188.912,381.750 188.949 M390.550 188.941 C 390.798 188.989,391.203 188.989,391.450 188.941 C 391.697 188.893,391.495 188.854,391.000 188.854 C 390.505 188.854,390.303 188.893,390.550 188.941 M343.552 189.141 C 343.801 189.189,344.161 189.187,344.352 189.137 C 344.544 189.087,344.340 189.048,343.900 189.050 C 343.460 189.053,343.304 189.094,343.552 189.141 M345.150 189.141 C 345.398 189.189,345.803 189.189,346.050 189.141 C 346.298 189.093,346.095 189.054,345.600 189.054 C 345.105 189.054,344.903 189.093,345.150 189.141 M346.952 189.141 C 347.201 189.189,347.561 189.187,347.752 189.137 C 347.944 189.087,347.740 189.048,347.300 189.050 C 346.860 189.053,346.704 189.094,346.952 189.141 M348.552 189.141 C 348.801 189.189,349.161 189.187,349.352 189.137 C 349.544 189.087,349.340 189.048,348.900 189.050 C 348.460 189.053,348.304 189.094,348.552 189.141 M350.150 189.141 C 350.398 189.189,350.803 189.189,351.050 189.141 C 351.298 189.093,351.095 189.054,350.600 189.054 C 350.105 189.054,349.903 189.093,350.150 189.141 M351.952 189.141 C 352.201 189.189,352.561 189.187,352.752 189.137 C 352.944 189.087,352.740 189.048,352.300 189.050 C 351.860 189.053,351.704 189.094,351.952 189.141 M356.550 189.149 C 357.457 189.186,358.943 189.186,359.850 189.149 C 360.757 189.112,360.015 189.081,358.200 189.081 C 356.385 189.081,355.643 189.112,356.550 189.149 M365.350 189.141 C 365.598 189.189,366.003 189.189,366.250 189.141 C 366.498 189.093,366.295 189.054,365.800 189.054 C 365.305 189.054,365.103 189.093,365.350 189.141 M318.352 189.341 C 318.601 189.389,318.961 189.387,319.152 189.337 C 319.344 189.287,319.140 189.248,318.700 189.250 C 318.260 189.253,318.104 189.294,318.352 189.341 M319.950 189.341 C 320.197 189.389,320.603 189.389,320.850 189.341 C 321.098 189.293,320.895 189.254,320.400 189.254 C 319.905 189.254,319.703 189.293,319.950 189.341 M321.752 189.341 C 322.001 189.389,322.361 189.387,322.552 189.337 C 322.744 189.287,322.540 189.248,322.100 189.250 C 321.660 189.253,321.504 189.294,321.752 189.341 M323.352 189.341 C 323.601 189.389,323.961 189.387,324.152 189.337 C 324.344 189.287,324.140 189.248,323.700 189.250 C 323.260 189.253,323.104 189.294,323.352 189.341 M324.950 189.341 C 325.197 189.389,325.603 189.389,325.850 189.341 C 326.098 189.293,325.895 189.254,325.400 189.254 C 324.905 189.254,324.703 189.293,324.950 189.341 M326.752 189.341 C 327.001 189.389,327.361 189.387,327.552 189.337 C 327.744 189.287,327.540 189.248,327.100 189.250 C 326.660 189.253,326.504 189.294,326.752 189.341 M331.350 189.349 C 332.257 189.386,333.743 189.386,334.650 189.349 C 335.558 189.312,334.815 189.281,333.000 189.281 C 331.185 189.281,330.443 189.312,331.350 189.349 M340.150 189.341 C 340.398 189.389,340.803 189.389,341.050 189.341 C 341.298 189.293,341.095 189.254,340.600 189.254 C 340.105 189.254,339.903 189.293,340.150 189.341 M0.046 190.000 C 0.046 190.385,0.088 190.543,0.138 190.350 C 0.188 190.158,0.188 189.843,0.138 189.650 C 0.088 189.458,0.046 189.615,0.046 190.000 M293.152 189.541 C 293.401 189.589,293.761 189.587,293.952 189.537 C 294.144 189.487,293.940 189.448,293.500 189.450 C 293.060 189.453,292.904 189.494,293.152 189.541 M294.750 189.541 C 294.998 189.589,295.403 189.589,295.650 189.541 C 295.897 189.493,295.695 189.454,295.200 189.454 C 294.705 189.454,294.502 189.493,294.750 189.541 M296.552 189.541 C 296.801 189.589,297.161 189.587,297.352 189.537 C 297.544 189.487,297.340 189.448,296.900 189.450 C 296.460 189.453,296.304 189.494,296.552 189.541 M298.152 189.541 C 298.401 189.589,298.761 189.587,298.952 189.537 C 299.144 189.487,298.940 189.448,298.500 189.450 C 298.060 189.453,297.904 189.494,298.152 189.541 M299.750 189.541 C 299.998 189.589,300.403 189.589,300.650 189.541 C 300.897 189.493,300.695 189.454,300.200 189.454 C 299.705 189.454,299.502 189.493,299.750 189.541 M301.552 189.541 C 301.801 189.589,302.161 189.587,302.352 189.537 C 302.544 189.487,302.340 189.448,301.900 189.450 C 301.460 189.453,301.304 189.494,301.552 189.541 M306.150 189.549 C 307.058 189.586,308.543 189.586,309.450 189.549 C 310.358 189.512,309.615 189.481,307.800 189.481 C 305.985 189.481,305.243 189.512,306.150 189.549 M314.950 189.541 C 315.197 189.589,315.603 189.589,315.850 189.541 C 316.098 189.493,315.895 189.454,315.400 189.454 C 314.905 189.454,314.703 189.493,314.950 189.541 M267.952 189.741 C 268.201 189.789,268.561 189.787,268.752 189.737 C 268.944 189.687,268.740 189.648,268.300 189.650 C 267.860 189.653,267.704 189.694,267.952 189.741 M269.550 189.741 C 269.798 189.789,270.203 189.789,270.450 189.741 C 270.697 189.693,270.495 189.654,270.000 189.654 C 269.505 189.654,269.303 189.693,269.550 189.741 M271.352 189.741 C 271.601 189.789,271.961 189.787,272.152 189.737 C 272.344 189.687,272.140 189.648,271.700 189.650 C 271.260 189.653,271.104 189.694,271.352 189.741 M272.952 189.741 C 273.201 189.789,273.561 189.787,273.752 189.737 C 273.944 189.687,273.740 189.648,273.300 189.650 C 272.860 189.653,272.704 189.694,272.952 189.741 M274.550 189.741 C 274.798 189.789,275.203 189.789,275.450 189.741 C 275.697 189.693,275.495 189.654,275.000 189.654 C 274.505 189.654,274.303 189.693,274.550 189.741 M276.352 189.741 C 276.601 189.789,276.961 189.787,277.152 189.737 C 277.344 189.687,277.140 189.648,276.700 189.650 C 276.260 189.653,276.104 189.694,276.352 189.741 M280.950 189.749 C 281.858 189.786,283.343 189.786,284.250 189.749 C 285.157 189.712,284.415 189.681,282.600 189.681 C 280.785 189.681,280.043 189.712,280.950 189.749 M289.750 189.741 C 289.998 189.789,290.403 189.789,290.650 189.741 C 290.897 189.693,290.695 189.654,290.200 189.654 C 289.705 189.654,289.502 189.693,289.750 189.741 M242.752 189.941 C 243.001 189.989,243.361 189.987,243.552 189.937 C 243.744 189.887,243.540 189.848,243.100 189.850 C 242.660 189.853,242.504 189.894,242.752 189.941 M244.350 189.941 C 244.597 189.989,245.003 189.989,245.250 189.941 C 245.498 189.893,245.295 189.854,244.800 189.854 C 244.305 189.854,244.103 189.893,244.350 189.941 M246.152 189.941 C 246.401 189.989,246.761 189.987,246.952 189.937 C 247.144 189.887,246.940 189.848,246.500 189.850 C 246.060 189.853,245.904 189.894,246.152 189.941 M247.752 189.941 C 248.001 189.989,248.361 189.987,248.552 189.937 C 248.744 189.887,248.540 189.848,248.100 189.850 C 247.660 189.853,247.504 189.894,247.752 189.941 M249.350 189.941 C 249.597 189.989,250.003 189.989,250.250 189.941 C 250.498 189.893,250.295 189.854,249.800 189.854 C 249.305 189.854,249.103 189.893,249.350 189.941 M251.152 189.941 C 251.401 189.989,251.761 189.987,251.952 189.937 C 252.144 189.887,251.940 189.848,251.500 189.850 C 251.060 189.853,250.904 189.894,251.152 189.941 M255.750 189.949 C 256.657 189.986,258.143 189.986,259.050 189.949 C 259.957 189.912,259.215 189.881,257.400 189.881 C 255.585 189.881,254.843 189.912,255.750 189.949 M264.550 189.941 C 264.798 189.989,265.203 189.989,265.450 189.941 C 265.697 189.893,265.495 189.854,265.000 189.854 C 264.505 189.854,264.303 189.893,264.550 189.941 M217.552 190.141 C 217.801 190.189,218.161 190.187,218.352 190.137 C 218.544 190.087,218.340 190.048,217.900 190.050 C 217.460 190.053,217.304 190.094,217.552 190.141 M219.150 190.141 C 219.398 190.189,219.803 190.189,220.050 190.141 C 220.298 190.093,220.095 190.054,219.600 190.054 C 219.105 190.054,218.903 190.093,219.150 190.141 M220.952 190.141 C 221.201 190.189,221.561 190.187,221.752 190.137 C 221.944 190.087,221.740 190.048,221.300 190.050 C 220.860 190.053,220.704 190.094,220.952 190.141 M222.552 190.141 C 222.801 190.189,223.161 190.187,223.352 190.137 C 223.544 190.087,223.340 190.048,222.900 190.050 C 222.460 190.053,222.304 190.094,222.552 190.141 M224.150 190.141 C 224.398 190.189,224.803 190.189,225.050 190.141 C 225.298 190.093,225.095 190.054,224.600 190.054 C 224.105 190.054,223.903 190.093,224.150 190.141 M225.952 190.141 C 226.201 190.189,226.561 190.187,226.752 190.137 C 226.944 190.087,226.740 190.048,226.300 190.050 C 225.860 190.053,225.704 190.094,225.952 190.141 M230.550 190.149 C 231.457 190.186,232.943 190.186,233.850 190.149 C 234.757 190.112,234.015 190.081,232.200 190.081 C 230.385 190.081,229.643 190.112,230.550 190.149 M239.350 190.141 C 239.597 190.189,240.003 190.189,240.250 190.141 C 240.498 190.093,240.295 190.054,239.800 190.054 C 239.305 190.054,239.103 190.093,239.350 190.141 M192.352 190.341 C 192.601 190.389,192.961 190.387,193.152 190.337 C 193.344 190.287,193.140 190.248,192.700 190.250 C 192.260 190.253,192.104 190.294,192.352 190.341 M193.950 190.341 C 194.197 190.389,194.603 190.389,194.850 190.341 C 195.097 190.293,194.895 190.254,194.400 190.254 C 193.905 190.254,193.703 190.293,193.950 190.341 M195.752 190.341 C 196.001 190.389,196.361 190.387,196.552 190.337 C 196.744 190.287,196.540 190.248,196.100 190.250 C 195.660 190.253,195.504 190.294,195.752 190.341 M197.352 190.341 C 197.601 190.389,197.961 190.387,198.152 190.337 C 198.344 190.287,198.140 190.248,197.700 190.250 C 197.260 190.253,197.104 190.294,197.352 190.341 M198.950 190.341 C 199.197 190.389,199.603 190.389,199.850 190.341 C 200.097 190.293,199.895 190.254,199.400 190.254 C 198.905 190.254,198.703 190.293,198.950 190.341 M200.752 190.341 C 201.001 190.389,201.361 190.387,201.552 190.337 C 201.744 190.287,201.540 190.248,201.100 190.250 C 200.660 190.253,200.504 190.294,200.752 190.341 M205.350 190.349 C 206.257 190.386,207.743 190.386,208.650 190.349 C 209.558 190.312,208.815 190.281,207.000 190.281 C 205.185 190.281,204.442 190.312,205.350 190.349 M214.150 190.341 C 214.398 190.389,214.803 190.389,215.050 190.341 C 215.298 190.293,215.095 190.254,214.600 190.254 C 214.105 190.254,213.903 190.293,214.150 190.341 M182.350 190.545 C 182.708 190.589,183.293 190.589,183.650 190.545 C 184.008 190.500,183.715 190.464,183.000 190.464 C 182.285 190.464,181.993 190.500,182.350 190.545 M188.152 190.541 C 188.401 190.589,188.761 190.587,188.952 190.537 C 189.144 190.487,188.940 190.448,188.500 190.450 C 188.060 190.453,187.904 190.494,188.152 190.541 M155.154 190.745 C 155.513 190.789,156.053 190.789,156.354 190.743 C 156.654 190.697,156.360 190.661,155.700 190.662 C 155.040 190.663,154.794 190.700,155.154 190.745 M158.050 190.748 C 158.683 190.787,159.718 190.787,160.350 190.748 C 160.983 190.708,160.465 190.676,159.200 190.676 C 157.935 190.676,157.418 190.708,158.050 190.748 M121.154 190.945 C 121.513 190.989,122.053 190.989,122.354 190.943 C 122.654 190.897,122.360 190.861,121.700 190.862 C 121.040 190.863,120.794 190.900,121.154 190.945 M123.554 190.945 C 123.913 190.989,124.453 190.989,124.754 190.943 C 125.054 190.897,124.760 190.861,124.100 190.862 C 123.440 190.863,123.194 190.900,123.554 190.945 M125.954 190.945 C 126.313 190.989,126.853 190.989,127.154 190.943 C 127.454 190.897,127.160 190.861,126.500 190.862 C 125.840 190.863,125.594 190.900,125.954 190.945 M128.250 190.943 C 128.553 190.989,129.047 190.989,129.350 190.943 C 129.653 190.897,129.405 190.860,128.800 190.860 C 128.195 190.860,127.947 190.897,128.250 190.943 M130.554 190.945 C 130.913 190.989,131.453 190.989,131.754 190.943 C 132.054 190.897,131.760 190.861,131.100 190.862 C 130.440 190.863,130.194 190.900,130.554 190.945 M132.954 190.945 C 133.313 190.989,133.853 190.989,134.154 190.943 C 134.454 190.897,134.160 190.861,133.500 190.862 C 132.840 190.863,132.594 190.900,132.954 190.945 M139.250 190.949 C 140.542 190.984,142.657 190.984,143.950 190.949 C 145.243 190.915,144.185 190.886,141.600 190.886 C 139.015 190.886,137.958 190.915,139.250 190.949 M151.754 190.945 C 152.113 190.989,152.653 190.989,152.954 190.943 C 153.254 190.897,152.960 190.861,152.300 190.862 C 151.640 190.863,151.394 190.900,151.754 190.945 M86.154 191.145 C 86.513 191.189,87.053 191.189,87.354 191.143 C 87.654 191.097,87.360 191.061,86.700 191.062 C 86.040 191.063,85.794 191.100,86.154 191.145 M88.450 191.143 C 88.752 191.189,89.248 191.189,89.550 191.143 C 89.853 191.097,89.605 191.060,89.000 191.060 C 88.395 191.060,88.148 191.097,88.450 191.143 M90.754 191.145 C 91.113 191.189,91.653 191.189,91.954 191.143 C 92.254 191.097,91.960 191.061,91.300 191.062 C 90.640 191.063,90.394 191.100,90.754 191.145 M93.154 191.145 C 93.513 191.189,94.053 191.189,94.354 191.143 C 94.654 191.097,94.360 191.061,93.700 191.062 C 93.040 191.063,92.794 191.100,93.154 191.145 M95.450 191.143 C 95.752 191.189,96.248 191.189,96.550 191.143 C 96.853 191.097,96.605 191.060,96.000 191.060 C 95.395 191.060,95.148 191.097,95.450 191.143 M97.754 191.145 C 98.113 191.189,98.653 191.189,98.954 191.143 C 99.254 191.097,98.960 191.061,98.300 191.062 C 97.640 191.063,97.394 191.100,97.754 191.145 M104.250 191.149 C 105.543 191.184,107.658 191.184,108.950 191.149 C 110.243 191.115,109.185 191.086,106.600 191.086 C 104.015 191.086,102.958 191.115,104.250 191.149 M116.554 191.145 C 116.913 191.189,117.453 191.189,117.754 191.143 C 118.054 191.097,117.760 191.061,117.100 191.062 C 116.440 191.063,116.194 191.100,116.554 191.145 M50.954 191.345 C 51.313 191.389,51.853 191.389,52.154 191.343 C 52.454 191.297,52.160 191.261,51.500 191.262 C 50.840 191.263,50.594 191.300,50.954 191.345 M53.354 191.345 C 53.713 191.389,54.253 191.389,54.554 191.343 C 54.854 191.297,54.560 191.261,53.900 191.262 C 53.240 191.263,52.994 191.300,53.354 191.345 M55.650 191.343 C 55.953 191.389,56.448 191.389,56.750 191.343 C 57.053 191.297,56.805 191.260,56.200 191.260 C 55.595 191.260,55.348 191.297,55.650 191.343 M57.954 191.345 C 58.313 191.389,58.853 191.389,59.154 191.343 C 59.454 191.297,59.160 191.261,58.500 191.262 C 57.840 191.263,57.594 191.300,57.954 191.345 M60.354 191.345 C 60.713 191.389,61.253 191.389,61.554 191.343 C 61.854 191.297,61.560 191.261,60.900 191.262 C 60.240 191.263,59.994 191.300,60.354 191.345 M62.754 191.345 C 63.113 191.389,63.653 191.389,63.954 191.343 C 64.254 191.297,63.960 191.261,63.300 191.262 C 62.640 191.263,62.394 191.300,62.754 191.345 M69.050 191.349 C 70.343 191.384,72.458 191.384,73.750 191.349 C 75.043 191.315,73.985 191.286,71.400 191.286 C 68.815 191.286,67.758 191.315,69.050 191.349 M81.354 191.345 C 81.713 191.389,82.253 191.389,82.554 191.343 C 82.854 191.297,82.560 191.261,81.900 191.262 C 81.240 191.263,80.994 191.300,81.354 191.345 M15.850 191.543 C 16.152 191.589,16.648 191.589,16.950 191.543 C 17.253 191.497,17.005 191.460,16.400 191.460 C 15.795 191.460,15.547 191.497,15.850 191.543 M18.154 191.545 C 18.513 191.589,19.053 191.589,19.354 191.543 C 19.654 191.497,19.360 191.461,18.700 191.462 C 18.040 191.463,17.794 191.500,18.154 191.545 M20.554 191.545 C 20.913 191.589,21.453 191.589,21.754 191.543 C 22.054 191.497,21.760 191.461,21.100 191.462 C 20.440 191.463,20.194 191.500,20.554 191.545 M22.954 191.545 C 23.313 191.589,23.853 191.589,24.154 191.543 C 24.454 191.497,24.160 191.461,23.500 191.462 C 22.840 191.463,22.594 191.500,22.954 191.545 M25.250 191.543 C 25.553 191.589,26.048 191.589,26.350 191.543 C 26.652 191.497,26.405 191.460,25.800 191.460 C 25.195 191.460,24.948 191.497,25.250 191.543 M27.554 191.545 C 27.913 191.589,28.453 191.589,28.754 191.543 C 29.054 191.497,28.760 191.461,28.100 191.462 C 27.440 191.463,27.194 191.500,27.554 191.545 M34.061 191.549 C 35.360 191.584,37.430 191.584,38.661 191.549 C 39.893 191.514,38.830 191.486,36.300 191.486 C 33.770 191.486,32.763 191.515,34.061 191.549 M46.350 191.545 C 46.708 191.589,47.293 191.589,47.650 191.545 C 48.008 191.500,47.715 191.464,47.000 191.464 C 46.285 191.464,45.993 191.500,46.350 191.545 M0.650 191.743 C 0.953 191.789,1.448 191.789,1.750 191.743 C 2.053 191.697,1.805 191.660,1.200 191.660 C 0.595 191.660,0.348 191.697,0.650 191.743 M2.954 191.745 C 3.313 191.789,3.853 191.789,4.154 191.743 C 4.454 191.697,4.160 191.661,3.500 191.662 C 2.840 191.663,2.594 191.700,2.954 191.745 M9.954 191.745 C 10.313 191.789,10.853 191.789,11.154 191.743 C 11.454 191.697,11.160 191.661,10.500 191.662 C 9.840 191.663,9.594 191.700,9.954 191.745 M0.048 219.950 L 0.097 232.300 0.150 220.061 L 0.203 207.822 1.152 207.747 L 2.100 207.672 1.050 207.636 L 0.000 207.600 0.048 219.950 M2.650 207.743 C 2.953 207.789,3.448 207.789,3.750 207.743 C 4.053 207.697,3.805 207.660,3.200 207.660 C 2.595 207.660,2.348 207.697,2.650 207.743 M8.750 207.745 C 9.107 207.789,9.693 207.789,10.050 207.745 C 10.408 207.700,10.115 207.664,9.400 207.664 C 8.685 207.664,8.393 207.700,8.750 207.745 M14.053 207.944 C 14.357 207.989,14.807 207.988,15.053 207.941 C 15.299 207.893,15.050 207.856,14.500 207.857 C 13.950 207.859,13.749 207.898,14.053 207.944 M16.050 207.943 C 16.353 207.989,16.848 207.989,17.150 207.943 C 17.453 207.897,17.205 207.860,16.600 207.860 C 15.995 207.860,15.748 207.897,16.050 207.943 M18.253 207.944 C 18.557 207.989,19.007 207.988,19.253 207.941 C 19.499 207.893,19.250 207.856,18.700 207.857 C 18.150 207.859,17.949 207.898,18.253 207.944 M20.253 207.944 C 20.557 207.989,21.007 207.988,21.253 207.941 C 21.499 207.893,21.250 207.856,20.700 207.857 C 20.150 207.859,19.949 207.898,20.253 207.944 M22.253 207.944 C 22.557 207.989,23.007 207.988,23.253 207.941 C 23.499 207.893,23.250 207.856,22.700 207.857 C 22.150 207.859,21.949 207.898,22.253 207.944 M24.250 207.943 C 24.553 207.989,25.047 207.989,25.350 207.943 C 25.652 207.897,25.405 207.860,24.800 207.860 C 24.195 207.860,23.948 207.897,24.250 207.943 M29.950 207.949 C 31.078 207.985,32.923 207.985,34.050 207.949 C 35.178 207.914,34.255 207.884,32.000 207.884 C 29.745 207.884,28.823 207.914,29.950 207.949 M40.850 207.943 C 41.153 207.989,41.648 207.989,41.950 207.943 C 42.252 207.897,42.005 207.860,41.400 207.860 C 40.795 207.860,40.548 207.897,40.850 207.943 M44.853 208.144 C 45.157 208.189,45.607 208.188,45.853 208.141 C 46.099 208.093,45.850 208.056,45.300 208.057 C 44.750 208.059,44.549 208.098,44.853 208.144 M46.850 208.143 C 47.153 208.189,47.648 208.189,47.950 208.143 C 48.252 208.097,48.005 208.060,47.400 208.060 C 46.795 208.060,46.548 208.097,46.850 208.143 M49.053 208.144 C 49.357 208.189,49.807 208.188,50.053 208.141 C 50.299 208.093,50.050 208.056,49.500 208.057 C 48.950 208.059,48.749 208.098,49.053 208.144 M51.053 208.144 C 51.357 208.189,51.807 208.188,52.053 208.141 C 52.299 208.093,52.050 208.056,51.500 208.057 C 50.950 208.059,50.749 208.098,51.053 208.144 M53.050 208.143 C 53.352 208.189,53.848 208.189,54.150 208.143 C 54.453 208.097,54.205 208.060,53.600 208.060 C 52.995 208.060,52.748 208.097,53.050 208.143 M55.253 208.144 C 55.557 208.189,56.007 208.188,56.253 208.141 C 56.499 208.093,56.250 208.056,55.700 208.057 C 55.150 208.059,54.949 208.098,55.253 208.144 M60.750 208.149 C 61.877 208.185,63.723 208.185,64.850 208.149 C 65.978 208.114,65.055 208.084,62.800 208.084 C 60.545 208.084,59.623 208.114,60.750 208.149 M71.650 208.143 C 71.953 208.189,72.448 208.189,72.750 208.143 C 73.052 208.097,72.805 208.060,72.200 208.060 C 71.595 208.060,71.348 208.097,71.650 208.143 M75.650 208.343 C 75.953 208.389,76.448 208.389,76.750 208.343 C 77.053 208.297,76.805 208.260,76.200 208.260 C 75.595 208.260,75.348 208.297,75.650 208.343 M77.853 208.344 C 78.157 208.389,78.607 208.388,78.853 208.341 C 79.099 208.293,78.850 208.256,78.300 208.257 C 77.750 208.259,77.549 208.298,77.853 208.344 M79.853 208.344 C 80.157 208.389,80.607 208.388,80.853 208.341 C 81.099 208.293,80.850 208.256,80.300 208.257 C 79.750 208.259,79.549 208.298,79.853 208.344 M81.853 208.344 C 82.157 208.389,82.607 208.388,82.853 208.341 C 83.099 208.293,82.850 208.256,82.300 208.257 C 81.750 208.259,81.549 208.298,81.853 208.344 M83.850 208.343 C 84.153 208.389,84.648 208.389,84.950 208.343 C 85.252 208.297,85.005 208.260,84.400 208.260 C 83.795 208.260,83.548 208.297,83.850 208.343 M86.053 208.344 C 86.357 208.389,86.807 208.388,87.053 208.341 C 87.299 208.293,87.050 208.256,86.500 208.257 C 85.950 208.259,85.749 208.298,86.053 208.344 M91.550 208.349 C 92.678 208.385,94.523 208.385,95.650 208.349 C 96.778 208.314,95.855 208.284,93.600 208.284 C 91.345 208.284,90.423 208.314,91.550 208.349 M102.450 208.343 C 102.753 208.389,103.248 208.389,103.550 208.343 C 103.853 208.297,103.605 208.260,103.000 208.260 C 102.395 208.260,102.148 208.297,102.450 208.343 M106.653 208.544 C 106.957 208.589,107.407 208.588,107.653 208.541 C 107.899 208.493,107.650 208.456,107.100 208.457 C 106.550 208.459,106.349 208.498,106.653 208.544 M108.653 208.544 C 108.957 208.589,109.407 208.588,109.653 208.541 C 109.899 208.493,109.650 208.456,109.100 208.457 C 108.550 208.459,108.349 208.498,108.653 208.544 M110.653 208.544 C 110.957 208.589,111.407 208.588,111.653 208.541 C 111.899 208.493,111.650 208.456,111.100 208.457 C 110.550 208.459,110.349 208.498,110.653 208.544 M112.650 208.543 C 112.953 208.589,113.447 208.589,113.750 208.543 C 114.053 208.497,113.805 208.460,113.200 208.460 C 112.595 208.460,112.347 208.497,112.650 208.543 M114.853 208.544 C 115.157 208.589,115.607 208.588,115.853 208.541 C 116.099 208.493,115.850 208.456,115.300 208.457 C 114.750 208.459,114.549 208.498,114.853 208.544 M116.853 208.544 C 117.157 208.589,117.607 208.588,117.853 208.541 C 118.099 208.493,117.850 208.456,117.300 208.457 C 116.750 208.459,116.549 208.498,116.853 208.544 M122.550 208.549 C 123.678 208.585,125.522 208.585,126.650 208.549 C 127.778 208.514,126.855 208.484,124.600 208.484 C 122.345 208.484,121.422 208.514,122.550 208.549 M133.253 208.544 C 133.557 208.589,134.007 208.588,134.253 208.541 C 134.499 208.493,134.250 208.456,133.700 208.457 C 133.150 208.459,132.949 208.498,133.253 208.544 M136.453 208.744 C 136.757 208.789,137.207 208.788,137.453 208.741 C 137.699 208.693,137.450 208.656,136.900 208.657 C 136.350 208.659,136.149 208.698,136.453 208.744 M138.453 208.744 C 138.757 208.789,139.207 208.788,139.453 208.741 C 139.699 208.693,139.450 208.656,138.900 208.657 C 138.350 208.659,138.149 208.698,138.453 208.744 M140.453 208.744 C 140.757 208.789,141.207 208.788,141.453 208.741 C 141.699 208.693,141.450 208.656,140.900 208.657 C 140.350 208.659,140.149 208.698,140.453 208.744 M142.450 208.743 C 142.753 208.789,143.248 208.789,143.550 208.743 C 143.853 208.697,143.605 208.660,143.000 208.660 C 142.395 208.660,142.148 208.697,142.450 208.743 M144.653 208.744 C 144.957 208.789,145.407 208.788,145.653 208.741 C 145.899 208.693,145.650 208.656,145.100 208.657 C 144.550 208.659,144.349 208.698,144.653 208.744 M146.653 208.744 C 146.957 208.789,147.407 208.788,147.653 208.741 C 147.899 208.693,147.650 208.656,147.100 208.657 C 146.550 208.659,146.349 208.698,146.653 208.744 M150.650 208.743 C 150.953 208.789,151.447 208.789,151.750 208.743 C 152.053 208.697,151.805 208.660,151.200 208.660 C 150.595 208.660,150.347 208.697,150.650 208.743 M152.853 208.744 C 153.157 208.789,153.607 208.788,153.853 208.741 C 154.099 208.693,153.850 208.656,153.300 208.657 C 152.750 208.659,152.549 208.698,152.853 208.744 M154.853 208.744 C 155.157 208.789,155.607 208.788,155.853 208.741 C 156.099 208.693,155.850 208.656,155.300 208.657 C 154.750 208.659,154.549 208.698,154.853 208.744 M156.954 208.745 C 157.313 208.789,157.853 208.789,158.154 208.743 C 158.454 208.697,158.160 208.661,157.500 208.662 C 156.840 208.663,156.594 208.700,156.954 208.745 M162.060 210.600 C 162.060 211.205,162.097 211.453,162.143 211.150 C 162.189 210.847,162.189 210.353,162.143 210.050 C 162.097 209.748,162.060 209.995,162.060 210.600 M184.461 209.949 C 185.649 209.985,187.539 209.985,188.661 209.949 C 189.782 209.913,188.810 209.884,186.500 209.885 C 184.190 209.885,183.272 209.914,184.461 209.949 M194.750 209.950 C 196.978 209.982,200.623 209.982,202.850 209.950 C 205.078 209.918,203.255 209.891,198.800 209.891 C 194.345 209.891,192.523 209.918,194.750 209.950 M208.950 209.949 C 210.078 209.985,211.923 209.985,213.050 209.949 C 214.178 209.914,213.255 209.884,211.000 209.884 C 208.745 209.884,207.822 209.914,208.950 209.949 M233.550 209.949 C 234.678 209.985,236.523 209.985,237.650 209.949 C 238.778 209.914,237.855 209.884,235.600 209.884 C 233.345 209.884,232.423 209.914,233.550 209.949 M253.950 210.149 C 255.078 210.185,256.923 210.185,258.050 210.149 C 259.178 210.114,258.255 210.084,256.000 210.084 C 253.745 210.084,252.822 210.114,253.950 210.149 M262.150 210.149 C 263.278 210.185,265.123 210.185,266.250 210.149 C 267.377 210.114,266.455 210.084,264.200 210.084 C 261.945 210.084,261.022 210.114,262.150 210.149 M270.350 210.149 C 271.478 210.185,273.322 210.185,274.450 210.149 C 275.578 210.114,274.655 210.084,272.400 210.084 C 270.145 210.084,269.223 210.114,270.350 210.149 M278.561 210.149 C 279.694 210.185,281.494 210.185,282.561 210.149 C 283.627 210.113,282.700 210.084,280.500 210.084 C 278.300 210.084,277.427 210.114,278.561 210.149 M286.550 210.149 C 287.678 210.185,289.522 210.185,290.650 210.149 C 291.778 210.114,290.855 210.084,288.600 210.084 C 286.345 210.084,285.423 210.114,286.550 210.149 M294.750 210.149 C 295.877 210.185,297.723 210.185,298.850 210.149 C 299.978 210.114,299.055 210.084,296.800 210.084 C 294.545 210.084,293.623 210.114,294.750 210.149 M317.250 210.150 C 321.733 210.180,329.068 210.180,333.550 210.150 C 338.033 210.120,334.365 210.095,325.400 210.095 C 316.435 210.095,312.768 210.120,317.250 210.150 M360.150 210.149 C 361.278 210.185,363.123 210.185,364.250 210.149 C 365.378 210.114,364.455 210.084,362.200 210.084 C 359.945 210.084,359.023 210.114,360.150 210.149 M372.350 210.349 C 373.478 210.385,375.322 210.385,376.450 210.349 C 377.578 210.314,376.655 210.284,374.400 210.284 C 372.145 210.284,371.223 210.314,372.350 210.349 M383.164 210.350 C 385.729 210.382,389.869 210.381,392.364 210.350 C 394.859 210.318,392.760 210.292,387.700 210.292 C 382.640 210.292,380.599 210.318,383.164 210.350 M181.446 219.800 C 181.446 220.185,181.488 220.343,181.538 220.150 C 181.588 219.957,181.588 219.643,181.538 219.450 C 181.488 219.257,181.446 219.415,181.446 219.800 M162.077 223.800 C 162.077 225.175,162.109 225.738,162.148 225.050 C 162.187 224.363,162.187 223.238,162.148 222.550 C 162.109 221.863,162.077 222.425,162.077 223.800 M396.869 223.500 C 396.869 224.380,396.904 224.715,396.947 224.245 C 396.989 223.774,396.988 223.054,396.945 222.645 C 396.902 222.235,396.868 222.620,396.869 223.500 M181.454 226.200 C 181.454 226.695,181.493 226.898,181.541 226.650 C 181.589 226.403,181.589 225.998,181.541 225.750 C 181.493 225.503,181.454 225.705,181.454 226.200 M396.893 244.100 C 396.893 249.820,396.919 252.131,396.950 249.236 C 396.981 246.341,396.981 241.661,396.950 238.836 C 396.919 236.011,396.893 238.380,396.893 244.100 M162.078 240.300 C 162.078 241.730,162.110 242.289,162.148 241.542 C 162.187 240.795,162.187 239.625,162.148 238.942 C 162.109 238.259,162.077 238.870,162.078 240.300 M162.069 255.900 C 162.069 256.780,162.104 257.115,162.147 256.645 C 162.189 256.174,162.188 255.454,162.145 255.045 C 162.102 254.635,162.068 255.020,162.069 255.900 M0.089 263.000 C 0.089 266.465,0.116 267.882,0.150 266.150 C 0.183 264.418,0.183 261.582,0.150 259.850 C 0.116 258.118,0.089 259.535,0.089 263.000 M162.057 271.900 C 162.059 272.450,162.098 272.651,162.144 272.347 C 162.189 272.043,162.188 271.593,162.141 271.347 C 162.093 271.101,162.056 271.350,162.057 271.900 M181.646 276.800 C 181.646 277.185,181.688 277.343,181.738 277.150 C 181.788 276.957,181.788 276.643,181.738 276.450 C 181.688 276.257,181.646 276.415,181.646 276.800 M396.894 289.600 C 396.894 296.145,396.919 298.822,396.950 295.550 C 396.981 292.278,396.981 286.923,396.950 283.650 C 396.919 280.377,396.894 283.055,396.894 289.600 M181.660 283.400 C 181.660 284.005,181.697 284.252,181.743 283.950 C 181.789 283.647,181.789 283.153,181.743 282.850 C 181.697 282.548,181.660 282.795,181.660 283.400 M181.660 290.400 C 181.660 291.005,181.697 291.252,181.743 290.950 C 181.789 290.647,181.789 290.153,181.743 289.850 C 181.697 289.548,181.660 289.795,181.660 290.400 M181.654 297.600 C 181.654 298.095,181.693 298.298,181.741 298.050 C 181.789 297.803,181.789 297.397,181.741 297.150 C 181.693 296.903,181.654 297.105,181.654 297.600 M181.669 303.900 C 181.669 304.780,181.704 305.115,181.747 304.645 C 181.789 304.174,181.788 303.454,181.745 303.045 C 181.702 302.635,181.668 303.020,181.669 303.900 M162.260 305.200 C 162.260 305.805,162.297 306.053,162.343 305.750 C 162.389 305.447,162.389 304.953,162.343 304.650 C 162.297 304.348,162.260 304.595,162.260 305.200 M181.670 310.200 C 181.670 311.135,181.704 311.518,181.746 311.050 C 181.789 310.582,181.789 309.818,181.746 309.350 C 181.704 308.882,181.670 309.265,181.670 310.200 M181.646 324.600 C 181.646 324.985,181.688 325.143,181.738 324.950 C 181.788 324.757,181.788 324.443,181.738 324.250 C 181.688 324.058,181.646 324.215,181.646 324.600 M181.657 330.900 C 181.659 331.450,181.698 331.651,181.744 331.347 C 181.789 331.043,181.788 330.593,181.741 330.347 C 181.693 330.101,181.656 330.350,181.657 330.900 M396.869 334.900 C 396.869 335.780,396.904 336.115,396.947 335.645 C 396.989 335.174,396.988 334.454,396.945 334.045 C 396.902 333.635,396.868 334.020,396.869 334.900 M162.260 340.200 C 162.260 340.805,162.297 341.053,162.343 340.750 C 162.389 340.447,162.389 339.953,162.343 339.650 C 162.297 339.348,162.260 339.595,162.260 340.200 M396.867 340.800 C 396.867 341.625,396.903 341.963,396.946 341.550 C 396.989 341.138,396.989 340.463,396.946 340.050 C 396.903 339.638,396.867 339.975,396.867 340.800 M2.800 343.477 C 2.800 343.520,3.065 343.594,3.389 343.641 C 3.714 343.689,3.933 343.654,3.878 343.564 C 3.779 343.403,2.800 343.325,2.800 343.477 M396.869 346.700 C 396.869 347.580,396.904 347.915,396.947 347.445 C 396.989 346.974,396.988 346.254,396.945 345.845 C 396.902 345.435,396.868 345.820,396.869 346.700 M18.800 345.677 C 18.800 345.720,19.065 345.794,19.389 345.841 C 19.714 345.889,19.933 345.854,19.878 345.764 C 19.779 345.603,18.800 345.525,18.800 345.677 M34.800 347.877 C 34.800 347.920,35.065 347.994,35.389 348.041 C 35.714 348.089,35.933 348.054,35.878 347.964 C 35.779 347.803,34.800 347.725,34.800 347.877 M46.400 349.477 C 46.400 349.520,46.665 349.594,46.989 349.641 C 47.314 349.689,47.533 349.654,47.478 349.564 C 47.379 349.403,46.400 349.325,46.400 349.477 M50.800 350.077 C 50.800 350.120,51.065 350.194,51.389 350.241 C 51.714 350.289,51.933 350.254,51.878 350.164 C 51.779 350.003,50.800 349.925,50.800 350.077 M396.880 354.000 C 396.880 355.705,396.911 356.403,396.949 355.550 C 396.986 354.697,396.986 353.303,396.949 352.450 C 396.911 351.598,396.880 352.295,396.880 354.000 M62.400 351.677 C 62.400 351.720,62.665 351.794,62.989 351.841 C 63.314 351.889,63.533 351.854,63.478 351.764 C 63.379 351.603,62.400 351.525,62.400 351.677 M66.800 352.277 C 66.800 352.320,67.065 352.394,67.389 352.441 C 67.714 352.489,67.933 352.454,67.878 352.364 C 67.779 352.203,66.800 352.125,66.800 352.277 M71.200 352.877 C 71.200 352.920,71.465 352.994,71.789 353.041 C 72.114 353.089,72.333 353.054,72.278 352.964 C 72.179 352.803,71.200 352.725,71.200 352.877 M78.400 353.877 C 78.400 353.920,78.665 353.994,78.989 354.041 C 79.314 354.089,79.533 354.054,79.478 353.964 C 79.379 353.803,78.400 353.725,78.400 353.877 M162.260 354.800 C 162.260 355.405,162.297 355.653,162.343 355.350 C 162.389 355.048,162.389 354.553,162.343 354.250 C 162.297 353.947,162.260 354.195,162.260 354.800 M82.800 354.477 C 82.800 354.520,83.065 354.594,83.389 354.641 C 83.714 354.689,83.933 354.654,83.878 354.564 C 83.779 354.403,82.800 354.325,82.800 354.477 M87.200 355.077 C 87.200 355.120,87.465 355.194,87.789 355.241 C 88.114 355.289,88.333 355.254,88.278 355.164 C 88.179 355.003,87.200 354.925,87.200 355.077 M94.400 356.077 C 94.400 356.120,94.665 356.194,94.989 356.241 C 95.314 356.289,95.533 356.254,95.478 356.164 C 95.379 356.003,94.400 355.925,94.400 356.077 M98.800 356.677 C 98.800 356.720,99.065 356.794,99.389 356.841 C 99.714 356.889,99.933 356.854,99.878 356.764 C 99.779 356.603,98.800 356.525,98.800 356.677 M103.200 357.277 C 103.200 357.320,103.465 357.394,103.789 357.441 C 104.114 357.489,104.333 357.454,104.278 357.364 C 104.179 357.203,103.200 357.125,103.200 357.277 M110.400 358.277 C 110.400 358.320,110.665 358.394,110.989 358.441 C 111.314 358.489,111.533 358.454,111.478 358.364 C 111.379 358.203,110.400 358.125,110.400 358.277 M114.800 358.877 C 114.800 358.920,115.065 358.994,115.389 359.041 C 115.714 359.089,115.933 359.054,115.878 358.964 C 115.779 358.803,114.800 358.725,114.800 358.877 M125.000 360.277 C 125.000 360.320,125.265 360.394,125.589 360.441 C 125.914 360.489,126.133 360.454,126.078 360.364 C 125.979 360.203,125.000 360.125,125.000 360.277 M130.800 361.077 C 130.800 361.120,131.065 361.194,131.389 361.241 C 131.714 361.289,131.933 361.254,131.878 361.164 C 131.779 361.003,130.800 360.925,130.800 361.077 M141.000 362.477 C 141.000 362.520,141.265 362.594,141.589 362.641 C 141.914 362.689,142.133 362.654,142.078 362.564 C 141.979 362.403,141.000 362.325,141.000 362.477 M146.800 363.277 C 146.800 363.320,147.065 363.394,147.389 363.441 C 147.714 363.489,147.933 363.454,147.878 363.364 C 147.779 363.203,146.800 363.125,146.800 363.277 M157.000 364.677 C 157.000 364.720,157.265 364.794,157.589 364.841 C 157.914 364.889,158.133 364.854,158.078 364.764 C 157.979 364.603,157.000 364.525,157.000 364.677 M182.200 367.877 C 182.200 367.920,182.465 367.994,182.789 368.041 C 183.114 368.089,183.333 368.054,183.278 367.964 C 183.179 367.803,182.200 367.725,182.200 367.877 M185.000 368.277 C 185.000 368.320,185.265 368.394,185.589 368.441 C 185.914 368.489,186.133 368.454,186.078 368.364 C 185.979 368.203,185.000 368.125,185.000 368.277 M199.200 370.277 C 199.200 370.320,199.465 370.394,199.789 370.441 C 200.114 370.489,200.333 370.454,200.278 370.364 C 200.179 370.203,199.200 370.125,199.200 370.277 M202.000 370.677 C 202.000 370.720,202.265 370.794,202.589 370.841 C 202.914 370.889,203.133 370.854,203.078 370.764 C 202.979 370.603,202.000 370.525,202.000 370.677 M214.800 372.477 C 214.800 372.520,215.065 372.594,215.389 372.641 C 215.714 372.689,215.933 372.654,215.878 372.564 C 215.779 372.403,214.800 372.325,214.800 372.477 M217.600 372.877 C 217.600 372.920,217.865 372.994,218.189 373.041 C 218.514 373.089,218.733 373.054,218.678 372.964 C 218.579 372.803,217.600 372.725,217.600 372.877 M219.000 373.077 C 219.000 373.120,219.265 373.194,219.589 373.241 C 219.914 373.289,220.133 373.254,220.078 373.164 C 219.979 373.003,219.000 372.925,219.000 373.077 M234.600 375.277 C 234.600 375.320,234.865 375.394,235.189 375.441 C 235.514 375.489,235.733 375.454,235.678 375.364 C 235.579 375.203,234.600 375.125,234.600 375.277 M236.000 375.477 C 236.000 375.520,236.265 375.594,236.589 375.641 C 236.914 375.689,237.133 375.654,237.078 375.564 C 236.979 375.403,236.000 375.325,236.000 375.477 M248.800 377.277 C 248.800 377.320,249.065 377.394,249.389 377.441 C 249.714 377.489,249.933 377.454,249.878 377.364 C 249.779 377.203,248.800 377.125,248.800 377.277 M251.600 377.677 C 251.600 377.720,251.865 377.794,252.189 377.841 C 252.514 377.889,252.733 377.854,252.678 377.764 C 252.579 377.603,251.600 377.525,251.600 377.677 M396.867 379.000 C 396.867 379.825,396.903 380.163,396.946 379.750 C 396.989 379.338,396.989 378.663,396.946 378.250 C 396.903 377.838,396.867 378.175,396.867 379.000 M265.800 379.677 C 265.800 379.720,266.065 379.794,266.389 379.841 C 266.714 379.889,266.933 379.854,266.878 379.764 C 266.779 379.603,265.800 379.525,265.800 379.677 M268.600 380.077 C 268.600 380.120,268.865 380.194,269.189 380.241 C 269.514 380.289,269.733 380.254,269.678 380.164 C 269.579 380.003,268.600 379.925,268.600 380.077 M281.400 381.877 C 281.400 381.920,281.665 381.994,281.989 382.041 C 282.314 382.089,282.533 382.054,282.478 381.964 C 282.379 381.803,281.400 381.725,281.400 381.877 M284.200 382.277 C 284.200 382.320,284.465 382.394,284.789 382.441 C 285.114 382.489,285.333 382.454,285.278 382.364 C 285.179 382.203,284.200 382.125,284.200 382.277 M285.600 382.477 C 285.600 382.520,285.865 382.594,286.189 382.641 C 286.514 382.689,286.733 382.654,286.678 382.564 C 286.579 382.403,285.600 382.325,285.600 382.477 M396.869 384.900 C 396.869 385.780,396.904 386.115,396.947 385.645 C 396.989 385.174,396.988 384.454,396.945 384.045 C 396.902 383.635,396.868 384.020,396.869 384.900 M301.200 384.677 C 301.200 384.720,301.465 384.794,301.789 384.841 C 302.114 384.889,302.333 384.854,302.278 384.764 C 302.179 384.603,301.200 384.525,301.200 384.677 M302.600 384.877 C 302.600 384.920,302.865 384.994,303.189 385.041 C 303.514 385.089,303.733 385.054,303.678 384.964 C 303.579 384.803,302.600 384.725,302.600 384.877 M318.200 387.077 C 318.200 387.120,318.465 387.194,318.789 387.241 C 319.114 387.289,319.333 387.254,319.278 387.164 C 319.179 387.003,318.200 386.925,318.200 387.077 M332.400 389.077 C 332.400 389.120,332.665 389.194,332.989 389.241 C 333.314 389.289,333.533 389.254,333.478 389.164 C 333.379 389.003,332.400 388.925,332.400 389.077 M396.800 393.640 C 396.745 396.138,396.769 398.111,396.854 398.026 C 396.939 397.941,396.984 395.898,396.954 393.486 L 396.899 389.100 396.800 393.640 M335.200 389.477 C 335.200 389.520,335.465 389.594,335.789 389.641 C 336.114 389.689,336.333 389.654,336.278 389.564 C 336.179 389.403,335.200 389.325,335.200 389.477 M348.000 391.277 C 348.000 391.320,348.265 391.394,348.589 391.441 C 348.914 391.489,349.133 391.454,349.078 391.364 C 348.979 391.203,348.000 391.125,348.000 391.277 M350.800 391.677 C 350.800 391.720,351.065 391.794,351.389 391.841 C 351.714 391.889,351.933 391.854,351.878 391.764 C 351.779 391.603,350.800 391.525,350.800 391.677 M352.200 391.877 C 352.200 391.920,352.465 391.994,352.789 392.041 C 353.114 392.089,353.333 392.054,353.278 391.964 C 353.179 391.803,352.200 391.725,352.200 391.877 M367.800 394.077 C 367.800 394.120,368.065 394.194,368.389 394.241 C 368.714 394.289,368.933 394.254,368.878 394.164 C 368.779 394.003,367.800 393.925,367.800 394.077 M369.200 394.277 C 369.200 394.320,369.465 394.394,369.789 394.441 C 370.114 394.489,370.333 394.454,370.278 394.364 C 370.179 394.203,369.200 394.125,369.200 394.277 M384.800 396.477 C 384.800 396.520,385.065 396.594,385.389 396.641 C 385.714 396.689,385.933 396.654,385.878 396.564 C 385.779 396.403,384.800 396.325,384.800 396.477 " stroke="none" fill="#0474d4" fill-rule="evenodd"></path><path id="path2" d="M162.287 43.000 C 162.287 45.915,162.315 47.108,162.349 45.650 C 162.384 44.193,162.384 41.808,162.349 40.350 C 162.315 38.893,162.287 40.085,162.287 43.000 M162.257 50.700 C 162.259 51.250,162.298 51.451,162.344 51.147 C 162.389 50.843,162.388 50.393,162.341 50.147 C 162.293 49.901,162.256 50.150,162.257 50.700 M162.257 59.300 C 162.259 59.850,162.298 60.051,162.344 59.747 C 162.389 59.443,162.388 58.993,162.341 58.747 C 162.293 58.501,162.256 58.750,162.257 59.300 M162.272 63.600 C 162.272 64.645,162.306 65.073,162.347 64.550 C 162.388 64.028,162.388 63.173,162.347 62.650 C 162.306 62.127,162.272 62.555,162.272 63.600 M162.257 67.900 C 162.259 68.450,162.298 68.651,162.344 68.347 C 162.389 68.043,162.388 67.593,162.341 67.347 C 162.293 67.101,162.256 67.350,162.257 67.900 M162.278 73.000 C 162.278 74.485,162.310 75.093,162.348 74.350 C 162.387 73.608,162.387 72.392,162.348 71.650 C 162.310 70.908,162.278 71.515,162.278 73.000 M162.254 78.200 C 162.254 78.695,162.293 78.898,162.341 78.650 C 162.389 78.403,162.389 77.998,162.341 77.750 C 162.293 77.502,162.254 77.705,162.254 78.200 M162.254 95.400 C 162.254 95.895,162.293 96.098,162.341 95.850 C 162.389 95.603,162.389 95.198,162.341 94.950 C 162.293 94.703,162.254 94.905,162.254 95.400 M162.254 104.000 C 162.254 104.495,162.293 104.697,162.341 104.450 C 162.389 104.203,162.389 103.797,162.341 103.550 C 162.293 103.303,162.254 103.505,162.254 104.000 M162.254 109.200 C 162.254 109.695,162.293 109.897,162.341 109.650 C 162.389 109.403,162.389 108.998,162.341 108.750 C 162.293 108.503,162.254 108.705,162.254 109.200 M162.257 114.300 C 162.259 114.850,162.298 115.051,162.344 114.747 C 162.389 114.443,162.388 113.993,162.341 113.747 C 162.293 113.501,162.256 113.750,162.257 114.300 M162.254 117.800 C 162.254 118.295,162.293 118.498,162.341 118.250 C 162.389 118.003,162.389 117.597,162.341 117.350 C 162.293 117.103,162.254 117.305,162.254 117.800 M162.254 126.400 C 162.254 126.895,162.293 127.097,162.341 126.850 C 162.389 126.603,162.389 126.197,162.341 125.950 C 162.293 125.703,162.254 125.905,162.254 126.400 M162.257 136.700 C 162.259 137.250,162.298 137.451,162.344 137.147 C 162.389 136.843,162.388 136.393,162.341 136.147 C 162.293 135.901,162.256 136.150,162.257 136.700 M162.254 147.000 C 162.254 147.495,162.293 147.697,162.341 147.450 C 162.389 147.203,162.389 146.797,162.341 146.550 C 162.293 146.303,162.254 146.505,162.254 147.000 M162.257 179.700 C 162.259 180.250,162.298 180.451,162.344 180.147 C 162.389 179.843,162.388 179.393,162.341 179.147 C 162.293 178.901,162.256 179.150,162.257 179.700 M388.950 188.941 C 389.197 188.989,389.603 188.989,389.850 188.941 C 390.098 188.893,389.895 188.854,389.400 188.854 C 388.905 188.854,388.703 188.893,388.950 188.941 M363.750 189.141 C 363.998 189.189,364.403 189.189,364.650 189.141 C 364.898 189.093,364.695 189.054,364.200 189.054 C 363.705 189.054,363.503 189.093,363.750 189.141 M338.550 189.341 C 338.798 189.389,339.203 189.389,339.450 189.341 C 339.697 189.293,339.495 189.254,339.000 189.254 C 338.505 189.254,338.303 189.293,338.550 189.341 M313.350 189.541 C 313.598 189.589,314.003 189.589,314.250 189.541 C 314.498 189.493,314.295 189.454,313.800 189.454 C 313.305 189.454,313.103 189.493,313.350 189.541 M288.150 189.741 C 288.397 189.789,288.803 189.789,289.050 189.741 C 289.298 189.693,289.095 189.654,288.600 189.654 C 288.105 189.654,287.903 189.693,288.150 189.741 M262.950 189.941 C 263.197 189.989,263.603 189.989,263.850 189.941 C 264.098 189.893,263.895 189.854,263.400 189.854 C 262.905 189.854,262.703 189.893,262.950 189.941 M237.750 190.141 C 237.998 190.189,238.403 190.189,238.650 190.141 C 238.898 190.093,238.695 190.054,238.200 190.054 C 237.705 190.054,237.503 190.093,237.750 190.141 M212.550 190.341 C 212.798 190.389,213.203 190.389,213.450 190.341 C 213.697 190.293,213.495 190.254,213.000 190.254 C 212.505 190.254,212.303 190.293,212.550 190.341 M186.453 190.544 C 186.757 190.589,187.207 190.588,187.453 190.541 C 187.699 190.493,187.450 190.456,186.900 190.457 C 186.350 190.459,186.149 190.498,186.453 190.544 M149.350 190.945 C 149.708 190.989,150.292 190.989,150.650 190.945 C 151.008 190.900,150.715 190.864,150.000 190.864 C 149.285 190.864,148.993 190.900,149.350 190.945 M114.150 191.145 C 114.508 191.189,115.093 191.189,115.450 191.145 C 115.808 191.100,115.515 191.064,114.800 191.064 C 114.085 191.064,113.793 191.100,114.150 191.145 M79.154 191.345 C 79.513 191.389,80.053 191.389,80.354 191.343 C 80.654 191.297,80.360 191.261,79.700 191.262 C 79.040 191.263,78.794 191.300,79.154 191.345 M43.950 191.545 C 44.308 191.589,44.893 191.589,45.250 191.545 C 45.608 191.500,45.315 191.464,44.600 191.464 C 43.885 191.464,43.593 191.500,43.950 191.545 M7.550 191.745 C 7.908 191.789,8.492 191.789,8.850 191.745 C 9.208 191.700,8.915 191.664,8.200 191.664 C 7.485 191.664,7.192 191.700,7.550 191.745 M6.853 207.744 C 7.157 207.789,7.607 207.788,7.853 207.741 C 8.099 207.693,7.850 207.656,7.300 207.657 C 6.750 207.659,6.549 207.698,6.853 207.744 M38.754 207.945 C 39.113 207.989,39.653 207.989,39.954 207.943 C 40.254 207.897,39.960 207.861,39.300 207.862 C 38.640 207.863,38.394 207.900,38.754 207.945 M69.650 208.143 C 69.953 208.189,70.448 208.189,70.750 208.143 C 71.052 208.097,70.805 208.060,70.200 208.060 C 69.595 208.060,69.348 208.097,69.650 208.143 M100.450 208.343 C 100.752 208.389,101.248 208.389,101.550 208.343 C 101.853 208.297,101.605 208.260,101.000 208.260 C 100.395 208.260,100.148 208.297,100.450 208.343 M131.250 208.543 C 131.553 208.589,132.047 208.589,132.350 208.543 C 132.653 208.497,132.405 208.460,131.800 208.460 C 131.195 208.460,130.947 208.497,131.250 208.543 M160.853 208.744 C 161.157 208.789,161.607 208.788,161.853 208.741 C 162.099 208.693,161.850 208.656,161.300 208.657 C 160.750 208.659,160.549 208.698,160.853 208.744 M225.461 209.949 C 226.649 209.985,228.539 209.985,229.661 209.949 C 230.782 209.913,229.810 209.884,227.500 209.885 C 225.190 209.885,224.272 209.914,225.461 209.949 M352.061 210.149 C 353.249 210.185,355.139 210.185,356.261 210.149 C 357.382 210.113,356.410 210.084,354.100 210.085 C 351.790 210.085,350.872 210.114,352.061 210.149 M181.446 247.200 C 181.446 247.585,181.488 247.743,181.538 247.550 C 181.588 247.357,181.588 247.043,181.538 246.850 C 181.488 246.657,181.446 246.815,181.446 247.200 M181.464 254.400 C 181.464 255.115,181.500 255.407,181.545 255.050 C 181.589 254.693,181.589 254.107,181.545 253.750 C 181.500 253.393,181.464 253.685,181.464 254.400 M181.454 258.000 C 181.454 258.495,181.493 258.697,181.541 258.450 C 181.589 258.203,181.589 257.798,181.541 257.550 C 181.493 257.303,181.454 257.505,181.454 258.000 M0.089 275.300 C 0.089 278.710,0.116 280.133,0.150 278.462 C 0.183 276.792,0.183 274.002,0.150 272.262 C 0.116 270.523,0.089 271.890,0.089 275.300 M162.260 296.400 C 162.260 297.005,162.297 297.252,162.343 296.950 C 162.389 296.647,162.389 296.153,162.343 295.850 C 162.297 295.548,162.260 295.795,162.260 296.400 M162.273 300.300 C 162.274 301.400,162.307 301.824,162.348 301.243 C 162.388 300.662,162.388 299.762,162.347 299.243 C 162.306 298.724,162.273 299.200,162.273 300.300 M162.280 309.100 C 162.280 310.750,162.311 311.398,162.349 310.541 C 162.386 309.683,162.386 308.333,162.348 307.541 C 162.310 306.748,162.280 307.450,162.280 309.100 M396.869 311.700 C 396.869 312.580,396.904 312.915,396.947 312.445 C 396.989 311.974,396.988 311.254,396.945 310.845 C 396.902 310.435,396.868 310.820,396.869 311.700 M162.260 320.800 C 162.260 321.405,162.297 321.653,162.343 321.350 C 162.389 321.048,162.389 320.553,162.343 320.250 C 162.297 319.947,162.260 320.195,162.260 320.800 M162.269 326.100 C 162.269 326.980,162.304 327.315,162.347 326.845 C 162.389 326.374,162.388 325.654,162.345 325.245 C 162.302 324.835,162.268 325.220,162.269 326.100 M396.867 332.000 C 396.867 332.825,396.903 333.163,396.946 332.750 C 396.989 332.338,396.989 331.663,396.946 331.250 C 396.903 330.838,396.867 331.175,396.867 332.000 M396.867 349.600 C 396.867 350.425,396.903 350.763,396.946 350.350 C 396.989 349.938,396.989 349.263,396.946 348.850 C 396.903 348.438,396.867 348.775,396.867 349.600 M181.646 352.000 C 181.646 352.385,181.688 352.543,181.738 352.350 C 181.788 352.158,181.788 351.843,181.738 351.650 C 181.688 351.457,181.646 351.615,181.646 352.000 M181.666 359.100 C 181.667 359.870,181.703 360.160,181.746 359.746 C 181.789 359.331,181.789 358.701,181.744 358.346 C 181.700 357.990,181.665 358.330,181.666 359.100 M181.654 362.800 C 181.654 363.295,181.693 363.498,181.741 363.250 C 181.789 363.003,181.789 362.598,181.741 362.350 C 181.693 362.103,181.654 362.305,181.654 362.800 M396.867 387.800 C 396.867 388.625,396.903 388.963,396.946 388.550 C 396.989 388.138,396.989 387.463,396.946 387.050 C 396.903 386.638,396.867 386.975,396.867 387.800 " stroke="none" fill="#047cdc" fill-rule="evenodd"></path></g></svg>