<svg id="svg" version="1.1" xmlns="http://www.w3.org/2000/svg" xmlns:xlink="http://www.w3.org/1999/xlink" width="400" height="400" viewBox="0, 0, 400,400"><g id="svgg"><path id="path0" d="M3.375 3.460 C 0.805 6.042,-0.035 7.136,0.063 7.769 C 0.175 8.487,0.857 7.953,4.486 4.309 C 8.185 0.593,8.641 0.000,7.798 0.000 C 7.087 0.000,5.879 0.945,3.375 3.460 M7.285 7.363 C 1.572 13.082,-0.040 14.915,0.063 15.575 C 0.172 16.276,1.625 14.993,8.395 8.212 C 15.220 1.377,16.431 0.000,15.618 0.000 C 14.870 0.000,12.913 1.729,7.285 7.363 M11.193 11.268 C 2.341 20.124,-0.042 22.718,0.063 23.385 C 0.171 24.080,2.393 22.035,12.302 12.117 C 22.252 2.159,24.235 0.000,23.433 0.000 C 22.674 0.000,19.945 2.512,11.193 11.268 M15.100 15.174 C 3.109 27.167,-0.042 30.525,0.063 31.197 C 0.171 31.889,3.162 29.077,16.209 16.023 C 29.284 2.941,32.044 -0.000,31.246 -0.000 C 30.482 -0.000,26.977 3.293,15.100 15.174 M19.006 19.080 C 3.879 34.210,-0.043 38.335,0.062 39.008 C 0.170 39.698,3.932 36.120,20.116 19.929 C 36.315 3.722,39.854 -0.000,39.060 -0.000 C 38.292 -0.000,34.009 4.075,19.006 19.080 M22.913 22.986 C 4.648 41.253,-0.043 46.146,0.062 46.821 C 0.170 47.509,4.701 43.163,24.022 23.835 C 43.347 4.504,47.665 0.000,46.873 0.000 C 46.102 0.000,41.040 4.856,22.913 22.986 M26.819 26.892 C 5.417 48.296,-0.043 53.957,0.062 54.633 C 0.170 55.320,5.470 50.206,27.929 27.741 C 50.378 5.285,55.476 0.000,54.685 0.000 C 53.914 0.000,48.071 5.638,26.819 26.892 M30.726 30.798 C 6.186 55.339,-0.043 61.768,0.062 62.445 C 0.170 63.132,6.239 57.249,31.835 31.647 C 57.410 6.067,63.288 0.000,62.498 0.000 C 61.725 0.000,55.103 6.419,30.726 30.798 M34.632 34.704 C 6.956 62.382,-0.044 69.580,0.062 70.257 C 0.170 70.944,7.009 64.292,35.741 35.553 C 64.441 6.848,71.099 0.000,70.311 0.000 C 69.537 0.000,62.134 7.200,34.632 34.704 M38.538 38.610 C 7.725 69.425,-0.044 77.392,0.062 78.070 C 0.170 78.756,7.778 71.335,39.648 39.459 C 71.472 7.629,78.911 0.000,78.124 0.000 C 77.349 0.000,69.166 7.982,38.538 38.610 M42.445 42.516 C 8.494 76.468,-0.044 85.204,0.062 85.882 C 0.170 86.568,8.547 78.378,43.554 43.366 C 78.503 8.411,86.723 0.000,85.936 0.000 C 85.161 -0.000,76.197 8.763,42.445 42.516 M46.351 46.423 C 9.264 83.511,-0.044 93.016,0.062 93.694 C 0.170 94.380,9.317 85.421,47.460 47.272 C 85.535 9.192,94.535 0.000,93.749 0.000 C 92.973 0.000,83.228 9.544,46.351 46.423 M50.257 50.329 C 10.033 90.554,-0.044 100.828,0.062 101.507 C 0.170 102.192,10.086 92.464,51.367 51.178 C 92.566 9.973,102.348 0.000,101.561 0.000 C 100.785 0.000,90.259 10.326,50.257 50.329 M54.163 54.235 C 10.802 97.597,-0.044 108.640,0.062 109.319 C 0.170 110.004,10.856 99.507,55.273 55.084 C 99.597 10.754,110.160 0.000,109.374 0.000 C 108.597 0.000,97.291 11.107,54.163 54.235 M58.070 58.141 C 11.572 104.640,-0.044 116.453,0.062 117.132 C 0.170 117.816,11.625 106.550,59.179 58.990 C 106.629 11.536,117.972 -0.000,117.187 -0.000 C 116.410 -0.000,104.322 11.888,58.070 58.141 M61.976 62.047 C 12.341 111.683,-0.044 124.265,0.062 124.944 C 0.170 125.629,12.394 113.593,63.085 62.897 C 113.660 12.317,125.784 0.000,124.999 0.000 C 124.222 0.000,111.353 12.669,61.976 62.047 M65.882 65.954 C 13.110 118.726,-0.044 132.077,0.062 132.757 C 0.170 133.441,13.164 120.636,66.992 66.803 C 120.691 13.098,133.597 -0.000,132.812 -0.000 C 132.034 -0.000,118.385 13.451,65.882 65.954 M69.789 69.860 C 13.880 125.769,-0.044 139.889,0.062 140.569 C 0.169 141.253,13.933 127.679,70.898 70.709 C 127.722 13.880,141.409 -0.000,140.624 -0.000 C 139.847 -0.000,125.416 14.232,69.789 69.860 M73.695 73.766 C 14.649 132.812,-0.044 147.702,0.062 148.381 C 0.169 149.066,14.702 134.722,74.804 74.615 C 134.754 14.661,149.221 -0.000,148.437 -0.000 C 147.659 -0.000,132.447 15.013,73.695 73.766 M77.601 77.672 C 15.418 139.856,-0.044 155.514,0.062 156.194 C 0.169 156.878,15.472 141.765,78.711 78.522 C 141.785 15.442,157.034 0.000,156.249 0.000 C 155.471 0.000,139.478 15.795,77.601 77.672 M105.664 57.449 C 55.914 107.222,47.929 115.057,45.898 116.093 C 38.405 119.913,32.438 125.881,28.597 133.398 C 27.612 135.325,24.958 138.178,13.700 149.412 C 2.993 160.095,-0.000 163.295,0.000 164.058 C 0.000 164.859,2.395 162.640,13.281 151.758 C 24.341 140.702,26.497 138.709,26.169 139.846 C 25.952 140.597,25.588 142.279,25.359 143.585 L 24.943 145.960 12.472 158.427 C 2.754 168.141,-0.000 171.109,-0.000 171.870 C -0.000 172.672,2.238 170.609,12.500 160.352 L 25.000 147.856 25.000 150.786 L 25.000 153.716 12.500 166.211 C 2.759 175.948,0.000 178.922,0.000 179.683 C 0.000 180.485,2.259 178.401,12.605 168.059 L 25.210 155.459 25.680 157.905 L 26.149 160.352 13.075 173.440 C 2.910 183.615,0.000 186.744,0.000 187.500 C 0.000 188.295,2.423 186.050,13.266 175.211 C 20.562 167.917,26.602 162.029,26.687 162.127 C 26.771 162.225,27.159 163.154,27.548 164.191 L 28.255 166.077 14.127 180.209 C 3.118 191.221,0.000 194.555,0.000 195.313 C 0.000 196.106,2.657 193.628,14.438 181.851 C 22.379 173.913,28.934 167.497,29.005 167.595 C 29.076 167.693,29.594 168.493,30.157 169.373 L 31.180 170.972 15.590 186.558 C 3.377 198.768,0.000 202.356,0.000 203.121 C 0.000 203.919,2.929 201.169,15.955 188.147 L 31.910 172.195 33.203 173.828 L 34.497 175.461 17.248 192.713 C 3.742 206.222,0.000 210.175,0.000 210.938 C 0.000 211.729,3.320 208.592,17.747 194.167 L 35.494 176.424 37.033 177.814 L 38.572 179.205 19.286 198.487 C 4.116 213.655,0.000 217.979,0.000 218.747 C 0.000 219.541,3.704 216.020,19.828 199.899 L 39.656 180.074 41.215 181.113 C 42.072 181.684,42.854 182.220,42.952 182.302 C 43.050 182.385,33.426 192.159,21.565 204.021 C 4.605 220.983,0.000 225.797,0.000 226.563 C 0.000 227.352,4.208 223.329,22.187 205.352 L 44.375 183.167 46.377 184.094 L 48.379 185.022 24.190 209.209 C 5.097 228.299,0.000 233.602,0.000 234.373 C -0.000 235.164,4.717 230.634,24.902 210.456 L 49.805 185.562 52.054 186.238 L 54.304 186.914 27.152 214.061 C 5.689 235.521,0.000 241.413,0.000 242.185 C 0.000 242.976,5.334 237.836,28.027 215.175 L 56.055 187.188 58.696 187.442 L 61.337 187.695 30.668 218.358 C 6.392 242.631,0.000 249.225,0.000 249.998 C 0.000 250.788,6.075 244.908,31.738 219.280 L 63.477 187.585 66.576 187.372 L 69.676 187.159 34.838 221.998 C 7.259 249.578,-0.000 257.041,-0.000 257.813 C 0.000 258.599,7.002 251.796,36.230 222.614 L 72.461 186.441 75.000 185.561 C 76.396 185.077,78.682 184.083,80.078 183.351 C 82.501 182.083,81.879 182.760,66.497 198.140 C 50.698 213.936,50.321 214.280,47.596 215.384 C 39.354 218.725,31.341 226.721,27.931 235.009 C 26.875 237.575,26.225 238.299,13.413 251.174 C 2.992 261.646,-0.000 264.869,-0.000 265.625 C -0.000 266.421,2.344 264.261,12.935 253.709 C 22.401 244.277,25.804 241.106,25.625 241.885 C 25.491 242.470,25.272 243.988,25.139 245.258 L 24.898 247.567 12.449 260.012 C 2.749 269.708,0.000 272.672,0.000 273.433 C 0.000 274.235,2.238 272.172,12.500 261.914 L 25.000 249.419 25.000 252.348 L 25.000 255.278 12.500 267.773 C 2.759 277.511,0.000 280.484,0.000 281.245 C 0.000 282.047,2.271 279.952,12.663 269.563 L 25.326 256.905 25.772 258.628 C 26.018 259.576,26.294 260.618,26.387 260.943 C 26.495 261.319,21.741 266.348,13.278 274.808 C 2.915 285.168,0.000 288.296,0.000 289.058 C 0.000 289.858,2.430 287.605,13.461 276.578 C 20.865 269.176,26.995 263.201,27.083 263.299 C 27.170 263.396,27.597 264.289,28.030 265.281 L 28.817 267.085 14.409 281.490 C 3.141 292.755,0.000 296.107,0.000 296.871 C 0.000 297.670,2.687 295.161,14.746 283.106 L 29.492 268.364 30.626 270.156 L 31.759 271.949 15.879 287.831 C 3.468 300.246,-0.000 303.927,-0.000 304.688 C -0.000 305.480,3.029 302.634,16.309 289.366 L 32.617 273.071 33.943 274.661 L 35.268 276.252 17.634 293.889 C 3.819 307.707,0.000 311.737,0.000 312.500 C 0.000 313.291,3.395 310.079,18.124 295.353 L 36.248 277.232 37.839 278.557 L 39.430 279.883 19.715 299.611 C 4.237 315.099,0.000 319.548,0.000 320.313 C -0.000 321.103,3.827 317.460,20.282 301.007 L 40.564 280.727 42.339 281.882 L 44.114 283.037 22.057 305.091 C 4.671 322.476,0.000 327.353,0.000 328.122 C 0.000 328.915,4.278 324.830,22.754 306.390 L 45.508 283.682 47.070 284.408 C 47.930 284.808,48.809 285.208,49.023 285.298 C 49.238 285.389,38.296 296.600,24.707 310.213 C 5.244 329.710,0.000 335.170,0.000 335.938 C 0.000 336.726,4.872 332.040,25.507 311.407 C 41.928 294.987,51.217 285.971,51.582 286.096 C 51.893 286.202,52.924 286.489,53.873 286.732 L 55.597 287.174 27.799 314.975 C 5.851 336.924,0.000 342.981,-0.000 343.750 C -0.000 344.537,5.493 339.232,28.614 316.112 L 57.229 287.500 60.156 287.500 L 63.084 287.500 31.542 319.044 C 6.600 343.987,-0.000 350.792,-0.000 351.563 C -0.000 352.350,6.263 346.283,32.520 320.062 L 65.039 287.587 67.366 287.335 C 68.647 287.197,70.141 286.982,70.687 286.857 C 71.348 286.706,59.714 298.611,35.840 322.515 C 7.471 350.920,0.000 358.603,0.000 359.375 C 0.000 360.161,7.235 353.128,37.402 323.012 C 74.526 285.952,74.825 285.665,77.539 284.549 C 85.692 281.199,93.543 273.373,97.064 265.088 L 98.164 262.500 100.937 262.500 L 103.710 262.500 51.855 314.356 C 10.663 355.549,0.000 366.413,0.000 367.188 C -0.000 367.972,10.337 357.826,52.833 315.331 L 105.665 262.500 108.594 262.500 L 111.522 262.500 55.761 318.262 C 11.444 362.580,-0.000 374.225,-0.000 375.000 C -0.000 375.784,11.126 364.849,56.778 319.198 C 95.189 280.789,113.770 262.465,114.216 262.558 C 114.962 262.713,110.813 269.141,106.149 275.058 C 104.734 276.852,80.272 301.611,51.789 330.078 C 10.610 371.231,0.000 382.035,0.000 382.811 C -0.000 383.598,9.761 374.027,50.106 333.683 L 100.211 283.579 100.074 286.614 L 99.936 289.648 49.968 339.649 C 10.294 379.349,0.000 389.851,0.000 390.625 C -0.000 391.410,9.789 381.813,50.098 341.509 L 100.195 291.418 101.208 293.330 L 102.221 295.241 51.110 346.350 C 10.482 386.978,0.000 397.660,0.000 398.436 C 0.000 399.223,10.046 389.367,51.534 347.880 L 103.067 296.348 104.561 297.460 C 105.383 298.071,106.135 298.637,106.233 298.716 C 106.332 298.795,83.656 321.617,55.843 349.430 C 15.128 390.147,5.465 400.000,6.251 400.000 C 7.027 400.000,17.559 389.669,57.583 349.643 C 104.363 302.862,108.006 299.312,108.878 299.643 C 109.394 299.839,110.552 300.000,111.451 300.000 L 113.085 300.000 63.086 350.000 C 22.826 390.261,13.277 400.000,14.064 400.000 C 14.840 400.000,25.299 389.741,65.034 350.006 C 108.510 306.528,115.254 299.934,116.770 299.417 C 120.133 298.271,124.773 293.465,130.381 285.317 C 131.255 284.047,141.834 273.164,153.889 261.133 L 175.807 239.258 174.785 241.992 C 174.223 243.496,173.401 245.605,172.958 246.680 C 172.256 248.380,162.376 258.416,96.526 324.316 C 35.781 385.107,21.091 400.000,21.875 400.000 C 22.652 400.000,37.865 384.993,96.420 326.465 C 168.208 254.709,169.955 252.998,168.596 255.737 C 164.036 264.925,169.766 258.854,95.953 332.715 C 41.920 386.783,28.903 400.000,29.687 400.000 C 30.463 400.000,43.696 386.979,94.295 336.426 C 138.844 291.917,156.988 274.023,154.795 276.758 C 151.214 281.223,150.512 282.445,150.163 284.822 C 149.921 286.469,148.103 288.335,93.219 343.262 C 47.623 388.893,36.715 400.000,37.500 400.000 C 38.275 400.000,49.920 388.556,94.238 344.239 C 139.738 298.739,150.004 288.657,150.022 289.454 C 150.034 289.990,150.269 291.045,150.545 291.797 L 151.045 293.164 97.691 346.582 C 54.730 389.594,44.527 400.000,45.314 400.000 C 46.090 400.000,57.094 389.196,99.008 347.281 L 151.725 294.563 153.120 296.012 L 154.515 297.461 103.332 348.730 C 62.134 389.998,52.340 400.000,53.125 400.000 C 53.900 400.000,64.552 389.549,104.897 349.204 L 155.694 298.408 157.046 298.951 C 157.790 299.250,158.742 299.616,159.161 299.765 C 159.796 299.991,151.524 308.436,109.943 350.018 C 69.698 390.264,60.152 400.000,60.939 400.000 C 61.715 400.000,72.175 389.740,111.914 350.000 L 161.913 300.000 164.843 300.000 L 167.772 300.000 117.773 350.000 C 77.545 390.230,67.965 400.000,68.750 400.000 C 69.525 400.000,80.022 389.707,119.726 350.017 L 169.727 300.034 172.973 299.700 L 176.219 299.366 125.903 349.683 C 85.461 390.125,75.778 400.000,76.561 400.000 C 77.334 400.000,87.998 389.547,128.123 349.459 L 178.711 298.917 181.038 298.664 C 182.318 298.525,183.813 298.310,184.359 298.185 C 185.017 298.035,168.152 315.174,134.376 348.980 C 93.354 390.037,83.590 400.000,84.375 400.000 C 85.150 400.000,95.927 389.432,136.718 348.673 L 188.086 297.346 191.202 296.673 C 192.917 296.303,194.587 295.911,194.913 295.801 C 195.240 295.692,172.041 319.092,143.360 347.801 C 101.399 389.803,91.403 400.000,92.188 400.000 C 92.962 400.000,103.971 389.192,145.744 347.420 L 198.325 294.840 202.385 293.518 C 204.618 292.791,206.533 292.194,206.640 292.192 C 206.747 292.189,182.578 316.445,152.930 346.094 C 109.576 389.448,99.215 400.000,100.000 400.000 C 100.775 400.000,112.219 388.767,155.664 345.364 C 209.499 291.579,210.391 290.712,212.891 289.731 C 214.287 289.183,216.484 288.270,217.773 287.703 C 219.996 286.724,217.189 289.600,163.477 343.335 C 117.898 388.934,107.028 400.000,107.814 400.000 C 108.590 400.000,120.571 388.217,166.407 342.372 L 224.023 284.744 228.067 282.578 C 230.291 281.387,233.279 279.707,234.708 278.845 C 236.903 277.520,227.821 286.767,175.977 338.639 C 126.646 387.997,114.840 400.000,115.626 400.000 C 116.403 400.000,129.511 387.085,179.883 336.689 C 226.089 290.460,244.134 272.652,246.758 270.688 C 256.127 263.678,265.172 254.667,271.311 246.225 C 272.619 244.428,279.513 237.167,288.008 228.642 L 302.478 214.120 303.406 216.123 L 304.334 218.126 213.398 309.063 C 140.420 382.042,122.654 400.000,123.437 400.000 C 124.215 400.000,142.768 381.645,214.730 309.684 C 264.404 260.011,305.114 219.449,305.197 219.548 C 305.280 219.646,305.816 220.428,306.388 221.286 L 307.427 222.846 218.851 311.423 C 147.729 382.545,130.467 400.000,131.251 400.000 C 132.029 400.000,150.094 382.133,220.262 311.965 L 308.297 223.929 309.687 225.468 L 311.078 227.008 224.582 313.504 C 155.156 382.930,138.279 400.000,139.062 400.000 C 139.840 400.000,157.530 382.509,226.038 314.001 L 312.037 228.002 313.672 229.297 L 315.306 230.591 230.603 315.296 C 162.579 383.320,146.091 400.000,146.876 400.000 C 147.654 400.000,164.980 382.872,232.191 315.660 L 316.530 231.321 318.128 232.343 C 319.007 232.906,319.807 233.424,319.905 233.496 C 320.004 233.567,282.650 271.060,236.898 316.813 C 170.120 383.592,153.904 400.000,154.687 400.000 C 155.465 400.000,172.531 383.133,238.542 317.122 L 321.420 234.244 323.308 234.952 C 324.346 235.341,325.276 235.729,325.374 235.814 C 325.473 235.900,288.647 272.877,243.539 317.985 C 177.698 383.826,161.717 400.000,162.500 400.000 C 163.277 400.000,180.138 383.340,245.312 318.175 L 327.148 236.349 329.597 236.820 L 332.045 237.291 250.691 318.645 C 185.347 383.990,169.529 400.000,170.313 400.000 C 171.091 400.000,187.800 383.490,252.539 318.750 L 333.788 237.500 336.718 237.500 L 339.648 237.500 258.398 318.750 C 193.138 384.011,177.341 400.000,178.126 400.000 C 178.904 400.000,195.607 383.495,260.324 318.778 L 341.545 237.556 343.917 237.141 C 345.222 236.912,346.904 236.548,347.656 236.331 C 348.755 236.014,332.918 252.042,266.993 317.968 C 201.107 383.854,185.154 400.000,185.938 400.000 C 186.716 400.000,203.652 383.257,269.336 317.551 C 341.084 245.780,352.061 234.948,354.102 233.907 C 361.595 230.087,367.562 224.119,371.403 216.602 C 372.388 214.675,375.042 211.822,386.300 200.588 C 397.007 189.905,400.000 186.705,400.000 185.942 C 400.000 185.141,397.605 187.360,386.719 198.242 C 375.659 209.298,373.503 211.291,373.831 210.154 C 374.048 209.403,374.412 207.721,374.641 206.415 L 375.057 204.040 387.528 191.573 C 397.246 181.859,400.000 178.891,400.000 178.130 C 400.000 177.328,397.762 179.391,387.500 189.648 L 375.000 202.144 375.000 199.214 L 375.000 196.284 387.500 183.789 C 397.241 174.052,400.000 171.078,400.000 170.317 C 400.000 169.515,397.741 171.599,387.395 181.941 L 374.790 194.541 374.320 192.095 L 373.851 189.648 386.925 176.560 C 397.090 166.385,400.000 163.256,400.000 162.500 C 400.000 161.705,397.577 163.950,386.734 174.789 C 379.438 182.083,373.398 187.971,373.313 187.873 C 373.229 187.775,372.841 186.846,372.452 185.809 L 371.745 183.923 385.873 169.791 C 396.882 158.779,400.000 155.445,400.000 154.687 C 400.000 153.894,397.343 156.372,385.562 168.149 C 377.621 176.087,371.066 182.503,370.995 182.405 C 370.924 182.307,370.406 181.507,369.843 180.627 L 368.820 179.028 384.410 163.442 C 396.623 151.232,400.000 147.644,400.000 146.879 C 400.000 146.081,397.071 148.831,384.045 161.853 L 368.090 177.805 366.797 176.172 L 365.503 174.539 382.752 157.287 C 396.258 143.778,400.000 139.825,400.000 139.062 C 400.000 138.271,396.680 141.408,382.253 155.833 L 364.506 173.576 362.967 172.186 L 361.428 170.795 380.714 151.513 C 395.884 136.345,400.000 132.021,400.000 131.253 C 400.000 130.459,396.296 133.980,380.172 150.101 L 360.344 169.926 358.785 168.887 C 357.928 168.316,357.146 167.780,357.048 167.698 C 356.950 167.615,366.574 157.841,378.435 145.979 C 395.395 129.017,400.000 124.203,400.000 123.437 C 400.000 122.648,395.792 126.671,377.813 144.648 L 355.625 166.833 353.623 165.906 L 351.621 164.978 375.810 140.791 C 394.903 121.701,400.000 116.398,400.000 115.627 C 400.000 114.836,395.283 119.366,375.098 139.544 L 350.195 164.438 347.946 163.762 L 345.696 163.086 372.848 135.939 C 394.311 114.479,400.000 108.587,400.000 107.815 C 400.000 107.024,394.666 112.164,371.973 134.825 L 343.945 162.812 341.304 162.558 L 338.663 162.305 369.332 131.642 C 393.608 107.369,400.000 100.775,400.000 100.002 C 400.000 99.212,393.925 105.092,368.262 130.720 L 336.523 162.415 333.424 162.628 L 330.324 162.841 365.162 128.002 C 392.741 100.422,400.000 92.959,400.000 92.187 C 400.000 91.401,392.998 98.204,363.770 127.386 L 327.539 163.559 325.000 164.439 C 323.604 164.923,321.318 165.917,319.922 166.648 C 317.578 167.875,320.564 164.796,358.691 126.664 C 391.449 93.903,400.000 85.148,400.000 84.375 C 400.000 83.590,389.815 93.584,347.949 135.450 L 295.897 187.500 292.969 187.500 L 290.040 187.500 345.020 132.519 C 388.712 88.826,400.000 77.338,400.000 76.562 C 400.000 75.778,389.038 86.549,344.042 131.543 C 304.637 170.948,287.838 187.500,287.251 187.500 C 286.558 187.500,286.371 187.193,286.144 185.679 L 285.871 183.857 342.935 126.791 C 388.295 81.431,400.000 69.525,400.000 68.750 C 400.000 67.966,388.787 78.987,342.789 124.984 C 311.324 156.449,285.506 182.113,285.417 182.015 C 285.327 181.916,284.993 180.932,284.674 179.827 L 284.095 177.818 342.047 119.867 C 388.149 73.765,400.000 61.715,400.000 60.938 C 400.000 60.153,388.624 71.338,341.816 118.145 L 283.633 176.327 282.832 174.459 C 282.392 173.432,282.031 172.474,282.031 172.330 C 282.031 172.187,308.574 145.527,341.016 113.086 C 387.943 66.159,400.000 53.903,400.000 53.126 C 400.000 52.340,388.394 63.755,340.667 111.481 L 281.335 170.813 280.511 168.950 C 280.058 167.926,279.688 166.978,279.688 166.844 C 279.688 166.710,306.758 139.531,339.844 106.445 C 387.709 58.581,400.000 46.090,400.000 45.313 C 400.000 44.528,388.171 56.166,339.550 104.786 C 306.303 138.032,278.984 165.234,278.842 165.234 C 278.699 165.234,278.152 164.463,277.625 163.521 L 276.667 161.808 338.334 100.143 C 387.407 51.071,400.000 38.278,400.000 37.501 C 400.000 36.716,387.851 48.673,337.950 98.573 L 275.900 160.623 274.818 158.776 L 273.736 156.929 336.868 93.796 C 387.082 43.582,400.000 30.464,400.000 29.687 C 400.000 28.903,387.512 41.200,336.412 92.299 L 272.825 155.885 271.614 154.167 L 270.402 152.448 335.201 87.650 C 386.780 36.072,400.000 22.653,400.000 21.876 C 400.000 21.091,387.217 33.682,334.781 86.118 L 269.561 151.337 268.203 149.789 L 266.845 148.242 333.422 81.640 C 386.386 28.657,400.000 14.839,400.000 14.062 C 400.000 13.279,386.832 26.250,332.984 80.079 L 265.968 147.070 264.609 145.523 L 263.251 143.976 331.626 75.601 C 386.033 21.192,400.000 7.026,400.000 6.250 C 400.000 5.466,386.459 18.815,331.149 74.125 L 262.298 142.975 260.833 141.510 L 259.369 140.046 329.391 70.023 C 385.638 13.775,399.221 -0.000,398.438 -0.000 C 397.661 -0.000,383.258 14.199,327.930 69.510 L 258.398 139.019 256.836 137.682 L 255.273 136.345 323.437 68.173 C 378.231 13.372,391.409 -0.000,390.624 -0.000 C 389.847 -0.000,375.872 13.776,322.070 67.578 C 284.903 104.746,254.401 135.156,254.289 135.156 C 254.176 135.156,253.412 134.602,252.590 133.925 L 251.096 132.693 317.442 66.347 C 370.748 13.040,383.596 0.000,382.813 0.000 C 382.036 0.000,368.367 13.469,315.947 65.889 L 250.058 131.777 248.564 130.665 C 247.742 130.054,246.990 129.488,246.891 129.409 C 246.793 129.330,275.797 100.180,311.344 64.632 C 363.310 12.666,375.784 0.000,374.999 0.000 C 374.222 0.000,360.916 13.106,309.792 64.231 L 245.562 128.463 243.857 127.238 L 242.151 126.014 305.157 63.007 C 355.823 12.341,367.972 -0.000,367.187 -0.000 C 366.409 -0.000,353.450 12.760,303.711 62.500 C 269.336 96.875,241.076 125.000,240.910 125.000 C 240.744 125.000,239.897 124.529,239.027 123.953 L 237.445 122.907 298.898 61.453 C 348.289 12.061,360.159 -0.000,359.375 -0.000 C 358.599 -0.000,345.901 12.498,297.369 61.030 L 236.338 122.059 234.575 121.096 C 233.606 120.567,232.813 120.042,232.813 119.931 C 232.813 119.819,259.751 92.789,292.675 59.864 C 340.795 11.743,352.347 0.000,351.563 0.000 C 350.787 0.000,338.372 12.215,290.969 59.617 L 231.352 119.233 229.505 118.151 L 227.659 117.069 286.192 58.534 C 333.248 11.477,344.534 0.000,343.750 -0.000 C 342.974 -0.000,330.834 11.940,284.532 58.241 L 226.290 116.482 224.571 115.615 C 223.625 115.138,222.771 114.674,222.673 114.584 C 222.574 114.495,248.238 88.676,279.704 57.211 C 325.732 11.181,336.722 -0.000,335.936 -0.000 C 335.160 -0.000,323.333 11.627,278.125 56.836 C 246.866 88.096,221.180 113.672,221.046 113.672 C 220.912 113.672,219.964 113.301,218.940 112.848 L 217.078 112.024 273.089 56.012 C 318.159 10.942,328.910 -0.000,328.124 -0.000 C 327.347 -0.000,315.755 11.392,271.488 55.661 C 226.705 100.445,215.681 111.275,215.077 111.083 C 214.664 110.952,213.710 110.587,212.957 110.273 L 211.589 109.701 266.439 54.850 C 310.548 10.741,321.097 -0.000,320.313 -0.000 C 319.537 -0.000,308.132 11.205,264.772 54.564 L 210.207 109.128 208.021 108.385 L 205.835 107.642 259.655 53.821 C 302.941 10.535,313.285 0.000,312.500 0.000 C 311.725 0.000,300.522 11.003,257.969 53.554 L 204.414 107.108 202.188 106.406 L 199.961 105.704 252.812 52.852 C 295.322 10.341,305.472 0.000,304.688 0.000 C 303.913 0.000,292.900 10.812,251.111 52.600 L 198.510 105.200 196.618 104.688 C 195.578 104.407,194.574 104.093,194.388 103.990 C 194.202 103.887,217.404 80.448,245.950 51.902 C 287.700 10.151,297.660 0.000,296.875 0.000 C 296.100 0.000,285.253 10.646,244.128 51.770 L 192.356 103.541 190.221 103.068 C 189.047 102.807,188.005 102.531,187.907 102.453 C 187.809 102.375,210.748 79.292,238.883 51.156 C 280.068 9.970,289.848 0.000,289.061 0.000 C 288.285 0.000,277.635 10.454,237.109 50.999 L 186.133 101.997 183.984 101.741 C 182.803 101.600,181.684 101.391,181.497 101.277 C 181.311 101.163,203.899 78.329,231.692 50.535 C 272.379 9.846,282.035 0.000,281.249 0.000 C 280.473 0.000,269.905 10.367,229.737 50.537 C 197.096 83.178,178.976 101.029,178.565 100.948 C 178.216 100.879,177.066 100.710,176.011 100.573 L 174.092 100.324 224.252 50.162 C 264.641 9.772,274.223 -0.000,273.436 -0.000 C 272.660 -0.000,262.181 10.279,222.365 50.098 L 172.270 100.195 169.471 100.063 L 166.672 99.931 216.636 49.965 C 256.837 9.764,266.410 -0.000,265.625 0.000 C 264.851 0.000,254.349 10.294,214.649 49.968 L 164.648 99.936 161.614 100.074 L 158.579 100.211 208.683 50.106 C 248.999 9.789,258.597 0.000,257.812 0.000 C 257.037 0.000,244.377 12.460,196.013 60.823 C 162.559 94.276,135.120 121.566,135.037 121.468 C 134.954 121.370,134.418 120.587,133.847 119.730 L 132.807 118.170 191.891 59.085 C 239.388 11.588,250.784 0.000,250.000 0.000 C 249.224 0.000,237.037 11.988,190.544 58.480 C 158.380 90.643,131.998 116.879,131.919 116.780 C 131.840 116.682,131.274 115.929,130.663 115.108 L 129.551 113.614 186.357 56.807 C 232.063 11.101,242.972 -0.000,242.186 -0.000 C 241.410 0.000,229.707 11.504,184.993 56.218 L 128.776 112.436 127.503 110.808 L 126.230 109.180 180.790 54.590 C 224.675 10.681,235.160 0.000,234.375 0.000 C 233.600 0.000,222.303 11.095,179.386 54.004 L 125.373 108.008 124.036 106.445 L 122.700 104.883 175.119 52.441 C 217.289 10.253,227.347 0.000,226.563 0.000 C 225.788 0.000,214.930 10.657,173.760 51.826 L 121.933 103.652 120.439 102.540 C 119.617 101.929,118.865 101.363,118.767 101.284 C 118.668 101.205,141.344 78.383,169.157 50.570 C 209.872 9.853,219.535 0.000,218.749 0.000 C 217.973 -0.000,207.441 10.331,167.417 50.357 C 120.637 97.138,116.994 100.688,116.122 100.357 C 115.606 100.161,114.448 100.000,113.549 100.000 L 111.915 100.000 161.914 50.000 C 202.174 9.739,211.723 0.000,210.936 0.000 C 210.160 0.000,199.700 10.260,159.960 50.001 C 115.564 94.399,109.760 100.069,108.168 100.597 C 104.632 101.772,101.314 105.175,100.395 108.571 C 100.114 109.607,98.482 111.493,93.988 115.977 L 87.958 121.994 86.326 120.701 L 84.694 119.409 144.397 59.704 C 192.421 11.680,203.910 -0.000,203.124 -0.000 C 202.347 -0.000,190.020 12.128,142.809 59.340 L 83.470 118.679 81.872 117.657 C 80.993 117.094,80.193 116.576,80.095 116.504 C 79.996 116.433,106.100 90.190,138.102 58.187 C 184.880 11.408,196.097 0.000,195.313 0.000 C 194.537 0.000,182.469 11.867,136.458 57.878 L 78.579 115.756 76.692 115.048 C 75.654 114.659,74.724 114.271,74.626 114.186 C 74.528 114.100,100.104 88.374,131.461 57.015 C 177.302 11.174,188.284 0.000,187.500 0.000 C 186.725 0.000,174.863 11.660,129.688 56.825 L 72.852 113.650 70.404 113.180 L 67.956 112.709 124.309 56.355 C 169.653 11.010,180.472 -0.000,179.686 -0.000 C 178.910 -0.000,167.200 11.510,122.461 56.250 L 66.212 112.500 63.282 112.500 L 60.353 112.500 116.602 56.250 C 161.861 10.989,172.660 0.000,171.874 0.000 C 171.097 0.000,159.393 11.505,114.677 56.222 L 58.456 112.444 56.083 112.859 C 54.778 113.088,53.096 113.452,52.344 113.669 C 51.242 113.987,62.032 103.009,108.007 57.032 C 153.893 11.146,164.847 -0.000,164.062 -0.000 C 163.285 -0.000,151.348 11.743,105.664 57.449 M150.072 111.621 L 149.934 114.648 144.023 120.597 L 138.113 126.545 136.989 124.738 L 135.865 122.932 143.026 115.763 C 146.965 111.820,150.193 108.594,150.199 108.594 C 150.205 108.594,150.148 109.956,150.072 111.621 M100.549 116.695 C 100.692 116.837,98.761 119.006,96.258 121.515 L 91.709 126.077 90.318 124.537 L 88.927 122.997 94.366 117.545 L 99.805 112.093 100.048 114.265 C 100.181 115.459,100.407 116.553,100.549 116.695 M146.539 125.866 L 140.855 131.616 139.824 129.773 L 138.792 127.930 144.477 122.180 L 150.161 116.431 151.192 118.274 L 152.223 120.117 146.539 125.866 M102.494 120.359 L 103.621 121.952 99.376 126.210 C 94.446 131.155,95.007 130.900,93.664 128.806 L 92.601 127.148 96.782 122.949 C 101.625 118.086,101.065 118.340,102.494 120.359 M154.632 122.977 L 155.814 124.469 149.623 130.651 L 143.432 136.832 142.446 134.920 L 141.460 133.008 147.190 127.246 C 153.730 120.670,153.094 121.035,154.632 122.977 M106.322 125.101 L 107.139 126.248 102.332 131.067 L 97.525 135.885 96.597 133.883 L 95.670 131.882 100.059 127.480 C 104.786 122.740,104.671 122.783,106.322 125.101 M158.024 127.368 L 159.124 128.954 152.516 135.570 L 145.908 142.186 145.011 140.154 L 144.114 138.121 150.275 131.951 C 157.325 124.891,156.604 125.318,158.024 127.368 M109.285 129.035 L 110.500 130.727 107.098 134.113 L 103.695 137.500 100.779 137.500 L 97.863 137.500 102.930 132.422 C 105.716 129.629,108.013 127.344,108.034 127.344 C 108.054 127.344,108.617 128.105,109.285 129.035 M161.418 132.064 L 162.441 133.465 155.308 140.590 L 148.176 147.715 147.318 145.651 L 146.460 143.587 153.199 136.840 C 156.905 133.130,160.040 130.222,160.166 130.379 C 160.292 130.536,160.855 131.294,161.418 132.064 M194.695 130.841 L 195.835 131.281 194.119 133.030 L 192.403 134.778 191.487 132.976 C 190.013 130.074,191.004 129.415,194.695 130.841 M112.560 133.765 L 113.596 135.473 112.538 136.487 C 111.594 137.391,111.170 137.500,108.583 137.500 L 105.685 137.500 108.398 134.766 C 111.594 131.545,111.262 131.625,112.560 133.765 M199.900 132.748 L 201.557 133.421 198.274 136.687 L 194.992 139.952 194.010 138.042 L 193.028 136.133 195.036 134.082 C 197.239 131.832,197.481 131.766,199.900 132.748 M205.029 134.869 L 207.032 135.753 202.167 140.607 L 197.301 145.460 196.502 143.596 C 196.063 142.571,195.703 141.618,195.703 141.479 C 195.703 141.276,202.772 133.984,202.970 133.984 C 203.000 133.984,203.926 134.382,205.029 134.869 M164.299 136.559 L 165.351 138.353 157.774 145.937 L 150.197 153.521 149.465 151.324 L 148.732 149.127 155.905 141.946 C 159.850 137.997,163.116 134.766,163.163 134.766 C 163.210 134.766,163.721 135.573,164.299 136.559 M205.836 144.750 L 199.448 151.147 198.748 149.304 C 198.363 148.290,198.047 147.288,198.047 147.076 C 198.047 146.864,200.362 144.371,203.191 141.536 L 208.334 136.381 210.279 137.367 L 212.224 138.353 205.836 144.750 M57.418 144.736 C 50.645 151.522,50.585 151.570,50.457 150.313 C 50.113 146.923,50.660 145.727,54.219 142.090 C 57.815 138.415,58.633 137.983,62.105 137.926 L 64.249 137.891 57.418 144.736 M67.984 139.070 C 68.835 139.504,69.531 139.989,69.531 140.148 C 69.531 140.720,52.813 157.126,52.456 156.905 C 52.254 156.780,51.763 155.956,51.365 155.073 L 50.641 153.468 58.227 145.875 C 62.399 141.698,65.953 138.281,66.125 138.281 C 66.297 138.281,67.133 138.636,67.984 139.070 M215.419 139.922 C 217.695 141.027,218.329 140.077,209.256 149.142 L 201.325 157.066 200.625 154.844 L 199.925 152.622 206.696 145.842 C 210.421 142.113,213.509 139.063,213.560 139.063 C 213.610 139.063,214.447 139.449,215.419 139.922 M167.276 141.613 L 168.135 143.381 160.143 151.381 L 152.150 159.380 151.418 157.183 L 150.685 154.986 158.249 147.415 C 166.817 138.838,166.140 139.274,167.276 141.613 M73.042 143.777 C 73.314 144.257,71.587 146.191,65.102 152.671 L 56.815 160.952 55.130 159.713 L 53.446 158.475 62.172 149.734 L 70.898 140.993 71.797 142.079 C 72.291 142.676,72.851 143.440,73.042 143.777 M220.590 142.891 L 222.234 143.982 212.730 153.481 C 207.503 158.705,203.142 162.827,203.040 162.642 C 202.938 162.456,202.625 161.454,202.344 160.415 L 201.833 158.526 210.190 150.161 C 214.787 145.561,218.637 141.798,218.747 141.799 C 218.856 141.799,219.685 142.291,220.590 142.891 M169.871 146.747 L 170.758 148.571 162.234 157.107 L 153.711 165.643 153.150 163.269 L 152.589 160.895 160.568 152.908 C 169.709 143.759,168.734 144.405,169.871 146.747 M225.425 145.968 L 227.005 147.013 215.947 158.077 C 209.864 164.162,204.791 169.141,204.673 169.141 C 204.555 169.141,204.246 168.131,203.987 166.897 L 203.517 164.653 213.377 154.787 C 218.800 149.361,223.373 144.922,223.541 144.922 C 223.708 144.922,224.556 145.392,225.425 145.968 M74.570 149.214 C 74.609 150.963,74.596 150.980,69.048 156.538 C 63.035 162.562,63.001 162.581,59.386 161.858 L 58.128 161.606 66.076 153.649 C 74.768 144.946,74.479 145.098,74.570 149.214 M230.078 149.213 L 231.445 150.358 218.765 163.057 C 210.735 171.099,205.981 175.588,205.803 175.299 C 205.647 175.048,205.401 173.976,205.255 172.916 L 204.991 170.991 216.458 159.519 C 222.765 153.209,228.102 148.052,228.318 148.057 C 228.534 148.063,229.326 148.583,230.078 149.213 M172.452 152.181 L 173.146 153.996 164.210 162.945 L 155.273 171.894 154.815 170.420 C 153.862 167.352,153.697 167.599,162.768 158.521 C 167.427 153.858,171.356 150.116,171.499 150.204 C 171.642 150.293,172.071 151.182,172.452 152.181 M234.303 152.479 L 235.867 153.785 221.304 168.344 L 206.741 182.903 206.458 180.261 L 206.175 177.618 219.394 164.395 C 226.664 157.122,232.641 151.172,232.676 151.172 C 232.710 151.172,233.442 151.760,234.303 152.479 M73.449 155.447 C 72.108 158.074,67.859 161.719,66.136 161.719 C 65.970 161.719,67.668 159.879,69.909 157.630 C 74.304 153.220,74.714 152.967,73.449 155.447 M239.844 157.359 C 239.844 157.503,232.571 164.891,223.683 173.778 L 207.523 189.935 207.240 187.292 L 206.957 184.649 221.909 169.692 L 236.862 154.736 238.353 155.916 C 239.173 156.566,239.844 157.215,239.844 157.359 M174.691 157.731 L 175.388 159.567 165.934 169.027 C 160.735 174.229,156.428 178.433,156.364 178.369 C 156.300 178.305,156.058 177.228,155.826 175.977 L 155.406 173.702 164.501 164.600 C 169.504 159.594,173.686 155.588,173.796 155.697 C 173.905 155.806,174.308 156.721,174.691 157.731 M242.588 159.971 L 243.922 161.348 225.965 179.312 L 208.008 197.276 207.754 194.634 L 207.501 191.992 224.159 175.293 C 233.321 166.108,240.915 158.594,241.035 158.594 C 241.155 158.594,241.854 159.213,242.588 159.971 M176.176 161.621 C 176.178 161.782,176.426 162.723,176.726 163.711 L 177.271 165.508 167.188 175.585 L 157.106 185.662 156.823 183.021 L 156.540 180.380 166.060 170.854 C 174.930 161.979,176.165 160.851,176.176 161.621 M101.953 162.605 C 101.953 162.663,100.326 164.331,98.338 166.311 L 94.723 169.911 96.483 166.211 L 98.242 162.512 100.098 162.506 C 101.118 162.503,101.953 162.547,101.953 162.605 M85.012 187.449 L 60.065 212.398 57.757 212.639 C 56.488 212.772,54.970 212.991,54.385 213.125 C 53.623 213.300,60.546 206.130,78.710 187.935 L 104.099 162.500 107.029 162.500 L 109.959 162.500 85.012 187.449 M92.773 187.500 L 67.776 212.500 64.846 212.500 L 61.916 212.500 86.914 187.500 L 111.912 162.500 114.841 162.500 L 117.771 162.500 92.773 187.500 M99.808 188.278 C 83.270 204.818,73.821 213.995,73.442 213.887 C 73.117 213.794,72.076 213.518,71.127 213.272 L 69.403 212.826 94.564 187.663 L 119.724 162.500 122.654 162.500 L 125.584 162.500 99.808 188.278 M246.459 163.960 L 247.663 165.420 227.835 185.253 L 208.008 205.086 207.891 202.270 L 207.775 199.454 226.249 180.977 C 236.410 170.815,244.843 162.500,244.990 162.500 C 245.136 162.500,245.797 163.157,246.459 163.960 M127.380 165.786 L 128.002 167.899 103.747 192.109 L 79.492 216.318 77.930 215.592 C 77.070 215.192,76.191 214.792,75.977 214.702 C 75.630 214.556,126.073 163.671,126.561 163.673 C 126.669 163.673,127.038 164.624,127.380 165.786 M250.675 169.159 C 251.064 169.669,247.695 173.206,229.174 191.725 L 207.211 213.685 207.348 210.651 L 207.486 207.617 228.020 187.050 L 248.553 166.483 249.383 167.519 C 249.840 168.089,250.421 168.827,250.675 169.159 M178.486 169.700 L 178.953 171.627 168.483 182.103 C 162.725 187.864,157.880 192.578,157.718 192.578 C 157.555 192.578,157.422 191.393,157.422 189.944 L 157.422 187.310 167.469 177.257 C 172.995 171.728,177.630 167.332,177.768 167.489 C 177.906 167.645,178.229 168.641,178.486 169.700 M129.016 171.926 L 129.589 174.125 107.019 196.692 L 84.449 219.259 82.656 218.126 L 80.863 216.992 104.575 193.277 C 117.616 180.234,128.322 169.599,128.365 169.645 C 128.408 169.690,128.701 170.716,129.016 171.926 M253.213 172.757 L 254.278 174.414 230.362 198.341 C 217.208 211.500,206.391 222.103,206.324 221.902 C 206.257 221.701,206.379 220.260,206.595 218.701 L 206.988 215.866 229.372 193.480 C 241.683 181.168,251.844 171.095,251.952 171.097 C 252.060 171.098,252.628 171.845,253.213 172.757 M179.962 176.042 L 180.343 178.060 169.078 189.320 L 157.813 200.581 157.813 197.656 L 157.813 194.732 168.446 184.093 C 174.294 178.242,179.192 173.582,179.330 173.739 C 179.468 173.895,179.752 174.932,179.962 176.042 M109.782 201.717 L 88.754 222.769 87.162 221.443 L 85.570 220.117 107.726 197.943 L 129.883 175.769 130.347 178.217 L 130.810 180.664 109.782 201.717 M256.097 177.577 L 257.149 179.372 230.838 205.686 C 216.366 220.158,204.475 231.949,204.413 231.887 C 204.351 231.825,204.585 230.294,204.934 228.484 L 205.568 225.195 230.224 200.488 C 243.785 186.899,254.918 175.781,254.963 175.781 C 255.008 175.781,255.519 176.589,256.097 177.577 M169.443 196.766 L 157.534 208.675 157.712 205.607 L 157.891 202.539 169.277 191.106 L 180.664 179.672 181.008 182.265 L 181.353 184.857 169.443 196.766 M303.520 183.783 L 301.758 187.488 299.812 187.494 L 297.867 187.500 301.563 183.789 C 303.595 181.748,305.263 180.078,305.270 180.078 C 305.277 180.078,304.489 181.745,303.520 183.783 M258.756 183.177 L 259.426 184.908 230.609 213.727 C 214.759 229.578,201.747 242.503,201.694 242.449 C 201.640 242.395,202.042 240.688,202.589 238.656 L 203.581 234.961 230.589 207.919 C 245.443 193.047,257.707 181.006,257.841 181.162 C 257.976 181.318,258.387 182.224,258.756 183.177 M112.063 207.261 L 92.383 226.931 91.057 225.339 L 89.732 223.747 110.393 203.078 L 131.055 182.409 131.399 185.000 L 131.743 187.592 112.063 207.261 M260.657 188.722 L 261.229 190.921 229.197 222.902 C 211.579 240.491,197.296 254.531,197.458 254.102 C 197.620 253.672,198.354 251.650,199.090 249.609 L 200.429 245.898 230.178 216.129 C 246.540 199.756,259.963 186.397,260.006 186.442 C 260.049 186.487,260.342 187.513,260.657 188.722 M181.985 190.432 C 182.031 191.982,181.913 192.115,169.411 204.613 L 156.791 217.228 157.139 213.985 L 157.487 210.742 169.466 198.724 C 182.669 185.478,181.855 186.018,181.985 190.432 M340.614 188.142 L 341.872 188.394 333.924 196.351 C 325.232 205.054,325.521 204.902,325.430 200.786 C 325.391 199.037,325.404 199.020,330.952 193.462 C 336.965 187.438,336.999 187.419,340.614 188.142 M330.091 192.370 C 325.721 196.755,325.289 197.027,326.517 194.621 C 327.715 192.272,329.197 190.698,331.402 189.434 C 334.605 187.596,334.408 188.038,330.091 192.370 M345.421 190.703 L 346.507 191.602 337.766 200.328 L 329.025 209.054 327.787 207.370 L 326.548 205.685 334.829 197.398 C 343.698 188.522,343.180 188.849,345.421 190.703 M113.914 213.171 L 95.537 231.615 94.382 229.840 L 93.228 228.064 112.532 208.753 L 131.836 189.442 132.064 192.084 L 132.291 194.727 113.914 213.171 M262.063 196.290 L 262.109 197.853 226.148 233.790 L 190.186 269.727 192.960 264.063 L 195.735 258.398 228.629 225.483 C 264.851 189.239,261.930 191.789,262.063 196.290 M348.526 194.739 L 349.387 196.509 341.711 204.185 L 334.036 211.860 332.429 211.136 C 331.545 210.737,330.720 210.246,330.595 210.044 C 330.371 209.681,346.784 192.969,347.365 192.969 C 347.531 192.969,348.053 193.765,348.526 194.739 M296.289 296.479 C 213.215 379.558,192.967 400.000,193.751 400.000 C 195.193 400.000,400.133 195.053,399.938 193.806 C 399.831 193.123,379.604 213.159,296.289 296.479 M182.422 196.779 L 182.422 199.418 168.901 212.893 C 159.625 222.136,155.451 226.055,155.607 225.374 C 155.731 224.828,155.949 223.334,156.090 222.054 L 156.346 219.727 169.083 206.934 C 176.088 199.897,181.955 194.141,182.121 194.141 C 182.286 194.141,182.422 195.328,182.422 196.779 M115.352 219.609 C 105.944 229.019,98.145 236.719,98.023 236.719 C 97.901 236.719,97.441 235.884,97.001 234.863 L 96.202 233.008 114.214 214.937 L 132.227 196.867 132.343 199.683 L 132.459 202.498 115.352 219.609 M349.408 202.715 C 348.802 206.755,342.137 212.102,337.699 212.107 L 335.751 212.109 342.582 205.264 C 350.129 197.702,350.162 197.690,349.408 202.715 M261.948 205.257 C 261.836 205.696,247.983 219.789,231.165 236.575 L 200.586 267.096 197.461 268.149 C 195.742 268.729,193.809 269.365,193.164 269.563 C 192.337 269.817,202.285 259.629,226.953 234.958 L 261.914 199.992 262.034 202.226 C 262.099 203.454,262.061 204.819,261.948 205.257 M300.196 300.385 C 220.246 380.339,200.779 400.000,201.563 400.000 C 203.005 400.000,400.133 202.866,399.938 201.619 C 399.831 200.935,380.374 220.202,300.196 300.385 M182.242 205.673 L 181.994 207.658 167.622 222.026 L 153.250 236.394 154.089 232.630 L 154.928 228.865 168.577 215.206 C 183.536 200.237,182.863 200.707,182.242 205.673 M132.129 207.715 L 131.953 210.742 118.615 224.121 L 105.278 237.500 102.348 237.500 L 99.418 237.500 115.820 221.094 C 124.842 212.070,132.241 204.688,132.264 204.688 C 132.286 204.688,132.225 206.050,132.129 207.715 M261.095 209.668 C 260.958 210.259,260.419 212.061,259.896 213.672 L 258.945 216.602 237.383 238.212 L 215.820 259.823 211.175 262.169 C 208.621 263.459,206.072 264.684,205.511 264.892 C 204.951 265.100,217.236 252.518,232.811 236.932 C 264.042 205.681,261.436 208.193,261.095 209.668 M304.102 304.291 C 227.277 381.120,208.592 400.000,209.376 400.000 C 210.818 400.000,400.133 210.678,399.938 209.431 C 399.831 208.748,381.143 227.245,304.102 304.291 M181.637 213.117 L 181.245 216.211 165.737 231.723 C 157.208 240.255,150.187 247.192,150.135 247.140 C 150.083 247.089,150.611 245.242,151.309 243.037 L 152.577 239.029 167.189 224.412 C 175.226 216.374,181.853 209.847,181.915 209.910 C 181.978 209.972,181.853 211.416,181.637 213.117 M289.271 217.565 C 286.492 220.350,284.179 222.591,284.132 222.543 C 284.085 222.496,284.524 220.747,285.109 218.656 C 286.606 213.302,287.422 212.500,291.376 212.500 L 294.325 212.500 289.271 217.565 M301.953 212.600 C 301.953 212.655,296.398 218.236,289.609 225.002 L 277.265 237.305 278.834 234.375 C 279.697 232.764,280.871 230.303,281.443 228.906 C 282.372 226.638,283.218 225.628,289.382 219.434 L 296.281 212.500 299.117 212.500 C 300.677 212.500,301.953 212.545,301.953 212.600 M131.214 216.640 L 130.775 219.727 121.934 228.613 L 113.092 237.500 110.162 237.500 L 107.231 237.500 119.321 225.406 C 125.970 218.754,131.465 213.366,131.532 213.433 C 131.599 213.500,131.456 214.943,131.214 216.640 M308.008 308.197 C 234.309 381.902,216.404 400.000,217.188 400.000 C 218.630 400.000,400.133 218.490,399.938 217.244 C 399.831 216.560,381.912 234.288,308.008 308.197 M180.243 222.330 L 179.627 225.650 162.256 243.001 C 152.702 252.544,145.056 259.912,145.264 259.375 C 145.472 258.838,146.363 256.641,147.244 254.492 L 148.846 250.586 164.738 234.683 C 173.478 225.937,180.681 218.832,180.744 218.895 C 180.807 218.958,180.581 220.504,180.243 222.330 M255.818 222.949 C 248.973 235.051,236.497 247.354,222.266 256.038 C 221.148 256.720,227.125 250.478,238.670 238.907 C 248.660 228.895,256.890 220.703,256.961 220.703 C 257.031 220.703,256.517 221.714,255.818 222.949 M129.466 226.243 L 128.777 229.492 124.861 233.496 L 120.945 237.500 117.996 237.500 L 115.047 237.500 122.447 230.092 C 126.516 226.018,129.916 222.754,130.001 222.839 C 130.086 222.924,129.845 224.456,129.466 226.243 M311.914 312.103 C 241.340 382.683,224.216 400.000,225.001 400.000 C 226.442 400.000,400.133 226.303,399.938 225.056 C 399.831 224.372,382.682 241.331,311.914 312.103 M177.843 232.533 L 176.790 236.299 156.340 256.724 C 136.489 276.550,135.943 277.059,137.680 274.095 C 138.665 272.416,140.185 269.603,141.058 267.845 C 142.591 264.758,143.262 264.030,160.661 246.598 C 170.570 236.670,178.726 228.596,178.787 228.657 C 178.847 228.717,178.423 230.461,177.843 232.533 M315.821 316.010 C 248.371 383.464,232.029 400.000,232.813 400.000 C 234.255 400.000,400.133 234.115,399.938 232.869 C 399.831 232.185,383.451 248.374,315.821 316.010 M127.057 235.260 L 126.434 237.500 124.655 237.500 L 122.876 237.500 125.185 235.166 C 127.910 232.413,127.851 232.410,127.057 235.260 M58.199 245.514 L 50.586 253.137 50.470 250.323 L 50.353 247.509 55.151 242.700 L 59.949 237.891 62.881 237.891 L 65.813 237.891 58.199 245.514 M69.427 239.963 L 70.691 240.820 62.038 249.482 C 52.457 259.074,53.222 258.633,51.579 255.514 C 51.000 254.414,66.376 238.432,67.578 238.885 C 67.900 239.006,68.733 239.491,69.427 239.963 M56.250 239.564 C 56.250 239.625,55.256 240.636,54.041 241.810 C 52.465 243.333,52.077 243.586,52.688 242.693 C 53.582 241.386,56.250 239.042,56.250 239.564 M319.727 319.916 C 255.402 384.245,239.841 400.000,240.626 400.000 C 242.067 400.000,400.133 241.928,399.938 240.681 C 399.831 239.997,384.220 255.417,319.727 319.916 M73.421 244.486 C 74.000 245.586,58.624 261.568,57.422 261.115 C 57.100 260.994,56.267 260.509,55.573 260.037 L 54.309 259.180 62.962 250.518 C 72.543 240.926,71.778 241.367,73.421 244.486 M69.849 257.300 L 65.051 262.109 62.119 262.109 L 59.187 262.109 66.801 254.486 L 74.414 246.863 74.530 249.677 L 74.647 252.491 69.849 257.300 M323.633 323.822 C 262.434 385.027,247.654 400.000,248.438 400.000 C 249.880 400.000,400.133 249.740,399.938 248.494 C 399.831 247.809,384.990 262.460,323.633 323.822 M327.539 327.728 C 269.465 385.808,255.466 400.000,256.251 400.000 C 257.692 400.000,400.133 257.552,399.938 256.306 C 399.831 255.622,385.759 269.503,327.539 327.728 M72.112 257.527 C 71.577 258.230,70.557 259.221,69.846 259.729 C 68.944 260.375,69.198 259.990,70.690 258.452 C 73.121 255.945,73.515 255.689,72.112 257.527 M331.446 331.635 C 276.496 386.589,263.278 400.000,264.063 400.000 C 265.505 400.000,400.133 265.365,399.938 264.118 C 399.831 263.434,386.529 276.547,331.446 331.635 M335.352 335.541 C 283.528 387.371,271.091 400.000,271.876 400.000 C 273.317 400.000,400.133 273.177,399.938 271.931 C 399.830 271.246,387.298 283.590,335.352 335.541 M339.258 339.447 C 290.559 388.152,278.903 400.000,279.688 400.000 C 281.129 400.000,400.133 280.989,399.938 279.743 C 399.830 279.059,388.067 290.633,339.258 339.447 M343.165 343.353 C 297.590 388.933,286.715 400.000,287.501 400.000 C 288.942 400.000,400.133 288.802,399.938 287.556 C 399.830 286.871,388.837 297.676,343.165 343.353 M347.071 347.260 C 304.621 389.714,294.527 400.000,295.314 400.000 C 296.754 400.000,400.133 296.614,399.938 295.368 C 399.830 294.683,389.606 304.719,347.071 347.260 M350.977 351.166 C 311.653 390.496,302.340 400.000,303.126 400.000 C 304.566 400.000,400.133 304.426,399.938 303.181 C 399.830 302.495,390.375 311.762,350.977 351.166 M354.883 355.072 C 318.684 391.277,310.152 400.000,310.939 400.000 C 312.379 400.000,400.132 312.238,399.938 310.993 C 399.830 310.308,391.145 318.805,354.883 355.072 M358.790 358.978 C 325.715 392.058,317.964 400.000,318.751 400.000 C 320.191 400.000,400.132 320.050,399.938 318.805 C 399.830 318.120,391.914 325.848,358.790 358.978 M362.696 362.884 C 332.747 392.840,325.776 400.000,326.564 400.000 C 328.003 400.000,400.132 327.862,399.938 326.618 C 399.830 325.932,392.683 332.891,362.696 362.884 M366.602 366.790 C 339.778 393.621,333.588 400.000,334.377 400.000 C 335.815 400.000,400.132 335.674,399.938 334.430 C 399.830 333.743,393.453 339.934,366.602 366.790 M370.509 370.697 C 346.809 394.402,341.399 400.000,342.189 400.000 C 343.627 400.000,400.132 343.486,399.938 342.242 C 399.830 341.555,394.222 346.977,370.509 370.697 M374.415 374.603 C 353.841 395.184,349.211 400.000,350.002 400.000 C 351.439 400.000,400.132 351.297,399.938 350.055 C 399.830 349.366,394.991 354.020,374.415 374.603 M378.322 378.509 C 360.872 395.965,357.022 400.000,357.815 400.000 C 359.250 400.000,400.132 359.108,399.938 357.867 C 399.830 357.177,395.761 361.063,378.322 378.509 M382.228 382.415 C 367.904 396.746,364.832 400.000,365.628 400.000 C 367.062 400.000,400.131 366.918,399.937 365.679 C 399.829 364.988,396.530 368.106,382.228 382.415 M386.135 386.321 C 374.935 397.528,372.642 400.000,373.442 400.000 C 374.872 400.000,400.131 374.728,399.937 373.490 C 399.829 372.797,397.299 375.148,386.135 386.321 M390.042 390.226 C 381.967 398.310,380.448 400.000,381.256 400.000 C 382.680 400.000,400.130 382.534,399.937 381.301 C 399.828 380.603,398.068 382.191,390.042 390.226 M393.950 394.130 C 389.000 399.093,388.247 400.000,389.073 400.000 C 390.481 400.000,400.127 390.330,399.937 389.110 C 399.827 388.401,398.836 389.231,393.950 394.130 M397.866 398.027 C 396.040 399.886,395.985 400.000,396.914 400.000 C 398.197 400.000,400.111 398.034,399.935 396.897 C 399.819 396.144,399.598 396.264,397.866 398.027 " stroke="none" fill="#000000" fill-rule="evenodd"></path></g></svg>